# Blender 5.0.1
# www.blender.org
mtllib Alfajor.mtl
o Alfajor
v -0.687888 0.000000 -0.269282
v -0.687888 0.000000 0.328808
v -0.831546 1.003325 -0.095309
v -0.831546 1.003325 0.093756
v 0.700609 0.000000 -0.269282
v 0.700609 0.000000 0.328808
v 0.834112 1.003325 -0.095309
v 0.834112 1.003325 0.093756
v -0.885429 1.344219 -0.020117
v 0.887956 1.344219 -0.020117
v -0.694902 0.802260 -0.286641
v -0.694902 0.802260 0.284689
v 0.699446 0.802260 -0.286641
v 0.699446 0.802260 0.284689
v 0.831650 1.003410 -0.001809
v 0.660098 0.000000 0.004392
v 0.638973 0.710339 -0.000638
v -0.672632 0.000000 0.004392
v -0.829880 1.003325 -0.001808
v -0.659062 0.710339 -0.000638
v 0.887956 1.344219 -0.001654
v -0.885429 1.344219 -0.001654
v 0.881778 1.348260 -0.011233
v -0.885429 1.344219 -0.011184
v -0.689965 0.407929 -0.280258
v -0.679928 0.000000 0.166049
v -0.762726 0.907696 0.189768
v -0.830677 1.003325 -0.048581
v 0.001283 1.003325 -0.095309
v 0.001283 1.003325 0.093756
v 0.832827 1.003369 -0.048581
v 0.766193 0.907696 -0.191960
v 0.698531 0.407929 0.308368
v 0.679473 0.000000 -0.132996
v 0.006361 0.000000 -0.269282
v 0.006361 0.000000 0.328808
v 0.001263 1.344219 -0.001654
v -0.859419 1.172110 0.044978
v -0.885429 1.344219 -0.015657
v 0.861944 1.172110 0.044978
v -0.762726 0.907696 -0.191960
v -0.689965 0.407929 0.308368
v 0.698531 0.407929 -0.280258
v 0.766193 0.907696 0.189768
v 0.002272 0.802260 0.284689
v 0.002272 0.802260 -0.286641
v 0.675918 0.719093 -0.130720
v -0.683866 0.719093 -0.130720
v 0.832827 1.003369 0.045951
v 0.679473 0.000000 0.166049
v 0.675918 0.719093 0.132754
v 0.717008 0.894564 -0.001504
v 0.629090 0.394797 0.001496
v -0.679928 0.000000 -0.132996
v -0.830677 1.003325 0.045952
v -0.683866 0.719093 0.132754
v -0.648229 0.394797 0.001496
v -0.728617 0.894564 -0.001504
v 0.001263 1.344219 -0.020117
v 0.861944 1.172110 -0.056401
v -0.859419 1.172110 -0.056401
v 0.884733 1.346327 -0.015683
v 0.884733 1.346327 -0.006451
v 0.858856 1.174130 -0.006420
v -0.885429 1.344219 -0.006426
v -0.859419 1.172110 -0.006396
v -0.745820 0.896753 0.093029
v 0.001263 1.172110 0.044978
v 0.663233 0.396986 0.153565
v 0.004283 0.407929 -0.280258
v 0.004283 0.407929 0.308367
v 0.001263 1.172110 -0.056401
v 0.001734 0.907696 0.189768
v 0.001734 0.907696 -0.191960
v 0.741464 0.896753 0.093029
v -0.669080 0.396986 0.153565
v 0.741464 0.896753 -0.095224
v 0.663233 0.396986 -0.138138
v -0.669080 0.396986 -0.138138
v -0.745820 0.896753 -0.095224
v 0.000189 1.344922 -0.010998
v 0.860333 1.173164 -0.031426
v -0.859419 1.172109 0.019276
v 0.860333 1.173164 0.019263
v -0.859419 1.172109 -0.031413
v -0.831546 -1.003325 -0.095309
v -0.831546 -1.003325 0.093756
v 0.834112 -1.003325 -0.095309
v 0.834112 -1.003325 0.093756
v -0.885429 -1.344219 -0.020117
v 0.887956 -1.344219 -0.020117
v -0.694902 -0.802260 -0.286641
v -0.694902 -0.802260 0.284689
v 0.699446 -0.802260 -0.286641
v 0.699446 -0.802260 0.284689
v 0.831650 -1.003409 -0.001809
v 0.638973 -0.710339 -0.000639
v -0.829880 -1.003325 -0.001808
v -0.659062 -0.710339 -0.000639
v 0.887956 -1.344219 -0.001654
v -0.885429 -1.344219 -0.001654
v 0.881778 -1.348260 -0.011233
v -0.885429 -1.344219 -0.011184
v -0.689965 -0.407929 -0.280258
v -0.762726 -0.907696 0.189768
v -0.830677 -1.003325 -0.048581
v 0.001283 -1.003325 -0.095309
v 0.001283 -1.003325 0.093756
v 0.832827 -1.003369 -0.048582
v 0.766193 -0.907696 -0.191960
v 0.698531 -0.407929 0.308367
v 0.001263 -1.344219 -0.001654
v -0.859419 -1.172109 0.044977
v -0.885429 -1.344219 -0.015657
v 0.861944 -1.172109 0.044977
v -0.762726 -0.907696 -0.191960
v -0.689965 -0.407929 0.308367
v 0.698531 -0.407929 -0.280258
v 0.766193 -0.907696 0.189768
v 0.002272 -0.802260 0.284689
v 0.002272 -0.802260 -0.286641
v 0.675918 -0.719093 -0.130720
v -0.683866 -0.719093 -0.130720
v 0.832827 -1.003369 0.045951
v 0.675918 -0.719093 0.132754
v 0.717008 -0.894564 -0.001504
v 0.629090 -0.394797 0.001496
v -0.830677 -1.003325 0.045952
v -0.683866 -0.719093 0.132754
v -0.648229 -0.394797 0.001496
v -0.728617 -0.894564 -0.001504
v 0.001263 -1.344219 -0.020117
v 0.861944 -1.172109 -0.056401
v -0.859419 -1.172109 -0.056401
v 0.884733 -1.346327 -0.015683
v 0.884733 -1.346327 -0.006451
v 0.858856 -1.174130 -0.006420
v -0.885429 -1.344219 -0.006426
v -0.859419 -1.172109 -0.006396
v -0.745820 -0.896753 0.093029
v 0.001263 -1.172109 0.044977
v 0.663233 -0.396986 0.153565
v 0.004283 -0.407929 -0.280258
v 0.004283 -0.407929 0.308367
v 0.001263 -1.172109 -0.056401
v 0.001734 -0.907696 0.189768
v 0.001734 -0.907696 -0.191960
v 0.741464 -0.896753 0.093029
v -0.669080 -0.396986 0.153565
v 0.741464 -0.896753 -0.095224
v 0.663233 -0.396986 -0.138138
v -0.669080 -0.396986 -0.138138
v -0.745820 -0.896753 -0.095224
v 0.000189 -1.344921 -0.010998
v 0.860333 -1.173164 -0.031426
v -0.859419 -1.172109 0.019276
v 0.860333 -1.173164 0.019263
v -0.859419 -1.172109 -0.031413
vn -0.9808 -0.1950 0.0042
vn -0.9758 -0.2067 -0.0720
vn -0.8640 -0.4966 -0.0831
vn -0.8630 -0.5052 0.0022
vn -0.2830 0.1825 0.9416
vn -0.7145 0.2610 0.6491
vn -0.4912 0.0698 0.8682
vn -0.9126 -0.4066 -0.0433
vn -0.9114 -0.4116 -0.0000
vn -0.0000 0.4233 0.9060
vn -0.0000 0.2694 0.9630
vn -0.4176 0.1800 0.8906
vn 0.4874 0.0617 0.8710
vn 0.4259 0.1809 0.8865
vn 0.6145 0.3382 0.7127
vn -0.0000 0.2615 0.9652
vn -0.5765 0.3600 0.7335
vn 0.9780 -0.2086 0.0068
vn 0.9642 -0.2183 -0.1504
vn 0.9822 0.0013 -0.1876
vn 0.9999 0.0090 0.0086
vn 0.2877 0.1848 0.9397
vn 0.2628 0.0548 0.9633
vn 0.2208 -0.0000 0.9753
vn 0.9850 -0.0000 -0.1724
vn 1.0000 -0.0000 0.0065
vn -0.2219 0.1226 -0.9673
vn -0.0000 0.1306 -0.9914
vn -0.0000 -0.0215 -0.9998
vn -0.2479 -0.0236 -0.9685
vn 0.2247 0.1236 -0.9666
vn 0.2535 -0.0215 -0.9671
vn 0.2864 -0.0000 -0.9581
vn -0.0000 -0.0000 -1.0000
vn -0.2768 -0.0000 -0.9609
vn -0.0000 0.1976 0.9803
vn -0.0000 0.0550 0.9985
vn -0.2573 0.0521 0.9649
vn -0.2151 -0.0000 0.9766
vn -0.0000 -0.0000 1.0000
vn 0.4536 0.0411 -0.8903
vn -0.0000 0.3733 -0.9277
vn -0.0000 0.2152 -0.9766
vn 0.3765 0.1426 -0.9154
vn -0.4577 0.0487 -0.8878
vn -0.3689 0.1413 -0.9187
vn -0.5141 0.3229 -0.7947
vn -0.0000 0.2063 -0.9785
vn 0.5474 0.3028 -0.7801
vn -0.0000 0.6885 0.7252
vn 0.7305 0.2530 0.6343
vn -0.0000 0.6892 -0.7246
vn -0.7151 0.2610 -0.6484
vn 0.7311 0.2535 -0.6334
vn 0.9046 -0.4263 -0.0012
vn 0.9026 -0.4238 -0.0757
vn 0.8391 -0.5263 -0.1374
vn 0.8410 -0.5411 0.0032
vn -1.0000 -0.0000 0.0034
vn -0.9959 -0.0000 -0.0902
vn -0.9946 -0.0055 -0.1041
vn -1.0000 0.0003 0.0046
vn 0.9032 -0.4224 0.0767
vn 0.8395 -0.5257 0.1377
vn 0.9645 -0.2125 0.1567
vn 0.9783 0.0078 0.2069
vn 0.9809 -0.0000 0.1947
vn -0.9947 -0.0000 0.1025
vn -0.9933 -0.0027 0.1159
vn -0.9762 -0.2034 0.0757
vn -0.8641 -0.4964 0.0828
vn -0.9127 -0.4063 0.0439
vn -0.0008 0.9922 0.1249
vn -0.0008 1.0000 -0.0025
vn -0.8727 0.4880 0.0156
vn 0.8709 0.4858 -0.0742
vn 0.8932 0.4494 0.0164
vn 0.8685 0.4898 0.0759
vn -0.0008 0.9915 -0.1301
vn -0.8727 0.4880 -0.0163
vn -0.8729 0.4880 -0.0000
vn 0.9813 -0.1605 0.1065
vn 0.9882 -0.1528 -0.0045
vn -0.9871 -0.1598 -0.0055
vn -0.9871 -0.1601 0.0006
vn 0.9805 -0.1669 -0.1037
vn -0.9872 -0.1594 0.0056
vn -0.9808 0.1950 0.0042
vn -0.8630 0.5052 0.0022
vn -0.8640 0.4966 -0.0831
vn -0.9758 0.2067 -0.0720
vn -0.7145 -0.2610 0.6491
vn -0.2830 -0.1825 0.9416
vn -0.9126 0.4066 -0.0433
vn -0.4912 -0.0698 0.8682
vn -0.9114 0.4116 -0.0000
vn -0.4176 -0.1800 0.8906
vn -0.0000 -0.2694 0.9630
vn -0.0000 -0.4233 0.9060
vn 0.4259 -0.1809 0.8865
vn 0.4874 -0.0617 0.8710
vn -0.0000 -0.2615 0.9652
vn 0.6145 -0.3382 0.7127
vn -0.5765 -0.3600 0.7335
vn 0.9780 0.2086 0.0068
vn 0.9999 -0.0090 0.0086
vn 0.9822 -0.0013 -0.1876
vn 0.9642 0.2183 -0.1504
vn 0.2628 -0.0548 0.9633
vn 0.2877 -0.1848 0.9397
vn -0.2219 -0.1226 -0.9673
vn -0.2479 0.0236 -0.9685
vn -0.0000 0.0215 -0.9998
vn -0.0000 -0.1306 -0.9914
vn 0.2535 0.0215 -0.9671
vn 0.2247 -0.1236 -0.9666
vn -0.0000 -0.0550 0.9985
vn -0.0000 -0.1976 0.9803
vn -0.2573 -0.0521 0.9649
vn 0.4536 -0.0411 -0.8903
vn 0.3765 -0.1426 -0.9154
vn -0.0000 -0.2152 -0.9766
vn -0.0000 -0.3733 -0.9277
vn -0.3689 -0.1413 -0.9187
vn -0.4577 -0.0487 -0.8878
vn -0.0000 -0.2063 -0.9785
vn -0.5141 -0.3229 -0.7947
vn 0.5474 -0.3028 -0.7801
vn 0.7305 -0.2530 0.6343
vn -0.0000 -0.6885 0.7252
vn -0.7151 -0.2610 -0.6484
vn -0.0000 -0.6892 -0.7246
vn 0.7311 -0.2535 -0.6334
vn 0.9046 0.4263 -0.0012
vn 0.8410 0.5411 0.0032
vn 0.8391 0.5263 -0.1374
vn 0.9026 0.4238 -0.0757
vn -1.0000 -0.0003 0.0046
vn -0.9946 0.0055 -0.1041
vn 0.8395 0.5257 0.1377
vn 0.9032 0.4224 0.0767
vn 0.9645 0.2125 0.1567
vn 0.9783 -0.0078 0.2069
vn -0.9933 0.0027 0.1159
vn -0.9762 0.2034 0.0757
vn -0.8641 0.4964 0.0828
vn -0.9127 0.4063 0.0439
vn -0.8727 -0.4880 0.0156
vn -0.0008 -1.0000 -0.0025
vn -0.0008 -0.9922 0.1249
vn 0.8709 -0.4858 -0.0742
vn 0.8932 -0.4494 0.0164
vn 0.8685 -0.4898 0.0759
vn -0.0008 -0.9915 -0.1301
vn -0.8727 -0.4880 -0.0163
vn -0.8729 -0.4880 -0.0000
vn 0.9813 0.1605 0.1065
vn 0.9882 0.1528 -0.0045
vn -0.9871 0.1598 -0.0055
vn -0.9871 0.1601 0.0006
vn 0.9805 0.1669 -0.1037
vn -0.9872 0.1594 0.0056
vt 0.728557 0.732793
vt 0.726862 0.840294
vt 0.698126 0.808588
vt 0.698990 0.732083
vt 0.715883 0.962926
vt 0.695818 0.886491
vt 0.675025 0.809722
vt 0.674052 0.771009
vt 0.673385 0.731806
vt 0.428663 0.566423
vt 0.430208 0.736976
vt 0.384247 0.736972
vt 0.382563 0.561264
vt 0.428666 0.907529
vt 0.382566 0.912681
vt 0.337675 0.917356
vt 0.339507 0.736973
vt 0.337672 0.556589
vt 0.932602 0.232797
vt 0.934534 0.340278
vt 0.888519 0.356791
vt 0.888110 0.234488
vt 0.945413 0.463019
vt 0.889606 0.481702
vt 0.832003 0.498141
vt 0.832003 0.366885
vt 0.832003 0.236841
vt 0.359772 0.161460
vt 0.502971 0.163608
vt 0.503392 0.219244
vt 0.360694 0.218240
vt 0.646546 0.162140
vt 0.645916 0.218607
vt 0.646101 0.277318
vt 0.503950 0.277318
vt 0.360964 0.277318
vt 0.024940 0.161867
vt 0.168502 0.163323
vt 0.168092 0.221876
vt 0.025603 0.221266
vt 0.311676 0.161136
vt 0.310767 0.220873
vt 0.310497 0.281584
vt 0.167545 0.281584
vt 0.025418 0.281584
vt 0.003713 0.916068
vt 0.001953 0.745526
vt 0.041346 0.745522
vt 0.043237 0.921221
vt 0.003716 0.574983
vt 0.043240 0.569823
vt 0.081407 0.565121
vt 0.079376 0.745522
vt 0.081404 0.925924
vt 0.001953 0.003197
vt 0.167917 0.008750
vt 0.168215 0.086300
vt 0.012012 0.082949
vt 0.333765 0.001953
vt 0.324289 0.081862
vt 0.337672 0.001953
vt 0.503519 0.008732
vt 0.503237 0.086778
vt 0.347141 0.082377
vt 0.669479 0.003131
vt 0.659458 0.083403
vt 0.990621 0.231801
vt 0.989639 0.271393
vt 0.963984 0.308792
vt 0.962903 0.232085
vt 0.988157 0.310276
vt 0.966337 0.386837
vt 0.829269 0.736829
vt 0.829269 0.866849
vt 0.772831 0.856832
vt 0.773181 0.734497
vt 0.829269 0.998047
vt 0.771677 0.981620
vt 0.988070 0.155116
vt 0.989569 0.193059
vt 0.963874 0.156076
vt 0.966300 0.078072
vt 0.934515 0.127993
vt 0.945393 0.001953
vt 0.888571 0.122172
vt 0.889674 0.007477
vt 0.832003 0.126145
vt 0.832003 0.016439
vt 0.829269 0.516578
vt 0.829269 0.626240
vt 0.772814 0.622142
vt 0.771645 0.507574
vt 0.726903 0.627971
vt 0.715927 0.502048
vt 0.698220 0.656268
vt 0.695853 0.578404
vt 0.674111 0.693440
vt 0.675105 0.655656
vt 0.281843 0.927108
vt 0.282271 0.746139
vt 0.289799 0.746358
vt 0.285687 0.927129
vt 0.281843 0.565169
vt 0.285721 0.565806
vt 0.289585 0.566394
vt 0.293179 0.565783
vt 0.296763 0.565121
vt 0.297146 0.746140
vt 0.296718 0.927157
vt 0.293124 0.927153
vt 0.289521 0.927144
vt 0.669299 0.705374
vt 0.641159 0.676671
vt 0.639695 0.656078
vt 0.665078 0.668214
vt 0.614340 0.647317
vt 0.614107 0.643578
vt 0.613916 0.639823
vt 0.639134 0.635778
vt 0.663679 0.632059
vt 0.258607 0.640410
vt 0.258665 0.644361
vt 0.233172 0.623356
vt 0.232174 0.602199
vt 0.258627 0.648324
vt 0.233562 0.644295
vt 0.209173 0.640596
vt 0.207585 0.603447
vt 0.203586 0.565121
vt 0.639602 0.614812
vt 0.665300 0.594916
vt 0.614029 0.635793
vt 0.614198 0.631759
vt 0.640706 0.593652
vt 0.669299 0.556589
vt 0.233084 0.664588
vt 0.207800 0.676756
vt 0.258600 0.652047
vt 0.258496 0.655743
vt 0.231720 0.685198
vt 0.203586 0.713915
vt 0.929980 0.732793
vt 0.959547 0.732083
vt 0.960412 0.808588
vt 0.931676 0.840294
vt 0.962720 0.886491
vt 0.942655 0.962926
vt 0.984486 0.771009
vt 0.983512 0.809722
vt 0.985152 0.731806
vt 0.435659 0.566424
vt 0.481759 0.561264
vt 0.480076 0.736973
vt 0.434115 0.736977
vt 0.481759 0.912681
vt 0.435659 0.907529
vt 0.524816 0.736973
vt 0.526650 0.917356
vt 0.526650 0.556589
vt 0.731404 0.232797
vt 0.775897 0.234488
vt 0.775487 0.356791
vt 0.729472 0.340278
vt 0.774401 0.481702
vt 0.718593 0.463019
vt 0.359772 0.393177
vt 0.360694 0.336396
vt 0.503392 0.335392
vt 0.502971 0.391029
vt 0.645916 0.336029
vt 0.646546 0.392496
vt 0.024940 0.401301
vt 0.025603 0.341902
vt 0.168092 0.341292
vt 0.168502 0.399845
vt 0.310767 0.342295
vt 0.311676 0.402032
vt 0.608250 0.907536
vt 0.568726 0.912690
vt 0.570617 0.736991
vt 0.610010 0.736994
vt 0.568723 0.561291
vt 0.608247 0.566452
vt 0.532587 0.736991
vt 0.530556 0.556589
vt 0.530559 0.917392
vt 0.001953 0.559971
vt 0.012012 0.480219
vt 0.168215 0.476868
vt 0.167917 0.554418
vt 0.324289 0.481306
vt 0.333765 0.561215
vt 0.337672 0.552683
vt 0.347141 0.472259
vt 0.503237 0.467859
vt 0.503519 0.545904
vt 0.659458 0.471233
vt 0.669479 0.551505
vt 0.673385 0.231801
vt 0.701104 0.232085
vt 0.700022 0.308792
vt 0.674368 0.271393
vt 0.697669 0.386837
vt 0.675850 0.310276
vt 0.885357 0.734497
vt 0.885706 0.856832
vt 0.886861 0.981620
vt 0.675937 0.155116
vt 0.697706 0.078071
vt 0.700132 0.156076
vt 0.674438 0.193059
vt 0.729491 0.127993
vt 0.718614 0.001953
vt 0.774333 0.007477
vt 0.775436 0.122172
vt 0.886892 0.507574
vt 0.885724 0.622142
vt 0.931635 0.627971
vt 0.942610 0.502048
vt 0.962684 0.578404
vt 0.960318 0.656268
vt 0.984426 0.693440
vt 0.983432 0.655656
vt 0.277812 0.927113
vt 0.273968 0.927132
vt 0.269918 0.746360
vt 0.277447 0.746144
vt 0.277937 0.565174
vt 0.274059 0.565810
vt 0.270194 0.566396
vt 0.266601 0.565784
vt 0.263017 0.565121
vt 0.262571 0.746140
vt 0.262937 0.927157
vt 0.266531 0.927154
vt 0.270134 0.927146
vt 0.140696 0.565121
vt 0.136475 0.602280
vt 0.111092 0.614416
vt 0.112556 0.593824
vt 0.085504 0.626917
vt 0.085737 0.623178
vt 0.110531 0.634717
vt 0.085313 0.630671
vt 0.135076 0.638436
vt 0.199623 0.638626
vt 0.173189 0.676837
vt 0.174187 0.655680
vt 0.199680 0.634674
vt 0.174578 0.634740
vt 0.199642 0.630711
vt 0.148600 0.675589
vt 0.150189 0.638440
vt 0.144602 0.713915
vt 0.136697 0.675579
vt 0.110998 0.655682
vt 0.085426 0.634701
vt 0.112103 0.676843
vt 0.085595 0.638736
vt 0.140696 0.713905
vt 0.148816 0.602280
vt 0.174099 0.614448
vt 0.199616 0.626989
vt 0.172735 0.593838
vt 0.199512 0.623293
vt 0.144602 0.565121
s 1
usemtl Alfajor
f 20/1/1 56/2/2 67/3/3 58/4/4
f 56/2/2 12/5/5 27/6/6 67/3/3
f 67/3/3 27/6/6 4/7/7 55/8/8
f 58/4/4 67/3/3 55/8/8 19/9/9
f 4/10/7 30/11/10 68/12/11 38/13/12
f 30/11/10 8/14/13 40/15/14 68/12/11
f 68/12/11 40/15/14 21/16/15 37/17/16
f 38/13/12 68/12/11 37/17/16 22/18/17
f 17/19/18 51/20/19 69/21/20 53/22/21
f 51/20/19 14/23/22 33/24/23 69/21/20
f 69/21/20 33/24/23 6/25/24 50/26/25
f 53/22/21 69/21/20 50/26/25 16/27/26
f 11/28/27 46/29/28 70/30/29 25/31/30
f 46/29/28 13/32/31 43/33/32 70/30/29
f 70/30/29 43/33/32 5/34/33 35/35/34
f 25/31/30 70/30/29 35/35/34 1/36/35
f 14/37/22 45/38/36 71/39/37 33/40/23
f 45/38/36 12/41/5 42/42/38 71/39/37
f 71/39/37 42/42/38 2/43/39 36/44/40
f 33/40/23 71/39/37 36/44/40 6/45/24
f 7/46/41 29/47/42 72/48/43 60/49/44
f 29/47/42 3/50/45 61/51/46 72/48/43
f 72/48/43 61/51/46 9/52/47 59/53/48
f 60/49/44 72/48/43 59/53/48 10/54/49
f 8/55/13 30/56/10 73/57/50 44/58/51
f 30/56/10 4/59/7 27/60/6 73/57/50
f 73/57/50 27/60/6 12/41/5 45/38/36
f 44/58/51 73/57/50 45/38/36 14/37/22
f 3/61/45 29/62/42 74/63/52 41/64/53
f 29/62/42 7/65/41 32/66/54 74/63/52
f 74/63/52 32/66/54 13/32/31 46/29/28
f 41/64/53 74/63/52 46/29/28 11/28/27
f 15/67/55 49/68/56 75/69/57 52/70/58
f 49/68/56 8/71/13 44/72/51 75/69/57
f 75/69/57 44/72/51 14/23/22 51/20/19
f 52/70/58 75/69/57 51/20/19 17/19/18
f 18/73/59 26/74/60 76/75/61 57/76/62
f 26/74/60 2/77/39 42/78/38 76/75/61
f 76/75/61 42/78/38 12/5/5 56/2/2
f 57/76/62 76/75/61 56/2/2 20/1/1
f 7/79/41 31/80/63 77/81/64 32/82/54
f 31/80/63 15/67/55 52/70/58 77/81/64
f 77/81/64 52/70/58 17/19/18 47/83/65
f 32/82/54 77/81/64 47/83/65 13/84/31
f 13/84/31 47/83/65 78/85/66 43/86/32
f 47/83/65 17/19/18 53/22/21 78/85/66
f 78/85/66 53/22/21 16/27/26 34/87/67
f 43/86/32 78/85/66 34/87/67 5/88/33
f 1/89/35 54/90/68 79/91/69 25/92/30
f 54/90/68 18/73/59 57/76/62 79/91/69
f 79/91/69 57/76/62 20/1/1 48/93/70
f 25/92/30 79/91/69 48/93/70 11/94/27
f 11/94/27 48/93/70 80/95/71 41/96/53
f 48/93/70 20/1/1 58/4/4 80/95/71
f 80/95/71 58/4/4 19/9/9 28/97/72
f 41/96/53 80/95/71 28/97/72 3/98/45
f 22/99/17 37/100/73 81/101/74 65/102/75
f 21/103/15 63/104/76 81/101/74 37/100/73
f 23/105/77 62/106/78 81/101/74 63/104/76
f 10/107/49 59/108/79 81/101/74 62/106/78
f 9/109/47 39/110/80 81/101/74 59/108/79
f 24/111/81 65/102/75 81/101/74 39/110/80
f 7/112/41 60/113/44 82/114/82 31/115/63
f 60/113/44 10/116/49 62/117/78 82/114/82
f 82/114/82 62/117/78 23/118/77 64/119/83
f 31/115/63 82/114/82 64/119/83 15/120/55
f 22/121/17 65/122/75 83/123/84 38/124/12
f 65/122/75 24/125/81 66/126/85 83/123/84
f 83/123/84 66/126/85 19/127/9 55/128/8
f 38/124/12 83/123/84 55/128/8 4/129/7
f 15/120/55 64/119/83 84/130/86 49/131/56
f 64/119/83 23/118/77 63/132/76 84/130/86
f 84/130/86 63/132/76 21/133/15 40/134/14
f 49/131/56 84/130/86 40/134/14 8/135/13
f 19/127/9 66/126/85 85/136/87 28/137/72
f 66/126/85 24/125/81 39/138/80 85/136/87
f 85/136/87 39/138/80 9/139/47 61/140/46
f 28/137/72 85/136/87 61/140/46 3/141/45
f 99/142/88 131/143/89 140/144/90 129/145/91
f 129/145/91 140/144/90 105/146/92 93/147/93
f 140/144/90 128/148/94 87/149/95 105/146/92
f 131/143/89 98/150/96 128/148/94 140/144/90
f 87/151/95 113/152/97 141/153/98 108/154/99
f 108/154/99 141/153/98 115/155/100 89/156/101
f 141/153/98 112/157/102 100/158/103 115/155/100
f 113/152/97 101/159/104 112/157/102 141/153/98
f 97/160/105 127/161/106 142/162/107 125/163/108
f 125/163/108 142/162/107 111/164/109 95/165/110
f 142/162/107 50/26/25 6/25/24 111/164/109
f 127/161/106 16/27/26 50/26/25 142/162/107
f 92/166/111 104/167/112 143/168/113 121/169/114
f 121/169/114 143/168/113 118/170/115 94/171/116
f 143/168/113 35/35/34 5/34/33 118/170/115
f 104/167/112 1/36/35 35/35/34 143/168/113
f 95/172/110 111/173/109 144/174/117 120/175/118
f 120/175/118 144/174/117 117/176/119 93/177/93
f 144/174/117 36/44/40 2/43/39 117/176/119
f 111/173/109 6/45/24 36/44/40 144/174/117
f 88/178/120 133/179/121 145/180/122 107/181/123
f 107/181/123 145/180/122 134/182/124 86/183/125
f 145/180/122 132/184/126 90/185/127 134/182/124
f 133/179/121 91/186/128 132/184/126 145/180/122
f 89/187/101 119/188/129 146/189/130 108/190/99
f 108/190/99 146/189/130 105/191/92 87/192/95
f 146/189/130 120/175/118 93/177/93 105/191/92
f 119/188/129 95/172/110 120/175/118 146/189/130
f 86/193/125 116/194/131 147/195/132 107/196/123
f 107/196/123 147/195/132 110/197/133 88/198/120
f 147/195/132 121/169/114 94/171/116 110/197/133
f 116/194/131 92/166/111 121/169/114 147/195/132
f 96/199/134 126/200/135 148/201/136 124/202/137
f 124/202/137 148/201/136 119/203/129 89/204/101
f 148/201/136 125/163/108 95/165/110 119/203/129
f 126/200/135 97/160/105 125/163/108 148/201/136
f 18/73/59 130/205/138 149/206/139 26/74/60
f 26/74/60 149/206/139 117/207/119 2/77/39
f 149/206/139 129/145/91 93/147/93 117/207/119
f 130/205/138 99/142/88 129/145/91 149/206/139
f 88/208/120 110/209/133 150/210/140 109/211/141
f 109/211/141 150/210/140 126/200/135 96/199/134
f 150/210/140 122/212/142 97/160/105 126/200/135
f 110/209/133 94/213/116 122/212/142 150/210/140
f 94/213/116 118/214/115 151/215/143 122/212/142
f 122/212/142 151/215/143 127/161/106 97/160/105
f 151/215/143 34/87/67 16/27/26 127/161/106
f 118/214/115 5/88/33 34/87/67 151/215/143
f 1/89/35 104/216/112 152/217/144 54/90/68
f 54/90/68 152/217/144 130/205/138 18/73/59
f 152/217/144 123/218/145 99/142/88 130/205/138
f 104/216/112 92/219/111 123/218/145 152/217/144
f 92/219/111 116/220/131 153/221/146 123/218/145
f 123/218/145 153/221/146 131/143/89 99/142/88
f 153/221/146 106/222/147 98/150/96 131/143/89
f 116/220/131 86/223/125 106/222/147 153/221/146
f 101/224/104 138/225/148 154/226/149 112/227/150
f 100/228/103 112/227/150 154/226/149 136/229/151
f 102/230/152 136/229/151 154/226/149 135/231/153
f 91/232/128 135/231/153 154/226/149 132/233/154
f 90/234/127 132/233/154 154/226/149 114/235/155
f 103/236/156 114/235/155 154/226/149 138/225/148
f 88/237/120 109/238/141 155/239/157 133/240/121
f 133/240/121 155/239/157 135/241/153 91/242/128
f 155/239/157 137/243/158 102/244/152 135/241/153
f 109/238/141 96/245/134 137/243/158 155/239/157
f 101/246/104 113/247/97 156/248/159 138/249/148
f 138/249/148 156/248/159 139/250/160 103/251/156
f 156/248/159 128/252/94 98/253/96 139/250/160
f 113/247/97 87/254/95 128/252/94 156/248/159
f 96/245/134 124/255/137 157/256/161 137/243/158
f 137/243/158 157/256/161 136/257/151 102/244/152
f 157/256/161 115/258/100 100/259/103 136/257/151
f 124/255/137 89/260/101 115/258/100 157/256/161
f 98/253/96 106/261/147 158/262/162 139/250/160
f 139/250/160 158/262/162 114/263/155 103/251/156
f 158/262/162 134/264/124 90/265/127 114/263/155
f 106/261/147 86/266/125 134/264/124 158/262/162
