# Blender 5.0.1
# www.blender.org
mtllib Billete.mtl
o Billetes
v -0.436076 -0.000071 1.019328
v 0.443782 0.028135 0.994726
v -0.446655 -0.033412 -0.973388
v 0.432953 -0.017994 -1.002321
v -0.444978 0.014188 -0.729244
v -0.455323 0.052622 -0.497092
v -0.442318 0.016657 -0.230544
v -0.441242 0.028280 0.019882
v -0.440050 -0.000381 0.269199
v -0.438862 -0.000179 0.519320
v -0.437549 0.000079 0.769283
v -0.326117 0.000480 1.016568
v -0.215913 0.004693 1.013881
v -0.106464 0.035462 1.010101
v 0.003329 0.059314 1.004707
v 0.113705 0.064641 1.000309
v 0.223804 0.051427 0.998826
v 0.334019 0.058291 0.993656
v 0.442151 0.020870 0.741872
v 0.440033 -0.037297 0.497949
v 0.438475 -0.061813 0.247735
v 0.444428 -0.049946 0.008026
v 0.437073 -0.032282 -0.252388
v 0.435944 -0.019392 -0.502273
v 0.434342 -0.019308 -0.752284
v 0.323167 0.000864 -0.999126
v 0.213237 0.000886 -0.996440
v 0.102981 0.007710 -0.994058
v -0.006533 -0.037044 -0.988929
v -0.116691 -0.024438 -0.987090
v -0.226960 -0.053423 -0.978382
v -0.336483 -0.019938 -0.980328
v -0.327572 -0.000096 0.766610
v -0.217701 0.002565 0.763800
v -0.107873 0.008159 0.761099
v 0.001857 0.022068 0.756918
v 0.111711 0.018267 0.753517
v 0.221716 0.013464 0.750780
v 0.331720 0.008483 0.748037
v -0.328951 0.000611 0.516592
v -0.219057 0.001757 0.513738
v -0.109415 0.009085 0.510451
v 0.000473 0.004429 0.507284
v 0.110252 -0.008109 0.504505
v 0.220235 -0.014439 0.502529
v 0.329800 -0.029311 0.500400
v -0.330201 0.008862 0.266440
v -0.220294 0.002993 0.263326
v -0.110220 0.012019 0.260605
v -0.000465 0.002610 0.257282
v 0.109715 0.006501 0.254232
v 0.219166 -0.024977 0.252587
v 0.329475 -0.038631 0.249533
v -0.331448 0.008239 0.016429
v -0.221042 0.028468 0.013874
v -0.111500 0.010079 0.010431
v -0.000962 0.021916 0.007706
v 0.108550 -0.005531 0.005038
v 0.218592 -0.008958 0.003052
v 0.334395 -0.034372 -0.008755
v -0.332209 0.043572 -0.233065
v -0.222387 0.020833 -0.235813
v -0.112071 0.033245 -0.239316
v -0.002330 0.009998 -0.241871
v 0.107793 0.003514 -0.244580
v 0.217715 0.003703 -0.246636
v 0.327699 -0.009044 -0.249059
v -0.333616 0.021781 -0.482432
v -0.223271 0.036911 -0.486705
v -0.113729 0.013713 -0.488568
v -0.003634 0.012972 -0.491765
v 0.106345 0.014411 -0.494273
v 0.216463 0.006255 -0.496576
v 0.326345 0.002524 -0.499149
v -0.334772 0.015197 -0.732138
v -0.225039 0.003217 -0.735126
v -0.115034 -0.008803 -0.737369
v -0.005048 0.003980 -0.741530
v 0.104972 -0.002675 -0.744134
v 0.214942 0.016344 -0.746530
v 0.324858 0.001128 -0.749163
v -0.436073 -0.010071 1.019336
v 0.443632 0.018206 0.995869
v -0.446515 -0.043269 -0.971736
v 0.432607 -0.027963 -1.002331
v -0.445043 0.004270 -0.727977
v -0.455471 0.042633 -0.496752
v -0.442305 0.006663 -0.230914
v -0.441262 0.018294 0.019365
v -0.440055 -0.010374 0.268839
v -0.438816 -0.010178 0.519234
v -0.437544 -0.009921 0.769283
v -0.326085 -0.009519 1.016598
v -0.215720 -0.005292 1.014197
v -0.106133 0.025534 1.011028
v 0.003511 0.049432 1.006179
v 0.113642 0.054783 1.001985
v 0.223744 0.041577 1.000544
v 0.333958 0.048397 0.995102
v 0.442103 0.010988 0.743402
v 0.439923 -0.047209 0.499249
v 0.438170 -0.071788 0.247884
v 0.444094 -0.059900 0.007454
v 0.436709 -0.042227 -0.253032
v 0.435558 -0.029351 -0.502493
v 0.433983 -0.029274 -0.752270
v 0.322928 -0.009120 -0.998971
v 0.213225 -0.009112 -0.996232
v 0.103204 -0.002271 -0.993708
v -0.006361 -0.046998 -0.988060
v -0.116607 -0.034353 -0.985802
v -0.227076 -0.063283 -0.976735
v -0.336609 -0.029779 -0.978578
v -0.327547 -0.010096 0.766623
v -0.217569 -0.007429 0.763955
v -0.107658 -0.001814 0.761644
v 0.001935 0.012124 0.757959
v 0.111621 0.008358 0.754848
v 0.221620 0.003574 0.752241
v 0.331661 -0.001398 0.749570
v -0.328930 -0.009389 0.516502
v -0.218994 -0.008242 0.513668
v -0.109361 -0.000914 0.510506
v 0.000408 -0.005567 0.507519
v 0.110091 -0.018094 0.504915
v 0.220024 -0.024404 0.503213
v 0.329641 -0.039246 0.501479
v -0.330183 -0.001132 0.266088
v -0.220258 -0.007001 0.263015
v -0.110232 0.002022 0.260375
v -0.000562 -0.007385 0.257091
v 0.109483 -0.003484 0.254095
v 0.218859 -0.034952 0.252547
v 0.329176 -0.048608 0.249608
v -0.331434 -0.001748 0.015907
v -0.221053 0.018478 0.013416
v -0.111555 0.000085 0.010094
v -0.001110 0.011923 0.007544
v 0.108339 -0.015518 0.004892
v 0.218339 -0.018933 0.002637
v 0.334060 -0.044326 -0.009343
v -0.332225 0.033576 -0.233360
v -0.222447 0.010835 -0.235983
v -0.112186 0.023248 -0.239346
v -0.002494 0.000005 -0.241896
v 0.107681 -0.006480 -0.244809
v 0.217570 -0.006282 -0.247067
v 0.327396 -0.019003 -0.249635
v -0.333694 0.011790 -0.482054
v -0.223379 0.026928 -0.486173
v -0.113853 0.003732 -0.488025
v -0.003681 0.002977 -0.491462
v 0.106329 0.004412 -0.494244
v 0.216390 -0.003743 -0.496720
v 0.326074 -0.007455 -0.499370
v -0.334891 0.005286 -0.730835
v -0.225165 -0.006693 -0.733817
v -0.115041 -0.018744 -0.736284
v -0.004945 -0.005991 -0.740809
v 0.105097 -0.012665 -0.743794
v 0.214918 0.006345 -0.746434
v 0.324603 -0.008855 -0.749119
vn -0.8449 0.3762 0.3802
vn 0.8684 0.3797 0.3188
vn -0.8651 0.2881 -0.4106
vn 0.8708 0.3292 -0.3650
vn -0.9038 0.4218 -0.0723
vn -0.9044 0.4265 -0.0130
vn -0.9180 0.3947 0.0393
vn -0.9069 0.4206 0.0259
vn -0.9207 0.3897 0.0186
vn -0.9177 0.3971 0.0080
vn -0.9160 0.4012 0.0051
vn 0.0051 0.7100 0.7041
vn -0.0556 0.7188 0.6930
vn -0.1090 0.7659 0.6337
vn -0.0496 0.8062 0.5895
vn 0.0457 0.8203 0.5701
vn 0.0474 0.8070 0.5886
vn 0.0453 0.8146 0.5782
vn 0.9106 0.4074 -0.0701
vn 0.9293 0.3652 -0.0548
vn 0.9365 0.3508 0.0025
vn 0.9400 0.3406 0.0180
vn 0.9344 0.3560 0.0090
vn 0.9361 0.3518 0.0029
vn 0.9370 0.3492 -0.0058
vn 0.0687 0.7038 -0.7070
vn -0.0129 0.6881 -0.7255
vn -0.1004 0.6967 -0.7103
vn -0.0801 0.6111 -0.7875
vn -0.0562 0.6290 -0.7754
vn 0.0124 0.5492 -0.8356
vn 0.0213 0.5976 -0.8015
vn -0.0133 0.9999 -0.0013
vn -0.0684 0.9975 -0.0155
vn -0.1108 0.9924 -0.0542
vn -0.0402 0.9938 -0.1041
vn 0.0460 0.9900 -0.1330
vn 0.0494 0.9881 -0.1459
vn 0.0305 0.9877 -0.1532
vn -0.0108 0.9999 0.0090
vn -0.0321 0.9995 0.0070
vn -0.0282 0.9996 -0.0055
vn 0.0332 0.9992 -0.0235
vn 0.0828 0.9957 -0.0409
vn 0.1084 0.9918 -0.0681
vn 0.0821 0.9908 -0.1076
vn -0.0091 0.9993 0.0352
vn -0.0181 0.9994 0.0311
vn 0.0060 0.9997 0.0231
vn 0.0502 0.9986 0.0191
vn 0.1189 0.9928 0.0136
vn 0.1570 0.9876 0.0040
vn 0.1531 0.9882 -0.0075
vn -0.0076 0.9986 0.0521
vn 0.0053 0.9989 0.0458
vn 0.0285 0.9990 0.0337
vn 0.0759 0.9970 0.0162
vn 0.1085 0.9940 0.0146
vn 0.1297 0.9907 0.0412
vn 0.1710 0.9836 0.0581
vn 0.0082 0.9995 0.0295
vn 0.0310 0.9994 0.0169
vn 0.0593 0.9982 0.0030
vn 0.0843 0.9964 0.0025
vn 0.0573 0.9981 0.0228
vn 0.0750 0.9963 0.0430
vn 0.1551 0.9863 0.0570
vn 0.0403 0.9985 -0.0378
vn 0.0558 0.9970 -0.0531
vn 0.0643 0.9965 -0.0542
vn 0.0244 0.9992 -0.0303
vn 0.0082 1.0000 -0.0029
vn 0.0374 0.9992 0.0144
vn 0.1392 0.9900 0.0220
vn 0.0614 0.9896 -0.1301
vn 0.0649 0.9893 -0.1307
vn 0.0033 0.9941 -0.1085
vn -0.0533 0.9960 -0.0720
vn -0.0642 0.9974 -0.0339
vn 0.0125 0.9999 -0.0097
vn 0.1307 0.9914 -0.0044
vn -0.8444 -0.3764 0.3812
vn 0.8383 -0.3539 0.4147
vn -0.8434 -0.4446 -0.3016
vn 0.8113 -0.4264 -0.3999
vn -0.9148 -0.4023 0.0349
vn -0.9421 -0.3350 0.0139
vn -0.9021 -0.4314 0.0083
vn -0.9240 -0.3821 -0.0156
vn -0.9100 -0.4145 -0.0105
vn -0.9130 -0.4080 0.0011
vn -0.9148 -0.4038 0.0050
vn 0.0286 -0.7041 0.7095
vn 0.0843 -0.6908 0.7181
vn 0.1314 -0.6279 0.7671
vn 0.0831 -0.5857 0.8063
vn 0.0003 -0.5702 0.8215
vn 0.0024 -0.5885 0.8085
vn 0.0017 -0.5782 0.8159
vn 0.9208 -0.3866 0.0525
vn 0.8994 -0.4342 0.0500
vn 0.8810 -0.4729 0.0156
vn 0.8965 -0.4422 -0.0271
vn 0.8845 -0.4644 -0.0457
vn 0.8891 -0.4575 -0.0155
vn 0.8872 -0.4613 -0.0052
vn -0.1059 -0.7042 -0.7021
vn -0.0216 -0.7250 -0.6884
vn 0.0606 -0.7090 -0.7026
vn 0.0463 -0.7855 -0.6171
vn 0.0036 -0.7742 -0.6330
vn -0.0696 -0.8320 -0.5505
vn -0.0721 -0.7976 -0.5988
vn 0.0133 -0.9999 0.0013
vn 0.0684 -0.9975 0.0155
vn 0.1108 -0.9924 0.0542
vn 0.0402 -0.9938 0.1041
vn -0.0460 -0.9900 0.1330
vn -0.0494 -0.9881 0.1459
vn -0.0305 -0.9877 0.1532
vn 0.0108 -0.9999 -0.0090
vn 0.0321 -0.9995 -0.0070
vn 0.0282 -0.9996 0.0055
vn -0.0331 -0.9992 0.0235
vn -0.0828 -0.9957 0.0409
vn -0.1084 -0.9918 0.0681
vn -0.0821 -0.9908 0.1076
vn 0.0091 -0.9993 -0.0352
vn 0.0181 -0.9994 -0.0311
vn -0.0060 -0.9997 -0.0231
vn -0.0502 -0.9986 -0.0191
vn -0.1189 -0.9928 -0.0135
vn -0.1569 -0.9876 -0.0040
vn -0.1531 -0.9882 0.0075
vn 0.0076 -0.9986 -0.0521
vn -0.0053 -0.9989 -0.0458
vn -0.0285 -0.9990 -0.0337
vn -0.0758 -0.9970 -0.0162
vn -0.1085 -0.9940 -0.0146
vn -0.1297 -0.9907 -0.0412
vn -0.1710 -0.9836 -0.0581
vn -0.0082 -0.9995 -0.0296
vn -0.0309 -0.9994 -0.0170
vn -0.0593 -0.9982 -0.0031
vn -0.0843 -0.9964 -0.0024
vn -0.0573 -0.9981 -0.0228
vn -0.0750 -0.9963 -0.0430
vn -0.1551 -0.9863 -0.0570
vn -0.0403 -0.9985 0.0378
vn -0.0558 -0.9970 0.0531
vn -0.0644 -0.9965 0.0542
vn -0.0243 -0.9992 0.0303
vn -0.0083 -1.0000 0.0029
vn -0.0373 -0.9992 -0.0144
vn -0.1392 -0.9900 -0.0220
vn -0.0614 -0.9896 0.1301
vn -0.0649 -0.9893 0.1307
vn -0.0032 -0.9941 0.1085
vn 0.0532 -0.9960 0.0721
vn 0.0643 -0.9974 0.0339
vn -0.0125 -0.9999 0.0096
vn -0.1308 -0.9914 0.0044
vt 0.863763 0.060692
vt 0.863763 0.116587
vt 0.741403 0.116587
vt 0.741403 0.060692
vt 0.863763 0.172482
vt 0.741403 0.172482
vt 0.863763 0.228338
vt 0.741403 0.228338
vt 0.863763 0.284258
vt 0.741403 0.284258
vt 0.863763 0.340103
vt 0.741403 0.340103
vt 0.863763 0.396244
vt 0.741403 0.396244
vt 0.618929 0.116587
vt 0.618929 0.060692
vt 0.618929 0.172482
vt 0.618929 0.228338
vt 0.618929 0.284258
vt 0.618929 0.340103
vt 0.618929 0.396244
vt 0.496912 0.116587
vt 0.496912 0.060692
vt 0.496912 0.172482
vt 0.496912 0.228338
vt 0.496912 0.284258
vt 0.496912 0.340103
vt 0.496912 0.396244
vt 0.374054 0.116587
vt 0.374054 0.060692
vt 0.374054 0.172482
vt 0.374054 0.228338
vt 0.374054 0.284258
vt 0.374054 0.340103
vt 0.374054 0.396244
vt 0.250211 0.116587
vt 0.250211 0.060692
vt 0.250211 0.172482
vt 0.250211 0.228338
vt 0.250211 0.284258
vt 0.250211 0.340103
vt 0.250211 0.396244
vt 0.129052 0.116587
vt 0.129052 0.060692
vt 0.129052 0.172482
vt 0.129052 0.228338
vt 0.129052 0.284258
vt 0.129052 0.340103
vt 0.129052 0.396244
vt 0.986389 0.004183
vt 0.986389 0.060692
vt 0.863763 0.004183
vt 0.986389 0.116587
vt 0.986389 0.172482
vt 0.986389 0.228338
vt 0.986389 0.284258
vt 0.986389 0.340103
vt 0.986389 0.396244
vt 0.986389 0.452073
vt 0.863763 0.452073
vt 0.741403 0.452073
vt 0.618929 0.452073
vt 0.496912 0.452073
vt 0.374054 0.452073
vt 0.250211 0.452073
vt 0.129052 0.452073
vt 0.006841 0.452073
vt 0.006841 0.396244
vt 0.006841 0.340103
vt 0.006841 0.284258
vt 0.006841 0.228338
vt 0.006841 0.172482
vt 0.006841 0.116587
vt 0.006841 0.060692
vt 0.129052 0.004183
vt 0.006841 0.004183
vt 0.250211 0.004183
vt 0.374054 0.004183
vt 0.496912 0.004183
vt 0.618929 0.004183
vt 0.741403 0.004183
vt 0.126710 0.514317
vt 0.251420 0.514317
vt 0.251420 0.569624
vt 0.126710 0.569624
vt 0.251420 0.624895
vt 0.126710 0.624895
vt 0.251420 0.680145
vt 0.126710 0.680145
vt 0.251420 0.735395
vt 0.126710 0.735395
vt 0.251420 0.790625
vt 0.126710 0.790625
vt 0.251420 0.846243
vt 0.126710 0.846243
vt 0.376202 0.514317
vt 0.376202 0.569624
vt 0.376202 0.624895
vt 0.376202 0.680145
vt 0.376202 0.735395
vt 0.376202 0.790625
vt 0.376202 0.846243
vt 0.500959 0.514317
vt 0.500959 0.569624
vt 0.500959 0.624895
vt 0.500959 0.680145
vt 0.500959 0.735395
vt 0.500959 0.790625
vt 0.500959 0.846243
vt 0.625178 0.514317
vt 0.625178 0.569624
vt 0.625178 0.624895
vt 0.625178 0.680145
vt 0.625178 0.735395
vt 0.625178 0.790625
vt 0.625178 0.846243
vt 0.750068 0.514317
vt 0.750068 0.569624
vt 0.750068 0.624895
vt 0.750068 0.680145
vt 0.750068 0.735395
vt 0.750068 0.790625
vt 0.750068 0.846243
vt 0.873756 0.514317
vt 0.873756 0.569624
vt 0.873756 0.624895
vt 0.873756 0.680145
vt 0.873756 0.735395
vt 0.873756 0.790625
vt 0.873756 0.846243
vt 0.001953 0.458209
vt 0.126710 0.458209
vt 0.001953 0.514317
vt 0.001953 0.569624
vt 0.001953 0.624895
vt 0.001953 0.680145
vt 0.001953 0.735395
vt 0.001953 0.790625
vt 0.001953 0.846243
vt 0.126710 0.901464
vt 0.001953 0.901464
vt 0.251420 0.901464
vt 0.376202 0.901464
vt 0.500959 0.901464
vt 0.625178 0.901464
vt 0.750068 0.901464
vt 0.873756 0.901464
vt 0.998047 0.846243
vt 0.998047 0.901464
vt 0.998047 0.790625
vt 0.998047 0.735395
vt 0.998047 0.680145
vt 0.998047 0.624895
vt 0.998047 0.569624
vt 0.998047 0.514317
vt 0.873756 0.458209
vt 0.998047 0.458209
vt 0.750068 0.458209
vt 0.625178 0.458209
vt 0.500959 0.458209
vt 0.376202 0.458209
vt 0.251420 0.458209
vt 0.006841 0.001953
vt 0.129052 0.001953
vt 0.250211 0.001953
vt 0.374054 0.001953
vt 0.496912 0.001953
vt 0.618929 0.001953
vt 0.741403 0.001953
vt 0.863763 0.001953
vt 0.986389 0.001953
vt 0.991276 0.004183
vt 0.991276 0.060692
vt 0.991276 0.116587
vt 0.991276 0.172482
vt 0.991276 0.228338
vt 0.991276 0.284258
vt 0.991276 0.340103
vt 0.991276 0.396244
vt 0.991276 0.452073
vt 0.986389 0.454302
vt 0.863763 0.454302
vt 0.741403 0.454302
vt 0.618929 0.454302
vt 0.496912 0.454302
vt 0.374054 0.454302
vt 0.250211 0.454302
vt 0.129052 0.454302
vt 0.006841 0.454302
vt 0.001953 0.452073
vt 0.001953 0.396244
vt 0.001953 0.340103
vt 0.001953 0.284258
vt 0.001953 0.228338
vt 0.001953 0.172482
vt 0.001953 0.116587
vt 0.001953 0.060692
vt 0.001953 0.004183
s 1
usemtl Billete
f 33/1/33 34/2/34 41/3/41 40/4/40
f 34/2/34 35/5/35 42/6/42 41/3/41
f 35/5/35 36/7/36 43/8/43 42/6/42
f 36/7/36 37/9/37 44/10/44 43/8/43
f 37/9/37 38/11/38 45/12/45 44/10/44
f 38/11/38 39/13/39 46/14/46 45/12/45
f 40/4/40 41/3/41 48/15/48 47/16/47
f 41/3/41 42/6/42 49/17/49 48/15/48
f 42/6/42 43/8/43 50/18/50 49/17/49
f 43/8/43 44/10/44 51/19/51 50/18/50
f 44/10/44 45/12/45 52/20/52 51/19/51
f 45/12/45 46/14/46 53/21/53 52/20/52
f 47/16/47 48/15/48 55/22/55 54/23/54
f 48/15/48 49/17/49 56/24/56 55/22/55
f 49/17/49 50/18/50 57/25/57 56/24/56
f 50/18/50 51/19/51 58/26/58 57/25/57
f 51/19/51 52/20/52 59/27/59 58/26/58
f 52/20/52 53/21/53 60/28/60 59/27/59
f 54/23/54 55/22/55 62/29/62 61/30/61
f 55/22/55 56/24/56 63/31/63 62/29/62
f 56/24/56 57/25/57 64/32/64 63/31/63
f 57/25/57 58/26/58 65/33/65 64/32/64
f 58/26/58 59/27/59 66/34/66 65/33/65
f 59/27/59 60/28/60 67/35/67 66/34/66
f 61/30/61 62/29/62 69/36/69 68/37/68
f 62/29/62 63/31/63 70/38/70 69/36/69
f 63/31/63 64/32/64 71/39/71 70/38/70
f 64/32/64 65/33/65 72/40/72 71/39/71
f 65/33/65 66/34/66 73/41/73 72/40/72
f 66/34/66 67/35/67 74/42/74 73/41/73
f 68/37/68 69/36/69 76/43/76 75/44/75
f 69/36/69 70/38/70 77/45/77 76/43/76
f 70/38/70 71/39/71 78/46/78 77/45/77
f 71/39/71 72/40/72 79/47/79 78/46/78
f 72/40/72 73/41/73 80/48/80 79/47/79
f 73/41/73 74/42/74 81/49/81 80/48/80
f 1/50/1 12/51/12 33/1/33 11/52/11
f 12/51/12 13/53/13 34/2/34 33/1/33
f 13/53/13 14/54/14 35/5/35 34/2/34
f 14/54/14 15/55/15 36/7/36 35/5/35
f 15/55/15 16/56/16 37/9/37 36/7/36
f 16/56/16 17/57/17 38/11/38 37/9/37
f 17/57/17 18/58/18 39/13/39 38/11/38
f 18/58/18 2/59/2 19/60/19 39/13/39
f 39/13/39 19/60/19 20/61/20 46/14/46
f 46/14/46 20/61/20 21/62/21 53/21/53
f 53/21/53 21/62/21 22/63/22 60/28/60
f 60/28/60 22/63/22 23/64/23 67/35/67
f 67/35/67 23/64/23 24/65/24 74/42/74
f 74/42/74 24/65/24 25/66/25 81/49/81
f 81/49/81 25/66/25 4/67/4 26/68/26
f 80/48/80 81/49/81 26/68/26 27/69/27
f 79/47/79 80/48/80 27/69/27 28/70/28
f 78/46/78 79/47/79 28/70/28 29/71/29
f 77/45/77 78/46/78 29/71/29 30/72/30
f 76/43/76 77/45/77 30/72/30 31/73/31
f 75/44/75 76/43/76 31/73/31 32/74/32
f 5/75/5 75/44/75 32/74/32 3/76/3
f 6/77/6 68/37/68 75/44/75 5/75/5
f 7/78/7 61/30/61 68/37/68 6/77/6
f 8/79/8 54/23/54 61/30/61 7/78/7
f 9/80/9 47/16/47 54/23/54 8/79/8
f 10/81/10 40/4/40 47/16/47 9/80/9
f 11/52/11 33/1/33 40/4/40 10/81/10
f 114/82/114 121/83/121 122/84/122 115/85/115
f 115/85/115 122/84/122 123/86/123 116/87/116
f 116/87/116 123/86/123 124/88/124 117/89/117
f 117/89/117 124/88/124 125/90/125 118/91/118
f 118/91/118 125/90/125 126/92/126 119/93/119
f 119/93/119 126/92/126 127/94/127 120/95/120
f 121/83/121 128/96/128 129/97/129 122/84/122
f 122/84/122 129/97/129 130/98/130 123/86/123
f 123/86/123 130/98/130 131/99/131 124/88/124
f 124/88/124 131/99/131 132/100/132 125/90/125
f 125/90/125 132/100/132 133/101/133 126/92/126
f 126/92/126 133/101/133 134/102/134 127/94/127
f 128/96/128 135/103/135 136/104/136 129/97/129
f 129/97/129 136/104/136 137/105/137 130/98/130
f 130/98/130 137/105/137 138/106/138 131/99/131
f 131/99/131 138/106/138 139/107/139 132/100/132
f 132/100/132 139/107/139 140/108/140 133/101/133
f 133/101/133 140/108/140 141/109/141 134/102/134
f 135/103/135 142/110/142 143/111/143 136/104/136
f 136/104/136 143/111/143 144/112/144 137/105/137
f 137/105/137 144/112/144 145/113/145 138/106/138
f 138/106/138 145/113/145 146/114/146 139/107/139
f 139/107/139 146/114/146 147/115/147 140/108/140
f 140/108/140 147/115/147 148/116/148 141/109/141
f 142/110/142 149/117/149 150/118/150 143/111/143
f 143/111/143 150/118/150 151/119/151 144/112/144
f 144/112/144 151/119/151 152/120/152 145/113/145
f 145/113/145 152/120/152 153/121/153 146/114/146
f 146/114/146 153/121/153 154/122/154 147/115/147
f 147/115/147 154/122/154 155/123/155 148/116/148
f 149/117/149 156/124/156 157/125/157 150/118/150
f 150/118/150 157/125/157 158/126/158 151/119/151
f 151/119/151 158/126/158 159/127/159 152/120/152
f 152/120/152 159/127/159 160/128/160 153/121/153
f 153/121/153 160/128/160 161/129/161 154/122/154
f 154/122/154 161/129/161 162/130/162 155/123/155
f 82/131/82 92/132/92 114/82/114 93/133/93
f 93/133/93 114/82/114 115/85/115 94/134/94
f 94/134/94 115/85/115 116/87/116 95/135/95
f 95/135/95 116/87/116 117/89/117 96/136/96
f 96/136/96 117/89/117 118/91/118 97/137/97
f 97/137/97 118/91/118 119/93/119 98/138/98
f 98/138/98 119/93/119 120/95/120 99/139/99
f 99/139/99 120/95/120 100/140/100 83/141/83
f 120/95/120 127/94/127 101/142/101 100/140/100
f 127/94/127 134/102/134 102/143/102 101/142/101
f 134/102/134 141/109/141 103/144/103 102/143/102
f 141/109/141 148/116/148 104/145/104 103/144/103
f 148/116/148 155/123/155 105/146/105 104/145/104
f 155/123/155 162/130/162 106/147/106 105/146/105
f 162/130/162 107/148/107 85/149/85 106/147/106
f 161/129/161 108/150/108 107/148/107 162/130/162
f 160/128/160 109/151/109 108/150/108 161/129/161
f 159/127/159 110/152/110 109/151/109 160/128/160
f 158/126/158 111/153/111 110/152/110 159/127/159
f 157/125/157 112/154/112 111/153/111 158/126/158
f 156/124/156 113/155/113 112/154/112 157/125/157
f 86/156/86 84/157/84 113/155/113 156/124/156
f 87/158/87 86/156/86 156/124/156 149/117/149
f 88/159/88 87/158/87 149/117/149 142/110/142
f 89/160/89 88/159/88 142/110/142 135/103/135
f 90/161/90 89/160/89 135/103/135 128/96/128
f 91/162/91 90/161/90 128/96/128 121/83/121
f 92/132/92 91/162/91 121/83/121 114/82/114
f 5/75/5 3/76/3 84/163/84 86/164/86
f 6/77/6 5/75/5 86/164/86 87/165/87
f 7/78/7 6/77/6 87/165/87 88/166/88
f 8/79/8 7/78/7 88/166/88 89/167/89
f 9/80/9 8/79/8 89/167/89 90/168/90
f 10/81/10 9/80/9 90/168/90 91/169/91
f 11/52/11 10/81/10 91/169/91 92/170/92
f 1/50/1 11/52/11 92/170/92 82/171/82
f 12/51/12 1/50/1 82/172/82 93/173/93
f 13/53/13 12/51/12 93/173/93 94/174/94
f 14/54/14 13/53/13 94/174/94 95/175/95
f 15/55/15 14/54/14 95/175/95 96/176/96
f 16/56/16 15/55/15 96/176/96 97/177/97
f 17/57/17 16/56/16 97/177/97 98/178/98
f 18/58/18 17/57/17 98/178/98 99/179/99
f 2/59/2 18/58/18 99/179/99 83/180/83
f 19/60/19 2/59/2 83/181/83 100/182/100
f 20/61/20 19/60/19 100/182/100 101/183/101
f 21/62/21 20/61/20 101/183/101 102/184/102
f 22/63/22 21/62/21 102/184/102 103/185/103
f 23/64/23 22/63/22 103/185/103 104/186/104
f 24/65/24 23/64/23 104/186/104 105/187/105
f 25/66/25 24/65/24 105/187/105 106/188/106
f 4/67/4 25/66/25 106/188/106 85/189/85
f 26/68/26 4/67/4 85/190/85 107/191/107
f 27/69/27 26/68/26 107/191/107 108/192/108
f 28/70/28 27/69/27 108/192/108 109/193/109
f 29/71/29 28/70/28 109/193/109 110/194/110
f 30/72/30 29/71/29 110/194/110 111/195/111
f 31/73/31 30/72/30 111/195/111 112/196/112
f 32/74/32 31/73/31 112/196/112 113/197/113
f 3/76/3 32/74/32 113/197/113 84/198/84
