# Blender 5.0.1
# www.blender.org
mtllib Chicles.mtl
o Chicles
v -0.000000 0.657060 -0.085195
v -0.000000 0.657060 0.113912
v 2.090966 0.745457 -0.057140
v 2.090966 0.745457 0.054862
v 0.000000 -0.666591 -0.085195
v 0.000000 -0.666591 0.113912
v 2.090966 -0.745268 -0.057140
v 2.090966 -0.745268 0.054862
v 2.304502 0.775475 -0.013062
v 2.304502 -0.775475 -0.013062
v 1.973227 0.663746 -0.106369
v 1.973227 0.663746 0.103962
v 1.973227 -0.665482 -0.106369
v 1.973227 -0.665482 0.103962
v 2.091133 -0.743064 -0.001751
v 0.000000 -0.627972 0.005913
v 1.790838 -0.607833 -0.001079
v -0.000000 0.642516 0.005913
v 2.090966 0.743966 -0.001750
v 1.790838 0.629579 -0.001079
v 2.304502 -0.775475 -0.001190
v 2.304502 0.775475 -0.001190
v 2.313205 -0.769948 -0.007349
v 2.304501 0.775580 -0.007318
v 0.809406 0.659040 -0.088849
v -0.000000 0.649471 0.059729
v 2.038135 0.728402 0.075081
v 2.090966 0.744679 -0.029458
v 2.090966 0.000095 -0.057140
v 2.090966 0.000095 0.054862
v 2.091053 -0.744118 -0.029459
v 2.038135 -0.729112 -0.077747
v 0.809406 -0.664610 0.107107
v 0.000000 -0.646442 -0.039825
v 0.000000 -0.004766 -0.085195
v -0.000000 -0.004766 0.113912
v 2.305345 0.000000 -0.001190
v 2.141200 0.767146 0.010883
v 2.304502 0.775580 -0.010194
v 2.141200 -0.767146 0.010883
v 2.038135 0.728402 -0.077747
v 0.809406 0.659040 0.107107
v 0.809406 -0.664610 -0.088849
v 2.038135 -0.729112 0.075081
v 1.973227 -0.000868 0.103962
v 1.973227 -0.000868 -0.106369
v 1.808209 -0.643053 -0.048968
v 1.808209 0.653226 -0.048968
v 2.091053 -0.744118 0.026542
v 0.000000 -0.646442 0.059729
v 1.808209 -0.643053 0.048028
v 2.012079 -0.682223 -0.001496
v 0.783351 -0.598412 0.004948
v -0.000000 0.649471 -0.039825
v 2.090966 0.744679 0.026542
v 1.808209 0.653226 0.048028
v 0.783351 0.619253 0.004948
v 2.012079 0.695887 -0.001496
v 2.305345 0.000000 -0.013062
v 2.141200 -0.767146 -0.019056
v 2.141200 0.767146 -0.019056
v 2.309042 -0.772532 -0.010210
v 2.309043 -0.772532 -0.004274
v 2.145209 -0.764305 -0.004296
v 2.304502 0.775580 -0.004258
v 2.141200 0.767277 -0.004288
v 2.016421 0.712287 0.036351
v 2.141200 0.000000 0.010883
v 0.787693 -0.630961 0.055573
v 0.809406 -0.002785 -0.088849
v 0.809406 -0.002785 0.107107
v 2.141200 0.000000 -0.019056
v 2.038134 -0.000355 0.075081
v 2.038134 -0.000355 -0.077747
v 2.016422 -0.705537 0.036351
v 0.787693 0.639131 0.055573
v 2.016422 -0.705537 -0.039018
v 0.787693 -0.630961 -0.041536
v 0.787693 0.639131 -0.041536
v 2.016421 0.712287 -0.039018
v 2.143291 -0.765622 -0.011680
v 2.141200 0.767277 0.003293
v 2.143291 -0.765622 0.003289
v 2.141200 0.767277 -0.011676
v 2.305345 0.000000 -0.006842
v 2.305345 0.000000 -0.004433
v 2.305345 0.000000 -0.009908
v 2.090966 -0.638787 -0.057140
v 2.090966 -0.532307 -0.057140
v 2.090966 -0.425827 -0.057140
v 2.090966 -0.319346 -0.057140
v 2.090966 -0.212866 -0.057140
v 2.090966 -0.106386 -0.057140
v 2.090966 -0.106386 0.054862
v 2.090966 -0.212866 0.054862
v 2.090966 -0.319346 0.054862
v 2.090966 -0.425827 0.054862
v 2.090966 -0.532307 0.054862
v 2.090966 -0.638787 0.054862
v 0.000000 -0.099312 -0.085195
v 0.000000 -0.193858 -0.085195
v 0.000000 -0.288405 -0.085195
v 0.000000 -0.382951 -0.085195
v 0.000000 -0.477498 -0.085195
v 0.000000 -0.572044 -0.085195
v 0.000000 -0.572044 0.113912
v 0.000000 -0.477498 0.113912
v 0.000000 -0.382951 0.113912
v 0.000000 -0.288405 0.113912
v 0.000000 -0.193858 0.113912
v 0.000000 -0.099312 0.113912
v 2.305345 -0.664694 -0.001190
v 2.304502 -0.553913 -0.001190
v 2.305345 -0.443133 -0.001190
v 2.304502 -0.332352 -0.001190
v 2.305345 -0.221571 -0.001190
v 2.304502 -0.110790 -0.001190
v 1.973227 -0.095813 0.103962
v 1.973227 -0.190757 0.103962
v 1.973227 -0.285702 0.103962
v 1.973227 -0.380647 0.103962
v 1.973227 -0.475592 0.103962
v 1.973227 -0.570537 0.103962
v 1.973227 -0.570537 -0.106369
v 1.973227 -0.475592 -0.106369
v 1.973227 -0.380647 -0.106369
v 1.973227 -0.285702 -0.106369
v 1.973227 -0.190757 -0.106369
v 1.973227 -0.095813 -0.106369
v 2.305345 -0.664694 -0.013062
v 2.304502 -0.553913 -0.013062
v 2.305345 -0.443133 -0.013062
v 2.304502 -0.332352 -0.013062
v 2.305345 -0.221571 -0.013062
v 2.304502 -0.110790 -0.013062
v 2.141200 -0.657551 0.010883
v 2.141200 -0.547955 0.010883
v 2.141200 -0.438360 0.010883
v 2.141200 -0.328764 0.010883
v 2.141200 -0.219169 0.010883
v 2.141200 -0.109574 0.010883
v 0.809406 -0.570063 -0.088849
v 0.809406 -0.475517 -0.088849
v 0.809406 -0.380971 -0.088849
v 0.809406 -0.286424 -0.088849
v 0.809406 -0.191878 -0.088849
v 0.809406 -0.097331 -0.088849
v 0.809406 -0.570063 0.107107
v 0.809406 -0.475517 0.107107
v 0.809406 -0.380971 0.107107
v 0.809406 -0.286424 0.107107
v 0.809406 -0.191878 0.107107
v 0.809406 -0.097331 0.107107
v 2.141200 -0.657551 -0.019056
v 2.141200 -0.547955 -0.019056
v 2.141200 -0.438360 -0.019056
v 2.141200 -0.328764 -0.019056
v 2.141200 -0.219169 -0.019056
v 2.141200 -0.109574 -0.019056
v 2.038135 -0.625004 0.075081
v 2.038135 -0.520896 0.075081
v 2.038135 -0.416788 0.075081
v 2.038135 -0.312679 0.075081
v 2.038134 -0.208571 0.075081
v 2.038134 -0.104463 0.075081
v 2.038135 -0.625004 -0.077747
v 2.038135 -0.520896 -0.077747
v 2.038135 -0.416788 -0.077747
v 2.038135 -0.312679 -0.077747
v 2.038134 -0.208571 -0.077747
v 2.038134 -0.104463 -0.077747
v 2.312804 -0.659939 -0.007277
v 2.310718 -0.549930 -0.007204
v 2.310318 -0.439921 -0.007132
v 2.308232 -0.329912 -0.007059
v 2.307831 -0.219903 -0.006987
v 2.305745 -0.109894 -0.006914
v 2.309237 -0.662154 -0.004297
v 2.307745 -0.551776 -0.004319
v 2.307940 -0.441398 -0.004342
v 2.306448 -0.331019 -0.004365
v 2.306642 -0.220641 -0.004387
v 2.305151 -0.110263 -0.004410
v 2.309237 -0.662154 -0.010167
v 2.307745 -0.551776 -0.010124
v 2.307940 -0.441398 -0.010081
v 2.306448 -0.331019 -0.010038
v 2.306642 -0.220641 -0.009995
v 2.305151 -0.110263 -0.009951
v 2.090966 0.106575 -0.057140
v 2.090966 0.213055 -0.057140
v 2.090966 0.319535 -0.057140
v 2.090966 0.426016 -0.057140
v 2.090966 0.532496 -0.057140
v 2.090966 0.638976 -0.057140
v 2.090966 0.638976 0.054862
v 2.090966 0.532496 0.054862
v 2.090966 0.426016 0.054862
v 2.090966 0.319535 0.054862
v 2.090966 0.213055 0.054862
v 2.090966 0.106575 0.054862
v -0.000000 0.562513 -0.085195
v -0.000000 0.467967 -0.085195
v -0.000000 0.373420 -0.085195
v -0.000000 0.278874 -0.085195
v -0.000000 0.184327 -0.085195
v -0.000000 0.089781 -0.085195
v -0.000000 0.089781 0.113912
v -0.000000 0.184327 0.113912
v -0.000000 0.278874 0.113912
v -0.000000 0.373420 0.113912
v -0.000000 0.467967 0.113912
v -0.000000 0.562513 0.113912
v 2.304502 0.110791 -0.001190
v 2.305345 0.221571 -0.001190
v 2.304502 0.332352 -0.001190
v 2.305345 0.443133 -0.001190
v 2.304502 0.553914 -0.001190
v 2.305345 0.664694 -0.001190
v 1.973227 0.568801 0.103962
v 1.973227 0.473857 0.103962
v 1.973227 0.378912 0.103962
v 1.973227 0.283967 0.103962
v 1.973227 0.189022 0.103962
v 1.973227 0.094077 0.103962
v 1.973227 0.094077 -0.106369
v 1.973227 0.189022 -0.106369
v 1.973227 0.283967 -0.106369
v 1.973227 0.378912 -0.106369
v 1.973227 0.473857 -0.106369
v 1.973227 0.568801 -0.106369
v 2.304502 0.110791 -0.013062
v 2.305345 0.221571 -0.013062
v 2.304502 0.332352 -0.013062
v 2.305345 0.443133 -0.013062
v 2.304502 0.553914 -0.013062
v 2.305345 0.664694 -0.013062
v 2.141200 0.657551 0.010883
v 2.141200 0.547956 0.010883
v 2.141200 0.438360 0.010883
v 2.141200 0.328765 0.010883
v 2.141200 0.219169 0.010883
v 2.141200 0.109574 0.010883
v 0.809406 0.564494 -0.088849
v 0.809406 0.469948 -0.088849
v 0.809406 0.375401 -0.088849
v 0.809406 0.280855 -0.088849
v 0.809406 0.186308 -0.088849
v 0.809406 0.091762 -0.088849
v 0.809406 0.564494 0.107107
v 0.809406 0.469948 0.107107
v 0.809406 0.375401 0.107107
v 0.809406 0.280855 0.107107
v 0.809406 0.186308 0.107107
v 0.809406 0.091762 0.107107
v 2.141200 0.657551 -0.019056
v 2.141200 0.547956 -0.019056
v 2.141200 0.438360 -0.019056
v 2.141200 0.328765 -0.019056
v 2.141200 0.219169 -0.019056
v 2.141200 0.109574 -0.019056
v 2.038135 0.624294 0.075081
v 2.038135 0.520186 0.075081
v 2.038135 0.416078 0.075081
v 2.038135 0.311969 0.075081
v 2.038134 0.207861 0.075081
v 2.038134 0.103753 0.075081
v 2.038135 0.624294 -0.077747
v 2.038135 0.520186 -0.077747
v 2.038135 0.416078 -0.077747
v 2.038135 0.311969 -0.077747
v 2.038134 0.207861 -0.077747
v 2.038134 0.103753 -0.077747
v 2.305344 0.664799 -0.007250
v 2.304501 0.554018 -0.007182
v 2.305344 0.443238 -0.007114
v 2.304501 0.332457 -0.007046
v 2.305344 0.221676 -0.006978
v 2.304501 0.110895 -0.006910
v 2.304502 0.110895 -0.004408
v 2.305345 0.221676 -0.004383
v 2.304502 0.332457 -0.004358
v 2.305345 0.443238 -0.004333
v 2.304502 0.554018 -0.004308
v 2.305345 0.664799 -0.004283
v 2.304502 0.110895 -0.009949
v 2.305345 0.221676 -0.009990
v 2.304502 0.332457 -0.010031
v 2.305345 0.443238 -0.010071
v 2.304502 0.554018 -0.010112
v 2.305345 0.664799 -0.010153
v -2.090966 0.745456 -0.057140
v -2.090966 0.745456 0.054861
v -2.090966 -0.745268 -0.057140
v -2.090966 -0.745268 0.054861
v -2.304502 0.775475 -0.013062
v -2.304502 -0.775475 -0.013062
v -1.973227 0.663746 -0.106370
v -1.973227 0.663746 0.103962
v -1.973227 -0.665482 -0.106370
v -1.973227 -0.665482 0.103962
v -2.091133 -0.743065 -0.001751
v -1.790838 -0.607833 -0.001079
v -2.090966 0.743965 -0.001750
v -1.790838 0.629579 -0.001079
v -2.304502 -0.775475 -0.001190
v -2.304502 0.775475 -0.001190
v -2.313205 -0.769948 -0.007349
v -2.304501 0.775579 -0.007318
v -0.809406 0.659040 -0.088849
v -2.038135 0.728402 0.075081
v -2.090966 0.744678 -0.029459
v -2.090966 0.000094 -0.057140
v -2.090966 0.000094 0.054861
v -2.091053 -0.744118 -0.029459
v -2.038135 -0.729112 -0.077747
v -0.809406 -0.664610 0.107107
v -2.305345 -0.000000 -0.001190
v -2.141200 0.767146 0.010883
v -2.304502 0.775579 -0.010194
v -2.141200 -0.767146 0.010883
v -2.038135 0.728402 -0.077747
v -0.809406 0.659040 0.107107
v -0.809406 -0.664610 -0.088849
v -2.038135 -0.729112 0.075081
v -1.973227 -0.000868 0.103962
v -1.973227 -0.000868 -0.106370
v -1.808209 -0.643053 -0.048968
v -1.808209 0.653226 -0.048968
v -2.091053 -0.744118 0.026542
v -1.808209 -0.643053 0.048028
v -2.012079 -0.682224 -0.001496
v -0.783351 -0.598412 0.004948
v -2.090966 0.744678 0.026542
v -1.808209 0.653226 0.048028
v -0.783351 0.619253 0.004948
v -2.012079 0.695886 -0.001496
v -2.305345 -0.000000 -0.013062
v -2.141200 -0.767146 -0.019056
v -2.141200 0.767146 -0.019056
v -2.309042 -0.772532 -0.010210
v -2.309043 -0.772532 -0.004274
v -2.145209 -0.764306 -0.004296
v -2.304502 0.775579 -0.004258
v -2.141200 0.767277 -0.004288
v -2.016421 0.712286 0.036351
v -2.141200 -0.000000 0.010883
v -0.787693 -0.630961 0.055573
v -0.809406 -0.002785 -0.088849
v -0.809406 -0.002785 0.107107
v -2.141200 -0.000000 -0.019056
v -2.038134 -0.000355 0.075081
v -2.038134 -0.000355 -0.077747
v -2.016422 -0.705538 0.036351
v -0.787693 0.639131 0.055573
v -2.016422 -0.705538 -0.039018
v -0.787693 -0.630961 -0.041536
v -0.787693 0.639131 -0.041536
v -2.016421 0.712286 -0.039018
v -2.143291 -0.765622 -0.011680
v -2.141200 0.767277 0.003293
v -2.143291 -0.765622 0.003289
v -2.141200 0.767277 -0.011677
v -2.305345 -0.000000 -0.006842
v -2.305345 -0.000000 -0.004433
v -2.305345 -0.000000 -0.009908
v -2.090966 -0.638788 -0.057140
v -2.090966 -0.532307 -0.057140
v -2.090966 -0.425827 -0.057140
v -2.090966 -0.319347 -0.057140
v -2.090966 -0.212866 -0.057140
v -2.090966 -0.106386 -0.057140
v -2.090966 -0.106386 0.054861
v -2.090966 -0.212866 0.054861
v -2.090966 -0.319347 0.054861
v -2.090966 -0.425827 0.054861
v -2.090966 -0.532307 0.054861
v -2.090966 -0.638788 0.054861
v -2.305345 -0.664694 -0.001190
v -2.304502 -0.553914 -0.001190
v -2.305345 -0.443133 -0.001190
v -2.304502 -0.332352 -0.001190
v -2.305345 -0.221571 -0.001190
v -2.304502 -0.110791 -0.001190
v -1.973227 -0.095813 0.103962
v -1.973227 -0.190758 0.103962
v -1.973227 -0.285703 0.103962
v -1.973227 -0.380648 0.103962
v -1.973227 -0.475592 0.103962
v -1.973227 -0.570537 0.103962
v -1.973227 -0.570537 -0.106370
v -1.973227 -0.475592 -0.106370
v -1.973227 -0.380648 -0.106370
v -1.973227 -0.285703 -0.106370
v -1.973227 -0.190758 -0.106370
v -1.973227 -0.095813 -0.106370
v -2.305345 -0.664694 -0.013062
v -2.304502 -0.553914 -0.013062
v -2.305345 -0.443133 -0.013062
v -2.304502 -0.332352 -0.013062
v -2.305345 -0.221571 -0.013062
v -2.304502 -0.110791 -0.013062
v -2.141200 -0.657551 0.010883
v -2.141200 -0.547956 0.010883
v -2.141200 -0.438360 0.010883
v -2.141200 -0.328765 0.010883
v -2.141200 -0.219169 0.010883
v -2.141200 -0.109574 0.010883
v -0.809406 -0.570064 -0.088849
v -0.809406 -0.475517 -0.088849
v -0.809406 -0.380971 -0.088849
v -0.809406 -0.286424 -0.088849
v -0.809406 -0.191878 -0.088849
v -0.809406 -0.097331 -0.088849
v -0.809406 -0.570064 0.107107
v -0.809406 -0.475517 0.107107
v -0.809406 -0.380971 0.107107
v -0.809406 -0.286424 0.107107
v -0.809406 -0.191878 0.107107
v -0.809406 -0.097331 0.107107
v -2.141200 -0.657551 -0.019056
v -2.141200 -0.547956 -0.019056
v -2.141200 -0.438360 -0.019056
v -2.141200 -0.328765 -0.019056
v -2.141200 -0.219169 -0.019056
v -2.141200 -0.109574 -0.019056
v -2.038135 -0.625004 0.075081
v -2.038135 -0.520896 0.075081
v -2.038135 -0.416788 0.075081
v -2.038135 -0.312680 0.075081
v -2.038134 -0.208572 0.075081
v -2.038134 -0.104463 0.075081
v -2.038135 -0.625004 -0.077747
v -2.038135 -0.520896 -0.077747
v -2.038135 -0.416788 -0.077747
v -2.038135 -0.312680 -0.077747
v -2.038134 -0.208572 -0.077747
v -2.038134 -0.104463 -0.077747
v -2.312804 -0.659939 -0.007277
v -2.310718 -0.549930 -0.007204
v -2.310318 -0.439921 -0.007132
v -2.308232 -0.329912 -0.007059
v -2.307831 -0.219904 -0.006987
v -2.305745 -0.109895 -0.006915
v -2.309237 -0.662154 -0.004297
v -2.307745 -0.551776 -0.004320
v -2.307940 -0.441398 -0.004342
v -2.306448 -0.331020 -0.004365
v -2.306642 -0.220642 -0.004388
v -2.305151 -0.110264 -0.004410
v -2.309237 -0.662154 -0.010167
v -2.307745 -0.551776 -0.010124
v -2.307940 -0.441398 -0.010081
v -2.306448 -0.331020 -0.010038
v -2.306642 -0.220642 -0.009995
v -2.305151 -0.110264 -0.009952
v -2.090966 0.106575 -0.057140
v -2.090966 0.213055 -0.057140
v -2.090966 0.319535 -0.057140
v -2.090966 0.426015 -0.057140
v -2.090966 0.532496 -0.057140
v -2.090966 0.638976 -0.057140
v -2.090966 0.638976 0.054861
v -2.090966 0.532496 0.054861
v -2.090966 0.426015 0.054861
v -2.090966 0.319535 0.054861
v -2.090966 0.213055 0.054861
v -2.090966 0.106575 0.054861
v -2.304502 0.110790 -0.001190
v -2.305345 0.221571 -0.001190
v -2.304502 0.332352 -0.001190
v -2.305345 0.443133 -0.001190
v -2.304502 0.553913 -0.001190
v -2.305345 0.664694 -0.001190
v -1.973227 0.568801 0.103962
v -1.973227 0.473856 0.103962
v -1.973227 0.378911 0.103962
v -1.973227 0.283967 0.103962
v -1.973227 0.189022 0.103962
v -1.973227 0.094077 0.103962
v -1.973227 0.094077 -0.106370
v -1.973227 0.189022 -0.106370
v -1.973227 0.283967 -0.106370
v -1.973227 0.378911 -0.106370
v -1.973227 0.473856 -0.106370
v -1.973227 0.568801 -0.106370
v -2.304502 0.110790 -0.013062
v -2.305345 0.221571 -0.013062
v -2.304502 0.332352 -0.013062
v -2.305345 0.443133 -0.013062
v -2.304502 0.553913 -0.013062
v -2.305345 0.664694 -0.013062
v -2.141200 0.657551 0.010883
v -2.141200 0.547955 0.010883
v -2.141200 0.438360 0.010883
v -2.141200 0.328764 0.010883
v -2.141200 0.219169 0.010883
v -2.141200 0.109574 0.010883
v -0.809406 0.564494 -0.088849
v -0.809406 0.469947 -0.088849
v -0.809406 0.375401 -0.088849
v -0.809406 0.280854 -0.088849
v -0.809406 0.186308 -0.088849
v -0.809406 0.091762 -0.088849
v -0.809406 0.564494 0.107107
v -0.809406 0.469947 0.107107
v -0.809406 0.375401 0.107107
v -0.809406 0.280854 0.107107
v -0.809406 0.186308 0.107107
v -0.809406 0.091762 0.107107
v -2.141200 0.657551 -0.019056
v -2.141200 0.547955 -0.019056
v -2.141200 0.438360 -0.019056
v -2.141200 0.328764 -0.019056
v -2.141200 0.219169 -0.019056
v -2.141200 0.109574 -0.019056
v -2.038135 0.624294 0.075081
v -2.038135 0.520185 0.075081
v -2.038135 0.416077 0.075081
v -2.038135 0.311969 0.075081
v -2.038134 0.207861 0.075081
v -2.038134 0.103753 0.075081
v -2.038135 0.624294 -0.077747
v -2.038135 0.520185 -0.077747
v -2.038135 0.416077 -0.077747
v -2.038135 0.311969 -0.077747
v -2.038134 0.207861 -0.077747
v -2.038134 0.103753 -0.077747
v -2.305344 0.664798 -0.007250
v -2.304501 0.554018 -0.007182
v -2.305344 0.443237 -0.007114
v -2.304501 0.332456 -0.007046
v -2.305344 0.221676 -0.006978
v -2.304501 0.110895 -0.006910
v -2.304502 0.110895 -0.004408
v -2.305345 0.221676 -0.004383
v -2.304502 0.332457 -0.004358
v -2.305345 0.443237 -0.004333
v -2.304502 0.554018 -0.004308
v -2.305345 0.664799 -0.004283
v -2.304502 0.110895 -0.009949
v -2.305345 0.221676 -0.009990
v -2.304502 0.332457 -0.010031
v -2.305345 0.443237 -0.010072
v -2.304502 0.554018 -0.010112
v -2.305345 0.664799 -0.010153
vn -0.1068 0.9941 0.0210
vn -0.1163 0.9706 -0.2105
vn -0.3603 0.9290 -0.0847
vn -0.3569 0.9341 0.0045
vn 0.0616 0.3642 0.9293
vn 0.0208 0.5758 0.8174
vn 0.0398 0.8179 0.5740
vn -0.4259 0.9004 -0.0884
vn -0.4455 0.8953 0.0002
vn 0.4716 -0.0000 0.8818
vn 0.1644 -0.0000 0.9864
vn 0.0356 -0.8156 0.5775
vn -0.0252 -0.5431 0.8393
vn 0.0987 -0.7368 0.6689
vn 0.0735 -0.0000 0.9973
vn -0.1082 -0.9936 0.0330
vn -0.1143 -0.9069 -0.4054
vn 0.0028 -0.8786 -0.4776
vn 0.0088 -0.9999 0.0122
vn 0.0624 -0.3876 0.9197
vn 0.0061 -0.4787 0.8780
vn -0.0000 -0.4473 0.8944
vn -0.0000 -0.8942 -0.4476
vn -0.0000 -0.9996 0.0269
vn 0.0608 -0.0000 -0.9981
vn -0.0097 -0.0000 -1.0000
vn 0.0515 -0.3497 -0.9354
vn -0.0082 -0.4966 -0.8679
vn -0.0000 -0.5002 -0.8659
vn -0.0000 -0.0000 -1.0000
vn 0.0748 -0.0000 0.9972
vn 0.0055 -0.0000 1.0000
vn 0.0042 0.4409 0.8975
vn -0.0000 0.4077 0.9131
vn -0.0000 -0.0000 1.0000
vn 0.4590 -0.0000 -0.8884
vn 0.1164 -0.0000 -0.9932
vn 0.0382 0.8035 -0.5941
vn -0.0381 0.4859 -0.8732
vn 0.0959 0.5402 -0.8361
vn 0.0366 -0.0000 -0.9993
vn 0.3806 -0.0000 0.9247
vn 0.3825 -0.0000 -0.9239
vn 0.0340 -0.8004 -0.5985
vn 0.0185 -0.5945 -0.8039
vn -0.4617 -0.8870 -0.0050
vn -0.4630 -0.8719 -0.1594
vn -0.3968 -0.8963 -0.1981
vn -0.3963 -0.9181 0.0076
vn 0.0183 -0.5924 0.8054
vn -0.0000 0.9999 0.0145
vn -0.0000 0.9680 -0.2511
vn 0.0001 0.9572 -0.2894
vn 0.0046 1.0000 0.0064
vn -0.4574 -0.8746 0.1609
vn -0.3972 -0.8963 0.1970
vn -0.1078 -0.8994 0.4235
vn 0.0079 -0.8573 0.5148
vn -0.0000 -0.8691 0.4946
vn -0.0000 0.4488 -0.8936
vn -0.0000 0.9591 0.2830
vn 0.0032 0.9482 0.3178
vn -0.0101 0.4538 -0.8910
vn -0.1126 0.9682 0.2235
vn 0.0509 0.3296 -0.9427
vn -0.3611 0.9289 0.0825
vn 0.0208 0.5771 -0.8164
vn -0.4250 0.9008 0.0895
vn -0.0429 -0.5282 -0.8480
vn -0.1556 -0.9377 0.3107
vn 0.0790 -0.6099 -0.7885
vn 0.1674 -0.9780 0.1242
vn 0.2228 -0.9740 0.0421
vn -0.1618 -0.9865 -0.0247
vn 0.1191 0.6509 0.7497
vn 0.1591 0.9872 0.0076
vn -0.1690 0.9856 0.0042
vn -0.0195 0.5136 0.8578
vn 0.1595 0.9872 -0.0000
vn -0.1699 0.9855 0.0009
vn -0.1699 -0.9359 -0.3086
vn 0.1572 -0.9796 -0.1253
vn -0.1691 0.9856 -0.0026
vn 0.1589 0.9872 -0.0106
vn 1.0000 -0.0001 -0.0000
vn 1.0000 -0.0000 -0.0001
vn 0.6166 0.0009 0.7873
vn 0.6325 0.0036 0.7746
vn 0.9998 0.0103 -0.0164
vn 0.6122 0.0039 -0.7907
vn 0.5885 0.0009 -0.8085
vn 1.0000 -0.0000 -0.0000
vn 1.0000 0.0043 0.0059
vn 0.9987 0.0029 -0.0501
vn 1.0000 -0.0000 0.0001
vn 0.9985 0.0029 0.0552
vn 0.9987 0.0015 -0.0516
vn 1.0000 0.0001 0.0001
vn 0.9800 0.0057 -0.1991
vn 0.9776 0.0032 -0.2104
vn 0.9253 0.0055 -0.3791
vn 0.9177 0.0022 -0.3972
vn 0.8487 0.0050 -0.5288
vn 0.8347 0.0033 -0.5507
vn 0.7658 0.0047 -0.6431
vn 0.7471 0.0014 -0.6647
vn 0.6849 0.0041 -0.7286
vn 0.6622 0.0031 -0.7493
vn 0.9766 0.0056 0.2148
vn 0.9998 0.0083 0.0191
vn 0.9180 0.0053 0.3965
vn 0.9995 0.0092 0.0293
vn 0.8426 0.0048 0.5385
vn 0.9995 0.0079 0.0301
vn 0.7663 0.0044 0.6425
vn 0.9997 0.0098 0.0225
vn 0.6950 0.0039 0.7190
vn 1.0000 0.0074 0.0067
vn 0.9987 0.0015 0.0500
vn 0.9792 0.0032 0.2030
vn 0.9238 0.0022 0.3828
vn 0.8472 0.0033 0.5313
vn 0.7659 0.0015 0.6430
vn 0.6864 0.0030 0.7272
vn 1.0000 0.0001 -0.0000
vn 1.0000 0.0001 -0.0001
vn 1.0000 -0.0001 -0.0001
vn 0.1068 0.9941 0.0210
vn 0.3569 0.9341 0.0045
vn 0.3603 0.9290 -0.0847
vn 0.1163 0.9706 -0.2105
vn -0.0208 0.5758 0.8174
vn -0.0616 0.3642 0.9293
vn 0.4259 0.9004 -0.0884
vn -0.0398 0.8179 0.5740
vn 0.4455 0.8953 0.0002
vn -0.4716 -0.0000 0.8818
vn -0.1644 -0.0000 0.9864
vn 0.0252 -0.5431 0.8393
vn -0.0356 -0.8156 0.5775
vn -0.0735 -0.0000 0.9973
vn -0.0987 -0.7368 0.6689
vn 0.1082 -0.9936 0.0330
vn -0.0088 -0.9999 0.0122
vn -0.0028 -0.8786 -0.4776
vn 0.1143 -0.9069 -0.4054
vn -0.0061 -0.4787 0.8780
vn -0.0624 -0.3876 0.9197
vn -0.0608 -0.0000 -0.9981
vn 0.0097 -0.0000 -1.0000
vn 0.0082 -0.4966 -0.8679
vn -0.0515 -0.3497 -0.9354
vn -0.0748 -0.0000 0.9972
vn -0.0055 -0.0000 1.0000
vn -0.0042 0.4409 0.8975
vn -0.4590 -0.0000 -0.8884
vn -0.1164 -0.0000 -0.9932
vn 0.0381 0.4859 -0.8732
vn -0.0382 0.8035 -0.5941
vn -0.0366 -0.0000 -0.9993
vn -0.0959 0.5402 -0.8361
vn -0.3806 -0.0000 0.9247
vn -0.3825 -0.0000 -0.9239
vn -0.0185 -0.5945 -0.8039
vn -0.0340 -0.8004 -0.5985
vn 0.4617 -0.8870 -0.0050
vn 0.3963 -0.9181 0.0076
vn 0.3968 -0.8963 -0.1981
vn 0.4630 -0.8719 -0.1594
vn -0.0183 -0.5924 0.8054
vn -0.0046 1.0000 0.0064
vn -0.0001 0.9572 -0.2894
vn 0.3972 -0.8963 0.1970
vn 0.4574 -0.8746 0.1609
vn 0.1078 -0.8994 0.4235
vn -0.0079 -0.8573 0.5148
vn 0.0101 0.4538 -0.8910
vn -0.0032 0.9482 0.3178
vn 0.1126 0.9682 0.2235
vn -0.0509 0.3296 -0.9427
vn -0.0208 0.5771 -0.8164
vn 0.3611 0.9289 0.0825
vn 0.4250 0.9008 0.0895
vn 0.1556 -0.9377 0.3107
vn 0.0429 -0.5282 -0.8480
vn -0.1674 -0.9780 0.1242
vn -0.0790 -0.6099 -0.7885
vn 0.1618 -0.9865 -0.0247
vn -0.2228 -0.9740 0.0421
vn -0.1191 0.6509 0.7497
vn 0.0195 0.5136 0.8578
vn 0.1690 0.9856 0.0042
vn -0.1591 0.9872 0.0076
vn 0.1699 0.9855 0.0009
vn -0.1595 0.9872 -0.0000
vn 0.1699 -0.9359 -0.3086
vn -0.1572 -0.9796 -0.1253
vn 0.1691 0.9856 -0.0026
vn -0.1589 0.9872 -0.0106
vn -1.0000 -0.0001 -0.0000
vn -1.0000 -0.0000 -0.0001
vn -0.6166 0.0009 0.7873
vn -0.6325 0.0036 0.7746
vn -0.9998 0.0103 -0.0164
vn -0.6122 0.0039 -0.7907
vn -0.5885 0.0009 -0.8085
vn -1.0000 -0.0000 -0.0000
vn -1.0000 -0.0000 0.0001
vn -0.9987 0.0029 -0.0501
vn -1.0000 0.0043 0.0059
vn -0.9985 0.0029 0.0552
vn -1.0000 0.0001 0.0001
vn -0.9987 0.0015 -0.0516
vn -0.9776 0.0032 -0.2104
vn -0.9800 0.0057 -0.1991
vn -0.9177 0.0022 -0.3972
vn -0.9253 0.0055 -0.3791
vn -0.8347 0.0033 -0.5507
vn -0.8487 0.0050 -0.5288
vn -0.7471 0.0014 -0.6647
vn -0.7658 0.0047 -0.6431
vn -0.6622 0.0031 -0.7493
vn -0.6849 0.0041 -0.7286
vn -0.9998 0.0083 0.0191
vn -0.9766 0.0056 0.2148
vn -0.9995 0.0092 0.0293
vn -0.9180 0.0053 0.3965
vn -0.9995 0.0079 0.0301
vn -0.8426 0.0048 0.5385
vn -0.9997 0.0098 0.0225
vn -0.7663 0.0044 0.6425
vn -1.0000 0.0074 0.0067
vn -0.6950 0.0039 0.7190
vn -0.9987 0.0015 0.0500
vn -0.9792 0.0032 0.2030
vn -0.9239 0.0022 0.3827
vn -0.8472 0.0033 0.5313
vn -0.7659 0.0015 0.6430
vn -0.6864 0.0030 0.7272
vn -1.0000 -0.0001 0.0001
vn -1.0000 0.0001 -0.0000
vn -1.0000 0.0001 -0.0001
vt 0.825891 0.078017
vt 0.811249 0.078017
vt 0.811249 0.003906
vt 0.825891 0.003906
vt 0.795801 0.078017
vt 0.795801 0.003906
vt 0.331222 0.466058
vt 0.334362 0.435305
vt 0.342499 0.450511
vt 0.343691 0.473152
vt 0.327249 0.495390
vt 0.344377 0.495556
vt 0.895396 0.237111
vt 0.895396 0.275975
vt 0.861989 0.275975
vt 0.861989 0.237111
vt 0.895396 0.509177
vt 0.895396 0.548045
vt 0.861989 0.548045
vt 0.861989 0.509177
vt 0.147239 0.454545
vt 0.147239 0.435305
vt 0.175916 0.435305
vt 0.175916 0.454545
vt 0.147239 0.589224
vt 0.147239 0.569985
vt 0.175916 0.569985
vt 0.175916 0.589224
vt 0.758702 0.757439
vt 0.743553 0.757439
vt 0.743553 0.563742
vt 0.758702 0.563742
vt 0.727620 0.757439
vt 0.727620 0.563742
vt 0.727620 0.418225
vt 0.743553 0.418225
vt 0.758702 0.418225
vt 0.060650 0.123135
vt 0.060650 0.108231
vt 0.239248 0.108231
vt 0.239248 0.123135
vt 0.060650 0.018810
vt 0.060650 0.003906
vt 0.239248 0.003906
vt 0.239248 0.018810
vt 0.361866 0.003906
vt 0.361866 0.018810
vt 0.361866 0.108231
vt 0.361866 0.123135
vt 0.658864 0.309136
vt 0.658864 0.323931
vt 0.482836 0.323931
vt 0.482836 0.309136
vt 0.658864 0.412698
vt 0.658864 0.427493
vt 0.482836 0.427493
vt 0.482836 0.412698
vt 0.359920 0.427493
vt 0.359920 0.412698
vt 0.359920 0.323931
vt 0.359920 0.309136
vt 0.073724 0.735614
vt 0.073724 0.698077
vt 0.102752 0.698077
vt 0.102752 0.735614
vt 0.073724 0.472844
vt 0.073724 0.435305
vt 0.102752 0.435305
vt 0.102752 0.472844
vt 0.217846 0.452865
vt 0.217846 0.435305
vt 0.243966 0.435305
vt 0.243966 0.452865
vt 0.217846 0.575787
vt 0.217846 0.558227
vt 0.243966 0.558227
vt 0.243966 0.575787
vt 0.895396 0.314840
vt 0.911276 0.275975
vt 0.911276 0.314840
vt 0.895396 0.042774
vt 0.895396 0.003906
vt 0.911276 0.003906
vt 0.911276 0.042774
vt 0.715949 0.412698
vt 0.715949 0.427493
vt 0.715949 0.309136
vt 0.715949 0.323931
vt 0.073724 0.660541
vt 0.057580 0.698077
vt 0.057580 0.660541
vt 0.073724 0.923311
vt 0.073724 0.960850
vt 0.057580 0.960850
vt 0.057580 0.923311
vt 0.003906 0.018810
vt 0.003906 0.003906
vt 0.003906 0.123135
vt 0.003906 0.108231
vt 0.310774 0.495042
vt 0.310359 0.517485
vt 0.296021 0.524628
vt 0.289514 0.495187
vt 0.309464 0.540154
vt 0.301774 0.555482
vt 0.743553 0.833101
vt 0.727620 0.833101
vt 0.758702 0.833101
vt 0.825891 0.421440
vt 0.811249 0.421440
vt 0.811249 0.274383
vt 0.825891 0.274383
vt 0.795801 0.421440
vt 0.795801 0.274383
vt 0.309504 0.450838
vt 0.310534 0.473063
vt 0.296189 0.466118
vt 0.301640 0.435305
vt 0.772861 0.833101
vt 0.772861 0.757439
vt 0.787988 0.833101
vt 0.787988 0.757439
vt 0.772861 0.563742
vt 0.787988 0.563742
vt 0.772861 0.418225
vt 0.787988 0.418225
vt 0.854176 0.421440
vt 0.839540 0.421440
vt 0.839540 0.274383
vt 0.854176 0.274383
vt 0.839540 0.078017
vt 0.854176 0.078017
vt 0.839540 0.003906
vt 0.854176 0.003906
vt 0.331338 0.524346
vt 0.343831 0.517489
vt 0.334036 0.555044
vt 0.342422 0.539683
vt 0.319437 0.480979
vt 0.319159 0.486943
vt 0.394307 0.435305
vt 0.406212 0.439651
vt 0.406340 0.442128
vt 0.394503 0.441142
vt 0.406470 0.444561
vt 0.394574 0.446984
vt 0.318874 0.492995
vt 0.981716 0.022621
vt 0.980249 0.022621
vt 0.980249 0.003906
vt 0.981716 0.003906
vt 0.978963 0.022621
vt 0.978963 0.003906
vt 0.352965 0.491313
vt 0.352965 0.497614
vt 0.352687 0.485221
vt 0.319205 0.499259
vt 0.406360 0.447153
vt 0.394472 0.452982
vt 0.406325 0.449800
vt 0.394307 0.458992
vt 0.319437 0.505375
vt 0.352883 0.503694
vt 0.977584 0.022621
vt 0.977584 0.003906
vt 0.976184 0.022621
vt 0.976184 0.003906
vt 0.352645 0.509641
vt 0.981716 0.078056
vt 0.980249 0.078056
vt 0.981716 0.742094
vt 0.981716 0.797332
vt 0.980249 0.797332
vt 0.980249 0.742094
vt 0.978963 0.742094
vt 0.978963 0.797332
vt 0.977584 0.797332
vt 0.977584 0.742094
vt 0.976184 0.797332
vt 0.976184 0.742094
vt 0.978963 0.355231
vt 0.978963 0.410709
vt 0.977584 0.410709
vt 0.977584 0.355231
vt 0.980249 0.355231
vt 0.980249 0.410709
vt 0.976184 0.410709
vt 0.976184 0.355231
vt 0.977584 0.465905
vt 0.976184 0.465905
vt 0.977584 0.521142
vt 0.976184 0.521142
vt 0.977584 0.576380
vt 0.976184 0.576380
vt 0.977584 0.631618
vt 0.976184 0.631618
vt 0.977584 0.686856
vt 0.976184 0.686856
vt 0.980249 0.465905
vt 0.978963 0.465905
vt 0.980249 0.521142
vt 0.978963 0.521142
vt 0.980249 0.576380
vt 0.978963 0.576380
vt 0.980249 0.631618
vt 0.978963 0.631618
vt 0.980249 0.686856
vt 0.978963 0.686856
vt 0.981716 0.410709
vt 0.981716 0.465905
vt 0.981716 0.521142
vt 0.981716 0.576380
vt 0.981716 0.631618
vt 0.981716 0.686856
vt 0.003906 0.093328
vt 0.060650 0.093328
vt 0.003906 0.078424
vt 0.060650 0.078424
vt 0.003906 0.063521
vt 0.060650 0.063521
vt 0.003906 0.048617
vt 0.060650 0.048617
vt 0.003906 0.033714
vt 0.060650 0.033714
vt 0.057580 0.735614
vt 0.073724 0.773153
vt 0.057580 0.773153
vt 0.073724 0.810693
vt 0.057580 0.810693
vt 0.073724 0.848232
vt 0.057580 0.848232
vt 0.073724 0.885771
vt 0.057580 0.885771
vt 0.715949 0.220369
vt 0.715949 0.235164
vt 0.658864 0.235164
vt 0.658864 0.220369
vt 0.715949 0.249958
vt 0.658864 0.249958
vt 0.715949 0.264753
vt 0.658864 0.264753
vt 0.715949 0.279547
vt 0.658864 0.279547
vt 0.715949 0.294342
vt 0.658864 0.294342
vt 0.911276 0.509177
vt 0.911276 0.548045
vt 0.895396 0.470310
vt 0.911276 0.470310
vt 0.895396 0.431442
vt 0.911276 0.431442
vt 0.895396 0.392575
vt 0.911276 0.392575
vt 0.895396 0.353708
vt 0.911276 0.353708
vt 0.217846 0.681149
vt 0.217846 0.663589
vt 0.243966 0.663589
vt 0.243966 0.681149
vt 0.217846 0.646028
vt 0.243966 0.646028
vt 0.217846 0.628468
vt 0.243966 0.628468
vt 0.217846 0.610907
vt 0.243966 0.610907
vt 0.217846 0.593347
vt 0.243966 0.593347
vt 0.102752 0.923311
vt 0.102752 0.960850
vt 0.102752 0.885771
vt 0.102752 0.848232
vt 0.102752 0.810693
vt 0.102752 0.773153
vt 0.482836 0.220369
vt 0.482836 0.235164
vt 0.359920 0.235164
vt 0.359920 0.220369
vt 0.482836 0.249958
vt 0.359920 0.249958
vt 0.482836 0.264753
vt 0.359920 0.264753
vt 0.482836 0.279547
vt 0.359920 0.279547
vt 0.482836 0.294342
vt 0.359920 0.294342
vt 0.239248 0.093328
vt 0.361866 0.093328
vt 0.239248 0.078424
vt 0.361866 0.078424
vt 0.239248 0.063521
vt 0.361866 0.063521
vt 0.239248 0.048617
vt 0.361866 0.048617
vt 0.239248 0.033714
vt 0.361866 0.033714
vt 0.147239 0.550746
vt 0.175916 0.550746
vt 0.147239 0.531506
vt 0.175916 0.531506
vt 0.147239 0.512266
vt 0.175916 0.512266
vt 0.147239 0.493025
vt 0.175916 0.493025
vt 0.147239 0.473785
vt 0.175916 0.473785
vt 0.861989 0.314840
vt 0.861989 0.353708
vt 0.861989 0.392575
vt 0.861989 0.431442
vt 0.861989 0.470310
vt 0.977584 0.078056
vt 0.976184 0.078056
vt 0.977584 0.133491
vt 0.976184 0.133491
vt 0.977584 0.188926
vt 0.976184 0.188926
vt 0.977584 0.244361
vt 0.976184 0.244361
vt 0.977584 0.299796
vt 0.976184 0.299796
vt 0.978963 0.078056
vt 0.980249 0.133491
vt 0.978963 0.133491
vt 0.980249 0.188926
vt 0.978963 0.188926
vt 0.980249 0.244361
vt 0.978963 0.244361
vt 0.980249 0.299796
vt 0.978963 0.299796
vt 0.981716 0.355231
vt 0.981716 0.299796
vt 0.981716 0.244361
vt 0.981716 0.188926
vt 0.981716 0.133491
vt 0.003906 0.212556
vt 0.003906 0.197653
vt 0.060650 0.197653
vt 0.060650 0.212556
vt 0.003906 0.182749
vt 0.060650 0.182749
vt 0.003906 0.167846
vt 0.060650 0.167846
vt 0.003906 0.152942
vt 0.060650 0.152942
vt 0.003906 0.138039
vt 0.060650 0.138039
vt 0.057580 0.472844
vt 0.057580 0.435305
vt 0.073724 0.510384
vt 0.057580 0.510384
vt 0.073724 0.547923
vt 0.057580 0.547923
vt 0.073724 0.585462
vt 0.057580 0.585462
vt 0.073724 0.623001
vt 0.057580 0.623001
vt 0.715949 0.338726
vt 0.658864 0.338726
vt 0.715949 0.353520
vt 0.658864 0.353520
vt 0.715949 0.368314
vt 0.658864 0.368314
vt 0.715949 0.383109
vt 0.658864 0.383109
vt 0.715949 0.397903
vt 0.658864 0.397903
vt 0.911276 0.237111
vt 0.895396 0.198243
vt 0.911276 0.198243
vt 0.895396 0.159376
vt 0.911276 0.159376
vt 0.895396 0.120508
vt 0.911276 0.120508
vt 0.895396 0.081641
vt 0.911276 0.081641
vt 0.217846 0.540668
vt 0.243966 0.540668
vt 0.217846 0.523107
vt 0.243966 0.523107
vt 0.217846 0.505547
vt 0.243966 0.505547
vt 0.217846 0.487986
vt 0.243966 0.487986
vt 0.217846 0.470426
vt 0.243966 0.470426
vt 0.102752 0.660541
vt 0.102752 0.623001
vt 0.102752 0.585462
vt 0.102752 0.547923
vt 0.102752 0.510384
vt 0.482836 0.338726
vt 0.359920 0.338726
vt 0.482836 0.353520
vt 0.359920 0.353520
vt 0.482836 0.368314
vt 0.359920 0.368314
vt 0.482836 0.383109
vt 0.359920 0.383109
vt 0.482836 0.397903
vt 0.359920 0.397903
vt 0.239248 0.212556
vt 0.239248 0.197653
vt 0.361866 0.197653
vt 0.361866 0.212557
vt 0.239248 0.182749
vt 0.361866 0.182749
vt 0.239248 0.167846
vt 0.361866 0.167846
vt 0.239248 0.152942
vt 0.361866 0.152942
vt 0.239248 0.138039
vt 0.361866 0.138039
vt 0.147239 0.704665
vt 0.147239 0.685425
vt 0.175916 0.685425
vt 0.175916 0.704665
vt 0.147239 0.666185
vt 0.175916 0.666185
vt 0.147239 0.646945
vt 0.175916 0.646945
vt 0.147239 0.627704
vt 0.175916 0.627704
vt 0.147239 0.608464
vt 0.175916 0.608464
vt 0.861989 0.042774
vt 0.861989 0.003906
vt 0.861989 0.081641
vt 0.861989 0.120508
vt 0.861989 0.159376
vt 0.861989 0.198243
vt 0.825891 0.765245
vt 0.825891 0.839027
vt 0.811249 0.839027
vt 0.811249 0.765245
vt 0.795801 0.839027
vt 0.795801 0.765245
vt 0.382521 0.466058
vt 0.370052 0.473152
vt 0.371244 0.450511
vt 0.379382 0.435305
vt 0.386494 0.495390
vt 0.369366 0.495556
vt 0.952492 0.314820
vt 0.919088 0.314820
vt 0.919088 0.275957
vt 0.952492 0.275957
vt 0.952492 0.042771
vt 0.919088 0.042771
vt 0.919088 0.003906
vt 0.952492 0.003906
vt 0.139426 0.454669
vt 0.110564 0.454669
vt 0.110564 0.435305
vt 0.139426 0.435305
vt 0.139426 0.590215
vt 0.110564 0.590215
vt 0.110564 0.570852
vt 0.139426 0.570852
vt 0.758702 0.078721
vt 0.758702 0.272806
vt 0.743553 0.272806
vt 0.743553 0.078721
vt 0.727620 0.272806
vt 0.727620 0.078721
vt 0.663081 0.123135
vt 0.484484 0.123135
vt 0.484484 0.108231
vt 0.663081 0.108231
vt 0.663081 0.018810
vt 0.484484 0.018810
vt 0.484484 0.003906
vt 0.663081 0.003906
vt 0.060977 0.309136
vt 0.237004 0.309136
vt 0.237004 0.323931
vt 0.060977 0.323931
vt 0.060977 0.412698
vt 0.237004 0.412698
vt 0.237004 0.427493
vt 0.060977 0.427493
vt 0.033376 0.740201
vt 0.003906 0.740201
vt 0.003906 0.702090
vt 0.033376 0.702090
vt 0.033376 0.473417
vt 0.003906 0.473417
vt 0.003906 0.435305
vt 0.033376 0.435305
vt 0.210033 0.452990
vt 0.183728 0.452990
vt 0.183728 0.435305
vt 0.210033 0.435305
vt 0.210033 0.576782
vt 0.183728 0.576782
vt 0.183728 0.559098
vt 0.210033 0.559098
vt 0.952492 0.237095
vt 0.968371 0.237095
vt 0.968371 0.275957
vt 0.952492 0.509144
vt 0.968371 0.509144
vt 0.968371 0.548009
vt 0.952492 0.548009
vt 0.003906 0.412698
vt 0.003906 0.427493
vt 0.003906 0.309136
vt 0.003906 0.323931
vt 0.033376 0.663980
vt 0.049767 0.663980
vt 0.049767 0.702090
vt 0.033376 0.930763
vt 0.049767 0.930763
vt 0.049767 0.968875
vt 0.033376 0.968875
vt 0.719807 0.018810
vt 0.719807 0.003906
vt 0.719807 0.123135
vt 0.719807 0.108231
vt 0.260441 0.495042
vt 0.281701 0.495187
vt 0.275194 0.524628
vt 0.260856 0.517485
vt 0.269441 0.555482
vt 0.261751 0.540154
vt 0.743553 0.003906
vt 0.727620 0.003906
vt 0.758702 0.003906
vt 0.825891 0.568474
vt 0.811249 0.568474
vt 0.795801 0.568474
vt 0.261711 0.450838
vt 0.269575 0.435305
vt 0.275026 0.466118
vt 0.260681 0.473063
vt 0.772861 0.003906
vt 0.772861 0.078721
vt 0.787988 0.003906
vt 0.787988 0.078721
vt 0.787988 0.272806
vt 0.772861 0.272806
vt 0.854176 0.568474
vt 0.839540 0.568474
vt 0.839540 0.765245
vt 0.854176 0.765245
vt 0.854176 0.839027
vt 0.839540 0.839027
vt 0.382405 0.524346
vt 0.369912 0.517489
vt 0.379707 0.555044
vt 0.371321 0.539683
vt 0.252056 0.486943
vt 0.251778 0.480979
vt 0.414283 0.458992
vt 0.414479 0.453155
vt 0.426316 0.452170
vt 0.426188 0.454646
vt 0.414551 0.447313
vt 0.426447 0.449736
vt 0.252341 0.492995
vt 0.434268 0.444825
vt 0.446027 0.435305
vt 0.446017 0.441291
vt 0.434259 0.447245
vt 0.446016 0.447269
vt 0.434259 0.449658
vt 0.360778 0.491313
vt 0.360778 0.497614
vt 0.361056 0.485221
vt 0.252010 0.499259
vt 0.414448 0.441315
vt 0.426337 0.447144
vt 0.414283 0.435305
vt 0.426301 0.444497
vt 0.251778 0.505375
vt 0.360860 0.503694
vt 0.446016 0.453095
vt 0.434259 0.451926
vt 0.446027 0.458914
vt 0.434268 0.454188
vt 0.361098 0.509641
vt 0.996094 0.638459
vt 0.996094 0.687364
vt 0.994346 0.687364
vt 0.994346 0.638459
vt 0.996094 0.052638
vt 0.994346 0.052638
vt 0.994346 0.003906
vt 0.996094 0.003906
vt 0.992833 0.052638
vt 0.991195 0.052638
vt 0.991195 0.003906
vt 0.992833 0.003906
vt 0.989528 0.052638
vt 0.989528 0.003906
vt 0.992833 0.393935
vt 0.991195 0.393935
vt 0.991195 0.344991
vt 0.992833 0.344991
vt 0.994346 0.393935
vt 0.994346 0.344991
vt 0.989528 0.393935
vt 0.989528 0.344991
vt 0.989528 0.296294
vt 0.991195 0.296294
vt 0.989528 0.247563
vt 0.991195 0.247563
vt 0.989528 0.198832
vt 0.991195 0.198832
vt 0.989528 0.150100
vt 0.991195 0.150100
vt 0.989528 0.101369
vt 0.991195 0.101369
vt 0.992833 0.296294
vt 0.994346 0.296294
vt 0.992833 0.247563
vt 0.994346 0.247563
vt 0.992833 0.198832
vt 0.994346 0.198832
vt 0.992833 0.150100
vt 0.994346 0.150100
vt 0.992833 0.101369
vt 0.994346 0.101369
vt 0.996094 0.344991
vt 0.996094 0.296294
vt 0.996094 0.247563
vt 0.996094 0.198832
vt 0.996094 0.150100
vt 0.996094 0.101369
vt 0.663081 0.093328
vt 0.719807 0.093328
vt 0.663081 0.078424
vt 0.719807 0.078424
vt 0.663081 0.063521
vt 0.719807 0.063521
vt 0.663081 0.048617
vt 0.719807 0.048617
vt 0.663081 0.033714
vt 0.719807 0.033714
vt 0.049767 0.740201
vt 0.049767 0.778313
vt 0.033376 0.778313
vt 0.049767 0.816426
vt 0.033376 0.816426
vt 0.049767 0.854538
vt 0.033376 0.854538
vt 0.049767 0.892651
vt 0.033376 0.892651
vt 0.003906 0.220369
vt 0.060977 0.220369
vt 0.060977 0.235164
vt 0.003906 0.235164
vt 0.060977 0.249958
vt 0.003906 0.249958
vt 0.060977 0.264753
vt 0.003906 0.264753
vt 0.060977 0.279547
vt 0.003906 0.279547
vt 0.060977 0.294342
vt 0.003906 0.294342
vt 0.968371 0.003906
vt 0.968371 0.042771
vt 0.968371 0.081636
vt 0.952492 0.081636
vt 0.968371 0.120500
vt 0.952492 0.120500
vt 0.968371 0.159365
vt 0.952492 0.159365
vt 0.968371 0.198230
vt 0.952492 0.198230
vt 0.210033 0.682891
vt 0.183728 0.682891
vt 0.183728 0.665206
vt 0.210033 0.665206
vt 0.183728 0.647521
vt 0.210033 0.647521
vt 0.183728 0.629836
vt 0.210033 0.629836
vt 0.183728 0.612151
vt 0.210033 0.612151
vt 0.183728 0.594466
vt 0.210033 0.594466
vt 0.003906 0.968875
vt 0.003906 0.930763
vt 0.003906 0.892651
vt 0.003906 0.854538
vt 0.003906 0.816426
vt 0.003906 0.778313
vt 0.237004 0.220369
vt 0.237004 0.235164
vt 0.237004 0.249958
vt 0.237004 0.264753
vt 0.237004 0.279547
vt 0.237004 0.294342
vt 0.484484 0.093328
vt 0.484484 0.078424
vt 0.484484 0.063521
vt 0.484484 0.048617
vt 0.484484 0.033714
vt 0.110564 0.551489
vt 0.139426 0.551489
vt 0.110564 0.532125
vt 0.139426 0.532125
vt 0.110564 0.512761
vt 0.139426 0.512761
vt 0.110564 0.493397
vt 0.139426 0.493397
vt 0.110564 0.474033
vt 0.139426 0.474033
vt 0.919088 0.237095
vt 0.919088 0.198230
vt 0.919088 0.159365
vt 0.919088 0.120500
vt 0.919088 0.081636
vt 0.991195 0.687364
vt 0.989528 0.687364
vt 0.989528 0.638459
vt 0.991195 0.638459
vt 0.989528 0.589554
vt 0.991195 0.589554
vt 0.989528 0.540649
vt 0.991195 0.540649
vt 0.989528 0.491744
vt 0.991195 0.491744
vt 0.989528 0.442839
vt 0.991195 0.442839
vt 0.992833 0.687364
vt 0.992833 0.638459
vt 0.992833 0.589554
vt 0.994346 0.589554
vt 0.992833 0.540649
vt 0.994346 0.540649
vt 0.992833 0.491744
vt 0.994346 0.491744
vt 0.992833 0.442839
vt 0.994346 0.442839
vt 0.996094 0.393935
vt 0.996094 0.442839
vt 0.996094 0.491744
vt 0.996094 0.540649
vt 0.996094 0.589554
vt 0.719807 0.212557
vt 0.663081 0.212557
vt 0.663081 0.197653
vt 0.719807 0.197653
vt 0.663081 0.182749
vt 0.719807 0.182749
vt 0.663081 0.167846
vt 0.719807 0.167846
vt 0.663081 0.152942
vt 0.719807 0.152942
vt 0.663081 0.138039
vt 0.719807 0.138039
vt 0.049767 0.435305
vt 0.049767 0.473417
vt 0.049767 0.511530
vt 0.033376 0.511530
vt 0.049767 0.549642
vt 0.033376 0.549642
vt 0.049767 0.587755
vt 0.033376 0.587755
vt 0.049767 0.625867
vt 0.033376 0.625867
vt 0.060977 0.338726
vt 0.003906 0.338726
vt 0.060977 0.353520
vt 0.003906 0.353520
vt 0.060977 0.368314
vt 0.003906 0.368314
vt 0.060977 0.383109
vt 0.003906 0.383109
vt 0.060977 0.397903
vt 0.003906 0.397903
vt 0.968371 0.314820
vt 0.968371 0.353685
vt 0.952492 0.353685
vt 0.968371 0.392550
vt 0.952492 0.392550
vt 0.968371 0.431415
vt 0.952492 0.431415
vt 0.968371 0.470279
vt 0.952492 0.470279
vt 0.183728 0.541414
vt 0.210033 0.541414
vt 0.183728 0.523729
vt 0.210033 0.523729
vt 0.183728 0.506044
vt 0.210033 0.506044
vt 0.183728 0.488359
vt 0.210033 0.488359
vt 0.183728 0.470675
vt 0.210033 0.470675
vt 0.003906 0.663980
vt 0.003906 0.625867
vt 0.003906 0.587755
vt 0.003906 0.549642
vt 0.003906 0.511530
vt 0.237004 0.338726
vt 0.237004 0.353520
vt 0.237004 0.368314
vt 0.237004 0.383109
vt 0.237004 0.397903
vt 0.484484 0.212557
vt 0.484484 0.197653
vt 0.484484 0.182749
vt 0.484484 0.167846
vt 0.484484 0.152942
vt 0.484484 0.138039
vt 0.139426 0.706398
vt 0.110564 0.706398
vt 0.110564 0.687034
vt 0.139426 0.687034
vt 0.110564 0.667670
vt 0.139426 0.667670
vt 0.110564 0.648306
vt 0.139426 0.648306
vt 0.110564 0.628943
vt 0.139426 0.628943
vt 0.110564 0.609579
vt 0.139426 0.609579
vt 0.919088 0.548009
vt 0.919088 0.509144
vt 0.919088 0.470279
vt 0.919088 0.431415
vt 0.919088 0.392550
vt 0.919088 0.353685
s 1
usemtl Chicles
f 20/1/1 56/2/2 67/3/3 58/4/4
f 56/2/2 12/5/5 27/6/6 67/3/3
f 67/7/3 27/8/6 4/9/7 55/10/8
f 58/11/4 67/7/3 55/10/8 19/12/9
f 201/13/10 30/14/10 68/15/11 243/16/11
f 99/17/10 8/18/12 40/19/13 136/20/11
f 136/21/11 40/22/13 21/23/14 112/24/15
f 243/25/11 68/26/11 37/27/15 214/28/15
f 17/29/16 51/30/17 69/31/18 53/32/19
f 51/30/17 14/33/20 33/34/21 69/31/18
f 69/31/18 33/34/21 6/35/22 50/36/23
f 53/32/19 69/31/18 50/36/23 16/37/24
f 226/38/25 46/39/25 70/40/26 249/41/26
f 124/42/25 13/43/27 43/44/28 142/45/26
f 142/45/26 43/44/28 5/46/29 105/47/30
f 249/41/26 70/40/26 35/48/30 207/49/30
f 118/50/31 45/51/31 71/52/32 153/53/32
f 220/54/31 12/55/5 42/56/33 250/57/32
f 250/57/32 42/56/33 2/58/34 213/59/35
f 153/53/32 71/52/32 36/60/35 111/61/35
f 93/62/36 29/63/36 72/64/37 159/65/37
f 195/66/36 3/67/38 61/68/39 256/69/37
f 256/70/37 61/71/39 9/72/40 237/73/41
f 159/74/37 72/75/37 59/76/41 135/77/41
f 94/78/10 30/14/10 73/79/42 165/80/42
f 196/81/10 4/82/7 27/83/6 262/84/42
f 262/85/42 27/86/6 12/55/5 220/54/31
f 165/87/42 73/88/42 45/51/31 118/50/31
f 190/89/36 29/63/36 74/90/43 273/91/43
f 88/92/36 7/93/44 32/94/45 166/95/43
f 166/96/43 32/97/45 13/43/27 124/42/25
f 273/98/43 74/99/43 46/39/25 226/38/25
f 15/100/46 49/101/47 75/102/48 52/103/49
f 49/101/47 8/104/12 44/105/50 75/102/48
f 75/106/48 44/107/50 14/33/20 51/30/17
f 52/108/49 75/106/48 51/30/17 17/29/16
f 18/109/51 26/110/52 76/111/53 57/112/54
f 26/110/52 2/113/34 42/114/33 76/111/53
f 76/111/53 42/114/33 12/5/5 56/2/2
f 57/112/54 76/111/53 56/2/2 20/1/1
f 7/115/44 31/116/55 77/117/56 32/118/45
f 31/116/55 15/100/46 52/103/49 77/117/56
f 77/119/56 52/108/49 17/29/16 47/120/57
f 32/121/45 77/119/56 47/120/57 13/122/27
f 13/122/27 47/120/57 78/123/58 43/124/28
f 47/120/57 17/29/16 53/32/19 78/123/58
f 78/123/58 53/32/19 16/37/24 34/125/59
f 43/124/28 78/123/58 34/125/59 5/126/29
f 1/127/60 54/128/61 79/129/62 25/130/63
f 54/128/61 18/109/51 57/112/54 79/129/62
f 79/129/62 57/112/54 20/1/1 48/131/64
f 25/130/63 79/129/62 48/131/64 11/132/65
f 11/132/65 48/131/64 80/133/66 41/134/67
f 48/131/64 20/1/1 58/4/4 80/133/66
f 80/135/66 58/11/4 19/12/9 28/136/68
f 41/137/67 80/135/66 28/136/68 3/138/38
f 7/115/44 60/139/69 81/140/70 31/116/55
f 60/141/69 10/142/71 62/143/72 81/144/70
f 81/144/70 62/143/72 23/145/73 64/146/74
f 31/116/55 81/140/70 64/147/74 15/100/46
f 22/148/75 65/149/76 82/150/77 38/151/78
f 65/149/76 24/152/79 66/153/80 82/150/77
f 82/154/77 66/155/80 19/12/9 55/10/8
f 38/156/78 82/154/77 55/10/8 4/9/7
f 15/100/46 64/147/74 83/157/81 49/101/47
f 64/146/74 23/145/73 63/158/82 83/159/81
f 83/159/81 63/158/82 21/160/14 40/161/13
f 49/101/47 83/157/81 40/162/13 8/104/12
f 19/12/9 66/155/80 84/163/83 28/136/68
f 66/153/80 24/152/79 39/164/84 84/165/83
f 84/165/83 39/164/84 9/166/40 61/167/39
f 28/136/68 84/163/83 61/168/39 3/138/38
f 219/169/85 285/170/86 65/149/76 22/148/75
f 112/171/87 21/172/14 63/173/82 178/174/88
f 172/175/89 23/176/73 62/177/72 184/178/90
f 178/174/88 63/173/82 23/176/73 172/175/89
f 184/178/90 62/177/72 10/179/71 130/180/91
f 279/181/92 85/182/93 87/183/94 286/184/95
f 280/185/86 86/186/96 85/182/93 279/181/92
f 286/184/95 87/183/94 59/187/97 232/188/98
f 87/183/94 189/189/99 135/190/100 59/187/97
f 189/189/99 188/191/101 134/192/102 135/190/100
f 188/191/101 187/193/103 133/194/104 134/192/102
f 187/193/103 186/195/105 132/196/106 133/194/104
f 186/195/105 185/197/107 131/198/108 132/196/106
f 185/197/107 184/178/90 130/180/91 131/198/108
f 86/186/96 183/199/109 177/200/110 85/182/93
f 183/199/109 182/201/111 176/202/112 177/200/110
f 182/201/111 181/203/113 175/204/114 176/202/112
f 181/203/113 180/205/115 174/206/116 175/204/114
f 180/205/115 179/207/117 173/208/118 174/206/116
f 179/207/117 178/174/88 172/175/89 173/208/118
f 85/182/93 177/200/110 189/189/99 87/183/94
f 177/200/110 176/202/112 188/191/101 189/189/99
f 176/202/112 175/204/114 187/193/103 188/191/101
f 175/204/114 174/206/116 186/195/105 187/193/103
f 174/206/116 173/208/118 185/197/107 186/195/105
f 173/208/118 172/175/89 184/178/90 185/197/107
f 37/209/119 117/210/120 183/199/109 86/186/96
f 117/210/120 116/211/121 182/201/111 183/199/109
f 116/211/121 115/212/122 181/203/113 182/201/111
f 115/212/122 114/213/123 180/205/115 181/203/113
f 114/213/123 113/214/124 179/207/117 180/205/115
f 113/214/124 112/171/87 178/174/88 179/207/117
f 74/99/43 171/215/43 129/216/25 46/39/25
f 171/215/43 170/217/43 128/218/25 129/216/25
f 170/217/43 169/219/43 127/220/25 128/218/25
f 169/219/43 168/221/43 126/222/25 127/220/25
f 168/221/43 167/223/43 125/224/25 126/222/25
f 167/223/43 166/96/43 124/42/25 125/224/25
f 29/63/36 93/62/36 171/225/43 74/90/43
f 93/62/36 92/226/36 170/227/43 171/225/43
f 92/226/36 91/228/36 169/229/43 170/227/43
f 91/228/36 90/230/36 168/231/43 169/229/43
f 90/230/36 89/232/36 167/233/43 168/231/43
f 89/232/36 88/92/36 166/95/43 167/233/43
f 44/234/50 160/235/42 123/236/31 14/237/20
f 160/235/42 161/238/42 122/239/31 123/236/31
f 161/238/42 162/240/42 121/241/31 122/239/31
f 162/240/42 163/242/42 120/243/31 121/241/31
f 163/242/42 164/244/42 119/245/31 120/243/31
f 164/244/42 165/87/42 118/50/31 119/245/31
f 8/18/12 99/17/10 160/246/42 44/247/50
f 99/17/10 98/248/10 161/249/42 160/246/42
f 98/248/10 97/250/10 162/251/42 161/249/42
f 97/250/10 96/252/10 163/253/42 162/251/42
f 96/252/10 95/254/10 164/255/42 163/253/42
f 95/254/10 94/78/10 165/80/42 164/255/42
f 60/256/69 154/257/37 130/258/41 10/259/71
f 154/257/37 155/260/37 131/261/41 130/258/41
f 155/260/37 156/262/37 132/263/41 131/261/41
f 156/262/37 157/264/37 133/265/41 132/263/41
f 157/264/37 158/266/37 134/267/41 133/265/41
f 158/266/37 159/74/37 135/77/41 134/267/41
f 7/93/44 88/92/36 154/268/37 60/269/69
f 88/92/36 89/232/36 155/270/37 154/268/37
f 89/232/36 90/230/36 156/271/37 155/270/37
f 90/230/36 91/228/36 157/272/37 156/271/37
f 91/228/36 92/226/36 158/273/37 157/272/37
f 92/226/36 93/62/36 159/65/37 158/273/37
f 33/274/21 148/275/32 106/276/35 6/277/22
f 148/275/32 149/278/32 107/279/35 106/276/35
f 149/278/32 150/280/32 108/281/35 107/279/35
f 150/280/32 151/282/32 109/283/35 108/281/35
f 151/282/32 152/284/32 110/285/35 109/283/35
f 152/284/32 153/53/32 111/61/35 110/285/35
f 14/237/20 123/236/31 148/275/32 33/274/21
f 123/236/31 122/239/31 149/278/32 148/275/32
f 122/239/31 121/241/31 150/280/32 149/278/32
f 121/241/31 120/243/31 151/282/32 150/280/32
f 120/243/31 119/245/31 152/284/32 151/282/32
f 119/245/31 118/50/31 153/53/32 152/284/32
f 70/40/26 147/286/26 100/287/30 35/48/30
f 147/286/26 146/288/26 101/289/30 100/287/30
f 146/288/26 145/290/26 102/291/30 101/289/30
f 145/290/26 144/292/26 103/293/30 102/291/30
f 144/292/26 143/294/26 104/295/30 103/293/30
f 143/294/26 142/45/26 105/47/30 104/295/30
f 46/39/25 129/216/25 147/286/26 70/40/26
f 129/216/25 128/218/25 146/288/26 147/286/26
f 128/218/25 127/220/25 145/290/26 146/288/26
f 127/220/25 126/222/25 144/292/26 145/290/26
f 126/222/25 125/224/25 143/294/26 144/292/26
f 125/224/25 124/42/25 142/45/26 143/294/26
f 68/26/11 141/296/11 117/297/15 37/27/15
f 141/296/11 140/298/11 116/299/15 117/297/15
f 140/298/11 139/300/11 115/301/15 116/299/15
f 139/300/11 138/302/11 114/303/15 115/301/15
f 138/302/11 137/304/11 113/305/15 114/303/15
f 137/304/11 136/21/11 112/24/15 113/305/15
f 30/14/10 94/78/10 141/306/11 68/15/11
f 94/78/10 95/254/10 140/307/11 141/306/11
f 95/254/10 96/252/10 139/308/11 140/307/11
f 96/252/10 97/250/10 138/309/11 139/308/11
f 97/250/10 98/248/10 137/310/11 138/309/11
f 98/248/10 99/17/10 136/20/11 137/310/11
f 39/164/84 291/311/95 237/312/85 9/166/40
f 291/311/95 290/313/95 236/314/98 237/312/85
f 290/313/95 289/315/95 235/316/85 236/314/98
f 289/315/95 288/317/95 234/318/125 235/316/85
f 288/317/95 287/319/95 233/320/85 234/318/125
f 287/319/95 286/184/95 232/188/98 233/320/85
f 65/149/76 285/170/86 274/321/92 24/152/79
f 285/170/86 284/322/86 275/323/92 274/321/92
f 284/322/86 283/324/86 276/325/92 275/323/92
f 283/324/86 282/326/86 277/327/92 276/325/92
f 282/326/86 281/328/86 278/329/92 277/327/92
f 281/328/86 280/185/86 279/181/92 278/329/92
f 24/152/79 274/321/92 291/311/95 39/164/84
f 274/321/92 275/323/92 290/313/95 291/311/95
f 275/323/92 276/325/92 289/315/95 290/313/95
f 276/325/92 277/327/92 288/317/95 289/315/95
f 277/327/92 278/329/92 287/319/95 288/317/95
f 278/329/92 279/181/92 286/184/95 287/319/95
f 37/209/119 86/186/96 280/185/86 214/330/126
f 214/330/126 280/185/86 281/328/86 215/331/85
f 215/331/85 281/328/86 282/326/86 216/332/125
f 216/332/125 282/326/86 283/324/86 217/333/127
f 217/333/127 283/324/86 284/322/86 218/334/126
f 218/334/126 284/322/86 285/170/86 219/169/85
f 41/335/67 268/336/43 231/337/25 11/338/65
f 268/336/43 269/339/43 230/340/25 231/337/25
f 269/339/43 270/341/43 229/342/25 230/340/25
f 270/341/43 271/343/43 228/344/25 229/342/25
f 271/343/43 272/345/43 227/346/25 228/344/25
f 272/345/43 273/98/43 226/38/25 227/346/25
f 3/67/38 195/66/36 268/347/43 41/348/67
f 195/66/36 194/349/36 269/350/43 268/347/43
f 194/349/36 193/351/36 270/352/43 269/350/43
f 193/351/36 192/353/36 271/354/43 270/352/43
f 192/353/36 191/355/36 272/356/43 271/354/43
f 191/355/36 190/89/36 273/91/43 272/356/43
f 73/88/42 267/357/42 225/358/31 45/51/31
f 267/357/42 266/359/42 224/360/31 225/358/31
f 266/359/42 265/361/42 223/362/31 224/360/31
f 265/361/42 264/363/42 222/364/31 223/362/31
f 264/363/42 263/365/42 221/366/31 222/364/31
f 263/365/42 262/85/42 220/54/31 221/366/31
f 30/14/10 201/13/10 267/367/42 73/79/42
f 201/13/10 200/368/10 266/369/42 267/367/42
f 200/368/10 199/370/10 265/371/42 266/369/42
f 199/370/10 198/372/10 264/373/42 265/371/42
f 198/372/10 197/374/10 263/375/42 264/373/42
f 197/374/10 196/81/10 262/84/42 263/375/42
f 72/75/37 261/376/37 232/377/41 59/76/41
f 261/376/37 260/378/37 233/379/41 232/377/41
f 260/378/37 259/380/37 234/381/41 233/379/41
f 259/380/37 258/382/37 235/383/41 234/381/41
f 258/382/37 257/384/37 236/385/41 235/383/41
f 257/384/37 256/70/37 237/73/41 236/385/41
f 29/63/36 190/89/36 261/386/37 72/64/37
f 190/89/36 191/355/36 260/387/37 261/386/37
f 191/355/36 192/353/36 259/388/37 260/387/37
f 192/353/36 193/351/36 258/389/37 259/388/37
f 193/351/36 194/349/36 257/390/37 258/389/37
f 194/349/36 195/66/36 256/69/37 257/390/37
f 71/52/32 255/391/32 208/392/35 36/60/35
f 255/391/32 254/393/32 209/394/35 208/392/35
f 254/393/32 253/395/32 210/396/35 209/394/35
f 253/395/32 252/397/32 211/398/35 210/396/35
f 252/397/32 251/399/32 212/400/35 211/398/35
f 251/399/32 250/57/32 213/59/35 212/400/35
f 45/51/31 225/358/31 255/391/32 71/52/32
f 225/358/31 224/360/31 254/393/32 255/391/32
f 224/360/31 223/362/31 253/395/32 254/393/32
f 223/362/31 222/364/31 252/397/32 253/395/32
f 222/364/31 221/366/31 251/399/32 252/397/32
f 221/366/31 220/54/31 250/57/32 251/399/32
f 25/401/63 244/402/26 202/403/30 1/404/60
f 244/402/26 245/405/26 203/406/30 202/403/30
f 245/405/26 246/407/26 204/408/30 203/406/30
f 246/407/26 247/409/26 205/410/30 204/408/30
f 247/409/26 248/411/26 206/412/30 205/410/30
f 248/411/26 249/41/26 207/49/30 206/412/30
f 11/338/65 231/337/25 244/402/26 25/401/63
f 231/337/25 230/340/25 245/405/26 244/402/26
f 230/340/25 229/342/25 246/407/26 245/405/26
f 229/342/25 228/344/25 247/409/26 246/407/26
f 228/344/25 227/346/25 248/411/26 247/409/26
f 227/346/25 226/38/25 249/41/26 248/411/26
f 38/413/78 238/414/11 219/415/15 22/416/75
f 238/414/11 239/417/11 218/418/15 219/415/15
f 239/417/11 240/419/11 217/420/15 218/418/15
f 240/419/11 241/421/11 216/422/15 217/420/15
f 241/421/11 242/423/11 215/424/15 216/422/15
f 242/423/11 243/25/11 214/28/15 215/424/15
f 4/82/7 196/81/10 238/425/11 38/426/78
f 196/81/10 197/374/10 239/427/11 238/425/11
f 197/374/10 198/372/10 240/428/11 239/427/11
f 198/372/10 199/370/10 241/429/11 240/428/11
f 199/370/10 200/368/10 242/430/11 241/429/11
f 200/368/10 201/13/10 243/16/11 242/430/11
f 305/431/128 337/432/129 346/433/130 335/434/131
f 335/434/131 346/433/130 311/435/132 299/436/133
f 346/437/130 334/438/134 293/439/135 311/440/132
f 337/441/129 304/442/136 334/438/134 346/437/130
f 468/443/137 498/444/138 347/445/138 314/446/137
f 378/447/137 403/448/138 321/449/139 295/450/140
f 403/451/138 379/452/141 306/453/142 321/454/139
f 498/455/138 469/456/141 318/457/141 347/458/138
f 303/459/143 333/460/144 348/461/145 331/462/146
f 331/462/146 348/461/145 317/463/147 301/464/148
f 348/461/145 50/36/23 6/35/22 317/463/147
f 333/460/144 16/37/24 50/36/23 348/461/145
f 481/465/149 504/466/150 349/467/150 327/468/149
f 391/469/149 409/470/150 324/471/151 300/472/152
f 409/470/150 105/47/30 5/46/29 324/471/151
f 504/466/150 207/49/30 35/48/30 349/467/150
f 385/473/153 420/474/154 350/475/154 326/476/153
f 475/477/153 505/478/154 323/479/155 299/480/133
f 505/478/154 213/59/35 2/58/34 323/479/155
f 420/474/154 111/61/35 36/60/35 350/475/154
f 372/481/156 426/482/157 351/483/157 313/484/156
f 462/485/156 511/486/157 340/487/158 292/488/159
f 511/489/157 492/490/160 296/491/161 340/492/158
f 426/493/157 402/494/160 338/495/160 351/496/157
f 373/497/137 432/498/162 352/499/162 314/446/137
f 463/500/137 517/501/162 311/502/132 293/503/135
f 517/504/162 475/477/153 299/480/133 311/505/132
f 432/506/162 385/473/153 326/476/153 352/507/162
f 457/508/156 528/509/163 353/510/163 313/484/156
f 367/511/156 433/512/163 316/513/164 294/514/165
f 433/515/163 391/469/149 300/472/152 316/516/164
f 528/517/163 481/465/149 327/468/149 353/518/163
f 302/519/166 332/520/167 354/521/168 330/522/169
f 330/522/169 354/521/168 325/523/170 295/524/140
f 354/525/168 331/462/146 301/464/148 325/526/170
f 332/527/167 303/459/143 331/462/146 354/525/168
f 18/109/51 336/528/171 355/529/172 26/110/52
f 26/110/52 355/529/172 323/530/155 2/113/34
f 355/529/172 335/434/131 299/436/133 323/530/155
f 336/528/171 305/431/128 335/434/131 355/529/172
f 294/531/165 316/532/164 356/533/173 315/534/174
f 315/534/174 356/533/173 332/520/167 302/519/166
f 356/535/173 328/536/175 303/459/143 332/527/167
f 316/537/164 300/538/152 328/536/175 356/535/173
f 300/538/152 324/539/151 357/540/176 328/536/175
f 328/536/175 357/540/176 333/460/144 303/459/143
f 357/540/176 34/125/59 16/37/24 333/460/144
f 324/539/151 5/126/29 34/125/59 357/540/176
f 1/127/60 310/541/177 358/542/178 54/128/61
f 54/128/61 358/542/178 336/528/171 18/109/51
f 358/542/178 329/543/179 305/431/128 336/528/171
f 310/541/177 298/544/180 329/543/179 358/542/178
f 298/544/180 322/545/181 359/546/182 329/543/179
f 329/543/179 359/546/182 337/432/129 305/431/128
f 359/547/182 312/548/183 304/442/136 337/441/129
f 322/549/181 292/550/159 312/548/183 359/547/182
f 294/531/165 315/534/174 360/551/184 339/552/185
f 339/553/185 360/554/184 341/555/186 297/556/187
f 360/554/184 343/557/188 308/558/189 341/555/186
f 315/534/174 302/519/166 343/559/188 360/551/184
f 307/560/190 319/561/191 361/562/192 344/563/193
f 344/563/193 361/562/192 345/564/194 309/565/195
f 361/566/192 334/438/134 304/442/136 345/567/194
f 319/568/191 293/439/135 334/438/134 361/566/192
f 302/519/166 330/522/169 362/569/196 343/559/188
f 343/557/188 362/570/196 342/571/197 308/558/189
f 362/570/196 321/572/139 306/573/142 342/571/197
f 330/522/169 295/524/140 321/574/139 362/569/196
f 304/442/136 312/548/183 363/575/198 345/567/194
f 345/564/194 363/576/198 320/577/199 309/565/195
f 363/576/198 340/578/158 296/579/161 320/577/199
f 312/548/183 292/550/159 340/580/158 363/575/198
f 474/581/200 307/582/190 344/583/193 540/584/201
f 379/585/202 445/586/203 342/587/197 306/588/142
f 439/589/204 451/590/205 341/591/186 308/592/189
f 445/586/203 439/589/204 308/592/189 342/587/197
f 451/590/205 397/593/206 297/594/187 341/591/186
f 534/595/207 541/596/208 366/597/209 364/598/210
f 535/599/201 534/595/207 364/598/210 365/600/211
f 541/596/208 487/601/212 338/602/213 366/597/209
f 366/597/209 338/602/213 402/603/214 456/604/215
f 456/604/215 402/603/214 401/605/216 455/606/217
f 455/606/217 401/605/216 400/607/218 454/608/219
f 454/608/219 400/607/218 399/609/220 453/610/221
f 453/610/221 399/609/220 398/611/222 452/612/223
f 452/612/223 398/611/222 397/593/206 451/590/205
f 365/600/211 364/598/210 444/613/224 450/614/225
f 450/614/225 444/613/224 443/615/226 449/616/227
f 449/616/227 443/615/226 442/617/228 448/618/229
f 448/618/229 442/617/228 441/619/230 447/620/231
f 447/620/231 441/619/230 440/621/232 446/622/233
f 446/622/233 440/621/232 439/589/204 445/586/203
f 364/598/210 366/597/209 456/604/215 444/613/224
f 444/613/224 456/604/215 455/606/217 443/615/226
f 443/615/226 455/606/217 454/608/219 442/617/228
f 442/617/228 454/608/219 453/610/221 441/619/230
f 441/619/230 453/610/221 452/612/223 440/621/232
f 440/621/232 452/612/223 451/590/205 439/589/204
f 318/623/234 365/600/211 450/614/225 384/624/235
f 384/624/235 450/614/225 449/616/227 383/625/236
f 383/625/236 449/616/227 448/618/229 382/626/237
f 382/626/237 448/618/229 447/620/231 381/627/238
f 381/627/238 447/620/231 446/622/233 380/628/239
f 380/628/239 446/622/233 445/586/203 379/585/202
f 353/518/163 327/468/149 396/629/149 438/630/163
f 438/630/163 396/629/149 395/631/149 437/632/163
f 437/632/163 395/631/149 394/633/149 436/634/163
f 436/634/163 394/633/149 393/635/149 435/636/163
f 435/636/163 393/635/149 392/637/149 434/638/163
f 434/638/163 392/637/149 391/469/149 433/515/163
f 313/484/156 353/510/163 438/639/163 372/481/156
f 372/481/156 438/639/163 437/640/163 371/641/156
f 371/641/156 437/640/163 436/642/163 370/643/156
f 370/643/156 436/642/163 435/644/163 369/645/156
f 369/645/156 435/644/163 434/646/163 368/647/156
f 368/647/156 434/646/163 433/512/163 367/511/156
f 325/648/170 301/649/148 390/650/153 427/651/162
f 427/651/162 390/650/153 389/652/153 428/653/162
f 428/653/162 389/652/153 388/654/153 429/655/162
f 429/655/162 388/654/153 387/656/153 430/657/162
f 430/657/162 387/656/153 386/658/153 431/659/162
f 431/659/162 386/658/153 385/473/153 432/506/162
f 295/450/140 325/660/170 427/661/162 378/447/137
f 378/447/137 427/661/162 428/662/162 377/663/137
f 377/663/137 428/662/162 429/664/162 376/665/137
f 376/665/137 429/664/162 430/666/162 375/667/137
f 375/667/137 430/666/162 431/668/162 374/669/137
f 374/669/137 431/668/162 432/498/162 373/497/137
f 339/670/185 297/671/187 397/672/160 421/673/157
f 421/673/157 397/672/160 398/674/160 422/675/157
f 422/675/157 398/674/160 399/676/160 423/677/157
f 423/677/157 399/676/160 400/678/160 424/679/157
f 424/679/157 400/678/160 401/680/160 425/681/157
f 425/681/157 401/680/160 402/494/160 426/493/157
f 294/514/165 339/682/185 421/683/157 367/511/156
f 367/511/156 421/683/157 422/684/157 368/647/156
f 368/647/156 422/684/157 423/685/157 369/645/156
f 369/645/156 423/685/157 424/686/157 370/643/156
f 370/643/156 424/686/157 425/687/157 371/641/156
f 371/641/156 425/687/157 426/482/157 372/481/156
f 317/688/147 6/277/22 106/276/35 415/689/154
f 415/689/154 106/276/35 107/279/35 416/690/154
f 416/690/154 107/279/35 108/281/35 417/691/154
f 417/691/154 108/281/35 109/283/35 418/692/154
f 418/692/154 109/283/35 110/285/35 419/693/154
f 419/693/154 110/285/35 111/61/35 420/474/154
f 301/649/148 317/688/147 415/689/154 390/650/153
f 390/650/153 415/689/154 416/690/154 389/652/153
f 389/652/153 416/690/154 417/691/154 388/654/153
f 388/654/153 417/691/154 418/692/154 387/656/153
f 387/656/153 418/692/154 419/693/154 386/658/153
f 386/658/153 419/693/154 420/474/154 385/473/153
f 349/467/150 35/48/30 100/287/30 414/694/150
f 414/694/150 100/287/30 101/289/30 413/695/150
f 413/695/150 101/289/30 102/291/30 412/696/150
f 412/696/150 102/291/30 103/293/30 411/697/150
f 411/697/150 103/293/30 104/295/30 410/698/150
f 410/698/150 104/295/30 105/47/30 409/470/150
f 327/468/149 349/467/150 414/694/150 396/629/149
f 396/629/149 414/694/150 413/695/150 395/631/149
f 395/631/149 413/695/150 412/696/150 394/633/149
f 394/633/149 412/696/150 411/697/150 393/635/149
f 393/635/149 411/697/150 410/698/150 392/637/149
f 392/637/149 410/698/150 409/470/150 391/469/149
f 347/458/138 318/457/141 384/699/141 408/700/138
f 408/700/138 384/699/141 383/701/141 407/702/138
f 407/702/138 383/701/141 382/703/141 406/704/138
f 406/704/138 382/703/141 381/705/141 405/706/138
f 405/706/138 381/705/141 380/707/141 404/708/138
f 404/708/138 380/707/141 379/452/141 403/451/138
f 314/446/137 347/445/138 408/709/138 373/497/137
f 373/497/137 408/709/138 407/710/138 374/669/137
f 374/669/137 407/710/138 406/711/138 375/667/137
f 375/667/137 406/711/138 405/712/138 376/665/137
f 376/665/137 405/712/138 404/713/138 377/663/137
f 377/663/137 404/713/138 403/448/138 378/447/137
f 320/714/199 296/715/161 492/716/240 546/717/208
f 546/717/208 492/716/240 491/718/241 545/719/208
f 545/719/208 491/718/241 490/720/200 544/721/208
f 544/721/208 490/720/200 489/722/241 543/723/208
f 543/723/208 489/722/241 488/724/200 542/725/208
f 542/725/208 488/724/200 487/601/212 541/596/208
f 344/583/193 309/726/195 529/727/207 540/584/201
f 540/584/201 529/727/207 530/728/207 539/729/201
f 539/729/201 530/728/207 531/730/207 538/731/201
f 538/731/201 531/730/207 532/732/207 537/733/201
f 537/733/201 532/732/207 533/734/207 536/735/201
f 536/735/201 533/734/207 534/595/207 535/599/201
f 309/726/195 320/714/199 546/717/208 529/727/207
f 529/727/207 546/717/208 545/719/208 530/728/207
f 530/728/207 545/719/208 544/721/208 531/730/207
f 531/730/207 544/721/208 543/723/208 532/732/207
f 532/732/207 543/723/208 542/725/208 533/734/207
f 533/734/207 542/725/208 541/596/208 534/595/207
f 318/623/234 469/736/242 535/599/201 365/600/211
f 469/736/242 470/737/200 536/735/201 535/599/201
f 470/737/200 471/738/241 537/733/201 536/735/201
f 471/738/241 472/739/200 538/731/201 537/733/201
f 472/739/200 473/740/242 539/729/201 538/731/201
f 473/740/242 474/581/200 540/584/201 539/729/201
f 322/741/181 298/742/180 486/743/149 523/744/163
f 523/744/163 486/743/149 485/745/149 524/746/163
f 524/746/163 485/745/149 484/747/149 525/748/163
f 525/748/163 484/747/149 483/749/149 526/750/163
f 526/750/163 483/749/149 482/751/149 527/752/163
f 527/752/163 482/751/149 481/465/149 528/517/163
f 292/488/159 322/753/181 523/754/163 462/485/156
f 462/485/156 523/754/163 524/755/163 461/756/156
f 461/756/156 524/755/163 525/757/163 460/758/156
f 460/758/156 525/757/163 526/759/163 459/760/156
f 459/760/156 526/759/163 527/761/163 458/762/156
f 458/762/156 527/761/163 528/509/163 457/508/156
f 352/507/162 326/476/153 480/763/153 522/764/162
f 522/764/162 480/763/153 479/765/153 521/766/162
f 521/766/162 479/765/153 478/767/153 520/768/162
f 520/768/162 478/767/153 477/769/153 519/770/162
f 519/770/162 477/769/153 476/771/153 518/772/162
f 518/772/162 476/771/153 475/477/153 517/504/162
f 314/446/137 352/499/162 522/773/162 468/443/137
f 468/443/137 522/773/162 521/774/162 467/775/137
f 467/775/137 521/774/162 520/776/162 466/777/137
f 466/777/137 520/776/162 519/778/162 465/779/137
f 465/779/137 519/778/162 518/780/162 464/781/137
f 464/781/137 518/780/162 517/501/162 463/500/137
f 351/496/157 338/495/160 487/782/160 516/783/157
f 516/783/157 487/782/160 488/784/160 515/785/157
f 515/785/157 488/784/160 489/786/160 514/787/157
f 514/787/157 489/786/160 490/788/160 513/789/157
f 513/789/157 490/788/160 491/790/160 512/791/157
f 512/791/157 491/790/160 492/490/160 511/489/157
f 313/484/156 351/483/157 516/792/157 457/508/156
f 457/508/156 516/792/157 515/793/157 458/762/156
f 458/762/156 515/793/157 514/794/157 459/760/156
f 459/760/156 514/794/157 513/795/157 460/758/156
f 460/758/156 513/795/157 512/796/157 461/756/156
f 461/756/156 512/796/157 511/486/157 462/485/156
f 350/475/154 36/60/35 208/392/35 510/797/154
f 510/797/154 208/392/35 209/394/35 509/798/154
f 509/798/154 209/394/35 210/396/35 508/799/154
f 508/799/154 210/396/35 211/398/35 507/800/154
f 507/800/154 211/398/35 212/400/35 506/801/154
f 506/801/154 212/400/35 213/59/35 505/478/154
f 326/476/153 350/475/154 510/797/154 480/763/153
f 480/763/153 510/797/154 509/798/154 479/765/153
f 479/765/153 509/798/154 508/799/154 478/767/153
f 478/767/153 508/799/154 507/800/154 477/769/153
f 477/769/153 507/800/154 506/801/154 476/771/153
f 476/771/153 506/801/154 505/478/154 475/477/153
f 310/802/177 1/404/60 202/403/30 499/803/150
f 499/803/150 202/403/30 203/406/30 500/804/150
f 500/804/150 203/406/30 204/408/30 501/805/150
f 501/805/150 204/408/30 205/410/30 502/806/150
f 502/806/150 205/410/30 206/412/30 503/807/150
f 503/807/150 206/412/30 207/49/30 504/466/150
f 298/742/180 310/802/177 499/803/150 486/743/149
f 486/743/149 499/803/150 500/804/150 485/745/149
f 485/745/149 500/804/150 501/805/150 484/747/149
f 484/747/149 501/805/150 502/806/150 483/749/149
f 483/749/149 502/806/150 503/807/150 482/751/149
f 482/751/149 503/807/150 504/466/150 481/465/149
f 319/808/191 307/809/190 474/810/141 493/811/138
f 493/811/138 474/810/141 473/812/141 494/813/138
f 494/813/138 473/812/141 472/814/141 495/815/138
f 495/815/138 472/814/141 471/816/141 496/817/138
f 496/817/138 471/816/141 470/818/141 497/819/138
f 497/819/138 470/818/141 469/456/141 498/455/138
f 293/503/135 319/820/191 493/821/138 463/500/137
f 463/500/137 493/821/138 494/822/138 464/781/137
f 464/781/137 494/822/138 495/823/138 465/779/137
f 465/779/137 495/823/138 496/824/138 466/777/137
f 466/777/137 496/824/138 497/825/138 467/775/137
f 467/775/137 497/825/138 498/444/138 468/443/137
