# Blender 5.0.1
# www.blender.org
mtllib Chocolate 2.mtl
o Chocolate_2
v -0.406879 0.000000 -0.268595
v -0.406879 0.000000 0.329495
v -0.491683 2.249148 -0.094622
v -0.491683 2.249148 0.094443
v 0.412778 0.000000 -0.268595
v 0.412778 0.000000 0.329495
v 0.491588 2.249148 -0.094622
v 0.491588 2.249148 0.094443
v -0.641287 2.671485 -0.020215
v 0.641168 2.671485 -0.020215
v -0.411020 1.973228 -0.285954
v -0.411020 1.973228 0.285376
v 0.412092 1.973228 -0.285954
v 0.412092 1.973228 0.285376
v 0.490134 2.249315 -0.001122
v 0.388864 0.000000 0.005080
v 0.376394 1.790838 0.000049
v -0.397873 0.000000 0.005080
v -0.490700 2.249148 -0.001121
v -0.389862 1.790839 0.000049
v 0.641168 2.671485 -0.000174
v -0.641287 2.671485 -0.000174
v 0.636858 2.680188 -0.010572
v -0.641287 2.671484 -0.010519
v -0.408106 0.809407 -0.279571
v -0.402180 0.000000 0.166736
v -0.451057 2.107735 0.190455
v -0.491170 2.249148 -0.047894
v -0.000048 2.249148 -0.094622
v -0.000048 2.249148 0.094443
v 0.490829 2.249235 -0.047894
v 0.451494 2.107735 -0.191272
v 0.411552 0.809407 0.309055
v 0.400302 0.000000 -0.132309
v 0.002950 0.000000 -0.268595
v 0.002950 0.000000 0.329495
v -0.000059 2.552251 -0.000174
v -0.573518 2.438583 0.045665
v -0.641287 2.671485 -0.015374
v 0.573399 2.438583 0.045665
v -0.451057 2.107735 -0.191272
v -0.408106 0.809407 0.309055
v 0.411552 0.809407 -0.279571
v 0.451494 2.107735 0.190455
v 0.000536 1.973228 0.285376
v 0.000536 1.973228 -0.285954
v 0.398203 1.808209 -0.130032
v -0.404505 1.808209 -0.130032
v 0.490829 2.249235 0.046638
v 0.400302 0.000000 0.166736
v 0.398203 1.808209 0.133442
v 0.422459 2.081679 -0.000816
v 0.370559 0.783351 0.002183
v -0.402180 0.000000 -0.132309
v -0.491170 2.249148 0.046639
v -0.404505 1.808209 0.133442
v -0.383468 0.783351 0.002183
v -0.430922 2.081679 -0.000816
v -0.000059 2.552251 -0.020215
v 0.573399 2.438583 -0.055713
v -0.573518 2.438583 -0.055713
v 0.638995 2.676025 -0.015402
v 0.638995 2.676026 -0.005381
v 0.571419 2.442592 -0.005733
v -0.641287 2.671485 -0.005354
v -0.573518 2.438583 -0.005709
v -0.441078 2.086022 0.093716
v -0.000059 2.438583 0.045665
v 0.390715 0.787694 0.154252
v 0.001723 0.809407 -0.279571
v 0.001723 0.809407 0.309055
v -0.000059 2.438583 -0.055713
v 0.000219 2.107735 0.190455
v 0.000219 2.107735 -0.191272
v 0.436896 2.086022 0.093716
v -0.395777 0.787694 0.154252
v 0.436896 2.086022 -0.094537
v 0.390715 0.787694 -0.137450
v -0.395777 0.787694 -0.137450
v -0.441078 2.086022 -0.094537
v 0.572403 2.440674 -0.030739
v -0.573518 2.438582 0.019963
v 0.572403 2.440674 0.019951
v -0.573518 2.438582 -0.030726
v -0.000059 2.552251 -0.009716
v -0.000059 2.552251 -0.005649
v -0.000059 2.552251 -0.014892
v 0.421354 2.249148 -0.094622
v 0.351120 2.249148 -0.094622
v 0.280887 2.249148 -0.094622
v 0.210653 2.249148 -0.094622
v 0.140419 2.249148 -0.094622
v 0.070186 2.249148 -0.094622
v 0.070186 2.249148 0.094443
v 0.140419 2.249148 0.094443
v 0.210653 2.249148 0.094443
v 0.280887 2.249148 0.094443
v 0.351120 2.249148 0.094443
v 0.421354 2.249148 0.094443
v 0.061497 0.000000 -0.268595
v 0.120044 0.000000 -0.268595
v 0.178591 0.000000 -0.268595
v 0.237138 0.000000 -0.268595
v 0.295685 0.000000 -0.268595
v 0.354232 0.000000 -0.268595
v 0.354232 0.000000 0.329495
v 0.295685 0.000000 0.329495
v 0.237138 0.000000 0.329495
v 0.178591 0.000000 0.329495
v 0.120044 0.000000 0.329495
v 0.061497 0.000000 0.329495
v 0.549553 2.552251 -0.000174
v 0.457938 2.671485 -0.000174
v 0.366323 2.552251 -0.000174
v 0.274707 2.671485 -0.000174
v 0.183092 2.552251 -0.000174
v 0.091477 2.671485 -0.000174
v 0.059330 1.973228 0.285376
v 0.118124 1.973228 0.285376
v 0.176917 1.973228 0.285376
v 0.235711 1.973228 0.285376
v 0.294505 1.973228 0.285376
v 0.353298 1.973228 0.285376
v 0.353298 1.973228 -0.285954
v 0.294505 1.973228 -0.285954
v 0.235711 1.973228 -0.285954
v 0.176917 1.973228 -0.285954
v 0.118124 1.973228 -0.285954
v 0.059330 1.973228 -0.285954
v 0.549553 2.552251 -0.020215
v 0.457938 2.671485 -0.020215
v 0.366323 2.552251 -0.020215
v 0.274707 2.671485 -0.020215
v 0.183092 2.552251 -0.020215
v 0.091477 2.671485 -0.020215
v 0.491471 2.438583 0.045665
v 0.409543 2.438583 0.045665
v 0.327615 2.438583 0.045665
v 0.245686 2.438583 0.045665
v 0.163758 2.438583 0.045665
v 0.081830 2.438583 0.045665
v 0.353005 0.809407 -0.279571
v 0.294458 0.809407 -0.279571
v 0.235911 0.809407 -0.279571
v 0.177364 0.809407 -0.279571
v 0.118817 0.809407 -0.279571
v 0.060270 0.809407 -0.279571
v 0.353005 0.809407 0.309055
v 0.294458 0.809407 0.309055
v 0.235911 0.809407 0.309055
v 0.177364 0.809407 0.309055
v 0.118817 0.809407 0.309055
v 0.060270 0.809407 0.309055
v 0.491471 2.438583 -0.055713
v 0.409543 2.438583 -0.055713
v 0.327615 2.438583 -0.055713
v 0.245686 2.438583 -0.055713
v 0.163758 2.438583 -0.055713
v 0.081830 2.438583 -0.055713
v 0.387026 2.107735 0.190455
v 0.322558 2.107735 0.190455
v 0.258090 2.107735 0.190455
v 0.193623 2.107735 0.190455
v 0.129155 2.107735 0.190455
v 0.064686 2.107735 0.190455
v 0.387026 2.107735 -0.191272
v 0.322558 2.107735 -0.191272
v 0.258090 2.107735 -0.191272
v 0.193623 2.107735 -0.191272
v 0.129155 2.107735 -0.191272
v 0.064686 2.107735 -0.191272
v 0.545881 2.559711 -0.010450
v 0.454904 2.677701 -0.010327
v 0.363927 2.557224 -0.010205
v 0.272950 2.675214 -0.010083
v 0.181973 2.554738 -0.009960
v 0.090996 2.672728 -0.009838
v 0.547712 2.556143 -0.005420
v 0.456430 2.674728 -0.005458
v 0.365148 2.554846 -0.005496
v 0.273866 2.673430 -0.005534
v 0.182584 2.553549 -0.005572
v 0.091301 2.672133 -0.005610
v 0.547712 2.556143 -0.015329
v 0.456430 2.674728 -0.015256
v 0.365148 2.554846 -0.015183
v 0.273866 2.673430 -0.015110
v 0.182584 2.553549 -0.015038
v 0.091301 2.672133 -0.014965
v -0.070281 2.249148 -0.094622
v -0.140515 2.249148 -0.094622
v -0.210749 2.249148 -0.094622
v -0.280982 2.249148 -0.094622
v -0.351216 2.249148 -0.094622
v -0.421450 2.249148 -0.094622
v -0.421450 2.249148 0.094443
v -0.351216 2.249148 0.094443
v -0.280982 2.249148 0.094443
v -0.210749 2.249148 0.094443
v -0.140515 2.249148 0.094443
v -0.070281 2.249148 0.094443
v -0.348332 0.000000 -0.268595
v -0.289785 0.000000 -0.268595
v -0.231238 0.000000 -0.268595
v -0.172691 0.000000 -0.268595
v -0.114144 0.000000 -0.268595
v -0.055597 0.000000 -0.268595
v -0.055597 0.000000 0.329495
v -0.114144 0.000000 0.329495
v -0.172691 0.000000 0.329495
v -0.231238 0.000000 0.329495
v -0.289785 0.000000 0.329495
v -0.348332 0.000000 0.329495
v -0.091596 2.671485 -0.000174
v -0.183211 2.552251 -0.000174
v -0.274826 2.671485 -0.000174
v -0.366441 2.552251 -0.000174
v -0.458057 2.671485 -0.000174
v -0.549672 2.552251 -0.000174
v -0.352226 1.973228 0.285376
v -0.293432 1.973228 0.285376
v -0.234639 1.973228 0.285376
v -0.175845 1.973228 0.285376
v -0.117051 1.973228 0.285376
v -0.058258 1.973228 0.285376
v -0.058258 1.973228 -0.285954
v -0.117051 1.973228 -0.285954
v -0.175845 1.973228 -0.285954
v -0.234639 1.973228 -0.285954
v -0.293432 1.973228 -0.285954
v -0.352226 1.973228 -0.285954
v -0.091596 2.671485 -0.020215
v -0.183211 2.552251 -0.020215
v -0.274826 2.671485 -0.020215
v -0.366441 2.552251 -0.020215
v -0.458057 2.671485 -0.020215
v -0.549672 2.552251 -0.020215
v -0.491590 2.438583 0.045665
v -0.409662 2.438583 0.045665
v -0.327733 2.438583 0.045665
v -0.245805 2.438583 0.045665
v -0.163877 2.438583 0.045665
v -0.081949 2.438583 0.045665
v -0.349559 0.809407 -0.279571
v -0.291012 0.809407 -0.279571
v -0.232465 0.809407 -0.279571
v -0.173918 0.809407 -0.279571
v -0.115371 0.809407 -0.279571
v -0.056824 0.809407 -0.279571
v -0.349559 0.809407 0.309055
v -0.291012 0.809407 0.309055
v -0.232465 0.809407 0.309055
v -0.173918 0.809407 0.309055
v -0.115371 0.809407 0.309055
v -0.056824 0.809407 0.309055
v -0.491590 2.438583 -0.055713
v -0.409661 2.438583 -0.055713
v -0.327733 2.438583 -0.055713
v -0.245805 2.438583 -0.055713
v -0.163877 2.438583 -0.055713
v -0.081949 2.438583 -0.055713
v -0.386589 2.107735 0.190455
v -0.322121 2.107735 0.190455
v -0.257653 2.107735 0.190455
v -0.193185 2.107735 0.190455
v -0.128717 2.107735 0.190455
v -0.064249 2.107735 0.190455
v -0.386589 2.107735 -0.191272
v -0.322121 2.107735 -0.191272
v -0.257653 2.107735 -0.191272
v -0.193185 2.107735 -0.191272
v -0.128717 2.107735 -0.191272
v -0.064249 2.107735 -0.191272
v -0.549672 2.552251 -0.010404
v -0.458057 2.671484 -0.010289
v -0.366441 2.552251 -0.010175
v -0.274826 2.671484 -0.010060
v -0.183211 2.552251 -0.009945
v -0.091596 2.671484 -0.009830
v -0.091596 2.671485 -0.005606
v -0.183211 2.552251 -0.005564
v -0.274826 2.671485 -0.005522
v -0.366441 2.552251 -0.005480
v -0.458057 2.671485 -0.005438
v -0.549672 2.552251 -0.005396
v -0.091596 2.671485 -0.014961
v -0.183211 2.552251 -0.015030
v -0.274826 2.671485 -0.015099
v -0.366441 2.552251 -0.015167
v -0.458057 2.671485 -0.015236
v -0.549672 2.552251 -0.015305
v -0.491683 -2.249148 -0.094622
v -0.491683 -2.249148 0.094443
v 0.491588 -2.249148 -0.094622
v 0.491588 -2.249148 0.094443
v -0.641287 -2.671484 -0.020215
v 0.641168 -2.671484 -0.020215
v -0.411020 -1.973227 -0.285954
v -0.411020 -1.973227 0.285376
v 0.412092 -1.973227 -0.285954
v 0.412092 -1.973227 0.285376
v 0.490134 -2.249315 -0.001122
v 0.376394 -1.790838 0.000049
v -0.490700 -2.249148 -0.001121
v -0.389862 -1.790838 0.000049
v 0.641168 -2.671484 -0.000175
v -0.641287 -2.671484 -0.000175
v 0.636858 -2.680187 -0.010572
v -0.641287 -2.671484 -0.010519
v -0.408106 -0.809406 -0.279571
v -0.451057 -2.107734 0.190455
v -0.491170 -2.249147 -0.047894
v -0.000048 -2.249147 -0.094622
v -0.000048 -2.249147 0.094443
v 0.490829 -2.249235 -0.047894
v 0.451494 -2.107734 -0.191273
v 0.411552 -0.809406 0.309055
v -0.000059 -2.552251 -0.000175
v -0.573518 -2.438582 0.045665
v -0.641287 -2.671484 -0.015374
v 0.573399 -2.438582 0.045665
v -0.451057 -2.107734 -0.191273
v -0.408106 -0.809406 0.309055
v 0.411552 -0.809406 -0.279571
v 0.451494 -2.107734 0.190455
v 0.000536 -1.973227 0.285376
v 0.000536 -1.973227 -0.285954
v 0.398203 -1.808209 -0.130033
v -0.404505 -1.808209 -0.130033
v 0.490829 -2.249235 0.046638
v 0.398203 -1.808209 0.133441
v 0.422459 -2.081679 -0.000817
v 0.370559 -0.783350 0.002183
v -0.491170 -2.249148 0.046639
v -0.404505 -1.808209 0.133441
v -0.383468 -0.783350 0.002183
v -0.430922 -2.081679 -0.000817
v -0.000059 -2.552251 -0.020215
v 0.573399 -2.438582 -0.055714
v -0.573518 -2.438582 -0.055714
v 0.638995 -2.676025 -0.015402
v 0.638995 -2.676025 -0.005382
v 0.571419 -2.442591 -0.005733
v -0.641287 -2.671484 -0.005354
v -0.573518 -2.438582 -0.005709
v -0.441078 -2.086021 0.093716
v -0.000059 -2.438582 0.045665
v 0.390715 -0.787693 0.154252
v 0.001723 -0.809406 -0.279571
v 0.001723 -0.809406 0.309055
v -0.000059 -2.438582 -0.055714
v 0.000219 -2.107734 0.190455
v 0.000219 -2.107734 -0.191273
v 0.436896 -2.086021 0.093716
v -0.395777 -0.787693 0.154252
v 0.436896 -2.086021 -0.094537
v 0.390715 -0.787693 -0.137450
v -0.395777 -0.787693 -0.137450
v -0.441078 -2.086021 -0.094537
v 0.572403 -2.440674 -0.030739
v -0.573518 -2.438582 0.019963
v 0.572403 -2.440674 0.019950
v -0.573518 -2.438582 -0.030726
v -0.000059 -2.552251 -0.009716
v -0.000059 -2.552251 -0.005649
v -0.000059 -2.552251 -0.014892
v 0.421354 -2.249148 -0.094622
v 0.351120 -2.249148 -0.094622
v 0.280887 -2.249148 -0.094622
v 0.210653 -2.249148 -0.094622
v 0.140419 -2.249148 -0.094622
v 0.070186 -2.249147 -0.094622
v 0.070186 -2.249147 0.094443
v 0.140419 -2.249147 0.094443
v 0.210653 -2.249147 0.094443
v 0.280887 -2.249147 0.094443
v 0.351120 -2.249147 0.094443
v 0.421354 -2.249147 0.094443
v 0.549553 -2.552251 -0.000175
v 0.457938 -2.671484 -0.000175
v 0.366323 -2.552251 -0.000175
v 0.274707 -2.671484 -0.000175
v 0.183092 -2.552251 -0.000175
v 0.091477 -2.671484 -0.000175
v 0.059330 -1.973227 0.285376
v 0.118124 -1.973227 0.285376
v 0.176917 -1.973227 0.285376
v 0.235711 -1.973227 0.285376
v 0.294505 -1.973227 0.285376
v 0.353298 -1.973227 0.285376
v 0.353298 -1.973227 -0.285954
v 0.294505 -1.973227 -0.285954
v 0.235711 -1.973227 -0.285954
v 0.176917 -1.973227 -0.285954
v 0.118124 -1.973227 -0.285954
v 0.059330 -1.973227 -0.285954
v 0.549553 -2.552251 -0.020215
v 0.457938 -2.671484 -0.020215
v 0.366323 -2.552251 -0.020215
v 0.274707 -2.671484 -0.020215
v 0.183092 -2.552251 -0.020215
v 0.091477 -2.671484 -0.020215
v 0.491471 -2.438582 0.045665
v 0.409543 -2.438582 0.045665
v 0.327615 -2.438582 0.045665
v 0.245686 -2.438582 0.045665
v 0.163758 -2.438582 0.045665
v 0.081830 -2.438582 0.045665
v 0.353005 -0.809406 -0.279571
v 0.294458 -0.809406 -0.279571
v 0.235911 -0.809406 -0.279571
v 0.177364 -0.809406 -0.279571
v 0.118817 -0.809406 -0.279571
v 0.060270 -0.809406 -0.279571
v 0.353005 -0.809406 0.309055
v 0.294458 -0.809406 0.309055
v 0.235911 -0.809406 0.309055
v 0.177364 -0.809406 0.309055
v 0.118817 -0.809406 0.309055
v 0.060270 -0.809406 0.309055
v 0.491471 -2.438582 -0.055714
v 0.409543 -2.438582 -0.055714
v 0.327615 -2.438582 -0.055714
v 0.245686 -2.438582 -0.055714
v 0.163758 -2.438582 -0.055714
v 0.081830 -2.438582 -0.055714
v 0.387026 -2.107734 0.190455
v 0.322558 -2.107734 0.190455
v 0.258090 -2.107734 0.190455
v 0.193623 -2.107734 0.190455
v 0.129155 -2.107734 0.190455
v 0.064686 -2.107734 0.190455
v 0.387026 -2.107734 -0.191273
v 0.322558 -2.107734 -0.191273
v 0.258090 -2.107734 -0.191273
v 0.193623 -2.107734 -0.191273
v 0.129155 -2.107734 -0.191273
v 0.064686 -2.107734 -0.191273
v 0.545881 -2.559710 -0.010450
v 0.454904 -2.677701 -0.010328
v 0.363927 -2.557224 -0.010205
v 0.272950 -2.675214 -0.010083
v 0.181973 -2.554737 -0.009961
v 0.090996 -2.672727 -0.009838
v 0.547712 -2.556143 -0.005420
v 0.456430 -2.674728 -0.005458
v 0.365148 -2.554845 -0.005496
v 0.273866 -2.673430 -0.005534
v 0.182584 -2.553548 -0.005572
v 0.091301 -2.672133 -0.005611
v 0.547712 -2.556143 -0.015329
v 0.456430 -2.674728 -0.015256
v 0.365148 -2.554845 -0.015183
v 0.273866 -2.673430 -0.015111
v 0.182584 -2.553548 -0.015038
v 0.091301 -2.672133 -0.014965
v -0.070281 -2.249147 -0.094622
v -0.140515 -2.249147 -0.094622
v -0.210749 -2.249147 -0.094622
v -0.280982 -2.249147 -0.094622
v -0.351216 -2.249147 -0.094622
v -0.421450 -2.249147 -0.094622
v -0.421450 -2.249148 0.094443
v -0.351216 -2.249148 0.094443
v -0.280982 -2.249148 0.094443
v -0.210749 -2.249148 0.094443
v -0.140515 -2.249148 0.094443
v -0.070281 -2.249147 0.094443
v -0.091596 -2.671484 -0.000175
v -0.183211 -2.552251 -0.000175
v -0.274826 -2.671484 -0.000175
v -0.366441 -2.552251 -0.000175
v -0.458057 -2.671484 -0.000175
v -0.549672 -2.552251 -0.000175
v -0.352226 -1.973227 0.285376
v -0.293432 -1.973227 0.285376
v -0.234639 -1.973227 0.285376
v -0.175845 -1.973227 0.285376
v -0.117051 -1.973227 0.285376
v -0.058258 -1.973227 0.285376
v -0.058258 -1.973227 -0.285954
v -0.117051 -1.973227 -0.285954
v -0.175845 -1.973227 -0.285954
v -0.234639 -1.973227 -0.285954
v -0.293432 -1.973227 -0.285954
v -0.352226 -1.973227 -0.285954
v -0.091596 -2.671484 -0.020215
v -0.183211 -2.552251 -0.020215
v -0.274826 -2.671484 -0.020215
v -0.366441 -2.552251 -0.020215
v -0.458057 -2.671484 -0.020215
v -0.549672 -2.552251 -0.020215
v -0.491590 -2.438582 0.045665
v -0.409662 -2.438582 0.045665
v -0.327733 -2.438582 0.045665
v -0.245805 -2.438582 0.045665
v -0.163877 -2.438582 0.045665
v -0.081949 -2.438582 0.045665
v -0.349559 -0.809406 -0.279571
v -0.291012 -0.809406 -0.279571
v -0.232465 -0.809406 -0.279571
v -0.173918 -0.809406 -0.279571
v -0.115371 -0.809406 -0.279571
v -0.056824 -0.809406 -0.279571
v -0.349559 -0.809406 0.309055
v -0.291012 -0.809406 0.309055
v -0.232465 -0.809406 0.309055
v -0.173918 -0.809406 0.309055
v -0.115371 -0.809406 0.309055
v -0.056824 -0.809406 0.309055
v -0.491590 -2.438582 -0.055714
v -0.409661 -2.438582 -0.055714
v -0.327733 -2.438582 -0.055714
v -0.245805 -2.438582 -0.055714
v -0.163877 -2.438582 -0.055714
v -0.081949 -2.438582 -0.055714
v -0.386589 -2.107734 0.190455
v -0.322121 -2.107734 0.190455
v -0.257653 -2.107734 0.190455
v -0.193185 -2.107734 0.190455
v -0.128717 -2.107734 0.190455
v -0.064249 -2.107734 0.190455
v -0.386589 -2.107734 -0.191273
v -0.322121 -2.107734 -0.191273
v -0.257653 -2.107734 -0.191273
v -0.193185 -2.107734 -0.191273
v -0.128717 -2.107734 -0.191273
v -0.064249 -2.107734 -0.191273
v -0.549672 -2.552250 -0.010404
v -0.458057 -2.671484 -0.010290
v -0.366441 -2.552250 -0.010175
v -0.274826 -2.671484 -0.010060
v -0.183211 -2.552250 -0.009945
v -0.091596 -2.671484 -0.009831
v -0.091596 -2.671484 -0.005607
v -0.183211 -2.552251 -0.005565
v -0.274826 -2.671484 -0.005522
v -0.366441 -2.552251 -0.005480
v -0.458057 -2.671484 -0.005438
v -0.549672 -2.552251 -0.005396
v -0.091596 -2.671484 -0.014961
v -0.183211 -2.552251 -0.015030
v -0.274826 -2.671484 -0.015099
v -0.366441 -2.552251 -0.015168
v -0.458057 -2.671484 -0.015236
v -0.549672 -2.552251 -0.015305
vn -0.9977 -0.0677 0.0020
vn -0.9967 -0.0735 -0.0338
vn -0.9764 -0.2101 -0.0498
vn -0.9772 -0.2125 0.0016
vn -0.4358 0.0861 0.8959
vn -0.9106 0.0857 0.4043
vn -0.6863 0.0290 0.7267
vn -0.9340 -0.3557 -0.0325
vn -0.9334 -0.3587 0.0003
vn -0.0000 0.3531 0.9356
vn -0.0000 0.2547 0.9670
vn 0.0048 0.2505 0.9681
vn 0.6790 0.0258 0.7337
vn 0.5297 0.0149 0.8480
vn 0.0245 0.2470 0.9687
vn 0.7592 0.0605 0.6481
vn -0.0594 0.2788 0.9585
vn -0.0000 0.2604 0.9655
vn -0.0087 0.2508 0.9680
vn 0.9973 -0.0727 0.0033
vn 0.9936 -0.0782 -0.0816
vn 0.9935 0.0022 -0.1134
vn 1.0000 0.0050 0.0057
vn 0.4425 0.0868 0.8925
vn 0.4263 0.0217 0.9043
vn 0.3581 -0.0000 0.9337
vn 0.9947 -0.0000 -0.1028
vn 1.0000 -0.0000 0.0038
vn -0.0000 0.0733 -0.9973
vn -0.0000 -0.0095 -1.0000
vn 0.3790 0.0671 -0.9230
vn 0.4022 -0.0085 -0.9155
vn 0.4517 -0.0000 -0.8922
vn -0.0000 -0.0000 -1.0000
vn -0.0000 0.0976 0.9952
vn -0.0000 0.0228 0.9997
vn -0.4187 0.0206 0.9079
vn -0.3495 -0.0000 0.9369
vn -0.0000 -0.0000 1.0000
vn -0.0000 0.3070 -0.9517
vn -0.0000 0.2028 -0.9792
vn -0.0048 0.1994 -0.9799
vn -0.6221 0.0208 -0.7827
vn -0.4451 0.0077 -0.8954
vn -0.0231 0.1952 -0.9805
vn -0.8110 0.0782 -0.5798
vn 0.0582 0.2231 -0.9731
vn -0.0000 0.2044 -0.9789
vn 0.0083 0.1966 -0.9804
vn -0.0000 0.5691 0.8223
vn -0.0000 0.5699 -0.8217
vn 0.6134 0.0177 -0.7895
vn 0.9181 0.0812 -0.3879
vn 0.9278 -0.3731 -0.0004
vn 0.9265 -0.3716 -0.0588
vn 0.9697 -0.2278 -0.0878
vn 0.9727 -0.2322 0.0025
vn 0.9178 0.0812 0.3886
vn -1.0000 -0.0000 0.0020
vn -0.9986 -0.0000 -0.0534
vn -0.9980 0.0003 -0.0631
vn -1.0000 0.0025 0.0032
vn 0.9268 -0.3707 0.0596
vn 0.9698 -0.2275 0.0877
vn 0.9933 -0.0770 0.0860
vn 0.9922 0.0038 0.1246
vn 0.9932 -0.0000 0.1164
vn -0.4385 -0.0000 -0.8987
vn -0.9982 -0.0000 0.0607
vn -0.9976 0.0010 0.0696
vn -0.3948 -0.0094 -0.9187
vn -0.9967 -0.0729 0.0366
vn -0.3739 0.0667 -0.9251
vn -0.9764 -0.2101 0.0494
vn -0.9109 0.0855 -0.4038
vn -0.9341 -0.3556 0.0329
vn 0.4572 0.0074 -0.8893
vn 0.9376 -0.3316 0.1050
vn 0.7029 0.0559 -0.7091
vn 0.8708 0.0816 -0.4848
vn 0.9931 0.1173 0.0049
vn 0.9450 -0.3271 -0.0046
vn -0.8545 0.0814 0.5131
vn -0.9953 0.0968 -0.0000
vn -0.9431 -0.3325 -0.0026
vn -0.5177 0.0152 0.8554
vn -0.9430 -0.3327 0.0002
vn 0.9362 -0.3364 -0.1019
vn 0.8818 0.0820 0.4645
vn -0.9431 -0.3324 0.0027
vn -0.0000 1.0000 -0.0000
vn -0.0921 0.7649 0.6375
vn -0.0040 0.7943 0.6075
vn 0.1179 0.9929 -0.0139
vn -0.0021 0.7768 -0.6298
vn -0.0953 0.7397 -0.6662
vn 0.0005 1.0000 -0.0000
vn -0.0070 1.0000 0.0060
vn -0.0046 0.9990 -0.0449
vn -0.0046 0.9987 0.0501
vn -0.0022 0.9991 -0.0415
vn -0.0018 0.9964 -0.0843
vn 0.0081 0.9957 -0.0918
vn -0.0096 0.9614 -0.2749
vn -0.0352 0.9575 -0.2864
vn -0.0030 0.9508 -0.3099
vn 0.0505 0.9479 -0.3144
vn -0.0062 0.8789 -0.4770
vn -0.0707 0.8611 -0.5035
vn -0.0034 0.8631 -0.5049
vn 0.0871 0.8607 -0.5016
vn 0.0007 0.9958 0.0911
vn -0.0318 0.9995 0.0086
vn -0.0130 0.9579 0.2869
vn 0.0353 0.9992 0.0182
vn 0.0017 0.9480 0.3183
vn -0.0752 0.9970 0.0195
vn -0.0098 0.8801 0.4747
vn 0.0778 0.9969 0.0102
vn 0.0002 0.8681 0.4965
vn -0.1147 0.9934 0.0072
vn -0.0022 0.9992 0.0402
vn 0.0077 0.9960 0.0887
vn -0.0340 0.9609 0.2748
vn 0.0482 0.9522 0.3015
vn -0.0680 0.8741 0.4811
vn 0.0829 0.8734 0.4798
vn 0.0231 0.1952 -0.9805
vn -0.0582 0.2231 -0.9731
vn -0.0229 0.2051 -0.9785
vn 0.0371 0.1871 -0.9816
vn 0.0168 0.1991 -0.9798
vn -0.0396 0.2129 -0.9763
vn -0.0141 0.2013 -0.9794
vn 0.0241 0.1932 -0.9809
vn 0.0089 0.2018 -0.9794
vn -0.0201 0.2066 -0.9782
vn -0.0048 0.2505 0.9681
vn 0.0087 0.2508 0.9680
vn 0.0090 0.2538 0.9672
vn -0.0201 0.2625 0.9647
vn -0.0143 0.2525 0.9675
vn 0.0254 0.2472 0.9686
vn 0.0174 0.2511 0.9678
vn -0.0399 0.2687 0.9624
vn -0.0235 0.2562 0.9663
vn 0.0399 0.2408 0.9698
vn 0.0048 0.1994 -0.9799
vn -0.0083 0.1966 -0.9804
vn -0.0089 0.2018 -0.9794
vn 0.0201 0.2066 -0.9782
vn 0.0141 0.2013 -0.9794
vn -0.0241 0.1932 -0.9809
vn -0.0168 0.1991 -0.9798
vn 0.0396 0.2129 -0.9763
vn 0.0229 0.2051 -0.9785
vn -0.0371 0.1871 -0.9816
vn -0.0245 0.2470 0.9687
vn 0.0594 0.2788 0.9585
vn 0.0235 0.2562 0.9663
vn -0.0399 0.2408 0.9698
vn -0.0174 0.2511 0.9678
vn 0.0399 0.2687 0.9624
vn 0.0143 0.2525 0.9675
vn -0.0254 0.2472 0.9686
vn -0.0090 0.2538 0.9672
vn 0.0201 0.2625 0.9647
vn -0.9977 0.0677 0.0020
vn -0.9772 0.2125 0.0016
vn -0.9764 0.2101 -0.0498
vn -0.9967 0.0735 -0.0338
vn -0.9106 -0.0857 0.4043
vn -0.4358 -0.0861 0.8959
vn -0.9340 0.3557 -0.0325
vn -0.6863 -0.0290 0.7267
vn -0.9334 0.3587 0.0003
vn -0.0000 -0.3531 0.9356
vn 0.0048 -0.2505 0.9681
vn -0.0000 -0.2547 0.9670
vn 0.0245 -0.2470 0.9687
vn 0.5297 -0.0149 0.8480
vn 0.6790 -0.0258 0.7337
vn -0.0594 -0.2788 0.9585
vn 0.7592 -0.0605 0.6481
vn -0.0087 -0.2508 0.9680
vn -0.0000 -0.2604 0.9655
vn 0.9973 0.0727 0.0033
vn 1.0000 -0.0050 0.0057
vn 0.9935 -0.0022 -0.1134
vn 0.9936 0.0782 -0.0816
vn 0.4263 -0.0217 0.9043
vn 0.4425 -0.0868 0.8925
vn -0.0000 -0.0733 -0.9973
vn -0.0000 0.0095 -1.0000
vn 0.4022 0.0085 -0.9155
vn 0.3790 -0.0671 -0.9230
vn -0.0000 -0.0976 0.9952
vn -0.0000 -0.0228 0.9997
vn -0.4187 -0.0206 0.9079
vn -0.0000 -0.3070 -0.9517
vn -0.0048 -0.1994 -0.9799
vn -0.0000 -0.2028 -0.9792
vn -0.0231 -0.1952 -0.9805
vn -0.4451 -0.0077 -0.8954
vn -0.6221 -0.0208 -0.7827
vn 0.0582 -0.2231 -0.9731
vn -0.8110 -0.0782 -0.5798
vn 0.0083 -0.1966 -0.9804
vn -0.0000 -0.2044 -0.9789
vn -0.0000 -0.5691 0.8223
vn -0.0000 -0.5699 -0.8217
vn 0.9181 -0.0812 -0.3879
vn 0.6134 -0.0177 -0.7895
vn 0.9278 0.3731 -0.0004
vn 0.9727 0.2322 0.0025
vn 0.9697 0.2278 -0.0878
vn 0.9265 0.3716 -0.0588
vn 0.9178 -0.0812 0.3886
vn -1.0000 -0.0025 0.0032
vn -0.9980 -0.0003 -0.0631
vn 0.9698 0.2275 0.0877
vn 0.9268 0.3707 0.0596
vn 0.9933 0.0770 0.0860
vn 0.9922 -0.0038 0.1246
vn -0.3948 0.0094 -0.9187
vn -0.9976 -0.0010 0.0696
vn -0.9967 0.0729 0.0366
vn -0.3739 -0.0667 -0.9251
vn -0.9109 -0.0855 -0.4038
vn -0.9764 0.2101 0.0494
vn -0.9341 0.3556 0.0329
vn 0.9376 0.3316 0.1050
vn 0.4572 -0.0074 -0.8893
vn 0.8708 -0.0816 -0.4848
vn 0.7029 -0.0559 -0.7091
vn 0.9450 0.3271 -0.0046
vn 0.9931 -0.1173 0.0049
vn -0.8545 -0.0814 0.5131
vn -0.5177 -0.0152 0.8554
vn -0.9431 0.3325 -0.0026
vn -0.9953 -0.0968 -0.0000
vn -0.9430 0.3327 0.0002
vn 0.9362 0.3364 -0.1019
vn 0.8818 -0.0820 0.4645
vn -0.9431 0.3324 0.0027
vn -0.0000 -1.0000 -0.0000
vn -0.0921 -0.7649 0.6375
vn -0.0040 -0.7943 0.6075
vn 0.1179 -0.9929 -0.0139
vn -0.0021 -0.7768 -0.6298
vn -0.0953 -0.7397 -0.6662
vn 0.0005 -1.0000 -0.0000
vn -0.0046 -0.9990 -0.0449
vn -0.0070 -1.0000 0.0060
vn -0.0046 -0.9987 0.0501
vn -0.0022 -0.9991 -0.0415
vn 0.0081 -0.9957 -0.0919
vn -0.0018 -0.9964 -0.0844
vn -0.0352 -0.9575 -0.2864
vn -0.0096 -0.9614 -0.2749
vn 0.0505 -0.9479 -0.3145
vn -0.0030 -0.9508 -0.3099
vn -0.0707 -0.8611 -0.5035
vn -0.0062 -0.8789 -0.4770
vn 0.0871 -0.8607 -0.5016
vn -0.0034 -0.8632 -0.5049
vn -0.0318 -0.9995 0.0086
vn 0.0007 -0.9958 0.0912
vn 0.0353 -0.9992 0.0182
vn -0.0130 -0.9579 0.2869
vn -0.0752 -0.9970 0.0195
vn 0.0017 -0.9480 0.3183
vn 0.0778 -0.9969 0.0102
vn -0.0098 -0.8801 0.4747
vn -0.1147 -0.9934 0.0072
vn 0.0002 -0.8681 0.4965
vn -0.0022 -0.9992 0.0402
vn 0.0077 -0.9960 0.0887
vn -0.0340 -0.9609 0.2749
vn 0.0482 -0.9522 0.3016
vn -0.0680 -0.8740 0.4811
vn 0.0829 -0.8734 0.4798
vn -0.0582 -0.2231 -0.9731
vn 0.0231 -0.1952 -0.9805
vn 0.0371 -0.1871 -0.9816
vn -0.0229 -0.2051 -0.9785
vn -0.0396 -0.2129 -0.9763
vn 0.0168 -0.1991 -0.9798
vn 0.0241 -0.1932 -0.9809
vn -0.0141 -0.2013 -0.9794
vn -0.0201 -0.2066 -0.9782
vn 0.0089 -0.2018 -0.9794
vn 0.0087 -0.2508 0.9680
vn -0.0048 -0.2505 0.9681
vn -0.0201 -0.2625 0.9647
vn 0.0090 -0.2538 0.9672
vn 0.0254 -0.2472 0.9686
vn -0.0143 -0.2525 0.9675
vn -0.0399 -0.2687 0.9624
vn 0.0174 -0.2511 0.9678
vn 0.0399 -0.2408 0.9698
vn -0.0235 -0.2562 0.9663
vn -0.0083 -0.1966 -0.9804
vn 0.0048 -0.1994 -0.9799
vn 0.0201 -0.2066 -0.9782
vn -0.0089 -0.2018 -0.9794
vn -0.0241 -0.1932 -0.9809
vn 0.0141 -0.2013 -0.9794
vn 0.0396 -0.2129 -0.9763
vn -0.0168 -0.1991 -0.9798
vn -0.0371 -0.1871 -0.9816
vn 0.0229 -0.2051 -0.9785
vn 0.0594 -0.2788 0.9585
vn -0.0245 -0.2470 0.9687
vn -0.0399 -0.2408 0.9698
vn 0.0235 -0.2562 0.9663
vn 0.0399 -0.2687 0.9624
vn -0.0174 -0.2511 0.9678
vn -0.0254 -0.2472 0.9686
vn 0.0143 -0.2525 0.9675
vn 0.0201 -0.2625 0.9647
vn -0.0090 -0.2538 0.9672
vt 0.421396 0.855076
vt 0.421396 0.830011
vt 0.468139 0.830011
vt 0.468139 0.855076
vt 0.421396 0.803350
vt 0.468139 0.803350
vt 0.517143 0.803350
vt 0.517143 0.830011
vt 0.517143 0.855076
vt 0.932134 0.528428
vt 0.932134 0.548718
vt 0.889039 0.548718
vt 0.889039 0.528428
vt 0.932134 0.670502
vt 0.932134 0.690801
vt 0.889039 0.690801
vt 0.889039 0.670502
vt 0.849011 0.690801
vt 0.849011 0.670502
vt 0.849011 0.548718
vt 0.849011 0.528428
vt 0.837644 0.475484
vt 0.837644 0.512130
vt 0.600228 0.512130
vt 0.600228 0.475484
vt 0.837644 0.550342
vt 0.600228 0.550342
vt 0.421615 0.550342
vt 0.421615 0.512130
vt 0.421615 0.475484
vt 0.928303 0.288626
vt 0.928303 0.302347
vt 0.656958 0.302347
vt 0.656958 0.288626
vt 0.928303 0.384671
vt 0.928303 0.398392
vt 0.656958 0.398392
vt 0.656958 0.384671
vt 0.466412 0.398392
vt 0.466412 0.384671
vt 0.466412 0.302347
vt 0.466412 0.288626
vt 0.004320 0.114319
vt 0.004320 0.100598
vt 0.275311 0.100598
vt 0.275311 0.114319
vt 0.004320 0.018275
vt 0.004320 0.004554
vt 0.275311 0.004554
vt 0.275311 0.018275
vt 0.466311 0.004554
vt 0.466311 0.018275
vt 0.466311 0.100598
vt 0.466311 0.114319
vt 0.086829 0.832368
vt 0.086829 0.852493
vt 0.043718 0.852493
vt 0.043718 0.832368
vt 0.086829 0.973291
vt 0.086829 0.993425
vt 0.043718 0.993425
vt 0.043718 0.973291
vt 0.004681 0.993425
vt 0.004681 0.973291
vt 0.004681 0.852493
vt 0.004681 0.832368
vt 0.850413 0.803989
vt 0.850413 0.819050
vt 0.810781 0.819050
vt 0.810781 0.803989
vt 0.850413 0.909412
vt 0.850413 0.924473
vt 0.810781 0.924473
vt 0.810781 0.909412
vt 0.771625 0.924473
vt 0.771625 0.909412
vt 0.771625 0.819050
vt 0.771625 0.803989
vt 0.548589 0.714121
vt 0.563652 0.714121
vt 0.563652 0.753951
vt 0.548589 0.753951
vt 0.654030 0.714121
vt 0.669094 0.714121
vt 0.669094 0.753951
vt 0.654030 0.753951
vt 0.669094 0.792952
vt 0.654030 0.792952
vt 0.563652 0.792952
vt 0.548589 0.792952
vt 0.245879 0.898935
vt 0.220754 0.898935
vt 0.220754 0.849446
vt 0.245879 0.849446
vt 0.194036 0.898935
vt 0.194036 0.849446
vt 0.194036 0.802732
vt 0.220754 0.802732
vt 0.245879 0.802732
vt 0.419989 0.629516
vt 0.419989 0.665666
vt 0.241530 0.665666
vt 0.241530 0.629516
vt 0.419989 0.703570
vt 0.241530 0.703570
vt 0.004031 0.703570
vt 0.004031 0.665666
vt 0.004031 0.629516
vt 0.297517 0.898935
vt 0.270604 0.898935
vt 0.270604 0.849446
vt 0.297517 0.849446
vt 0.270604 0.802732
vt 0.297517 0.802732
vt 0.837644 0.406744
vt 0.837644 0.442037
vt 0.600228 0.442037
vt 0.600228 0.406744
vt 0.421615 0.442037
vt 0.421615 0.406744
vt 0.419989 0.560683
vt 0.419989 0.596174
vt 0.241530 0.596174
vt 0.241530 0.560683
vt 0.004031 0.596174
vt 0.004031 0.560683
vt 0.421396 0.906596
vt 0.421396 0.879740
vt 0.468139 0.879740
vt 0.468139 0.906596
vt 0.517143 0.879740
vt 0.517143 0.906596
vt 0.788587 0.937708
vt 0.835528 0.937708
vt 0.835528 0.944517
vt 0.788587 0.944517
vt 0.878505 0.937708
vt 0.878505 0.944517
vt 0.878505 0.951333
vt 0.835528 0.951333
vt 0.788587 0.951333
vt 0.292855 0.990871
vt 0.292855 0.983887
vt 0.335377 0.983887
vt 0.335377 0.990871
vt 0.292855 0.976911
vt 0.335377 0.976911
vt 0.381792 0.976911
vt 0.381792 0.983887
vt 0.381792 0.990871
vt 0.835528 0.958329
vt 0.788587 0.958329
vt 0.878505 0.958329
vt 0.878505 0.965333
vt 0.835528 0.965333
vt 0.788587 0.965333
vt 0.335377 0.970110
vt 0.381792 0.970110
vt 0.292855 0.970110
vt 0.292855 0.963316
vt 0.335377 0.963316
vt 0.381792 0.963316
vt 0.226042 0.950161
vt 0.226042 0.951481
vt 0.191507 0.951481
vt 0.191507 0.950161
vt 0.639768 0.950161
vt 0.674201 0.950161
vt 0.674201 0.951481
vt 0.639768 0.951481
vt 0.639768 0.952621
vt 0.674201 0.952621
vt 0.674201 0.953862
vt 0.639768 0.953862
vt 0.674201 0.955118
vt 0.639768 0.955118
vt 0.398720 0.952621
vt 0.433228 0.952621
vt 0.433228 0.953862
vt 0.398720 0.953862
vt 0.398720 0.951481
vt 0.433228 0.951481
vt 0.433228 0.955118
vt 0.398720 0.955118
vt 0.467675 0.953862
vt 0.467675 0.955118
vt 0.502084 0.953862
vt 0.502084 0.955118
vt 0.536517 0.953862
vt 0.536517 0.955118
vt 0.570926 0.953862
vt 0.570926 0.955118
vt 0.605359 0.953862
vt 0.605359 0.955118
vt 0.467675 0.951481
vt 0.467675 0.952621
vt 0.502084 0.951481
vt 0.502084 0.952621
vt 0.536517 0.951481
vt 0.536517 0.952621
vt 0.570926 0.951481
vt 0.570926 0.952621
vt 0.605359 0.951481
vt 0.605359 0.952621
vt 0.433228 0.950161
vt 0.467675 0.950161
vt 0.502084 0.950161
vt 0.536517 0.950161
vt 0.570926 0.950161
vt 0.605359 0.950161
vt 0.578715 0.753951
vt 0.578715 0.792952
vt 0.593778 0.753951
vt 0.593778 0.792952
vt 0.608841 0.753951
vt 0.608841 0.792952
vt 0.623904 0.753951
vt 0.623904 0.792952
vt 0.638967 0.753951
vt 0.638967 0.792952
vt 0.578715 0.714121
vt 0.593778 0.714121
vt 0.608841 0.714121
vt 0.623904 0.714121
vt 0.638967 0.714121
vt 0.810781 0.713627
vt 0.810781 0.728687
vt 0.771625 0.728687
vt 0.771625 0.713627
vt 0.810781 0.743748
vt 0.771625 0.743748
vt 0.810781 0.758808
vt 0.771625 0.758808
vt 0.810781 0.773869
vt 0.771625 0.773869
vt 0.810781 0.788929
vt 0.771625 0.788929
vt 0.850413 0.713627
vt 0.850413 0.728687
vt 0.850413 0.743748
vt 0.850413 0.758808
vt 0.850413 0.773869
vt 0.850413 0.788929
vt 0.043718 0.711562
vt 0.043718 0.731696
vt 0.004681 0.731696
vt 0.004681 0.711562
vt 0.043718 0.751831
vt 0.004681 0.751831
vt 0.043718 0.771965
vt 0.004681 0.771965
vt 0.043718 0.792100
vt 0.004681 0.792100
vt 0.043718 0.812234
vt 0.004681 0.812234
vt 0.086829 0.711562
vt 0.086829 0.731696
vt 0.086829 0.751831
vt 0.086829 0.771965
vt 0.086829 0.792100
vt 0.086829 0.812234
vt 0.275311 0.196642
vt 0.275311 0.182921
vt 0.466311 0.182921
vt 0.466311 0.196642
vt 0.275311 0.169201
vt 0.466311 0.169201
vt 0.275311 0.155480
vt 0.466311 0.155480
vt 0.275311 0.141760
vt 0.466311 0.141760
vt 0.275311 0.128039
vt 0.466311 0.128039
vt 0.004320 0.196642
vt 0.004320 0.182921
vt 0.004320 0.169201
vt 0.004320 0.155480
vt 0.004320 0.141760
vt 0.004320 0.128039
vt 0.656958 0.316068
vt 0.466412 0.316068
vt 0.656958 0.329788
vt 0.466412 0.329788
vt 0.656958 0.343509
vt 0.466412 0.343509
vt 0.656958 0.357230
vt 0.466412 0.357230
vt 0.656958 0.370950
vt 0.466412 0.370950
vt 0.928303 0.316068
vt 0.928303 0.329788
vt 0.928303 0.343509
vt 0.928303 0.357230
vt 0.928303 0.370950
vt 0.889039 0.569007
vt 0.849011 0.569007
vt 0.889039 0.589306
vt 0.849011 0.589306
vt 0.889039 0.609605
vt 0.849011 0.609605
vt 0.889039 0.629904
vt 0.849011 0.629904
vt 0.889039 0.650203
vt 0.849011 0.650203
vt 0.932134 0.569007
vt 0.932134 0.589306
vt 0.932134 0.609605
vt 0.932134 0.629904
vt 0.932134 0.650203
vt 0.191507 0.953862
vt 0.226042 0.953862
vt 0.226042 0.955118
vt 0.191507 0.955118
vt 0.260578 0.953862
vt 0.260578 0.955118
vt 0.295114 0.953862
vt 0.295114 0.955118
vt 0.329649 0.953862
vt 0.329649 0.955118
vt 0.364185 0.953862
vt 0.364185 0.955118
vt 0.226042 0.952621
vt 0.191507 0.952621
vt 0.260578 0.951481
vt 0.260578 0.952621
vt 0.295114 0.951481
vt 0.295114 0.952621
vt 0.329649 0.951481
vt 0.329649 0.952621
vt 0.364185 0.951481
vt 0.364185 0.952621
vt 0.398720 0.950161
vt 0.364185 0.950161
vt 0.329649 0.950161
vt 0.295114 0.950161
vt 0.260578 0.950161
vt 0.458211 0.753951
vt 0.473274 0.753951
vt 0.473274 0.792952
vt 0.458211 0.792952
vt 0.488337 0.753951
vt 0.488337 0.792952
vt 0.503400 0.753951
vt 0.503400 0.792952
vt 0.518463 0.753951
vt 0.518463 0.792952
vt 0.533526 0.753951
vt 0.533526 0.792952
vt 0.458211 0.714121
vt 0.473274 0.714121
vt 0.488337 0.714121
vt 0.503400 0.714121
vt 0.518463 0.714121
vt 0.533526 0.714121
vt 0.810781 0.834110
vt 0.771625 0.834110
vt 0.810781 0.849171
vt 0.771625 0.849171
vt 0.810781 0.864231
vt 0.771625 0.864231
vt 0.810781 0.879291
vt 0.771625 0.879291
vt 0.810781 0.894352
vt 0.771625 0.894352
vt 0.850413 0.834110
vt 0.850413 0.849171
vt 0.850413 0.864231
vt 0.850413 0.879291
vt 0.850413 0.894352
vt 0.043718 0.872619
vt 0.004681 0.872619
vt 0.043718 0.892753
vt 0.004681 0.892753
vt 0.043718 0.912887
vt 0.004681 0.912887
vt 0.043718 0.933022
vt 0.004681 0.933022
vt 0.043718 0.953156
vt 0.004681 0.953156
vt 0.086829 0.872619
vt 0.086829 0.892753
vt 0.086829 0.912887
vt 0.086829 0.933022
vt 0.086829 0.953156
vt 0.275311 0.086878
vt 0.466311 0.086878
vt 0.275311 0.073157
vt 0.466311 0.073157
vt 0.275311 0.059437
vt 0.466311 0.059437
vt 0.275311 0.045716
vt 0.466311 0.045716
vt 0.275311 0.031996
vt 0.466311 0.031996
vt 0.004320 0.086878
vt 0.004320 0.073157
vt 0.004320 0.059437
vt 0.004320 0.045716
vt 0.004320 0.031996
vt 0.656958 0.206302
vt 0.656958 0.220023
vt 0.466412 0.220023
vt 0.466412 0.206302
vt 0.656958 0.233743
vt 0.466412 0.233743
vt 0.656958 0.247464
vt 0.466412 0.247464
vt 0.656958 0.261185
vt 0.466412 0.261185
vt 0.656958 0.274906
vt 0.466412 0.274906
vt 0.928303 0.206302
vt 0.928303 0.220023
vt 0.928303 0.233743
vt 0.928303 0.247464
vt 0.928303 0.261185
vt 0.928303 0.274906
vt 0.889039 0.406635
vt 0.889039 0.426934
vt 0.849011 0.426934
vt 0.849011 0.406635
vt 0.889039 0.447233
vt 0.849011 0.447233
vt 0.889039 0.467532
vt 0.849011 0.467532
vt 0.889039 0.487831
vt 0.849011 0.487831
vt 0.889039 0.508130
vt 0.849011 0.508130
vt 0.932134 0.406635
vt 0.932134 0.426934
vt 0.932134 0.447233
vt 0.932134 0.467532
vt 0.932134 0.487831
vt 0.932134 0.508130
vt 0.624402 0.855191
vt 0.577834 0.855191
vt 0.577834 0.830351
vt 0.624402 0.830351
vt 0.577834 0.803587
vt 0.624402 0.803587
vt 0.528435 0.830351
vt 0.528435 0.803587
vt 0.528435 0.855191
vt 0.891143 0.820848
vt 0.934290 0.820848
vt 0.934290 0.841136
vt 0.891143 0.841136
vt 0.891143 0.962912
vt 0.934290 0.962912
vt 0.934290 0.983210
vt 0.891143 0.983210
vt 0.974272 0.962912
vt 0.974272 0.983210
vt 0.974272 0.820848
vt 0.974272 0.841136
vt 0.003931 0.475484
vt 0.242605 0.475484
vt 0.242605 0.512130
vt 0.003931 0.512130
vt 0.242605 0.550342
vt 0.003931 0.550342
vt 0.004520 0.288626
vt 0.275866 0.288626
vt 0.275866 0.302347
vt 0.004520 0.302347
vt 0.004520 0.384671
vt 0.275866 0.384671
vt 0.275867 0.398392
vt 0.004520 0.398392
vt 0.928303 0.114319
vt 0.657312 0.114319
vt 0.657312 0.100598
vt 0.928303 0.100598
vt 0.928303 0.018275
vt 0.657312 0.018275
vt 0.657312 0.004554
vt 0.928303 0.004554
vt 0.097885 0.832386
vt 0.141074 0.832386
vt 0.141074 0.852509
vt 0.097885 0.852509
vt 0.097885 0.973293
vt 0.141074 0.973293
vt 0.141074 0.993425
vt 0.097885 0.993425
vt 0.180042 0.973293
vt 0.180042 0.993425
vt 0.180042 0.832386
vt 0.180042 0.852509
vt 0.679688 0.803989
vt 0.719321 0.803989
vt 0.719321 0.819050
vt 0.679688 0.819050
vt 0.679688 0.909412
vt 0.719321 0.909412
vt 0.719321 0.924473
vt 0.679688 0.924473
vt 0.758476 0.909412
vt 0.758476 0.924473
vt 0.758476 0.803989
vt 0.758476 0.819050
vt 0.356536 0.712844
vt 0.356536 0.752674
vt 0.341473 0.752674
vt 0.341473 0.712844
vt 0.251094 0.712844
vt 0.251094 0.752674
vt 0.236031 0.752674
vt 0.236031 0.712844
vt 0.251094 0.791676
vt 0.236031 0.791676
vt 0.356536 0.791676
vt 0.341473 0.791676
vt 0.359407 0.898935
vt 0.359407 0.849164
vt 0.384323 0.849164
vt 0.384323 0.898935
vt 0.411161 0.849164
vt 0.411161 0.898935
vt 0.384323 0.802570
vt 0.411161 0.802570
vt 0.359407 0.802570
vt 0.598882 0.629516
vt 0.598882 0.665666
vt 0.598882 0.703570
vt 0.837644 0.665666
vt 0.837644 0.703570
vt 0.837644 0.629516
vt 0.307853 0.898935
vt 0.307853 0.849164
vt 0.334951 0.849164
vt 0.334951 0.898935
vt 0.334951 0.802570
vt 0.307853 0.802570
vt 0.003931 0.406744
vt 0.242605 0.406744
vt 0.242605 0.442037
vt 0.003931 0.442037
vt 0.598882 0.560683
vt 0.598882 0.596174
vt 0.837644 0.596174
vt 0.837644 0.560683
vt 0.624402 0.906596
vt 0.577834 0.906596
vt 0.577834 0.879572
vt 0.624402 0.879572
vt 0.528435 0.879572
vt 0.528435 0.906596
vt 0.686431 0.962780
vt 0.686431 0.955972
vt 0.733347 0.955972
vt 0.733347 0.962780
vt 0.776353 0.955972
vt 0.776353 0.962780
vt 0.733347 0.949157
vt 0.776353 0.949157
vt 0.686431 0.949157
vt 0.190700 0.963317
vt 0.233246 0.963317
vt 0.233246 0.970300
vt 0.190700 0.970300
vt 0.233246 0.977275
vt 0.190700 0.977275
vt 0.279640 0.970300
vt 0.279640 0.977275
vt 0.279640 0.963317
vt 0.686431 0.942161
vt 0.733347 0.942161
vt 0.776353 0.942161
vt 0.733347 0.935156
vt 0.776353 0.935156
vt 0.686431 0.935156
vt 0.279640 0.984077
vt 0.233246 0.984077
vt 0.190700 0.984077
vt 0.233246 0.990871
vt 0.190700 0.990871
vt 0.279640 0.990871
vt 0.639665 0.934839
vt 0.674201 0.934839
vt 0.674201 0.936157
vt 0.639665 0.936157
vt 0.225938 0.934839
vt 0.225938 0.936157
vt 0.191504 0.936157
vt 0.191504 0.934839
vt 0.225938 0.937301
vt 0.225938 0.938540
vt 0.191504 0.938540
vt 0.191504 0.937301
vt 0.225938 0.939796
vt 0.191504 0.939796
vt 0.466987 0.937301
vt 0.466987 0.938540
vt 0.432479 0.938540
vt 0.432479 0.937301
vt 0.466987 0.936157
vt 0.432479 0.936157
vt 0.466987 0.939796
vt 0.432479 0.939796
vt 0.398033 0.939796
vt 0.398033 0.938540
vt 0.363624 0.939796
vt 0.363624 0.938540
vt 0.329190 0.939796
vt 0.329190 0.938540
vt 0.294781 0.939796
vt 0.294781 0.938540
vt 0.260347 0.939796
vt 0.260347 0.938540
vt 0.398033 0.937301
vt 0.398033 0.936157
vt 0.363624 0.937301
vt 0.363624 0.936157
vt 0.329190 0.937301
vt 0.329190 0.936157
vt 0.294781 0.937301
vt 0.294781 0.936157
vt 0.260347 0.937301
vt 0.260347 0.936157
vt 0.432479 0.934839
vt 0.398033 0.934839
vt 0.363624 0.934839
vt 0.329190 0.934839
vt 0.294781 0.934839
vt 0.260347 0.934839
vt 0.326410 0.791676
vt 0.326410 0.752674
vt 0.311347 0.791676
vt 0.311347 0.752674
vt 0.296284 0.791676
vt 0.296284 0.752674
vt 0.281220 0.791676
vt 0.281220 0.752674
vt 0.266157 0.791676
vt 0.266157 0.752674
vt 0.326410 0.712844
vt 0.311347 0.712844
vt 0.296284 0.712844
vt 0.281220 0.712844
vt 0.266157 0.712844
vt 0.719321 0.713627
vt 0.758476 0.713627
vt 0.758476 0.728687
vt 0.719321 0.728687
vt 0.758476 0.743748
vt 0.719321 0.743748
vt 0.758476 0.758808
vt 0.719321 0.758808
vt 0.758476 0.773869
vt 0.719321 0.773869
vt 0.758476 0.788929
vt 0.719321 0.788929
vt 0.679688 0.713627
vt 0.679688 0.728687
vt 0.679688 0.743748
vt 0.679688 0.758808
vt 0.679688 0.773869
vt 0.679688 0.788929
vt 0.141074 0.711594
vt 0.180042 0.711594
vt 0.180042 0.731726
vt 0.141074 0.731726
vt 0.180042 0.751858
vt 0.141074 0.751858
vt 0.180042 0.771990
vt 0.141074 0.771990
vt 0.180042 0.792122
vt 0.141074 0.792122
vt 0.180042 0.812254
vt 0.141074 0.812254
vt 0.097885 0.711594
vt 0.097885 0.731726
vt 0.097885 0.751858
vt 0.097885 0.771990
vt 0.097885 0.792122
vt 0.097885 0.812254
vt 0.657312 0.196642
vt 0.657312 0.182921
vt 0.657312 0.169201
vt 0.657312 0.155480
vt 0.657312 0.141760
vt 0.657312 0.128039
vt 0.928303 0.196642
vt 0.928303 0.182921
vt 0.928303 0.169201
vt 0.928303 0.155480
vt 0.928303 0.141760
vt 0.928303 0.128039
vt 0.275866 0.316068
vt 0.275866 0.329788
vt 0.275866 0.343509
vt 0.275866 0.357230
vt 0.275866 0.370950
vt 0.004520 0.316068
vt 0.004520 0.329788
vt 0.004520 0.343509
vt 0.004520 0.357230
vt 0.004520 0.370950
vt 0.974272 0.861424
vt 0.934290 0.861424
vt 0.974272 0.881722
vt 0.934290 0.881722
vt 0.974272 0.902020
vt 0.934290 0.902020
vt 0.974272 0.922317
vt 0.934290 0.922317
vt 0.974272 0.942615
vt 0.934290 0.942615
vt 0.891143 0.861424
vt 0.891143 0.881722
vt 0.891143 0.902020
vt 0.891143 0.922317
vt 0.891143 0.942615
vt 0.674201 0.938540
vt 0.674201 0.939796
vt 0.639665 0.939796
vt 0.639665 0.938540
vt 0.605130 0.939796
vt 0.605130 0.938540
vt 0.570594 0.939796
vt 0.570594 0.938540
vt 0.536058 0.939796
vt 0.536058 0.938540
vt 0.501523 0.939796
vt 0.501523 0.938540
vt 0.674201 0.937301
vt 0.639665 0.937301
vt 0.605130 0.937301
vt 0.605130 0.936157
vt 0.570594 0.937301
vt 0.570594 0.936157
vt 0.536058 0.937301
vt 0.536058 0.936157
vt 0.501523 0.937301
vt 0.501523 0.936157
vt 0.466987 0.934839
vt 0.501523 0.934839
vt 0.536058 0.934839
vt 0.570594 0.934839
vt 0.605130 0.934839
vt 0.446914 0.752674
vt 0.446914 0.791676
vt 0.431851 0.791676
vt 0.431851 0.752674
vt 0.416788 0.791676
vt 0.416788 0.752674
vt 0.401725 0.791676
vt 0.401725 0.752674
vt 0.386662 0.791676
vt 0.386662 0.752674
vt 0.371599 0.791676
vt 0.371599 0.752674
vt 0.446914 0.712844
vt 0.431851 0.712844
vt 0.416788 0.712844
vt 0.401725 0.712844
vt 0.386662 0.712844
vt 0.371599 0.712844
vt 0.758476 0.834110
vt 0.719321 0.834110
vt 0.758476 0.849171
vt 0.719321 0.849171
vt 0.758476 0.864231
vt 0.719321 0.864231
vt 0.758476 0.879291
vt 0.719321 0.879291
vt 0.758476 0.894352
vt 0.719321 0.894352
vt 0.679688 0.834110
vt 0.679688 0.849171
vt 0.679688 0.864231
vt 0.679688 0.879291
vt 0.679688 0.894352
vt 0.180042 0.872632
vt 0.141074 0.872632
vt 0.180042 0.892764
vt 0.141074 0.892764
vt 0.180042 0.912896
vt 0.141074 0.912896
vt 0.180042 0.933029
vt 0.141074 0.933029
vt 0.180042 0.953161
vt 0.141074 0.953161
vt 0.097885 0.872632
vt 0.097885 0.892764
vt 0.097885 0.912896
vt 0.097885 0.933029
vt 0.097885 0.953161
vt 0.657312 0.086878
vt 0.657312 0.073157
vt 0.657312 0.059437
vt 0.657312 0.045716
vt 0.657312 0.031996
vt 0.928303 0.086878
vt 0.928303 0.073157
vt 0.928303 0.059437
vt 0.928303 0.045716
vt 0.928303 0.031996
vt 0.275866 0.206302
vt 0.275866 0.220023
vt 0.275866 0.233743
vt 0.275866 0.247464
vt 0.275866 0.261185
vt 0.275866 0.274906
vt 0.004520 0.206302
vt 0.004520 0.220023
vt 0.004520 0.233743
vt 0.004520 0.247464
vt 0.004520 0.261185
vt 0.004520 0.274906
vt 0.934290 0.699062
vt 0.974272 0.699062
vt 0.974272 0.719360
vt 0.934290 0.719360
vt 0.974272 0.739658
vt 0.934290 0.739658
vt 0.974272 0.759955
vt 0.934290 0.759955
vt 0.974272 0.780253
vt 0.934290 0.780253
vt 0.974272 0.800550
vt 0.934290 0.800550
vt 0.891143 0.699062
vt 0.891143 0.719360
vt 0.891143 0.739658
vt 0.891143 0.759955
vt 0.891143 0.780253
vt 0.891143 0.800550
s 1
usemtl Chocolate_2
f 20/1/1 56/2/2 67/3/3 58/4/4
f 56/2/2 12/5/5 27/6/6 67/3/3
f 67/3/3 27/6/6 4/7/7 55/8/8
f 58/4/4 67/3/3 55/8/8 19/9/9
f 201/10/10 30/11/10 68/12/11 243/13/12
f 99/14/10 8/15/13 40/16/14 136/17/15
f 136/17/15 40/16/14 21/18/16 112/19/17
f 243/13/12 68/12/11 37/20/18 214/21/19
f 17/22/20 51/23/21 69/24/22 53/25/23
f 51/23/21 14/26/24 33/27/25 69/24/22
f 69/24/22 33/27/25 6/28/26 50/29/27
f 53/25/23 69/24/22 50/29/27 16/30/28
f 226/31/29 46/32/29 70/33/30 249/34/30
f 124/35/29 13/36/31 43/37/32 142/38/30
f 142/38/30 43/37/32 5/39/33 105/40/34
f 249/34/30 70/33/30 35/41/34 207/42/34
f 118/43/35 45/44/35 71/45/36 153/46/36
f 220/47/35 12/48/5 42/49/37 250/50/36
f 250/50/36 42/49/37 2/51/38 213/52/39
f 153/46/36 71/45/36 36/53/39 111/54/39
f 93/55/40 29/56/40 72/57/41 159/58/42
f 195/59/40 3/60/43 61/61/44 256/62/45
f 256/62/45 61/61/44 9/63/46 237/64/47
f 159/58/42 72/57/41 59/65/48 135/66/49
f 94/67/10 30/68/10 73/69/50 165/70/50
f 196/71/10 4/72/7 27/73/6 262/74/50
f 262/74/50 27/73/6 12/75/5 220/76/35
f 165/70/50 73/69/50 45/77/35 118/78/35
f 190/79/40 29/80/40 74/81/51 273/82/51
f 88/83/40 7/84/52 32/85/53 166/86/51
f 166/86/51 32/85/53 13/87/31 124/88/29
f 273/82/51 74/81/51 46/89/29 226/90/29
f 15/91/54 49/92/55 75/93/56 52/94/57
f 49/92/55 8/95/13 44/96/58 75/93/56
f 75/93/56 44/96/58 14/97/24 51/98/21
f 52/94/57 75/93/56 51/98/21 17/99/20
f 18/100/59 26/101/60 76/102/61 57/103/62
f 26/101/60 2/104/38 42/105/37 76/102/61
f 76/102/61 42/105/37 12/106/5 56/107/2
f 57/103/62 76/102/61 56/107/2 20/108/1
f 7/109/52 31/110/63 77/111/64 32/112/53
f 31/110/63 15/91/54 52/94/57 77/111/64
f 77/111/64 52/94/57 17/99/20 47/113/65
f 32/112/53 77/111/64 47/113/65 13/114/31
f 13/115/31 47/116/65 78/117/66 43/118/32
f 47/116/65 17/22/20 53/25/23 78/117/66
f 78/117/66 53/25/23 16/30/28 34/119/67
f 43/118/32 78/117/66 34/119/67 5/120/33
f 1/121/68 54/122/69 79/123/70 25/124/71
f 54/122/69 18/100/59 57/103/62 79/123/70
f 79/123/70 57/103/62 20/108/1 48/125/72
f 25/124/71 79/123/70 48/125/72 11/126/73
f 11/127/73 48/128/72 80/129/74 41/130/75
f 48/128/72 20/1/1 58/4/4 80/129/74
f 80/129/74 58/4/4 19/9/9 28/131/76
f 41/130/75 80/129/74 28/131/76 3/132/43
f 7/133/52 60/134/77 81/135/78 31/136/63
f 60/134/77 10/137/79 62/138/80 81/135/78
f 81/135/78 62/138/80 23/139/81 64/140/82
f 31/136/63 81/135/78 64/140/82 15/141/54
f 22/142/83 65/143/84 82/144/85 38/145/86
f 65/143/84 24/146/84 66/147/87 82/144/85
f 82/144/85 66/147/87 19/148/9 55/149/8
f 38/145/86 82/144/85 55/149/8 4/150/7
f 15/141/54 64/140/82 83/151/88 49/152/55
f 64/140/82 23/139/81 63/153/89 83/151/88
f 83/151/88 63/153/89 21/154/16 40/155/14
f 49/152/55 83/151/88 40/155/14 8/156/13
f 19/148/9 66/147/87 84/157/90 28/158/76
f 66/147/87 24/146/84 39/159/84 84/157/90
f 84/157/90 39/159/84 9/160/46 61/161/44
f 28/158/76 84/157/90 61/161/44 3/162/43
f 219/163/91 285/164/91 65/165/84 22/166/83
f 112/167/92 21/168/16 63/169/89 178/170/93
f 172/171/94 23/172/81 62/173/80 184/174/95
f 178/170/93 63/169/89 23/172/81 172/171/94
f 184/174/95 62/173/80 10/175/79 130/176/96
f 279/177/97 85/178/98 87/179/99 286/180/97
f 280/181/97 86/182/100 85/178/98 279/177/97
f 286/180/97 87/179/99 59/183/101 232/184/97
f 87/179/99 189/185/102 135/186/103 59/183/101
f 189/185/102 188/187/104 134/188/105 135/186/103
f 188/187/104 187/189/106 133/190/107 134/188/105
f 187/189/106 186/191/108 132/192/109 133/190/107
f 186/191/108 185/193/110 131/194/111 132/192/109
f 185/193/110 184/174/95 130/176/96 131/194/111
f 86/182/100 183/195/112 177/196/113 85/178/98
f 183/195/112 182/197/114 176/198/115 177/196/113
f 182/197/114 181/199/116 175/200/117 176/198/115
f 181/199/116 180/201/118 174/202/119 175/200/117
f 180/201/118 179/203/120 173/204/121 174/202/119
f 179/203/120 178/170/93 172/171/94 173/204/121
f 85/178/98 177/196/113 189/185/102 87/179/99
f 177/196/113 176/198/115 188/187/104 189/185/102
f 176/198/115 175/200/117 187/189/106 188/187/104
f 175/200/117 174/202/119 186/191/108 187/189/106
f 174/202/119 173/204/121 185/193/110 186/191/108
f 173/204/121 172/171/94 184/174/95 185/193/110
f 37/205/122 117/206/123 183/195/112 86/182/100
f 117/206/123 116/207/124 182/197/114 183/195/112
f 116/207/124 115/208/125 181/199/116 182/197/114
f 115/208/125 114/209/126 180/201/118 181/199/116
f 114/209/126 113/210/127 179/203/120 180/201/118
f 113/210/127 112/167/92 178/170/93 179/203/120
f 74/81/51 171/211/51 129/212/29 46/89/29
f 171/211/51 170/213/51 128/214/29 129/212/29
f 170/213/51 169/215/51 127/216/29 128/214/29
f 169/215/51 168/217/51 126/218/29 127/216/29
f 168/217/51 167/219/51 125/220/29 126/218/29
f 167/219/51 166/86/51 124/88/29 125/220/29
f 29/80/40 93/221/40 171/211/51 74/81/51
f 93/221/40 92/222/40 170/213/51 171/211/51
f 92/222/40 91/223/40 169/215/51 170/213/51
f 91/223/40 90/224/40 168/217/51 169/215/51
f 90/224/40 89/225/40 167/219/51 168/217/51
f 89/225/40 88/83/40 166/86/51 167/219/51
f 44/226/58 160/227/50 123/228/35 14/229/24
f 160/227/50 161/230/50 122/231/35 123/228/35
f 161/230/50 162/232/50 121/233/35 122/231/35
f 162/232/50 163/234/50 120/235/35 121/233/35
f 163/234/50 164/236/50 119/237/35 120/235/35
f 164/236/50 165/70/50 118/78/35 119/237/35
f 8/238/13 99/239/10 160/227/50 44/226/58
f 99/239/10 98/240/10 161/230/50 160/227/50
f 98/240/10 97/241/10 162/232/50 161/230/50
f 97/241/10 96/242/10 163/234/50 162/232/50
f 96/242/10 95/243/10 164/236/50 163/234/50
f 95/243/10 94/67/10 165/70/50 164/236/50
f 60/244/77 154/245/128 130/246/129 10/247/79
f 154/245/128 155/248/130 131/249/131 130/246/129
f 155/248/130 156/250/132 132/251/133 131/249/131
f 156/250/132 157/252/134 133/253/135 132/251/133
f 157/252/134 158/254/136 134/255/137 133/253/135
f 158/254/136 159/58/42 135/66/49 134/255/137
f 7/256/52 88/257/40 154/245/128 60/244/77
f 88/257/40 89/258/40 155/248/130 154/245/128
f 89/258/40 90/259/40 156/250/132 155/248/130
f 90/259/40 91/260/40 157/252/134 156/250/132
f 91/260/40 92/261/40 158/254/136 157/252/134
f 92/261/40 93/55/40 159/58/42 158/254/136
f 33/262/25 148/263/36 106/264/39 6/265/26
f 148/263/36 149/266/36 107/267/39 106/264/39
f 149/266/36 150/268/36 108/269/39 107/267/39
f 150/268/36 151/270/36 109/271/39 108/269/39
f 151/270/36 152/272/36 110/273/39 109/271/39
f 152/272/36 153/46/36 111/54/39 110/273/39
f 14/274/24 123/275/35 148/263/36 33/262/25
f 123/275/35 122/276/35 149/266/36 148/263/36
f 122/276/35 121/277/35 150/268/36 149/266/36
f 121/277/35 120/278/35 151/270/36 150/268/36
f 120/278/35 119/279/35 152/272/36 151/270/36
f 119/279/35 118/43/35 153/46/36 152/272/36
f 70/33/30 147/280/30 100/281/34 35/41/34
f 147/280/30 146/282/30 101/283/34 100/281/34
f 146/282/30 145/284/30 102/285/34 101/283/34
f 145/284/30 144/286/30 103/287/34 102/285/34
f 144/286/30 143/288/30 104/289/34 103/287/34
f 143/288/30 142/38/30 105/40/34 104/289/34
f 46/32/29 129/290/29 147/280/30 70/33/30
f 129/290/29 128/291/29 146/282/30 147/280/30
f 128/291/29 127/292/29 145/284/30 146/282/30
f 127/292/29 126/293/29 144/286/30 145/284/30
f 126/293/29 125/294/29 143/288/30 144/286/30
f 125/294/29 124/35/29 142/38/30 143/288/30
f 68/12/11 141/295/138 117/296/139 37/20/18
f 141/295/138 140/297/140 116/298/141 117/296/139
f 140/297/140 139/299/142 115/300/143 116/298/141
f 139/299/142 138/301/144 114/302/145 115/300/143
f 138/301/144 137/303/146 113/304/147 114/302/145
f 137/303/146 136/17/15 112/19/17 113/304/147
f 30/11/10 94/305/10 141/295/138 68/12/11
f 94/305/10 95/306/10 140/297/140 141/295/138
f 95/306/10 96/307/10 139/299/142 140/297/140
f 96/307/10 97/308/10 138/301/144 139/299/142
f 97/308/10 98/309/10 137/303/146 138/301/144
f 98/309/10 99/14/10 136/17/15 137/303/146
f 39/310/84 291/311/91 237/312/91 9/313/46
f 291/311/91 290/314/91 236/315/91 237/312/91
f 290/314/91 289/316/91 235/317/91 236/315/91
f 289/316/91 288/318/91 234/319/91 235/317/91
f 288/318/91 287/320/91 233/321/91 234/319/91
f 287/320/91 286/180/97 232/184/97 233/321/91
f 65/165/84 285/164/91 274/322/91 24/323/84
f 285/164/91 284/324/91 275/325/91 274/322/91
f 284/324/91 283/326/91 276/327/91 275/325/91
f 283/326/91 282/328/91 277/329/91 276/327/91
f 282/328/91 281/330/91 278/331/91 277/329/91
f 281/330/91 280/181/97 279/177/97 278/331/91
f 24/323/84 274/322/91 291/311/91 39/310/84
f 274/322/91 275/325/91 290/314/91 291/311/91
f 275/325/91 276/327/91 289/316/91 290/314/91
f 276/327/91 277/329/91 288/318/91 289/316/91
f 277/329/91 278/331/91 287/320/91 288/318/91
f 278/331/91 279/177/97 286/180/97 287/320/91
f 37/205/122 86/182/100 280/181/97 214/332/97
f 214/332/97 280/181/97 281/330/91 215/333/91
f 215/333/91 281/330/91 282/328/91 216/334/91
f 216/334/91 282/328/91 283/326/91 217/335/91
f 217/335/91 283/326/91 284/324/91 218/336/91
f 218/336/91 284/324/91 285/164/91 219/163/91
f 41/337/75 268/338/51 231/339/29 11/340/73
f 268/338/51 269/341/51 230/342/29 231/339/29
f 269/341/51 270/343/51 229/344/29 230/342/29
f 270/343/51 271/345/51 228/346/29 229/344/29
f 271/345/51 272/347/51 227/348/29 228/346/29
f 272/347/51 273/82/51 226/90/29 227/348/29
f 3/349/43 195/350/40 268/338/51 41/337/75
f 195/350/40 194/351/40 269/341/51 268/338/51
f 194/351/40 193/352/40 270/343/51 269/341/51
f 193/352/40 192/353/40 271/345/51 270/343/51
f 192/353/40 191/354/40 272/347/51 271/345/51
f 191/354/40 190/79/40 273/82/51 272/347/51
f 73/69/50 267/355/50 225/356/35 45/77/35
f 267/355/50 266/357/50 224/358/35 225/356/35
f 266/357/50 265/359/50 223/360/35 224/358/35
f 265/359/50 264/361/50 222/362/35 223/360/35
f 264/361/50 263/363/50 221/364/35 222/362/35
f 263/363/50 262/74/50 220/76/35 221/364/35
f 30/68/10 201/365/10 267/355/50 73/69/50
f 201/365/10 200/366/10 266/357/50 267/355/50
f 200/366/10 199/367/10 265/359/50 266/357/50
f 199/367/10 198/368/10 264/361/50 265/359/50
f 198/368/10 197/369/10 263/363/50 264/361/50
f 197/369/10 196/71/10 262/74/50 263/363/50
f 72/57/41 261/370/148 232/371/149 59/65/48
f 261/370/148 260/372/150 233/373/151 232/371/149
f 260/372/150 259/374/152 234/375/153 233/373/151
f 259/374/152 258/376/154 235/377/155 234/375/153
f 258/376/154 257/378/156 236/379/157 235/377/155
f 257/378/156 256/62/45 237/64/47 236/379/157
f 29/56/40 190/380/40 261/370/148 72/57/41
f 190/380/40 191/381/40 260/372/150 261/370/148
f 191/381/40 192/382/40 259/374/152 260/372/150
f 192/382/40 193/383/40 258/376/154 259/374/152
f 193/383/40 194/384/40 257/378/156 258/376/154
f 194/384/40 195/59/40 256/62/45 257/378/156
f 71/45/36 255/385/36 208/386/39 36/53/39
f 255/385/36 254/387/36 209/388/39 208/386/39
f 254/387/36 253/389/36 210/390/39 209/388/39
f 253/389/36 252/391/36 211/392/39 210/390/39
f 252/391/36 251/393/36 212/394/39 211/392/39
f 251/393/36 250/50/36 213/52/39 212/394/39
f 45/44/35 225/395/35 255/385/36 71/45/36
f 225/395/35 224/396/35 254/387/36 255/385/36
f 224/396/35 223/397/35 253/389/36 254/387/36
f 223/397/35 222/398/35 252/391/36 253/389/36
f 222/398/35 221/399/35 251/393/36 252/391/36
f 221/399/35 220/47/35 250/50/36 251/393/36
f 25/400/71 244/401/30 202/402/34 1/403/68
f 244/401/30 245/404/30 203/405/34 202/402/34
f 245/404/30 246/406/30 204/407/34 203/405/34
f 246/406/30 247/408/30 205/409/34 204/407/34
f 247/408/30 248/410/30 206/411/34 205/409/34
f 248/410/30 249/34/30 207/42/34 206/411/34
f 11/412/73 231/413/29 244/401/30 25/400/71
f 231/413/29 230/414/29 245/404/30 244/401/30
f 230/414/29 229/415/29 246/406/30 245/404/30
f 229/415/29 228/416/29 247/408/30 246/406/30
f 228/416/29 227/417/29 248/410/30 247/408/30
f 227/417/29 226/31/29 249/34/30 248/410/30
f 38/418/86 238/419/158 219/420/159 22/421/83
f 238/419/158 239/422/160 218/423/161 219/420/159
f 239/422/160 240/424/162 217/425/163 218/423/161
f 240/424/162 241/426/164 216/427/165 217/425/163
f 241/426/164 242/428/166 215/429/167 216/427/165
f 242/428/166 243/13/12 214/21/19 215/429/167
f 4/430/7 196/431/10 238/419/158 38/418/86
f 196/431/10 197/432/10 239/422/160 238/419/158
f 197/432/10 198/433/10 240/424/162 239/422/160
f 198/433/10 199/434/10 241/426/164 240/424/162
f 199/434/10 200/435/10 242/428/166 241/426/164
f 200/435/10 201/10/10 243/13/12 242/428/166
f 305/436/168 337/437/169 346/438/170 335/439/171
f 335/439/171 346/438/170 311/440/172 299/441/173
f 346/438/170 334/442/174 293/443/175 311/440/172
f 337/437/169 304/444/176 334/442/174 346/438/170
f 468/445/177 498/446/178 347/447/179 314/448/177
f 378/449/177 403/450/180 321/451/181 295/452/182
f 403/450/180 379/453/183 306/454/184 321/451/181
f 498/446/178 469/455/185 318/456/186 347/447/179
f 303/457/187 333/458/188 348/459/189 331/460/190
f 331/460/190 348/459/189 317/461/191 301/462/192
f 348/459/189 50/29/27 6/28/26 317/461/191
f 333/458/188 16/30/28 50/29/27 348/459/189
f 481/463/193 504/464/194 349/465/194 327/466/193
f 391/467/193 409/468/194 324/469/195 300/470/196
f 409/468/194 105/40/34 5/39/33 324/469/195
f 504/464/194 207/42/34 35/41/34 349/465/194
f 385/471/197 420/472/198 350/473/198 326/474/197
f 475/475/197 505/476/198 323/477/199 299/478/173
f 505/476/198 213/52/39 2/51/38 323/477/199
f 420/472/198 111/54/39 36/53/39 350/473/198
f 372/479/200 426/480/201 351/481/202 313/482/200
f 462/483/200 511/484/203 340/485/204 292/486/205
f 511/484/203 492/487/206 296/488/207 340/485/204
f 426/480/201 402/489/208 338/490/209 351/481/202
f 373/491/177 432/492/210 352/493/210 314/494/177
f 463/495/177 517/496/210 311/497/172 293/498/175
f 517/496/210 475/499/197 299/500/173 311/497/172
f 432/492/210 385/501/197 326/502/197 352/493/210
f 457/503/200 528/504/211 353/505/211 313/506/200
f 367/507/200 433/508/211 316/509/212 294/510/213
f 433/508/211 391/511/193 300/512/196 316/509/212
f 528/504/211 481/513/193 327/514/193 353/505/211
f 302/515/214 332/516/215 354/517/216 330/518/217
f 330/518/217 354/517/216 325/519/218 295/520/182
f 354/517/216 331/521/190 301/522/192 325/519/218
f 332/516/215 303/523/187 331/521/190 354/517/216
f 18/100/59 336/524/219 355/525/220 26/101/60
f 26/101/60 355/525/220 323/526/199 2/104/38
f 355/525/220 335/527/171 299/528/173 323/526/199
f 336/524/219 305/529/168 335/527/171 355/525/220
f 294/530/213 316/531/212 356/532/221 315/533/222
f 315/533/222 356/532/221 332/516/215 302/515/214
f 356/532/221 328/534/223 303/523/187 332/516/215
f 316/531/212 300/535/196 328/534/223 356/532/221
f 300/536/196 324/537/195 357/538/224 328/539/223
f 328/539/223 357/538/224 333/458/188 303/457/187
f 357/538/224 34/119/67 16/30/28 333/458/188
f 324/537/195 5/120/33 34/119/67 357/538/224
f 1/121/68 310/540/225 358/541/226 54/122/69
f 54/122/69 358/541/226 336/524/219 18/100/59
f 358/541/226 329/542/227 305/529/168 336/524/219
f 310/540/225 298/543/228 329/542/227 358/541/226
f 298/544/228 322/545/229 359/546/230 329/547/227
f 329/547/227 359/546/230 337/437/169 305/436/168
f 359/546/230 312/548/231 304/444/176 337/437/169
f 322/545/229 292/549/205 312/548/231 359/546/230
f 294/550/213 315/551/222 360/552/232 339/553/233
f 339/553/233 360/552/232 341/554/234 297/555/235
f 360/552/232 343/556/236 308/557/237 341/554/234
f 315/551/222 302/558/214 343/556/236 360/552/232
f 307/559/238 319/560/239 361/561/240 344/562/241
f 344/562/241 361/561/240 345/563/242 309/564/241
f 361/561/240 334/565/174 304/566/176 345/563/242
f 319/560/239 293/567/175 334/565/174 361/561/240
f 302/558/214 330/568/217 362/569/243 343/556/236
f 343/556/236 362/569/243 342/570/244 308/557/237
f 362/569/243 321/571/181 306/572/184 342/570/244
f 330/568/217 295/573/182 321/571/181 362/569/243
f 304/566/176 312/574/231 363/575/245 345/563/242
f 345/563/242 363/575/245 320/576/241 309/564/241
f 363/575/245 340/577/204 296/578/207 320/576/241
f 312/574/231 292/579/205 340/577/204 363/575/245
f 474/580/246 307/581/238 344/582/241 540/583/246
f 379/584/247 445/585/248 342/586/244 306/587/184
f 439/588/249 451/589/250 341/590/234 308/591/237
f 445/585/248 439/588/249 308/591/237 342/586/244
f 451/589/250 397/592/251 297/593/235 341/590/234
f 534/594/252 541/595/252 366/596/253 364/597/254
f 535/598/252 534/594/252 364/597/254 365/599/255
f 541/595/252 487/600/252 338/601/256 366/596/253
f 366/596/253 338/601/256 402/602/257 456/603/258
f 456/603/258 402/602/257 401/604/259 455/605/260
f 455/605/260 401/604/259 400/606/261 454/607/262
f 454/607/262 400/606/261 399/608/263 453/609/264
f 453/609/264 399/608/263 398/610/265 452/611/266
f 452/611/266 398/610/265 397/592/251 451/589/250
f 365/599/255 364/597/254 444/612/267 450/613/268
f 450/613/268 444/612/267 443/614/269 449/615/270
f 449/615/270 443/614/269 442/616/271 448/617/272
f 448/617/272 442/616/271 441/618/273 447/619/274
f 447/619/274 441/618/273 440/620/275 446/621/276
f 446/621/276 440/620/275 439/588/249 445/585/248
f 364/597/254 366/596/253 456/603/258 444/612/267
f 444/612/267 456/603/258 455/605/260 443/614/269
f 443/614/269 455/605/260 454/607/262 442/616/271
f 442/616/271 454/607/262 453/609/264 441/618/273
f 441/618/273 453/609/264 452/611/266 440/620/275
f 440/620/275 452/611/266 451/589/250 439/588/249
f 318/622/277 365/599/255 450/613/268 384/623/278
f 384/623/278 450/613/268 449/615/270 383/624/279
f 383/624/279 449/615/270 448/617/272 382/625/280
f 382/625/280 448/617/272 447/619/274 381/626/281
f 381/626/281 447/619/274 446/621/276 380/627/282
f 380/627/282 446/621/276 445/585/248 379/584/247
f 353/505/211 327/514/193 396/628/193 438/629/211
f 438/629/211 396/628/193 395/630/193 437/631/211
f 437/631/211 395/630/193 394/632/193 436/633/211
f 436/633/211 394/632/193 393/634/193 435/635/211
f 435/635/211 393/634/193 392/636/193 434/637/211
f 434/637/211 392/636/193 391/511/193 433/508/211
f 313/506/200 353/505/211 438/629/211 372/638/200
f 372/638/200 438/629/211 437/631/211 371/639/200
f 371/639/200 437/631/211 436/633/211 370/640/200
f 370/640/200 436/633/211 435/635/211 369/641/200
f 369/641/200 435/635/211 434/637/211 368/642/200
f 368/642/200 434/637/211 433/508/211 367/507/200
f 325/643/218 301/644/192 390/645/197 427/646/210
f 427/646/210 390/645/197 389/647/197 428/648/210
f 428/648/210 389/647/197 388/649/197 429/650/210
f 429/650/210 388/649/197 387/651/197 430/652/210
f 430/652/210 387/651/197 386/653/197 431/654/210
f 431/654/210 386/653/197 385/501/197 432/492/210
f 295/655/182 325/643/218 427/646/210 378/656/177
f 378/656/177 427/646/210 428/648/210 377/657/177
f 377/657/177 428/648/210 429/650/210 376/658/177
f 376/658/177 429/650/210 430/652/210 375/659/177
f 375/659/177 430/652/210 431/654/210 374/660/177
f 374/660/177 431/654/210 432/492/210 373/491/177
f 339/661/233 297/662/235 397/663/283 421/664/284
f 421/664/284 397/663/283 398/665/285 422/666/286
f 422/666/286 398/665/285 399/667/287 423/668/288
f 423/668/288 399/667/287 400/669/289 424/670/290
f 424/670/290 400/669/289 401/671/291 425/672/292
f 425/672/292 401/671/291 402/489/208 426/480/201
f 294/673/213 339/661/233 421/664/284 367/674/200
f 367/674/200 421/664/284 422/666/286 368/675/200
f 368/675/200 422/666/286 423/668/288 369/676/200
f 369/676/200 423/668/288 424/670/290 370/677/200
f 370/677/200 424/670/290 425/672/292 371/678/200
f 371/678/200 425/672/292 426/480/201 372/479/200
f 317/679/191 6/265/26 106/264/39 415/680/198
f 415/680/198 106/264/39 107/267/39 416/681/198
f 416/681/198 107/267/39 108/269/39 417/682/198
f 417/682/198 108/269/39 109/271/39 418/683/198
f 418/683/198 109/271/39 110/273/39 419/684/198
f 419/684/198 110/273/39 111/54/39 420/472/198
f 301/685/192 317/679/191 415/680/198 390/686/197
f 390/686/197 415/680/198 416/681/198 389/687/197
f 389/687/197 416/681/198 417/682/198 388/688/197
f 388/688/197 417/682/198 418/683/198 387/689/197
f 387/689/197 418/683/198 419/684/198 386/690/197
f 386/690/197 419/684/198 420/472/198 385/471/197
f 349/465/194 35/41/34 100/281/34 414/691/194
f 414/691/194 100/281/34 101/283/34 413/692/194
f 413/692/194 101/283/34 102/285/34 412/693/194
f 412/693/194 102/285/34 103/287/34 411/694/194
f 411/694/194 103/287/34 104/289/34 410/695/194
f 410/695/194 104/289/34 105/40/34 409/468/194
f 327/466/193 349/465/194 414/691/194 396/696/193
f 396/696/193 414/691/194 413/692/194 395/697/193
f 395/697/193 413/692/194 412/693/194 394/698/193
f 394/698/193 412/693/194 411/694/194 393/699/193
f 393/699/193 411/694/194 410/695/194 392/700/193
f 392/700/193 410/695/194 409/468/194 391/467/193
f 347/447/179 318/456/186 384/701/293 408/702/294
f 408/702/294 384/701/293 383/703/295 407/704/296
f 407/704/296 383/703/295 382/705/297 406/706/298
f 406/706/298 382/705/297 381/707/299 405/708/300
f 405/708/300 381/707/299 380/709/301 404/710/302
f 404/710/302 380/709/301 379/453/183 403/450/180
f 314/448/177 347/447/179 408/702/294 373/711/177
f 373/711/177 408/702/294 407/704/296 374/712/177
f 374/712/177 407/704/296 406/706/298 375/713/177
f 375/713/177 406/706/298 405/708/300 376/714/177
f 376/714/177 405/708/300 404/710/302 377/715/177
f 377/715/177 404/710/302 403/450/180 378/449/177
f 320/716/241 296/717/207 492/718/246 546/719/246
f 546/719/246 492/718/246 491/720/246 545/721/246
f 545/721/246 491/720/246 490/722/246 544/723/246
f 544/723/246 490/722/246 489/724/246 543/725/246
f 543/725/246 489/724/246 488/726/246 542/727/246
f 542/727/246 488/726/246 487/600/252 541/595/252
f 344/582/241 309/728/241 529/729/246 540/583/246
f 540/583/246 529/729/246 530/730/246 539/731/246
f 539/731/246 530/730/246 531/732/246 538/733/246
f 538/733/246 531/732/246 532/734/246 537/735/246
f 537/735/246 532/734/246 533/736/246 536/737/246
f 536/737/246 533/736/246 534/594/252 535/598/252
f 309/728/241 320/716/241 546/719/246 529/729/246
f 529/729/246 546/719/246 545/721/246 530/730/246
f 530/730/246 545/721/246 544/723/246 531/732/246
f 531/732/246 544/723/246 543/725/246 532/734/246
f 532/734/246 543/725/246 542/727/246 533/736/246
f 533/736/246 542/727/246 541/595/252 534/594/252
f 318/622/277 469/738/252 535/598/252 365/599/255
f 469/738/252 470/739/246 536/737/246 535/598/252
f 470/739/246 471/740/246 537/735/246 536/737/246
f 471/740/246 472/741/246 538/733/246 537/735/246
f 472/741/246 473/742/246 539/731/246 538/733/246
f 473/742/246 474/580/246 540/583/246 539/731/246
f 322/743/229 298/744/228 486/745/193 523/746/211
f 523/746/211 486/745/193 485/747/193 524/748/211
f 524/748/211 485/747/193 484/749/193 525/750/211
f 525/750/211 484/749/193 483/751/193 526/752/211
f 526/752/211 483/751/193 482/753/193 527/754/211
f 527/754/211 482/753/193 481/513/193 528/504/211
f 292/755/205 322/743/229 523/746/211 462/756/200
f 462/756/200 523/746/211 524/748/211 461/757/200
f 461/757/200 524/748/211 525/750/211 460/758/200
f 460/758/200 525/750/211 526/752/211 459/759/200
f 459/759/200 526/752/211 527/754/211 458/760/200
f 458/760/200 527/754/211 528/504/211 457/503/200
f 352/493/210 326/502/197 480/761/197 522/762/210
f 522/762/210 480/761/197 479/763/197 521/764/210
f 521/764/210 479/763/197 478/765/197 520/766/210
f 520/766/210 478/765/197 477/767/197 519/768/210
f 519/768/210 477/767/197 476/769/197 518/770/210
f 518/770/210 476/769/197 475/499/197 517/496/210
f 314/494/177 352/493/210 522/762/210 468/771/177
f 468/771/177 522/762/210 521/764/210 467/772/177
f 467/772/177 521/764/210 520/766/210 466/773/177
f 466/773/177 520/766/210 519/768/210 465/774/177
f 465/774/177 519/768/210 518/770/210 464/775/177
f 464/775/177 518/770/210 517/496/210 463/495/177
f 351/481/202 338/490/209 487/776/303 516/777/304
f 516/777/304 487/776/303 488/778/305 515/779/306
f 515/779/306 488/778/305 489/780/307 514/781/308
f 514/781/308 489/780/307 490/782/309 513/783/310
f 513/783/310 490/782/309 491/784/311 512/785/312
f 512/785/312 491/784/311 492/487/206 511/484/203
f 313/482/200 351/481/202 516/777/304 457/786/200
f 457/786/200 516/777/304 515/779/306 458/787/200
f 458/787/200 515/779/306 514/781/308 459/788/200
f 459/788/200 514/781/308 513/783/310 460/789/200
f 460/789/200 513/783/310 512/785/312 461/790/200
f 461/790/200 512/785/312 511/484/203 462/483/200
f 350/473/198 36/53/39 208/386/39 510/791/198
f 510/791/198 208/386/39 209/388/39 509/792/198
f 509/792/198 209/388/39 210/390/39 508/793/198
f 508/793/198 210/390/39 211/392/39 507/794/198
f 507/794/198 211/392/39 212/394/39 506/795/198
f 506/795/198 212/394/39 213/52/39 505/476/198
f 326/474/197 350/473/198 510/791/198 480/796/197
f 480/796/197 510/791/198 509/792/198 479/797/197
f 479/797/197 509/792/198 508/793/198 478/798/197
f 478/798/197 508/793/198 507/794/198 477/799/197
f 477/799/197 507/794/198 506/795/198 476/800/197
f 476/800/197 506/795/198 505/476/198 475/475/197
f 310/801/225 1/403/68 202/402/34 499/802/194
f 499/802/194 202/402/34 203/405/34 500/803/194
f 500/803/194 203/405/34 204/407/34 501/804/194
f 501/804/194 204/407/34 205/409/34 502/805/194
f 502/805/194 205/409/34 206/411/34 503/806/194
f 503/806/194 206/411/34 207/42/34 504/464/194
f 298/807/228 310/801/225 499/802/194 486/808/193
f 486/808/193 499/802/194 500/803/194 485/809/193
f 485/809/193 500/803/194 501/804/194 484/810/193
f 484/810/193 501/804/194 502/805/194 483/811/193
f 483/811/193 502/805/194 503/806/194 482/812/193
f 482/812/193 503/806/194 504/464/194 481/463/193
f 319/813/239 307/814/238 474/815/313 493/816/314
f 493/816/314 474/815/313 473/817/315 494/818/316
f 494/818/316 473/817/315 472/819/317 495/820/318
f 495/820/318 472/819/317 471/821/319 496/822/320
f 496/822/320 471/821/319 470/823/321 497/824/322
f 497/824/322 470/823/321 469/455/185 498/446/178
f 293/825/175 319/813/239 493/816/314 463/826/177
f 463/826/177 493/816/314 494/818/316 464/827/177
f 464/827/177 494/818/316 495/820/318 465/828/177
f 465/828/177 495/820/318 496/822/320 466/829/177
f 466/829/177 496/822/320 497/824/322 467/830/177
f 467/830/177 497/824/322 498/446/178 468/445/177
