# Blender 5.0.1
# www.blender.org
mtllib Chocolate 3.mtl
o Chocolate_3
v -0.887304 0.000000 -0.268595
v -0.887304 0.000000 0.329495
v -1.006664 2.090966 -0.094622
v -1.006664 2.090966 0.094443
v 0.899974 0.000000 -0.268595
v 0.899974 0.000000 0.329495
v 1.006210 2.090966 -0.094622
v 1.006210 2.090966 0.094443
v -1.047004 2.304502 -0.020215
v 1.046997 2.304502 -0.020215
v -0.896332 1.973227 -0.285954
v -0.896332 1.973227 0.285376
v 0.898478 1.973227 -0.285954
v 0.898478 1.973227 0.285376
v 1.003235 2.091133 -0.001122
v 0.847830 0.000000 0.005080
v 0.820636 1.790838 0.000049
v -0.867666 0.000000 0.005080
v -1.004650 2.090966 -0.001121
v -0.850198 1.790838 0.000049
v 1.046997 2.304502 -0.000174
v -1.047004 2.304502 -0.000174
v 1.039535 2.313205 -0.010572
v -1.047337 2.304501 -0.010519
v -0.889979 0.809406 -0.279571
v -0.877058 0.000000 0.166736
v -0.983635 2.038135 0.190455
v -1.005613 2.090966 -0.047894
v -0.000227 2.090966 -0.094622
v -0.000227 2.090966 0.094443
v 1.004658 2.091053 -0.047894
v 0.984395 2.038135 -0.191272
v 0.897301 0.809406 0.309055
v 0.872768 0.000000 -0.132309
v 0.006335 0.000000 -0.268595
v 0.006335 0.000000 0.329495
v -0.000003 2.185268 -0.000174
v -1.035758 2.141200 0.020205
v -1.047338 2.304502 -0.015374
v 1.035752 2.141200 0.020205
v -0.983635 2.038135 -0.191272
v -0.889979 0.809406 0.309055
v 0.897301 0.809406 -0.279571
v 0.984395 2.038135 0.190455
v 0.001072 1.973227 0.285376
v 0.001072 1.973227 -0.285954
v 0.868192 1.808209 -0.130032
v -0.882128 1.808209 -0.130032
v 1.004658 2.091053 0.046638
v 0.872768 0.000000 0.166736
v 0.868192 1.808209 0.133442
v 0.921083 2.012079 -0.000816
v 0.807915 0.783351 0.002183
v -0.877058 0.000000 -0.132309
v -1.005613 2.090966 0.046639
v -0.882128 1.808209 0.133442
v -0.836255 0.783351 0.002183
v -0.939731 2.012079 -0.000816
v -0.000003 2.185268 -0.020215
v 1.035752 2.141200 -0.030333
v -1.035758 2.141200 -0.030333
v 1.043024 2.309042 -0.015402
v 1.043024 2.309043 -0.005381
v 1.031915 2.145209 -0.005417
v -1.047338 2.304502 -0.005354
v -1.036127 2.141200 -0.005405
v -0.961874 2.016421 0.093716
v -0.000003 2.141200 0.020205
v 0.851865 0.787693 0.154252
v 0.003661 0.809406 -0.279571
v 0.003661 0.809406 0.309055
v -0.000003 2.141200 -0.030333
v 0.000380 2.038134 0.190455
v 0.000380 2.038134 -0.191272
v 0.952563 2.016422 0.093716
v -0.863095 0.787693 0.154252
v 0.952563 2.016422 -0.094537
v 0.851865 0.787693 -0.137450
v -0.863095 0.787693 -0.137450
v -0.961874 2.016421 -0.094537
v 1.033694 2.143291 -0.017883
v -1.036127 2.141200 0.007393
v 1.033694 2.143291 0.007386
v -1.036127 2.141200 -0.017877
v -0.000003 2.185268 -0.009716
v -0.000003 2.185268 -0.005649
v -0.000003 2.185268 -0.014892
v 0.862433 2.090966 -0.094622
v 0.718656 2.090966 -0.094622
v 0.574880 2.090966 -0.094622
v 0.431103 2.090966 -0.094622
v 0.287326 2.090966 -0.094622
v 0.143550 2.090966 -0.094622
v 0.143550 2.090966 0.094443
v 0.287326 2.090966 0.094443
v 0.431103 2.090966 0.094443
v 0.574880 2.090966 0.094443
v 0.718656 2.090966 0.094443
v 0.862433 2.090966 0.094443
v 0.133998 0.000000 -0.268595
v 0.261662 0.000000 -0.268595
v 0.389324 0.000000 -0.268595
v 0.516987 0.000000 -0.268595
v 0.644649 0.000000 -0.268595
v 0.772312 0.000000 -0.268595
v 0.772312 0.000000 0.329495
v 0.644649 0.000000 0.329495
v 0.516987 0.000000 0.329495
v 0.389324 0.000000 0.329495
v 0.261660 0.000000 0.329495
v 0.133998 0.000000 0.329495
v 0.897413 2.185268 -0.000174
v 0.747832 2.304502 -0.000174
v 0.598248 2.185268 -0.000174
v 0.448665 2.304502 -0.000174
v 0.299081 2.185268 -0.000174
v 0.149498 2.304502 -0.000174
v 0.129274 1.973227 0.285376
v 0.257473 1.973227 0.285376
v 0.385675 1.973227 0.285376
v 0.513876 1.973227 0.285376
v 0.642076 1.973227 0.285376
v 0.770277 1.973227 0.285376
v 0.770277 1.973227 -0.285954
v 0.642076 1.973227 -0.285954
v 0.513876 1.973227 -0.285954
v 0.385675 1.973227 -0.285954
v 0.257473 1.973227 -0.285954
v 0.129274 1.973227 -0.285954
v 0.897413 2.185268 -0.020215
v 0.747832 2.304502 -0.020215
v 0.598248 2.185268 -0.020215
v 0.448665 2.304502 -0.020215
v 0.299081 2.185268 -0.020215
v 0.149498 2.304502 -0.020215
v 0.887769 2.141200 0.020205
v 0.739786 2.141200 0.020205
v 0.591802 2.141200 0.020205
v 0.443820 2.141200 0.020205
v 0.295837 2.141200 0.020205
v 0.147854 2.141200 0.020205
v 0.769637 0.809406 -0.279571
v 0.641976 0.809406 -0.279571
v 0.514312 0.809406 -0.279571
v 0.386649 0.809406 -0.279571
v 0.258987 0.809406 -0.279571
v 0.131323 0.809406 -0.279571
v 0.769637 0.809406 0.309055
v 0.641976 0.809406 0.309055
v 0.514312 0.809406 0.309055
v 0.386649 0.809406 0.309055
v 0.258987 0.809406 0.309055
v 0.131323 0.809406 0.309055
v 0.887769 2.141200 -0.030333
v 0.739786 2.141200 -0.030333
v 0.591802 2.141200 -0.030333
v 0.443820 2.141200 -0.030333
v 0.295837 2.141200 -0.030333
v 0.147854 2.141200 -0.030333
v 0.843823 2.038135 0.190455
v 0.703249 2.038135 0.190455
v 0.562675 2.038135 0.190455
v 0.422101 2.038135 0.190455
v 0.281527 2.038134 0.190455
v 0.140954 2.038134 0.190455
v 0.843823 2.038135 -0.191272
v 0.703249 2.038135 -0.191272
v 0.562675 2.038135 -0.191272
v 0.422101 2.038135 -0.191272
v 0.281527 2.038134 -0.191272
v 0.140954 2.038134 -0.191272
v 0.890993 2.192728 -0.010450
v 0.742452 2.310718 -0.010327
v 0.593911 2.190241 -0.010205
v 0.445370 2.308232 -0.010083
v 0.296828 2.187755 -0.009960
v 0.148287 2.305745 -0.009838
v 0.893983 2.189160 -0.005420
v 0.744944 2.307745 -0.005458
v 0.595905 2.187863 -0.005496
v 0.446865 2.306448 -0.005534
v 0.297826 2.186565 -0.005572
v 0.148786 2.305151 -0.005610
v 0.893983 2.189160 -0.015329
v 0.744944 2.307745 -0.015256
v 0.595905 2.187863 -0.015183
v 0.446865 2.306448 -0.015110
v 0.297826 2.186565 -0.015038
v 0.148786 2.305151 -0.014965
v -0.144004 2.090966 -0.094622
v -0.287779 2.090966 -0.094622
v -0.431557 2.090966 -0.094622
v -0.575334 2.090966 -0.094622
v -0.719110 2.090966 -0.094622
v -0.862886 2.090966 -0.094622
v -0.862886 2.090966 0.094443
v -0.719110 2.090966 0.094443
v -0.575334 2.090966 0.094443
v -0.431557 2.090966 0.094443
v -0.287779 2.090966 0.094443
v -0.144004 2.090966 0.094443
v -0.759641 0.000000 -0.268595
v -0.631979 0.000000 -0.268595
v -0.504316 0.000000 -0.268595
v -0.376652 0.000000 -0.268595
v -0.248991 0.000000 -0.268595
v -0.121327 0.000000 -0.268595
v -0.121327 0.000000 0.329495
v -0.248991 0.000000 0.329495
v -0.376652 0.000000 0.329495
v -0.504316 0.000000 0.329495
v -0.631979 0.000000 0.329495
v -0.759641 0.000000 0.329495
v -0.149504 2.304502 -0.000174
v -0.299087 2.185268 -0.000174
v -0.448670 2.304502 -0.000174
v -0.598253 2.185268 -0.000174
v -0.747837 2.304502 -0.000174
v -0.897421 2.185268 -0.000174
v -0.768132 1.973227 0.285376
v -0.639931 1.973227 0.285376
v -0.511730 1.973227 0.285376
v -0.383530 1.973227 0.285376
v -0.255328 1.973227 0.285376
v -0.127129 1.973227 0.285376
v -0.127129 1.973227 -0.285954
v -0.255328 1.973227 -0.285954
v -0.383530 1.973227 -0.285954
v -0.511730 1.973227 -0.285954
v -0.639931 1.973227 -0.285954
v -0.768132 1.973227 -0.285954
v -0.149504 2.304502 -0.020215
v -0.299087 2.185268 -0.020215
v -0.448670 2.304502 -0.020215
v -0.598253 2.185268 -0.020215
v -0.747837 2.304502 -0.020215
v -0.897421 2.185268 -0.020215
v -0.887775 2.141200 0.020205
v -0.739792 2.141200 0.020205
v -0.591809 2.141200 0.020205
v -0.443826 2.141200 0.020205
v -0.295843 2.141200 0.020205
v -0.147861 2.141200 0.020205
v -0.762315 0.809406 -0.279571
v -0.634653 0.809406 -0.279571
v -0.506990 0.809406 -0.279571
v -0.379327 0.809406 -0.279571
v -0.251664 0.809406 -0.279571
v -0.124002 0.809406 -0.279571
v -0.762315 0.809406 0.309055
v -0.634653 0.809406 0.309055
v -0.506990 0.809406 0.309055
v -0.379327 0.809406 0.309055
v -0.251664 0.809406 0.309055
v -0.124002 0.809406 0.309055
v -0.887774 2.141200 -0.030333
v -0.739792 2.141200 -0.030333
v -0.591809 2.141200 -0.030333
v -0.443826 2.141200 -0.030333
v -0.295843 2.141200 -0.030333
v -0.147861 2.141200 -0.030333
v -0.843061 2.038135 0.190455
v -0.702487 2.038135 0.190455
v -0.561914 2.038135 0.190455
v -0.421341 2.038135 0.190455
v -0.280768 2.038134 0.190455
v -0.140194 2.038134 0.190455
v -0.843061 2.038135 -0.191272
v -0.702487 2.038135 -0.191272
v -0.561914 2.038135 -0.191272
v -0.421341 2.038135 -0.191272
v -0.280768 2.038134 -0.191272
v -0.140194 2.038134 -0.191272
v -0.897754 2.185268 -0.010404
v -0.748171 2.304501 -0.010289
v -0.598587 2.185268 -0.010175
v -0.449004 2.304501 -0.010060
v -0.299420 2.185268 -0.009945
v -0.149837 2.304501 -0.009830
v -0.149837 2.304502 -0.005606
v -0.299420 2.185268 -0.005564
v -0.449004 2.304502 -0.005522
v -0.598587 2.185268 -0.005480
v -0.748171 2.304502 -0.005438
v -0.897754 2.185268 -0.005396
v -0.149837 2.304502 -0.014961
v -0.299420 2.185268 -0.015030
v -0.449004 2.304502 -0.015099
v -0.598587 2.185268 -0.015167
v -0.748171 2.304502 -0.015236
v -0.897754 2.185268 -0.015305
v -1.006664 -2.090966 -0.094622
v -1.006664 -2.090966 0.094443
v 1.006210 -2.090966 -0.094622
v 1.006210 -2.090966 0.094443
v -1.047004 -2.304502 -0.020215
v 1.046997 -2.304502 -0.020215
v -0.896332 -1.973227 -0.285954
v -0.896332 -1.973227 0.285376
v 0.898478 -1.973227 -0.285954
v 0.898478 -1.973227 0.285376
v 1.003235 -2.091133 -0.001122
v 0.820636 -1.790838 0.000049
v -1.004650 -2.090966 -0.001121
v -0.850198 -1.790838 0.000049
v 1.046997 -2.304502 -0.000175
v -1.047004 -2.304502 -0.000175
v 1.039535 -2.313205 -0.010572
v -1.047337 -2.304501 -0.010519
v -0.889979 -0.809406 -0.279571
v -0.983635 -2.038135 0.190455
v -1.005613 -2.090966 -0.047894
v -0.000227 -2.090966 -0.094622
v -0.000227 -2.090966 0.094443
v 1.004658 -2.091053 -0.047894
v 0.984395 -2.038135 -0.191273
v 0.897301 -0.809406 0.309055
v -0.000003 -2.185268 -0.000175
v -1.035758 -2.141200 0.020205
v -1.047338 -2.304502 -0.015374
v 1.035752 -2.141200 0.020205
v -0.983635 -2.038135 -0.191273
v -0.889979 -0.809406 0.309055
v 0.897301 -0.809406 -0.279571
v 0.984395 -2.038135 0.190455
v 0.001072 -1.973227 0.285376
v 0.001072 -1.973227 -0.285954
v 0.868192 -1.808209 -0.130033
v -0.882128 -1.808209 -0.130033
v 1.004658 -2.091053 0.046638
v 0.868192 -1.808209 0.133441
v 0.921083 -2.012079 -0.000817
v 0.807915 -0.783351 0.002183
v -1.005613 -2.090966 0.046639
v -0.882128 -1.808209 0.133441
v -0.836255 -0.783351 0.002183
v -0.939731 -2.012079 -0.000817
v -0.000003 -2.185268 -0.020215
v 1.035752 -2.141200 -0.030333
v -1.035758 -2.141200 -0.030333
v 1.043024 -2.309042 -0.015402
v 1.043024 -2.309043 -0.005382
v 1.031915 -2.145209 -0.005417
v -1.047338 -2.304502 -0.005354
v -1.036127 -2.141200 -0.005405
v -0.961874 -2.016421 0.093716
v -0.000003 -2.141200 0.020205
v 0.851865 -0.787693 0.154252
v 0.003661 -0.809406 -0.279571
v 0.003661 -0.809406 0.309055
v -0.000003 -2.141200 -0.030333
v 0.000380 -2.038134 0.190455
v 0.000380 -2.038134 -0.191273
v 0.952563 -2.016422 0.093716
v -0.863095 -0.787693 0.154252
v 0.952563 -2.016422 -0.094537
v 0.851865 -0.787693 -0.137450
v -0.863095 -0.787693 -0.137450
v -0.961874 -2.016421 -0.094537
v 1.033694 -2.143291 -0.017883
v -1.036127 -2.141200 0.007393
v 1.033694 -2.143291 0.007386
v -1.036127 -2.141200 -0.017877
v -0.000003 -2.185268 -0.009716
v -0.000003 -2.185268 -0.005649
v -0.000003 -2.185268 -0.014892
v 0.862433 -2.090966 -0.094622
v 0.718656 -2.090966 -0.094622
v 0.574880 -2.090966 -0.094622
v 0.431103 -2.090966 -0.094622
v 0.287326 -2.090966 -0.094622
v 0.143550 -2.090966 -0.094622
v 0.143550 -2.090966 0.094443
v 0.287326 -2.090966 0.094443
v 0.431103 -2.090966 0.094443
v 0.574880 -2.090966 0.094443
v 0.718656 -2.090966 0.094443
v 0.862433 -2.090966 0.094443
v 0.897413 -2.185268 -0.000175
v 0.747832 -2.304502 -0.000175
v 0.598248 -2.185268 -0.000175
v 0.448665 -2.304502 -0.000175
v 0.299081 -2.185268 -0.000175
v 0.149498 -2.304502 -0.000175
v 0.129274 -1.973227 0.285376
v 0.257473 -1.973227 0.285376
v 0.385675 -1.973227 0.285376
v 0.513876 -1.973227 0.285376
v 0.642076 -1.973227 0.285376
v 0.770277 -1.973227 0.285376
v 0.770277 -1.973227 -0.285954
v 0.642076 -1.973227 -0.285954
v 0.513876 -1.973227 -0.285954
v 0.385675 -1.973227 -0.285954
v 0.257473 -1.973227 -0.285954
v 0.129274 -1.973227 -0.285954
v 0.897413 -2.185268 -0.020215
v 0.747832 -2.304502 -0.020215
v 0.598248 -2.185268 -0.020215
v 0.448665 -2.304502 -0.020215
v 0.299081 -2.185268 -0.020215
v 0.149498 -2.304502 -0.020215
v 0.887769 -2.141200 0.020205
v 0.739786 -2.141200 0.020205
v 0.591802 -2.141200 0.020205
v 0.443820 -2.141200 0.020205
v 0.295837 -2.141200 0.020205
v 0.147854 -2.141200 0.020205
v 0.769637 -0.809406 -0.279571
v 0.641976 -0.809406 -0.279571
v 0.514312 -0.809406 -0.279571
v 0.386649 -0.809406 -0.279571
v 0.258987 -0.809406 -0.279571
v 0.131323 -0.809406 -0.279571
v 0.769637 -0.809406 0.309055
v 0.641976 -0.809406 0.309055
v 0.514312 -0.809406 0.309055
v 0.386649 -0.809406 0.309055
v 0.258987 -0.809406 0.309055
v 0.131323 -0.809406 0.309055
v 0.887769 -2.141200 -0.030333
v 0.739786 -2.141200 -0.030333
v 0.591802 -2.141200 -0.030333
v 0.443820 -2.141200 -0.030333
v 0.295837 -2.141200 -0.030333
v 0.147854 -2.141200 -0.030333
v 0.843823 -2.038135 0.190455
v 0.703249 -2.038135 0.190455
v 0.562675 -2.038135 0.190455
v 0.422101 -2.038135 0.190455
v 0.281527 -2.038134 0.190455
v 0.140954 -2.038134 0.190455
v 0.843823 -2.038135 -0.191273
v 0.703249 -2.038135 -0.191273
v 0.562675 -2.038135 -0.191273
v 0.422101 -2.038135 -0.191273
v 0.281527 -2.038134 -0.191273
v 0.140954 -2.038134 -0.191273
v 0.890993 -2.192728 -0.010450
v 0.742452 -2.310718 -0.010327
v 0.593911 -2.190241 -0.010205
v 0.445370 -2.308232 -0.010083
v 0.296828 -2.187755 -0.009961
v 0.148287 -2.305745 -0.009838
v 0.893983 -2.189160 -0.005420
v 0.744944 -2.307745 -0.005458
v 0.595905 -2.187863 -0.005496
v 0.446865 -2.306448 -0.005534
v 0.297826 -2.186565 -0.005572
v 0.148786 -2.305151 -0.005611
v 0.893983 -2.189160 -0.015329
v 0.744944 -2.307745 -0.015256
v 0.595905 -2.187863 -0.015183
v 0.446865 -2.306448 -0.015111
v 0.297826 -2.186565 -0.015038
v 0.148786 -2.305151 -0.014965
v -0.144004 -2.090966 -0.094622
v -0.287779 -2.090966 -0.094622
v -0.431557 -2.090966 -0.094622
v -0.575334 -2.090966 -0.094622
v -0.719110 -2.090966 -0.094622
v -0.862886 -2.090966 -0.094622
v -0.862886 -2.090966 0.094443
v -0.719110 -2.090966 0.094443
v -0.575334 -2.090966 0.094443
v -0.431557 -2.090966 0.094443
v -0.287779 -2.090966 0.094443
v -0.144004 -2.090966 0.094443
v -0.149504 -2.304502 -0.000175
v -0.299087 -2.185268 -0.000175
v -0.448670 -2.304502 -0.000175
v -0.598253 -2.185268 -0.000175
v -0.747837 -2.304502 -0.000175
v -0.897421 -2.185268 -0.000175
v -0.768132 -1.973227 0.285376
v -0.639931 -1.973227 0.285376
v -0.511730 -1.973227 0.285376
v -0.383530 -1.973227 0.285376
v -0.255328 -1.973227 0.285376
v -0.127129 -1.973227 0.285376
v -0.127129 -1.973227 -0.285954
v -0.255328 -1.973227 -0.285954
v -0.383530 -1.973227 -0.285954
v -0.511730 -1.973227 -0.285954
v -0.639931 -1.973227 -0.285954
v -0.768132 -1.973227 -0.285954
v -0.149504 -2.304502 -0.020215
v -0.299087 -2.185268 -0.020215
v -0.448670 -2.304502 -0.020215
v -0.598253 -2.185268 -0.020215
v -0.747837 -2.304502 -0.020215
v -0.897421 -2.185268 -0.020215
v -0.887775 -2.141200 0.020205
v -0.739792 -2.141200 0.020205
v -0.591809 -2.141200 0.020205
v -0.443826 -2.141200 0.020205
v -0.295843 -2.141200 0.020205
v -0.147861 -2.141200 0.020205
v -0.762315 -0.809406 -0.279571
v -0.634653 -0.809406 -0.279571
v -0.506990 -0.809406 -0.279571
v -0.379327 -0.809406 -0.279571
v -0.251664 -0.809406 -0.279571
v -0.124002 -0.809406 -0.279571
v -0.762315 -0.809406 0.309055
v -0.634653 -0.809406 0.309055
v -0.506990 -0.809406 0.309055
v -0.379327 -0.809406 0.309055
v -0.251664 -0.809406 0.309055
v -0.124002 -0.809406 0.309055
v -0.887774 -2.141200 -0.030333
v -0.739792 -2.141200 -0.030333
v -0.591809 -2.141200 -0.030333
v -0.443826 -2.141200 -0.030333
v -0.295843 -2.141200 -0.030333
v -0.147861 -2.141200 -0.030333
v -0.843061 -2.038135 0.190455
v -0.702487 -2.038135 0.190455
v -0.561914 -2.038135 0.190455
v -0.421341 -2.038135 0.190455
v -0.280768 -2.038134 0.190455
v -0.140194 -2.038134 0.190455
v -0.843061 -2.038135 -0.191273
v -0.702487 -2.038135 -0.191273
v -0.561914 -2.038135 -0.191273
v -0.421341 -2.038135 -0.191273
v -0.280768 -2.038134 -0.191273
v -0.140194 -2.038134 -0.191273
v -0.897754 -2.185268 -0.010404
v -0.748171 -2.304501 -0.010290
v -0.598587 -2.185268 -0.010175
v -0.449004 -2.304501 -0.010060
v -0.299420 -2.185268 -0.009945
v -0.149837 -2.304501 -0.009831
v -0.149837 -2.304502 -0.005607
v -0.299420 -2.185268 -0.005565
v -0.449004 -2.304502 -0.005522
v -0.598587 -2.185268 -0.005480
v -0.748171 -2.304502 -0.005438
v -0.897754 -2.185268 -0.005396
v -0.149837 -2.304502 -0.014961
v -0.299420 -2.185268 -0.015030
v -0.449004 -2.304502 -0.015099
v -0.598587 -2.185268 -0.015168
v -0.748171 -2.304502 -0.015236
v -0.897754 -2.185268 -0.015305
vn -0.9911 -0.1328 0.0063
vn -0.9854 -0.1434 -0.0920
vn -0.8872 -0.4550 -0.0764
vn -0.8842 -0.4671 0.0028
vn -0.4566 0.0893 0.8852
vn -0.8791 0.0346 0.4753
vn -0.9497 0.0320 0.3115
vn -0.8322 -0.5518 -0.0543
vn -0.8262 -0.5633 -0.0005
vn -0.0000 0.8524 0.5229
vn -0.0000 0.3394 0.9407
vn 0.0012 0.3379 0.9412
vn 0.9467 0.0269 0.3209
vn 0.6498 -0.0040 0.7601
vn 0.0077 0.3383 0.9410
vn 0.9173 0.1428 0.3717
vn -0.0099 0.1943 0.9809
vn -0.0000 0.1935 0.9811
vn -0.0014 0.1923 0.9813
vn 0.9908 -0.1350 0.0103
vn 0.9692 -0.1459 -0.1985
vn 0.9704 0.0047 -0.2416
vn 0.9999 0.0106 0.0121
vn 0.4717 0.0909 0.8770
vn 0.4448 0.0229 0.8953
vn 0.3736 -0.0000 0.9276
vn 0.9755 -0.0000 -0.2198
vn 1.0000 -0.0000 0.0084
vn -0.0000 0.0782 -0.9969
vn -0.0000 -0.0095 -1.0000
vn 0.4006 0.0703 -0.9136
vn 0.4202 -0.0081 -0.9074
vn 0.4776 -0.0000 -0.8786
vn -0.0000 -0.0000 -1.0000
vn -0.0000 0.1041 0.9946
vn -0.0000 0.0228 0.9997
vn -0.4280 0.0203 0.9035
vn -0.3549 -0.0000 0.9349
vn -0.0000 -0.0000 1.0000
vn -0.0000 0.8331 -0.5531
vn -0.0000 0.2040 -0.9790
vn -0.0010 0.2032 -0.9791
vn -0.9394 0.0311 -0.3413
vn -0.5016 -0.0197 -0.8649
vn -0.0075 0.2029 -0.9792
vn -0.6738 0.1444 -0.7247
vn 0.0093 0.0983 -0.9951
vn -0.0000 0.0974 -0.9952
vn 0.0010 0.0968 -0.9953
vn -0.0000 0.8510 0.5251
vn -0.0000 0.8514 -0.5245
vn 0.9347 0.0260 -0.3545
vn 0.8942 0.0319 -0.4466
vn 0.8149 -0.5796 -0.0058
vn 0.7934 -0.6003 -0.1011
vn 0.8528 -0.5036 -0.1382
vn 0.8562 -0.5167 0.0044
vn 0.8942 0.0320 0.4464
vn -1.0000 -0.0000 0.0044
vn -0.9933 -0.0000 -0.1159
vn -0.9906 0.0007 -0.1366
vn -1.0000 0.0054 0.0068
vn 0.7976 -0.5945 0.1024
vn 0.8529 -0.5036 0.1375
vn 0.9675 -0.1429 0.2088
vn 0.9645 0.0080 0.2641
vn 0.9689 -0.0000 0.2476
vn -0.4487 -0.0000 -0.8937
vn -0.9913 -0.0000 0.1314
vn -0.9886 0.0022 0.1504
vn -0.4040 -0.0101 -0.9147
vn -0.9850 -0.1418 0.0986
vn -0.3895 0.0693 -0.9184
vn -0.8871 -0.4555 0.0750
vn -0.8789 0.0343 -0.4758
vn -0.8326 -0.5511 0.0551
vn 0.5410 -0.0216 -0.8407
vn 0.9461 -0.1879 0.2638
vn 0.7505 0.1293 -0.6481
vn 0.9818 0.1835 0.0481
vn 0.9691 0.2357 0.0724
vn 0.9804 -0.1932 -0.0384
vn -0.8369 0.1703 0.5202
vn -0.9849 0.1727 0.0064
vn -0.9798 -0.1995 0.0171
vn -0.6165 0.0005 0.7874
vn -0.9848 0.1736 -0.0000
vn -0.9793 -0.2024 0.0008
vn 0.9417 -0.2104 -0.2626
vn 0.9842 0.1708 -0.0467
vn -0.9795 -0.2008 -0.0127
vn -0.9849 0.1723 -0.0147
vn -0.0137 0.9999 0.0007
vn 0.0069 1.0000 -0.0006
vn -0.1023 0.7445 0.6598
vn 0.0034 0.7983 0.6023
vn 0.1217 0.9925 -0.0128
vn 0.0055 0.7816 -0.6237
vn -0.1052 0.7168 -0.6893
vn -0.0006 1.0000 -0.0000
vn -0.0065 1.0000 0.0059
vn -0.0044 0.9989 -0.0467
vn -0.0072 1.0000 -0.0067
vn -0.0070 1.0000 0.0064
vn -0.0044 0.9986 0.0518
vn -0.0024 0.9990 -0.0451
vn 0.0134 0.9998 -0.0122
vn -0.0088 0.9970 -0.0769
vn 0.0265 0.9969 -0.0742
vn 0.0009 0.9623 -0.2719
vn -0.0513 0.9535 -0.2971
vn -0.0091 0.9496 -0.3133
vn 0.0696 0.9508 -0.3019
vn 0.0032 0.8816 -0.4719
vn -0.0849 0.8480 -0.5232
vn -0.0092 0.8600 -0.5101
vn 0.1056 0.8722 -0.4777
vn -0.0060 0.9964 0.0840
vn -0.0301 0.9995 0.0087
vn -0.0031 0.9586 0.2849
vn 0.0396 0.9991 0.0173
vn -0.0041 0.9472 0.3206
vn -0.0730 0.9971 0.0204
vn -0.0010 0.8820 0.4712
vn 0.0822 0.9966 0.0092
vn -0.0054 0.8659 0.5002
vn -0.1130 0.9936 0.0080
vn -0.0024 0.9990 0.0437
vn 0.0255 0.9971 0.0718
vn -0.0495 0.9574 0.2846
vn 0.0666 0.9547 0.2901
vn -0.0818 0.8625 0.4994
vn 0.1006 0.8833 0.4580
vn 0.0075 0.2029 -0.9792
vn -0.0093 0.0983 -0.9951
vn -0.0047 0.2038 -0.9790
vn 0.0046 0.0965 -0.9953
vn 0.0051 0.2035 -0.9791
vn -0.0064 0.0978 -0.9952
vn -0.0029 0.2034 -0.9791
vn 0.0028 0.0967 -0.9953
vn 0.0026 0.2039 -0.9790
vn -0.0032 0.0975 -0.9952
vn -0.0012 0.3379 0.9412
vn 0.0014 0.1923 0.9813
vn 0.0026 0.3392 0.9407
vn -0.0034 0.1935 0.9811
vn -0.0036 0.3381 0.9411
vn 0.0040 0.1921 0.9814
vn 0.0052 0.3389 0.9408
vn -0.0067 0.1938 0.9810
vn -0.0060 0.3385 0.9409
vn 0.0067 0.1918 0.9814
vn 0.0073 1.0000 0.0007
vn -0.0146 0.9999 -0.0006
vn -0.0072 1.0000 -0.0006
vn 0.0144 0.9999 0.0006
vn 0.0071 1.0000 0.0007
vn -0.0142 0.9999 -0.0006
vn -0.0070 1.0000 -0.0006
vn 0.0140 0.9999 0.0005
vn 0.0069 1.0000 0.0007
vn -0.0138 0.9999 -0.0005
vn -0.0000 1.0000 -0.0000
vn -0.0068 1.0000 0.0005
vn 0.0068 1.0000 -0.0006
vn -0.0067 1.0000 0.0005
vn 0.0066 1.0000 -0.0006
vn 0.0129 0.9998 0.0118
vn -0.0133 0.9999 0.0006
vn 0.0134 0.9999 -0.0006
vn -0.0135 0.9999 0.0006
vn 0.0136 0.9999 -0.0007
vn 0.0010 0.2032 -0.9791
vn -0.0010 0.0968 -0.9953
vn -0.0026 0.2039 -0.9790
vn 0.0032 0.0975 -0.9952
vn 0.0029 0.2034 -0.9791
vn -0.0028 0.0967 -0.9953
vn -0.0051 0.2035 -0.9791
vn 0.0064 0.0978 -0.9952
vn 0.0047 0.2038 -0.9790
vn -0.0046 0.0965 -0.9953
vn -0.0077 0.3383 0.9410
vn 0.0099 0.1943 0.9809
vn 0.0060 0.3385 0.9409
vn -0.0067 0.1918 0.9814
vn -0.0052 0.3389 0.9408
vn 0.0067 0.1938 0.9810
vn 0.0036 0.3381 0.9411
vn -0.0040 0.1921 0.9814
vn -0.0026 0.3392 0.9407
vn 0.0034 0.1935 0.9811
vn -0.9911 0.1328 0.0063
vn -0.8842 0.4672 0.0028
vn -0.8872 0.4550 -0.0764
vn -0.9854 0.1434 -0.0920
vn -0.8791 -0.0346 0.4753
vn -0.4566 -0.0893 0.8852
vn -0.8322 0.5518 -0.0543
vn -0.9497 -0.0320 0.3115
vn -0.8262 0.5633 -0.0005
vn -0.0000 -0.8524 0.5229
vn 0.0012 -0.3379 0.9412
vn -0.0000 -0.3394 0.9407
vn 0.0077 -0.3383 0.9410
vn 0.6498 0.0040 0.7601
vn 0.9467 -0.0269 0.3209
vn -0.0099 -0.1943 0.9809
vn 0.9173 -0.1428 0.3717
vn -0.0014 -0.1923 0.9813
vn -0.0000 -0.1935 0.9811
vn 0.9908 0.1350 0.0103
vn 0.9999 -0.0106 0.0121
vn 0.9704 -0.0047 -0.2416
vn 0.9692 0.1459 -0.1985
vn 0.4448 -0.0229 0.8953
vn 0.4717 -0.0909 0.8770
vn -0.0000 -0.0782 -0.9969
vn -0.0000 0.0095 -1.0000
vn 0.4202 0.0081 -0.9074
vn 0.4006 -0.0703 -0.9136
vn -0.0000 -0.1041 0.9946
vn -0.0000 -0.0228 0.9997
vn -0.4280 -0.0203 0.9035
vn -0.0000 -0.8331 -0.5531
vn -0.0010 -0.2032 -0.9791
vn -0.0000 -0.2040 -0.9790
vn -0.0075 -0.2029 -0.9792
vn -0.5016 0.0197 -0.8649
vn -0.9394 -0.0311 -0.3414
vn 0.0093 -0.0983 -0.9951
vn -0.6738 -0.1444 -0.7247
vn 0.0010 -0.0968 -0.9953
vn -0.0000 -0.0974 -0.9952
vn -0.0000 -0.8510 0.5251
vn -0.0000 -0.8514 -0.5245
vn 0.8942 -0.0319 -0.4466
vn 0.9347 -0.0260 -0.3545
vn 0.8149 0.5796 -0.0058
vn 0.8562 0.5167 0.0044
vn 0.8528 0.5036 -0.1382
vn 0.7934 0.6003 -0.1011
vn 0.8942 -0.0320 0.4464
vn -1.0000 -0.0054 0.0068
vn -0.9906 -0.0007 -0.1366
vn 0.8529 0.5036 0.1375
vn 0.7976 0.5945 0.1024
vn 0.9675 0.1429 0.2088
vn 0.9645 -0.0080 0.2641
vn -0.4040 0.0101 -0.9147
vn -0.9886 -0.0022 0.1504
vn -0.9850 0.1418 0.0986
vn -0.3895 -0.0693 -0.9184
vn -0.8789 -0.0343 -0.4758
vn -0.8871 0.4555 0.0750
vn -0.8326 0.5511 0.0551
vn 0.9461 0.1879 0.2638
vn 0.5410 0.0216 -0.8407
vn 0.9818 -0.1835 0.0481
vn 0.7505 -0.1293 -0.6481
vn 0.9804 0.1932 -0.0384
vn 0.9691 -0.2357 0.0724
vn -0.8369 -0.1703 0.5202
vn -0.6165 -0.0005 0.7874
vn -0.9798 0.1995 0.0171
vn -0.9849 -0.1727 0.0064
vn -0.9793 0.2024 0.0008
vn -0.9848 -0.1736 -0.0000
vn 0.9417 0.2104 -0.2626
vn 0.9842 -0.1708 -0.0467
vn -0.9795 0.2008 -0.0127
vn -0.9849 -0.1723 -0.0147
vn -0.0137 -0.9999 0.0007
vn 0.0069 -1.0000 -0.0006
vn -0.1023 -0.7445 0.6598
vn 0.0034 -0.7983 0.6023
vn 0.1217 -0.9925 -0.0128
vn 0.0055 -0.7816 -0.6237
vn -0.1052 -0.7168 -0.6893
vn -0.0006 -1.0000 -0.0000
vn -0.0072 -1.0000 -0.0067
vn -0.0044 -0.9989 -0.0467
vn -0.0065 -1.0000 0.0059
vn -0.0070 -1.0000 0.0064
vn -0.0044 -0.9986 0.0518
vn 0.0134 -0.9998 -0.0123
vn -0.0024 -0.9990 -0.0451
vn 0.0265 -0.9969 -0.0742
vn -0.0088 -0.9970 -0.0769
vn -0.0513 -0.9535 -0.2971
vn 0.0009 -0.9623 -0.2719
vn 0.0696 -0.9508 -0.3019
vn -0.0091 -0.9496 -0.3133
vn -0.0849 -0.8480 -0.5232
vn 0.0032 -0.8816 -0.4719
vn 0.1056 -0.8722 -0.4777
vn -0.0092 -0.8600 -0.5101
vn -0.0301 -0.9995 0.0087
vn -0.0060 -0.9964 0.0840
vn 0.0396 -0.9991 0.0173
vn -0.0031 -0.9586 0.2849
vn -0.0730 -0.9971 0.0204
vn -0.0041 -0.9472 0.3206
vn 0.0822 -0.9966 0.0092
vn -0.0010 -0.8820 0.4712
vn -0.1130 -0.9936 0.0080
vn -0.0054 -0.8659 0.5002
vn -0.0024 -0.9990 0.0437
vn 0.0255 -0.9971 0.0718
vn -0.0495 -0.9574 0.2846
vn 0.0666 -0.9547 0.2902
vn -0.0818 -0.8625 0.4994
vn 0.1006 -0.8833 0.4580
vn -0.0093 -0.0983 -0.9951
vn 0.0075 -0.2029 -0.9792
vn 0.0046 -0.0965 -0.9953
vn -0.0047 -0.2038 -0.9790
vn -0.0064 -0.0978 -0.9952
vn 0.0051 -0.2035 -0.9791
vn 0.0028 -0.0967 -0.9953
vn -0.0029 -0.2034 -0.9791
vn -0.0032 -0.0975 -0.9952
vn 0.0026 -0.2039 -0.9790
vn 0.0014 -0.1923 0.9813
vn -0.0012 -0.3379 0.9412
vn -0.0034 -0.1935 0.9811
vn 0.0026 -0.3392 0.9407
vn 0.0040 -0.1921 0.9814
vn -0.0036 -0.3381 0.9411
vn -0.0067 -0.1938 0.9810
vn 0.0052 -0.3389 0.9408
vn 0.0067 -0.1918 0.9814
vn -0.0060 -0.3385 0.9409
vn -0.0146 -0.9999 -0.0006
vn 0.0073 -1.0000 0.0007
vn 0.0144 -0.9999 0.0006
vn -0.0072 -1.0000 -0.0006
vn -0.0142 -0.9999 -0.0006
vn 0.0071 -1.0000 0.0007
vn 0.0140 -0.9999 0.0005
vn -0.0070 -1.0000 -0.0006
vn -0.0138 -0.9999 -0.0005
vn 0.0069 -1.0000 0.0007
vn -0.0000 -1.0000 -0.0000
vn -0.0068 -1.0000 0.0005
vn 0.0068 -1.0000 -0.0006
vn -0.0067 -1.0000 0.0005
vn 0.0066 -1.0000 -0.0006
vn 0.0129 -0.9998 0.0118
vn -0.0133 -0.9999 0.0006
vn 0.0134 -0.9999 -0.0006
vn -0.0135 -0.9999 0.0007
vn 0.0136 -0.9999 -0.0007
vn -0.0010 -0.0968 -0.9953
vn 0.0010 -0.2032 -0.9791
vn 0.0032 -0.0975 -0.9952
vn -0.0026 -0.2039 -0.9790
vn -0.0028 -0.0967 -0.9953
vn 0.0029 -0.2034 -0.9791
vn 0.0064 -0.0978 -0.9952
vn -0.0051 -0.2035 -0.9791
vn -0.0046 -0.0965 -0.9953
vn 0.0047 -0.2038 -0.9790
vn 0.0099 -0.1943 0.9809
vn -0.0077 -0.3383 0.9410
vn -0.0067 -0.1918 0.9814
vn 0.0060 -0.3385 0.9409
vn 0.0067 -0.1938 0.9810
vn -0.0052 -0.3389 0.9408
vn -0.0040 -0.1921 0.9814
vn 0.0036 -0.3381 0.9411
vn 0.0034 -0.1935 0.9811
vn -0.0026 -0.3392 0.9407
vt 0.872850 0.920555
vt 0.872850 0.903766
vt 0.899926 0.903766
vt 0.899926 0.920555
vt 0.872850 0.886114
vt 0.899926 0.886114
vt 0.924152 0.886114
vt 0.924152 0.903766
vt 0.924152 0.920555
vt 0.800140 0.131405
vt 0.800140 0.152442
vt 0.773925 0.152442
vt 0.773925 0.131405
vt 0.800140 0.278697
vt 0.800140 0.299741
vt 0.773925 0.299741
vt 0.773925 0.278697
vt 0.765811 0.299741
vt 0.765811 0.278697
vt 0.765811 0.152442
vt 0.765811 0.131405
vt 0.680523 0.758259
vt 0.680523 0.788700
vt 0.488613 0.788700
vt 0.488613 0.758259
vt 0.680523 0.820402
vt 0.488613 0.820402
vt 0.343090 0.820402
vt 0.343090 0.788700
vt 0.343090 0.758259
vt 0.751573 0.497986
vt 0.751573 0.522191
vt 0.532045 0.522191
vt 0.532045 0.497986
vt 0.751573 0.667420
vt 0.751573 0.691625
vt 0.532045 0.691625
vt 0.532045 0.667420
vt 0.377885 0.691625
vt 0.377885 0.667420
vt 0.377885 0.522191
vt 0.377885 0.497986
vt 0.004035 0.197809
vt 0.004035 0.173605
vt 0.223276 0.173605
vt 0.223276 0.197809
vt 0.004035 0.028377
vt 0.004035 0.004172
vt 0.223276 0.004172
vt 0.223276 0.028377
vt 0.377804 0.004172
vt 0.377804 0.028377
vt 0.377804 0.173605
vt 0.377804 0.197809
vt 0.845899 0.765109
vt 0.845899 0.746833
vt 0.873089 0.746833
vt 0.873089 0.765109
vt 0.845899 0.637149
vt 0.845899 0.618867
vt 0.873089 0.618867
vt 0.873089 0.637149
vt 0.879240 0.618867
vt 0.879240 0.637149
vt 0.879240 0.746833
vt 0.879240 0.765109
vt 0.800140 0.173478
vt 0.833916 0.152442
vt 0.833916 0.173478
vt 0.800140 0.026186
vt 0.800140 0.005142
vt 0.833916 0.005142
vt 0.833916 0.026186
vt 0.868139 0.005142
vt 0.868139 0.026186
vt 0.868139 0.152442
vt 0.868139 0.173478
vt 0.845899 0.728558
vt 0.805269 0.746833
vt 0.805269 0.728558
vt 0.845899 0.856518
vt 0.845899 0.874800
vt 0.805269 0.874800
vt 0.805269 0.856518
vt 0.764468 0.874800
vt 0.764468 0.856518
vt 0.764468 0.746833
vt 0.764468 0.728558
vt 0.744479 0.921934
vt 0.744479 0.938962
vt 0.719200 0.938962
vt 0.719200 0.921934
vt 0.744479 0.956951
vt 0.719200 0.956951
vt 0.691484 0.956951
vt 0.691484 0.938962
vt 0.691484 0.921934
vt 0.341344 0.887607
vt 0.341344 0.917137
vt 0.196517 0.917137
vt 0.196517 0.887607
vt 0.341344 0.948070
vt 0.196517 0.948070
vt 0.004444 0.948070
vt 0.004444 0.917137
vt 0.004444 0.887607
vt 0.744479 0.887133
vt 0.744479 0.905196
vt 0.719200 0.905196
vt 0.719200 0.887133
vt 0.691484 0.905196
vt 0.691484 0.887133
vt 0.680523 0.701146
vt 0.680523 0.730448
vt 0.488613 0.730448
vt 0.488613 0.701146
vt 0.343090 0.730448
vt 0.343090 0.701146
vt 0.341344 0.831390
vt 0.341344 0.860360
vt 0.196517 0.860360
vt 0.196517 0.831390
vt 0.004444 0.860360
vt 0.004444 0.831390
vt 0.872850 0.954731
vt 0.872850 0.937050
vt 0.899926 0.937050
vt 0.899926 0.954731
vt 0.924152 0.937050
vt 0.924152 0.954731
vt 0.762639 0.887133
vt 0.762639 0.905196
vt 0.770446 0.887133
vt 0.770446 0.905196
vt 0.770446 0.921934
vt 0.762639 0.921934
vt 0.950290 0.886114
vt 0.950290 0.903766
vt 0.942460 0.903766
vt 0.942460 0.886114
vt 0.950290 0.920555
vt 0.942460 0.920555
vt 0.762639 0.938962
vt 0.770446 0.938962
vt 0.770446 0.956951
vt 0.762639 0.956951
vt 0.942460 0.937050
vt 0.950290 0.937050
vt 0.950290 0.954731
vt 0.942460 0.954731
vt 0.897003 0.386902
vt 0.895906 0.386902
vt 0.895906 0.351525
vt 0.897003 0.351525
vt 0.897003 0.810676
vt 0.897003 0.845936
vt 0.895906 0.845936
vt 0.895906 0.810676
vt 0.894959 0.810676
vt 0.894959 0.845936
vt 0.893931 0.845936
vt 0.893931 0.810676
vt 0.892885 0.845936
vt 0.892885 0.810676
vt 0.894959 0.563786
vt 0.894959 0.599199
vt 0.893931 0.599199
vt 0.893931 0.563786
vt 0.895906 0.563786
vt 0.895906 0.599199
vt 0.892885 0.599199
vt 0.892885 0.563786
vt 0.893931 0.634410
vt 0.892885 0.634410
vt 0.893931 0.669659
vt 0.892885 0.669659
vt 0.893931 0.704919
vt 0.892885 0.704919
vt 0.893931 0.740168
vt 0.892885 0.740168
vt 0.893931 0.775427
vt 0.892885 0.775427
vt 0.895906 0.634410
vt 0.894959 0.634410
vt 0.895906 0.669659
vt 0.894959 0.669659
vt 0.895906 0.704919
vt 0.894959 0.704919
vt 0.895906 0.740168
vt 0.894959 0.740168
vt 0.895906 0.775427
vt 0.894959 0.775427
vt 0.897003 0.599199
vt 0.897003 0.634410
vt 0.897003 0.669659
vt 0.897003 0.704919
vt 0.897003 0.740168
vt 0.897003 0.775427
vt 0.805269 0.765109
vt 0.764468 0.765109
vt 0.805269 0.783391
vt 0.764468 0.783391
vt 0.805269 0.801673
vt 0.764468 0.801673
vt 0.805269 0.819955
vt 0.764468 0.819955
vt 0.805269 0.838236
vt 0.764468 0.838236
vt 0.845899 0.783391
vt 0.845899 0.801673
vt 0.845899 0.819955
vt 0.845899 0.838236
vt 0.833916 0.299741
vt 0.833916 0.278697
vt 0.868139 0.278697
vt 0.868139 0.299741
vt 0.833916 0.257653
vt 0.868139 0.257653
vt 0.833916 0.236610
vt 0.868139 0.236610
vt 0.833916 0.215566
vt 0.868139 0.215566
vt 0.833916 0.194522
vt 0.868139 0.194522
vt 0.800140 0.257653
vt 0.800140 0.236610
vt 0.800140 0.215566
vt 0.800140 0.194522
vt 0.873089 0.874800
vt 0.873089 0.856518
vt 0.879240 0.856518
vt 0.879240 0.874800
vt 0.873089 0.838236
vt 0.879240 0.838236
vt 0.873089 0.819955
vt 0.879240 0.819955
vt 0.873089 0.801673
vt 0.879240 0.801673
vt 0.873089 0.783391
vt 0.879240 0.783391
vt 0.223276 0.343037
vt 0.223276 0.318832
vt 0.377804 0.318832
vt 0.377804 0.343037
vt 0.223276 0.294628
vt 0.377804 0.294628
vt 0.223276 0.270423
vt 0.377804 0.270423
vt 0.223276 0.246218
vt 0.377804 0.246218
vt 0.223276 0.222014
vt 0.377804 0.222014
vt 0.004035 0.343037
vt 0.004035 0.318832
vt 0.004035 0.294628
vt 0.004035 0.270423
vt 0.004035 0.246218
vt 0.004035 0.222014
vt 0.532045 0.546395
vt 0.377885 0.546395
vt 0.532045 0.570600
vt 0.377885 0.570600
vt 0.532045 0.594805
vt 0.377885 0.594805
vt 0.532045 0.619010
vt 0.377885 0.619010
vt 0.532045 0.643215
vt 0.377885 0.643215
vt 0.751573 0.546395
vt 0.751573 0.570600
vt 0.751573 0.594805
vt 0.751573 0.619010
vt 0.751573 0.643215
vt 0.773925 0.173478
vt 0.765811 0.173478
vt 0.773925 0.194522
vt 0.765811 0.194522
vt 0.773925 0.215566
vt 0.765811 0.215566
vt 0.773925 0.236610
vt 0.765811 0.236610
vt 0.773925 0.257653
vt 0.765811 0.257653
vt 0.893931 0.351525
vt 0.893931 0.386902
vt 0.892885 0.386902
vt 0.892885 0.351525
vt 0.893931 0.422279
vt 0.892885 0.422279
vt 0.893931 0.457655
vt 0.892885 0.457655
vt 0.893931 0.493032
vt 0.892885 0.493032
vt 0.893931 0.528409
vt 0.892885 0.528409
vt 0.894959 0.386902
vt 0.894959 0.351525
vt 0.895906 0.422279
vt 0.894959 0.422279
vt 0.895906 0.457655
vt 0.894959 0.457655
vt 0.895906 0.493032
vt 0.894959 0.493032
vt 0.895906 0.528409
vt 0.894959 0.528409
vt 0.897003 0.563786
vt 0.897003 0.528409
vt 0.897003 0.493032
vt 0.897003 0.457655
vt 0.897003 0.422279
vt 0.805269 0.618867
vt 0.805269 0.637149
vt 0.764468 0.637149
vt 0.764468 0.618867
vt 0.805269 0.655431
vt 0.764468 0.655431
vt 0.805269 0.673712
vt 0.764468 0.673712
vt 0.805269 0.691994
vt 0.764468 0.691994
vt 0.805269 0.710276
vt 0.764468 0.710276
vt 0.845899 0.655431
vt 0.845899 0.673712
vt 0.845899 0.691994
vt 0.845899 0.710276
vt 0.833916 0.131405
vt 0.868139 0.131405
vt 0.833916 0.110361
vt 0.868139 0.110361
vt 0.833916 0.089317
vt 0.868139 0.089317
vt 0.833916 0.068273
vt 0.868139 0.068273
vt 0.833916 0.047230
vt 0.868139 0.047230
vt 0.800140 0.110361
vt 0.800140 0.089317
vt 0.800140 0.068273
vt 0.800140 0.047230
vt 0.873089 0.728558
vt 0.879240 0.728558
vt 0.873089 0.710276
vt 0.879240 0.710276
vt 0.873089 0.691994
vt 0.879240 0.691994
vt 0.873089 0.673712
vt 0.879240 0.673712
vt 0.873089 0.655431
vt 0.879240 0.655431
vt 0.223276 0.149400
vt 0.377804 0.149400
vt 0.223276 0.125196
vt 0.377804 0.125196
vt 0.223276 0.100991
vt 0.377804 0.100991
vt 0.223276 0.076786
vt 0.377804 0.076786
vt 0.223276 0.052582
vt 0.377804 0.052582
vt 0.004035 0.149400
vt 0.004035 0.125195
vt 0.004035 0.100991
vt 0.004035 0.076786
vt 0.004035 0.052582
vt 0.532045 0.352756
vt 0.532045 0.376961
vt 0.377885 0.376961
vt 0.377885 0.352756
vt 0.532045 0.401166
vt 0.377885 0.401166
vt 0.532045 0.425371
vt 0.377885 0.425371
vt 0.532045 0.449576
vt 0.377885 0.449576
vt 0.532045 0.473781
vt 0.377885 0.473781
vt 0.751573 0.352756
vt 0.751573 0.376961
vt 0.751573 0.401166
vt 0.751573 0.425371
vt 0.751573 0.449576
vt 0.751573 0.473781
vt 0.773925 0.005142
vt 0.773925 0.026186
vt 0.765811 0.026186
vt 0.765811 0.005142
vt 0.773925 0.047230
vt 0.765811 0.047230
vt 0.773925 0.068273
vt 0.765811 0.068273
vt 0.773925 0.089317
vt 0.765811 0.089317
vt 0.773925 0.110361
vt 0.765811 0.110361
vt 0.959171 0.307486
vt 0.931667 0.307486
vt 0.931667 0.290615
vt 0.959171 0.290615
vt 0.931667 0.272748
vt 0.959171 0.272748
vt 0.906390 0.290615
vt 0.906390 0.272748
vt 0.906390 0.307486
vt 0.833782 0.438128
vt 0.860061 0.438128
vt 0.860061 0.459127
vt 0.833782 0.459127
vt 0.833782 0.585140
vt 0.860061 0.585140
vt 0.860061 0.606143
vt 0.833782 0.606143
vt 0.868139 0.585140
vt 0.868139 0.606143
vt 0.868139 0.438128
vt 0.868139 0.459127
vt 0.004642 0.758259
vt 0.197590 0.758259
vt 0.197590 0.788700
vt 0.004642 0.788700
vt 0.197590 0.820402
vt 0.004642 0.820402
vt 0.004197 0.497986
vt 0.223724 0.497986
vt 0.223724 0.522191
vt 0.004197 0.522191
vt 0.004197 0.667420
vt 0.223724 0.667420
vt 0.223724 0.691625
vt 0.004197 0.691625
vt 0.751573 0.197809
vt 0.532332 0.197809
vt 0.532332 0.173605
vt 0.751573 0.173605
vt 0.751573 0.028377
vt 0.532332 0.028377
vt 0.532332 0.004172
vt 0.751573 0.004172
vt 0.912704 0.150736
vt 0.885328 0.150736
vt 0.885328 0.132566
vt 0.912704 0.132566
vt 0.912704 0.023531
vt 0.885328 0.023531
vt 0.885328 0.005357
vt 0.912704 0.005357
vt 0.879241 0.023531
vt 0.879241 0.005357
vt 0.879241 0.150736
vt 0.879241 0.132566
vt 0.833782 0.480125
vt 0.799923 0.480125
vt 0.799923 0.459127
vt 0.833782 0.333113
vt 0.799923 0.333113
vt 0.799923 0.312110
vt 0.833782 0.312110
vt 0.765614 0.333113
vt 0.765614 0.312110
vt 0.765614 0.480125
vt 0.765614 0.459127
vt 0.912704 0.114397
vt 0.953613 0.114397
vt 0.953613 0.132566
vt 0.912704 0.241602
vt 0.953613 0.241602
vt 0.953613 0.259776
vt 0.912704 0.259776
vt 0.994696 0.241602
vt 0.994696 0.259776
vt 0.994696 0.114397
vt 0.994696 0.132566
vt 0.807169 0.921590
vt 0.833322 0.921590
vt 0.833322 0.938773
vt 0.807169 0.938773
vt 0.833322 0.956951
vt 0.807169 0.956951
vt 0.861478 0.938773
vt 0.861478 0.956951
vt 0.861478 0.921590
vt 0.486284 0.887607
vt 0.486284 0.917137
vt 0.486284 0.948070
vt 0.679413 0.917137
vt 0.679413 0.948070
vt 0.679413 0.887607
vt 0.807169 0.886536
vt 0.833322 0.886536
vt 0.833322 0.904747
vt 0.807169 0.904747
vt 0.861478 0.904747
vt 0.861478 0.886536
vt 0.004642 0.701146
vt 0.197590 0.701146
vt 0.197590 0.730448
vt 0.004642 0.730448
vt 0.486284 0.831390
vt 0.486284 0.860360
vt 0.679413 0.860360
vt 0.679413 0.831390
vt 0.959171 0.341927
vt 0.931667 0.341927
vt 0.931667 0.324023
vt 0.959171 0.324023
vt 0.906390 0.324023
vt 0.906390 0.341927
vt 0.790731 0.904747
vt 0.790731 0.886536
vt 0.783185 0.904747
vt 0.783185 0.886536
vt 0.790731 0.921590
vt 0.783185 0.921590
vt 0.882361 0.272748
vt 0.889876 0.272748
vt 0.889876 0.290615
vt 0.882361 0.290615
vt 0.889876 0.307486
vt 0.882361 0.307486
vt 0.790731 0.938773
vt 0.783185 0.938773
vt 0.790731 0.956951
vt 0.783185 0.956951
vt 0.889876 0.324023
vt 0.882361 0.324023
vt 0.889876 0.341927
vt 0.882361 0.341927
vt 0.910325 0.810559
vt 0.910325 0.845936
vt 0.909228 0.845936
vt 0.909228 0.810559
vt 0.910325 0.386782
vt 0.909228 0.386782
vt 0.909228 0.351523
vt 0.910325 0.351523
vt 0.908279 0.386782
vt 0.907251 0.386782
vt 0.907251 0.351523
vt 0.908279 0.351523
vt 0.906207 0.386782
vt 0.906207 0.351523
vt 0.908279 0.633677
vt 0.907251 0.633677
vt 0.907251 0.598262
vt 0.908279 0.598262
vt 0.909228 0.633677
vt 0.909228 0.598262
vt 0.906207 0.633677
vt 0.906207 0.598262
vt 0.906207 0.563049
vt 0.907251 0.563049
vt 0.906207 0.527800
vt 0.907251 0.527800
vt 0.906207 0.492540
vt 0.907251 0.492540
vt 0.906207 0.457291
vt 0.907251 0.457291
vt 0.906207 0.422032
vt 0.907251 0.422032
vt 0.908279 0.563049
vt 0.909228 0.563049
vt 0.908279 0.527800
vt 0.909228 0.527800
vt 0.908279 0.492540
vt 0.909228 0.492540
vt 0.908279 0.457291
vt 0.909228 0.457291
vt 0.908279 0.422032
vt 0.909228 0.422032
vt 0.910325 0.598262
vt 0.910325 0.563049
vt 0.910325 0.527800
vt 0.910325 0.492540
vt 0.910325 0.457291
vt 0.910325 0.422032
vt 0.994696 0.150736
vt 0.953613 0.150736
vt 0.994696 0.168909
vt 0.953613 0.168909
vt 0.994696 0.187083
vt 0.953613 0.187083
vt 0.994696 0.205256
vt 0.953613 0.205256
vt 0.994696 0.223429
vt 0.953613 0.223429
vt 0.912704 0.168909
vt 0.912704 0.187083
vt 0.912704 0.205256
vt 0.912704 0.223429
vt 0.799923 0.606143
vt 0.765614 0.606143
vt 0.765614 0.585140
vt 0.799923 0.585140
vt 0.765614 0.564137
vt 0.799923 0.564137
vt 0.765614 0.543134
vt 0.799923 0.543134
vt 0.765614 0.522131
vt 0.799923 0.522131
vt 0.765614 0.501128
vt 0.799923 0.501128
vt 0.833782 0.564137
vt 0.833782 0.543134
vt 0.833782 0.522131
vt 0.833782 0.501128
vt 0.885328 0.259776
vt 0.879241 0.259776
vt 0.879241 0.241602
vt 0.885328 0.241602
vt 0.879241 0.223429
vt 0.885328 0.223429
vt 0.879241 0.205256
vt 0.885328 0.205256
vt 0.879241 0.187083
vt 0.885328 0.187083
vt 0.879241 0.168909
vt 0.885328 0.168909
vt 0.532332 0.343037
vt 0.532332 0.318832
vt 0.532332 0.294628
vt 0.532332 0.270423
vt 0.532332 0.246218
vt 0.532332 0.222014
vt 0.751573 0.343037
vt 0.751573 0.318832
vt 0.751573 0.294628
vt 0.751573 0.270423
vt 0.751573 0.246218
vt 0.751573 0.222014
vt 0.223724 0.546395
vt 0.223724 0.570600
vt 0.223724 0.594805
vt 0.223724 0.619010
vt 0.223724 0.643215
vt 0.004197 0.546395
vt 0.004197 0.570600
vt 0.004197 0.594805
vt 0.004197 0.619010
vt 0.004197 0.643215
vt 0.868139 0.480125
vt 0.860061 0.480125
vt 0.868139 0.501128
vt 0.860061 0.501128
vt 0.868139 0.522131
vt 0.860061 0.522131
vt 0.868139 0.543134
vt 0.860061 0.543134
vt 0.868139 0.564137
vt 0.860061 0.564137
vt 0.907251 0.845936
vt 0.906207 0.845936
vt 0.906207 0.810559
vt 0.907251 0.810559
vt 0.906207 0.775183
vt 0.907251 0.775183
vt 0.906207 0.739806
vt 0.907251 0.739806
vt 0.906207 0.704430
vt 0.907251 0.704430
vt 0.906207 0.669053
vt 0.907251 0.669053
vt 0.908279 0.845936
vt 0.908279 0.810559
vt 0.908279 0.775183
vt 0.909228 0.775183
vt 0.908279 0.739806
vt 0.909228 0.739806
vt 0.908279 0.704430
vt 0.909228 0.704430
vt 0.908279 0.669053
vt 0.909228 0.669053
vt 0.910325 0.633677
vt 0.910325 0.669053
vt 0.910325 0.704430
vt 0.910325 0.739806
vt 0.910325 0.775183
vt 0.953613 0.005357
vt 0.994696 0.005357
vt 0.994696 0.023531
vt 0.953613 0.023531
vt 0.994696 0.041704
vt 0.953613 0.041704
vt 0.994696 0.059877
vt 0.953613 0.059877
vt 0.994696 0.078050
vt 0.953613 0.078050
vt 0.994696 0.096224
vt 0.953613 0.096224
vt 0.912704 0.041704
vt 0.912704 0.059877
vt 0.912704 0.078050
vt 0.912704 0.096224
vt 0.765614 0.438128
vt 0.799923 0.438128
vt 0.765614 0.417125
vt 0.799923 0.417125
vt 0.765614 0.396122
vt 0.799923 0.396122
vt 0.765614 0.375119
vt 0.799923 0.375119
vt 0.765614 0.354116
vt 0.799923 0.354116
vt 0.833782 0.417125
vt 0.833782 0.396122
vt 0.833782 0.375119
vt 0.833782 0.354116
vt 0.879241 0.114397
vt 0.885328 0.114397
vt 0.879241 0.096224
vt 0.885328 0.096224
vt 0.879241 0.078050
vt 0.885328 0.078050
vt 0.879241 0.059877
vt 0.885328 0.059877
vt 0.879241 0.041704
vt 0.885328 0.041704
vt 0.532332 0.149400
vt 0.532332 0.125196
vt 0.532332 0.100991
vt 0.532332 0.076786
vt 0.532332 0.052582
vt 0.751573 0.149400
vt 0.751573 0.125196
vt 0.751573 0.100991
vt 0.751573 0.076786
vt 0.751573 0.052582
vt 0.223724 0.352756
vt 0.223724 0.376961
vt 0.223724 0.401166
vt 0.223724 0.425371
vt 0.223724 0.449576
vt 0.223724 0.473781
vt 0.004197 0.352756
vt 0.004197 0.376961
vt 0.004197 0.401166
vt 0.004197 0.425371
vt 0.004197 0.449576
vt 0.004197 0.473781
vt 0.860061 0.312110
vt 0.868139 0.312110
vt 0.868139 0.333113
vt 0.860061 0.333113
vt 0.868139 0.354116
vt 0.860061 0.354116
vt 0.868139 0.375119
vt 0.860061 0.375119
vt 0.868139 0.396122
vt 0.860061 0.396122
vt 0.868139 0.417125
vt 0.860061 0.417125
s 1
usemtl Chocolate_3
f 20/1/1 56/2/2 67/3/3 58/4/4
f 56/2/2 12/5/5 27/6/6 67/3/3
f 67/3/3 27/6/6 4/7/7 55/8/8
f 58/4/4 67/3/3 55/8/8 19/9/9
f 201/10/10 30/11/10 68/12/11 243/13/12
f 99/14/10 8/15/13 40/16/14 136/17/15
f 136/17/15 40/16/14 21/18/16 112/19/17
f 243/13/12 68/12/11 37/20/18 214/21/19
f 17/22/20 51/23/21 69/24/22 53/25/23
f 51/23/21 14/26/24 33/27/25 69/24/22
f 69/24/22 33/27/25 6/28/26 50/29/27
f 53/25/23 69/24/22 50/29/27 16/30/28
f 226/31/29 46/32/29 70/33/30 249/34/30
f 124/35/29 13/36/31 43/37/32 142/38/30
f 142/38/30 43/37/32 5/39/33 105/40/34
f 249/34/30 70/33/30 35/41/34 207/42/34
f 118/43/35 45/44/35 71/45/36 153/46/36
f 220/47/35 12/48/5 42/49/37 250/50/36
f 250/50/36 42/49/37 2/51/38 213/52/39
f 153/46/36 71/45/36 36/53/39 111/54/39
f 93/55/40 29/56/40 72/57/41 159/58/42
f 195/59/40 3/60/43 61/61/44 256/62/45
f 256/62/45 61/61/44 9/63/46 237/64/47
f 159/58/42 72/57/41 59/65/48 135/66/49
f 94/67/10 30/11/10 73/68/50 165/69/50
f 196/70/10 4/71/7 27/72/6 262/73/50
f 262/73/50 27/72/6 12/74/5 220/75/35
f 165/69/50 73/68/50 45/76/35 118/77/35
f 190/78/40 29/56/40 74/79/51 273/80/51
f 88/81/40 7/82/52 32/83/53 166/84/51
f 166/84/51 32/83/53 13/85/31 124/86/29
f 273/80/51 74/79/51 46/87/29 226/88/29
f 15/89/54 49/90/55 75/91/56 52/92/57
f 49/90/55 8/93/13 44/94/58 75/91/56
f 75/91/56 44/94/58 14/95/24 51/96/21
f 52/92/57 75/91/56 51/96/21 17/97/20
f 18/98/59 26/99/60 76/100/61 57/101/62
f 26/99/60 2/102/38 42/103/37 76/100/61
f 76/100/61 42/103/37 12/104/5 56/105/2
f 57/101/62 76/100/61 56/105/2 20/106/1
f 7/107/52 31/108/63 77/109/64 32/110/53
f 31/108/63 15/89/54 52/92/57 77/109/64
f 77/109/64 52/92/57 17/97/20 47/111/65
f 32/110/53 77/109/64 47/111/65 13/112/31
f 13/113/31 47/114/65 78/115/66 43/116/32
f 47/114/65 17/22/20 53/25/23 78/115/66
f 78/115/66 53/25/23 16/30/28 34/117/67
f 43/116/32 78/115/66 34/117/67 5/118/33
f 1/119/68 54/120/69 79/121/70 25/122/71
f 54/120/69 18/98/59 57/101/62 79/121/70
f 79/121/70 57/101/62 20/106/1 48/123/72
f 25/122/71 79/121/70 48/123/72 11/124/73
f 11/125/73 48/126/72 80/127/74 41/128/75
f 48/126/72 20/1/1 58/4/4 80/127/74
f 80/127/74 58/4/4 19/9/9 28/129/76
f 41/128/75 80/127/74 28/129/76 3/130/43
f 7/107/52 60/131/77 81/132/78 31/108/63
f 60/131/77 10/133/79 62/134/80 81/132/78
f 81/132/78 62/134/80 23/135/81 64/136/82
f 31/108/63 81/132/78 64/136/82 15/89/54
f 22/137/83 65/138/84 82/139/85 38/140/86
f 65/138/84 24/141/87 66/142/88 82/139/85
f 82/139/85 66/142/88 19/9/9 55/8/8
f 38/140/86 82/139/85 55/8/8 4/7/7
f 15/89/54 64/136/82 83/143/89 49/90/55
f 64/136/82 23/135/81 63/144/90 83/143/89
f 83/143/89 63/144/90 21/145/16 40/146/14
f 49/90/55 83/143/89 40/146/14 8/93/13
f 19/9/9 66/142/88 84/147/91 28/129/76
f 66/142/88 24/141/87 39/148/92 84/147/91
f 84/147/91 39/148/92 9/149/46 61/150/44
f 28/129/76 84/147/91 61/150/44 3/130/43
f 219/151/93 285/152/94 65/153/84 22/154/83
f 112/155/95 21/156/16 63/157/90 178/158/96
f 172/159/97 23/160/81 62/161/80 184/162/98
f 178/158/96 63/157/90 23/160/81 172/159/97
f 184/162/98 62/161/80 10/163/79 130/164/99
f 279/165/100 85/166/101 87/167/102 286/168/103
f 280/169/104 86/170/105 85/166/101 279/165/100
f 286/168/103 87/167/102 59/171/106 232/172/107
f 87/167/102 189/173/108 135/174/109 59/171/106
f 189/173/108 188/175/110 134/176/111 135/174/109
f 188/175/110 187/177/112 133/178/113 134/176/111
f 187/177/112 186/179/114 132/180/115 133/178/113
f 186/179/114 185/181/116 131/182/117 132/180/115
f 185/181/116 184/162/98 130/164/99 131/182/117
f 86/170/105 183/183/118 177/184/119 85/166/101
f 183/183/118 182/185/120 176/186/121 177/184/119
f 182/185/120 181/187/122 175/188/123 176/186/121
f 181/187/122 180/189/124 174/190/125 175/188/123
f 180/189/124 179/191/126 173/192/127 174/190/125
f 179/191/126 178/158/96 172/159/97 173/192/127
f 85/166/101 177/184/119 189/173/108 87/167/102
f 177/184/119 176/186/121 188/175/110 189/173/108
f 176/186/121 175/188/123 187/177/112 188/175/110
f 175/188/123 174/190/125 186/179/114 187/177/112
f 174/190/125 173/192/127 185/181/116 186/179/114
f 173/192/127 172/159/97 184/162/98 185/181/116
f 37/193/128 117/194/129 183/183/118 86/170/105
f 117/194/129 116/195/130 182/185/120 183/183/118
f 116/195/130 115/196/131 181/187/122 182/185/120
f 115/196/131 114/197/132 180/189/124 181/187/122
f 114/197/132 113/198/133 179/191/126 180/189/124
f 113/198/133 112/155/95 178/158/96 179/191/126
f 74/79/51 171/199/51 129/200/29 46/87/29
f 171/199/51 170/201/51 128/202/29 129/200/29
f 170/201/51 169/203/51 127/204/29 128/202/29
f 169/203/51 168/205/51 126/206/29 127/204/29
f 168/205/51 167/207/51 125/208/29 126/206/29
f 167/207/51 166/84/51 124/86/29 125/208/29
f 29/56/40 93/55/40 171/199/51 74/79/51
f 93/55/40 92/209/40 170/201/51 171/199/51
f 92/209/40 91/210/40 169/203/51 170/201/51
f 91/210/40 90/211/40 168/205/51 169/203/51
f 90/211/40 89/212/40 167/207/51 168/205/51
f 89/212/40 88/81/40 166/84/51 167/207/51
f 44/213/58 160/214/50 123/215/35 14/216/24
f 160/214/50 161/217/50 122/218/35 123/215/35
f 161/217/50 162/219/50 121/220/35 122/218/35
f 162/219/50 163/221/50 120/222/35 121/220/35
f 163/221/50 164/223/50 119/224/35 120/222/35
f 164/223/50 165/69/50 118/77/35 119/224/35
f 8/15/13 99/14/10 160/214/50 44/213/58
f 99/14/10 98/225/10 161/217/50 160/214/50
f 98/225/10 97/226/10 162/219/50 161/217/50
f 97/226/10 96/227/10 163/221/50 162/219/50
f 96/227/10 95/228/10 164/223/50 163/221/50
f 95/228/10 94/67/10 165/69/50 164/223/50
f 60/229/77 154/230/134 130/231/135 10/232/79
f 154/230/134 155/233/136 131/234/137 130/231/135
f 155/233/136 156/235/138 132/236/139 131/234/137
f 156/235/138 157/237/140 133/238/141 132/236/139
f 157/237/140 158/239/142 134/240/143 133/238/141
f 158/239/142 159/58/42 135/66/49 134/240/143
f 7/82/52 88/81/40 154/230/134 60/229/77
f 88/81/40 89/212/40 155/233/136 154/230/134
f 89/212/40 90/211/40 156/235/138 155/233/136
f 90/211/40 91/210/40 157/237/140 156/235/138
f 91/210/40 92/209/40 158/239/142 157/237/140
f 92/209/40 93/55/40 159/58/42 158/239/142
f 33/241/25 148/242/36 106/243/39 6/244/26
f 148/242/36 149/245/36 107/246/39 106/243/39
f 149/245/36 150/247/36 108/248/39 107/246/39
f 150/247/36 151/249/36 109/250/39 108/248/39
f 151/249/36 152/251/36 110/252/39 109/250/39
f 152/251/36 153/46/36 111/54/39 110/252/39
f 14/253/24 123/254/35 148/242/36 33/241/25
f 123/254/35 122/255/35 149/245/36 148/242/36
f 122/255/35 121/256/35 150/247/36 149/245/36
f 121/256/35 120/257/35 151/249/36 150/247/36
f 120/257/35 119/258/35 152/251/36 151/249/36
f 119/258/35 118/43/35 153/46/36 152/251/36
f 70/33/30 147/259/30 100/260/34 35/41/34
f 147/259/30 146/261/30 101/262/34 100/260/34
f 146/261/30 145/263/30 102/264/34 101/262/34
f 145/263/30 144/265/30 103/266/34 102/264/34
f 144/265/30 143/267/30 104/268/34 103/266/34
f 143/267/30 142/38/30 105/40/34 104/268/34
f 46/32/29 129/269/29 147/259/30 70/33/30
f 129/269/29 128/270/29 146/261/30 147/259/30
f 128/270/29 127/271/29 145/263/30 146/261/30
f 127/271/29 126/272/29 144/265/30 145/263/30
f 126/272/29 125/273/29 143/267/30 144/265/30
f 125/273/29 124/35/29 142/38/30 143/267/30
f 68/12/11 141/274/144 117/275/145 37/20/18
f 141/274/144 140/276/146 116/277/147 117/275/145
f 140/276/146 139/278/148 115/279/149 116/277/147
f 139/278/148 138/280/150 114/281/151 115/279/149
f 138/280/150 137/282/152 113/283/153 114/281/151
f 137/282/152 136/17/15 112/19/17 113/283/153
f 30/11/10 94/67/10 141/274/144 68/12/11
f 94/67/10 95/228/10 140/276/146 141/274/144
f 95/228/10 96/227/10 139/278/148 140/276/146
f 96/227/10 97/226/10 138/280/150 139/278/148
f 97/226/10 98/225/10 137/282/152 138/280/150
f 98/225/10 99/14/10 136/17/15 137/282/152
f 39/284/92 291/285/154 237/286/155 9/287/46
f 291/285/154 290/288/156 236/289/157 237/286/155
f 290/288/156 289/290/158 235/291/159 236/289/157
f 289/290/158 288/292/160 234/293/161 235/291/159
f 288/292/160 287/294/162 233/295/163 234/293/161
f 287/294/162 286/168/103 232/172/107 233/295/163
f 65/153/84 285/152/94 274/296/164 24/297/87
f 285/152/94 284/298/165 275/299/164 274/296/164
f 284/298/165 283/300/166 276/301/164 275/299/164
f 283/300/166 282/302/167 277/303/164 276/301/164
f 282/302/167 281/304/168 278/305/164 277/303/164
f 281/304/168 280/169/104 279/165/100 278/305/164
f 24/297/87 274/296/164 291/285/154 39/284/92
f 274/296/164 275/299/164 290/288/156 291/285/154
f 275/299/164 276/301/164 289/290/158 290/288/156
f 276/301/164 277/303/164 288/292/160 289/290/158
f 277/303/164 278/305/164 287/294/162 288/292/160
f 278/305/164 279/165/100 286/168/103 287/294/162
f 37/193/128 86/170/105 280/169/104 214/306/169
f 214/306/169 280/169/104 281/304/168 215/307/170
f 215/307/170 281/304/168 282/302/167 216/308/171
f 216/308/171 282/302/167 283/300/166 217/309/172
f 217/309/172 283/300/166 284/298/165 218/310/173
f 218/310/173 284/298/165 285/152/94 219/151/93
f 41/311/75 268/312/51 231/313/29 11/314/73
f 268/312/51 269/315/51 230/316/29 231/313/29
f 269/315/51 270/317/51 229/318/29 230/316/29
f 270/317/51 271/319/51 228/320/29 229/318/29
f 271/319/51 272/321/51 227/322/29 228/320/29
f 272/321/51 273/80/51 226/88/29 227/322/29
f 3/60/43 195/59/40 268/312/51 41/311/75
f 195/59/40 194/323/40 269/315/51 268/312/51
f 194/323/40 193/324/40 270/317/51 269/315/51
f 193/324/40 192/325/40 271/319/51 270/317/51
f 192/325/40 191/326/40 272/321/51 271/319/51
f 191/326/40 190/78/40 273/80/51 272/321/51
f 73/68/50 267/327/50 225/328/35 45/76/35
f 267/327/50 266/329/50 224/330/35 225/328/35
f 266/329/50 265/331/50 223/332/35 224/330/35
f 265/331/50 264/333/50 222/334/35 223/332/35
f 264/333/50 263/335/50 221/336/35 222/334/35
f 263/335/50 262/73/50 220/75/35 221/336/35
f 30/11/10 201/10/10 267/327/50 73/68/50
f 201/10/10 200/337/10 266/329/50 267/327/50
f 200/337/10 199/338/10 265/331/50 266/329/50
f 199/338/10 198/339/10 264/333/50 265/331/50
f 198/339/10 197/340/10 263/335/50 264/333/50
f 197/340/10 196/70/10 262/73/50 263/335/50
f 72/57/41 261/341/174 232/342/175 59/65/48
f 261/341/174 260/343/176 233/344/177 232/342/175
f 260/343/176 259/345/178 234/346/179 233/344/177
f 259/345/178 258/347/180 235/348/181 234/346/179
f 258/347/180 257/349/182 236/350/183 235/348/181
f 257/349/182 256/62/45 237/64/47 236/350/183
f 29/56/40 190/78/40 261/341/174 72/57/41
f 190/78/40 191/326/40 260/343/176 261/341/174
f 191/326/40 192/325/40 259/345/178 260/343/176
f 192/325/40 193/324/40 258/347/180 259/345/178
f 193/324/40 194/323/40 257/349/182 258/347/180
f 194/323/40 195/59/40 256/62/45 257/349/182
f 71/45/36 255/351/36 208/352/39 36/53/39
f 255/351/36 254/353/36 209/354/39 208/352/39
f 254/353/36 253/355/36 210/356/39 209/354/39
f 253/355/36 252/357/36 211/358/39 210/356/39
f 252/357/36 251/359/36 212/360/39 211/358/39
f 251/359/36 250/50/36 213/52/39 212/360/39
f 45/44/35 225/361/35 255/351/36 71/45/36
f 225/361/35 224/362/35 254/353/36 255/351/36
f 224/362/35 223/363/35 253/355/36 254/353/36
f 223/363/35 222/364/35 252/357/36 253/355/36
f 222/364/35 221/365/35 251/359/36 252/357/36
f 221/365/35 220/47/35 250/50/36 251/359/36
f 25/366/71 244/367/30 202/368/34 1/369/68
f 244/367/30 245/370/30 203/371/34 202/368/34
f 245/370/30 246/372/30 204/373/34 203/371/34
f 246/372/30 247/374/30 205/375/34 204/373/34
f 247/374/30 248/376/30 206/377/34 205/375/34
f 248/376/30 249/34/30 207/42/34 206/377/34
f 11/378/73 231/379/29 244/367/30 25/366/71
f 231/379/29 230/380/29 245/370/30 244/367/30
f 230/380/29 229/381/29 246/372/30 245/370/30
f 229/381/29 228/382/29 247/374/30 246/372/30
f 228/382/29 227/383/29 248/376/30 247/374/30
f 227/383/29 226/31/29 249/34/30 248/376/30
f 38/384/86 238/385/184 219/386/185 22/387/83
f 238/385/184 239/388/186 218/389/187 219/386/185
f 239/388/186 240/390/188 217/391/189 218/389/187
f 240/390/188 241/392/190 216/393/191 217/391/189
f 241/392/190 242/394/192 215/395/193 216/393/191
f 242/394/192 243/13/12 214/21/19 215/395/193
f 4/71/7 196/70/10 238/385/184 38/384/86
f 196/70/10 197/340/10 239/388/186 238/385/184
f 197/340/10 198/339/10 240/390/188 239/388/186
f 198/339/10 199/338/10 241/392/190 240/390/188
f 199/338/10 200/337/10 242/394/192 241/392/190
f 200/337/10 201/10/10 243/13/12 242/394/192
f 305/396/194 337/397/195 346/398/196 335/399/197
f 335/399/197 346/398/196 311/400/198 299/401/199
f 346/398/196 334/402/200 293/403/201 311/400/198
f 337/397/195 304/404/202 334/402/200 346/398/196
f 468/405/203 498/406/204 347/407/205 314/408/203
f 378/409/203 403/410/206 321/411/207 295/412/208
f 403/410/206 379/413/209 306/414/210 321/411/207
f 498/406/204 469/415/211 318/416/212 347/407/205
f 303/417/213 333/418/214 348/419/215 331/420/216
f 331/420/216 348/419/215 317/421/217 301/422/218
f 348/419/215 50/29/27 6/28/26 317/421/217
f 333/418/214 16/30/28 50/29/27 348/419/215
f 481/423/219 504/424/220 349/425/220 327/426/219
f 391/427/219 409/428/220 324/429/221 300/430/222
f 409/428/220 105/40/34 5/39/33 324/429/221
f 504/424/220 207/42/34 35/41/34 349/425/220
f 385/431/223 420/432/224 350/433/224 326/434/223
f 475/435/223 505/436/224 323/437/225 299/438/199
f 505/436/224 213/52/39 2/51/38 323/437/225
f 420/432/224 111/54/39 36/53/39 350/433/224
f 372/439/226 426/440/227 351/441/228 313/442/226
f 462/443/226 511/444/229 340/445/230 292/446/231
f 511/444/229 492/447/232 296/448/233 340/445/230
f 426/440/227 402/449/234 338/450/235 351/441/228
f 373/451/203 432/452/236 352/453/236 314/408/203
f 463/454/203 517/455/236 311/456/198 293/457/201
f 517/455/236 475/458/223 299/459/199 311/456/198
f 432/452/236 385/460/223 326/461/223 352/453/236
f 457/462/226 528/463/237 353/464/237 313/442/226
f 367/465/226 433/466/237 316/467/238 294/468/239
f 433/466/237 391/469/219 300/470/222 316/467/238
f 528/463/237 481/471/219 327/472/219 353/464/237
f 302/473/240 332/474/241 354/475/242 330/476/243
f 330/476/243 354/475/242 325/477/244 295/478/208
f 354/475/242 331/479/216 301/480/218 325/477/244
f 332/474/241 303/481/213 331/479/216 354/475/242
f 18/98/59 336/482/245 355/483/246 26/99/60
f 26/99/60 355/483/246 323/484/225 2/102/38
f 355/483/246 335/485/197 299/486/199 323/484/225
f 336/482/245 305/487/194 335/485/197 355/483/246
f 294/488/239 316/489/238 356/490/247 315/491/248
f 315/491/248 356/490/247 332/474/241 302/473/240
f 356/490/247 328/492/249 303/481/213 332/474/241
f 316/489/238 300/493/222 328/492/249 356/490/247
f 300/494/222 324/495/221 357/496/250 328/497/249
f 328/497/249 357/496/250 333/418/214 303/417/213
f 357/496/250 34/117/67 16/30/28 333/418/214
f 324/495/221 5/118/33 34/117/67 357/496/250
f 1/119/68 310/498/251 358/499/252 54/120/69
f 54/120/69 358/499/252 336/482/245 18/98/59
f 358/499/252 329/500/253 305/487/194 336/482/245
f 310/498/251 298/501/254 329/500/253 358/499/252
f 298/502/254 322/503/255 359/504/256 329/505/253
f 329/505/253 359/504/256 337/397/195 305/396/194
f 359/504/256 312/506/257 304/404/202 337/397/195
f 322/503/255 292/507/231 312/506/257 359/504/256
f 294/488/239 315/491/248 360/508/258 339/509/259
f 339/509/259 360/508/258 341/510/260 297/511/261
f 360/508/258 343/512/262 308/513/263 341/510/260
f 315/491/248 302/473/240 343/512/262 360/508/258
f 307/514/264 319/515/265 361/516/266 344/517/267
f 344/517/267 361/516/266 345/518/268 309/519/269
f 361/516/266 334/402/200 304/404/202 345/518/268
f 319/515/265 293/403/201 334/402/200 361/516/266
f 302/473/240 330/476/243 362/520/270 343/512/262
f 343/512/262 362/520/270 342/521/271 308/513/263
f 362/520/270 321/522/207 306/523/210 342/521/271
f 330/476/243 295/478/208 321/522/207 362/520/270
f 304/404/202 312/506/257 363/524/272 345/518/268
f 345/518/268 363/524/272 320/525/273 309/519/269
f 363/524/272 340/526/230 296/527/233 320/525/273
f 312/506/257 292/507/231 340/526/230 363/524/272
f 474/528/274 307/529/264 344/530/267 540/531/275
f 379/532/276 445/533/277 342/534/271 306/535/210
f 439/536/278 451/537/279 341/538/260 308/539/263
f 445/533/277 439/536/278 308/539/263 342/534/271
f 451/537/279 397/540/280 297/541/261 341/538/260
f 534/542/281 541/543/282 366/544/283 364/545/284
f 535/546/285 534/542/281 364/545/284 365/547/286
f 541/543/282 487/548/287 338/549/288 366/544/283
f 366/544/283 338/549/288 402/550/289 456/551/290
f 456/551/290 402/550/289 401/552/291 455/553/292
f 455/553/292 401/552/291 400/554/293 454/555/294
f 454/555/294 400/554/293 399/556/295 453/557/296
f 453/557/296 399/556/295 398/558/297 452/559/298
f 452/559/298 398/558/297 397/540/280 451/537/279
f 365/547/286 364/545/284 444/560/299 450/561/300
f 450/561/300 444/560/299 443/562/301 449/563/302
f 449/563/302 443/562/301 442/564/303 448/565/304
f 448/565/304 442/564/303 441/566/305 447/567/306
f 447/567/306 441/566/305 440/568/307 446/569/308
f 446/569/308 440/568/307 439/536/278 445/533/277
f 364/545/284 366/544/283 456/551/290 444/560/299
f 444/560/299 456/551/290 455/553/292 443/562/301
f 443/562/301 455/553/292 454/555/294 442/564/303
f 442/564/303 454/555/294 453/557/296 441/566/305
f 441/566/305 453/557/296 452/559/298 440/568/307
f 440/568/307 452/559/298 451/537/279 439/536/278
f 318/570/309 365/547/286 450/561/300 384/571/310
f 384/571/310 450/561/300 449/563/302 383/572/311
f 383/572/311 449/563/302 448/565/304 382/573/312
f 382/573/312 448/565/304 447/567/306 381/574/313
f 381/574/313 447/567/306 446/569/308 380/575/314
f 380/575/314 446/569/308 445/533/277 379/532/276
f 353/464/237 327/472/219 396/576/219 438/577/237
f 438/577/237 396/576/219 395/578/219 437/579/237
f 437/579/237 395/578/219 394/580/219 436/581/237
f 436/581/237 394/580/219 393/582/219 435/583/237
f 435/583/237 393/582/219 392/584/219 434/585/237
f 434/585/237 392/584/219 391/469/219 433/466/237
f 313/442/226 353/464/237 438/577/237 372/439/226
f 372/439/226 438/577/237 437/579/237 371/586/226
f 371/586/226 437/579/237 436/581/237 370/587/226
f 370/587/226 436/581/237 435/583/237 369/588/226
f 369/588/226 435/583/237 434/585/237 368/589/226
f 368/589/226 434/585/237 433/466/237 367/465/226
f 325/590/244 301/591/218 390/592/223 427/593/236
f 427/593/236 390/592/223 389/594/223 428/595/236
f 428/595/236 389/594/223 388/596/223 429/597/236
f 429/597/236 388/596/223 387/598/223 430/599/236
f 430/599/236 387/598/223 386/600/223 431/601/236
f 431/601/236 386/600/223 385/460/223 432/452/236
f 295/412/208 325/590/244 427/593/236 378/409/203
f 378/409/203 427/593/236 428/595/236 377/602/203
f 377/602/203 428/595/236 429/597/236 376/603/203
f 376/603/203 429/597/236 430/599/236 375/604/203
f 375/604/203 430/599/236 431/601/236 374/605/203
f 374/605/203 431/601/236 432/452/236 373/451/203
f 339/606/259 297/607/261 397/608/315 421/609/316
f 421/609/316 397/608/315 398/610/317 422/611/318
f 422/611/318 398/610/317 399/612/319 423/613/320
f 423/613/320 399/612/319 400/614/321 424/615/322
f 424/615/322 400/614/321 401/616/323 425/617/324
f 425/617/324 401/616/323 402/449/234 426/440/227
f 294/468/239 339/606/259 421/609/316 367/465/226
f 367/465/226 421/609/316 422/611/318 368/589/226
f 368/589/226 422/611/318 423/613/320 369/588/226
f 369/588/226 423/613/320 424/615/322 370/587/226
f 370/587/226 424/615/322 425/617/324 371/586/226
f 371/586/226 425/617/324 426/440/227 372/439/226
f 317/618/217 6/244/26 106/243/39 415/619/224
f 415/619/224 106/243/39 107/246/39 416/620/224
f 416/620/224 107/246/39 108/248/39 417/621/224
f 417/621/224 108/248/39 109/250/39 418/622/224
f 418/622/224 109/250/39 110/252/39 419/623/224
f 419/623/224 110/252/39 111/54/39 420/432/224
f 301/624/218 317/618/217 415/619/224 390/625/223
f 390/625/223 415/619/224 416/620/224 389/626/223
f 389/626/223 416/620/224 417/621/224 388/627/223
f 388/627/223 417/621/224 418/622/224 387/628/223
f 387/628/223 418/622/224 419/623/224 386/629/223
f 386/629/223 419/623/224 420/432/224 385/431/223
f 349/425/220 35/41/34 100/260/34 414/630/220
f 414/630/220 100/260/34 101/262/34 413/631/220
f 413/631/220 101/262/34 102/264/34 412/632/220
f 412/632/220 102/264/34 103/266/34 411/633/220
f 411/633/220 103/266/34 104/268/34 410/634/220
f 410/634/220 104/268/34 105/40/34 409/428/220
f 327/426/219 349/425/220 414/630/220 396/635/219
f 396/635/219 414/630/220 413/631/220 395/636/219
f 395/636/219 413/631/220 412/632/220 394/637/219
f 394/637/219 412/632/220 411/633/220 393/638/219
f 393/638/219 411/633/220 410/634/220 392/639/219
f 392/639/219 410/634/220 409/428/220 391/427/219
f 347/407/205 318/416/212 384/640/325 408/641/326
f 408/641/326 384/640/325 383/642/327 407/643/328
f 407/643/328 383/642/327 382/644/329 406/645/330
f 406/645/330 382/644/329 381/646/331 405/647/332
f 405/647/332 381/646/331 380/648/333 404/649/334
f 404/649/334 380/648/333 379/413/209 403/410/206
f 314/408/203 347/407/205 408/641/326 373/451/203
f 373/451/203 408/641/326 407/643/328 374/605/203
f 374/605/203 407/643/328 406/645/330 375/604/203
f 375/604/203 406/645/330 405/647/332 376/603/203
f 376/603/203 405/647/332 404/649/334 377/602/203
f 377/602/203 404/649/334 403/410/206 378/409/203
f 320/650/273 296/651/233 492/652/335 546/653/336
f 546/653/336 492/652/335 491/654/337 545/655/338
f 545/655/338 491/654/337 490/656/339 544/657/340
f 544/657/340 490/656/339 489/658/341 543/659/342
f 543/659/342 489/658/341 488/660/343 542/661/344
f 542/661/344 488/660/343 487/548/287 541/543/282
f 344/530/267 309/662/269 529/663/345 540/531/275
f 540/531/275 529/663/345 530/664/345 539/665/346
f 539/665/346 530/664/345 531/666/345 538/667/347
f 538/667/347 531/666/345 532/668/345 537/669/348
f 537/669/348 532/668/345 533/670/345 536/671/349
f 536/671/349 533/670/345 534/542/281 535/546/285
f 309/662/269 320/650/273 546/653/336 529/663/345
f 529/663/345 546/653/336 545/655/338 530/664/345
f 530/664/345 545/655/338 544/657/340 531/666/345
f 531/666/345 544/657/340 543/659/342 532/668/345
f 532/668/345 543/659/342 542/661/344 533/670/345
f 533/670/345 542/661/344 541/543/282 534/542/281
f 318/570/309 469/672/350 535/546/285 365/547/286
f 469/672/350 470/673/351 536/671/349 535/546/285
f 470/673/351 471/674/352 537/669/348 536/671/349
f 471/674/352 472/675/353 538/667/347 537/669/348
f 472/675/353 473/676/354 539/665/346 538/667/347
f 473/676/354 474/528/274 540/531/275 539/665/346
f 322/677/255 298/678/254 486/679/219 523/680/237
f 523/680/237 486/679/219 485/681/219 524/682/237
f 524/682/237 485/681/219 484/683/219 525/684/237
f 525/684/237 484/683/219 483/685/219 526/686/237
f 526/686/237 483/685/219 482/687/219 527/688/237
f 527/688/237 482/687/219 481/471/219 528/463/237
f 292/446/231 322/677/255 523/680/237 462/443/226
f 462/443/226 523/680/237 524/682/237 461/689/226
f 461/689/226 524/682/237 525/684/237 460/690/226
f 460/690/226 525/684/237 526/686/237 459/691/226
f 459/691/226 526/686/237 527/688/237 458/692/226
f 458/692/226 527/688/237 528/463/237 457/462/226
f 352/453/236 326/461/223 480/693/223 522/694/236
f 522/694/236 480/693/223 479/695/223 521/696/236
f 521/696/236 479/695/223 478/697/223 520/698/236
f 520/698/236 478/697/223 477/699/223 519/700/236
f 519/700/236 477/699/223 476/701/223 518/702/236
f 518/702/236 476/701/223 475/458/223 517/455/236
f 314/408/203 352/453/236 522/694/236 468/405/203
f 468/405/203 522/694/236 521/696/236 467/703/203
f 467/703/203 521/696/236 520/698/236 466/704/203
f 466/704/203 520/698/236 519/700/236 465/705/203
f 465/705/203 519/700/236 518/702/236 464/706/203
f 464/706/203 518/702/236 517/455/236 463/454/203
f 351/441/228 338/450/235 487/707/355 516/708/356
f 516/708/356 487/707/355 488/709/357 515/710/358
f 515/710/358 488/709/357 489/711/359 514/712/360
f 514/712/360 489/711/359 490/713/361 513/714/362
f 513/714/362 490/713/361 491/715/363 512/716/364
f 512/716/364 491/715/363 492/447/232 511/444/229
f 313/442/226 351/441/228 516/708/356 457/462/226
f 457/462/226 516/708/356 515/710/358 458/692/226
f 458/692/226 515/710/358 514/712/360 459/691/226
f 459/691/226 514/712/360 513/714/362 460/690/226
f 460/690/226 513/714/362 512/716/364 461/689/226
f 461/689/226 512/716/364 511/444/229 462/443/226
f 350/433/224 36/53/39 208/352/39 510/717/224
f 510/717/224 208/352/39 209/354/39 509/718/224
f 509/718/224 209/354/39 210/356/39 508/719/224
f 508/719/224 210/356/39 211/358/39 507/720/224
f 507/720/224 211/358/39 212/360/39 506/721/224
f 506/721/224 212/360/39 213/52/39 505/436/224
f 326/434/223 350/433/224 510/717/224 480/722/223
f 480/722/223 510/717/224 509/718/224 479/723/223
f 479/723/223 509/718/224 508/719/224 478/724/223
f 478/724/223 508/719/224 507/720/224 477/725/223
f 477/725/223 507/720/224 506/721/224 476/726/223
f 476/726/223 506/721/224 505/436/224 475/435/223
f 310/727/251 1/369/68 202/368/34 499/728/220
f 499/728/220 202/368/34 203/371/34 500/729/220
f 500/729/220 203/371/34 204/373/34 501/730/220
f 501/730/220 204/373/34 205/375/34 502/731/220
f 502/731/220 205/375/34 206/377/34 503/732/220
f 503/732/220 206/377/34 207/42/34 504/424/220
f 298/733/254 310/727/251 499/728/220 486/734/219
f 486/734/219 499/728/220 500/729/220 485/735/219
f 485/735/219 500/729/220 501/730/220 484/736/219
f 484/736/219 501/730/220 502/731/220 483/737/219
f 483/737/219 502/731/220 503/732/220 482/738/219
f 482/738/219 503/732/220 504/424/220 481/423/219
f 319/739/265 307/740/264 474/741/365 493/742/366
f 493/742/366 474/741/365 473/743/367 494/744/368
f 494/744/368 473/743/367 472/745/369 495/746/370
f 495/746/370 472/745/369 471/747/371 496/748/372
f 496/748/372 471/747/371 470/749/373 497/750/374
f 497/750/374 470/749/373 469/415/211 498/406/204
f 293/457/201 319/739/265 493/742/366 463/454/203
f 463/454/203 493/742/366 494/744/368 464/706/203
f 464/706/203 494/744/368 495/746/370 465/705/203
f 465/705/203 495/746/370 496/748/372 466/704/203
f 466/704/203 496/748/372 497/750/374 467/703/203
f 467/703/203 497/750/374 498/406/204 468/405/203
