# Blender 5.0.1
# www.blender.org
mtllib Chocolate.mtl
o Chocolate
v -0.499707 -0.000000 -0.151861
v -0.499707 -0.000000 0.186294
v -0.603856 1.125571 -0.053498
v -0.603856 1.125571 0.053397
v 0.506924 -0.000000 -0.151861
v 0.506924 -0.000000 0.186294
v 0.603711 1.125571 -0.053498
v 0.603711 1.125571 0.053397
v -0.642921 1.507999 -0.010985
v 0.642746 1.507999 -0.010985
v -0.504792 0.900007 -0.161676
v -0.504792 0.900007 0.161349
v 0.506081 0.900007 -0.161676
v 0.506081 0.900007 0.161349
v 0.601926 1.125665 -0.000634
v 0.477555 -0.000000 0.002872
v 0.462239 0.796886 0.000028
v -0.488647 -0.000000 0.002872
v -0.602648 1.125571 -0.000634
v -0.478808 0.796886 0.000028
v 0.642746 1.507999 -0.000547
v -0.642921 1.507999 -0.000547
v 0.638268 1.512532 -0.005963
v -0.642920 1.507999 -0.005935
v -0.501214 0.457631 -0.158067
v -0.493937 -0.000000 0.094271
v -0.553963 1.018290 0.107682
v -0.603226 1.125571 -0.027079
v -0.000073 1.125571 -0.053498
v -0.000073 1.125571 0.053397
v 0.602779 1.125620 -0.027079
v 0.554472 1.018290 -0.108144
v 0.505418 0.457631 0.174737
v 0.491601 -0.000000 -0.074806
v 0.003608 -0.000000 -0.151861
v 0.003608 -0.000000 0.186294
v -0.000087 1.445892 -0.000547
v -0.624063 1.314920 0.025819
v -0.642921 1.507999 -0.008464
v 0.623889 1.314920 0.025819
v -0.553963 1.018290 -0.108144
v -0.501214 0.457631 0.174737
v 0.505418 0.457631 -0.158067
v 0.554472 1.018290 0.107682
v 0.000644 0.900007 0.161349
v 0.000644 0.900007 -0.161676
v 0.489024 0.806708 -0.073519
v -0.496792 0.806708 -0.073519
v 0.602779 1.125620 0.026369
v 0.491601 -0.000000 0.094271
v 0.489024 0.806708 0.075447
v 0.518813 1.003558 -0.000462
v 0.455074 0.442899 0.001235
v -0.493937 -0.000000 -0.074806
v -0.603226 1.125571 0.026369
v -0.496792 0.806708 0.075447
v -0.470955 0.442899 0.001235
v -0.529235 1.003558 -0.000462
v -0.000087 1.445892 -0.010985
v 0.623889 1.314920 -0.031500
v -0.624063 1.314920 -0.031500
v 0.640410 1.510364 -0.008478
v 0.640410 1.510364 -0.003259
v 0.621650 1.317186 -0.003241
v -0.642921 1.507999 -0.003244
v -0.624063 1.314920 -0.003228
v -0.541707 1.006013 0.052986
v -0.000087 1.314920 0.025819
v 0.479828 0.445354 0.087213
v 0.002102 0.457631 -0.158067
v 0.002102 0.457631 0.174737
v -0.000087 1.314920 -0.031500
v 0.000254 1.018290 0.107682
v 0.000254 1.018290 -0.108144
v 0.536543 1.006013 0.052986
v -0.486072 0.445354 0.087213
v 0.536543 1.006013 -0.053450
v 0.479828 0.445354 -0.077713
v -0.486072 0.445354 -0.077713
v -0.541707 1.006013 -0.053450
v 0.622721 1.316102 -0.017379
v -0.624063 1.314920 0.011287
v 0.622721 1.316102 0.011280
v -0.624063 1.314920 -0.017372
v -0.000087 1.445892 -0.005517
v -0.000087 1.445892 -0.003398
v -0.000087 1.445892 -0.008213
v 0.517456 1.125571 -0.053498
v 0.431201 1.125571 -0.053498
v 0.344946 1.125571 -0.053498
v 0.258692 1.125571 -0.053498
v 0.172437 1.125571 -0.053498
v 0.086182 1.125571 -0.053498
v 0.086182 1.125571 0.053397
v 0.172437 1.125571 0.053397
v 0.258692 1.125571 0.053397
v 0.344946 1.125571 0.053397
v 0.431201 1.125571 0.053397
v 0.517456 1.125571 0.053397
v 0.075511 -0.000000 -0.151861
v 0.147413 -0.000000 -0.151861
v 0.219315 -0.000000 -0.151861
v 0.291218 -0.000000 -0.151861
v 0.363120 -0.000000 -0.151861
v 0.435022 -0.000000 -0.151861
v 0.435022 -0.000000 0.186294
v 0.363120 -0.000000 0.186294
v 0.291218 -0.000000 0.186294
v 0.219315 -0.000000 0.186294
v 0.147413 -0.000000 0.186294
v 0.075511 -0.000000 0.186294
v 0.550913 1.445892 -0.000547
v 0.459080 1.507999 -0.000547
v 0.367246 1.445892 -0.000547
v 0.275413 1.507999 -0.000547
v 0.183580 1.445892 -0.000547
v 0.091746 1.507999 -0.000547
v 0.072849 0.900007 0.161349
v 0.145055 0.900007 0.161349
v 0.217260 0.900007 0.161349
v 0.289465 0.900007 0.161349
v 0.361671 0.900007 0.161349
v 0.433876 0.900007 0.161349
v 0.433876 0.900007 -0.161676
v 0.361671 0.900007 -0.161676
v 0.289465 0.900007 -0.161676
v 0.217260 0.900007 -0.161676
v 0.145055 0.900007 -0.161676
v 0.072849 0.900007 -0.161676
v 0.550913 1.445892 -0.010985
v 0.459080 1.507999 -0.010985
v 0.367246 1.445892 -0.010985
v 0.275413 1.507999 -0.010985
v 0.183580 1.445892 -0.010985
v 0.091746 1.507999 -0.010985
v 0.534749 1.314920 0.025819
v 0.445610 1.314920 0.025819
v 0.356471 1.314920 0.025819
v 0.267331 1.314920 0.025819
v 0.178192 1.314920 0.025819
v 0.089052 1.314920 0.025819
v 0.433516 0.457631 -0.158067
v 0.361613 0.457631 -0.158067
v 0.289711 0.457631 -0.158067
v 0.217809 0.457631 -0.158067
v 0.145907 0.457631 -0.158067
v 0.074004 0.457631 -0.158067
v 0.433516 0.457631 0.174737
v 0.361613 0.457631 0.174737
v 0.289711 0.457631 0.174737
v 0.217809 0.457631 0.174737
v 0.145907 0.457631 0.174737
v 0.074004 0.457631 0.174737
v 0.534749 1.314920 -0.031500
v 0.445610 1.314920 -0.031500
v 0.356471 1.314920 -0.031500
v 0.267331 1.314920 -0.031500
v 0.178192 1.314920 -0.031500
v 0.089052 1.314920 -0.031500
v 0.475298 1.018290 0.107682
v 0.396124 1.018290 0.107682
v 0.316950 1.018290 0.107682
v 0.237776 1.018290 0.107682
v 0.158602 1.018290 0.107682
v 0.079428 1.018290 0.107682
v 0.475298 1.018290 -0.108144
v 0.396124 1.018290 -0.108144
v 0.316950 1.018290 -0.108144
v 0.237776 1.018290 -0.108144
v 0.158602 1.018290 -0.108144
v 0.079428 1.018290 -0.108144
v 0.547074 1.449777 -0.005899
v 0.455881 1.511237 -0.005835
v 0.364687 1.448482 -0.005771
v 0.273494 1.509942 -0.005708
v 0.182300 1.447187 -0.005644
v 0.091107 1.508647 -0.005580
v 0.548910 1.447919 -0.003279
v 0.457411 1.509688 -0.003299
v 0.365911 1.447243 -0.003318
v 0.274412 1.509013 -0.003338
v 0.182912 1.446567 -0.003358
v 0.091413 1.508337 -0.003378
v 0.548910 1.447919 -0.008440
v 0.457411 1.509688 -0.008402
v 0.365911 1.447243 -0.008364
v 0.274412 1.509013 -0.008327
v 0.182912 1.446567 -0.008289
v 0.091413 1.508337 -0.008251
v -0.086328 1.125571 -0.053498
v -0.172583 1.125571 -0.053498
v -0.258837 1.125571 -0.053498
v -0.345092 1.125571 -0.053498
v -0.431347 1.125571 -0.053498
v -0.517602 1.125571 -0.053498
v -0.517602 1.125571 0.053397
v -0.431347 1.125571 0.053397
v -0.345092 1.125571 0.053397
v -0.258837 1.125571 0.053397
v -0.172583 1.125571 0.053397
v -0.086328 1.125571 0.053397
v -0.427805 -0.000000 -0.151861
v -0.355903 -0.000000 -0.151861
v -0.284001 -0.000000 -0.151861
v -0.212098 -0.000000 -0.151861
v -0.140196 -0.000000 -0.151861
v -0.068294 -0.000000 -0.151861
v -0.068294 -0.000000 0.186294
v -0.140196 -0.000000 0.186294
v -0.212098 -0.000000 0.186294
v -0.284001 -0.000000 0.186294
v -0.355903 -0.000000 0.186294
v -0.427805 -0.000000 0.186294
v -0.091921 1.507999 -0.000547
v -0.183754 1.445892 -0.000547
v -0.275587 1.507999 -0.000547
v -0.367420 1.445892 -0.000547
v -0.459254 1.507999 -0.000547
v -0.551087 1.445892 -0.000547
v -0.432587 0.900007 0.161349
v -0.360382 0.900007 0.161349
v -0.288177 0.900007 0.161349
v -0.215971 0.900007 0.161349
v -0.143766 0.900007 0.161349
v -0.071561 0.900007 0.161349
v -0.071561 0.900007 -0.161676
v -0.143766 0.900007 -0.161676
v -0.215971 0.900007 -0.161676
v -0.288177 0.900007 -0.161676
v -0.360382 0.900007 -0.161676
v -0.432587 0.900007 -0.161676
v -0.091921 1.507999 -0.010985
v -0.183754 1.445892 -0.010985
v -0.275587 1.507999 -0.010985
v -0.367420 1.445892 -0.010985
v -0.459254 1.507999 -0.010985
v -0.551087 1.445892 -0.010985
v -0.534924 1.314920 0.025819
v -0.445784 1.314920 0.025819
v -0.356645 1.314920 0.025819
v -0.267506 1.314920 0.025819
v -0.178366 1.314920 0.025819
v -0.089227 1.314920 0.025819
v -0.429311 0.457631 -0.158067
v -0.357409 0.457631 -0.158067
v -0.285507 0.457631 -0.158067
v -0.213605 0.457631 -0.158067
v -0.141703 0.457631 -0.158067
v -0.069800 0.457631 -0.158067
v -0.429311 0.457631 0.174737
v -0.357409 0.457631 0.174737
v -0.285507 0.457631 0.174737
v -0.213605 0.457631 0.174737
v -0.141703 0.457631 0.174737
v -0.069800 0.457631 0.174737
v -0.534924 1.314920 -0.031500
v -0.445784 1.314920 -0.031500
v -0.356645 1.314920 -0.031500
v -0.267505 1.314920 -0.031500
v -0.178366 1.314920 -0.031500
v -0.089227 1.314920 -0.031500
v -0.474789 1.018290 0.107682
v -0.395615 1.018290 0.107682
v -0.316441 1.018290 0.107682
v -0.237267 1.018290 0.107682
v -0.158094 1.018290 0.107682
v -0.078920 1.018290 0.107682
v -0.474789 1.018290 -0.108144
v -0.395615 1.018290 -0.108144
v -0.316441 1.018290 -0.108144
v -0.237267 1.018290 -0.108144
v -0.158094 1.018290 -0.108144
v -0.078920 1.018290 -0.108144
v -0.551087 1.445891 -0.005875
v -0.459254 1.507999 -0.005815
v -0.367420 1.445891 -0.005756
v -0.275587 1.507999 -0.005696
v -0.183754 1.445891 -0.005636
v -0.091921 1.507999 -0.005576
v -0.091921 1.507999 -0.003376
v -0.183754 1.445892 -0.003354
v -0.275587 1.507999 -0.003332
v -0.367420 1.445892 -0.003310
v -0.459254 1.507999 -0.003288
v -0.551087 1.445892 -0.003266
v -0.091921 1.507999 -0.008249
v -0.183754 1.445892 -0.008284
v -0.275587 1.507999 -0.008320
v -0.367420 1.445892 -0.008356
v -0.459254 1.507999 -0.008392
v -0.551087 1.445892 -0.008428
v -0.603856 -1.125572 -0.053498
v -0.603856 -1.125572 0.053397
v 0.603711 -1.125572 -0.053498
v 0.603711 -1.125572 0.053397
v -0.642921 -1.508000 -0.010986
v 0.642746 -1.508000 -0.010986
v -0.504792 -0.900008 -0.161676
v -0.504792 -0.900008 0.161349
v 0.506081 -0.900008 -0.161676
v 0.506081 -0.900008 0.161349
v 0.601926 -1.125666 -0.000634
v 0.462239 -0.796887 0.000028
v -0.602648 -1.125572 -0.000634
v -0.478808 -0.796887 0.000028
v 0.642746 -1.508000 -0.000547
v -0.642921 -1.508000 -0.000547
v 0.638268 -1.512533 -0.005963
v -0.642920 -1.508000 -0.005935
v -0.501214 -0.457631 -0.158067
v -0.553963 -1.018291 0.107682
v -0.603226 -1.125571 -0.027079
v -0.000073 -1.125571 -0.053498
v -0.000073 -1.125571 0.053397
v 0.602779 -1.125621 -0.027079
v 0.554472 -1.018291 -0.108144
v 0.505418 -0.457631 0.174737
v -0.000087 -1.445892 -0.000547
v -0.624063 -1.314921 0.025818
v -0.642921 -1.508000 -0.008464
v 0.623889 -1.314921 0.025818
v -0.553963 -1.018291 -0.108144
v -0.501214 -0.457631 0.174737
v 0.505418 -0.457631 -0.158067
v 0.554472 -1.018291 0.107682
v 0.000644 -0.900008 0.161349
v 0.000644 -0.900008 -0.161676
v 0.489024 -0.806708 -0.073519
v -0.496792 -0.806708 -0.073519
v 0.602779 -1.125621 0.026369
v 0.489024 -0.806708 0.075447
v 0.518813 -1.003559 -0.000462
v 0.455074 -0.442900 0.001234
v -0.603226 -1.125572 0.026369
v -0.496792 -0.806708 0.075447
v -0.470955 -0.442900 0.001234
v -0.529235 -1.003559 -0.000462
v -0.000087 -1.445892 -0.010986
v 0.623889 -1.314921 -0.031500
v -0.624063 -1.314921 -0.031500
v 0.640410 -1.510365 -0.008478
v 0.640410 -1.510365 -0.003259
v 0.621650 -1.317187 -0.003241
v -0.642921 -1.508000 -0.003245
v -0.624063 -1.314921 -0.003228
v -0.541707 -1.006014 0.052986
v -0.000087 -1.314921 0.025818
v 0.479828 -0.445355 0.087213
v 0.002102 -0.457631 -0.158067
v 0.002102 -0.457631 0.174737
v -0.000087 -1.314921 -0.031500
v 0.000254 -1.018291 0.107682
v 0.000254 -1.018291 -0.108144
v 0.536543 -1.006014 0.052986
v -0.486072 -0.445355 0.087213
v 0.536543 -1.006014 -0.053450
v 0.479828 -0.445355 -0.077713
v -0.486072 -0.445355 -0.077713
v -0.541707 -1.006014 -0.053450
v 0.622721 -1.316103 -0.017379
v -0.624063 -1.314920 0.011287
v 0.622721 -1.316103 0.011280
v -0.624063 -1.314920 -0.017372
v -0.000087 -1.445892 -0.005517
v -0.000087 -1.445892 -0.003398
v -0.000087 -1.445892 -0.008213
v 0.517456 -1.125572 -0.053498
v 0.431201 -1.125572 -0.053498
v 0.344946 -1.125572 -0.053498
v 0.258692 -1.125572 -0.053498
v 0.172437 -1.125572 -0.053498
v 0.086182 -1.125571 -0.053498
v 0.086182 -1.125571 0.053397
v 0.172437 -1.125571 0.053397
v 0.258692 -1.125571 0.053397
v 0.344946 -1.125571 0.053397
v 0.431201 -1.125571 0.053397
v 0.517456 -1.125571 0.053397
v 0.550913 -1.445892 -0.000547
v 0.459080 -1.508000 -0.000547
v 0.367246 -1.445892 -0.000547
v 0.275413 -1.508000 -0.000547
v 0.183580 -1.445892 -0.000547
v 0.091746 -1.508000 -0.000547
v 0.072849 -0.900008 0.161349
v 0.145055 -0.900008 0.161349
v 0.217260 -0.900008 0.161349
v 0.289465 -0.900008 0.161349
v 0.361671 -0.900008 0.161349
v 0.433876 -0.900008 0.161349
v 0.433876 -0.900008 -0.161676
v 0.361671 -0.900008 -0.161676
v 0.289465 -0.900008 -0.161676
v 0.217260 -0.900008 -0.161676
v 0.145055 -0.900008 -0.161676
v 0.072849 -0.900008 -0.161676
v 0.550913 -1.445892 -0.010986
v 0.459080 -1.508000 -0.010986
v 0.367246 -1.445892 -0.010986
v 0.275413 -1.508000 -0.010986
v 0.183580 -1.445892 -0.010986
v 0.091746 -1.508000 -0.010986
v 0.534749 -1.314921 0.025818
v 0.445610 -1.314921 0.025818
v 0.356471 -1.314921 0.025818
v 0.267331 -1.314921 0.025818
v 0.178192 -1.314921 0.025818
v 0.089052 -1.314921 0.025818
v 0.433516 -0.457631 -0.158067
v 0.361613 -0.457631 -0.158067
v 0.289711 -0.457631 -0.158067
v 0.217809 -0.457631 -0.158067
v 0.145907 -0.457631 -0.158067
v 0.074004 -0.457631 -0.158067
v 0.433516 -0.457631 0.174737
v 0.361613 -0.457631 0.174737
v 0.289711 -0.457631 0.174737
v 0.217809 -0.457631 0.174737
v 0.145907 -0.457631 0.174737
v 0.074004 -0.457631 0.174737
v 0.534749 -1.314921 -0.031500
v 0.445610 -1.314921 -0.031500
v 0.356471 -1.314921 -0.031500
v 0.267331 -1.314921 -0.031500
v 0.178192 -1.314921 -0.031500
v 0.089052 -1.314921 -0.031500
v 0.475298 -1.018291 0.107682
v 0.396124 -1.018291 0.107682
v 0.316950 -1.018291 0.107682
v 0.237776 -1.018291 0.107682
v 0.158602 -1.018291 0.107682
v 0.079428 -1.018291 0.107682
v 0.475298 -1.018291 -0.108144
v 0.396124 -1.018291 -0.108144
v 0.316950 -1.018291 -0.108144
v 0.237776 -1.018291 -0.108144
v 0.158602 -1.018291 -0.108144
v 0.079428 -1.018291 -0.108144
v 0.547074 -1.449778 -0.005899
v 0.455881 -1.511238 -0.005835
v 0.364687 -1.448483 -0.005771
v 0.273494 -1.509943 -0.005708
v 0.182300 -1.447188 -0.005644
v 0.091107 -1.508648 -0.005580
v 0.548910 -1.447920 -0.003279
v 0.457411 -1.509689 -0.003299
v 0.365911 -1.447244 -0.003319
v 0.274412 -1.509013 -0.003338
v 0.182912 -1.446568 -0.003358
v 0.091413 -1.508338 -0.003378
v 0.548910 -1.447920 -0.008440
v 0.457411 -1.509689 -0.008403
v 0.365911 -1.447244 -0.008365
v 0.274412 -1.509013 -0.008327
v 0.182912 -1.446568 -0.008289
v 0.091413 -1.508338 -0.008251
v -0.086328 -1.125571 -0.053498
v -0.172583 -1.125571 -0.053498
v -0.258837 -1.125571 -0.053498
v -0.345092 -1.125571 -0.053498
v -0.431347 -1.125571 -0.053498
v -0.517602 -1.125571 -0.053498
v -0.517602 -1.125572 0.053397
v -0.431347 -1.125572 0.053397
v -0.345092 -1.125572 0.053397
v -0.258837 -1.125572 0.053397
v -0.172583 -1.125572 0.053397
v -0.086328 -1.125571 0.053397
v -0.091921 -1.508000 -0.000547
v -0.183754 -1.445892 -0.000547
v -0.275587 -1.508000 -0.000547
v -0.367420 -1.445892 -0.000547
v -0.459254 -1.508000 -0.000547
v -0.551087 -1.445892 -0.000547
v -0.432587 -0.900008 0.161349
v -0.360382 -0.900008 0.161349
v -0.288177 -0.900008 0.161349
v -0.215971 -0.900008 0.161349
v -0.143766 -0.900008 0.161349
v -0.071561 -0.900008 0.161349
v -0.071561 -0.900008 -0.161676
v -0.143766 -0.900008 -0.161676
v -0.215971 -0.900008 -0.161676
v -0.288177 -0.900008 -0.161676
v -0.360382 -0.900008 -0.161676
v -0.432587 -0.900008 -0.161676
v -0.091921 -1.508000 -0.010986
v -0.183754 -1.445892 -0.010986
v -0.275587 -1.508000 -0.010986
v -0.367420 -1.445892 -0.010986
v -0.459254 -1.508000 -0.010986
v -0.551087 -1.445892 -0.010986
v -0.534924 -1.314921 0.025818
v -0.445784 -1.314921 0.025818
v -0.356645 -1.314921 0.025818
v -0.267506 -1.314921 0.025818
v -0.178366 -1.314921 0.025818
v -0.089227 -1.314921 0.025818
v -0.429311 -0.457631 -0.158067
v -0.357409 -0.457631 -0.158067
v -0.285507 -0.457631 -0.158067
v -0.213605 -0.457631 -0.158067
v -0.141703 -0.457631 -0.158067
v -0.069800 -0.457631 -0.158067
v -0.429311 -0.457631 0.174737
v -0.357409 -0.457631 0.174737
v -0.285507 -0.457631 0.174737
v -0.213605 -0.457631 0.174737
v -0.141703 -0.457631 0.174737
v -0.069800 -0.457631 0.174737
v -0.534924 -1.314921 -0.031500
v -0.445784 -1.314921 -0.031500
v -0.356645 -1.314921 -0.031500
v -0.267505 -1.314921 -0.031500
v -0.178366 -1.314921 -0.031500
v -0.089227 -1.314921 -0.031500
v -0.474789 -1.018291 0.107682
v -0.395615 -1.018291 0.107682
v -0.316441 -1.018291 0.107682
v -0.237267 -1.018291 0.107682
v -0.158094 -1.018291 0.107682
v -0.078920 -1.018291 0.107682
v -0.474789 -1.018291 -0.108144
v -0.395615 -1.018291 -0.108144
v -0.316441 -1.018291 -0.108144
v -0.237267 -1.018291 -0.108144
v -0.158094 -1.018291 -0.108144
v -0.078920 -1.018291 -0.108144
v -0.551087 -1.445892 -0.005875
v -0.459254 -1.508000 -0.005815
v -0.367420 -1.445892 -0.005756
v -0.275587 -1.508000 -0.005696
v -0.183754 -1.445892 -0.005636
v -0.091921 -1.508000 -0.005576
v -0.091921 -1.508000 -0.003376
v -0.183754 -1.445892 -0.003354
v -0.275587 -1.508000 -0.003332
v -0.367420 -1.445892 -0.003310
v -0.459254 -1.508000 -0.003288
v -0.551087 -1.445892 -0.003266
v -0.091921 -1.508000 -0.008249
v -0.183754 -1.445892 -0.008285
v -0.275587 -1.508000 -0.008321
v -0.367420 -1.445892 -0.008356
v -0.459254 -1.508000 -0.008392
v -0.551087 -1.445892 -0.008428
vn -0.9918 -0.1274 0.0054
vn -0.9864 -0.1350 -0.0933
vn -0.9312 -0.3459 -0.1149
vn -0.9353 -0.3538 0.0030
vn -0.2272 0.0947 0.9692
vn -0.6438 0.1520 0.7499
vn -0.4034 0.0371 0.9143
vn -0.9593 -0.2762 -0.0584
vn -0.9600 -0.2802 -0.0000
vn -0.0000 0.2292 0.9734
vn -0.0000 0.1522 0.9883
vn 0.0003 0.1518 0.9884
vn 0.3998 0.0327 0.9160
vn 0.3533 0.1084 0.9292
vn 0.0016 0.1521 0.9884
vn 0.4876 0.2135 0.8465
vn -0.0039 0.1614 0.9869
vn -0.0000 0.1611 0.9869
vn -0.0006 0.1602 0.9871
vn 0.9906 -0.1365 0.0088
vn 0.9707 -0.1420 -0.1941
vn 0.9713 0.0008 -0.2378
vn 0.9999 0.0058 0.0110
vn 0.2312 0.0959 0.9682
vn 0.2080 0.0280 0.9777
vn 0.1739 -0.0000 0.9848
vn 0.9757 -0.0000 -0.2190
vn 1.0000 -0.0000 0.0083
vn -0.0000 0.0662 -0.9978
vn -0.0000 -0.0108 -0.9999
vn 0.1780 0.0633 -0.9820
vn 0.2003 -0.0110 -0.9797
vn 0.2270 -0.0000 -0.9739
vn -0.0000 -0.0000 -1.0000
vn -0.0000 0.1011 0.9949
vn -0.0000 0.0277 0.9996
vn -0.2035 0.0266 0.9787
vn -0.1693 -0.0000 0.9856
vn -0.0000 -0.0000 1.0000
vn -0.0000 0.1988 -0.9800
vn -0.0000 0.1205 -0.9927
vn -0.0003 0.1202 -0.9928
vn -0.3729 0.0257 -0.9275
vn -0.2994 0.0841 -0.9504
vn -0.0016 0.1204 -0.9927
vn -0.4383 0.2242 -0.8704
vn 0.0038 0.1263 -0.9920
vn -0.0000 0.1260 -0.9920
vn 0.0005 0.1252 -0.9921
vn -0.0000 0.4316 0.9021
vn -0.0000 0.4323 -0.9018
vn 0.3692 0.0216 -0.9291
vn 0.6616 0.1483 -0.7350
vn 0.9566 -0.2913 -0.0016
vn 0.9519 -0.2889 -0.1024
vn 0.9097 -0.3687 -0.1911
vn 0.9233 -0.3839 0.0046
vn 0.6608 0.1479 0.7358
vn -1.0000 -0.0000 0.0044
vn -0.9933 -0.0000 -0.1154
vn -0.9911 -0.0036 -0.1330
vn -1.0000 0.0002 0.0059
vn 0.9521 -0.2877 0.1037
vn 0.9099 -0.3682 0.1913
vn 0.9696 -0.1380 0.2020
vn 0.9651 0.0049 0.2617
vn 0.9691 -0.0000 0.2467
vn -0.2192 -0.0000 -0.9757
vn -0.9914 -0.0000 0.1309
vn -0.9890 -0.0017 0.1479
vn -0.1957 -0.0120 -0.9806
vn -0.9863 -0.1328 0.0981
vn -0.1758 0.0627 -0.9824
vn -0.9313 -0.3457 0.1144
vn -0.6445 0.1520 -0.7493
vn -0.9593 -0.2760 0.0591
vn 0.3065 0.0851 -0.9481
vn 0.9851 -0.1042 0.1370
vn 0.4198 0.1856 -0.8884
vn 0.8022 0.3896 -0.4525
vn 0.8626 0.5058 0.0057
vn 0.9950 -0.0994 -0.0059
vn -0.5076 0.2562 0.8226
vn -0.8993 0.4372 -0.0000
vn -0.9945 -0.1041 -0.0071
vn -0.3452 0.1074 0.9324
vn -0.9946 -0.1042 0.0007
vn 0.9851 -0.1084 -0.1336
vn 0.8155 0.3921 0.4258
vn -0.9946 -0.1038 0.0073
vn -0.0000 1.0000 -0.0000
vn -0.0457 0.7669 0.6401
vn -0.0000 0.7956 0.6058
vn 0.0538 0.9985 -0.0141
vn 0.0009 0.7782 -0.6280
vn -0.0473 0.7416 -0.6692
vn -0.0041 1.0000 0.0060
vn -0.0028 0.9988 -0.0498
vn -0.0027 0.9985 0.0548
vn -0.0014 0.9987 -0.0512
vn -0.0036 0.9968 -0.0797
vn 0.0082 0.9966 -0.0817
vn -0.0024 0.9618 -0.2738
vn -0.0207 0.9573 -0.2885
vn -0.0039 0.9503 -0.3112
vn 0.0275 0.9494 -0.3128
vn -0.0009 0.8798 -0.4753
vn -0.0365 0.8616 -0.5062
vn -0.0038 0.8621 -0.5067
vn 0.0441 0.8642 -0.5013
vn -0.0024 0.9962 0.0867
vn -0.0153 0.9998 0.0086
vn -0.0040 0.9583 0.2857
vn 0.0156 0.9997 0.0184
vn -0.0017 0.9475 0.3196
vn -0.0349 0.9992 0.0193
vn -0.0026 0.8811 0.4729
vn 0.0351 0.9993 0.0105
vn -0.0020 0.8670 0.4983
vn -0.0531 0.9986 0.0070
vn -0.0014 0.9988 0.0496
vn 0.0079 0.9968 0.0790
vn -0.0200 0.9607 0.2767
vn 0.0263 0.9535 0.3001
vn -0.0351 0.8747 0.4834
vn 0.0420 0.8765 0.4796
vn 0.0016 0.1204 -0.9927
vn -0.0038 0.1263 -0.9920
vn -0.0015 0.1203 -0.9927
vn 0.0026 0.1250 -0.9921
vn 0.0010 0.1204 -0.9927
vn -0.0025 0.1261 -0.9920
vn -0.0009 0.1202 -0.9927
vn 0.0016 0.1252 -0.9921
vn 0.0005 0.1205 -0.9927
vn -0.0013 0.1260 -0.9920
vn -0.0003 0.1518 0.9884
vn 0.0006 0.1602 0.9871
vn 0.0006 0.1522 0.9884
vn -0.0013 0.1611 0.9869
vn -0.0010 0.1518 0.9884
vn 0.0017 0.1601 0.9871
vn 0.0011 0.1521 0.9884
vn -0.0026 0.1612 0.9869
vn -0.0016 0.1519 0.9884
vn 0.0028 0.1599 0.9871
vn 0.0003 0.1202 -0.9928
vn -0.0005 0.1252 -0.9921
vn -0.0005 0.1205 -0.9927
vn 0.0013 0.1260 -0.9920
vn 0.0009 0.1202 -0.9927
vn -0.0016 0.1252 -0.9921
vn -0.0010 0.1204 -0.9927
vn 0.0025 0.1261 -0.9920
vn 0.0015 0.1203 -0.9927
vn -0.0026 0.1250 -0.9921
vn -0.0016 0.1521 0.9884
vn 0.0039 0.1614 0.9869
vn 0.0016 0.1519 0.9884
vn -0.0028 0.1599 0.9871
vn -0.0011 0.1521 0.9884
vn 0.0026 0.1612 0.9869
vn 0.0010 0.1518 0.9884
vn -0.0017 0.1601 0.9871
vn -0.0006 0.1522 0.9884
vn 0.0013 0.1611 0.9869
vn -0.9918 0.1274 0.0054
vn -0.9353 0.3538 0.0030
vn -0.9312 0.3459 -0.1149
vn -0.9864 0.1350 -0.0933
vn -0.6438 -0.1520 0.7499
vn -0.2272 -0.0947 0.9692
vn -0.9593 0.2762 -0.0584
vn -0.4034 -0.0371 0.9143
vn -0.9600 0.2802 -0.0000
vn -0.0000 -0.2292 0.9734
vn 0.0003 -0.1518 0.9884
vn -0.0000 -0.1522 0.9883
vn 0.0016 -0.1521 0.9884
vn 0.3533 -0.1084 0.9292
vn 0.3998 -0.0327 0.9160
vn -0.0039 -0.1614 0.9869
vn 0.4876 -0.2135 0.8465
vn -0.0006 -0.1602 0.9871
vn -0.0000 -0.1611 0.9869
vn 0.9906 0.1365 0.0088
vn 0.9999 -0.0058 0.0110
vn 0.9713 -0.0008 -0.2378
vn 0.9707 0.1420 -0.1941
vn 0.2080 -0.0280 0.9777
vn 0.2312 -0.0959 0.9682
vn -0.0000 -0.0662 -0.9978
vn -0.0000 0.0108 -0.9999
vn 0.2003 0.0110 -0.9797
vn 0.1780 -0.0633 -0.9820
vn -0.0000 -0.1011 0.9949
vn -0.0000 -0.0277 0.9996
vn -0.2035 -0.0266 0.9787
vn -0.0000 -0.1988 -0.9800
vn -0.0003 -0.1202 -0.9928
vn -0.0000 -0.1205 -0.9927
vn -0.0016 -0.1204 -0.9927
vn -0.2994 -0.0841 -0.9504
vn -0.3729 -0.0257 -0.9275
vn 0.0038 -0.1263 -0.9920
vn -0.4383 -0.2242 -0.8704
vn 0.0005 -0.1252 -0.9921
vn -0.0000 -0.1260 -0.9920
vn -0.0000 -0.4316 0.9021
vn -0.0000 -0.4323 -0.9018
vn 0.6616 -0.1483 -0.7350
vn 0.3692 -0.0216 -0.9291
vn 0.9566 0.2913 -0.0016
vn 0.9233 0.3839 0.0046
vn 0.9097 0.3687 -0.1911
vn 0.9519 0.2889 -0.1024
vn 0.6608 -0.1479 0.7358
vn -1.0000 -0.0002 0.0059
vn -0.9911 0.0036 -0.1330
vn 0.9099 0.3682 0.1913
vn 0.9521 0.2877 0.1037
vn 0.9696 0.1380 0.2020
vn 0.9651 -0.0049 0.2617
vn -0.1957 0.0120 -0.9806
vn -0.9890 0.0017 0.1479
vn -0.9863 0.1328 0.0981
vn -0.1758 -0.0627 -0.9824
vn -0.6445 -0.1520 -0.7493
vn -0.9313 0.3457 0.1144
vn -0.9593 0.2760 0.0591
vn 0.9851 0.1042 0.1370
vn 0.3065 -0.0851 -0.9481
vn 0.8022 -0.3896 -0.4525
vn 0.4198 -0.1856 -0.8884
vn 0.9950 0.0994 -0.0059
vn 0.8626 -0.5058 0.0056
vn -0.5076 -0.2562 0.8226
vn -0.3452 -0.1074 0.9324
vn -0.9945 0.1041 -0.0071
vn -0.8993 -0.4372 -0.0000
vn -0.9946 0.1042 0.0007
vn 0.9851 0.1084 -0.1336
vn 0.8154 -0.3921 0.4258
vn -0.9946 0.1038 0.0073
vn -0.0000 -1.0000 -0.0000
vn -0.0457 -0.7669 0.6402
vn -0.0000 -0.7957 0.6058
vn 0.0538 -0.9985 -0.0141
vn 0.0009 -0.7782 -0.6280
vn -0.0473 -0.7416 -0.6692
vn -0.0028 -0.9988 -0.0498
vn -0.0041 -1.0000 0.0060
vn -0.0027 -0.9985 0.0548
vn -0.0014 -0.9987 -0.0512
vn 0.0082 -0.9966 -0.0817
vn -0.0036 -0.9968 -0.0797
vn -0.0207 -0.9573 -0.2885
vn -0.0024 -0.9618 -0.2738
vn 0.0275 -0.9494 -0.3128
vn -0.0039 -0.9503 -0.3112
vn -0.0365 -0.8616 -0.5062
vn -0.0009 -0.8798 -0.4753
vn 0.0441 -0.8642 -0.5013
vn -0.0038 -0.8621 -0.5067
vn -0.0153 -0.9998 0.0086
vn -0.0024 -0.9962 0.0867
vn 0.0156 -0.9997 0.0184
vn -0.0040 -0.9583 0.2857
vn -0.0349 -0.9992 0.0193
vn -0.0017 -0.9475 0.3196
vn 0.0351 -0.9993 0.0105
vn -0.0026 -0.8811 0.4729
vn -0.0531 -0.9986 0.0070
vn -0.0020 -0.8670 0.4983
vn -0.0014 -0.9988 0.0496
vn 0.0079 -0.9968 0.0790
vn -0.0200 -0.9608 0.2767
vn 0.0263 -0.9535 0.3001
vn -0.0351 -0.8747 0.4834
vn 0.0420 -0.8765 0.4796
vn -0.0038 -0.1263 -0.9920
vn 0.0016 -0.1204 -0.9927
vn 0.0026 -0.1250 -0.9921
vn -0.0015 -0.1203 -0.9927
vn -0.0025 -0.1261 -0.9920
vn 0.0010 -0.1204 -0.9927
vn 0.0016 -0.1252 -0.9921
vn -0.0009 -0.1202 -0.9927
vn -0.0013 -0.1260 -0.9920
vn 0.0005 -0.1205 -0.9927
vn 0.0006 -0.1602 0.9871
vn -0.0003 -0.1518 0.9884
vn -0.0013 -0.1611 0.9869
vn 0.0006 -0.1522 0.9884
vn 0.0017 -0.1601 0.9871
vn -0.0010 -0.1518 0.9884
vn -0.0026 -0.1612 0.9869
vn 0.0011 -0.1521 0.9884
vn 0.0028 -0.1599 0.9871
vn -0.0016 -0.1519 0.9884
vn -0.0005 -0.1252 -0.9921
vn 0.0003 -0.1202 -0.9928
vn 0.0013 -0.1260 -0.9920
vn -0.0005 -0.1205 -0.9927
vn -0.0016 -0.1252 -0.9921
vn 0.0009 -0.1202 -0.9927
vn 0.0025 -0.1261 -0.9920
vn -0.0010 -0.1204 -0.9927
vn -0.0026 -0.1250 -0.9921
vn 0.0015 -0.1203 -0.9927
vn 0.0039 -0.1614 0.9869
vn -0.0016 -0.1521 0.9884
vn -0.0028 -0.1599 0.9871
vn 0.0016 -0.1519 0.9884
vn 0.0026 -0.1612 0.9869
vn -0.0011 -0.1521 0.9884
vn -0.0017 -0.1601 0.9871
vn 0.0010 -0.1518 0.9884
vn 0.0013 -0.1611 0.9869
vn -0.0006 -0.1522 0.9884
vt 0.003906 0.922986
vt 0.003906 0.903664
vt 0.051217 0.903664
vt 0.051217 0.922986
vt 0.003906 0.883112
vt 0.051217 0.883112
vt 0.099026 0.883112
vt 0.099026 0.903664
vt 0.099026 0.922986
vt 0.800342 0.173304
vt 0.800342 0.201537
vt 0.743852 0.201537
vt 0.743852 0.173304
vt 0.800342 0.370934
vt 0.800342 0.399167
vt 0.743852 0.399167
vt 0.743852 0.370934
vt 0.691064 0.399167
vt 0.691064 0.370934
vt 0.691064 0.201537
vt 0.691064 0.173304
vt 0.507595 0.701682
vt 0.507595 0.729886
vt 0.391464 0.729886
vt 0.391464 0.701682
vt 0.507595 0.759295
vt 0.391464 0.759295
vt 0.256556 0.759295
vt 0.256556 0.729886
vt 0.256556 0.701682
vt 0.003906 0.506126
vt 0.003906 0.483652
vt 0.141527 0.483652
vt 0.141527 0.506126
vt 0.003906 0.348813
vt 0.003906 0.326339
vt 0.141527 0.326339
vt 0.141527 0.348813
vt 0.284940 0.326339
vt 0.284940 0.348813
vt 0.284940 0.483652
vt 0.284940 0.506126
vt 0.566166 0.138743
vt 0.566166 0.161216
vt 0.426851 0.161216
vt 0.426851 0.138743
vt 0.566166 0.296054
vt 0.566166 0.318527
vt 0.426851 0.318527
vt 0.426851 0.296054
vt 0.285036 0.318527
vt 0.285036 0.296054
vt 0.285036 0.161216
vt 0.285036 0.138743
vt 0.682738 0.576338
vt 0.682738 0.604562
vt 0.625825 0.604562
vt 0.625825 0.576338
vt 0.682738 0.773906
vt 0.682738 0.802129
vt 0.625825 0.802129
vt 0.625825 0.773906
vt 0.573979 0.802129
vt 0.573979 0.773906
vt 0.573979 0.604562
vt 0.573979 0.576338
vt 0.973338 0.553543
vt 0.973338 0.577970
vt 0.933719 0.577970
vt 0.933719 0.553543
vt 0.973338 0.724533
vt 0.973338 0.748960
vt 0.933719 0.748960
vt 0.933719 0.724533
vt 0.894411 0.748960
vt 0.894411 0.724533
vt 0.894411 0.577970
vt 0.894411 0.553543
vt 0.808154 0.199320
vt 0.808154 0.174893
vt 0.847966 0.174893
vt 0.847966 0.199320
vt 0.808154 0.028333
vt 0.808154 0.003906
vt 0.847966 0.003906
vt 0.847966 0.028333
vt 0.887120 0.003906
vt 0.887120 0.028333
vt 0.887120 0.174893
vt 0.887120 0.199320
vt 0.669942 0.850225
vt 0.669942 0.869825
vt 0.621456 0.869825
vt 0.621456 0.850225
vt 0.669942 0.890668
vt 0.621456 0.890668
vt 0.573979 0.890668
vt 0.573979 0.869825
vt 0.573979 0.850225
vt 0.254640 0.819227
vt 0.254640 0.846599
vt 0.119983 0.846599
vt 0.119983 0.819227
vt 0.254640 0.875299
vt 0.119983 0.875299
vt 0.003906 0.875299
vt 0.003906 0.846599
vt 0.003906 0.819227
vt 0.669942 0.809942
vt 0.669942 0.830937
vt 0.621456 0.830937
vt 0.621456 0.809942
vt 0.573979 0.830937
vt 0.573979 0.809942
vt 0.507595 0.648778
vt 0.507595 0.675941
vt 0.391464 0.675941
vt 0.391464 0.648778
vt 0.256556 0.675941
vt 0.256556 0.648778
vt 0.254640 0.767107
vt 0.254640 0.793981
vt 0.119983 0.793981
vt 0.119983 0.767107
vt 0.003906 0.793981
vt 0.003906 0.767107
vt 0.003906 0.962703
vt 0.003906 0.942000
vt 0.051217 0.942000
vt 0.051217 0.962703
vt 0.099026 0.942000
vt 0.099026 0.962703
vt 0.106838 0.883112
vt 0.159590 0.883112
vt 0.159590 0.888306
vt 0.106838 0.888306
vt 0.211728 0.883112
vt 0.211728 0.888306
vt 0.211728 0.893506
vt 0.159590 0.893506
vt 0.106838 0.893506
vt 0.443322 0.904086
vt 0.443322 0.898771
vt 0.494636 0.898771
vt 0.494636 0.904086
vt 0.443322 0.893461
vt 0.494636 0.893461
vt 0.546587 0.893461
vt 0.546587 0.898771
vt 0.546587 0.904086
vt 0.159590 0.898841
vt 0.106838 0.898841
vt 0.211728 0.898841
vt 0.211728 0.904184
vt 0.159590 0.904184
vt 0.106838 0.904184
vt 0.494636 0.888283
vt 0.546587 0.888283
vt 0.443322 0.888283
vt 0.443322 0.883112
vt 0.494636 0.883112
vt 0.546587 0.883112
vt 0.996094 0.440655
vt 0.995144 0.440655
vt 0.995144 0.406980
vt 0.996094 0.406980
vt 0.996094 0.844105
vt 0.996094 0.877686
vt 0.995144 0.877686
vt 0.995144 0.844105
vt 0.994324 0.844105
vt 0.994324 0.877686
vt 0.993433 0.877686
vt 0.993433 0.844105
vt 0.992529 0.877686
vt 0.992529 0.844105
vt 0.994324 0.609034
vt 0.994324 0.642709
vt 0.993433 0.642709
vt 0.993433 0.609034
vt 0.995144 0.609034
vt 0.995144 0.642709
vt 0.992529 0.642709
vt 0.992529 0.609034
vt 0.993433 0.676290
vt 0.992529 0.676290
vt 0.993433 0.709841
vt 0.992529 0.709841
vt 0.993433 0.743422
vt 0.992529 0.743422
vt 0.993433 0.776973
vt 0.992529 0.776973
vt 0.993433 0.810554
vt 0.992529 0.810554
vt 0.995144 0.676290
vt 0.994324 0.676290
vt 0.995144 0.709841
vt 0.994324 0.709841
vt 0.995144 0.743422
vt 0.994324 0.743422
vt 0.995144 0.776973
vt 0.994324 0.776973
vt 0.995144 0.810554
vt 0.994324 0.810554
vt 0.996094 0.642709
vt 0.996094 0.676290
vt 0.996094 0.709841
vt 0.996094 0.743422
vt 0.996094 0.776973
vt 0.996094 0.810554
vt 0.847966 0.150467
vt 0.887120 0.150467
vt 0.847966 0.126040
vt 0.887120 0.126040
vt 0.847966 0.101613
vt 0.887120 0.101613
vt 0.847966 0.077186
vt 0.887120 0.077186
vt 0.847966 0.052760
vt 0.887120 0.052760
vt 0.808154 0.150467
vt 0.808154 0.126040
vt 0.808154 0.101613
vt 0.808154 0.077186
vt 0.808154 0.052760
vt 0.933719 0.406980
vt 0.933719 0.431407
vt 0.894411 0.431407
vt 0.894411 0.406980
vt 0.933719 0.455834
vt 0.894411 0.455834
vt 0.933719 0.480261
vt 0.894411 0.480261
vt 0.933719 0.504689
vt 0.894411 0.504689
vt 0.933719 0.529116
vt 0.894411 0.529116
vt 0.973338 0.406980
vt 0.973338 0.431407
vt 0.973338 0.455834
vt 0.973338 0.480261
vt 0.973338 0.504689
vt 0.973338 0.529116
vt 0.625825 0.406996
vt 0.625825 0.435220
vt 0.573979 0.435220
vt 0.573979 0.406996
vt 0.625825 0.463443
vt 0.573979 0.463443
vt 0.625825 0.491667
vt 0.573979 0.491667
vt 0.625825 0.519891
vt 0.573979 0.519891
vt 0.625825 0.548115
vt 0.573979 0.548115
vt 0.682738 0.406996
vt 0.682738 0.435220
vt 0.682738 0.463443
vt 0.682738 0.491667
vt 0.682738 0.519891
vt 0.682738 0.548115
vt 0.426851 0.003906
vt 0.426851 0.026379
vt 0.285036 0.026379
vt 0.285036 0.003906
vt 0.426851 0.048852
vt 0.285036 0.048852
vt 0.426851 0.071325
vt 0.285036 0.071325
vt 0.426851 0.093798
vt 0.285036 0.093798
vt 0.426851 0.116271
vt 0.285036 0.116271
vt 0.566166 0.003906
vt 0.566166 0.026379
vt 0.566166 0.048852
vt 0.566166 0.071325
vt 0.566166 0.093798
vt 0.566166 0.116271
vt 0.141527 0.461179
vt 0.284940 0.461179
vt 0.141527 0.438706
vt 0.284940 0.438706
vt 0.141527 0.416233
vt 0.284940 0.416233
vt 0.141527 0.393759
vt 0.284940 0.393759
vt 0.141527 0.371286
vt 0.284940 0.371286
vt 0.003906 0.461179
vt 0.003906 0.438706
vt 0.003906 0.416232
vt 0.003906 0.393759
vt 0.003906 0.371286
vt 0.743852 0.229770
vt 0.691064 0.229770
vt 0.743852 0.258002
vt 0.691064 0.258002
vt 0.743852 0.286235
vt 0.691064 0.286235
vt 0.743852 0.314468
vt 0.691064 0.314468
vt 0.743852 0.342701
vt 0.691064 0.342701
vt 0.800342 0.229770
vt 0.800342 0.258002
vt 0.800342 0.286235
vt 0.800342 0.314468
vt 0.800342 0.342701
vt 0.993433 0.406980
vt 0.993433 0.440655
vt 0.992529 0.440655
vt 0.992529 0.406980
vt 0.993433 0.474331
vt 0.992529 0.474331
vt 0.993433 0.508007
vt 0.992529 0.508007
vt 0.993433 0.541682
vt 0.992529 0.541682
vt 0.993433 0.575358
vt 0.992529 0.575358
vt 0.994324 0.440655
vt 0.994324 0.406980
vt 0.995144 0.474331
vt 0.994324 0.474331
vt 0.995144 0.508007
vt 0.994324 0.508007
vt 0.995144 0.541682
vt 0.994324 0.541682
vt 0.995144 0.575358
vt 0.994324 0.575358
vt 0.996094 0.609034
vt 0.996094 0.575358
vt 0.996094 0.541682
vt 0.996094 0.508007
vt 0.996094 0.474331
vt 0.847966 0.345881
vt 0.847966 0.321454
vt 0.887120 0.321454
vt 0.887120 0.345881
vt 0.847966 0.297027
vt 0.887120 0.297027
vt 0.847966 0.272600
vt 0.887120 0.272600
vt 0.847966 0.248174
vt 0.887120 0.248174
vt 0.847966 0.223747
vt 0.887120 0.223747
vt 0.808154 0.345881
vt 0.808154 0.321454
vt 0.808154 0.297027
vt 0.808154 0.272600
vt 0.808154 0.248174
vt 0.808154 0.223747
vt 0.933719 0.602397
vt 0.894411 0.602397
vt 0.933719 0.626824
vt 0.894411 0.626824
vt 0.933719 0.651252
vt 0.894411 0.651252
vt 0.933719 0.675679
vt 0.894411 0.675679
vt 0.933719 0.700106
vt 0.894411 0.700106
vt 0.973338 0.602397
vt 0.973338 0.626824
vt 0.973338 0.651252
vt 0.973338 0.675679
vt 0.973338 0.700106
vt 0.625825 0.632786
vt 0.573979 0.632786
vt 0.625825 0.661010
vt 0.573979 0.661010
vt 0.625825 0.689234
vt 0.573979 0.689234
vt 0.625825 0.717458
vt 0.573979 0.717458
vt 0.625825 0.745681
vt 0.573979 0.745681
vt 0.682738 0.632786
vt 0.682738 0.661010
vt 0.682738 0.689234
vt 0.682738 0.717458
vt 0.682738 0.745681
vt 0.426851 0.183689
vt 0.285036 0.183689
vt 0.426851 0.206162
vt 0.285036 0.206162
vt 0.426851 0.228635
vt 0.285036 0.228635
vt 0.426851 0.251108
vt 0.285036 0.251108
vt 0.426851 0.273581
vt 0.285036 0.273581
vt 0.566166 0.183689
vt 0.566166 0.206162
vt 0.566166 0.228635
vt 0.566166 0.251108
vt 0.566166 0.273581
vt 0.141527 0.640966
vt 0.141527 0.618493
vt 0.284940 0.618493
vt 0.284940 0.640966
vt 0.141527 0.596019
vt 0.284940 0.596019
vt 0.141527 0.573546
vt 0.284940 0.573546
vt 0.141527 0.551072
vt 0.284940 0.551072
vt 0.141527 0.528599
vt 0.284940 0.528599
vt 0.003906 0.640966
vt 0.003906 0.618493
vt 0.003906 0.596019
vt 0.003906 0.573546
vt 0.003906 0.551072
vt 0.003906 0.528599
vt 0.743852 0.003906
vt 0.743852 0.032139
vt 0.691064 0.032139
vt 0.691064 0.003906
vt 0.743852 0.060372
vt 0.691064 0.060372
vt 0.743852 0.088605
vt 0.691064 0.088605
vt 0.743852 0.116838
vt 0.691064 0.116838
vt 0.743852 0.145071
vt 0.691064 0.145071
vt 0.800342 0.003906
vt 0.800342 0.032139
vt 0.800342 0.060372
vt 0.800342 0.088605
vt 0.800342 0.116838
vt 0.800342 0.145071
vt 0.890394 0.849708
vt 0.843327 0.849708
vt 0.843327 0.830564
vt 0.890394 0.830564
vt 0.843327 0.809938
vt 0.890394 0.809938
vt 0.795029 0.830564
vt 0.795029 0.809938
vt 0.795029 0.849708
vt 0.573979 0.173311
vt 0.630554 0.173311
vt 0.630554 0.201545
vt 0.573979 0.201545
vt 0.573979 0.370949
vt 0.630554 0.370949
vt 0.630554 0.399183
vt 0.573979 0.399183
vt 0.683252 0.370949
vt 0.683252 0.399183
vt 0.683252 0.173311
vt 0.683252 0.201545
vt 0.003906 0.701682
vt 0.121348 0.701682
vt 0.121348 0.729886
vt 0.003906 0.729886
vt 0.121348 0.759295
vt 0.003906 0.759295
vt 0.565974 0.506126
vt 0.428353 0.506126
vt 0.428353 0.483652
vt 0.565974 0.483652
vt 0.565974 0.348813
vt 0.428353 0.348813
vt 0.428353 0.326339
vt 0.565974 0.326339
vt 0.003906 0.138743
vt 0.143222 0.138743
vt 0.143222 0.161216
vt 0.003906 0.161216
vt 0.003906 0.296054
vt 0.143222 0.296054
vt 0.143222 0.318527
vt 0.003906 0.318527
vt 0.799820 0.632777
vt 0.742784 0.632777
vt 0.742784 0.604553
vt 0.799820 0.604553
vt 0.799820 0.435204
vt 0.742784 0.435204
vt 0.742784 0.406980
vt 0.799820 0.406980
vt 0.691064 0.435204
vt 0.691064 0.406980
vt 0.691064 0.632777
vt 0.691064 0.604553
vt 0.894933 0.150470
vt 0.934552 0.150470
vt 0.934552 0.174897
vt 0.894933 0.174897
vt 0.894933 0.321460
vt 0.934552 0.321460
vt 0.934552 0.345887
vt 0.894933 0.345887
vt 0.973860 0.321460
vt 0.973860 0.345887
vt 0.973860 0.150470
vt 0.973860 0.174897
vt 0.886599 0.602394
vt 0.846786 0.602394
vt 0.846786 0.577967
vt 0.886599 0.577967
vt 0.886599 0.431406
vt 0.846786 0.431406
vt 0.846786 0.406980
vt 0.886599 0.406980
vt 0.807633 0.431406
vt 0.807633 0.406980
vt 0.807633 0.602394
vt 0.807633 0.577967
vt 0.691064 0.850144
vt 0.739931 0.850144
vt 0.739931 0.869576
vt 0.691064 0.869576
vt 0.739931 0.890505
vt 0.691064 0.890505
vt 0.787217 0.869576
vt 0.787217 0.890505
vt 0.787217 0.850144
vt 0.389623 0.819227
vt 0.389623 0.846599
vt 0.389623 0.875299
vt 0.507016 0.846599
vt 0.507016 0.875299
vt 0.507016 0.819227
vt 0.691064 0.809938
vt 0.739931 0.809938
vt 0.739931 0.831071
vt 0.691064 0.831071
vt 0.787217 0.831071
vt 0.787217 0.809938
vt 0.003906 0.648778
vt 0.121348 0.648778
vt 0.121348 0.675941
vt 0.003906 0.675941
vt 0.389623 0.767107
vt 0.389623 0.793981
vt 0.507016 0.793981
vt 0.507016 0.767107
vt 0.890394 0.889324
vt 0.843327 0.889324
vt 0.843327 0.868497
vt 0.890394 0.868497
vt 0.795029 0.868497
vt 0.795029 0.889324
vt 0.219541 0.904184
vt 0.219541 0.898990
vt 0.272301 0.898990
vt 0.272301 0.904184
vt 0.324427 0.898990
vt 0.324427 0.904184
vt 0.272301 0.893791
vt 0.324427 0.893791
vt 0.219541 0.893791
vt 0.332239 0.883112
vt 0.383571 0.883112
vt 0.383571 0.888426
vt 0.332239 0.888426
vt 0.383571 0.893735
vt 0.332239 0.893735
vt 0.435510 0.888426
vt 0.435510 0.893735
vt 0.435510 0.883112
vt 0.219541 0.888455
vt 0.272301 0.888455
vt 0.324427 0.888455
vt 0.272301 0.883112
vt 0.324427 0.883112
vt 0.219541 0.883112
vt 0.435510 0.898913
vt 0.383571 0.898913
vt 0.332239 0.898913
vt 0.383571 0.904085
vt 0.332239 0.904085
vt 0.435510 0.904085
vt 0.984716 0.844017
vt 0.984716 0.877693
vt 0.983767 0.877693
vt 0.983767 0.844017
vt 0.984716 0.440562
vt 0.983767 0.440562
vt 0.983767 0.406980
vt 0.984716 0.406980
vt 0.982945 0.440562
vt 0.982054 0.440562
vt 0.982054 0.406980
vt 0.982945 0.406980
vt 0.981151 0.440562
vt 0.981151 0.406980
vt 0.982945 0.675637
vt 0.982054 0.675637
vt 0.982054 0.641961
vt 0.982945 0.641961
vt 0.983767 0.675637
vt 0.983767 0.641961
vt 0.981151 0.675637
vt 0.981151 0.641961
vt 0.981151 0.608380
vt 0.982054 0.608380
vt 0.981151 0.574828
vt 0.982054 0.574828
vt 0.981151 0.541246
vt 0.982054 0.541246
vt 0.981151 0.507695
vt 0.982054 0.507695
vt 0.981151 0.474113
vt 0.982054 0.474113
vt 0.982945 0.608380
vt 0.983767 0.608380
vt 0.982945 0.574828
vt 0.983767 0.574828
vt 0.982945 0.541246
vt 0.983767 0.541246
vt 0.982945 0.507695
vt 0.983767 0.507695
vt 0.982945 0.474113
vt 0.983767 0.474113
vt 0.984716 0.641961
vt 0.984716 0.608380
vt 0.984716 0.574828
vt 0.984716 0.541246
vt 0.984716 0.507695
vt 0.984716 0.474113
vt 0.807633 0.553540
vt 0.846786 0.553540
vt 0.807633 0.529113
vt 0.846786 0.529113
vt 0.807633 0.504687
vt 0.846786 0.504687
vt 0.807633 0.480260
vt 0.846786 0.480260
vt 0.807633 0.455833
vt 0.846786 0.455833
vt 0.886599 0.553540
vt 0.886599 0.529113
vt 0.886599 0.504687
vt 0.886599 0.480260
vt 0.886599 0.455833
vt 0.934552 0.003906
vt 0.973860 0.003906
vt 0.973860 0.028333
vt 0.934552 0.028333
vt 0.973860 0.052761
vt 0.934552 0.052761
vt 0.973860 0.077188
vt 0.934552 0.077188
vt 0.973860 0.101615
vt 0.934552 0.101615
vt 0.973860 0.126042
vt 0.934552 0.126042
vt 0.894933 0.003906
vt 0.894933 0.028333
vt 0.894933 0.052761
vt 0.894933 0.077188
vt 0.894933 0.101615
vt 0.894933 0.126042
vt 0.742784 0.802125
vt 0.691064 0.802125
vt 0.691064 0.773901
vt 0.742784 0.773901
vt 0.691064 0.745676
vt 0.742784 0.745676
vt 0.691064 0.717451
vt 0.742784 0.717451
vt 0.691064 0.689226
vt 0.742784 0.689226
vt 0.691064 0.661002
vt 0.742784 0.661002
vt 0.799820 0.802125
vt 0.799820 0.773901
vt 0.799820 0.745676
vt 0.799820 0.717451
vt 0.799820 0.689226
vt 0.799820 0.661002
vt 0.143222 0.003906
vt 0.143222 0.026379
vt 0.143222 0.048852
vt 0.143222 0.071325
vt 0.143222 0.093798
vt 0.143222 0.116271
vt 0.003906 0.003906
vt 0.003906 0.026379
vt 0.003906 0.048852
vt 0.003906 0.071325
vt 0.003906 0.093798
vt 0.003906 0.116271
vt 0.428353 0.461179
vt 0.428353 0.438706
vt 0.428353 0.416233
vt 0.428353 0.393759
vt 0.428353 0.371286
vt 0.565974 0.461179
vt 0.565974 0.438706
vt 0.565974 0.416233
vt 0.565974 0.393759
vt 0.565974 0.371286
vt 0.683252 0.229779
vt 0.630554 0.229779
vt 0.683252 0.258013
vt 0.630554 0.258013
vt 0.683252 0.286247
vt 0.630554 0.286247
vt 0.683252 0.314481
vt 0.630554 0.314481
vt 0.683252 0.342715
vt 0.630554 0.342715
vt 0.573979 0.229779
vt 0.573979 0.258013
vt 0.573979 0.286247
vt 0.573979 0.314481
vt 0.573979 0.342715
vt 0.982054 0.877693
vt 0.981151 0.877693
vt 0.981151 0.844017
vt 0.982054 0.844017
vt 0.981151 0.810341
vt 0.982054 0.810341
vt 0.981151 0.776665
vt 0.982054 0.776665
vt 0.981151 0.742989
vt 0.982054 0.742989
vt 0.981151 0.709313
vt 0.982054 0.709313
vt 0.982945 0.877693
vt 0.982945 0.844017
vt 0.982945 0.810341
vt 0.983767 0.810341
vt 0.982945 0.776665
vt 0.983767 0.776665
vt 0.982945 0.742989
vt 0.983767 0.742989
vt 0.982945 0.709313
vt 0.983767 0.709313
vt 0.984716 0.675637
vt 0.984716 0.709313
vt 0.984716 0.742989
vt 0.984716 0.776665
vt 0.984716 0.810341
vt 0.846786 0.748954
vt 0.807633 0.748954
vt 0.807633 0.724527
vt 0.846786 0.724527
vt 0.807633 0.700101
vt 0.846786 0.700101
vt 0.807633 0.675674
vt 0.846786 0.675674
vt 0.807633 0.651247
vt 0.846786 0.651247
vt 0.807633 0.626820
vt 0.846786 0.626820
vt 0.886599 0.748954
vt 0.886599 0.724527
vt 0.886599 0.700101
vt 0.886599 0.675674
vt 0.886599 0.651247
vt 0.886599 0.626820
vt 0.973860 0.199324
vt 0.934552 0.199324
vt 0.973860 0.223751
vt 0.934552 0.223751
vt 0.973860 0.248178
vt 0.934552 0.248178
vt 0.973860 0.272606
vt 0.934552 0.272606
vt 0.973860 0.297033
vt 0.934552 0.297033
vt 0.894933 0.199324
vt 0.894933 0.223751
vt 0.894933 0.248178
vt 0.894933 0.272606
vt 0.894933 0.297033
vt 0.691064 0.576328
vt 0.742784 0.576328
vt 0.691064 0.548103
vt 0.742784 0.548103
vt 0.691064 0.519879
vt 0.742784 0.519879
vt 0.691064 0.491654
vt 0.742784 0.491654
vt 0.691064 0.463429
vt 0.742784 0.463429
vt 0.799820 0.576328
vt 0.799820 0.548103
vt 0.799820 0.519879
vt 0.799820 0.491654
vt 0.799820 0.463429
vt 0.143222 0.183689
vt 0.143222 0.206162
vt 0.143222 0.228635
vt 0.143222 0.251108
vt 0.143222 0.273581
vt 0.003906 0.183689
vt 0.003906 0.206162
vt 0.003906 0.228635
vt 0.003906 0.251108
vt 0.003906 0.273581
vt 0.428353 0.640966
vt 0.428353 0.618493
vt 0.428353 0.596019
vt 0.428353 0.573546
vt 0.428353 0.551073
vt 0.428353 0.528599
vt 0.565974 0.640966
vt 0.565974 0.618493
vt 0.565974 0.596019
vt 0.565974 0.573546
vt 0.565974 0.551073
vt 0.565974 0.528599
vt 0.630554 0.003906
vt 0.683252 0.003906
vt 0.683252 0.032140
vt 0.630554 0.032140
vt 0.683252 0.060374
vt 0.630554 0.060374
vt 0.683252 0.088609
vt 0.630554 0.088609
vt 0.683252 0.116842
vt 0.630554 0.116842
vt 0.683252 0.145077
vt 0.630554 0.145077
vt 0.573979 0.003906
vt 0.573979 0.032140
vt 0.573979 0.060374
vt 0.573979 0.088609
vt 0.573979 0.116842
vt 0.573979 0.145077
s 1
usemtl Chocolate
f 20/1/1 56/2/2 67/3/3 58/4/4
f 56/2/2 12/5/5 27/6/6 67/3/3
f 67/3/3 27/6/6 4/7/7 55/8/8
f 58/4/4 67/3/3 55/8/8 19/9/9
f 201/10/10 30/11/10 68/12/11 243/13/12
f 99/14/10 8/15/13 40/16/14 136/17/15
f 136/17/15 40/16/14 21/18/16 112/19/17
f 243/13/12 68/12/11 37/20/18 214/21/19
f 17/22/20 51/23/21 69/24/22 53/25/23
f 51/23/21 14/26/24 33/27/25 69/24/22
f 69/24/22 33/27/25 6/28/26 50/29/27
f 53/25/23 69/24/22 50/29/27 16/30/28
f 226/31/29 46/32/29 70/33/30 249/34/30
f 124/35/29 13/36/31 43/37/32 142/38/30
f 142/38/30 43/37/32 5/39/33 105/40/34
f 249/34/30 70/33/30 35/41/34 207/42/34
f 118/43/35 45/44/35 71/45/36 153/46/36
f 220/47/35 12/48/5 42/49/37 250/50/36
f 250/50/36 42/49/37 2/51/38 213/52/39
f 153/46/36 71/45/36 36/53/39 111/54/39
f 93/55/40 29/56/40 72/57/41 159/58/42
f 195/59/40 3/60/43 61/61/44 256/62/45
f 256/62/45 61/61/44 9/63/46 237/64/47
f 159/58/42 72/57/41 59/65/48 135/66/49
f 94/67/10 30/68/10 73/69/50 165/70/50
f 196/71/10 4/72/7 27/73/6 262/74/50
f 262/74/50 27/73/6 12/75/5 220/76/35
f 165/70/50 73/69/50 45/77/35 118/78/35
f 190/79/40 29/80/40 74/81/51 273/82/51
f 88/83/40 7/84/52 32/85/53 166/86/51
f 166/86/51 32/85/53 13/87/31 124/88/29
f 273/82/51 74/81/51 46/89/29 226/90/29
f 15/91/54 49/92/55 75/93/56 52/94/57
f 49/92/55 8/95/13 44/96/58 75/93/56
f 75/93/56 44/96/58 14/97/24 51/98/21
f 52/94/57 75/93/56 51/98/21 17/99/20
f 18/100/59 26/101/60 76/102/61 57/103/62
f 26/101/60 2/104/38 42/105/37 76/102/61
f 76/102/61 42/105/37 12/106/5 56/107/2
f 57/103/62 76/102/61 56/107/2 20/108/1
f 7/109/52 31/110/63 77/111/64 32/112/53
f 31/110/63 15/91/54 52/94/57 77/111/64
f 77/111/64 52/94/57 17/99/20 47/113/65
f 32/112/53 77/111/64 47/113/65 13/114/31
f 13/115/31 47/116/65 78/117/66 43/118/32
f 47/116/65 17/22/20 53/25/23 78/117/66
f 78/117/66 53/25/23 16/30/28 34/119/67
f 43/118/32 78/117/66 34/119/67 5/120/33
f 1/121/68 54/122/69 79/123/70 25/124/71
f 54/122/69 18/100/59 57/103/62 79/123/70
f 79/123/70 57/103/62 20/108/1 48/125/72
f 25/124/71 79/123/70 48/125/72 11/126/73
f 11/127/73 48/128/72 80/129/74 41/130/75
f 48/128/72 20/1/1 58/4/4 80/129/74
f 80/129/74 58/4/4 19/9/9 28/131/76
f 41/130/75 80/129/74 28/131/76 3/132/43
f 7/133/52 60/134/77 81/135/78 31/136/63
f 60/134/77 10/137/79 62/138/80 81/135/78
f 81/135/78 62/138/80 23/139/81 64/140/82
f 31/136/63 81/135/78 64/140/82 15/141/54
f 22/142/83 65/143/84 82/144/85 38/145/86
f 65/143/84 24/146/84 66/147/87 82/144/85
f 82/144/85 66/147/87 19/148/9 55/149/8
f 38/145/86 82/144/85 55/149/8 4/150/7
f 15/141/54 64/140/82 83/151/88 49/152/55
f 64/140/82 23/139/81 63/153/89 83/151/88
f 83/151/88 63/153/89 21/154/16 40/155/14
f 49/152/55 83/151/88 40/155/14 8/156/13
f 19/148/9 66/147/87 84/157/90 28/158/76
f 66/147/87 24/146/84 39/159/84 84/157/90
f 84/157/90 39/159/84 9/160/46 61/161/44
f 28/158/76 84/157/90 61/161/44 3/162/43
f 219/163/91 285/164/91 65/165/84 22/166/83
f 112/167/92 21/168/16 63/169/89 178/170/93
f 172/171/94 23/172/81 62/173/80 184/174/95
f 178/170/93 63/169/89 23/172/81 172/171/94
f 184/174/95 62/173/80 10/175/79 130/176/96
f 279/177/91 85/178/97 87/179/98 286/180/91
f 280/181/91 86/182/99 85/178/97 279/177/91
f 286/180/91 87/179/98 59/183/100 232/184/91
f 87/179/98 189/185/101 135/186/102 59/183/100
f 189/185/101 188/187/103 134/188/104 135/186/102
f 188/187/103 187/189/105 133/190/106 134/188/104
f 187/189/105 186/191/107 132/192/108 133/190/106
f 186/191/107 185/193/109 131/194/110 132/192/108
f 185/193/109 184/174/95 130/176/96 131/194/110
f 86/182/99 183/195/111 177/196/112 85/178/97
f 183/195/111 182/197/113 176/198/114 177/196/112
f 182/197/113 181/199/115 175/200/116 176/198/114
f 181/199/115 180/201/117 174/202/118 175/200/116
f 180/201/117 179/203/119 173/204/120 174/202/118
f 179/203/119 178/170/93 172/171/94 173/204/120
f 85/178/97 177/196/112 189/185/101 87/179/98
f 177/196/112 176/198/114 188/187/103 189/185/101
f 176/198/114 175/200/116 187/189/105 188/187/103
f 175/200/116 174/202/118 186/191/107 187/189/105
f 174/202/118 173/204/120 185/193/109 186/191/107
f 173/204/120 172/171/94 184/174/95 185/193/109
f 37/205/121 117/206/122 183/195/111 86/182/99
f 117/206/122 116/207/123 182/197/113 183/195/111
f 116/207/123 115/208/124 181/199/115 182/197/113
f 115/208/124 114/209/125 180/201/117 181/199/115
f 114/209/125 113/210/126 179/203/119 180/201/117
f 113/210/126 112/167/92 178/170/93 179/203/119
f 74/81/51 171/211/51 129/212/29 46/89/29
f 171/211/51 170/213/51 128/214/29 129/212/29
f 170/213/51 169/215/51 127/216/29 128/214/29
f 169/215/51 168/217/51 126/218/29 127/216/29
f 168/217/51 167/219/51 125/220/29 126/218/29
f 167/219/51 166/86/51 124/88/29 125/220/29
f 29/80/40 93/221/40 171/211/51 74/81/51
f 93/221/40 92/222/40 170/213/51 171/211/51
f 92/222/40 91/223/40 169/215/51 170/213/51
f 91/223/40 90/224/40 168/217/51 169/215/51
f 90/224/40 89/225/40 167/219/51 168/217/51
f 89/225/40 88/83/40 166/86/51 167/219/51
f 44/226/58 160/227/50 123/228/35 14/229/24
f 160/227/50 161/230/50 122/231/35 123/228/35
f 161/230/50 162/232/50 121/233/35 122/231/35
f 162/232/50 163/234/50 120/235/35 121/233/35
f 163/234/50 164/236/50 119/237/35 120/235/35
f 164/236/50 165/70/50 118/78/35 119/237/35
f 8/238/13 99/239/10 160/227/50 44/226/58
f 99/239/10 98/240/10 161/230/50 160/227/50
f 98/240/10 97/241/10 162/232/50 161/230/50
f 97/241/10 96/242/10 163/234/50 162/232/50
f 96/242/10 95/243/10 164/236/50 163/234/50
f 95/243/10 94/67/10 165/70/50 164/236/50
f 60/244/77 154/245/127 130/246/128 10/247/79
f 154/245/127 155/248/129 131/249/130 130/246/128
f 155/248/129 156/250/131 132/251/132 131/249/130
f 156/250/131 157/252/133 133/253/134 132/251/132
f 157/252/133 158/254/135 134/255/136 133/253/134
f 158/254/135 159/58/42 135/66/49 134/255/136
f 7/256/52 88/257/40 154/245/127 60/244/77
f 88/257/40 89/258/40 155/248/129 154/245/127
f 89/258/40 90/259/40 156/250/131 155/248/129
f 90/259/40 91/260/40 157/252/133 156/250/131
f 91/260/40 92/261/40 158/254/135 157/252/133
f 92/261/40 93/55/40 159/58/42 158/254/135
f 33/262/25 148/263/36 106/264/39 6/265/26
f 148/263/36 149/266/36 107/267/39 106/264/39
f 149/266/36 150/268/36 108/269/39 107/267/39
f 150/268/36 151/270/36 109/271/39 108/269/39
f 151/270/36 152/272/36 110/273/39 109/271/39
f 152/272/36 153/46/36 111/54/39 110/273/39
f 14/274/24 123/275/35 148/263/36 33/262/25
f 123/275/35 122/276/35 149/266/36 148/263/36
f 122/276/35 121/277/35 150/268/36 149/266/36
f 121/277/35 120/278/35 151/270/36 150/268/36
f 120/278/35 119/279/35 152/272/36 151/270/36
f 119/279/35 118/43/35 153/46/36 152/272/36
f 70/33/30 147/280/30 100/281/34 35/41/34
f 147/280/30 146/282/30 101/283/34 100/281/34
f 146/282/30 145/284/30 102/285/34 101/283/34
f 145/284/30 144/286/30 103/287/34 102/285/34
f 144/286/30 143/288/30 104/289/34 103/287/34
f 143/288/30 142/38/30 105/40/34 104/289/34
f 46/32/29 129/290/29 147/280/30 70/33/30
f 129/290/29 128/291/29 146/282/30 147/280/30
f 128/291/29 127/292/29 145/284/30 146/282/30
f 127/292/29 126/293/29 144/286/30 145/284/30
f 126/293/29 125/294/29 143/288/30 144/286/30
f 125/294/29 124/35/29 142/38/30 143/288/30
f 68/12/11 141/295/137 117/296/138 37/20/18
f 141/295/137 140/297/139 116/298/140 117/296/138
f 140/297/139 139/299/141 115/300/142 116/298/140
f 139/299/141 138/301/143 114/302/144 115/300/142
f 138/301/143 137/303/145 113/304/146 114/302/144
f 137/303/145 136/17/15 112/19/17 113/304/146
f 30/11/10 94/305/10 141/295/137 68/12/11
f 94/305/10 95/306/10 140/297/139 141/295/137
f 95/306/10 96/307/10 139/299/141 140/297/139
f 96/307/10 97/308/10 138/301/143 139/299/141
f 97/308/10 98/309/10 137/303/145 138/301/143
f 98/309/10 99/14/10 136/17/15 137/303/145
f 39/310/84 291/311/91 237/312/91 9/313/46
f 291/311/91 290/314/91 236/315/91 237/312/91
f 290/314/91 289/316/91 235/317/91 236/315/91
f 289/316/91 288/318/91 234/319/91 235/317/91
f 288/318/91 287/320/91 233/321/91 234/319/91
f 287/320/91 286/180/91 232/184/91 233/321/91
f 65/165/84 285/164/91 274/322/91 24/323/84
f 285/164/91 284/324/91 275/325/91 274/322/91
f 284/324/91 283/326/91 276/327/91 275/325/91
f 283/326/91 282/328/91 277/329/91 276/327/91
f 282/328/91 281/330/91 278/331/91 277/329/91
f 281/330/91 280/181/91 279/177/91 278/331/91
f 24/323/84 274/322/91 291/311/91 39/310/84
f 274/322/91 275/325/91 290/314/91 291/311/91
f 275/325/91 276/327/91 289/316/91 290/314/91
f 276/327/91 277/329/91 288/318/91 289/316/91
f 277/329/91 278/331/91 287/320/91 288/318/91
f 278/331/91 279/177/91 286/180/91 287/320/91
f 37/205/121 86/182/99 280/181/91 214/332/91
f 214/332/91 280/181/91 281/330/91 215/333/91
f 215/333/91 281/330/91 282/328/91 216/334/91
f 216/334/91 282/328/91 283/326/91 217/335/91
f 217/335/91 283/326/91 284/324/91 218/336/91
f 218/336/91 284/324/91 285/164/91 219/163/91
f 41/337/75 268/338/51 231/339/29 11/340/73
f 268/338/51 269/341/51 230/342/29 231/339/29
f 269/341/51 270/343/51 229/344/29 230/342/29
f 270/343/51 271/345/51 228/346/29 229/344/29
f 271/345/51 272/347/51 227/348/29 228/346/29
f 272/347/51 273/82/51 226/90/29 227/348/29
f 3/349/43 195/350/40 268/338/51 41/337/75
f 195/350/40 194/351/40 269/341/51 268/338/51
f 194/351/40 193/352/40 270/343/51 269/341/51
f 193/352/40 192/353/40 271/345/51 270/343/51
f 192/353/40 191/354/40 272/347/51 271/345/51
f 191/354/40 190/79/40 273/82/51 272/347/51
f 73/69/50 267/355/50 225/356/35 45/77/35
f 267/355/50 266/357/50 224/358/35 225/356/35
f 266/357/50 265/359/50 223/360/35 224/358/35
f 265/359/50 264/361/50 222/362/35 223/360/35
f 264/361/50 263/363/50 221/364/35 222/362/35
f 263/363/50 262/74/50 220/76/35 221/364/35
f 30/68/10 201/365/10 267/355/50 73/69/50
f 201/365/10 200/366/10 266/357/50 267/355/50
f 200/366/10 199/367/10 265/359/50 266/357/50
f 199/367/10 198/368/10 264/361/50 265/359/50
f 198/368/10 197/369/10 263/363/50 264/361/50
f 197/369/10 196/71/10 262/74/50 263/363/50
f 72/57/41 261/370/147 232/371/148 59/65/48
f 261/370/147 260/372/149 233/373/150 232/371/148
f 260/372/149 259/374/151 234/375/152 233/373/150
f 259/374/151 258/376/153 235/377/154 234/375/152
f 258/376/153 257/378/155 236/379/156 235/377/154
f 257/378/155 256/62/45 237/64/47 236/379/156
f 29/56/40 190/380/40 261/370/147 72/57/41
f 190/380/40 191/381/40 260/372/149 261/370/147
f 191/381/40 192/382/40 259/374/151 260/372/149
f 192/382/40 193/383/40 258/376/153 259/374/151
f 193/383/40 194/384/40 257/378/155 258/376/153
f 194/384/40 195/59/40 256/62/45 257/378/155
f 71/45/36 255/385/36 208/386/39 36/53/39
f 255/385/36 254/387/36 209/388/39 208/386/39
f 254/387/36 253/389/36 210/390/39 209/388/39
f 253/389/36 252/391/36 211/392/39 210/390/39
f 252/391/36 251/393/36 212/394/39 211/392/39
f 251/393/36 250/50/36 213/52/39 212/394/39
f 45/44/35 225/395/35 255/385/36 71/45/36
f 225/395/35 224/396/35 254/387/36 255/385/36
f 224/396/35 223/397/35 253/389/36 254/387/36
f 223/397/35 222/398/35 252/391/36 253/389/36
f 222/398/35 221/399/35 251/393/36 252/391/36
f 221/399/35 220/47/35 250/50/36 251/393/36
f 25/400/71 244/401/30 202/402/34 1/403/68
f 244/401/30 245/404/30 203/405/34 202/402/34
f 245/404/30 246/406/30 204/407/34 203/405/34
f 246/406/30 247/408/30 205/409/34 204/407/34
f 247/408/30 248/410/30 206/411/34 205/409/34
f 248/410/30 249/34/30 207/42/34 206/411/34
f 11/412/73 231/413/29 244/401/30 25/400/71
f 231/413/29 230/414/29 245/404/30 244/401/30
f 230/414/29 229/415/29 246/406/30 245/404/30
f 229/415/29 228/416/29 247/408/30 246/406/30
f 228/416/29 227/417/29 248/410/30 247/408/30
f 227/417/29 226/31/29 249/34/30 248/410/30
f 38/418/86 238/419/157 219/420/158 22/421/83
f 238/419/157 239/422/159 218/423/160 219/420/158
f 239/422/159 240/424/161 217/425/162 218/423/160
f 240/424/161 241/426/163 216/427/164 217/425/162
f 241/426/163 242/428/165 215/429/166 216/427/164
f 242/428/165 243/13/12 214/21/19 215/429/166
f 4/430/7 196/431/10 238/419/157 38/418/86
f 196/431/10 197/432/10 239/422/159 238/419/157
f 197/432/10 198/433/10 240/424/161 239/422/159
f 198/433/10 199/434/10 241/426/163 240/424/161
f 199/434/10 200/435/10 242/428/165 241/426/163
f 200/435/10 201/10/10 243/13/12 242/428/165
f 305/436/167 337/437/168 346/438/169 335/439/170
f 335/439/170 346/438/169 311/440/171 299/441/172
f 346/438/169 334/442/173 293/443/174 311/440/171
f 337/437/168 304/444/175 334/442/173 346/438/169
f 468/445/176 498/446/177 347/447/178 314/448/176
f 378/449/176 403/450/179 321/451/180 295/452/181
f 403/450/179 379/453/182 306/454/183 321/451/180
f 498/446/177 469/455/184 318/456/185 347/447/178
f 303/457/186 333/458/187 348/459/188 331/460/189
f 331/460/189 348/459/188 317/461/190 301/462/191
f 348/459/188 50/29/27 6/28/26 317/461/190
f 333/458/187 16/30/28 50/29/27 348/459/188
f 481/463/192 504/464/193 349/465/193 327/466/192
f 391/467/192 409/468/193 324/469/194 300/470/195
f 409/468/193 105/40/34 5/39/33 324/469/194
f 504/464/193 207/42/34 35/41/34 349/465/193
f 385/471/196 420/472/197 350/473/197 326/474/196
f 475/475/196 505/476/197 323/477/198 299/478/172
f 505/476/197 213/52/39 2/51/38 323/477/198
f 420/472/197 111/54/39 36/53/39 350/473/197
f 372/479/199 426/480/200 351/481/201 313/482/199
f 462/483/199 511/484/202 340/485/203 292/486/204
f 511/484/202 492/487/205 296/488/206 340/485/203
f 426/480/200 402/489/207 338/490/208 351/481/201
f 373/491/176 432/492/209 352/493/209 314/494/176
f 463/495/176 517/496/209 311/497/171 293/498/174
f 517/496/209 475/499/196 299/500/172 311/497/171
f 432/492/209 385/501/196 326/502/196 352/493/209
f 457/503/199 528/504/210 353/505/210 313/506/199
f 367/507/199 433/508/210 316/509/211 294/510/212
f 433/508/210 391/511/192 300/512/195 316/509/211
f 528/504/210 481/513/192 327/514/192 353/505/210
f 302/515/213 332/516/214 354/517/215 330/518/216
f 330/518/216 354/517/215 325/519/217 295/520/181
f 354/517/215 331/521/189 301/522/191 325/519/217
f 332/516/214 303/523/186 331/521/189 354/517/215
f 18/100/59 336/524/218 355/525/219 26/101/60
f 26/101/60 355/525/219 323/526/198 2/104/38
f 355/525/219 335/527/170 299/528/172 323/526/198
f 336/524/218 305/529/167 335/527/170 355/525/219
f 294/530/212 316/531/211 356/532/220 315/533/221
f 315/533/221 356/532/220 332/516/214 302/515/213
f 356/532/220 328/534/222 303/523/186 332/516/214
f 316/531/211 300/535/195 328/534/222 356/532/220
f 300/536/195 324/537/194 357/538/223 328/539/222
f 328/539/222 357/538/223 333/458/187 303/457/186
f 357/538/223 34/119/67 16/30/28 333/458/187
f 324/537/194 5/120/33 34/119/67 357/538/223
f 1/121/68 310/540/224 358/541/225 54/122/69
f 54/122/69 358/541/225 336/524/218 18/100/59
f 358/541/225 329/542/226 305/529/167 336/524/218
f 310/540/224 298/543/227 329/542/226 358/541/225
f 298/544/227 322/545/228 359/546/229 329/547/226
f 329/547/226 359/546/229 337/437/168 305/436/167
f 359/546/229 312/548/230 304/444/175 337/437/168
f 322/545/228 292/549/204 312/548/230 359/546/229
f 294/550/212 315/551/221 360/552/231 339/553/232
f 339/553/232 360/552/231 341/554/233 297/555/234
f 360/552/231 343/556/235 308/557/236 341/554/233
f 315/551/221 302/558/213 343/556/235 360/552/231
f 307/559/237 319/560/238 361/561/239 344/562/240
f 344/562/240 361/561/239 345/563/241 309/564/240
f 361/561/239 334/565/173 304/566/175 345/563/241
f 319/560/238 293/567/174 334/565/173 361/561/239
f 302/558/213 330/568/216 362/569/242 343/556/235
f 343/556/235 362/569/242 342/570/243 308/557/236
f 362/569/242 321/571/180 306/572/183 342/570/243
f 330/568/216 295/573/181 321/571/180 362/569/242
f 304/566/175 312/574/230 363/575/244 345/563/241
f 345/563/241 363/575/244 320/576/240 309/564/240
f 363/575/244 340/577/203 296/578/206 320/576/240
f 312/574/230 292/579/204 340/577/203 363/575/244
f 474/580/245 307/581/237 344/582/240 540/583/245
f 379/584/246 445/585/247 342/586/243 306/587/183
f 439/588/248 451/589/249 341/590/233 308/591/236
f 445/585/247 439/588/248 308/591/236 342/586/243
f 451/589/249 397/592/250 297/593/234 341/590/233
f 534/594/245 541/595/245 366/596/251 364/597/252
f 535/598/245 534/594/245 364/597/252 365/599/253
f 541/595/245 487/600/245 338/601/254 366/596/251
f 366/596/251 338/601/254 402/602/255 456/603/256
f 456/603/256 402/602/255 401/604/257 455/605/258
f 455/605/258 401/604/257 400/606/259 454/607/260
f 454/607/260 400/606/259 399/608/261 453/609/262
f 453/609/262 399/608/261 398/610/263 452/611/264
f 452/611/264 398/610/263 397/592/250 451/589/249
f 365/599/253 364/597/252 444/612/265 450/613/266
f 450/613/266 444/612/265 443/614/267 449/615/268
f 449/615/268 443/614/267 442/616/269 448/617/270
f 448/617/270 442/616/269 441/618/271 447/619/272
f 447/619/272 441/618/271 440/620/273 446/621/274
f 446/621/274 440/620/273 439/588/248 445/585/247
f 364/597/252 366/596/251 456/603/256 444/612/265
f 444/612/265 456/603/256 455/605/258 443/614/267
f 443/614/267 455/605/258 454/607/260 442/616/269
f 442/616/269 454/607/260 453/609/262 441/618/271
f 441/618/271 453/609/262 452/611/264 440/620/273
f 440/620/273 452/611/264 451/589/249 439/588/248
f 318/622/275 365/599/253 450/613/266 384/623/276
f 384/623/276 450/613/266 449/615/268 383/624/277
f 383/624/277 449/615/268 448/617/270 382/625/278
f 382/625/278 448/617/270 447/619/272 381/626/279
f 381/626/279 447/619/272 446/621/274 380/627/280
f 380/627/280 446/621/274 445/585/247 379/584/246
f 353/505/210 327/514/192 396/628/192 438/629/210
f 438/629/210 396/628/192 395/630/192 437/631/210
f 437/631/210 395/630/192 394/632/192 436/633/210
f 436/633/210 394/632/192 393/634/192 435/635/210
f 435/635/210 393/634/192 392/636/192 434/637/210
f 434/637/210 392/636/192 391/511/192 433/508/210
f 313/506/199 353/505/210 438/629/210 372/638/199
f 372/638/199 438/629/210 437/631/210 371/639/199
f 371/639/199 437/631/210 436/633/210 370/640/199
f 370/640/199 436/633/210 435/635/210 369/641/199
f 369/641/199 435/635/210 434/637/210 368/642/199
f 368/642/199 434/637/210 433/508/210 367/507/199
f 325/643/217 301/644/191 390/645/196 427/646/209
f 427/646/209 390/645/196 389/647/196 428/648/209
f 428/648/209 389/647/196 388/649/196 429/650/209
f 429/650/209 388/649/196 387/651/196 430/652/209
f 430/652/209 387/651/196 386/653/196 431/654/209
f 431/654/209 386/653/196 385/501/196 432/492/209
f 295/655/181 325/643/217 427/646/209 378/656/176
f 378/656/176 427/646/209 428/648/209 377/657/176
f 377/657/176 428/648/209 429/650/209 376/658/176
f 376/658/176 429/650/209 430/652/209 375/659/176
f 375/659/176 430/652/209 431/654/209 374/660/176
f 374/660/176 431/654/209 432/492/209 373/491/176
f 339/661/232 297/662/234 397/663/281 421/664/282
f 421/664/282 397/663/281 398/665/283 422/666/284
f 422/666/284 398/665/283 399/667/285 423/668/286
f 423/668/286 399/667/285 400/669/287 424/670/288
f 424/670/288 400/669/287 401/671/289 425/672/290
f 425/672/290 401/671/289 402/489/207 426/480/200
f 294/673/212 339/661/232 421/664/282 367/674/199
f 367/674/199 421/664/282 422/666/284 368/675/199
f 368/675/199 422/666/284 423/668/286 369/676/199
f 369/676/199 423/668/286 424/670/288 370/677/199
f 370/677/199 424/670/288 425/672/290 371/678/199
f 371/678/199 425/672/290 426/480/200 372/479/199
f 317/679/190 6/265/26 106/264/39 415/680/197
f 415/680/197 106/264/39 107/267/39 416/681/197
f 416/681/197 107/267/39 108/269/39 417/682/197
f 417/682/197 108/269/39 109/271/39 418/683/197
f 418/683/197 109/271/39 110/273/39 419/684/197
f 419/684/197 110/273/39 111/54/39 420/472/197
f 301/685/191 317/679/190 415/680/197 390/686/196
f 390/686/196 415/680/197 416/681/197 389/687/196
f 389/687/196 416/681/197 417/682/197 388/688/196
f 388/688/196 417/682/197 418/683/197 387/689/196
f 387/689/196 418/683/197 419/684/197 386/690/196
f 386/690/196 419/684/197 420/472/197 385/471/196
f 349/465/193 35/41/34 100/281/34 414/691/193
f 414/691/193 100/281/34 101/283/34 413/692/193
f 413/692/193 101/283/34 102/285/34 412/693/193
f 412/693/193 102/285/34 103/287/34 411/694/193
f 411/694/193 103/287/34 104/289/34 410/695/193
f 410/695/193 104/289/34 105/40/34 409/468/193
f 327/466/192 349/465/193 414/691/193 396/696/192
f 396/696/192 414/691/193 413/692/193 395/697/192
f 395/697/192 413/692/193 412/693/193 394/698/192
f 394/698/192 412/693/193 411/694/193 393/699/192
f 393/699/192 411/694/193 410/695/193 392/700/192
f 392/700/192 410/695/193 409/468/193 391/467/192
f 347/447/178 318/456/185 384/701/291 408/702/292
f 408/702/292 384/701/291 383/703/293 407/704/294
f 407/704/294 383/703/293 382/705/295 406/706/296
f 406/706/296 382/705/295 381/707/297 405/708/298
f 405/708/298 381/707/297 380/709/299 404/710/300
f 404/710/300 380/709/299 379/453/182 403/450/179
f 314/448/176 347/447/178 408/702/292 373/711/176
f 373/711/176 408/702/292 407/704/294 374/712/176
f 374/712/176 407/704/294 406/706/296 375/713/176
f 375/713/176 406/706/296 405/708/298 376/714/176
f 376/714/176 405/708/298 404/710/300 377/715/176
f 377/715/176 404/710/300 403/450/179 378/449/176
f 320/716/240 296/717/206 492/718/245 546/719/245
f 546/719/245 492/718/245 491/720/245 545/721/245
f 545/721/245 491/720/245 490/722/245 544/723/245
f 544/723/245 490/722/245 489/724/245 543/725/245
f 543/725/245 489/724/245 488/726/245 542/727/245
f 542/727/245 488/726/245 487/600/245 541/595/245
f 344/582/240 309/728/240 529/729/245 540/583/245
f 540/583/245 529/729/245 530/730/245 539/731/245
f 539/731/245 530/730/245 531/732/245 538/733/245
f 538/733/245 531/732/245 532/734/245 537/735/245
f 537/735/245 532/734/245 533/736/245 536/737/245
f 536/737/245 533/736/245 534/594/245 535/598/245
f 309/728/240 320/716/240 546/719/245 529/729/245
f 529/729/245 546/719/245 545/721/245 530/730/245
f 530/730/245 545/721/245 544/723/245 531/732/245
f 531/732/245 544/723/245 543/725/245 532/734/245
f 532/734/245 543/725/245 542/727/245 533/736/245
f 533/736/245 542/727/245 541/595/245 534/594/245
f 318/622/275 469/738/245 535/598/245 365/599/253
f 469/738/245 470/739/245 536/737/245 535/598/245
f 470/739/245 471/740/245 537/735/245 536/737/245
f 471/740/245 472/741/245 538/733/245 537/735/245
f 472/741/245 473/742/245 539/731/245 538/733/245
f 473/742/245 474/580/245 540/583/245 539/731/245
f 322/743/228 298/744/227 486/745/192 523/746/210
f 523/746/210 486/745/192 485/747/192 524/748/210
f 524/748/210 485/747/192 484/749/192 525/750/210
f 525/750/210 484/749/192 483/751/192 526/752/210
f 526/752/210 483/751/192 482/753/192 527/754/210
f 527/754/210 482/753/192 481/513/192 528/504/210
f 292/755/204 322/743/228 523/746/210 462/756/199
f 462/756/199 523/746/210 524/748/210 461/757/199
f 461/757/199 524/748/210 525/750/210 460/758/199
f 460/758/199 525/750/210 526/752/210 459/759/199
f 459/759/199 526/752/210 527/754/210 458/760/199
f 458/760/199 527/754/210 528/504/210 457/503/199
f 352/493/209 326/502/196 480/761/196 522/762/209
f 522/762/209 480/761/196 479/763/196 521/764/209
f 521/764/209 479/763/196 478/765/196 520/766/209
f 520/766/209 478/765/196 477/767/196 519/768/209
f 519/768/209 477/767/196 476/769/196 518/770/209
f 518/770/209 476/769/196 475/499/196 517/496/209
f 314/494/176 352/493/209 522/762/209 468/771/176
f 468/771/176 522/762/209 521/764/209 467/772/176
f 467/772/176 521/764/209 520/766/209 466/773/176
f 466/773/176 520/766/209 519/768/209 465/774/176
f 465/774/176 519/768/209 518/770/209 464/775/176
f 464/775/176 518/770/209 517/496/209 463/495/176
f 351/481/201 338/490/208 487/776/301 516/777/302
f 516/777/302 487/776/301 488/778/303 515/779/304
f 515/779/304 488/778/303 489/780/305 514/781/306
f 514/781/306 489/780/305 490/782/307 513/783/308
f 513/783/308 490/782/307 491/784/309 512/785/310
f 512/785/310 491/784/309 492/487/205 511/484/202
f 313/482/199 351/481/201 516/777/302 457/786/199
f 457/786/199 516/777/302 515/779/304 458/787/199
f 458/787/199 515/779/304 514/781/306 459/788/199
f 459/788/199 514/781/306 513/783/308 460/789/199
f 460/789/199 513/783/308 512/785/310 461/790/199
f 461/790/199 512/785/310 511/484/202 462/483/199
f 350/473/197 36/53/39 208/386/39 510/791/197
f 510/791/197 208/386/39 209/388/39 509/792/197
f 509/792/197 209/388/39 210/390/39 508/793/197
f 508/793/197 210/390/39 211/392/39 507/794/197
f 507/794/197 211/392/39 212/394/39 506/795/197
f 506/795/197 212/394/39 213/52/39 505/476/197
f 326/474/196 350/473/197 510/791/197 480/796/196
f 480/796/196 510/791/197 509/792/197 479/797/196
f 479/797/196 509/792/197 508/793/197 478/798/196
f 478/798/196 508/793/197 507/794/197 477/799/196
f 477/799/196 507/794/197 506/795/197 476/800/196
f 476/800/196 506/795/197 505/476/197 475/475/196
f 310/801/224 1/403/68 202/402/34 499/802/193
f 499/802/193 202/402/34 203/405/34 500/803/193
f 500/803/193 203/405/34 204/407/34 501/804/193
f 501/804/193 204/407/34 205/409/34 502/805/193
f 502/805/193 205/409/34 206/411/34 503/806/193
f 503/806/193 206/411/34 207/42/34 504/464/193
f 298/807/227 310/801/224 499/802/193 486/808/192
f 486/808/192 499/802/193 500/803/193 485/809/192
f 485/809/192 500/803/193 501/804/193 484/810/192
f 484/810/192 501/804/193 502/805/193 483/811/192
f 483/811/192 502/805/193 503/806/193 482/812/192
f 482/812/192 503/806/193 504/464/193 481/463/192
f 319/813/238 307/814/237 474/815/311 493/816/312
f 493/816/312 474/815/311 473/817/313 494/818/314
f 494/818/314 473/817/313 472/819/315 495/820/316
f 495/820/316 472/819/315 471/821/317 496/822/318
f 496/822/318 471/821/317 470/823/319 497/824/320
f 497/824/320 470/823/319 469/455/184 498/446/177
f 293/825/174 319/813/238 493/816/312 463/826/176
f 463/826/176 493/816/312 494/818/314 464/827/176
f 464/827/176 494/818/314 495/820/316 465/828/176
f 465/828/176 495/820/316 496/822/318 466/829/176
f 466/829/176 496/822/318 497/824/320 467/830/176
f 467/830/176 497/824/320 498/446/177 468/445/176
