# Blender 5.0.1
# www.blender.org
mtllib Galletas bolsa.mtl
o Galletitas_2
v -0.000003 -2.478688 0.980331
v -0.000003 1.645637 0.134685
v -0.000003 -2.481439 -0.983445
v -0.000003 1.645637 -0.135213
v 2.213485 -2.466875 0.931280
v 2.108523 1.645637 0.120709
v 2.213094 -2.503689 -0.926940
v 2.116325 1.645637 -0.124089
v -0.000003 -1.435662 0.985464
v -0.000003 -0.367634 0.865866
v -0.000003 0.700393 0.567264
v -0.000003 0.700393 -0.567792
v -0.000003 -0.367634 -0.866394
v -0.000003 -1.435662 -0.985992
v 2.082102 0.700510 -0.520723
v 2.115660 -0.367169 -0.793848
v 2.170388 -1.435546 -0.904451
v 2.070523 0.700520 0.512168
v 2.121662 -0.367263 0.809783
v 2.174440 -1.435569 0.920820
v -0.000003 -2.503690 -0.000264
v 2.284527 -2.503690 -0.000264
v 2.090441 1.645637 -0.000264
v 2.288528 -1.434536 0.002527
v 2.143715 -0.363129 0.010902
v 1.898651 0.701520 0.002527
v -0.000003 2.099745 -0.000264
v -0.000003 2.092842 -0.022617
v 2.204817 2.099744 -0.020937
v 2.233518 2.099745 -0.000264
v 2.209021 2.099745 0.020662
v -0.000003 2.099745 0.022136
v 1.862411 -2.481439 -0.983445
v 1.487934 -2.481439 -0.983445
v 1.113661 -2.481439 -0.983445
v 0.739388 -2.481439 -0.983445
v 0.365116 -2.481439 -0.983445
v 0.357584 1.645637 -0.135213
v 0.716526 1.645637 -0.135213
v 1.075469 1.645637 -0.135213
v 1.434411 1.645637 -0.135213
v 1.793354 1.645637 -0.135213
v 0.365096 -2.478688 0.980331
v 0.739350 -2.478688 0.980331
v 1.113603 -2.478688 0.980331
v 1.487856 -2.478688 0.980331
v 1.862340 -2.478688 0.980331
v 1.793354 1.645637 0.134685
v 1.434411 1.645637 0.134685
v 1.075469 1.645637 0.134685
v 0.716526 1.645637 0.134685
v 0.357584 1.645637 0.134685
v 1.823882 -1.435662 0.985464
v 1.457274 -1.435662 0.985464
v 1.090666 -1.435662 0.985464
v 0.724058 -1.435662 0.985464
v 0.357451 -1.435662 0.985464
v 1.786339 -0.367634 0.865866
v 1.427240 -0.367634 0.865866
v 1.068140 -0.367634 0.865866
v 0.709041 -0.367634 0.865866
v 0.349942 -0.367634 0.865866
v 1.778777 0.700393 0.567264
v 1.421502 0.700393 0.567264
v 1.064227 0.700393 0.567264
v 0.706952 0.700393 0.567264
v 0.349678 0.700393 0.567264
v 0.357451 -1.435662 -0.985992
v 0.724059 -1.435662 -0.985992
v 1.090666 -1.435662 -0.985992
v 1.457274 -1.435662 -0.985992
v 1.823882 -1.435662 -0.985992
v 0.349942 -0.367634 -0.866394
v 0.709041 -0.367634 -0.866394
v 1.068141 -0.367634 -0.866394
v 1.427240 -0.367634 -0.866394
v 1.786338 -0.367634 -0.866394
v 0.349678 0.700393 -0.567792
v 0.706952 0.700393 -0.567792
v 1.064227 0.700393 -0.567792
v 1.421502 0.700393 -0.567792
v 1.778777 0.700393 -0.567792
v 1.870840 -2.503689 -0.000264
v 1.488560 -2.503689 -0.000264
v 1.114130 -2.503689 -0.000264
v 0.739701 -2.503689 -0.000264
v 0.365272 -2.503689 -0.000264
v 0.372087 2.092842 -0.022617
v 0.743963 2.092842 -0.022617
v 1.115844 2.092842 -0.022617
v 1.487725 2.092842 -0.022617
v 1.859606 2.092842 -0.022617
v 1.861299 2.099745 0.022136
v 1.489079 2.099745 0.022136
v 1.116859 2.099745 0.022136
v 0.744640 2.099745 0.022136
v 0.372426 2.099745 0.022136
v 0.372426 2.099744 -0.000264
v 0.744639 2.099744 -0.000264
v 1.116859 2.099744 -0.000264
v 1.489079 2.099744 -0.000264
v 1.861299 2.099744 -0.000264
v -0.000003 -2.503690 0.501786
v -0.000003 1.219060 0.334940
v -0.000003 -1.969676 -1.002067
v 0.177979 -2.481439 -0.983445
v 1.972825 1.645637 -0.135213
v 2.192456 -1.969661 -0.919453
v 2.266399 -2.503690 -0.502314
v 2.112128 1.645637 0.066481
v 2.196931 -1.969664 0.935635
v 2.049956 -2.478688 0.980331
v 0.178115 1.645637 0.134685
v -0.000003 -1.969676 1.001539
v -0.000003 -0.901648 0.942958
v -0.000003 0.166380 0.745593
v -0.000003 1.219060 -0.335468
v -0.000003 0.166380 -0.746121
v -0.000003 -0.901648 -0.943486
v 2.090424 1.219074 -0.307801
v 2.092620 0.166714 -0.683812
v 2.143501 -0.901314 -0.864909
v 2.076874 1.219078 0.299500
v 2.098721 0.166651 0.694771
v 2.147864 -0.901381 0.881542
v 0.174147 -1.435662 0.985464
v 0.170392 -0.367634 0.865866
v 0.171040 0.700393 0.567264
v 2.250801 -1.434969 0.494317
v 2.144378 -0.364863 0.439670
v 1.986840 0.701090 0.282740
v 2.007185 -1.435662 -0.985992
v 1.965888 -0.367634 -0.866394
v 1.957415 0.700393 -0.567792
v -0.000003 -2.503690 -0.502314
v 2.266399 -2.503690 0.501786
v 2.114244 1.645637 -0.067738
v 2.250801 -1.434969 -0.491411
v 2.144378 -0.364863 -0.426460
v 1.990008 0.701086 -0.282311
v 1.990711 0.169618 0.007761
v 2.244831 -0.898410 0.007761
v 2.295560 -1.969535 0.000085
v 0.178057 -2.503689 -0.000264
v 1.961500 1.219200 0.000085
v -0.000003 2.099745 -0.011464
v 2.045547 2.006088 -0.022617
v 2.233518 2.099745 0.010936
v 0.186329 2.012991 0.022136
v -0.000003 2.099745 0.010936
v 2.233518 2.099745 -0.011464
v 2.047408 2.012991 -0.000264
v -0.000003 1.918735 -0.044279
v 2.160464 1.918735 0.040391
v -0.000003 1.918735 0.043752
v 2.155975 1.918735 -0.040651
v 2.179084 1.918735 -0.000264
v 2.049983 -2.481439 -0.983445
v 1.675096 -2.481439 -0.983445
v 1.300797 -2.481439 -0.983445
v 0.926524 -2.481439 -0.983445
v 0.552252 -2.481439 -0.983445
v 0.178115 1.645637 -0.135213
v 0.537055 1.645637 -0.135213
v 0.895997 1.645637 -0.135213
v 1.254940 1.645637 -0.135213
v 1.613883 1.645637 -0.135213
v 0.177969 -2.478688 0.980331
v 0.552223 -2.478688 0.980331
v 0.926477 -2.478688 0.980331
v 1.300730 -2.478688 0.980331
v 1.675012 -2.478688 0.980331
v 1.970709 1.645637 0.133955
v 1.613883 1.645637 0.134685
v 1.254940 1.645637 0.134685
v 0.895997 1.645637 0.134685
v 0.537055 1.645637 0.134685
v 2.007185 -1.435662 0.985464
v 1.640578 -1.435662 0.985464
v 1.273970 -1.435662 0.985464
v 0.907362 -1.435662 0.985464
v 0.540755 -1.435662 0.985464
v 1.965889 -0.367634 0.865866
v 1.606789 -0.367634 0.865866
v 1.247690 -0.367634 0.865866
v 0.888591 -0.367634 0.865866
v 0.529491 -0.367634 0.865866
v 1.954247 0.700398 0.564787
v 1.600140 0.700393 0.567264
v 1.242865 0.700393 0.567264
v 0.885590 0.700393 0.567264
v 0.528315 0.700393 0.567264
v 0.174147 -1.435662 -0.985992
v 0.540755 -1.435662 -0.985992
v 0.907362 -1.435662 -0.985992
v 1.273970 -1.435662 -0.985992
v 1.640578 -1.435662 -0.985992
v 0.170392 -0.367634 -0.866394
v 0.529491 -0.367634 -0.866394
v 0.888591 -0.367634 -0.866394
v 1.247690 -0.367634 -0.866394
v 1.606789 -0.367634 -0.866394
v 0.171040 0.700393 -0.567792
v 0.528315 0.700393 -0.567792
v 0.885590 0.700393 -0.567792
v 1.242865 0.700393 -0.567792
v 1.600140 0.700393 -0.567792
v 2.074739 -2.503689 -0.000264
v 1.676755 -2.503689 -0.000264
v 1.301345 -2.503689 -0.000264
v 0.926916 -2.503689 -0.000264
v 0.552486 -2.503689 -0.000264
v 0.186159 2.006088 -0.022617
v 0.558023 2.006088 -0.022617
v 0.929903 2.006088 -0.022617
v 1.301784 2.006088 -0.022617
v 1.673666 2.006088 -0.022617
v 2.047409 2.012991 0.022136
v 1.675189 2.012991 0.022136
v 1.302970 2.012991 0.022136
v 0.930749 2.012991 0.022136
v 0.558530 2.012991 0.022136
v 0.186329 2.012990 -0.000264
v 0.558530 2.012991 -0.000264
v 0.930749 2.012991 -0.000264
v 1.302969 2.012991 -0.000264
v 1.675189 2.012991 -0.000264
v 1.822347 1.918735 -0.044279
v 1.457879 1.918735 -0.044279
v 1.093410 1.918735 -0.044279
v 0.728942 1.918735 -0.044279
v 0.364477 1.918735 -0.044279
v 1.861299 2.099744 -0.011464
v 1.489079 2.099744 -0.011464
v 1.116859 2.099744 -0.011464
v 0.744640 2.099744 -0.011464
v 0.372426 2.099744 -0.011464
v 1.861299 2.099744 0.010936
v 1.489079 2.099744 0.010936
v 1.116859 2.099744 0.010936
v 0.744639 2.099744 0.010936
v 0.372426 2.099744 0.010936
v 0.365272 -2.503689 -0.502314
v 0.739701 -2.503689 -0.502314
v 1.114130 -2.503689 -0.502314
v 1.488560 -2.503689 -0.502314
v 1.867819 -2.503689 -0.502314
v 0.348736 0.166380 -0.746121
v 0.706434 0.166380 -0.746121
v 1.064132 0.166380 -0.746121
v 1.421829 0.166380 -0.746121
v 1.779527 0.166380 -0.746121
v 0.353227 -0.901648 -0.943485
v 0.715611 -0.901648 -0.943486
v 1.077995 -0.901648 -0.943486
v 1.440380 -0.901648 -0.943486
v 1.802764 -0.901648 -0.943485
v 0.361478 -1.969676 -1.002067
v 0.732114 -1.969676 -1.002067
v 1.102750 -1.969676 -1.002067
v 1.473386 -1.969676 -1.002067
v 1.844022 -1.969676 -1.002067
v 1.779527 0.166380 0.745593
v 1.421830 0.166380 0.745593
v 1.064132 0.166380 0.745593
v 0.706434 0.166380 0.745593
v 0.348735 0.166380 0.745593
v 1.802764 -0.901648 0.942958
v 1.440380 -0.901648 0.942958
v 1.077995 -0.901648 0.942958
v 0.715611 -0.901648 0.942958
v 0.353227 -0.901648 0.942958
v 1.844022 -1.969676 1.001539
v 1.473386 -1.969676 1.001539
v 1.102750 -1.969676 1.001539
v 0.732114 -1.969676 1.001539
v 0.361478 -1.969676 1.001539
v 0.364477 1.918735 0.043752
v 0.728942 1.918735 0.043752
v 1.093411 1.918735 0.043752
v 1.457879 1.918735 0.043752
v 1.822347 1.918735 0.043752
v 0.365272 -2.503690 0.501786
v 0.739701 -2.503690 0.501786
v 1.114130 -2.503690 0.501786
v 1.488560 -2.503690 0.501786
v 1.867818 -2.503690 0.501786
v 1.780990 1.219059 0.334940
v 1.423896 1.219059 0.334940
v 1.066802 1.219059 0.334940
v 0.709709 1.219059 0.334940
v 0.352615 1.219059 0.334940
v 0.352615 1.219059 -0.335468
v 0.709709 1.219059 -0.335468
v 1.066802 1.219059 -0.335468
v 1.423896 1.219059 -0.335468
v 1.780990 1.219059 -0.335468
v 1.959536 1.219059 -0.335468
v 2.026196 1.219147 0.165667
v 0.174069 1.219059 0.334940
v 2.065298 -2.503689 0.501786
v 2.004191 1.918735 0.043647
v 0.176161 -1.969676 1.001539
v 0.172035 -0.901648 0.942958
v 0.169887 0.166380 0.745593
v 2.264427 -1.969589 0.500852
v 2.214168 -0.899656 0.476284
v 2.046438 0.168373 0.377059
v 2.029340 -1.969676 -1.002067
v 1.983956 -0.901648 -0.943486
v 1.958377 0.166380 -0.746121
v 2.047092 0.168372 -0.368255
v 2.214168 -0.899656 -0.466938
v 2.264427 -1.969589 -0.500951
v 2.065298 -2.503689 -0.502314
v 2.029453 1.219146 -0.167651
v 0.186329 2.012990 0.010936
v 0.186329 2.012990 -0.011464
v 0.182249 1.918735 -0.044279
v 2.182059 1.918735 -0.022272
v 2.181669 1.918735 0.021639
v 2.004582 1.918735 -0.044279
v 1.640113 1.918735 -0.044279
v 1.275645 1.918735 -0.044279
v 0.911176 1.918735 -0.044279
v 0.546708 1.918735 -0.044279
v 2.047408 2.012990 -0.011464
v 1.675189 2.012990 -0.011464
v 1.302969 2.012990 -0.011464
v 0.930749 2.012990 -0.011464
v 0.558530 2.012990 -0.011464
v 2.047409 2.012991 0.010936
v 1.675189 2.012990 0.010936
v 1.302969 2.012990 0.010936
v 0.930749 2.012990 0.010936
v 0.558530 2.012990 0.010936
v 0.178057 -2.503689 -0.502314
v 0.552486 -2.503689 -0.502314
v 0.926916 -2.503689 -0.502314
v 1.301345 -2.503689 -0.502314
v 1.676378 -2.503689 -0.502314
v 0.169887 0.166380 -0.746121
v 0.527585 0.166380 -0.746121
v 0.885282 0.166380 -0.746121
v 1.242980 0.166380 -0.746121
v 1.600679 0.166380 -0.746121
v 0.172035 -0.901648 -0.943485
v 0.534419 -0.901648 -0.943486
v 0.896803 -0.901648 -0.943486
v 1.259188 -0.901648 -0.943486
v 1.621572 -0.901648 -0.943486
v 0.176161 -1.969676 -1.002067
v 0.546797 -1.969676 -1.002067
v 0.917432 -1.969676 -1.002067
v 1.288068 -1.969676 -1.002067
v 1.658704 -1.969676 -1.002067
v 1.957723 0.166381 0.745051
v 1.600679 0.166380 0.745593
v 1.242980 0.166380 0.745593
v 0.885283 0.166380 0.745593
v 0.527585 0.166380 0.745593
v 1.983956 -0.901648 0.942958
v 1.621572 -0.901648 0.942958
v 1.259187 -0.901648 0.942958
v 0.896803 -0.901648 0.942958
v 0.534419 -0.901648 0.942958
v 2.029340 -1.969676 1.001539
v 1.658704 -1.969676 1.001539
v 1.288068 -1.969676 1.001539
v 0.917432 -1.969676 1.001539
v 0.546797 -1.969676 1.001539
v 0.182249 1.918735 0.043752
v 0.546709 1.918735 0.043752
v 0.911176 1.918735 0.043752
v 1.275645 1.918735 0.043752
v 1.640113 1.918735 0.043752
v 0.178057 -2.503689 0.501786
v 0.552486 -2.503689 0.501786
v 0.926916 -2.503689 0.501786
v 1.301345 -2.503689 0.501786
v 1.676378 -2.503689 0.501786
v 1.956280 1.219060 0.333054
v 1.602443 1.219059 0.334940
v 1.245349 1.219059 0.334940
v 0.888255 1.219059 0.334940
v 0.531162 1.219059 0.334940
v 0.174069 1.219059 -0.335468
v 0.531162 1.219059 -0.335468
v 0.888255 1.219059 -0.335468
v 1.245349 1.219059 -0.335468
v 1.602443 1.219059 -0.335468
v -2.213490 -2.466875 0.931280
v -2.108529 1.645637 0.120709
v -2.213100 -2.503689 -0.926940
v -2.116332 1.645637 -0.124089
v -2.082108 0.700510 -0.520723
v -2.115666 -0.367169 -0.793848
v -2.170394 -1.435546 -0.904451
v -2.070529 0.700520 0.512168
v -2.121668 -0.367263 0.809783
v -2.174446 -1.435569 0.920820
v -2.284534 -2.503690 -0.000264
v -2.090446 1.645637 -0.000264
v -2.288534 -1.434536 0.002527
v -2.143721 -0.363129 0.010902
v -1.898658 0.701520 0.002527
v -2.204823 2.099744 -0.020937
v -2.233524 2.099745 -0.000264
v -2.209027 2.099745 0.020662
v -1.862418 -2.481439 -0.983445
v -1.487940 -2.481439 -0.983445
v -1.113667 -2.481439 -0.983445
v -0.739394 -2.481439 -0.983445
v -0.365122 -2.481439 -0.983445
v -0.357590 1.645637 -0.135213
v -0.716532 1.645637 -0.135213
v -1.075475 1.645637 -0.135213
v -1.434418 1.645637 -0.135213
v -1.793360 1.645637 -0.135213
v -0.365102 -2.478688 0.980331
v -0.739356 -2.478688 0.980331
v -1.113609 -2.478688 0.980331
v -1.487862 -2.478688 0.980331
v -1.862346 -2.478688 0.980331
v -1.793360 1.645637 0.134685
v -1.434418 1.645637 0.134685
v -1.075475 1.645637 0.134685
v -0.716532 1.645637 0.134685
v -0.357590 1.645637 0.134685
v -1.823888 -1.435662 0.985464
v -1.457280 -1.435662 0.985464
v -1.090672 -1.435662 0.985464
v -0.724064 -1.435662 0.985464
v -0.357457 -1.435662 0.985464
v -1.786345 -0.367634 0.865866
v -1.427246 -0.367634 0.865866
v -1.068146 -0.367634 0.865866
v -0.709047 -0.367634 0.865866
v -0.349948 -0.367634 0.865866
v -1.778783 0.700393 0.567264
v -1.421508 0.700393 0.567264
v -1.064234 0.700393 0.567264
v -0.706959 0.700393 0.567264
v -0.349684 0.700393 0.567264
v -0.357457 -1.435662 -0.985992
v -0.724064 -1.435662 -0.985992
v -1.090672 -1.435662 -0.985992
v -1.457280 -1.435662 -0.985992
v -1.823888 -1.435662 -0.985992
v -0.349948 -0.367634 -0.866394
v -0.709047 -0.367634 -0.866394
v -1.068147 -0.367634 -0.866394
v -1.427246 -0.367634 -0.866394
v -1.786345 -0.367634 -0.866394
v -0.349684 0.700393 -0.567792
v -0.706958 0.700393 -0.567792
v -1.064234 0.700393 -0.567792
v -1.421508 0.700393 -0.567792
v -1.778783 0.700393 -0.567792
v -1.870847 -2.503689 -0.000264
v -1.488566 -2.503689 -0.000264
v -1.114136 -2.503689 -0.000264
v -0.739707 -2.503689 -0.000264
v -0.365278 -2.503689 -0.000264
v -0.372093 2.092842 -0.022617
v -0.743969 2.092842 -0.022617
v -1.115850 2.092842 -0.022617
v -1.487732 2.092842 -0.022617
v -1.859612 2.092842 -0.022617
v -1.861305 2.099745 0.022136
v -1.489085 2.099745 0.022136
v -1.116866 2.099745 0.022136
v -0.744646 2.099745 0.022136
v -0.372432 2.099745 0.022136
v -0.372432 2.099744 -0.000264
v -0.744646 2.099744 -0.000264
v -1.116865 2.099744 -0.000264
v -1.489085 2.099744 -0.000264
v -1.861305 2.099744 -0.000264
v -0.177985 -2.481439 -0.983445
v -1.972831 1.645637 -0.135213
v -2.192462 -1.969661 -0.919453
v -2.266405 -2.503690 -0.502314
v -2.112134 1.645637 0.066481
v -2.196937 -1.969664 0.935635
v -2.049962 -2.478688 0.980331
v -0.178121 1.645637 0.134685
v -2.090430 1.219074 -0.307801
v -2.092626 0.166714 -0.683812
v -2.143507 -0.901314 -0.864909
v -2.076880 1.219078 0.299500
v -2.098727 0.166651 0.694771
v -2.147870 -0.901381 0.881542
v -0.174153 -1.435662 0.985464
v -0.170398 -0.367634 0.865866
v -0.171046 0.700393 0.567264
v -2.250807 -1.434969 0.494317
v -2.144384 -0.364863 0.439670
v -1.986846 0.701090 0.282740
v -2.007191 -1.435662 -0.985992
v -1.965894 -0.367634 -0.866394
v -1.957421 0.700393 -0.567792
v -2.266405 -2.503690 0.501786
v -2.114250 1.645637 -0.067738
v -2.250807 -1.434969 -0.491411
v -2.144384 -0.364863 -0.426460
v -1.990014 0.701086 -0.282311
v -1.990717 0.169618 0.007761
v -2.244838 -0.898410 0.007761
v -2.295566 -1.969535 0.000085
v -0.178064 -2.503689 -0.000264
v -1.961506 1.219200 0.000085
v -2.045553 2.006088 -0.022617
v -2.233524 2.099745 0.010936
v -0.186335 2.012991 0.022136
v -2.233524 2.099745 -0.011464
v -2.047414 2.012991 -0.000264
v -2.160470 1.918735 0.040391
v -2.155981 1.918735 -0.040651
v -2.179090 1.918735 -0.000264
v -2.049989 -2.481439 -0.983445
v -1.675102 -2.481439 -0.983445
v -1.300804 -2.481439 -0.983445
v -0.926531 -2.481439 -0.983445
v -0.552258 -2.481439 -0.983445
v -0.178121 1.645637 -0.135213
v -0.537061 1.645637 -0.135213
v -0.896003 1.645637 -0.135213
v -1.254946 1.645637 -0.135213
v -1.613889 1.645637 -0.135213
v -0.177975 -2.478688 0.980331
v -0.552229 -2.478688 0.980331
v -0.926482 -2.478688 0.980331
v -1.300736 -2.478688 0.980331
v -1.675018 -2.478688 0.980331
v -1.970715 1.645637 0.133955
v -1.613889 1.645637 0.134685
v -1.254946 1.645637 0.134685
v -0.896003 1.645637 0.134685
v -0.537061 1.645637 0.134685
v -2.007191 -1.435662 0.985464
v -1.640584 -1.435662 0.985464
v -1.273976 -1.435662 0.985464
v -0.907368 -1.435662 0.985464
v -0.540761 -1.435662 0.985464
v -1.965895 -0.367634 0.865866
v -1.606796 -0.367634 0.865866
v -1.247696 -0.367634 0.865866
v -0.888597 -0.367634 0.865866
v -0.529498 -0.367634 0.865866
v -1.954253 0.700398 0.564787
v -1.600146 0.700393 0.567264
v -1.242871 0.700393 0.567264
v -0.885596 0.700393 0.567264
v -0.528321 0.700393 0.567264
v -0.174153 -1.435662 -0.985992
v -0.540761 -1.435662 -0.985992
v -0.907368 -1.435662 -0.985992
v -1.273976 -1.435662 -0.985992
v -1.640584 -1.435662 -0.985992
v -0.170398 -0.367634 -0.866394
v -0.529498 -0.367634 -0.866394
v -0.888597 -0.367634 -0.866394
v -1.247696 -0.367634 -0.866394
v -1.606796 -0.367634 -0.866394
v -0.171046 0.700393 -0.567792
v -0.528321 0.700393 -0.567792
v -0.885596 0.700393 -0.567792
v -1.242871 0.700393 -0.567792
v -1.600146 0.700393 -0.567792
v -2.074746 -2.503689 -0.000264
v -1.676762 -2.503689 -0.000264
v -1.301351 -2.503689 -0.000264
v -0.926922 -2.503689 -0.000264
v -0.552493 -2.503689 -0.000264
v -0.186166 2.006088 -0.022617
v -0.558029 2.006088 -0.022617
v -0.929909 2.006088 -0.022617
v -1.301791 2.006088 -0.022617
v -1.673672 2.006088 -0.022617
v -2.047415 2.012991 0.022136
v -1.675195 2.012991 0.022136
v -1.302975 2.012991 0.022136
v -0.930756 2.012991 0.022136
v -0.558537 2.012991 0.022136
v -0.186335 2.012990 -0.000264
v -0.558537 2.012991 -0.000264
v -0.930756 2.012991 -0.000264
v -1.302975 2.012991 -0.000264
v -1.675195 2.012991 -0.000264
v -1.822353 1.918735 -0.044279
v -1.457885 1.918735 -0.044279
v -1.093417 1.918735 -0.044279
v -0.728948 1.918735 -0.044279
v -0.364483 1.918735 -0.044279
v -1.861305 2.099744 -0.011464
v -1.489085 2.099744 -0.011464
v -1.116865 2.099744 -0.011464
v -0.744646 2.099744 -0.011464
v -0.372432 2.099744 -0.011464
v -1.861305 2.099744 0.010936
v -1.489085 2.099744 0.010936
v -1.116865 2.099744 0.010936
v -0.744646 2.099744 0.010936
v -0.372432 2.099744 0.010936
v -0.365278 -2.503689 -0.502314
v -0.739707 -2.503689 -0.502314
v -1.114136 -2.503689 -0.502314
v -1.488566 -2.503689 -0.502314
v -1.867825 -2.503689 -0.502314
v -0.348742 0.166380 -0.746121
v -0.706440 0.166380 -0.746121
v -1.064138 0.166380 -0.746121
v -1.421835 0.166380 -0.746121
v -1.779534 0.166380 -0.746121
v -0.353233 -0.901648 -0.943485
v -0.715617 -0.901648 -0.943486
v -1.078001 -0.901648 -0.943486
v -1.440386 -0.901648 -0.943486
v -1.802770 -0.901648 -0.943485
v -0.361485 -1.969676 -1.002067
v -0.732120 -1.969676 -1.002067
v -1.102756 -1.969676 -1.002067
v -1.473392 -1.969676 -1.002067
v -1.844028 -1.969676 -1.002067
v -1.779534 0.166380 0.745593
v -1.421836 0.166380 0.745593
v -1.064138 0.166380 0.745593
v -0.706440 0.166380 0.745593
v -0.348742 0.166380 0.745593
v -1.802770 -0.901648 0.942958
v -1.440386 -0.901648 0.942958
v -1.078001 -0.901648 0.942958
v -0.715617 -0.901648 0.942958
v -0.353233 -0.901648 0.942958
v -1.844028 -1.969676 1.001539
v -1.473392 -1.969676 1.001539
v -1.102756 -1.969676 1.001539
v -0.732120 -1.969676 1.001539
v -0.361485 -1.969676 1.001539
v -0.364483 1.918735 0.043752
v -0.728948 1.918735 0.043752
v -1.093417 1.918735 0.043752
v -1.457885 1.918735 0.043752
v -1.822353 1.918735 0.043752
v -0.365278 -2.503690 0.501786
v -0.739707 -2.503690 0.501786
v -1.114136 -2.503690 0.501786
v -1.488566 -2.503690 0.501786
v -1.867825 -2.503690 0.501786
v -1.780996 1.219059 0.334940
v -1.423902 1.219059 0.334940
v -1.066808 1.219059 0.334940
v -0.709715 1.219059 0.334940
v -0.352621 1.219059 0.334940
v -0.352621 1.219059 -0.335468
v -0.709715 1.219059 -0.335468
v -1.066808 1.219059 -0.335468
v -1.423902 1.219059 -0.335468
v -1.780995 1.219059 -0.335468
v -1.959542 1.219059 -0.335468
v -2.026202 1.219147 0.165667
v -0.174075 1.219059 0.334940
v -2.065303 -2.503689 0.501786
v -2.004197 1.918735 0.043647
v -0.176167 -1.969676 1.001539
v -0.172041 -0.901648 0.942958
v -0.169893 0.166380 0.745593
v -2.264433 -1.969589 0.500852
v -2.214174 -0.899656 0.476284
v -2.046445 0.168373 0.377059
v -2.029346 -1.969676 -1.002067
v -1.983962 -0.901648 -0.943486
v -1.958383 0.166380 -0.746121
v -2.047098 0.168372 -0.368255
v -2.214174 -0.899656 -0.466938
v -2.264433 -1.969589 -0.500951
v -2.065304 -2.503689 -0.502314
v -2.029459 1.219146 -0.167651
v -0.186335 2.012990 0.010936
v -0.186335 2.012990 -0.011464
v -0.182255 1.918735 -0.044279
v -2.182065 1.918735 -0.022272
v -2.181675 1.918735 0.021639
v -2.004588 1.918735 -0.044279
v -1.640119 1.918735 -0.044279
v -1.275651 1.918735 -0.044279
v -0.911183 1.918735 -0.044279
v -0.546714 1.918735 -0.044279
v -2.047414 2.012990 -0.011464
v -1.675195 2.012990 -0.011464
v -1.302975 2.012990 -0.011464
v -0.930756 2.012990 -0.011464
v -0.558537 2.012990 -0.011464
v -2.047415 2.012991 0.010936
v -1.675195 2.012990 0.010936
v -1.302975 2.012990 0.010936
v -0.930756 2.012990 0.010936
v -0.558536 2.012990 0.010936
v -0.178064 -2.503689 -0.502314
v -0.552493 -2.503689 -0.502314
v -0.926922 -2.503689 -0.502314
v -1.301351 -2.503689 -0.502314
v -1.676384 -2.503689 -0.502314
v -0.169893 0.166380 -0.746121
v -0.527591 0.166380 -0.746121
v -0.885288 0.166380 -0.746121
v -1.242987 0.166380 -0.746121
v -1.600685 0.166380 -0.746121
v -0.172041 -0.901648 -0.943485
v -0.534425 -0.901648 -0.943486
v -0.896809 -0.901648 -0.943486
v -1.259194 -0.901648 -0.943486
v -1.621578 -0.901648 -0.943486
v -0.176167 -1.969676 -1.002067
v -0.546802 -1.969676 -1.002067
v -0.917439 -1.969676 -1.002067
v -1.288074 -1.969676 -1.002067
v -1.658710 -1.969676 -1.002067
v -1.957729 0.166381 0.745051
v -1.600685 0.166380 0.745593
v -1.242987 0.166380 0.745593
v -0.885289 0.166380 0.745593
v -0.527591 0.166380 0.745593
v -1.983962 -0.901648 0.942958
v -1.621578 -0.901648 0.942958
v -1.259194 -0.901648 0.942958
v -0.896809 -0.901648 0.942958
v -0.534425 -0.901648 0.942958
v -2.029346 -1.969676 1.001539
v -1.658710 -1.969676 1.001539
v -1.288074 -1.969676 1.001539
v -0.917438 -1.969676 1.001539
v -0.546802 -1.969676 1.001539
v -0.182255 1.918735 0.043752
v -0.546714 1.918735 0.043752
v -0.911183 1.918735 0.043752
v -1.275651 1.918735 0.043752
v -1.640119 1.918735 0.043752
v -0.178064 -2.503689 0.501786
v -0.552493 -2.503689 0.501786
v -0.926922 -2.503689 0.501786
v -1.301351 -2.503689 0.501786
v -1.676384 -2.503689 0.501786
v -1.956286 1.219060 0.333054
v -1.602449 1.219059 0.334940
v -1.245355 1.219059 0.334940
v -0.888262 1.219059 0.334940
v -0.531168 1.219059 0.334940
v -0.174075 1.219059 -0.335468
v -0.531168 1.219059 -0.335468
v -0.888262 1.219059 -0.335468
v -1.245355 1.219059 -0.335468
v -1.602449 1.219059 -0.335468
vn -0.0000 0.3632 -0.9317
vn -0.0000 0.4169 -0.9090
vn 0.0989 0.4059 -0.9085
vn 0.1617 0.3512 -0.9222
vn -0.0000 0.3711 -0.9286
vn 0.0443 0.3621 -0.9311
vn 0.0850 0.3470 -0.9340
vn 0.1895 0.3922 -0.9002
vn 0.3127 0.3368 -0.8881
vn 1.0000 -0.0061 0.0026
vn 0.9784 -0.2067 0.0061
vn 0.9329 -0.1873 -0.3076
vn 0.9588 -0.0337 -0.2822
vn 0.9569 -0.2903 0.0096
vn 0.9654 -0.2323 -0.1187
vn 0.9822 -0.1868 -0.0194
vn 0.9373 -0.1730 -0.3027
vn 0.9582 -0.0480 -0.2821
vn -0.0000 0.3632 0.9317
vn -0.0000 0.4169 0.9090
vn -0.0000 0.3711 0.9286
vn -0.0000 -1.0000 -0.0000
vn 0.0107 -0.9995 0.0309
vn -0.0000 -0.9997 0.0261
vn 0.0199 -0.9992 0.0337
vn 0.2293 -0.7478 0.6231
vn 0.1292 -0.6734 0.7279
vn -0.0000 -0.7034 0.7108
vn 0.0022 0.3705 0.9288
vn 0.0574 0.3574 0.9322
vn 0.0208 0.2263 0.9738
vn -0.0030 0.2367 0.9716
vn 0.1038 0.3372 0.9357
vn 0.0070 0.2151 0.9766
vn -0.0282 0.1573 0.9871
vn -0.0038 0.1525 0.9883
vn 0.0045 0.1532 0.9882
vn -0.0000 -0.0058 1.0000
vn -0.0000 0.0547 0.9985
vn -0.0000 0.1112 0.9938
vn -0.0000 0.1814 0.9834
vn -0.0000 0.2686 0.9633
vn 1.0000 -0.0084 -0.0000
vn 1.0000 0.0057 -0.0000
vn 0.9943 0.0163 0.1053
vn 0.9957 0.0041 0.0921
vn 0.9988 0.0480 0.0001
vn 0.9917 0.0497 0.1188
vn 0.9847 0.0515 0.1667
vn 0.9882 0.0269 0.1509
vn 0.9904 0.0173 0.1372
vn 0.9931 0.1175 0.0004
vn 0.9902 0.1000 0.0973
vn 0.9814 0.1922 -0.0001
vn 0.9892 0.1463 0.0092
vn 0.9937 0.1029 0.0451
vn 0.9862 0.0827 0.1433
vn 0.9849 0.1730 -0.0002
vn 0.9827 0.1168 -0.1439
vn 0.9898 0.0700 -0.1239
vn -0.0000 -0.0364 -0.9993
vn -0.0000 -0.0031 -1.0000
vn 0.2150 0.0110 -0.9765
vn 0.2137 -0.0142 -0.9768
vn -0.0000 0.0547 -0.9985
vn 0.2283 0.0622 -0.9716
vn 0.4459 0.0667 -0.8926
vn 0.4206 0.0248 -0.9069
vn 0.3926 0.0057 -0.9197
vn -0.0000 0.1112 -0.9938
vn 0.2234 0.1159 -0.9678
vn -0.0000 0.1814 -0.9834
vn 0.2166 0.1805 -0.9594
vn 0.4269 0.1731 -0.8875
vn 0.4385 0.1157 -0.8912
vn -0.0000 0.2686 -0.9633
vn 0.2012 0.2607 -0.9442
vn 0.3953 0.2469 -0.8848
vn 0.9925 0.1059 -0.0610
vn 0.9912 0.0659 0.1150
vn 0.9835 0.1146 0.1399
vn 0.9888 0.1481 -0.0175
vn 0.9540 -0.0601 0.2938
vn 0.9555 -0.0384 0.2923
vn 0.9820 0.0526 -0.1815
vn 0.9838 0.0853 -0.1575
vn 0.9893 0.1017 -0.1042
vn 0.9907 0.0506 -0.1262
vn 0.9889 0.0222 -0.1469
vn 0.9861 0.0295 -0.1634
vn 0.9936 0.0177 -0.1117
vn 0.9951 0.0069 -0.0982
vn -0.0000 -0.9989 -0.0462
vn -0.0248 -0.9991 -0.0350
vn -0.0148 -0.9998 -0.0165
vn -0.0000 -0.9997 -0.0231
vn -0.0579 -0.9981 -0.0201
vn -0.0274 -0.9996 -0.0095
vn 0.9215 -0.1829 0.3426
vn 0.9223 -0.1917 0.3355
vn 0.9803 -0.1867 0.0640
vn 0.9621 -0.2287 0.1482
vn -0.0000 1.0000 -0.0000
vn -0.0002 1.0000 -0.0000
vn -0.0075 0.8491 -0.5283
vn 0.0023 0.8516 -0.5241
vn -0.0023 0.9559 -0.2938
vn 0.0024 0.9664 -0.2572
vn -0.0000 0.8490 -0.5284
vn -0.0000 0.9664 -0.2571
vn 0.0004 0.2407 -0.9706
vn -0.0008 0.2403 -0.9707
vn -0.0000 0.2402 -0.9707
vn -0.0000 0.1629 -0.9866
vn -0.0011 0.1641 -0.9865
vn 0.0009 0.1629 -0.9866
vn 0.9406 -0.2150 -0.2628
vn 0.9568 -0.2906 0.0086
vn 0.8026 -0.0951 -0.5888
vn 0.4526 -0.0503 -0.8903
vn 0.8831 -0.2163 -0.4164
vn 0.9590 -0.2834 0.0055
vn 0.9412 -0.2237 0.2532
vn 0.8162 -0.1175 0.5657
vn 0.8943 -0.2229 0.3881
vn 0.5274 -0.0751 0.8463
vn 0.0185 0.2324 -0.9724
vn 0.0027 0.2227 -0.9749
vn -0.0038 0.2412 -0.9705
vn 0.0046 0.1617 -0.9868
vn -0.0060 0.1591 -0.9872
vn -0.0322 0.1628 -0.9861
vn 0.0033 0.2399 -0.9708
vn -0.0031 0.2409 -0.9706
vn 0.0037 0.1621 -0.9868
vn -0.0092 0.1663 -0.9860
vn 0.0026 0.2402 -0.9707
vn -0.0023 0.2406 -0.9706
vn 0.0028 0.1625 -0.9867
vn -0.0072 0.1654 -0.9862
vn 0.0019 0.2405 -0.9707
vn -0.0016 0.2404 -0.9707
vn 0.0019 0.1627 -0.9867
vn -0.0052 0.1647 -0.9863
vn 0.0012 0.2406 -0.9706
vn -0.0032 0.1643 -0.9864
vn -0.4325 0.8245 0.3649
vn 0.0114 0.9855 -0.1694
vn -0.0415 0.9986 -0.0319
vn -0.4308 0.8976 0.0938
vn -0.0372 0.8509 -0.5240
vn 0.0118 0.9660 -0.2584
vn -0.4225 0.9064 -0.0000
vn 0.0220 0.8501 -0.5261
vn -0.0188 0.9564 -0.2915
vn -0.0298 0.8502 -0.5256
vn 0.0095 0.9661 -0.2579
vn 0.0171 0.8507 -0.5253
vn -0.0146 0.9562 -0.2924
vn -0.0224 0.8497 -0.5268
vn 0.0071 0.9662 -0.2576
vn 0.0123 0.8512 -0.5247
vn -0.0105 0.9560 -0.2931
vn -0.0149 0.8493 -0.5277
vn 0.0048 0.9663 -0.2573
vn 0.0074 0.8515 -0.5243
vn -0.0063 0.9559 -0.2936
vn 0.0072 0.9913 -0.1312
vn -0.4253 0.8962 -0.1264
vn 0.0157 0.9646 -0.2633
vn -0.3969 0.7915 -0.4647
vn 0.3354 0.1787 0.9250
vn 0.3418 0.2634 0.9021
vn 0.1740 0.2683 0.9475
vn 0.1690 0.1819 0.9687
vn 0.3337 0.3435 0.8779
vn 0.1743 0.3560 0.9181
vn 0.0049 0.3634 0.9316
vn 0.0024 0.2691 0.9631
vn 0.0004 0.1816 0.9834
vn 0.3588 0.0646 0.9312
vn 0.3479 0.1156 0.9304
vn 0.1756 0.1148 0.9777
vn 0.1820 0.0607 0.9814
vn 0.3455 0.0146 0.9383
vn 0.1752 0.0046 0.9845
vn 0.0004 0.2366 0.9716
vn -0.0000 0.2361 0.9717
vn -0.0007 0.2362 0.9717
vn 0.0009 0.1546 0.9880
vn -0.0010 0.1557 0.9878
vn -0.0000 0.1546 0.9880
vn 0.0011 0.2365 0.9716
vn -0.0015 0.2363 0.9717
vn 0.0018 0.1544 0.9880
vn -0.0029 0.1559 0.9878
vn 0.0017 0.2364 0.9717
vn -0.0022 0.2365 0.9716
vn 0.0027 0.1542 0.9880
vn -0.0049 0.1563 0.9877
vn 0.0024 0.2362 0.9717
vn -0.0029 0.2368 0.9716
vn 0.0035 0.1539 0.9881
vn -0.0067 0.1570 0.9876
vn 0.0030 0.2359 0.9718
vn -0.0085 0.1578 0.9874
vn 0.2345 0.3838 0.8931
vn 0.1280 0.4022 0.9065
vn 0.0045 0.4165 0.9091
vn -0.1617 0.3512 -0.9222
vn -0.0989 0.4059 -0.9085
vn -0.0443 0.3621 -0.9311
vn -0.1895 0.3922 -0.9002
vn -0.0850 0.3470 -0.9340
vn -0.3127 0.3368 -0.8881
vn -1.0000 -0.0061 0.0026
vn -0.9588 -0.0337 -0.2822
vn -0.9329 -0.1873 -0.3076
vn -0.9784 -0.2067 0.0061
vn -0.9654 -0.2323 -0.1187
vn -0.9569 -0.2903 0.0096
vn -0.9373 -0.1730 -0.3027
vn -0.9822 -0.1868 -0.0194
vn -0.9582 -0.0480 -0.2821
vn -0.0107 -0.9995 0.0309
vn -0.0199 -0.9992 0.0337
vn -0.1292 -0.6734 0.7279
vn -0.2293 -0.7478 0.6231
vn -0.0022 0.3705 0.9288
vn 0.0030 0.2367 0.9716
vn -0.0208 0.2263 0.9738
vn -0.0574 0.3574 0.9322
vn -0.0070 0.2151 0.9766
vn -0.1038 0.3372 0.9357
vn 0.0038 0.1525 0.9883
vn 0.0282 0.1573 0.9871
vn -0.0045 0.1532 0.9882
vn -1.0000 -0.0084 -0.0000
vn -0.9957 0.0041 0.0921
vn -0.9943 0.0163 0.1053
vn -1.0000 0.0057 -0.0000
vn -0.9917 0.0497 0.1188
vn -0.9988 0.0480 0.0001
vn -0.9882 0.0269 0.1509
vn -0.9847 0.0515 0.1667
vn -0.9904 0.0173 0.1372
vn -0.9902 0.1000 0.0973
vn -0.9931 0.1175 0.0004
vn -0.9892 0.1463 0.0092
vn -0.9814 0.1922 -0.0001
vn -0.9862 0.0827 0.1433
vn -0.9937 0.1029 0.0451
vn -0.9827 0.1168 -0.1439
vn -0.9849 0.1730 -0.0002
vn -0.9898 0.0700 -0.1239
vn -0.2137 -0.0142 -0.9768
vn -0.2150 0.0110 -0.9765
vn -0.2283 0.0622 -0.9716
vn -0.4206 0.0248 -0.9069
vn -0.4459 0.0667 -0.8926
vn -0.3926 0.0057 -0.9197
vn -0.2234 0.1159 -0.9678
vn -0.2166 0.1805 -0.9594
vn -0.4385 0.1157 -0.8912
vn -0.4269 0.1731 -0.8875
vn -0.2012 0.2607 -0.9442
vn -0.3953 0.2469 -0.8848
vn -0.9925 0.1059 -0.0610
vn -0.9888 0.1481 -0.0175
vn -0.9835 0.1146 0.1399
vn -0.9912 0.0659 0.1150
vn -0.9555 -0.0384 0.2923
vn -0.9540 -0.0601 0.2938
vn -0.9820 0.0526 -0.1815
vn -0.9907 0.0506 -0.1262
vn -0.9893 0.1017 -0.1042
vn -0.9838 0.0853 -0.1575
vn -0.9889 0.0222 -0.1469
vn -0.9951 0.0069 -0.0982
vn -0.9936 0.0177 -0.1117
vn -0.9861 0.0295 -0.1634
vn 0.0148 -0.9998 -0.0165
vn 0.0248 -0.9991 -0.0350
vn 0.0274 -0.9996 -0.0095
vn 0.0579 -0.9981 -0.0201
vn -0.9223 -0.1917 0.3355
vn -0.9215 -0.1829 0.3426
vn -0.9621 -0.2287 0.1482
vn -0.9803 -0.1867 0.0640
vn 0.0002 1.0000 -0.0000
vn 0.0075 0.8491 -0.5283
vn -0.0024 0.9664 -0.2572
vn 0.0023 0.9559 -0.2938
vn -0.0023 0.8516 -0.5241
vn 0.0008 0.2403 -0.9707
vn -0.0004 0.2407 -0.9706
vn 0.0011 0.1641 -0.9865
vn -0.0009 0.1629 -0.9866
vn -0.9568 -0.2906 0.0086
vn -0.9406 -0.2150 -0.2628
vn -0.8026 -0.0951 -0.5888
vn -0.8831 -0.2163 -0.4164
vn -0.4526 -0.0503 -0.8903
vn -0.9590 -0.2834 0.0055
vn -0.8162 -0.1175 0.5657
vn -0.9412 -0.2237 0.2532
vn -0.8943 -0.2229 0.3881
vn -0.5274 -0.0751 0.8463
vn -0.0027 0.2227 -0.9749
vn -0.0185 0.2324 -0.9724
vn 0.0038 0.2412 -0.9705
vn 0.0060 0.1591 -0.9872
vn -0.0046 0.1617 -0.9868
vn 0.0322 0.1628 -0.9861
vn -0.0033 0.2399 -0.9708
vn 0.0031 0.2409 -0.9706
vn 0.0092 0.1663 -0.9860
vn -0.0037 0.1621 -0.9868
vn -0.0026 0.2402 -0.9707
vn 0.0023 0.2406 -0.9706
vn 0.0072 0.1654 -0.9862
vn -0.0028 0.1625 -0.9867
vn -0.0019 0.2405 -0.9707
vn 0.0016 0.2404 -0.9707
vn 0.0052 0.1647 -0.9863
vn -0.0019 0.1627 -0.9867
vn -0.0012 0.2406 -0.9706
vn 0.0032 0.1643 -0.9864
vn 0.4325 0.8245 0.3649
vn 0.4308 0.8976 0.0938
vn 0.0415 0.9986 -0.0319
vn -0.0114 0.9855 -0.1694
vn -0.0118 0.9660 -0.2584
vn 0.0372 0.8509 -0.5240
vn 0.4225 0.9064 -0.0000
vn 0.0188 0.9564 -0.2915
vn -0.0220 0.8501 -0.5261
vn -0.0095 0.9661 -0.2579
vn 0.0298 0.8502 -0.5256
vn 0.0146 0.9562 -0.2924
vn -0.0171 0.8507 -0.5253
vn -0.0071 0.9662 -0.2576
vn 0.0224 0.8497 -0.5268
vn 0.0105 0.9560 -0.2931
vn -0.0123 0.8512 -0.5247
vn -0.0047 0.9663 -0.2573
vn 0.0149 0.8493 -0.5277
vn 0.0063 0.9559 -0.2936
vn -0.0074 0.8515 -0.5243
vn 0.4253 0.8962 -0.1264
vn -0.0072 0.9913 -0.1312
vn -0.0157 0.9646 -0.2633
vn 0.3969 0.7915 -0.4647
vn -0.3354 0.1787 0.9250
vn -0.1690 0.1819 0.9687
vn -0.1740 0.2683 0.9475
vn -0.3418 0.2634 0.9021
vn -0.1743 0.3560 0.9181
vn -0.3337 0.3435 0.8779
vn -0.0024 0.2691 0.9631
vn -0.0049 0.3634 0.9316
vn -0.0004 0.1816 0.9834
vn -0.3588 0.0646 0.9312
vn -0.1820 0.0607 0.9814
vn -0.1756 0.1148 0.9777
vn -0.3479 0.1156 0.9304
vn -0.1752 0.0046 0.9845
vn -0.3455 0.0146 0.9383
vn -0.0004 0.2366 0.9716
vn 0.0007 0.2362 0.9717
vn 0.0010 0.1557 0.9878
vn -0.0009 0.1546 0.9880
vn -0.0011 0.2365 0.9716
vn 0.0015 0.2363 0.9717
vn 0.0029 0.1559 0.9878
vn -0.0018 0.1544 0.9880
vn -0.0017 0.2364 0.9717
vn 0.0022 0.2365 0.9716
vn 0.0049 0.1563 0.9877
vn -0.0027 0.1542 0.9880
vn -0.0024 0.2362 0.9717
vn 0.0029 0.2368 0.9716
vn 0.0067 0.1570 0.9876
vn -0.0035 0.1539 0.9881
vn -0.0030 0.2359 0.9718
vn 0.0085 0.1578 0.9874
vn -0.1280 0.4022 0.9065
vn -0.2345 0.3838 0.8931
vn -0.0045 0.4165 0.9091
vt 0.040331 0.349226
vt 0.040331 0.409889
vt 0.020994 0.409889
vt 0.020994 0.349226
vt 0.040331 0.460199
vt 0.020994 0.460199
vt 0.003906 0.460199
vt 0.003906 0.409889
vt 0.003906 0.349226
vt 0.297245 0.825631
vt 0.297245 0.877640
vt 0.256492 0.877640
vt 0.256492 0.825631
vt 0.297245 0.921198
vt 0.256492 0.921198
vt 0.221079 0.921198
vt 0.221079 0.877640
vt 0.221079 0.825631
vt 0.736536 0.348895
vt 0.736536 0.409566
vt 0.717211 0.409566
vt 0.717211 0.348895
vt 0.736536 0.459874
vt 0.717211 0.459874
vt 0.698569 0.459874
vt 0.698569 0.409566
vt 0.698569 0.348895
vt 0.108697 0.554902
vt 0.108697 0.533989
vt 0.162304 0.533989
vt 0.162304 0.554902
vt 0.108697 0.513222
vt 0.162304 0.513222
vt 0.213266 0.513222
vt 0.213266 0.533989
vt 0.213266 0.554902
vt 0.891136 0.459874
vt 0.910376 0.459874
vt 0.910376 0.490697
vt 0.891136 0.490697
vt 0.927225 0.459874
vt 0.927225 0.490697
vt 0.927225 0.505811
vt 0.910376 0.505811
vt 0.891136 0.505811
vt 0.736536 0.003906
vt 0.736536 0.058287
vt 0.717211 0.058287
vt 0.717211 0.003906
vt 0.736536 0.115376
vt 0.717211 0.115376
vt 0.698569 0.115376
vt 0.698569 0.058287
vt 0.698569 0.003906
vt 0.736536 0.172622
vt 0.717211 0.172622
vt 0.736536 0.230268
vt 0.717211 0.230268
vt 0.698569 0.230268
vt 0.698569 0.172622
vt 0.736536 0.288740
vt 0.717211 0.288740
vt 0.698569 0.288740
vt 0.297245 0.513222
vt 0.297245 0.564277
vt 0.256492 0.564277
vt 0.256492 0.513222
vt 0.297245 0.615901
vt 0.256492 0.615901
vt 0.221079 0.615901
vt 0.221079 0.564277
vt 0.221079 0.513222
vt 0.297245 0.667726
vt 0.256492 0.667726
vt 0.297245 0.719939
vt 0.256492 0.719939
vt 0.221079 0.719939
vt 0.221079 0.667726
vt 0.297245 0.772727
vt 0.256492 0.772727
vt 0.221079 0.772727
vt 0.040331 0.003906
vt 0.040331 0.058715
vt 0.020994 0.058715
vt 0.020994 0.003906
vt 0.040331 0.115793
vt 0.020994 0.115793
vt 0.003906 0.115793
vt 0.003906 0.058715
vt 0.003906 0.003906
vt 0.040331 0.173028
vt 0.020994 0.173028
vt 0.040331 0.230663
vt 0.020994 0.230663
vt 0.003906 0.230663
vt 0.003906 0.173028
vt 0.040331 0.289118
vt 0.020994 0.289118
vt 0.003906 0.289118
vt 0.373593 0.719939
vt 0.373593 0.772727
vt 0.338439 0.772727
vt 0.338439 0.719939
vt 0.373593 0.825631
vt 0.338439 0.825631
vt 0.373593 0.615901
vt 0.373593 0.667726
vt 0.338439 0.667726
vt 0.338439 0.615901
vt 0.373593 0.513222
vt 0.373593 0.564277
vt 0.338439 0.564277
vt 0.338439 0.513222
vt 0.003906 0.554902
vt 0.003906 0.533989
vt 0.055090 0.533989
vt 0.055090 0.554902
vt 0.003906 0.513222
vt 0.055090 0.513222
vt 0.373593 0.877640
vt 0.338439 0.877640
vt 0.373593 0.921198
vt 0.338439 0.921198
vt 0.937467 0.218799
vt 0.937467 0.240351
vt 0.936287 0.240351
vt 0.936287 0.218799
vt 0.937467 0.261925
vt 0.936287 0.261925
vt 0.935038 0.261925
vt 0.935038 0.240351
vt 0.935038 0.218799
vt 0.940113 0.218799
vt 0.940113 0.240351
vt 0.938648 0.240351
vt 0.938648 0.218799
vt 0.940113 0.261925
vt 0.938648 0.261925
vt 0.195010 0.460199
vt 0.214344 0.460199
vt 0.214344 0.491008
vt 0.195010 0.491008
vt 0.232997 0.460199
vt 0.232997 0.491008
vt 0.232997 0.505409
vt 0.214344 0.505409
vt 0.195010 0.505409
vt 0.338439 0.948852
vt 0.297245 0.948852
vt 0.373593 0.948852
vt 0.373593 0.967055
vt 0.338439 0.967055
vt 0.297245 0.967055
vt 0.256492 0.948852
vt 0.221079 0.948852
vt 0.256492 0.967055
vt 0.221079 0.967055
vt 0.020994 0.491008
vt 0.003906 0.491008
vt 0.040331 0.491008
vt 0.040331 0.505409
vt 0.020994 0.505409
vt 0.003906 0.505409
vt 0.059667 0.460199
vt 0.059667 0.491008
vt 0.079002 0.460199
vt 0.079002 0.491008
vt 0.079002 0.505409
vt 0.059667 0.505409
vt 0.098336 0.460199
vt 0.098336 0.491008
vt 0.117671 0.460199
vt 0.117671 0.491008
vt 0.117671 0.505409
vt 0.098336 0.505409
vt 0.137006 0.460199
vt 0.137006 0.491008
vt 0.156340 0.460199
vt 0.156340 0.491008
vt 0.156340 0.505409
vt 0.137006 0.505409
vt 0.175675 0.460199
vt 0.175675 0.491008
vt 0.175675 0.505409
vt 0.940113 0.003906
vt 0.940113 0.024825
vt 0.938648 0.024825
vt 0.938648 0.003906
vt 0.940113 0.046377
vt 0.938648 0.046377
vt 0.937467 0.046377
vt 0.937467 0.024825
vt 0.937467 0.003906
vt 0.940113 0.067930
vt 0.938648 0.067930
vt 0.940113 0.089483
vt 0.938648 0.089483
vt 0.937467 0.089483
vt 0.937467 0.067930
vt 0.940113 0.111036
vt 0.938648 0.111036
vt 0.940113 0.132589
vt 0.938648 0.132589
vt 0.937467 0.132589
vt 0.937467 0.111036
vt 0.940113 0.154142
vt 0.938648 0.154142
vt 0.940113 0.175694
vt 0.938648 0.175694
vt 0.937467 0.175694
vt 0.937467 0.154142
vt 0.940113 0.197247
vt 0.938648 0.197247
vt 0.937467 0.197247
vt 0.936287 0.024825
vt 0.936287 0.003906
vt 0.936287 0.046377
vt 0.935038 0.046377
vt 0.935038 0.024825
vt 0.935038 0.003906
vt 0.936287 0.067930
vt 0.936287 0.089483
vt 0.935038 0.089483
vt 0.935038 0.067930
vt 0.936287 0.111036
vt 0.936287 0.132589
vt 0.935038 0.132589
vt 0.935038 0.111036
vt 0.936287 0.154142
vt 0.936287 0.175694
vt 0.935038 0.175694
vt 0.935038 0.154142
vt 0.936287 0.197247
vt 0.935038 0.197247
vt 0.003906 0.754520
vt 0.003906 0.735481
vt 0.055090 0.735481
vt 0.055090 0.754520
vt 0.003906 0.715464
vt 0.055090 0.715464
vt 0.108697 0.715464
vt 0.108697 0.735481
vt 0.108697 0.754520
vt 0.003906 0.695446
vt 0.055090 0.695446
vt 0.003906 0.675429
vt 0.055090 0.675429
vt 0.108697 0.675429
vt 0.108697 0.695446
vt 0.003906 0.655411
vt 0.055090 0.655411
vt 0.003906 0.635394
vt 0.055090 0.635394
vt 0.108697 0.635394
vt 0.108697 0.655411
vt 0.003906 0.615376
vt 0.055090 0.615376
vt 0.003906 0.595359
vt 0.055090 0.595359
vt 0.108697 0.595359
vt 0.108697 0.615376
vt 0.003906 0.575289
vt 0.055090 0.575289
vt 0.108697 0.575289
vt 0.232997 0.230663
vt 0.232997 0.289118
vt 0.214344 0.289118
vt 0.214344 0.230663
vt 0.232997 0.349226
vt 0.214344 0.349226
vt 0.195010 0.349226
vt 0.195010 0.289118
vt 0.195010 0.230663
vt 0.175675 0.289118
vt 0.175675 0.230663
vt 0.175675 0.349226
vt 0.156340 0.349226
vt 0.156340 0.289118
vt 0.156340 0.230663
vt 0.137006 0.289118
vt 0.137006 0.230663
vt 0.137006 0.349226
vt 0.117671 0.349226
vt 0.117671 0.289118
vt 0.117671 0.230663
vt 0.098336 0.289118
vt 0.098336 0.230663
vt 0.098336 0.349226
vt 0.079002 0.349226
vt 0.079002 0.289118
vt 0.079002 0.230663
vt 0.059667 0.289118
vt 0.059667 0.230663
vt 0.059667 0.349226
vt 0.232997 0.115793
vt 0.232997 0.173028
vt 0.214344 0.173028
vt 0.214344 0.115793
vt 0.195010 0.173028
vt 0.195010 0.115793
vt 0.175675 0.173028
vt 0.175675 0.115793
vt 0.156340 0.173028
vt 0.156340 0.115793
vt 0.137006 0.173028
vt 0.137006 0.115793
vt 0.117671 0.173028
vt 0.117671 0.115793
vt 0.098336 0.173028
vt 0.098336 0.115793
vt 0.079002 0.173028
vt 0.079002 0.115793
vt 0.059667 0.173028
vt 0.059667 0.115793
vt 0.232997 0.003906
vt 0.232997 0.058715
vt 0.214344 0.058715
vt 0.214344 0.003906
vt 0.195010 0.058715
vt 0.195010 0.003906
vt 0.175675 0.058715
vt 0.175675 0.003906
vt 0.156340 0.058715
vt 0.156340 0.003906
vt 0.137006 0.058715
vt 0.137006 0.003906
vt 0.117671 0.058715
vt 0.117671 0.003906
vt 0.098336 0.058715
vt 0.098336 0.003906
vt 0.079002 0.058715
vt 0.079002 0.003906
vt 0.059667 0.058715
vt 0.059667 0.003906
vt 0.927225 0.230268
vt 0.927225 0.288740
vt 0.910376 0.288740
vt 0.910376 0.230268
vt 0.927225 0.348895
vt 0.910376 0.348895
vt 0.891136 0.348895
vt 0.891136 0.288740
vt 0.891136 0.230268
vt 0.871810 0.288740
vt 0.871810 0.230268
vt 0.871810 0.348895
vt 0.852485 0.348895
vt 0.852485 0.288740
vt 0.852485 0.230268
vt 0.833161 0.288740
vt 0.833161 0.230268
vt 0.833161 0.348895
vt 0.813836 0.348895
vt 0.813836 0.288740
vt 0.813836 0.230268
vt 0.794511 0.288740
vt 0.794511 0.230268
vt 0.794511 0.348895
vt 0.775186 0.348895
vt 0.775186 0.288740
vt 0.775186 0.230268
vt 0.755861 0.288740
vt 0.755861 0.230268
vt 0.755861 0.348895
vt 0.927225 0.115376
vt 0.927225 0.172622
vt 0.910376 0.172622
vt 0.910376 0.115376
vt 0.891136 0.172622
vt 0.891136 0.115376
vt 0.871810 0.172622
vt 0.871810 0.115376
vt 0.852485 0.172622
vt 0.852485 0.115376
vt 0.833161 0.172622
vt 0.833161 0.115376
vt 0.813836 0.172622
vt 0.813836 0.115376
vt 0.794511 0.172622
vt 0.794511 0.115376
vt 0.775186 0.172622
vt 0.775186 0.115376
vt 0.755861 0.172622
vt 0.755861 0.115376
vt 0.927225 0.003906
vt 0.927225 0.058287
vt 0.910376 0.058287
vt 0.910376 0.003906
vt 0.891136 0.058287
vt 0.891136 0.003906
vt 0.871810 0.058287
vt 0.871810 0.003906
vt 0.852485 0.058287
vt 0.852485 0.003906
vt 0.833161 0.058287
vt 0.833161 0.003906
vt 0.813836 0.058287
vt 0.813836 0.003906
vt 0.794511 0.058287
vt 0.794511 0.003906
vt 0.775186 0.058287
vt 0.775186 0.003906
vt 0.755861 0.058287
vt 0.755861 0.003906
vt 0.717211 0.490697
vt 0.698569 0.490697
vt 0.736536 0.490697
vt 0.736536 0.505811
vt 0.717211 0.505811
vt 0.698569 0.505811
vt 0.755861 0.459874
vt 0.755861 0.490697
vt 0.775186 0.459874
vt 0.775186 0.490697
vt 0.775186 0.505811
vt 0.755861 0.505811
vt 0.794511 0.459874
vt 0.794511 0.490697
vt 0.813836 0.459874
vt 0.813836 0.490697
vt 0.813836 0.505811
vt 0.794511 0.505811
vt 0.833161 0.459874
vt 0.833161 0.490697
vt 0.852485 0.459874
vt 0.852485 0.490697
vt 0.852485 0.505811
vt 0.833161 0.505811
vt 0.871810 0.459874
vt 0.871810 0.490697
vt 0.871810 0.505811
vt 0.162304 0.735481
vt 0.162304 0.754520
vt 0.162304 0.715464
vt 0.213266 0.715464
vt 0.213266 0.735481
vt 0.213266 0.754520
vt 0.162304 0.695446
vt 0.162304 0.675429
vt 0.213266 0.675429
vt 0.213266 0.695446
vt 0.162304 0.655411
vt 0.162304 0.635394
vt 0.213266 0.635394
vt 0.213266 0.655411
vt 0.162304 0.615376
vt 0.162304 0.595359
vt 0.213266 0.595359
vt 0.213266 0.615376
vt 0.162304 0.575289
vt 0.213266 0.575289
vt 0.927225 0.409566
vt 0.910376 0.409566
vt 0.891136 0.409566
vt 0.871810 0.409566
vt 0.852485 0.409566
vt 0.833161 0.409566
vt 0.813836 0.409566
vt 0.794511 0.409566
vt 0.775186 0.409566
vt 0.755861 0.409566
vt 0.232997 0.409889
vt 0.214344 0.409889
vt 0.195010 0.409889
vt 0.175675 0.409889
vt 0.156340 0.409889
vt 0.137006 0.409889
vt 0.117671 0.409889
vt 0.098336 0.409889
vt 0.079002 0.409889
vt 0.059667 0.409889
vt 0.425675 0.349226
vt 0.445012 0.349226
vt 0.445012 0.409889
vt 0.425675 0.409889
vt 0.445012 0.460199
vt 0.425675 0.460199
vt 0.462102 0.409889
vt 0.462102 0.460199
vt 0.462102 0.349226
vt 0.546257 0.826137
vt 0.587022 0.826137
vt 0.587022 0.877989
vt 0.546257 0.877989
vt 0.587022 0.921534
vt 0.546257 0.921534
vt 0.622442 0.877989
vt 0.622442 0.921534
vt 0.622442 0.826137
vt 0.660585 0.348895
vt 0.679909 0.348895
vt 0.679909 0.409566
vt 0.660585 0.409566
vt 0.679909 0.459874
vt 0.660585 0.459874
vt 0.108697 0.954183
vt 0.162304 0.954183
vt 0.162304 0.975194
vt 0.108697 0.975194
vt 0.162304 0.996094
vt 0.108697 0.996094
vt 0.213266 0.975194
vt 0.213266 0.996094
vt 0.213266 0.954183
vt 0.505989 0.459874
vt 0.505989 0.490697
vt 0.486751 0.490697
vt 0.486751 0.459874
vt 0.469915 0.490697
vt 0.469915 0.459874
vt 0.486751 0.505811
vt 0.469915 0.505811
vt 0.505989 0.505811
vt 0.660585 0.003906
vt 0.679909 0.003906
vt 0.679909 0.058287
vt 0.660585 0.058287
vt 0.679909 0.115376
vt 0.660585 0.115376
vt 0.679909 0.172622
vt 0.660585 0.172622
vt 0.679909 0.230268
vt 0.660585 0.230268
vt 0.679909 0.288740
vt 0.660585 0.288740
vt 0.546257 0.513623
vt 0.587022 0.513623
vt 0.587022 0.564675
vt 0.546257 0.564675
vt 0.587022 0.616298
vt 0.546257 0.616298
vt 0.622442 0.564675
vt 0.622442 0.616298
vt 0.622442 0.513623
vt 0.587022 0.668133
vt 0.546257 0.668133
vt 0.587022 0.720399
vt 0.546257 0.720399
vt 0.622442 0.668133
vt 0.622442 0.720399
vt 0.587022 0.773300
vt 0.546257 0.773300
vt 0.622442 0.773300
vt 0.425675 0.003906
vt 0.445012 0.003906
vt 0.445012 0.058715
vt 0.425675 0.058715
vt 0.445012 0.115793
vt 0.425675 0.115793
vt 0.462102 0.058715
vt 0.462102 0.115793
vt 0.462102 0.003906
vt 0.445012 0.173028
vt 0.425675 0.173028
vt 0.445012 0.230663
vt 0.425675 0.230663
vt 0.462102 0.173028
vt 0.462102 0.230663
vt 0.445012 0.289118
vt 0.425675 0.289118
vt 0.462102 0.289118
vt 0.469915 0.720399
vt 0.505059 0.720399
vt 0.505059 0.773300
vt 0.469915 0.773300
vt 0.505059 0.826137
vt 0.469915 0.826137
vt 0.469915 0.616298
vt 0.505059 0.616298
vt 0.505059 0.668133
vt 0.469915 0.668133
vt 0.469915 0.513623
vt 0.505059 0.513623
vt 0.505059 0.564675
vt 0.469915 0.564675
vt 0.003906 0.954183
vt 0.055090 0.954183
vt 0.055090 0.975194
vt 0.003906 0.975194
vt 0.055090 0.996094
vt 0.003906 0.996094
vt 0.505059 0.877989
vt 0.469915 0.877989
vt 0.505059 0.921534
vt 0.469915 0.921534
vt 0.937467 0.305050
vt 0.936287 0.305050
vt 0.936287 0.283499
vt 0.937467 0.283499
vt 0.935038 0.283499
vt 0.935038 0.305050
vt 0.940113 0.305050
vt 0.938648 0.305050
vt 0.938648 0.283499
vt 0.940113 0.283499
vt 0.271000 0.460199
vt 0.271000 0.491008
vt 0.251665 0.491008
vt 0.251665 0.460199
vt 0.251665 0.505409
vt 0.271000 0.505409
vt 0.546257 0.949209
vt 0.505059 0.949209
vt 0.469915 0.949209
vt 0.505059 0.967417
vt 0.469915 0.967417
vt 0.546257 0.967417
vt 0.622442 0.949209
vt 0.587022 0.949209
vt 0.587022 0.967417
vt 0.622442 0.967417
vt 0.462102 0.491008
vt 0.445012 0.491008
vt 0.425675 0.491008
vt 0.445012 0.505409
vt 0.425675 0.505409
vt 0.462102 0.505409
vt 0.406340 0.491008
vt 0.406340 0.460199
vt 0.387005 0.491008
vt 0.387005 0.460199
vt 0.406340 0.505409
vt 0.387005 0.505409
vt 0.367671 0.491008
vt 0.367671 0.460199
vt 0.348337 0.491008
vt 0.348337 0.460199
vt 0.367671 0.505409
vt 0.348337 0.505409
vt 0.329002 0.491008
vt 0.329002 0.460199
vt 0.309668 0.491008
vt 0.309668 0.460199
vt 0.329002 0.505409
vt 0.309668 0.505409
vt 0.290334 0.491008
vt 0.290334 0.460199
vt 0.290334 0.505409
vt 0.940113 0.519943
vt 0.938648 0.519943
vt 0.938648 0.499025
vt 0.940113 0.499025
vt 0.938648 0.477472
vt 0.940113 0.477472
vt 0.937467 0.499025
vt 0.937467 0.477472
vt 0.937467 0.519943
vt 0.938648 0.455919
vt 0.940113 0.455919
vt 0.938648 0.434367
vt 0.940113 0.434367
vt 0.937467 0.455919
vt 0.937467 0.434367
vt 0.938648 0.412814
vt 0.940113 0.412814
vt 0.938648 0.391261
vt 0.940113 0.391261
vt 0.937467 0.412814
vt 0.937467 0.391261
vt 0.938648 0.369708
vt 0.940113 0.369708
vt 0.938648 0.348155
vt 0.940113 0.348155
vt 0.937467 0.369708
vt 0.937467 0.348155
vt 0.938648 0.326603
vt 0.940113 0.326603
vt 0.937467 0.326603
vt 0.936287 0.519943
vt 0.936287 0.499025
vt 0.936287 0.477472
vt 0.935038 0.499025
vt 0.935038 0.477472
vt 0.935038 0.519943
vt 0.936287 0.455919
vt 0.936287 0.434367
vt 0.935038 0.455919
vt 0.935038 0.434367
vt 0.936287 0.412814
vt 0.936287 0.391261
vt 0.935038 0.412814
vt 0.935038 0.391261
vt 0.936287 0.369708
vt 0.936287 0.348155
vt 0.935038 0.369708
vt 0.935038 0.348155
vt 0.936287 0.326603
vt 0.935038 0.326603
vt 0.055090 0.773558
vt 0.003906 0.773558
vt 0.055090 0.793576
vt 0.003906 0.793576
vt 0.108697 0.773558
vt 0.108697 0.793576
vt 0.055090 0.813593
vt 0.003906 0.813593
vt 0.055090 0.833610
vt 0.003906 0.833610
vt 0.108697 0.813593
vt 0.108697 0.833610
vt 0.055090 0.853628
vt 0.003906 0.853628
vt 0.055090 0.873645
vt 0.003906 0.873645
vt 0.108697 0.853628
vt 0.108697 0.873645
vt 0.055090 0.893663
vt 0.003906 0.893663
vt 0.055090 0.913680
vt 0.003906 0.913680
vt 0.108697 0.893663
vt 0.108697 0.913680
vt 0.055090 0.933756
vt 0.003906 0.933756
vt 0.108697 0.933756
vt 0.251665 0.230663
vt 0.251665 0.289118
vt 0.251665 0.349226
vt 0.271000 0.289118
vt 0.271000 0.349226
vt 0.271000 0.230663
vt 0.290334 0.230663
vt 0.290334 0.289118
vt 0.290334 0.349226
vt 0.309668 0.289118
vt 0.309668 0.349226
vt 0.309668 0.230663
vt 0.329002 0.230663
vt 0.329002 0.289118
vt 0.329002 0.349226
vt 0.348337 0.289118
vt 0.348337 0.349226
vt 0.348337 0.230663
vt 0.367671 0.230663
vt 0.367671 0.289118
vt 0.367671 0.349226
vt 0.387005 0.289118
vt 0.387005 0.349226
vt 0.387005 0.230663
vt 0.406340 0.230663
vt 0.406340 0.289118
vt 0.406340 0.349226
vt 0.251665 0.115793
vt 0.251665 0.173028
vt 0.271000 0.173028
vt 0.271000 0.115793
vt 0.290334 0.115793
vt 0.290334 0.173028
vt 0.309668 0.173028
vt 0.309668 0.115793
vt 0.329002 0.115793
vt 0.329002 0.173028
vt 0.348337 0.173028
vt 0.348337 0.115793
vt 0.367671 0.115793
vt 0.367671 0.173028
vt 0.387005 0.173028
vt 0.387005 0.115793
vt 0.406340 0.115793
vt 0.406340 0.173028
vt 0.251665 0.003906
vt 0.251665 0.058715
vt 0.271000 0.058715
vt 0.271000 0.003906
vt 0.290334 0.003906
vt 0.290334 0.058715
vt 0.309668 0.058715
vt 0.309668 0.003906
vt 0.329002 0.003906
vt 0.329002 0.058715
vt 0.348337 0.058715
vt 0.348337 0.003906
vt 0.367671 0.003906
vt 0.367671 0.058715
vt 0.387005 0.058715
vt 0.387005 0.003906
vt 0.406340 0.003906
vt 0.406340 0.058715
vt 0.469915 0.230268
vt 0.486751 0.230268
vt 0.486751 0.288740
vt 0.469915 0.288740
vt 0.486751 0.348895
vt 0.469915 0.348895
vt 0.505989 0.288740
vt 0.505989 0.348895
vt 0.505989 0.230268
vt 0.525314 0.230268
vt 0.525314 0.288740
vt 0.525314 0.348895
vt 0.544639 0.288740
vt 0.544639 0.348895
vt 0.544639 0.230268
vt 0.563963 0.230268
vt 0.563963 0.288740
vt 0.563963 0.348895
vt 0.583288 0.288740
vt 0.583288 0.348895
vt 0.583288 0.230268
vt 0.602612 0.230268
vt 0.602612 0.288740
vt 0.602612 0.348895
vt 0.621937 0.288740
vt 0.621937 0.348895
vt 0.621937 0.230268
vt 0.641261 0.230268
vt 0.641261 0.288740
vt 0.641261 0.348895
vt 0.469915 0.115376
vt 0.486751 0.115376
vt 0.486751 0.172622
vt 0.469915 0.172622
vt 0.505989 0.172622
vt 0.505989 0.115376
vt 0.525314 0.115376
vt 0.525314 0.172622
vt 0.544639 0.172622
vt 0.544639 0.115376
vt 0.563963 0.115376
vt 0.563963 0.172622
vt 0.583288 0.172622
vt 0.583288 0.115376
vt 0.602612 0.115376
vt 0.602612 0.172622
vt 0.621937 0.172622
vt 0.621937 0.115376
vt 0.641261 0.115376
vt 0.641261 0.172622
vt 0.469915 0.003906
vt 0.486751 0.003906
vt 0.486751 0.058287
vt 0.469915 0.058287
vt 0.505989 0.058287
vt 0.505989 0.003906
vt 0.525314 0.003906
vt 0.525314 0.058287
vt 0.544639 0.058287
vt 0.544639 0.003906
vt 0.563963 0.003906
vt 0.563963 0.058287
vt 0.583288 0.058287
vt 0.583288 0.003906
vt 0.602612 0.003906
vt 0.602612 0.058287
vt 0.621937 0.058287
vt 0.621937 0.003906
vt 0.641261 0.003906
vt 0.641261 0.058287
vt 0.679909 0.490697
vt 0.660585 0.490697
vt 0.679909 0.505811
vt 0.660585 0.505811
vt 0.641261 0.490697
vt 0.641261 0.459874
vt 0.621937 0.490697
vt 0.621937 0.459874
vt 0.641261 0.505811
vt 0.621937 0.505811
vt 0.602612 0.490697
vt 0.602612 0.459874
vt 0.583288 0.490697
vt 0.583288 0.459874
vt 0.602612 0.505811
vt 0.583288 0.505811
vt 0.563963 0.490697
vt 0.563963 0.459874
vt 0.544639 0.490697
vt 0.544639 0.459874
vt 0.563963 0.505811
vt 0.544639 0.505811
vt 0.525314 0.490697
vt 0.525314 0.459874
vt 0.525314 0.505811
vt 0.162304 0.773558
vt 0.162304 0.793576
vt 0.213266 0.773558
vt 0.213266 0.793576
vt 0.162304 0.813593
vt 0.162304 0.833610
vt 0.213266 0.813593
vt 0.213266 0.833610
vt 0.162304 0.853628
vt 0.162304 0.873645
vt 0.213266 0.853628
vt 0.213266 0.873645
vt 0.162304 0.893663
vt 0.162304 0.913680
vt 0.213266 0.893663
vt 0.213266 0.913680
vt 0.162304 0.933756
vt 0.213266 0.933756
vt 0.486751 0.409566
vt 0.469915 0.409566
vt 0.505989 0.409566
vt 0.525314 0.409566
vt 0.544639 0.409566
vt 0.563963 0.409566
vt 0.583288 0.409566
vt 0.602612 0.409566
vt 0.621937 0.409566
vt 0.641261 0.409566
vt 0.251665 0.409889
vt 0.271000 0.409889
vt 0.290334 0.409889
vt 0.309668 0.409889
vt 0.329002 0.409889
vt 0.348337 0.409889
vt 0.367671 0.409889
vt 0.387005 0.409889
vt 0.406340 0.409889
s 1
usemtl Galletas_bolsa
f 82/1/1 297/2/2 298/3/3 134/4/4
f 297/2/2 42/5/5 107/6/6 298/3/3
f 298/3/3 107/6/6 8/7/7 120/8/8
f 134/4/4 298/3/3 120/8/8 15/9/9
f 26/10/10 145/11/11 299/12/12 131/13/13
f 145/11/11 23/14/14 110/15/15 299/12/12
f 299/12/12 110/15/15 6/16/16 123/17/17
f 131/13/13 299/12/12 123/17/17 18/18/18
f 67/19/19 292/20/20 300/21/20 128/22/19
f 292/20/20 52/23/21 113/24/21 300/21/20
f 300/21/20 113/24/21 2/25/21 104/26/20
f 128/22/19 300/21/20 104/26/20 11/27/19
f 83/28/22 208/29/22 301/30/23 287/31/24
f 208/29/22 22/32/22 136/33/25 301/30/23
f 301/30/23 136/33/25 5/34/26 112/35/27
f 287/31/24 301/30/23 112/35/27 47/36/28
f 48/37/29 173/38/30 302/39/31 282/40/32
f 173/38/30 6/41/33 154/42/34 302/39/31
f 302/39/31 154/42/34 31/43/35 218/44/36
f 282/40/32 302/39/31 218/44/36 93/45/37
f 43/46/28 277/47/38 303/48/38 168/49/28
f 277/47/38 57/50/39 126/51/39 303/48/38
f 303/48/38 126/51/39 9/52/39 114/53/38
f 168/49/28 303/48/38 114/53/38 1/54/28
f 57/50/39 272/55/40 304/56/40 126/51/39
f 272/55/40 62/57/41 127/58/41 304/56/40
f 304/56/40 127/58/41 10/59/41 115/60/40
f 126/51/39 304/56/40 115/60/40 9/52/39
f 62/57/41 267/61/42 305/62/42 127/58/41
f 267/61/42 67/19/19 128/22/19 305/62/42
f 305/62/42 128/22/19 11/27/19 116/63/42
f 127/58/41 305/62/42 116/63/42 10/59/41
f 22/64/43 143/65/44 306/66/45 136/67/46
f 143/65/44 24/68/47 129/69/48 306/66/45
f 306/66/45 129/69/48 20/70/49 111/71/50
f 136/67/46 306/66/45 111/71/50 5/72/51
f 24/68/47 142/73/52 307/74/53 129/69/48
f 142/73/52 25/75/54 130/76/55 307/74/53
f 307/74/53 130/76/55 19/77/56 125/78/57
f 129/69/48 307/74/53 125/78/57 20/70/49
f 25/75/54 141/79/58 308/80/59 130/76/55
f 141/79/58 26/10/10 131/13/13 308/80/59
f 308/80/59 131/13/13 18/18/18 124/81/60
f 130/76/55 308/80/59 124/81/60 19/77/56
f 33/82/61 262/83/62 309/84/63 158/85/64
f 262/83/62 72/86/65 132/87/66 309/84/63
f 309/84/63 132/87/66 17/88/67 108/89/68
f 158/85/64 309/84/63 108/89/68 7/90/69
f 72/86/65 257/91/70 310/92/71 132/87/66
f 257/91/70 77/93/72 133/94/73 310/92/71
f 310/92/71 133/94/73 16/95/74 122/96/75
f 132/87/66 310/92/71 122/96/75 17/88/67
f 77/93/72 252/97/76 311/98/77 133/94/73
f 252/97/76 82/1/1 134/4/4 311/98/77
f 311/98/77 134/4/4 15/9/9 121/99/78
f 133/94/73 311/98/77 121/99/78 16/95/74
f 16/100/79 121/101/80 312/102/81 139/103/82
f 121/101/80 15/104/83 140/105/84 312/102/81
f 312/102/81 140/105/84 26/10/10 141/79/58
f 139/103/82 312/102/81 141/79/58 25/75/54
f 17/106/85 122/107/86 313/108/87 138/109/88
f 122/107/86 16/100/79 139/103/82 313/108/87
f 313/108/87 139/103/82 25/75/54 142/73/52
f 138/109/88 313/108/87 142/73/52 24/68/47
f 7/110/89 108/111/90 314/112/91 109/113/92
f 108/111/90 17/106/85 138/109/88 314/112/91
f 314/112/91 138/109/88 24/68/47 143/65/44
f 109/113/92 314/112/91 143/65/44 22/64/43
f 33/114/93 158/115/94 315/116/95 247/117/96
f 158/115/94 7/118/97 109/119/98 315/116/95
f 315/116/95 109/119/98 22/32/22 208/29/22
f 247/117/96 315/116/95 208/29/22 83/28/22
f 15/104/83 120/120/99 316/121/100 140/105/84
f 120/120/99 8/122/101 137/123/102 316/121/100
f 316/121/100 137/123/102 23/14/14 145/11/11
f 140/105/84 316/121/100 145/11/11 26/10/10
f 98/124/103 223/125/104 317/126/104 242/127/103
f 223/125/104 27/128/103 150/129/103 317/126/104
f 317/126/104 150/129/103 32/130/103 149/131/104
f 242/127/103 317/126/104 149/131/104 97/132/103
f 88/133/105 213/134/106 318/135/107 237/136/108
f 213/134/106 28/137/109 146/138/110 318/135/107
f 318/135/107 146/138/110 27/128/103 223/125/104
f 237/136/108 318/135/107 223/125/104 98/124/103
f 38/139/5 163/140/5 319/141/111 232/142/112
f 163/140/5 4/143/5 153/144/113 319/141/111
f 319/141/111 153/144/113 28/145/114 213/146/115
f 232/142/112 319/141/111 213/146/115 88/147/116
f 23/14/14 137/123/102 320/148/117 157/149/118
f 137/123/102 8/122/101 156/150/119 320/148/117
f 320/148/117 156/150/119 29/151/120 151/152/121
f 157/149/118 320/148/117 151/152/121 30/153/122
f 6/16/16 110/15/15 321/154/123 154/155/124
f 110/15/15 23/14/14 157/149/118 321/154/123
f 321/154/123 157/149/118 30/153/122 148/156/125
f 154/155/124 321/154/123 148/156/125 31/157/126
f 8/7/7 107/6/6 322/158/127 156/159/128
f 107/6/6 42/5/5 228/160/129 322/158/127
f 322/158/127 228/160/129 92/161/130 147/162/131
f 156/159/128 322/158/127 147/162/131 29/163/132
f 42/5/5 167/164/5 323/165/133 228/160/129
f 167/164/5 41/166/5 229/167/134 323/165/133
f 323/165/133 229/167/134 91/168/135 217/169/136
f 228/160/129 323/165/133 217/169/136 92/161/130
f 41/166/5 166/170/5 324/171/137 229/167/134
f 166/170/5 40/172/5 230/173/138 324/171/137
f 324/171/137 230/173/138 90/174/139 216/175/140
f 229/167/134 324/171/137 216/175/140 91/168/135
f 40/172/5 165/176/5 325/177/141 230/173/138
f 165/176/5 39/178/5 231/179/142 325/177/141
f 325/177/141 231/179/142 89/180/143 215/181/144
f 230/173/138 325/177/141 215/181/144 90/174/139
f 39/178/5 164/182/5 326/183/145 231/179/142
f 164/182/5 38/139/5 232/142/112 326/183/145
f 326/183/145 232/142/112 88/147/116 214/184/146
f 231/179/142 326/183/145 214/184/146 89/180/143
f 29/185/147 147/186/148 327/187/149 151/188/150
f 147/186/148 92/189/151 233/190/152 327/187/149
f 327/187/149 233/190/152 102/191/103 152/192/103
f 151/188/150 327/187/149 152/192/103 30/193/153
f 92/189/151 217/194/154 328/195/155 233/190/152
f 217/194/154 91/196/156 234/197/157 328/195/155
f 328/195/155 234/197/157 101/198/103 227/199/103
f 233/190/152 328/195/155 227/199/103 102/191/103
f 91/196/156 216/200/158 329/201/159 234/197/157
f 216/200/158 90/202/160 235/203/161 329/201/159
f 329/201/159 235/203/161 100/204/103 226/205/103
f 234/197/157 329/201/159 226/205/103 101/198/103
f 90/202/160 215/206/162 330/207/163 235/203/161
f 215/206/162 89/208/164 236/209/165 330/207/163
f 330/207/163 236/209/165 99/210/103 225/211/103
f 235/203/161 330/207/163 225/211/103 100/204/103
f 89/208/164 214/212/166 331/213/167 236/209/165
f 214/212/166 88/133/105 237/136/108 331/213/167
f 331/213/167 237/136/108 98/124/103 224/214/103
f 236/209/165 331/213/167 224/214/103 99/210/103
f 30/193/153 152/192/103 332/215/168 148/216/169
f 152/192/103 102/191/103 238/217/103 332/215/168
f 332/215/168 238/217/103 93/218/103 218/219/170
f 148/216/169 332/215/168 218/219/170 31/220/171
f 102/191/103 227/199/103 333/221/103 238/217/103
f 227/199/103 101/198/103 239/222/103 333/221/103
f 333/221/103 239/222/103 94/223/103 219/224/103
f 238/217/103 333/221/103 219/224/103 93/218/103
f 101/198/103 226/205/103 334/225/103 239/222/103
f 226/205/103 100/204/103 240/226/103 334/225/103
f 334/225/103 240/226/103 95/227/103 220/228/103
f 239/222/103 334/225/103 220/228/103 94/223/103
f 100/204/103 225/211/103 335/229/103 240/226/103
f 225/211/103 99/210/103 241/230/103 335/229/103
f 335/229/103 241/230/103 96/231/103 221/232/103
f 240/226/103 335/229/103 221/232/103 95/227/103
f 99/210/103 224/214/103 336/233/103 241/230/103
f 224/214/103 98/124/103 242/127/103 336/233/103
f 336/233/103 242/127/103 97/132/103 222/234/103
f 241/230/103 336/233/103 222/234/103 96/231/103
f 3/235/93 106/236/93 337/237/96 135/238/96
f 106/236/93 37/239/93 243/240/96 337/237/96
f 337/237/96 243/240/96 87/241/22 144/242/22
f 135/238/96 337/237/96 144/242/22 21/243/22
f 37/239/93 162/244/93 338/245/96 243/240/96
f 162/244/93 36/246/93 244/247/96 338/245/96
f 338/245/96 244/247/96 86/248/22 212/249/22
f 243/240/96 338/245/96 212/249/22 87/241/22
f 36/246/93 161/250/93 339/251/96 244/247/96
f 161/250/93 35/252/93 245/253/96 339/251/96
f 339/251/96 245/253/96 85/254/22 211/255/22
f 244/247/96 339/251/96 211/255/22 86/248/22
f 35/252/93 160/256/93 340/257/96 245/253/96
f 160/256/93 34/258/93 246/259/96 340/257/96
f 340/257/96 246/259/96 84/260/22 210/261/22
f 245/253/96 340/257/96 210/261/22 85/254/22
f 34/258/93 159/262/93 341/263/96 246/259/96
f 159/262/93 33/114/93 247/117/96 341/263/96
f 341/263/96 247/117/96 83/28/22 209/264/22
f 246/259/96 341/263/96 209/264/22 84/260/22
f 13/265/72 118/266/76 342/267/76 198/268/72
f 118/266/76 12/269/1 203/270/1 342/267/76
f 342/267/76 203/270/1 78/271/1 248/272/76
f 198/268/72 342/267/76 248/272/76 73/273/72
f 73/273/72 248/272/76 343/274/76 199/275/72
f 248/272/76 78/271/1 204/276/1 343/274/76
f 343/274/76 204/276/1 79/277/1 249/278/76
f 199/275/72 343/274/76 249/278/76 74/279/72
f 74/279/72 249/278/76 344/280/76 200/281/72
f 249/278/76 79/277/1 205/282/1 344/280/76
f 344/280/76 205/282/1 80/283/1 250/284/76
f 200/281/72 344/280/76 250/284/76 75/285/72
f 75/285/72 250/284/76 345/286/76 201/287/72
f 250/284/76 80/283/1 206/288/1 345/286/76
f 345/286/76 206/288/1 81/289/1 251/290/76
f 201/287/72 345/286/76 251/290/76 76/291/72
f 76/291/72 251/290/76 346/292/76 202/293/72
f 251/290/76 81/289/1 207/294/1 346/292/76
f 346/292/76 207/294/1 82/1/1 252/97/76
f 202/293/72 346/292/76 252/97/76 77/93/72
f 14/295/65 119/296/70 347/297/70 193/298/65
f 119/296/70 13/265/72 198/268/72 347/297/70
f 347/297/70 198/268/72 73/273/72 253/299/70
f 193/298/65 347/297/70 253/299/70 68/300/65
f 68/300/65 253/299/70 348/301/70 194/302/65
f 253/299/70 73/273/72 199/275/72 348/301/70
f 348/301/70 199/275/72 74/279/72 254/303/70
f 194/302/65 348/301/70 254/303/70 69/304/65
f 69/304/65 254/303/70 349/305/70 195/306/65
f 254/303/70 74/279/72 200/281/72 349/305/70
f 349/305/70 200/281/72 75/285/72 255/307/70
f 195/306/65 349/305/70 255/307/70 70/308/65
f 70/308/65 255/307/70 350/309/70 196/310/65
f 255/307/70 75/285/72 201/287/72 350/309/70
f 350/309/70 201/287/72 76/291/72 256/311/70
f 196/310/65 350/309/70 256/311/70 71/312/65
f 71/312/65 256/311/70 351/313/70 197/314/65
f 256/311/70 76/291/72 202/293/72 351/313/70
f 351/313/70 202/293/72 77/93/72 257/91/70
f 197/314/65 351/313/70 257/91/70 72/86/65
f 3/315/61 105/316/62 352/317/62 106/318/61
f 105/316/62 14/295/65 193/298/65 352/317/62
f 352/317/62 193/298/65 68/300/65 258/319/62
f 106/318/61 352/317/62 258/319/62 37/320/61
f 37/320/61 258/319/62 353/321/62 162/322/61
f 258/319/62 68/300/65 194/302/65 353/321/62
f 353/321/62 194/302/65 69/304/65 259/323/62
f 162/322/61 353/321/62 259/323/62 36/324/61
f 36/324/61 259/323/62 354/325/62 161/326/61
f 259/323/62 69/304/65 195/306/65 354/325/62
f 354/325/62 195/306/65 70/308/65 260/327/62
f 161/326/61 354/325/62 260/327/62 35/328/61
f 35/328/61 260/327/62 355/329/62 160/330/61
f 260/327/62 70/308/65 196/310/65 355/329/62
f 355/329/62 196/310/65 71/312/65 261/331/62
f 160/330/61 355/329/62 261/331/62 34/332/61
f 34/332/61 261/331/62 356/333/62 159/334/61
f 261/331/62 71/312/65 197/314/65 356/333/62
f 356/333/62 197/314/65 72/86/65 262/83/62
f 159/334/61 356/333/62 262/83/62 33/82/61
f 19/335/172 124/336/173 357/337/174 183/338/175
f 124/336/173 18/339/176 188/340/177 357/337/174
f 357/337/174 188/340/177 63/341/178 263/342/179
f 183/338/175 357/337/174 263/342/179 58/343/180
f 58/343/180 263/342/179 358/344/42 184/345/41
f 263/342/179 63/341/178 189/346/19 358/344/42
f 358/344/42 189/346/19 64/347/19 264/348/42
f 184/345/41 358/344/42 264/348/42 59/349/41
f 59/349/41 264/348/42 359/350/42 185/351/41
f 264/348/42 64/347/19 190/352/19 359/350/42
f 359/350/42 190/352/19 65/353/19 265/354/42
f 185/351/41 359/350/42 265/354/42 60/355/41
f 60/355/41 265/354/42 360/356/42 186/357/41
f 265/354/42 65/353/19 191/358/19 360/356/42
f 360/356/42 191/358/19 66/359/19 266/360/42
f 186/357/41 360/356/42 266/360/42 61/361/41
f 61/361/41 266/360/42 361/362/42 187/363/41
f 266/360/42 66/359/19 192/364/19 361/362/42
f 361/362/42 192/364/19 67/19/19 267/61/42
f 187/363/41 361/362/42 267/61/42 62/57/41
f 20/365/181 125/366/182 362/367/183 178/368/184
f 125/366/182 19/335/172 183/338/175 362/367/183
f 362/367/183 183/338/175 58/343/180 268/369/40
f 178/368/184 362/367/183 268/369/40 53/370/39
f 53/370/39 268/369/40 363/371/40 179/372/39
f 268/369/40 58/343/180 184/345/41 363/371/40
f 363/371/40 184/345/41 59/349/41 269/373/40
f 179/372/39 363/371/40 269/373/40 54/374/39
f 54/374/39 269/373/40 364/375/40 180/376/39
f 269/373/40 59/349/41 185/351/41 364/375/40
f 364/375/40 185/351/41 60/355/41 270/377/40
f 180/376/39 364/375/40 270/377/40 55/378/39
f 55/378/39 270/377/40 365/379/40 181/380/39
f 270/377/40 60/355/41 186/357/41 365/379/40
f 365/379/40 186/357/41 61/361/41 271/381/40
f 181/380/39 365/379/40 271/381/40 56/382/39
f 56/382/39 271/381/40 366/383/40 182/384/39
f 271/381/40 61/361/41 187/363/41 366/383/40
f 366/383/40 187/363/41 62/57/41 272/55/40
f 182/384/39 366/383/40 272/55/40 57/50/39
f 5/385/26 111/386/185 367/387/186 112/388/27
f 111/386/185 20/365/181 178/368/184 367/387/186
f 367/387/186 178/368/184 53/370/39 273/389/38
f 112/388/27 367/387/186 273/389/38 47/390/28
f 47/390/28 273/389/38 368/391/38 172/392/28
f 273/389/38 53/370/39 179/372/39 368/391/38
f 368/391/38 179/372/39 54/374/39 274/393/38
f 172/392/28 368/391/38 274/393/38 46/394/28
f 46/394/28 274/393/38 369/395/38 171/396/28
f 274/393/38 54/374/39 180/376/39 369/395/38
f 369/395/38 180/376/39 55/378/39 275/397/38
f 171/396/28 369/395/38 275/397/38 45/398/28
f 45/398/28 275/397/38 370/399/38 170/400/28
f 275/397/38 55/378/39 181/380/39 370/399/38
f 370/399/38 181/380/39 56/382/39 276/401/38
f 170/400/28 370/399/38 276/401/38 44/402/28
f 44/402/28 276/401/38 371/403/38 169/404/28
f 276/401/38 56/382/39 182/384/39 371/403/38
f 371/403/38 182/384/39 57/50/39 277/47/38
f 169/404/28 371/403/38 277/47/38 43/46/28
f 2/25/21 113/24/21 372/405/187 155/406/188
f 113/24/21 52/23/21 278/407/189 372/405/187
f 372/405/187 278/407/189 97/408/190 149/409/191
f 155/406/188 372/405/187 149/409/191 32/410/192
f 52/23/21 177/411/21 373/412/193 278/407/189
f 177/411/21 51/413/21 279/414/194 373/412/193
f 373/412/193 279/414/194 96/415/195 222/416/196
f 278/407/189 373/412/193 222/416/196 97/408/190
f 51/413/21 176/417/21 374/418/197 279/414/194
f 176/417/21 50/419/21 280/420/198 374/418/197
f 374/418/197 280/420/198 95/421/199 221/422/200
f 279/414/194 374/418/197 221/422/200 96/415/195
f 50/419/21 175/423/21 375/424/201 280/420/198
f 175/423/21 49/425/21 281/426/202 375/424/201
f 375/424/201 281/426/202 94/427/203 220/428/204
f 280/420/198 375/424/201 220/428/204 95/421/199
f 49/425/21 174/429/21 376/430/205 281/426/202
f 174/429/21 48/37/29 282/40/32 376/430/205
f 376/430/205 282/40/32 93/45/37 219/431/206
f 281/426/202 376/430/205 219/431/206 94/427/203
f 21/243/22 144/242/22 377/432/24 103/433/24
f 144/242/22 87/241/22 283/434/24 377/432/24
f 377/432/24 283/434/24 43/435/28 168/436/28
f 103/433/24 377/432/24 168/436/28 1/437/28
f 87/241/22 212/249/22 378/438/24 283/434/24
f 212/249/22 86/248/22 284/439/24 378/438/24
f 378/438/24 284/439/24 44/440/28 169/441/28
f 283/434/24 378/438/24 169/441/28 43/435/28
f 86/248/22 211/255/22 379/442/24 284/439/24
f 211/255/22 85/254/22 285/443/24 379/442/24
f 379/442/24 285/443/24 45/444/28 170/445/28
f 284/439/24 379/442/24 170/445/28 44/440/28
f 85/254/22 210/261/22 380/446/24 285/443/24
f 210/261/22 84/260/22 286/447/24 380/446/24
f 380/446/24 286/447/24 46/448/28 171/449/28
f 285/443/24 380/446/24 171/449/28 45/444/28
f 84/260/22 209/264/22 381/450/24 286/447/24
f 209/264/22 83/28/22 287/31/24 381/450/24
f 381/450/24 287/31/24 47/36/28 172/451/28
f 286/447/24 381/450/24 172/451/28 46/448/28
f 18/339/176 123/452/207 382/453/208 188/340/177
f 123/452/207 6/41/33 173/38/30 382/453/208
f 382/453/208 173/38/30 48/37/29 288/454/209
f 188/340/177 382/453/208 288/454/209 63/341/178
f 63/341/178 288/454/209 383/455/20 189/346/19
f 288/454/209 48/37/29 174/429/21 383/455/20
f 383/455/20 174/429/21 49/425/21 289/456/20
f 189/346/19 383/455/20 289/456/20 64/347/19
f 64/347/19 289/456/20 384/457/20 190/352/19
f 289/456/20 49/425/21 175/423/21 384/457/20
f 384/457/20 175/423/21 50/419/21 290/458/20
f 190/352/19 384/457/20 290/458/20 65/353/19
f 65/353/19 290/458/20 385/459/20 191/358/19
f 290/458/20 50/419/21 176/417/21 385/459/20
f 385/459/20 176/417/21 51/413/21 291/460/20
f 191/358/19 385/459/20 291/460/20 66/359/19
f 66/359/19 291/460/20 386/461/20 192/364/19
f 291/460/20 51/413/21 177/411/21 386/461/20
f 386/461/20 177/411/21 52/23/21 292/20/20
f 192/364/19 386/461/20 292/20/20 67/19/19
f 12/269/1 117/462/2 387/463/2 203/270/1
f 117/462/2 4/143/5 163/140/5 387/463/2
f 387/463/2 163/140/5 38/139/5 293/464/2
f 203/270/1 387/463/2 293/464/2 78/271/1
f 78/271/1 293/464/2 388/465/2 204/276/1
f 293/464/2 38/139/5 164/182/5 388/465/2
f 388/465/2 164/182/5 39/178/5 294/466/2
f 204/276/1 388/465/2 294/466/2 79/277/1
f 79/277/1 294/466/2 389/467/2 205/282/1
f 294/466/2 39/178/5 165/176/5 389/467/2
f 389/467/2 165/176/5 40/172/5 295/468/2
f 205/282/1 389/467/2 295/468/2 80/283/1
f 80/283/1 295/468/2 390/469/2 206/288/1
f 295/468/2 40/172/5 166/170/5 390/469/2
f 390/469/2 166/170/5 41/166/5 296/470/2
f 206/288/1 390/469/2 296/470/2 81/289/1
f 81/289/1 296/470/2 391/471/2 207/294/1
f 296/470/2 41/166/5 167/164/5 391/471/2
f 391/471/2 167/164/5 42/5/5 297/2/2
f 207/294/1 391/471/2 297/2/2 82/1/1
f 459/472/1 502/473/210 661/474/211 660/475/2
f 660/475/2 661/474/211 481/476/212 419/477/5
f 661/474/211 488/478/213 395/479/214 481/476/212
f 502/473/210 396/480/215 488/478/213 661/474/211
f 406/481/216 499/482/217 662/483/218 512/484/219
f 512/484/219 662/483/218 484/485/220 403/486/221
f 662/483/218 491/487/222 393/488/223 484/485/220
f 499/482/217 399/489/224 491/487/222 662/483/218
f 444/490/19 496/491/19 663/492/20 655/493/20
f 655/493/20 663/492/20 487/494/21 429/495/21
f 663/492/20 104/26/20 2/25/21 487/494/21
f 496/491/19 11/27/19 104/26/20 663/492/20
f 460/496/22 650/497/24 664/498/225 571/499/22
f 571/499/22 664/498/225 503/500/226 402/501/22
f 664/498/225 486/502/227 392/503/228 503/500/226
f 650/497/24 424/504/28 486/502/227 664/498/225
f 425/505/229 645/506/230 665/507/231 536/508/232
f 536/508/232 665/507/231 518/509/233 393/510/234
f 665/507/231 581/511/235 409/512/236 518/509/233
f 645/506/230 470/513/237 581/511/235 665/507/231
f 420/514/28 531/515/28 666/516/38 640/517/38
f 640/517/38 666/516/38 494/518/39 434/519/39
f 666/516/38 114/53/38 9/52/39 494/518/39
f 531/515/28 1/54/28 114/53/38 666/516/38
f 434/519/39 494/518/39 667/520/40 635/521/40
f 635/521/40 667/520/40 495/522/41 439/523/41
f 667/520/40 115/60/40 10/59/41 495/522/41
f 494/518/39 9/52/39 115/60/40 667/520/40
f 439/523/41 495/522/41 668/524/42 630/525/42
f 630/525/42 668/524/42 496/491/19 444/490/19
f 668/524/42 116/63/42 11/27/19 496/491/19
f 495/522/41 10/59/41 116/63/42 668/524/42
f 402/526/238 503/527/239 669/528/240 510/529/241
f 510/529/241 669/528/240 497/530/242 404/531/243
f 669/528/240 485/532/244 401/533/245 497/530/242
f 503/527/239 392/534/246 485/532/244 669/528/240
f 404/531/243 497/530/242 670/535/247 509/536/248
f 509/536/248 670/535/247 498/537/249 405/538/250
f 670/535/247 493/539/251 400/540/252 498/537/249
f 497/530/242 401/533/245 493/539/251 670/535/247
f 405/538/250 498/537/249 671/541/253 508/542/254
f 508/542/254 671/541/253 499/482/217 406/481/216
f 671/541/253 492/543/255 399/489/224 499/482/217
f 498/537/249 400/540/252 492/543/255 671/541/253
f 410/544/61 521/545/256 672/546/257 625/547/62
f 625/547/62 672/546/257 500/548/258 449/549/65
f 672/546/257 482/550/259 398/551/260 500/548/258
f 521/545/256 394/552/261 482/550/259 672/546/257
f 449/549/65 500/548/258 673/553/262 620/554/70
f 620/554/70 673/553/262 501/555/263 454/556/72
f 673/553/262 490/557/264 397/558/265 501/555/263
f 500/548/258 398/551/260 490/557/264 673/553/262
f 454/556/72 501/555/263 674/559/266 615/560/76
f 615/560/76 674/559/266 502/473/210 459/472/1
f 674/559/266 489/561/267 396/480/215 502/473/210
f 501/555/263 397/558/265 489/561/267 674/559/266
f 397/562/268 506/563/269 675/564/270 489/565/271
f 489/565/271 675/564/270 507/566/272 396/567/273
f 675/564/270 508/542/254 406/481/216 507/566/272
f 506/563/269 405/538/250 508/542/254 675/564/270
f 398/568/274 505/569/275 676/570/276 490/571/277
f 490/571/277 676/570/276 506/563/269 397/562/268
f 676/570/276 509/536/248 405/538/250 506/563/269
f 505/569/275 404/531/243 509/536/248 676/570/276
f 394/572/278 483/573/279 677/574/280 482/575/281
f 482/575/281 677/574/280 505/569/275 398/568/274
f 677/574/280 510/529/241 404/531/243 505/569/275
f 483/573/279 402/526/238 510/529/241 677/574/280
f 410/576/93 610/577/96 678/578/282 521/579/283
f 521/579/283 678/578/282 483/580/284 394/581/285
f 678/578/282 571/499/22 402/501/22 483/580/284
f 610/577/96 460/496/22 571/499/22 678/578/282
f 396/567/273 507/566/272 679/582/286 488/583/287
f 488/583/287 679/582/286 504/584/288 395/585/289
f 679/582/286 512/484/219 403/486/221 504/584/288
f 507/566/272 406/481/216 512/484/219 679/582/286
f 475/586/103 605/587/103 680/588/290 586/589/290
f 586/589/290 680/588/290 150/129/103 27/128/103
f 680/588/290 515/590/290 32/130/103 150/129/103
f 605/587/103 474/591/103 515/590/290 680/588/290
f 465/592/291 600/593/292 681/594/293 576/595/294
f 576/595/294 681/594/293 146/138/110 28/137/109
f 681/594/293 586/589/290 27/128/103 146/138/110
f 600/593/292 475/586/103 586/589/290 681/594/293
f 415/596/5 595/597/295 682/598/296 526/599/5
f 526/599/5 682/598/296 153/144/113 4/143/5
f 682/598/296 576/600/297 28/145/114 153/144/113
f 595/597/295 465/601/298 576/600/297 682/598/296
f 403/486/221 520/602/299 683/603/300 504/584/288
f 504/584/288 683/603/300 519/604/301 395/585/289
f 683/603/300 516/605/302 407/606/303 519/604/301
f 520/602/299 408/607/304 516/605/302 683/603/300
f 393/488/223 518/608/305 684/609/306 484/485/220
f 484/485/220 684/609/306 520/602/299 403/486/221
f 684/609/306 514/610/307 408/607/304 520/602/299
f 518/608/305 409/611/308 514/610/307 684/609/306
f 395/479/214 519/612/309 685/613/310 481/476/212
f 481/476/212 685/613/310 591/614/311 419/477/5
f 685/613/310 513/615/312 469/616/313 591/614/311
f 519/612/309 407/617/314 513/615/312 685/613/310
f 419/477/5 591/614/311 686/618/315 530/619/5
f 530/619/5 686/618/315 592/620/316 418/621/5
f 686/618/315 580/622/317 468/623/318 592/620/316
f 591/614/311 469/616/313 580/622/317 686/618/315
f 418/621/5 592/620/316 687/624/319 529/625/5
f 529/625/5 687/624/319 593/626/320 417/627/5
f 687/624/319 579/628/321 467/629/322 593/626/320
f 592/620/316 468/623/318 579/628/321 687/624/319
f 417/627/5 593/626/320 688/630/323 528/631/5
f 528/631/5 688/630/323 594/632/324 416/633/5
f 688/630/323 578/634/325 466/635/326 594/632/324
f 593/626/320 467/629/322 578/634/325 688/630/323
f 416/633/5 594/632/324 689/636/327 527/637/5
f 527/637/5 689/636/327 595/597/295 415/596/5
f 689/636/327 577/638/328 465/601/298 595/597/295
f 594/632/324 466/635/326 577/638/328 689/636/327
f 407/639/329 516/640/330 690/641/331 513/642/332
f 513/642/332 690/641/331 596/643/333 469/644/334
f 690/641/331 517/645/103 479/646/103 596/643/333
f 516/640/330 408/647/335 517/645/103 690/641/331
f 469/644/334 596/643/333 691/648/336 580/649/337
f 580/649/337 691/648/336 597/650/338 468/651/339
f 691/648/336 590/652/103 478/653/103 597/650/338
f 596/643/333 479/646/103 590/652/103 691/648/336
f 468/651/339 597/650/338 692/654/340 579/655/341
f 579/655/341 692/654/340 598/656/342 467/657/343
f 692/654/340 589/658/103 477/659/103 598/656/342
f 597/650/338 478/653/103 589/658/103 692/654/340
f 467/657/343 598/656/342 693/660/344 578/661/345
f 578/661/345 693/660/344 599/662/346 466/663/347
f 693/660/344 588/664/103 476/665/103 599/662/346
f 598/656/342 477/659/103 588/664/103 693/660/344
f 466/663/347 599/662/346 694/666/348 577/667/349
f 577/667/349 694/666/348 600/593/292 465/592/291
f 694/666/348 587/668/103 475/586/103 600/593/292
f 599/662/346 476/665/103 587/668/103 694/666/348
f 408/647/335 514/669/350 695/670/351 517/645/103
f 517/645/103 695/670/351 601/671/103 479/646/103
f 695/670/351 581/672/352 470/673/103 601/671/103
f 514/669/350 409/674/353 581/672/352 695/670/351
f 479/646/103 601/671/103 696/675/103 590/652/103
f 590/652/103 696/675/103 602/676/103 478/653/103
f 696/675/103 582/677/103 471/678/103 602/676/103
f 601/671/103 470/673/103 582/677/103 696/675/103
f 478/653/103 602/676/103 697/679/103 589/658/103
f 589/658/103 697/679/103 603/680/103 477/659/103
f 697/679/103 583/681/103 472/682/103 603/680/103
f 602/676/103 471/678/103 583/681/103 697/679/103
f 477/659/103 603/680/103 698/683/103 588/664/103
f 588/664/103 698/683/103 604/684/103 476/665/103
f 698/683/103 584/685/103 473/686/103 604/684/103
f 603/680/103 472/682/103 584/685/103 698/683/103
f 476/665/103 604/684/103 699/687/103 587/668/103
f 587/668/103 699/687/103 605/587/103 475/586/103
f 699/687/103 585/688/103 474/591/103 605/587/103
f 604/684/103 473/686/103 585/688/103 699/687/103
f 3/235/93 135/238/96 700/689/96 480/690/93
f 480/690/93 700/689/96 606/691/96 414/692/93
f 700/689/96 511/693/22 464/694/22 606/691/96
f 135/238/96 21/243/22 511/693/22 700/689/96
f 414/692/93 606/691/96 701/695/96 525/696/93
f 525/696/93 701/695/96 607/697/96 413/698/93
f 701/695/96 575/699/22 463/700/22 607/697/96
f 606/691/96 464/694/22 575/699/22 701/695/96
f 413/698/93 607/697/96 702/701/96 524/702/93
f 524/702/93 702/701/96 608/703/96 412/704/93
f 702/701/96 574/705/22 462/706/22 608/703/96
f 607/697/96 463/700/22 574/705/22 702/701/96
f 412/704/93 608/703/96 703/707/96 523/708/93
f 523/708/93 703/707/96 609/709/96 411/710/93
f 703/707/96 573/711/22 461/712/22 609/709/96
f 608/703/96 462/706/22 573/711/22 703/707/96
f 411/710/93 609/709/96 704/713/96 522/714/93
f 522/714/93 704/713/96 610/577/96 410/576/93
f 704/713/96 572/715/22 460/496/22 610/577/96
f 609/709/96 461/712/22 572/715/22 704/713/96
f 13/265/72 561/716/72 705/717/76 118/266/76
f 118/266/76 705/717/76 566/718/1 12/269/1
f 705/717/76 611/719/76 455/720/1 566/718/1
f 561/716/72 450/721/72 611/719/76 705/717/76
f 450/721/72 562/722/72 706/723/76 611/719/76
f 611/719/76 706/723/76 567/724/1 455/720/1
f 706/723/76 612/725/76 456/726/1 567/724/1
f 562/722/72 451/727/72 612/725/76 706/723/76
f 451/727/72 563/728/72 707/729/76 612/725/76
f 612/725/76 707/729/76 568/730/1 456/726/1
f 707/729/76 613/731/76 457/732/1 568/730/1
f 563/728/72 452/733/72 613/731/76 707/729/76
f 452/733/72 564/734/72 708/735/76 613/731/76
f 613/731/76 708/735/76 569/736/1 457/732/1
f 708/735/76 614/737/76 458/738/1 569/736/1
f 564/734/72 453/739/72 614/737/76 708/735/76
f 453/739/72 565/740/72 709/741/76 614/737/76
f 614/737/76 709/741/76 570/742/1 458/738/1
f 709/741/76 615/560/76 459/472/1 570/742/1
f 565/740/72 454/556/72 615/560/76 709/741/76
f 14/295/65 556/743/65 710/744/70 119/296/70
f 119/296/70 710/744/70 561/716/72 13/265/72
f 710/744/70 616/745/70 450/721/72 561/716/72
f 556/743/65 445/746/65 616/745/70 710/744/70
f 445/746/65 557/747/65 711/748/70 616/745/70
f 616/745/70 711/748/70 562/722/72 450/721/72
f 711/748/70 617/749/70 451/727/72 562/722/72
f 557/747/65 446/750/65 617/749/70 711/748/70
f 446/750/65 558/751/65 712/752/70 617/749/70
f 617/749/70 712/752/70 563/728/72 451/727/72
f 712/752/70 618/753/70 452/733/72 563/728/72
f 558/751/65 447/754/65 618/753/70 712/752/70
f 447/754/65 559/755/65 713/756/70 618/753/70
f 618/753/70 713/756/70 564/734/72 452/733/72
f 713/756/70 619/757/70 453/739/72 564/734/72
f 559/755/65 448/758/65 619/757/70 713/756/70
f 448/758/65 560/759/65 714/760/70 619/757/70
f 619/757/70 714/760/70 565/740/72 453/739/72
f 714/760/70 620/554/70 454/556/72 565/740/72
f 560/759/65 449/549/65 620/554/70 714/760/70
f 3/315/61 480/761/61 715/762/62 105/316/62
f 105/316/62 715/762/62 556/743/65 14/295/65
f 715/762/62 621/763/62 445/746/65 556/743/65
f 480/761/61 414/764/61 621/763/62 715/762/62
f 414/764/61 525/765/61 716/766/62 621/763/62
f 621/763/62 716/766/62 557/747/65 445/746/65
f 716/766/62 622/767/62 446/750/65 557/747/65
f 525/765/61 413/768/61 622/767/62 716/766/62
f 413/768/61 524/769/61 717/770/62 622/767/62
f 622/767/62 717/770/62 558/751/65 446/750/65
f 717/770/62 623/771/62 447/754/65 558/751/65
f 524/769/61 412/772/61 623/771/62 717/770/62
f 412/772/61 523/773/61 718/774/62 623/771/62
f 623/771/62 718/774/62 559/755/65 447/754/65
f 718/774/62 624/775/62 448/758/65 559/755/65
f 523/773/61 411/776/61 624/775/62 718/774/62
f 411/776/61 522/777/61 719/778/62 624/775/62
f 624/775/62 719/778/62 560/759/65 448/758/65
f 719/778/62 625/547/62 449/549/65 560/759/65
f 522/777/61 410/544/61 625/547/62 719/778/62
f 400/779/354 546/780/355 720/781/356 492/782/357
f 492/782/357 720/781/356 551/783/358 399/784/359
f 720/781/356 626/785/360 440/786/361 551/783/358
f 546/780/355 435/787/362 626/785/360 720/781/356
f 435/787/362 547/788/41 721/789/42 626/785/360
f 626/785/360 721/789/42 552/790/19 440/786/361
f 721/789/42 627/791/42 441/792/19 552/790/19
f 547/788/41 436/793/41 627/791/42 721/789/42
f 436/793/41 548/794/41 722/795/42 627/791/42
f 627/791/42 722/795/42 553/796/19 441/792/19
f 722/795/42 628/797/42 442/798/19 553/796/19
f 548/794/41 437/799/41 628/797/42 722/795/42
f 437/799/41 549/800/41 723/801/42 628/797/42
f 628/797/42 723/801/42 554/802/19 442/798/19
f 723/801/42 629/803/42 443/804/19 554/802/19
f 549/800/41 438/805/41 629/803/42 723/801/42
f 438/805/41 550/806/41 724/807/42 629/803/42
f 629/803/42 724/807/42 555/808/19 443/804/19
f 724/807/42 630/525/42 444/490/19 555/808/19
f 550/806/41 439/523/41 630/525/42 724/807/42
f 401/809/363 541/810/364 725/811/365 493/812/366
f 493/812/366 725/811/365 546/780/355 400/779/354
f 725/811/365 631/813/40 435/787/362 546/780/355
f 541/810/364 430/814/39 631/813/40 725/811/365
f 430/814/39 542/815/39 726/816/40 631/813/40
f 631/813/40 726/816/40 547/788/41 435/787/362
f 726/816/40 632/817/40 436/793/41 547/788/41
f 542/815/39 431/818/39 632/817/40 726/816/40
f 431/818/39 543/819/39 727/820/40 632/817/40
f 632/817/40 727/820/40 548/794/41 436/793/41
f 727/820/40 633/821/40 437/799/41 548/794/41
f 543/819/39 432/822/39 633/821/40 727/820/40
f 432/822/39 544/823/39 728/824/40 633/821/40
f 633/821/40 728/824/40 549/800/41 437/799/41
f 728/824/40 634/825/40 438/805/41 549/800/41
f 544/823/39 433/826/39 634/825/40 728/824/40
f 433/826/39 545/827/39 729/828/40 634/825/40
f 634/825/40 729/828/40 550/806/41 438/805/41
f 729/828/40 635/521/40 439/523/41 550/806/41
f 545/827/39 434/519/39 635/521/40 729/828/40
f 392/829/228 486/830/227 730/831/367 485/832/368
f 485/832/368 730/831/367 541/810/364 401/809/363
f 730/831/367 636/833/38 430/814/39 541/810/364
f 486/830/227 424/834/28 636/833/38 730/831/367
f 424/834/28 535/835/28 731/836/38 636/833/38
f 636/833/38 731/836/38 542/815/39 430/814/39
f 731/836/38 637/837/38 431/818/39 542/815/39
f 535/835/28 423/838/28 637/837/38 731/836/38
f 423/838/28 534/839/28 732/840/38 637/837/38
f 637/837/38 732/840/38 543/819/39 431/818/39
f 732/840/38 638/841/38 432/822/39 543/819/39
f 534/839/28 422/842/28 638/841/38 732/840/38
f 422/842/28 533/843/28 733/844/38 638/841/38
f 638/841/38 733/844/38 544/823/39 432/822/39
f 733/844/38 639/845/38 433/826/39 544/823/39
f 533/843/28 421/846/28 639/845/38 733/844/38
f 421/846/28 532/847/28 734/848/38 639/845/38
f 639/845/38 734/848/38 545/827/39 433/826/39
f 734/848/38 640/517/38 434/519/39 545/827/39
f 532/847/28 420/514/28 640/517/38 734/848/38
f 2/25/21 155/406/188 735/849/369 487/494/21
f 487/494/21 735/849/369 641/850/370 429/495/21
f 735/849/369 515/851/371 474/852/372 641/850/370
f 155/406/188 32/410/192 515/851/371 735/849/369
f 429/495/21 641/850/370 736/853/373 540/854/21
f 540/854/21 736/853/373 642/855/374 428/856/21
f 736/853/373 585/857/375 473/858/376 642/855/374
f 641/850/370 474/852/372 585/857/375 736/853/373
f 428/856/21 642/855/374 737/859/377 539/860/21
f 539/860/21 737/859/377 643/861/378 427/862/21
f 737/859/377 584/863/379 472/864/380 643/861/378
f 642/855/374 473/858/376 584/863/379 737/859/377
f 427/862/21 643/861/378 738/865/381 538/866/21
f 538/866/21 738/865/381 644/867/382 426/868/21
f 738/865/381 583/869/383 471/870/384 644/867/382
f 643/861/378 472/864/380 583/869/383 738/865/381
f 426/868/21 644/867/382 739/871/385 537/872/21
f 537/872/21 739/871/385 645/506/230 425/505/229
f 739/871/385 582/873/386 470/513/237 645/506/230
f 644/867/382 471/870/384 582/873/386 739/871/385
f 21/243/22 103/433/24 740/874/24 511/693/22
f 511/693/22 740/874/24 646/875/24 464/694/22
f 740/874/24 531/876/28 420/877/28 646/875/24
f 103/433/24 1/437/28 531/876/28 740/874/24
f 464/694/22 646/875/24 741/878/24 575/699/22
f 575/699/22 741/878/24 647/879/24 463/700/22
f 741/878/24 532/880/28 421/881/28 647/879/24
f 646/875/24 420/877/28 532/880/28 741/878/24
f 463/700/22 647/879/24 742/882/24 574/705/22
f 574/705/22 742/882/24 648/883/24 462/706/22
f 742/882/24 533/884/28 422/885/28 648/883/24
f 647/879/24 421/881/28 533/884/28 742/882/24
f 462/706/22 648/883/24 743/886/24 573/711/22
f 573/711/22 743/886/24 649/887/24 461/712/22
f 743/886/24 534/888/28 423/889/28 649/887/24
f 648/883/24 422/885/28 534/888/28 743/886/24
f 461/712/22 649/887/24 744/890/24 572/715/22
f 572/715/22 744/890/24 650/497/24 460/496/22
f 744/890/24 535/891/28 424/504/28 650/497/24
f 649/887/24 423/889/28 535/891/28 744/890/24
f 399/784/359 551/783/358 745/892/387 491/893/388
f 491/893/388 745/892/387 536/508/232 393/510/234
f 745/892/387 651/894/389 425/505/229 536/508/232
f 551/783/358 440/786/361 651/894/389 745/892/387
f 440/786/361 552/790/19 746/895/20 651/894/389
f 651/894/389 746/895/20 537/872/21 425/505/229
f 746/895/20 652/896/20 426/868/21 537/872/21
f 552/790/19 441/792/19 652/896/20 746/895/20
f 441/792/19 553/796/19 747/897/20 652/896/20
f 652/896/20 747/897/20 538/866/21 426/868/21
f 747/897/20 653/898/20 427/862/21 538/866/21
f 553/796/19 442/798/19 653/898/20 747/897/20
f 442/798/19 554/802/19 748/899/20 653/898/20
f 653/898/20 748/899/20 539/860/21 427/862/21
f 748/899/20 654/900/20 428/856/21 539/860/21
f 554/802/19 443/804/19 654/900/20 748/899/20
f 443/804/19 555/808/19 749/901/20 654/900/20
f 654/900/20 749/901/20 540/854/21 428/856/21
f 749/901/20 655/493/20 429/495/21 540/854/21
f 555/808/19 444/490/19 655/493/20 749/901/20
f 12/269/1 566/718/1 750/902/2 117/462/2
f 117/462/2 750/902/2 526/599/5 4/143/5
f 750/902/2 656/903/2 415/596/5 526/599/5
f 566/718/1 455/720/1 656/903/2 750/902/2
f 455/720/1 567/724/1 751/904/2 656/903/2
f 656/903/2 751/904/2 527/637/5 415/596/5
f 751/904/2 657/905/2 416/633/5 527/637/5
f 567/724/1 456/726/1 657/905/2 751/904/2
f 456/726/1 568/730/1 752/906/2 657/905/2
f 657/905/2 752/906/2 528/631/5 416/633/5
f 752/906/2 658/907/2 417/627/5 528/631/5
f 568/730/1 457/732/1 658/907/2 752/906/2
f 457/732/1 569/736/1 753/908/2 658/907/2
f 658/907/2 753/908/2 529/625/5 417/627/5
f 753/908/2 659/909/2 418/621/5 529/625/5
f 569/736/1 458/738/1 659/909/2 753/908/2
f 458/738/1 570/742/1 754/910/2 659/909/2
f 659/909/2 754/910/2 530/619/5 418/621/5
f 754/910/2 660/475/2 419/477/5 530/619/5
f 570/742/1 459/472/1 660/475/2 754/910/2
