# Blender 5.0.1
# www.blender.org
mtllib gaseosa chica.mtl
o Gaseosa_Chica
v -9.370809 0.129497 -0.656699
v -9.372953 0.684654 -0.658195
v -9.205045 0.129520 -0.634880
v -9.202600 0.684654 -0.635768
v -9.064331 0.117095 -0.572701
v -9.043856 0.684654 -0.570014
v -8.973907 0.064811 -0.405780
v -8.907539 0.684654 -0.465414
v -8.799963 0.120331 -0.317954
v -8.802940 0.684654 -0.329097
v -8.737670 0.130562 -0.170221
v -8.737185 0.684654 -0.170353
v -8.717748 0.120331 -0.011124
v -8.714759 0.684654 -0.000000
v -8.824695 0.065682 0.153291
v -8.737185 0.684654 0.170353
v -8.818359 0.118189 0.340929
v -8.802940 0.684654 0.329097
v -8.909958 0.129857 0.465846
v -8.907539 0.684654 0.465414
v -9.042812 0.129857 0.567789
v -9.043856 0.684654 0.570014
v -9.187181 0.118189 0.623936
v -9.202600 0.684654 0.635768
v -9.372120 0.064047 0.565243
v -9.372953 0.684654 0.658195
v -9.560310 0.116386 0.622688
v -9.543306 0.684654 0.635768
v -9.703193 0.129292 0.567563
v -9.702051 0.684654 0.570014
v -9.835708 0.129298 0.465882
v -9.838367 0.684654 0.465414
v -9.925935 0.116386 0.342134
v -9.942966 0.684654 0.329097
v -9.919191 0.062641 0.141415
v -10.008721 0.684654 0.170353
v -10.022225 0.114754 -0.021507
v -10.031148 0.684654 -0.000000
v -10.006466 0.128726 -0.172251
v -10.008721 0.684654 -0.170353
v -9.942713 0.128759 -0.326181
v -9.942966 0.684654 -0.329097
v -9.847258 0.114754 -0.443915
v -9.838367 0.684654 -0.465414
v -9.654733 0.062918 -0.489303
v -9.702051 0.684654 -0.570014
v -9.522820 0.117095 -0.633062
v -9.543306 0.684654 -0.635768
v -9.230245 1.012748 -0.532598
v -9.372953 1.012748 -0.551386
v -9.097260 1.012748 -0.477514
v -8.983065 1.012748 -0.389888
v -8.895439 1.012748 -0.275693
v -8.840356 1.012748 -0.142709
v -8.821568 1.012748 -0.000000
v -8.840356 1.012748 0.142709
v -8.895439 1.012748 0.275693
v -8.983065 1.012748 0.389888
v -9.097260 1.012748 0.477514
v -9.230245 1.012748 0.532598
v -9.372953 1.012748 0.551386
v -9.515662 1.012748 0.532598
v -9.648646 1.012748 0.477514
v -9.762842 1.012748 0.389888
v -9.850468 1.012748 0.275693
v -9.905551 1.012748 0.142709
v -9.924339 1.012748 -0.000000
v -9.905551 1.012748 -0.142709
v -9.850468 1.012748 -0.275693
v -9.762842 1.012748 -0.389888
v -9.648646 1.012748 -0.477514
v -9.515662 1.012748 -0.532598
v -9.230245 1.272048 -0.532598
v -9.372953 1.272048 -0.551386
v -9.097260 1.272048 -0.477514
v -8.983065 1.272048 -0.389888
v -8.895439 1.272048 -0.275693
v -8.840356 1.272048 -0.142709
v -8.821568 1.272048 -0.000000
v -8.840356 1.272048 0.142709
v -8.895439 1.272048 0.275693
v -8.983065 1.272048 0.389888
v -9.097260 1.272048 0.477514
v -9.230245 1.272048 0.532598
v -9.372953 1.272048 0.551386
v -9.515662 1.272048 0.532598
v -9.648646 1.272048 0.477514
v -9.762842 1.272048 0.389888
v -9.850468 1.272048 0.275693
v -9.905551 1.272048 0.142709
v -9.924339 1.272048 -0.000000
v -9.905551 1.272048 -0.142709
v -9.850468 1.272048 -0.275693
v -9.762842 1.272048 -0.389888
v -9.648646 1.272048 -0.477514
v -9.515662 1.272048 -0.532598
v -9.197541 1.944112 -0.654647
v -9.372953 1.944112 -0.677740
v -9.034083 1.944112 -0.586940
v -8.893719 1.944112 -0.479235
v -8.786013 1.944112 -0.338870
v -8.718307 1.944112 -0.175412
v -8.695213 1.944112 -0.000000
v -8.718307 1.944112 0.175412
v -8.786013 1.944112 0.338870
v -8.893719 1.944112 0.479235
v -9.034083 1.944112 0.586940
v -9.197541 1.944112 0.654647
v -9.372953 1.944112 0.677740
v -9.548366 1.944112 0.654647
v -9.711823 1.944112 0.586940
v -9.852188 1.944112 0.479235
v -9.959894 1.944112 0.338870
v -10.027600 1.944112 0.175412
v -10.050694 1.944112 -0.000000
v -10.027600 1.944112 -0.175412
v -9.959894 1.944112 -0.338870
v -9.852188 1.944112 -0.479235
v -9.711823 1.944112 -0.586940
v -9.548366 1.944112 -0.654647
v -9.197541 2.001440 -0.654647
v -9.372953 2.001440 -0.677740
v -9.034083 2.001440 -0.586940
v -8.893719 2.001440 -0.479235
v -8.786013 2.001440 -0.338870
v -8.718307 2.001440 -0.175412
v -8.695213 2.001440 -0.000000
v -8.718307 2.001440 0.175412
v -8.786013 2.001440 0.338870
v -8.893719 2.001440 0.479235
v -9.034083 2.001440 0.586940
v -9.197541 2.001440 0.654647
v -9.372953 2.001440 0.677740
v -9.548366 2.001440 0.654647
v -9.711823 2.001440 0.586940
v -9.852188 2.001440 0.479235
v -9.959894 2.001440 0.338870
v -10.027600 2.001440 0.175412
v -10.050694 2.001440 -0.000000
v -10.027600 2.001440 -0.175412
v -9.959894 2.001440 -0.338870
v -9.852188 2.001440 -0.479235
v -9.711823 2.001440 -0.586940
v -9.548366 2.001440 -0.654647
v -9.201741 2.012465 -0.638973
v -9.372953 2.012465 -0.661514
v -9.042196 2.012465 -0.572888
v -8.905192 2.012465 -0.467761
v -8.800065 2.012465 -0.330757
v -8.733980 2.012465 -0.171212
v -8.711439 2.012465 -0.000000
v -8.733980 2.012465 0.171212
v -8.800065 2.012465 0.330757
v -8.905192 2.012465 0.467761
v -9.042196 2.012465 0.572888
v -9.201741 2.012465 0.638973
v -9.372953 2.012465 0.661514
v -9.544166 2.012465 0.638973
v -9.703711 2.012465 0.572888
v -9.840714 2.012465 0.467761
v -9.945842 2.012465 0.330757
v -10.011927 2.012465 0.171212
v -10.034468 2.012465 -0.000000
v -10.011927 2.012465 -0.171212
v -9.945842 2.012465 -0.330757
v -9.840714 2.012465 -0.467761
v -9.703711 2.012465 -0.572888
v -9.544166 2.012465 -0.638973
v -9.201741 3.150211 -0.638973
v -9.372953 3.150211 -0.661514
v -9.042196 3.150211 -0.572888
v -8.905192 3.150211 -0.467761
v -8.800065 3.150211 -0.330757
v -8.733980 3.150211 -0.171212
v -8.711439 3.150211 -0.000000
v -8.733980 3.150211 0.171212
v -8.800065 3.150211 0.330757
v -8.905192 3.150211 0.467761
v -9.042196 3.150211 0.572888
v -9.201741 3.150211 0.638973
v -9.372953 3.150211 0.661514
v -9.544166 3.150211 0.638973
v -9.703711 3.150211 0.572888
v -9.840714 3.150211 0.467761
v -9.945842 3.150211 0.330757
v -10.011927 3.150211 0.171212
v -10.034468 3.150211 -0.000000
v -10.011927 3.150211 -0.171212
v -9.945842 3.150211 -0.330757
v -9.840714 3.150211 -0.467761
v -9.703711 3.150211 -0.572888
v -9.544166 3.150211 -0.638973
v -9.199706 3.165523 -0.646567
v -9.372953 3.165523 -0.669376
v -9.038265 3.165523 -0.579696
v -8.899633 3.165523 -0.473320
v -8.793257 3.165523 -0.334688
v -8.726386 3.165523 -0.173247
v -8.703578 3.165523 -0.000000
v -8.726386 3.165523 0.173247
v -8.793257 3.165523 0.334688
v -8.899633 3.165523 0.473320
v -9.038265 3.165523 0.579696
v -9.199706 3.165523 0.646567
v -9.372953 3.165523 0.669376
v -9.546201 3.165523 0.646567
v -9.707642 3.165523 0.579696
v -9.846273 3.165523 0.473320
v -9.952650 3.165523 0.334688
v -10.019521 3.165523 0.173247
v -10.042329 3.165523 -0.000000
v -10.019521 3.165523 -0.173247
v -9.952650 3.165523 -0.334688
v -9.846273 3.165523 -0.473320
v -9.707642 3.165523 -0.579696
v -9.546201 3.165523 -0.646567
v -9.194752 3.259947 -0.665059
v -9.372953 3.259947 -0.688519
v -9.028694 3.259947 -0.596275
v -8.886097 3.259947 -0.486857
v -8.776678 3.259947 -0.344260
v -8.707895 3.259947 -0.178202
v -8.684434 3.259947 -0.000000
v -8.707895 3.259947 0.178202
v -8.776678 3.259947 0.344260
v -8.886097 3.259947 0.486857
v -9.028694 3.259947 0.596275
v -9.194752 3.259947 0.665059
v -9.372953 3.259947 0.688519
v -9.551155 3.259947 0.665059
v -9.717213 3.259947 0.596275
v -9.859810 3.259947 0.486857
v -9.969229 3.259947 0.344260
v -10.038012 3.259947 0.178202
v -10.061473 3.259947 -0.000000
v -10.038012 3.259947 -0.178202
v -9.969229 3.259947 -0.344260
v -9.859810 3.259947 -0.486857
v -9.717213 3.259947 -0.596275
v -9.551155 3.259947 -0.665059
v -9.199476 3.369683 -0.647424
v -9.372953 3.369683 -0.670263
v -9.037822 3.369683 -0.580465
v -8.899006 3.369683 -0.473947
v -8.792489 3.369683 -0.335131
v -8.725530 3.369683 -0.173477
v -8.702690 3.369683 -0.000000
v -8.725530 3.369683 0.173477
v -8.792489 3.369683 0.335131
v -8.899006 3.369683 0.473947
v -9.037822 3.369683 0.580465
v -9.199476 3.369683 0.647424
v -9.372953 3.369683 0.670263
v -9.546431 3.369683 0.647424
v -9.708085 3.369683 0.580465
v -9.846901 3.369683 0.473947
v -9.953418 3.369683 0.335131
v -10.020378 3.369683 0.173477
v -10.043217 3.369683 -0.000000
v -10.020378 3.369683 -0.173477
v -9.953418 3.369683 -0.335131
v -9.846901 3.369683 -0.473947
v -9.708085 3.369683 -0.580465
v -9.546431 3.369683 -0.647424
v -9.218360 3.566187 -0.576952
v -9.372953 3.566187 -0.597304
v -9.074302 3.566187 -0.517281
v -8.950596 3.566187 -0.422358
v -8.855673 3.566187 -0.298652
v -8.796001 3.566187 -0.154594
v -8.775649 3.566187 -0.000000
v -8.796001 3.566187 0.154594
v -8.855673 3.566187 0.298652
v -8.950596 3.566187 0.422358
v -9.074302 3.566187 0.517281
v -9.218360 3.566187 0.576952
v -9.372953 3.566187 0.597304
v -9.527547 3.566187 0.576952
v -9.671605 3.566187 0.517281
v -9.795311 3.566187 0.422358
v -9.890234 3.566187 0.298652
v -9.949905 3.566187 0.154594
v -9.970258 3.566187 -0.000000
v -9.949905 3.566187 -0.154594
v -9.890234 3.566187 -0.298652
v -9.795311 3.566187 -0.422358
v -9.671605 3.566187 -0.517281
v -9.527547 3.566187 -0.576952
v -9.260969 3.956644 -0.417931
v -9.372953 3.956644 -0.432674
v -9.156616 3.956644 -0.374707
v -9.067006 3.956644 -0.305947
v -8.998246 3.956644 -0.216337
v -8.955022 3.956644 -0.111984
v -8.940279 3.956644 -0.000000
v -8.955022 3.956644 0.111984
v -8.998246 3.956644 0.216337
v -9.067006 3.956644 0.305947
v -9.156616 3.956644 0.374707
v -9.260969 3.956644 0.417931
v -9.372953 3.956644 0.432674
v -9.484938 3.956644 0.417931
v -9.589291 3.956644 0.374707
v -9.678901 3.956644 0.305947
v -9.747661 3.956644 0.216337
v -9.790885 3.956644 0.111984
v -9.805628 3.956644 -0.000000
v -9.790885 3.956644 -0.111984
v -9.747661 3.956644 -0.216337
v -9.678901 3.956644 -0.305947
v -9.589291 3.956644 -0.374707
v -9.484938 3.956644 -0.417931
v -9.303855 4.760456 -0.257880
v -9.372953 4.760456 -0.266977
v -9.239465 4.760456 -0.231209
v -9.184172 4.760456 -0.188781
v -9.141745 4.760456 -0.133489
v -9.115073 4.760456 -0.069099
v -9.105976 4.760456 -0.000000
v -9.115073 4.760456 0.069099
v -9.141745 4.760456 0.133489
v -9.184172 4.760456 0.188781
v -9.239465 4.760456 0.231209
v -9.303855 4.760456 0.257880
v -9.372953 4.760456 0.266977
v -9.442052 4.760456 0.257880
v -9.506442 4.760456 0.231209
v -9.561734 4.760456 0.188781
v -9.604162 4.760456 0.133489
v -9.630834 4.760456 0.069099
v -9.639931 4.760456 -0.000000
v -9.630834 4.760456 -0.069099
v -9.604162 4.760456 -0.133489
v -9.561734 4.760456 -0.188781
v -9.506442 4.760456 -0.231209
v -9.442052 4.760456 -0.257880
v -9.289194 4.760456 -0.312595
v -9.372953 4.760456 -0.323622
v -9.211143 4.760456 -0.280265
v -9.144118 4.760456 -0.228835
v -9.092689 4.760456 -0.161811
v -9.060358 4.760456 -0.083760
v -9.049332 4.760456 -0.000000
v -9.060358 4.760456 0.083760
v -9.092689 4.760456 0.161811
v -9.144118 4.760456 0.228835
v -9.211143 4.760456 0.280265
v -9.289194 4.760456 0.312595
v -9.372953 4.760456 0.323622
v -9.456713 4.760456 0.312595
v -9.534764 4.760456 0.280265
v -9.601789 4.760456 0.228835
v -9.653218 4.760456 0.161811
v -9.685549 4.760456 0.083760
v -9.696575 4.760456 -0.000000
v -9.685549 4.760456 -0.083760
v -9.653218 4.760456 -0.161811
v -9.601789 4.760456 -0.228835
v -9.534764 4.760456 -0.280265
v -9.456713 4.760456 -0.312595
v -9.289194 4.803909 -0.312595
v -9.372953 4.803909 -0.323622
v -9.211143 4.803909 -0.280265
v -9.144118 4.803909 -0.228835
v -9.092689 4.803909 -0.161811
v -9.060358 4.803909 -0.083760
v -9.049332 4.803909 -0.000000
v -9.060358 4.803909 0.083760
v -9.092689 4.803909 0.161811
v -9.144118 4.803909 0.228835
v -9.211143 4.803909 0.280265
v -9.289194 4.803909 0.312595
v -9.372953 4.803909 0.323622
v -9.456713 4.803909 0.312595
v -9.534764 4.803909 0.280265
v -9.601789 4.803909 0.228835
v -9.653218 4.803909 0.161811
v -9.685549 4.803909 0.083760
v -9.696575 4.803909 -0.000000
v -9.685549 4.803909 -0.083760
v -9.653218 4.803909 -0.161811
v -9.601789 4.803909 -0.228835
v -9.534764 4.803909 -0.280265
v -9.456713 4.803909 -0.312595
v -9.302961 4.803922 -0.261214
v -9.372953 4.803922 -0.270429
v -9.237739 4.803922 -0.234198
v -9.181731 4.803922 -0.191222
v -9.138755 4.803922 -0.135214
v -9.111739 4.803922 -0.069992
v -9.102525 4.803922 -0.000000
v -9.111739 4.803922 0.069992
v -9.138755 4.803922 0.135214
v -9.181731 4.803922 0.191222
v -9.237739 4.803922 0.234198
v -9.302961 4.803922 0.261214
v -9.372953 4.803922 0.270429
v -9.442945 4.803922 0.261214
v -9.508168 4.803922 0.234198
v -9.564176 4.803922 0.191222
v -9.607151 4.803922 0.135214
v -9.634168 4.803922 0.069992
v -9.643382 4.803922 -0.000000
v -9.634168 4.803922 -0.069992
v -9.607151 4.803922 -0.135214
v -9.564176 4.803922 -0.191222
v -9.508168 4.803922 -0.234198
v -9.442945 4.803922 -0.261214
v -9.302961 5.020597 -0.261214
v -9.372953 5.020597 -0.270429
v -9.237740 5.020597 -0.234198
v -9.181731 5.020597 -0.191222
v -9.138756 5.020597 -0.135214
v -9.111739 5.020597 -0.069992
v -9.102525 5.020597 -0.000000
v -9.111739 5.020597 0.069992
v -9.138756 5.020597 0.135214
v -9.181731 5.020597 0.191222
v -9.237740 5.020597 0.234198
v -9.302961 5.020597 0.261214
v -9.372953 5.020597 0.270429
v -9.442945 5.020597 0.261214
v -9.508168 5.020597 0.234198
v -9.564176 5.020597 0.191222
v -9.607152 5.020597 0.135214
v -9.634168 5.020597 0.069992
v -9.643382 5.020597 -0.000000
v -9.634168 5.020597 -0.069992
v -9.607152 5.020597 -0.135214
v -9.564176 5.020597 -0.191222
v -9.508168 5.020597 -0.234198
v -9.442945 5.020597 -0.261214
v -9.363944 -0.002386 -0.651911
v -9.212889 -0.002363 -0.632034
v -9.100595 -0.013614 -0.577461
v -9.022345 -0.005884 -0.353572
v -8.794689 -0.009692 -0.298217
v -8.739221 -0.000429 -0.169797
v -8.723042 -0.009692 -0.030825
v -8.894050 -0.005281 0.134526
v -8.845670 -0.012289 0.361885
v -8.917700 -0.001724 0.467230
v -9.039473 -0.001724 0.560669
v -9.159870 -0.012289 0.602980
v -9.365504 -0.005827 0.490406
v -9.590426 -0.014474 0.599522
v -9.706858 -0.002787 0.559696
v -9.827167 -0.002781 0.467383
v -9.895769 -0.014474 0.365224
v -9.845891 -0.006427 0.119585
v -10.006421 -0.016453 -0.059599
v -9.999249 -0.003802 -0.178326
v -9.941898 -0.003770 -0.316819
v -9.863005 -0.016453 -0.405838
v -9.611562 -0.006454 -0.428444
v -9.486533 -0.013615 -0.628271
v -9.361440 -0.089813 -0.650164
v -9.215750 -0.089813 -0.630996
v -9.114049 -0.089813 -0.579086
v -9.064888 -0.039469 -0.306472
v -8.792717 -0.089813 -0.290835
v -8.739786 -0.089813 -0.169642
v -8.725157 -0.089813 -0.037969
v -8.953465 -0.039293 0.111991
v -8.855884 -0.089813 0.369723
v -8.920525 -0.089813 0.467735
v -9.038254 -0.089813 0.558072
v -9.149656 -0.089813 0.595142
v -9.364254 -0.039179 0.424940
v -9.601458 -0.089813 0.590792
v -9.708195 -0.089813 0.556825
v -9.824050 -0.089813 0.467931
v -9.884481 -0.089813 0.373571
v -9.779260 -0.039164 0.106814
v -10.000510 -0.089813 -0.073846
v -9.996615 -0.089813 -0.180542
v -9.941601 -0.089813 -0.313403
v -9.868653 -0.089813 -0.391657
v -9.577992 -0.039376 -0.372558
v -9.472962 -0.089813 -0.626479
v -9.362443 -0.115479 -0.581239
v -9.232635 -0.115484 -0.564143
v -9.133592 -0.112263 -0.524444
v -9.116437 -0.082072 -0.251033
v -8.850007 -0.113548 -0.264364
v -8.808607 -0.116164 -0.151203
v -8.788297 -0.113495 -0.031484
v -9.025290 -0.082070 0.089042
v -8.901799 -0.112727 0.332567
v -8.969069 -0.115710 0.417855
v -9.073869 -0.115710 0.498271
v -9.173662 -0.112727 0.541175
v -9.364818 -0.082047 0.349393
v -9.576324 -0.111989 0.539221
v -9.673048 -0.115334 0.498007
v -9.776326 -0.115335 0.418757
v -9.841202 -0.111980 0.335792
v -9.704586 -0.082033 0.088844
v -9.946503 -0.111411 -0.062802
v -9.931716 -0.114983 -0.161981
v -9.882571 -0.114989 -0.280608
v -9.821909 -0.111363 -0.361637
v -9.540602 -0.082049 -0.306692
v -9.467688 -0.112308 -0.568923
v -9.365339 -0.104385 -0.517692
v -9.246299 -0.104386 -0.502012
v -9.148067 -0.103162 -0.467908
v -9.146938 -0.074653 -0.220439
v -8.908017 -0.103661 -0.241682
v -8.871914 -0.104655 -0.134243
v -8.849636 -0.103641 -0.022516
v -9.066998 -0.074653 0.077898
v -8.943717 -0.103343 0.290939
v -9.012321 -0.104476 0.370753
v -9.108171 -0.104476 0.444302
v -9.203022 -0.103343 0.489911
v -9.365336 -0.074653 0.306821
v -9.546204 -0.103056 0.489708
v -9.638795 -0.104326 0.444667
v -9.733666 -0.104326 0.371868
v -9.801169 -0.103052 0.293970
v -9.663674 -0.074653 0.077898
v -9.891803 -0.102832 -0.044727
v -9.871882 -0.104189 -0.142570
v -9.826546 -0.104190 -0.252007
v -9.770881 -0.102812 -0.335607
v -9.519768 -0.074653 -0.269523
v -9.468602 -0.103180 -0.510348
v -9.368930 -0.059301 -0.455635
v -9.258904 -0.059300 -0.441148
v -9.162971 -0.060768 -0.408499
v -9.173079 -0.035993 -0.194298
v -8.967209 -0.060223 -0.219173
v -8.932840 -0.059016 -0.117923
v -8.911950 -0.060229 -0.013072
v -9.102709 -0.035993 0.068330
v -8.986753 -0.060582 0.247288
v -9.053769 -0.059204 0.324532
v -9.142091 -0.059204 0.392303
v -9.234047 -0.060582 0.437044
v -9.365336 -0.035993 0.269851
v -9.514280 -0.060890 0.437497
v -9.604533 -0.059364 0.392759
v -9.692394 -0.059364 0.325342
v -9.758967 -0.060891 0.249752
v -9.627964 -0.035993 0.068330
v -9.833076 -0.061156 -0.025222
v -9.812847 -0.059507 -0.122563
v -9.770670 -0.059508 -0.224399
v -9.716193 -0.061164 -0.307523
v -9.501283 -0.035993 -0.237506
v -9.470061 -0.060764 -0.448903
v -9.371997 -0.024432 -0.391917
v -9.272440 -0.024433 -0.378812
v -9.181983 -0.025763 -0.345720
v -9.198171 -0.015325 -0.169207
v -9.028449 -0.025385 -0.193873
v -8.994503 -0.024295 -0.101404
v -8.977640 -0.025393 -0.004366
v -9.136984 -0.015325 0.059146
v -9.034774 -0.025631 0.203351
v -9.096569 -0.024385 0.277656
v -9.176291 -0.024385 0.338829
v -9.264058 -0.025631 0.379287
v -9.365336 -0.015325 0.234367
v -9.482723 -0.025847 0.379626
v -9.569825 -0.024465 0.339002
v -9.649451 -0.024466 0.277905
v -9.711236 -0.025849 0.204291
v -9.593689 -0.015325 0.059146
v -9.768522 -0.026025 -0.008406
v -9.751551 -0.024533 -0.102561
v -9.713191 -0.024536 -0.195191
v -9.658649 -0.026036 -0.273766
v -9.483541 -0.015325 -0.206776
v -9.467947 -0.025757 -0.383347
v -9.372953 0.022641 -0.320755
v -9.289936 0.022641 -0.309826
v -9.212576 0.022641 -0.277782
v -9.227621 0.012773 -0.139757
v -9.095171 0.022641 -0.160378
v -9.063128 0.022641 -0.083018
v -9.052198 0.022641 -0.000000
v -9.177213 0.012773 0.048367
v -9.095171 0.022641 0.160378
v -9.146145 0.022641 0.226808
v -9.212576 0.022641 0.277782
v -9.289936 0.022641 0.309826
v -9.365336 0.012773 0.192719
v -9.455971 0.022641 0.309826
v -9.533331 0.022641 0.277782
v -9.599762 0.022641 0.226808
v -9.650736 0.022641 0.160378
v -9.553460 0.012773 0.048367
v -9.693708 0.022641 -0.000000
v -9.682779 0.022641 -0.083018
v -9.650736 0.022641 -0.160378
v -9.599762 0.022641 -0.226808
v -9.462717 0.012773 -0.170708
v -9.455971 0.022641 -0.309826
v -9.372953 0.063809 -0.258890
v -9.305948 0.063809 -0.250068
v -9.243508 0.063809 -0.224205
v -9.242564 0.037770 -0.125343
v -9.148748 0.063809 -0.129445
v -9.122885 0.063809 -0.067006
v -9.114063 0.063809 -0.000000
v -9.197362 0.037770 0.043355
v -9.148748 0.063809 0.129445
v -9.189891 0.063809 0.183063
v -9.243508 0.063809 0.224205
v -9.305948 0.063809 0.250068
v -9.366059 0.037770 0.172802
v -9.439959 0.063809 0.250068
v -9.502398 0.063809 0.224205
v -9.556016 0.063809 0.183063
v -9.597158 0.063809 0.129445
v -9.534758 0.037770 0.043355
v -9.631844 0.063809 -0.000000
v -9.623022 0.063809 -0.067006
v -9.597158 0.063809 -0.129445
v -9.556016 0.063809 -0.183063
v -9.453384 0.037770 -0.153098
v -9.439959 0.063809 -0.250068
v -9.372953 0.095227 -0.203274
v -9.320342 0.095227 -0.196347
v -9.271317 0.095227 -0.176040
v -9.253831 0.056847 -0.114650
v -9.196913 0.095227 -0.101637
v -9.176606 0.095227 -0.052611
v -9.169680 0.095227 -0.000000
v -9.212465 0.056847 0.039729
v -9.196913 0.095227 0.101637
v -9.229218 0.095227 0.143736
v -9.271317 0.095227 0.176040
v -9.320342 0.095227 0.196347
v -9.366844 0.056847 0.158188
v -9.425565 0.095227 0.196347
v -9.474590 0.095227 0.176040
v -9.516689 0.095227 0.143736
v -9.548994 0.095227 0.101637
v -9.521223 0.056847 0.039729
v -9.576227 0.095227 -0.000000
v -9.569301 0.095227 -0.052611
v -9.548994 0.095227 -0.101637
v -9.516689 0.095227 -0.143736
v -9.446757 0.056847 -0.140049
v -9.425565 0.095227 -0.196347
v -9.372953 0.062704 -0.146063
v -9.335150 0.062704 -0.141086
v -9.299922 0.062704 -0.126494
v -9.269671 0.062704 -0.103282
v -9.246459 0.062704 -0.073032
v -9.231867 0.062704 -0.037804
v -9.226891 0.062704 -0.000000
v -9.231867 0.062704 0.037804
v -9.246459 0.062704 0.073032
v -9.269671 0.062704 0.103282
v -9.299922 0.062704 0.126494
v -9.335150 0.062704 0.141086
v -9.372953 0.062704 0.146063
v -9.410757 0.062704 0.141086
v -9.445985 0.062704 0.126494
v -9.476235 0.062704 0.103282
v -9.499448 0.062704 0.073032
v -9.514040 0.062704 0.037804
v -9.519016 0.062704 -0.000000
v -9.514040 0.062704 -0.037804
v -9.499448 0.062704 -0.073032
v -9.476235 0.062704 -0.103282
v -9.445985 0.062704 -0.126494
v -9.410757 0.062704 -0.141086
v -9.372953 0.037415 -0.095336
v -9.348279 0.037415 -0.092087
v -9.325286 0.037415 -0.082563
v -9.305541 0.037415 -0.067413
v -9.290390 0.037415 -0.047668
v -9.280866 0.037415 -0.024675
v -9.277617 0.037415 -0.000000
v -9.280866 0.037415 0.024675
v -9.290390 0.037415 0.047668
v -9.305541 0.037415 0.067413
v -9.325286 0.037415 0.082563
v -9.348279 0.037415 0.092087
v -9.372953 0.037415 0.095336
v -9.397628 0.037415 0.092087
v -9.420621 0.037415 0.082563
v -9.440366 0.037415 0.067413
v -9.455517 0.037415 0.047668
v -9.465041 0.037415 0.024675
v -9.468289 0.037415 -0.000000
v -9.465041 0.037415 -0.024675
v -9.455517 0.037415 -0.047668
v -9.440366 0.037415 -0.067413
v -9.420621 0.037415 -0.082563
v -9.397628 0.037415 -0.092087
v -9.372953 0.410118 -0.658195
v -9.202600 0.410118 -0.635768
v -9.043856 0.410118 -0.570014
v -8.919420 0.407459 -0.454194
v -8.802940 0.410118 -0.329097
v -8.737185 0.410118 -0.170353
v -8.714759 0.410118 -0.000000
v -8.753085 0.407459 0.166577
v -8.802940 0.410118 0.329097
v -8.907539 0.410118 0.465414
v -9.043856 0.410118 0.570014
v -9.202600 0.410118 0.635768
v -9.373857 0.407459 0.642912
v -9.543306 0.410118 0.635768
v -9.702051 0.410118 0.570014
v -9.838367 0.410118 0.465414
v -9.942966 0.410118 0.329097
v -9.994628 0.407459 0.166577
v -10.031148 0.410118 -0.000000
v -10.008721 0.410118 -0.170353
v -9.942966 0.410118 -0.329097
v -9.838367 0.410118 -0.465414
v -9.695191 0.407459 -0.556326
v -9.543306 0.410118 -0.635768
v -9.135431 5.022552 0.003324
v -9.176317 5.024407 0.075406
v -9.231612 5.025184 0.141341
v -9.297547 5.024407 0.196636
v -9.369629 5.022552 0.237522
v -9.179017 5.024791 -0.067278
v -9.233318 5.029636 0.004420
v -9.297959 5.031919 0.074994
v -9.368533 5.029636 0.139635
v -9.440231 5.024791 0.193936
v -9.237740 5.025824 -0.135214
v -9.302961 5.032357 -0.069992
v -9.372953 5.035751 -0.000000
v -9.442945 5.032358 0.069992
v -9.508168 5.025824 0.135214
v -9.305676 5.024791 -0.193936
v -9.377374 5.029636 -0.139635
v -9.447948 5.031919 -0.074994
v -9.512589 5.029636 -0.004420
v -9.566890 5.024792 0.067278
v -9.376278 5.022552 -0.237522
v -9.448359 5.024407 -0.196636
v -9.514295 5.025184 -0.141341
v -9.569590 5.024407 -0.075406
v -9.610476 5.022552 -0.003324
vn -0.0030 -0.0043 -1.0000
vn -0.0000 0.1547 -0.9880
vn 0.2557 0.1547 -0.9543
vn 0.2617 -0.0043 -0.9651
vn 0.5049 0.1476 -0.8505
vn 0.5661 -0.0465 -0.8230
vn 0.7001 0.1399 -0.7002
vn 0.7011 -0.0804 -0.7085
vn 0.8504 0.1475 -0.5050
vn 0.8227 -0.0406 -0.5670
vn 0.9543 0.1547 -0.2557
vn 0.9659 -0.0018 -0.2588
vn 0.9890 0.1475 0.0121
vn 0.9960 -0.0405 0.0795
vn 0.9564 0.1399 0.2563
vn 0.9616 -0.0801 0.2624
vn 0.8625 0.1476 0.4841
vn 0.9019 -0.0461 0.4295
vn 0.6986 0.1547 0.6986
vn 0.7091 -0.0041 0.7051
vn 0.4940 0.1547 0.8556
vn 0.4976 -0.0041 0.8674
vn 0.2450 0.1480 0.9582
vn 0.1812 -0.0474 0.9823
vn -0.0000 0.1408 0.9900
vn -0.0009 -0.0859 0.9963
vn -0.2451 0.1481 0.9581
vn -0.1814 -0.0481 0.9822
vn -0.4940 0.1547 0.8556
vn -0.4973 -0.0045 0.8676
vn -0.6986 0.1547 0.6986
vn -0.7093 -0.0045 0.7049
vn -0.8618 0.1483 0.4851
vn -0.9014 -0.0482 0.4302
vn -0.9562 0.1415 0.2562
vn -0.9624 -0.0872 0.2573
vn -0.9889 0.1483 0.0108
vn -0.9957 -0.0495 0.0787
vn -0.9543 0.1547 -0.2557
vn -0.9668 -0.0049 -0.2556
vn -0.8556 0.1547 -0.4940
vn -0.8643 -0.0049 -0.5029
vn -0.6913 0.1481 -0.7072
vn -0.6481 -0.0490 -0.7600
vn -0.4950 0.1408 -0.8574
vn -0.4991 -0.0869 -0.8622
vn 0.4937 0.1588 -0.8550
vn 0.6981 0.1588 -0.6981
vn -0.2669 0.1480 -0.9523
vn -0.3344 -0.0481 -0.9412
vn 0.9310 -0.1660 0.3252
vn 0.7154 -0.0255 0.6983
vn 0.7220 -0.0352 0.6910
vn 0.9360 -0.2767 0.2175
vn 0.2555 0.1588 0.9537
vn 0.4937 0.1588 0.8550
vn 0.4978 -0.0935 0.8622
vn 0.2577 -0.0935 0.9617
vn 0.9537 0.1588 0.2555
vn 0.8550 0.1588 0.4937
vn -0.0000 0.1588 -0.9873
vn 0.2555 0.1588 -0.9537
vn -0.0000 0.1588 0.9873
vn -0.2555 0.1588 0.9537
vn -0.9537 0.1588 0.2555
vn -0.9873 0.1588 -0.0000
vn -0.4937 0.1588 -0.8550
vn -0.2555 0.1588 -0.9537
vn 0.9537 0.1588 -0.2555
vn 0.9873 0.1588 -0.0000
vn -0.6981 0.1588 0.6981
vn -0.8550 0.1588 0.4937
vn -0.8550 0.1588 -0.4937
vn -0.6981 0.1588 -0.6981
vn 0.8550 0.1588 -0.4937
vn 0.6981 0.1588 0.6981
vn -0.4937 0.1588 0.8550
vn -0.9537 0.1588 -0.2555
vn -0.7040 -0.0935 0.7040
vn -0.4978 -0.0935 0.8622
vn -0.4979 -0.0921 0.8623
vn -0.7041 -0.0921 0.7041
vn 0.7040 -0.0935 -0.7040
vn 0.8622 -0.0935 -0.4978
vn -0.9956 -0.0935 -0.0000
vn -0.9617 -0.0935 -0.2577
vn -0.0000 -0.0935 0.9956
vn 0.9617 -0.0935 -0.2577
vn -0.8622 -0.0935 -0.4978
vn -0.2577 -0.0935 0.9617
vn 0.9956 -0.0935 -0.0000
vn -0.7040 -0.0935 -0.7040
vn 0.9617 -0.0935 0.2577
vn -0.4978 -0.0935 -0.8622
vn 0.8622 -0.0935 0.4978
vn -0.2577 -0.0935 -0.9617
vn -0.0000 -0.0935 -0.9956
vn 0.2577 -0.0935 -0.9617
vn -0.8622 -0.0935 0.4978
vn 0.7040 -0.0935 0.7040
vn 0.4978 -0.0935 -0.8622
vn -0.9617 -0.0935 0.2577
vn 0.8623 -0.0921 -0.4979
vn 0.7041 -0.0921 -0.7041
vn 0.6305 0.4526 -0.6305
vn 0.7722 0.4526 -0.4459
vn 0.9618 -0.0921 0.2577
vn 0.8623 -0.0921 0.4979
vn -0.4979 -0.0921 -0.8623
vn -0.2577 -0.0921 -0.9618
vn -0.0000 -0.0921 -0.9958
vn 0.2577 -0.0921 -0.9618
vn -0.8623 -0.0921 0.4979
vn 0.7041 -0.0921 0.7041
vn 0.4979 -0.0921 -0.8623
vn -0.9618 -0.0921 0.2577
vn 0.4979 -0.0921 0.8623
vn -0.9958 -0.0921 -0.0000
vn 0.2577 -0.0921 0.9618
vn -0.9618 -0.0921 -0.2577
vn -0.0000 -0.0921 0.9958
vn 0.9618 -0.0921 -0.2577
vn -0.8623 -0.0921 -0.4979
vn -0.2577 -0.0921 0.9618
vn 0.9958 -0.0921 -0.0000
vn -0.7041 -0.0921 -0.7041
vn 0.7722 0.4526 0.4459
vn 0.8613 0.4526 0.2308
vn 0.8448 0.4848 0.2264
vn 0.7574 0.4848 0.4373
vn -0.8917 0.4526 -0.0000
vn -0.8613 0.4526 -0.2308
vn 0.2308 0.4526 0.8613
vn -0.0000 0.4526 0.8917
vn 0.8613 0.4526 -0.2308
vn -0.7722 0.4526 -0.4459
vn -0.2308 0.4526 0.8613
vn 0.8917 0.4526 -0.0000
vn -0.6305 0.4526 -0.6305
vn -0.4459 0.4526 0.7723
vn -0.4459 0.4526 -0.7723
vn -0.6305 0.4526 0.6305
vn -0.2308 0.4526 -0.8613
vn -0.0000 0.4526 -0.8917
vn 0.2308 0.4526 -0.8613
vn -0.7722 0.4526 0.4459
vn 0.6305 0.4526 0.6305
vn 0.4459 0.4526 -0.7722
vn -0.8613 0.4526 0.2308
vn 0.4459 0.4526 0.7723
vn -0.2264 0.4848 0.8448
vn -0.0000 0.4848 0.8746
vn -0.0000 -0.2395 0.9709
vn -0.2513 -0.2395 0.9378
vn -0.4373 0.4848 -0.7574
vn -0.2264 0.4848 -0.8448
vn -0.0000 0.4848 -0.8746
vn 0.2264 0.4848 -0.8448
vn -0.6184 0.4848 0.6184
vn -0.7574 0.4848 0.4373
vn 0.6184 0.4848 0.6184
vn 0.4373 0.4848 -0.7574
vn -0.8448 0.4848 0.2264
vn 0.4373 0.4848 0.7574
vn 0.6184 0.4848 -0.6184
vn -0.8746 0.4848 -0.0000
vn 0.2264 0.4848 0.8448
vn 0.7574 0.4848 -0.4373
vn -0.8448 0.4848 -0.2264
vn 0.8448 0.4848 -0.2264
vn -0.7574 0.4848 -0.4373
vn 0.8746 0.4848 -0.0000
vn -0.6184 0.4848 -0.6184
vn -0.4373 0.4848 0.7574
vn 0.4854 -0.2395 -0.8408
vn 0.2513 -0.2395 -0.9378
vn 0.2446 -0.3273 -0.9127
vn 0.4725 -0.3273 -0.8183
vn 0.9378 -0.2396 -0.2513
vn 0.9709 -0.2395 -0.0000
vn -0.8408 -0.2395 -0.4854
vn -0.6865 -0.2395 -0.6865
vn -0.4854 -0.2395 0.8408
vn 0.9378 -0.2395 0.2513
vn -0.4854 -0.2395 -0.8408
vn -0.6865 -0.2395 0.6865
vn 0.8408 -0.2395 0.4854
vn -0.2513 -0.2395 -0.9378
vn -0.0000 -0.2395 -0.9709
vn -0.8408 -0.2395 0.4854
vn 0.6865 -0.2395 0.6865
vn -0.9378 -0.2395 0.2513
vn 0.4854 -0.2395 0.8408
vn 0.6865 -0.2395 -0.6865
vn -0.9709 -0.2395 -0.0000
vn 0.2513 -0.2395 0.9378
vn 0.8408 -0.2395 -0.4854
vn -0.9378 -0.2395 -0.2513
vn 0.9449 -0.3273 -0.0000
vn 0.9127 -0.3274 -0.2446
vn 0.9658 -0.0173 -0.2588
vn 0.9998 -0.0173 -0.0000
vn -0.8183 -0.3273 0.4725
vn -0.9127 -0.3273 0.2446
vn 0.6682 -0.3273 0.6682
vn 0.4725 -0.3273 0.8183
vn 0.6682 -0.3273 -0.6682
vn -0.9449 -0.3273 -0.0000
vn 0.2446 -0.3273 0.9127
vn 0.8183 -0.3273 -0.4725
vn -0.9127 -0.3273 -0.2446
vn -0.0000 -0.3273 0.9449
vn -0.8183 -0.3273 -0.4725
vn -0.2446 -0.3273 0.9127
vn -0.6681 -0.3273 -0.6682
vn -0.4725 -0.3273 0.8183
vn 0.9127 -0.3273 0.2446
vn -0.4725 -0.3273 -0.8183
vn -0.6681 -0.3273 0.6682
vn 0.8183 -0.3273 0.4725
vn -0.2446 -0.3273 -0.9127
vn -0.0000 -0.3273 -0.9449
vn -0.9658 -0.0173 0.2588
vn -0.8659 -0.0173 0.4999
vn -0.8373 0.2553 0.4834
vn -0.9339 0.2553 0.2502
vn -0.8659 -0.0173 -0.4999
vn -0.7070 -0.0173 -0.7070
vn -0.2588 -0.0173 0.9658
vn -0.4999 -0.0173 0.8659
vn 0.9658 -0.0173 0.2588
vn -0.4999 -0.0173 -0.8659
vn -0.7070 -0.0173 0.7070
vn 0.8659 -0.0173 0.4999
vn -0.2588 -0.0173 -0.9658
vn -0.0000 -0.0173 -0.9998
vn 0.2588 -0.0173 -0.9658
vn 0.7070 -0.0173 0.7070
vn 0.4999 -0.0173 -0.8659
vn 0.4999 -0.0173 0.8659
vn 0.7070 -0.0173 -0.7070
vn -0.9998 -0.0173 -0.0000
vn 0.2588 -0.0173 0.9658
vn 0.8659 -0.0173 -0.4999
vn -0.9658 -0.0173 -0.2588
vn -0.0000 -0.0173 0.9998
vn 0.9669 0.2553 -0.0000
vn 0.9339 0.2553 -0.2502
vn 0.8982 0.3678 -0.2407
vn 0.9299 0.3678 -0.0000
vn 0.6837 0.2553 0.6837
vn 0.4834 0.2553 0.8373
vn 0.4834 0.2553 -0.8373
vn 0.6837 0.2553 -0.6837
vn -0.9669 0.2553 -0.0000
vn 0.2502 0.2553 0.9339
vn 0.8373 0.2553 -0.4834
vn -0.9339 0.2553 -0.2502
vn -0.0000 0.2553 0.9669
vn -0.8373 0.2553 -0.4834
vn -0.2502 0.2553 0.9339
vn -0.6837 0.2553 -0.6837
vn -0.4834 0.2553 0.8373
vn 0.9339 0.2553 0.2502
vn -0.4834 0.2553 -0.8373
vn -0.6837 0.2553 0.6837
vn 0.8373 0.2553 0.4834
vn -0.2502 0.2553 -0.9339
vn -0.0000 0.2553 -0.9669
vn 0.2502 0.2553 -0.9339
vn 0.4650 0.3678 0.8053
vn 0.6576 0.3678 0.6576
vn 0.6748 0.2989 0.6748
vn 0.4771 0.2989 0.8264
vn -0.8053 0.3678 -0.4650
vn -0.6576 0.3678 -0.6576
vn -0.2407 0.3678 0.8982
vn -0.4650 0.3678 0.8053
vn 0.8982 0.3678 0.2407
vn -0.4650 0.3678 -0.8053
vn -0.6576 0.3678 0.6576
vn 0.8053 0.3678 0.4650
vn -0.2407 0.3678 -0.8982
vn -0.0000 0.3678 -0.9299
vn 0.2407 0.3678 -0.8982
vn -0.8053 0.3678 0.4650
vn 0.4650 0.3678 -0.8053
vn -0.8982 0.3678 0.2407
vn 0.6576 0.3678 -0.6576
vn -0.9299 0.3678 -0.0000
vn 0.2407 0.3678 0.8982
vn 0.8053 0.3678 -0.4650
vn -0.8982 0.3678 -0.2407
vn -0.0000 0.3678 0.9299
vn -0.6748 0.2989 -0.6748
vn -0.8264 0.2989 -0.4771
vn -0.6467 -0.6651 -0.3734
vn -0.5280 -0.6651 -0.5280
vn 0.4771 0.2989 -0.8264
vn 0.6748 0.2989 -0.6748
vn -0.9218 0.2989 0.2470
vn -0.9543 0.2989 -0.0000
vn 0.2470 0.2989 0.9218
vn 0.8264 0.2989 -0.4771
vn -0.9218 0.2989 -0.2470
vn -0.0000 0.2989 0.9543
vn 0.9218 0.2989 -0.2470
vn -0.2470 0.2989 0.9218
vn 0.9543 0.2989 -0.0000
vn -0.4771 0.2989 0.8264
vn 0.9218 0.2989 0.2470
vn -0.4771 0.2989 -0.8264
vn -0.6748 0.2989 0.6748
vn 0.8264 0.2989 0.4771
vn -0.2470 0.2989 -0.9218
vn -0.0000 0.2989 -0.9543
vn 0.2470 0.2989 -0.9218
vn -0.8264 0.2989 0.4771
vn 0.3734 -0.6651 0.6467
vn 0.5280 -0.6651 0.5280
vn 0.5192 -0.6789 0.5192
vn 0.3671 -0.6789 0.6359
vn -0.1933 -0.6651 0.7213
vn -0.3734 -0.6651 0.6467
vn 0.7467 -0.6651 -0.0000
vn 0.7213 -0.6651 0.1933
vn -0.3734 -0.6651 -0.6467
vn -0.5280 -0.6651 0.5280
vn 0.6467 -0.6651 0.3734
vn -0.1933 -0.6651 -0.7213
vn -0.0000 -0.6651 -0.7467
vn 0.1933 -0.6651 -0.7213
vn -0.6467 -0.6651 0.3734
vn 0.3734 -0.6651 -0.6467
vn -0.7213 -0.6651 0.1933
vn 0.5280 -0.6651 -0.5280
vn -0.7467 -0.6651 -0.0000
vn 0.1933 -0.6651 0.7213
vn 0.6467 -0.6651 -0.3734
vn -0.7213 -0.6651 -0.1933
vn -0.0000 -0.6651 0.7467
vn 0.7213 -0.6651 -0.1933
vn -0.3671 -0.6789 0.6359
vn -0.1900 -0.6789 0.7092
vn -0.1901 0.6788 0.7093
vn -0.3672 0.6788 0.6359
vn 0.3671 -0.6789 -0.6359
vn 0.5192 -0.6789 -0.5192
vn -0.7092 -0.6789 0.1900
vn -0.7342 -0.6789 -0.0000
vn 0.1900 -0.6789 0.7092
vn 0.6359 -0.6789 -0.3671
vn -0.7092 -0.6789 -0.1900
vn -0.0000 -0.6789 0.7342
vn 0.7092 -0.6789 -0.1900
vn -0.6359 -0.6789 -0.3671
vn 0.7342 -0.6789 -0.0000
vn -0.5192 -0.6789 -0.5192
vn 0.7092 -0.6789 0.1900
vn -0.3671 -0.6789 -0.6359
vn -0.5192 -0.6789 0.5192
vn 0.6359 -0.6789 0.3671
vn -0.1900 -0.6789 -0.7092
vn -0.0000 -0.6789 -0.7342
vn 0.1900 -0.6789 -0.7092
vn -0.6359 -0.6789 0.3671
vn 0.5192 0.6788 -0.5192
vn 0.3672 0.6788 -0.6359
vn 0.3376 0.7376 -0.5848
vn 0.4775 0.7376 -0.4775
vn 0.7343 0.6788 -0.0000
vn 0.7093 0.6788 0.1901
vn -0.5192 0.6788 -0.5192
vn -0.3672 0.6788 -0.6359
vn -0.5192 0.6788 0.5192
vn 0.6359 0.6788 0.3672
vn -0.1901 0.6788 -0.7093
vn -0.0000 0.6788 -0.7343
vn 0.1901 0.6788 -0.7093
vn -0.6359 0.6788 0.3672
vn 0.5192 0.6788 0.5192
vn -0.7093 0.6788 0.1901
vn 0.3672 0.6788 0.6359
vn -0.7343 0.6788 -0.0000
vn 0.1901 0.6788 0.7093
vn 0.6359 0.6788 -0.3672
vn -0.7093 0.6788 -0.1901
vn -0.0000 0.6788 0.7343
vn 0.7093 0.6788 -0.1901
vn -0.6359 0.6788 -0.3672
vn -0.3376 0.7376 0.5848
vn -0.1748 0.7376 0.6522
vn -0.1930 0.6574 0.7284
vn -0.3751 0.6574 0.6535
vn -0.6522 0.7376 0.1748
vn -0.6752 0.7376 -0.0000
vn 0.3376 0.7376 0.5848
vn 0.1748 0.7376 0.6522
vn 0.5848 0.7376 -0.3376
vn -0.6522 0.7376 -0.1748
vn -0.0000 0.7376 0.6752
vn 0.6522 0.7376 -0.1748
vn -0.5848 0.7376 -0.3376
vn 0.6752 0.7376 -0.0000
vn -0.4775 0.7376 -0.4775
vn 0.6522 0.7376 0.1748
vn -0.3376 0.7376 -0.5848
vn -0.4775 0.7376 0.4775
vn 0.5848 0.7376 0.3376
vn -0.1748 0.7376 -0.6522
vn -0.0000 0.7376 -0.6752
vn 0.1748 0.7376 -0.6522
vn -0.5848 0.7376 0.3376
vn 0.4775 0.7376 0.4775
vn 0.7526 0.6585 -0.0000
vn 0.7280 0.6577 0.1934
vn -0.5326 0.6578 -0.5326
vn -0.3754 0.6577 -0.6531
vn -0.5327 0.6576 0.5327
vn 0.6531 0.6577 0.3754
vn -0.1934 0.6577 -0.7280
vn -0.0000 0.6585 -0.7526
vn 0.1930 0.6574 -0.7284
vn -0.6535 0.6574 0.3751
vn 0.5326 0.6578 0.5326
vn 0.3751 0.6574 -0.6535
vn -0.7284 0.6574 0.1930
vn 0.3754 0.6577 0.6531
vn 0.5327 0.6576 -0.5327
vn -0.7526 0.6585 -0.0000
vn 0.1934 0.6577 0.7280
vn 0.6535 0.6574 -0.3751
vn -0.7280 0.6577 -0.1934
vn -0.0000 0.6585 0.7526
vn 0.7284 0.6574 -0.1930
vn -0.6531 0.6577 -0.3754
vn -0.4777 -0.0398 0.8776
vn -0.7241 -0.0398 0.6885
vn -0.6075 -0.5548 0.5684
vn -0.3919 -0.5548 0.7339
vn -0.0717 -0.1757 0.9818
vn -0.4881 -0.0283 0.8723
vn 0.0268 -0.2978 0.9543
vn -0.9646 -0.1864 0.1864
vn -0.9692 -0.0306 -0.2446
vn -0.9718 -0.0434 -0.2317
vn -0.9083 -0.3115 0.2792
vn -0.4301 -0.1772 -0.8852
vn -0.0129 -0.0272 -0.9995
vn -0.0237 -0.0378 -0.9990
vn -0.5090 -0.2996 -0.8069
vn 0.2712 -0.0271 -0.9622
vn 0.6421 -0.1684 -0.7479
vn 0.6954 -0.2858 -0.6593
vn 0.2815 -0.0379 -0.9588
vn 0.9728 -0.1346 0.1883
vn 0.9117 -0.3145 0.2643
vn 0.8276 -0.5065 0.2419
vn 0.9227 -0.2467 0.2962
vn 0.0698 -0.1734 0.9824
vn -0.0007 -0.3462 0.9382
vn -0.0241 -0.5464 0.8372
vn -0.0408 -0.2934 0.9551
vn -0.9289 -0.1793 0.3240
vn -0.9021 -0.3576 0.2415
vn -0.7907 -0.5682 0.2278
vn -0.9251 -0.3104 0.2185
vn -0.5529 -0.1810 -0.8133
vn -0.4696 -0.3505 -0.8104
vn -0.4389 -0.5547 -0.7069
vn -0.4560 -0.3072 -0.8353
vn 0.7481 -0.1349 -0.6497
vn 0.9659 -0.0102 -0.2588
vn 0.9659 -0.0141 -0.2587
vn 0.6499 -0.2442 -0.7197
vn 0.4893 -0.0255 0.8717
vn 0.4806 -0.0352 0.8762
vn -0.7163 -0.0283 0.6972
vn -0.8582 -0.0306 -0.5123
vn -0.8510 -0.0436 -0.5234
vn 0.6552 -0.3156 -0.6864
vn 0.5774 -0.5103 -0.6374
vn 0.4264 -0.7592 -0.4917
vn 0.4886 -0.6163 -0.6176
vn -0.0025 -0.9380 -0.3465
vn 0.0023 -0.9999 -0.0101
vn 0.7730 -0.6202 0.1335
vn 0.6182 -0.7570 0.2115
vn -0.4509 -0.6319 -0.6304
vn -0.3505 -0.7638 -0.5419
vn 0.2402 -0.5545 -0.7967
vn -0.0256 -0.5544 -0.8319
vn -0.7542 -0.6427 0.1344
vn 0.6050 -0.5541 0.5718
vn 0.5936 -0.6277 -0.5036
vn -0.6187 -0.7695 0.1581
vn 0.3958 -0.5541 0.7323
vn -0.7256 -0.6357 0.2635
vn -0.0805 -0.6288 0.7734
vn -0.8110 -0.5548 -0.1858
vn -0.0312 -0.7618 0.6471
vn 0.8058 -0.5515 -0.2155
vn -0.7044 -0.5551 -0.4423
vn 0.0617 -0.6348 0.7702
vn 0.7297 -0.6200 0.2883
vn -0.3358 -0.6393 -0.6918
vn -0.1175 -0.9930 -0.0141
vn -0.1936 -0.9363 0.2931
vn -0.0017 -0.9999 0.0108
vn -0.2445 -0.9354 0.2556
vn 0.1046 -0.9941 -0.0278
vn -0.0929 -0.9930 -0.0733
vn 0.2224 -0.9410 0.2550
vn 0.1705 -0.9372 0.3042
vn 0.0603 -0.9412 -0.3325
vn -0.0447 -0.9932 0.1078
vn 0.0059 -1.0000 0.0075
vn -0.0090 -0.9999 -0.0115
vn -0.0926 -0.9932 0.0710
vn 0.3050 -0.9403 -0.1510
vn -0.3370 -0.9359 -0.1023
vn 0.0436 -0.9933 -0.1075
vn -0.0142 -0.9933 -0.1151
vn -0.3062 -0.9383 -0.1605
vn 0.0900 -0.9934 0.0715
vn 0.3386 -0.9406 -0.0240
vn -0.0093 -1.0000 -0.0005
vn 0.0458 -0.9934 0.1054
vn 0.2499 -0.9286 -0.2741
vn 0.2001 -0.9287 -0.3123
vn -0.2945 -0.9495 -0.1083
vn -0.6102 -0.7680 -0.1945
vn 0.1395 -0.9504 0.2782
vn 0.3585 -0.7470 0.5599
vn -0.0802 -0.9282 0.3633
vn -0.0167 -0.9282 0.3716
vn 0.2972 -0.9500 -0.0953
vn -0.2532 -0.9275 -0.2751
vn -0.1991 -0.9500 0.2406
vn 0.6496 -0.7406 -0.1720
vn -0.2002 -0.9275 -0.3157
vn -0.4302 -0.7671 0.4759
vn 0.3033 -0.9508 -0.0624
vn -0.0168 -0.9499 -0.3120
vn -0.2243 -0.9543 0.1973
vn 0.3498 -0.9299 0.1137
vn 0.0301 -0.7491 -0.6617
vn -0.3597 -0.9281 0.0961
vn 0.3278 -0.9298 0.1673
vn 0.0228 -0.9498 -0.3119
vn -0.2929 -0.9543 -0.0595
vn 0.1764 -0.9506 0.2554
vn -0.2641 -0.7686 0.5826
vn -0.4709 -0.7248 0.5029
vn 0.5067 -0.8488 0.1506
vn 0.5437 -0.7426 -0.3911
vn 0.0403 -0.6906 -0.7222
vn 0.2435 -0.7436 -0.6227
vn -0.5082 -0.8504 0.1360
vn 0.4649 -0.8487 0.2521
vn -0.2092 -0.7543 -0.6223
vn -0.5195 -0.7700 -0.3704
vn 0.1314 -0.7533 0.6444
vn 0.2771 -0.8467 -0.4542
vn -0.6572 -0.7270 -0.1988
vn 0.3990 -0.6842 0.6104
vn 0.3671 -0.8466 -0.3853
vn -0.6521 -0.7574 0.0333
vn 0.5223 -0.7428 0.4190
vn -0.1259 -0.8459 0.5182
vn -0.0125 -0.8460 0.5330
vn 0.6629 -0.7458 0.0663
vn -0.3701 -0.8447 -0.3867
vn -0.5799 -0.7580 0.2986
vn 0.7133 -0.6742 -0.1914
vn -0.2777 -0.8447 -0.4576
vn -0.5961 -0.8005 0.0616
vn -0.6489 -0.7350 -0.1965
vn 0.5172 -0.7786 0.3554
vn 0.3946 -0.7046 0.5898
vn -0.1279 -0.8594 0.4950
vn -0.0046 -0.8594 0.5113
vn 0.6156 -0.7807 0.1070
vn 0.3577 -0.8598 -0.3644
vn -0.3592 -0.8588 -0.3653
vn -0.5487 -0.7993 0.2452
vn 0.6932 -0.6962 -0.1863
vn -0.2599 -0.8588 -0.4415
vn -0.4650 -0.7337 0.4955
vn 0.4817 -0.7781 -0.4030
vn 0.2690 -0.7803 -0.5645
vn -0.2212 -0.8100 0.5431
vn 0.4904 -0.8607 0.1367
vn 0.0469 -0.7085 -0.7042
vn -0.4895 -0.8621 0.1312
vn 0.4435 -0.8607 0.2501
vn -0.2277 -0.7940 -0.5637
vn -0.4631 -0.8101 -0.3597
vn 0.0845 -0.7918 0.6048
vn 0.2594 -0.8598 -0.4399
vn 0.5315 -0.8347 0.1442
vn 0.4870 -0.7473 -0.4521
vn 0.0562 -0.6612 -0.7481
vn 0.3203 -0.7451 -0.5849
vn -0.5307 -0.8356 0.1422
vn -0.2105 -0.7654 0.6082
vn 0.4778 -0.8347 0.2738
vn -0.2724 -0.7621 -0.5873
vn -0.4864 -0.7654 -0.4215
vn 0.0571 -0.7610 0.6462
vn 0.2770 -0.8344 -0.4765
vn -0.6991 -0.6814 -0.2167
vn 0.4232 -0.6601 0.6206
vn 0.3886 -0.8344 -0.3909
vn -0.6340 -0.7668 0.1003
vn 0.5710 -0.7442 0.3465
vn -0.1412 -0.8342 0.5330
vn -0.0015 -0.8342 0.5514
vn 0.6466 -0.7485 0.1470
vn -0.3891 -0.8340 -0.3911
vn -0.6002 -0.7661 0.2299
vn 0.7328 -0.6515 -0.1965
vn -0.2771 -0.8340 -0.4771
vn -0.4974 -0.6810 0.5374
vn -0.6310 -0.7667 0.1183
vn -0.6966 -0.6836 -0.2179
vn 0.5852 -0.7410 0.3294
vn 0.4235 -0.6648 0.6154
vn -0.1360 -0.8508 0.5076
vn -0.0000 -0.8508 0.5255
vn 0.6434 -0.7472 0.1665
vn 0.3716 -0.8508 -0.3716
vn -0.3716 -0.8508 -0.3716
vn -0.6056 -0.7667 0.2131
vn 0.7296 -0.6554 -0.1955
vn -0.2627 -0.8508 -0.4551
vn -0.4943 -0.6836 0.5370
vn 0.4740 -0.7472 -0.4659
vn 0.3421 -0.7410 -0.5778
vn -0.1931 -0.7560 0.6254
vn 0.5076 -0.8508 0.1360
vn 0.0591 -0.6648 -0.7447
vn -0.5076 -0.8508 0.1360
vn 0.4551 -0.8508 0.2627
vn -0.2874 -0.7630 -0.5790
vn -0.4799 -0.7560 -0.4451
vn 0.0406 -0.7630 0.6451
vn 0.2627 -0.8508 -0.4551
vn 0.0806 -0.9884 -0.1285
vn 0.3626 -0.9105 -0.1989
vn -0.0383 -0.9992 0.0103
vn 0.0971 -0.9248 0.3678
vn 0.0344 -0.9992 0.0198
vn 0.0383 -0.9992 0.0103
vn -0.3132 -0.9306 -0.1895
vn -0.0998 -0.9248 -0.3671
vn -0.1765 -0.9306 0.3207
vn 0.0198 -0.9992 -0.0343
vn -0.1389 -0.9873 -0.0771
vn 0.1341 -0.9884 0.0709
vn 0.0280 -0.9992 -0.0280
vn -0.2588 -0.9340 0.2461
vn 0.4135 -0.9105 -0.0091
vn -0.0103 -0.9992 0.0383
vn -0.0000 -0.9992 0.0397
vn 0.2808 -0.9159 0.2869
vn -0.0280 -0.9992 -0.0280
vn -0.3472 -0.9340 -0.0837
vn 0.1038 -0.9942 -0.0278
vn -0.0198 -0.9992 -0.0343
vn -0.0818 -0.9873 0.1362
vn 0.0997 -0.9159 -0.3888
vn -0.0342 -0.8983 -0.4381
vn -0.2082 -0.9253 -0.3171
vn 0.1222 -0.8815 -0.4560
vn -0.0000 -0.8815 -0.4721
vn -0.3538 -0.8946 0.2729
vn -0.3338 -0.8815 0.3338
vn 0.3338 -0.8815 0.3338
vn 0.3389 -0.8974 0.2825
vn 0.1522 -0.8974 -0.4141
vn -0.3772 -0.9206 0.1011
vn 0.2361 -0.8815 0.4089
vn 0.2492 -0.9330 -0.2596
vn -0.4429 -0.8946 -0.0594
vn 0.1895 -0.8983 0.3965
vn 0.4146 -0.8991 -0.1403
vn -0.4560 -0.8815 -0.1222
vn -0.0218 -0.9253 0.3787
vn 0.4560 -0.8815 -0.1222
vn -0.4089 -0.8815 -0.2361
vn -0.1721 -0.8946 0.4123
vn 0.4292 -0.8991 -0.0858
vn -0.3552 -0.8946 -0.2711
vn -0.2361 -0.8815 0.4089
vn 0.3457 -0.9330 0.1002
vn -0.0000 -0.9690 0.2471
vn 0.0640 -0.9690 0.2387
vn 0.2387 -0.9690 -0.0640
vn 0.2140 -0.9690 -0.1236
vn -0.2140 -0.9690 -0.1236
vn -0.2387 -0.9690 -0.0640
vn -0.0640 -0.9690 0.2387
vn 0.2471 -0.9690 -0.0000
vn -0.1747 -0.9690 -0.1747
vn -0.1236 -0.9690 0.2140
vn 0.2387 -0.9690 0.0640
vn -0.1236 -0.9690 -0.2140
vn -0.1747 -0.9690 0.1747
vn 0.2140 -0.9690 0.1236
vn -0.0640 -0.9690 -0.2387
vn 0.0640 -0.9690 -0.2387
vn -0.0000 -0.9690 -0.2471
vn -0.2140 -0.9690 0.1236
vn 0.1747 -0.9690 0.1747
vn 0.1236 -0.9690 -0.2140
vn -0.2387 -0.9690 0.0640
vn 0.1236 -0.9690 0.2140
vn 0.1747 -0.9690 -0.1747
vn -0.2471 -0.9690 -0.0000
vn 0.0640 0.9979 0.0005
vn 0.0618 0.9979 -0.0200
vn 0.0446 0.9980 -0.0446
vn 0.0200 0.9979 -0.0618
vn -0.0005 0.9979 -0.0640
vn 0.0612 0.9979 0.0216
vn 0.0599 0.9982 0.0014
vn 0.0335 0.9989 -0.0335
vn -0.0014 0.9982 -0.0599
vn -0.0216 0.9979 -0.0612
vn 0.0449 0.9980 0.0449
vn 0.0349 0.9988 0.0349
vn -0.0000 1.0000 -0.0000
vn -0.0349 0.9988 -0.0349
vn -0.0449 0.9980 -0.0449
vn 0.0216 0.9979 0.0612
vn 0.0014 0.9982 0.0599
vn -0.0335 0.9989 0.0335
vn -0.0599 0.9982 -0.0014
vn -0.0611 0.9979 -0.0216
vn 0.0005 0.9979 0.0640
vn -0.0200 0.9979 0.0618
vn -0.0446 0.9980 0.0446
vn -0.0619 0.9979 0.0200
vn -0.0640 0.9979 -0.0005
vt 0.537494 0.187622
vt 0.484966 0.187622
vt 0.484966 0.156815
vt 0.537494 0.156815
vt 0.484966 0.126008
vt 0.537494 0.126008
vt 0.484966 0.095233
vt 0.537494 0.095233
vt 0.484966 0.064441
vt 0.537494 0.064441
vt 0.484966 0.033634
vt 0.537494 0.033634
vt 0.484966 0.002827
vt 0.537494 0.002827
vt 0.537494 0.741965
vt 0.484966 0.741965
vt 0.484966 0.711173
vt 0.537494 0.711173
vt 0.484966 0.680397
vt 0.537494 0.680397
vt 0.484966 0.649590
vt 0.537494 0.649590
vt 0.484966 0.618784
vt 0.537494 0.618784
vt 0.484966 0.587977
vt 0.537494 0.587977
vt 0.484966 0.557177
vt 0.537494 0.557177
vt 0.484966 0.526408
vt 0.537494 0.526408
vt 0.484966 0.495601
vt 0.537494 0.495601
vt 0.484966 0.464795
vt 0.537494 0.464795
vt 0.484966 0.433988
vt 0.537494 0.433988
vt 0.484966 0.403203
vt 0.537494 0.403203
vt 0.484966 0.372418
vt 0.537494 0.372418
vt 0.484966 0.341611
vt 0.537494 0.341611
vt 0.484966 0.310804
vt 0.537494 0.310804
vt 0.484966 0.279998
vt 0.537494 0.279998
vt 0.484966 0.249229
vt 0.537494 0.249229
vt 0.419106 0.126008
vt 0.419106 0.095233
vt 0.484966 0.218429
vt 0.537494 0.218429
vt 0.394004 0.896082
vt 0.410589 0.872721
vt 0.426255 0.888844
vt 0.413846 0.907635
vt 0.419106 0.587977
vt 0.419106 0.618784
vt 0.369613 0.618784
vt 0.369613 0.587977
vt 0.419106 0.711173
vt 0.419106 0.680397
vt 0.419106 0.187622
vt 0.419106 0.156815
vt 0.419106 0.557177
vt 0.419106 0.526408
vt 0.419106 0.403203
vt 0.419106 0.372418
vt 0.419106 0.249229
vt 0.419106 0.218429
vt 0.419106 0.033634
vt 0.419106 0.002827
vt 0.419106 0.464795
vt 0.419106 0.433988
vt 0.419106 0.310804
vt 0.419106 0.279998
vt 0.419106 0.064441
vt 0.419106 0.649590
vt 0.419106 0.495601
vt 0.419106 0.341611
vt 0.419106 0.741965
vt 0.369613 0.464795
vt 0.369613 0.495601
vt 0.239085 0.495601
vt 0.239085 0.464795
vt 0.369613 0.095233
vt 0.369613 0.064441
vt 0.369613 0.372418
vt 0.369613 0.341611
vt 0.369613 0.557177
vt 0.369613 0.033634
vt 0.369613 0.310804
vt 0.369613 0.526408
vt 0.369613 0.002827
vt 0.369613 0.279998
vt 0.369613 0.741965
vt 0.369613 0.711173
vt 0.369613 0.249229
vt 0.369613 0.680397
vt 0.369613 0.218429
vt 0.369613 0.187622
vt 0.369613 0.156815
vt 0.369613 0.433988
vt 0.369613 0.649590
vt 0.369613 0.126008
vt 0.369613 0.403203
vt 0.239085 0.064441
vt 0.239085 0.095233
vt 0.228142 0.095233
vt 0.228142 0.064441
vt 0.239085 0.711173
vt 0.239085 0.680397
vt 0.239085 0.249229
vt 0.239085 0.218429
vt 0.239085 0.187622
vt 0.239085 0.156815
vt 0.239085 0.433988
vt 0.239085 0.649590
vt 0.239085 0.126008
vt 0.239085 0.403203
vt 0.239085 0.618784
vt 0.239085 0.372418
vt 0.239085 0.587977
vt 0.239085 0.341611
vt 0.239085 0.557177
vt 0.239085 0.033634
vt 0.239085 0.310804
vt 0.239085 0.526408
vt 0.239085 0.002827
vt 0.239085 0.279998
vt 0.239085 0.741965
vt 0.228142 0.680397
vt 0.228142 0.711173
vt 0.224398 0.711173
vt 0.224398 0.680397
vt 0.228142 0.372418
vt 0.228142 0.341611
vt 0.228142 0.587977
vt 0.228142 0.557177
vt 0.228142 0.033634
vt 0.228142 0.310804
vt 0.228142 0.526408
vt 0.228142 0.002827
vt 0.228142 0.279998
vt 0.228142 0.495601
vt 0.228142 0.741965
vt 0.228142 0.249229
vt 0.228142 0.464795
vt 0.228142 0.218429
vt 0.228142 0.187622
vt 0.228142 0.156815
vt 0.228142 0.433988
vt 0.228142 0.649590
vt 0.228142 0.126008
vt 0.228142 0.403203
vt 0.228142 0.618784
vt 0.217926 0.557606
vt 0.217975 0.590189
vt 0.002981 0.590548
vt 0.002922 0.557868
vt 0.224398 0.249229
vt 0.224398 0.218429
vt 0.224398 0.187622
vt 0.224398 0.156815
vt 0.224398 0.464795
vt 0.224398 0.433988
vt 0.224398 0.649590
vt 0.224398 0.126008
vt 0.224398 0.403203
vt 0.224398 0.618784
vt 0.224398 0.095233
vt 0.224398 0.372418
vt 0.224398 0.587977
vt 0.224398 0.064441
vt 0.224398 0.341611
vt 0.224398 0.557177
vt 0.224398 0.033634
vt 0.224398 0.310804
vt 0.224398 0.526408
vt 0.224398 0.002827
vt 0.224398 0.279998
vt 0.224398 0.495601
vt 0.224398 0.741965
vt 0.545853 0.594415
vt 0.545853 0.564866
vt 0.549617 0.564866
vt 0.549617 0.594415
vt 0.218642 0.003158
vt 0.218600 0.035791
vt 0.003613 0.035471
vt 0.003655 0.002841
vt 0.218140 0.296844
vt 0.218074 0.329459
vt 0.003075 0.329172
vt 0.003142 0.296523
vt 0.217880 0.525025
vt 0.002906 0.525186
vt 0.218503 0.753186
vt 0.218642 0.785812
vt 0.003670 0.786503
vt 0.003530 0.753866
vt 0.218209 0.264223
vt 0.003212 0.263881
vt 0.217874 0.492442
vt 0.002890 0.492505
vt 0.218369 0.720571
vt 0.003395 0.721219
vt 0.218277 0.231597
vt 0.003282 0.231244
vt 0.218401 0.166333
vt 0.218341 0.198966
vt 0.003349 0.198611
vt 0.003413 0.165982
vt 0.217886 0.459855
vt 0.002896 0.459828
vt 0.218246 0.687964
vt 0.003269 0.688562
vt 0.218461 0.133697
vt 0.003467 0.133354
vt 0.217915 0.427265
vt 0.002921 0.427155
vt 0.218137 0.655366
vt 0.003156 0.655897
vt 0.218511 0.101061
vt 0.003521 0.100727
vt 0.217958 0.394669
vt 0.002961 0.394488
vt 0.218046 0.622775
vt 0.003059 0.623225
vt 0.218557 0.068425
vt 0.003569 0.068100
vt 0.218012 0.362067
vt 0.003014 0.361826
vt 0.549617 0.712610
vt 0.549617 0.683061
vt 0.570689 0.683061
vt 0.570689 0.712610
vt 0.545853 0.328476
vt 0.545853 0.298927
vt 0.549617 0.298927
vt 0.549617 0.328476
vt 0.545853 0.121635
vt 0.545853 0.092086
vt 0.549617 0.092086
vt 0.549617 0.121635
vt 0.545853 0.623964
vt 0.549617 0.623964
vt 0.545853 0.358025
vt 0.549617 0.358025
vt 0.545853 0.151183
vt 0.549617 0.151183
vt 0.545853 0.653513
vt 0.549617 0.653513
vt 0.545853 0.387574
vt 0.549617 0.387574
vt 0.545853 0.180732
vt 0.549617 0.180732
vt 0.545853 0.683061
vt 0.545853 0.417122
vt 0.549617 0.417122
vt 0.545853 0.210281
vt 0.549617 0.210281
vt 0.545853 0.712610
vt 0.545853 0.446671
vt 0.549617 0.446671
vt 0.545853 0.239830
vt 0.549617 0.239830
vt 0.545853 0.032989
vt 0.545853 0.003440
vt 0.549617 0.003440
vt 0.549617 0.032989
vt 0.545853 0.476220
vt 0.549617 0.476220
vt 0.545853 0.269379
vt 0.549617 0.269379
vt 0.545853 0.062537
vt 0.549617 0.062537
vt 0.545853 0.505769
vt 0.549617 0.505769
vt 0.545853 0.535317
vt 0.549617 0.535317
vt 0.570689 0.328476
vt 0.570689 0.298927
vt 0.595018 0.298927
vt 0.595018 0.328476
vt 0.570689 0.417122
vt 0.570689 0.446671
vt 0.570689 0.210281
vt 0.570689 0.239830
vt 0.570689 0.003440
vt 0.570689 0.032989
vt 0.570689 0.476220
vt 0.570689 0.269379
vt 0.570689 0.062537
vt 0.570689 0.505769
vt 0.570689 0.535317
vt 0.570689 0.564866
vt 0.570689 0.092086
vt 0.570689 0.594415
vt 0.570689 0.121635
vt 0.570689 0.623964
vt 0.570689 0.358025
vt 0.570689 0.151183
vt 0.570689 0.653513
vt 0.570689 0.387574
vt 0.570689 0.180732
vt 0.595018 0.712610
vt 0.595018 0.683061
vt 0.640862 0.683061
vt 0.640862 0.712610
vt 0.595018 0.092086
vt 0.595018 0.121635
vt 0.595018 0.594415
vt 0.595018 0.623964
vt 0.595018 0.358025
vt 0.595018 0.151183
vt 0.595018 0.653513
vt 0.595018 0.387574
vt 0.595018 0.180732
vt 0.595018 0.417122
vt 0.595018 0.210281
vt 0.595018 0.446671
vt 0.595018 0.239830
vt 0.595018 0.003440
vt 0.595018 0.032989
vt 0.595018 0.476220
vt 0.595018 0.269379
vt 0.595018 0.062537
vt 0.595018 0.505769
vt 0.595018 0.535317
vt 0.595018 0.564866
vt 0.640862 0.121635
vt 0.640862 0.092086
vt 0.733537 0.092086
vt 0.733537 0.121635
vt 0.640862 0.417122
vt 0.640862 0.446671
vt 0.640862 0.210281
vt 0.640862 0.239830
vt 0.640862 0.003440
vt 0.640862 0.032989
vt 0.640862 0.476220
vt 0.640862 0.269379
vt 0.640862 0.062537
vt 0.640862 0.505769
vt 0.640862 0.535317
vt 0.640862 0.564866
vt 0.640862 0.298927
vt 0.640862 0.594415
vt 0.640862 0.328476
vt 0.640862 0.623964
vt 0.640862 0.358025
vt 0.640862 0.151183
vt 0.640862 0.653513
vt 0.640862 0.387574
vt 0.640862 0.180732
vt 0.733537 0.446671
vt 0.733537 0.417122
vt 0.913032 0.417122
vt 0.913032 0.446671
vt 0.733537 0.594415
vt 0.733537 0.623964
vt 0.733537 0.328476
vt 0.733537 0.358025
vt 0.733537 0.151183
vt 0.733537 0.653513
vt 0.733537 0.387574
vt 0.733537 0.180732
vt 0.733537 0.683061
vt 0.733537 0.210281
vt 0.733537 0.712610
vt 0.733537 0.239830
vt 0.733537 0.003440
vt 0.733537 0.032989
vt 0.733537 0.476220
vt 0.733537 0.269378
vt 0.733537 0.062537
vt 0.733537 0.505769
vt 0.733537 0.535317
vt 0.733537 0.564866
vt 0.733537 0.298927
vt 0.295728 0.807224
vt 0.310366 0.807224
vt 0.310366 0.817882
vt 0.295728 0.817882
vt 0.913032 0.210281
vt 0.913032 0.239830
vt 0.913032 0.003440
vt 0.913032 0.032989
vt 0.913032 0.476220
vt 0.913032 0.269378
vt 0.913032 0.062537
vt 0.913032 0.505769
vt 0.913032 0.535317
vt 0.913032 0.564866
vt 0.913032 0.298927
vt 0.913032 0.092086
vt 0.913032 0.594415
vt 0.913032 0.328476
vt 0.913032 0.121635
vt 0.913032 0.623964
vt 0.913032 0.358025
vt 0.913032 0.151183
vt 0.913032 0.653513
vt 0.913032 0.387574
vt 0.913032 0.180732
vt 0.913032 0.683061
vt 0.913032 0.712610
vt 0.258965 0.791451
vt 0.274929 0.791451
vt 0.274929 0.799662
vt 0.258965 0.799662
vt 0.046877 0.807224
vt 0.061515 0.807224
vt 0.061515 0.817882
vt 0.046877 0.817882
vt 0.178621 0.807224
vt 0.193260 0.807224
vt 0.193260 0.817882
vt 0.178621 0.817882
vt 0.281089 0.807224
vt 0.281089 0.817882
vt 0.032239 0.807224
vt 0.032239 0.817882
vt 0.163983 0.807224
vt 0.163983 0.817882
vt 0.266451 0.807224
vt 0.266451 0.817882
vt 0.017601 0.807224
vt 0.017601 0.817882
vt 0.149345 0.807224
vt 0.149345 0.817882
vt 0.251813 0.807224
vt 0.251813 0.817882
vt 0.002962 0.807224
vt 0.002962 0.817882
vt 0.134707 0.807224
vt 0.134707 0.817882
vt 0.237175 0.807224
vt 0.237175 0.817882
vt 0.339642 0.807224
vt 0.354281 0.807224
vt 0.354281 0.817882
vt 0.339642 0.817882
vt 0.120068 0.807224
vt 0.120068 0.817882
vt 0.222536 0.807224
vt 0.222536 0.817882
vt 0.325004 0.807224
vt 0.325004 0.817882
vt 0.105430 0.807224
vt 0.105430 0.817882
vt 0.076154 0.807224
vt 0.090792 0.807224
vt 0.090792 0.817882
vt 0.076154 0.817882
vt 0.207898 0.807224
vt 0.207898 0.817882
vt 0.047367 0.824131
vt 0.061982 0.824131
vt 0.061982 0.834078
vt 0.047367 0.834078
vt 0.370709 0.791451
vt 0.386672 0.791451
vt 0.386672 0.799662
vt 0.370709 0.799662
vt 0.131259 0.791451
vt 0.147222 0.791451
vt 0.147222 0.799662
vt 0.131259 0.799662
vt 0.243002 0.791451
vt 0.243002 0.799662
vt 0.354745 0.791451
vt 0.354745 0.799662
vt 0.115296 0.791451
vt 0.115296 0.799662
vt 0.083369 0.791451
vt 0.099332 0.791451
vt 0.099332 0.799662
vt 0.083369 0.799662
vt 0.227039 0.791451
vt 0.227039 0.799662
vt 0.338782 0.791451
vt 0.338782 0.799662
vt 0.067406 0.791451
vt 0.067406 0.799662
vt 0.211075 0.791451
vt 0.211075 0.799662
vt 0.322819 0.791451
vt 0.322819 0.799662
vt 0.051442 0.791451
vt 0.051442 0.799662
vt 0.195112 0.791451
vt 0.195112 0.799662
vt 0.306855 0.791451
vt 0.306855 0.799662
vt 0.035479 0.791451
vt 0.035479 0.799662
vt 0.179149 0.791451
vt 0.179149 0.799662
vt 0.290892 0.791451
vt 0.290892 0.799662
vt 0.019516 0.791451
vt 0.019516 0.799662
vt 0.163185 0.791451
vt 0.163185 0.799662
vt 0.003552 0.791451
vt 0.003552 0.799662
vt 0.216620 0.841501
vt 0.230031 0.841501
vt 0.230031 0.882665
vt 0.216620 0.882665
vt 0.178902 0.824131
vt 0.193517 0.824131
vt 0.193517 0.834078
vt 0.178902 0.834078
vt 0.281206 0.824131
vt 0.295821 0.824131
vt 0.295821 0.834078
vt 0.281206 0.834078
vt 0.032752 0.824131
vt 0.032752 0.834078
vt 0.164287 0.824131
vt 0.164287 0.834078
vt 0.266591 0.824131
vt 0.266591 0.834078
vt 0.018137 0.824131
vt 0.018137 0.834078
vt 0.149672 0.824131
vt 0.149672 0.834078
vt 0.251976 0.824131
vt 0.251976 0.834078
vt 0.003523 0.824131
vt 0.003523 0.834078
vt 0.135057 0.824131
vt 0.135057 0.834078
vt 0.237361 0.824131
vt 0.237361 0.834078
vt 0.339666 0.824131
vt 0.354281 0.824131
vt 0.354281 0.834078
vt 0.339666 0.834078
vt 0.120442 0.824131
vt 0.120442 0.834078
vt 0.222746 0.824131
vt 0.222746 0.834078
vt 0.325051 0.824131
vt 0.325051 0.834078
vt 0.105827 0.824131
vt 0.105827 0.834078
vt 0.076597 0.824131
vt 0.091212 0.824131
vt 0.091212 0.834078
vt 0.076597 0.834078
vt 0.208132 0.824131
vt 0.208132 0.834078
vt 0.310436 0.824131
vt 0.310436 0.834078
vt 0.310502 0.841501
vt 0.323914 0.841501
vt 0.323914 0.882665
vt 0.310502 0.882665
vt 0.109326 0.841501
vt 0.122738 0.841501
vt 0.122738 0.882665
vt 0.109326 0.882665
vt 0.203208 0.841501
vt 0.203208 0.882665
vt 0.297090 0.841501
vt 0.297090 0.882665
vt 0.095914 0.841501
vt 0.095914 0.882665
vt 0.069091 0.841501
vt 0.082502 0.841501
vt 0.082502 0.882665
vt 0.069091 0.882665
vt 0.189796 0.841501
vt 0.189796 0.882665
vt 0.283678 0.841501
vt 0.283678 0.882665
vt 0.055679 0.841501
vt 0.055679 0.882665
vt 0.176385 0.841501
vt 0.176385 0.882665
vt 0.270267 0.841501
vt 0.270267 0.882665
vt 0.042267 0.841501
vt 0.042267 0.882665
vt 0.162973 0.841501
vt 0.162973 0.882665
vt 0.256855 0.841501
vt 0.256855 0.882665
vt 0.028856 0.841501
vt 0.028856 0.882665
vt 0.149561 0.841501
vt 0.149561 0.882665
vt 0.243443 0.841501
vt 0.243443 0.882665
vt 0.015444 0.841501
vt 0.015444 0.882665
vt 0.136149 0.841501
vt 0.136149 0.882665
vt 0.002032 0.841501
vt 0.002032 0.882665
vt 0.547460 0.822743
vt 0.570463 0.816849
vt 0.572282 0.831772
vt 0.552848 0.837203
vt 0.516501 0.813932
vt 0.539499 0.800828
vt 0.530282 0.833200
vt 0.655902 0.791840
vt 0.681228 0.787783
vt 0.680883 0.811228
vt 0.661962 0.815207
vt 0.793507 0.820334
vt 0.819303 0.826966
vt 0.810402 0.848239
vt 0.790247 0.843857
vt 0.844851 0.841649
vt 0.864063 0.861701
vt 0.846190 0.875991
vt 0.831773 0.860231
vt 0.350145 0.948702
vt 0.385999 0.934066
vt 0.405713 0.948472
vt 0.365067 0.969598
vt 0.458927 0.842347
vt 0.494855 0.843490
vt 0.504798 0.865290
vt 0.465625 0.864965
vt 0.593350 0.794749
vt 0.626289 0.810614
vt 0.628056 0.835031
vt 0.590441 0.818421
vt 0.733161 0.800934
vt 0.758344 0.826945
vt 0.751709 0.849904
vt 0.721631 0.821882
vt 0.913912 0.906531
vt 0.938920 0.923346
vt 0.922966 0.942877
vt 0.902167 0.927495
vt 0.433765 0.853295
vt 0.445891 0.873107
vt 0.567266 0.793864
vt 0.709306 0.790900
vt 0.704111 0.813599
vt 0.877660 0.897195
vt 0.861612 0.914137
vt 0.961581 0.942709
vt 0.940524 0.962173
vt 0.849778 0.925391
vt 0.895989 0.940095
vt 0.885700 0.945723
vt 0.834587 0.937827
vt 0.426051 0.912687
vt 0.419962 0.957699
vt 0.789793 0.856956
vt 0.746481 0.865804
vt 0.822974 0.872222
vt 0.804571 0.862369
vt 0.587544 0.831266
vt 0.437102 0.899786
vt 0.835225 0.882851
vt 0.628444 0.852407
vt 0.453661 0.886003
vt 0.666456 0.827301
vt 0.468056 0.877988
vt 0.680882 0.826446
vt 0.512352 0.880238
vt 0.910327 0.955218
vt 0.700615 0.828007
vt 0.538862 0.843199
vt 0.924933 0.974479
vt 0.714461 0.832617
vt 0.372123 0.983413
vt 0.679673 0.838867
vt 0.664679 0.837395
vt 0.521699 0.897380
vt 0.475060 0.886010
vt 0.897291 0.963436
vt 0.698884 0.840696
vt 0.540981 0.853622
vt 0.908589 0.982446
vt 0.713882 0.842990
vt 0.556266 0.849429
vt 0.438588 0.966866
vt 0.385438 0.986137
vt 0.739943 0.884339
vt 0.575204 0.844495
vt 0.433048 0.921195
vt 0.784195 0.865821
vt 0.816197 0.883173
vt 0.798530 0.873410
vt 0.590674 0.841467
vt 0.445742 0.909388
vt 0.830143 0.892255
vt 0.629429 0.872411
vt 0.461619 0.896127
vt 0.578536 0.855545
vt 0.558743 0.860352
vt 0.438103 0.930210
vt 0.447953 0.970329
vt 0.776212 0.872451
vt 0.736680 0.892804
vt 0.810388 0.892847
vt 0.792279 0.882602
vt 0.596417 0.850083
vt 0.453318 0.917833
vt 0.827258 0.901887
vt 0.630048 0.881461
vt 0.469469 0.904215
vt 0.826853 0.942950
vt 0.659838 0.846371
vt 0.484054 0.891399
vt 0.874051 0.948037
vt 0.677762 0.849834
vt 0.526281 0.905113
vt 0.884052 0.968313
vt 0.697893 0.852029
vt 0.540461 0.863681
vt 0.893218 0.987572
vt 0.716054 0.852815
vt 0.398930 0.985373
vt 0.860282 0.954214
vt 0.816827 0.949585
vt 0.675917 0.863177
vt 0.657945 0.860125
vt 0.532100 0.915391
vt 0.492946 0.901739
vt 0.868297 0.972954
vt 0.696214 0.865486
vt 0.544270 0.876841
vt 0.875114 0.991827
vt 0.714379 0.866535
vt 0.562321 0.873354
vt 0.460174 0.974763
vt 0.415453 0.988621
vt 0.732635 0.903991
vt 0.582161 0.868654
vt 0.448527 0.939374
vt 0.769115 0.884145
vt 0.802799 0.903802
vt 0.784932 0.893632
vt 0.599794 0.863578
vt 0.463018 0.927115
vt 0.819241 0.912810
vt 0.630842 0.893431
vt 0.478769 0.913765
vt 0.458804 0.948598
vt 0.469616 0.977507
vt 0.760802 0.895401
vt 0.729496 0.912255
vt 0.794973 0.914293
vt 0.777608 0.904490
vt 0.604490 0.876980
vt 0.585673 0.881670
vt 0.472920 0.935776
vt 0.811568 0.923938
vt 0.631452 0.902299
vt 0.488042 0.923015
vt 0.808990 0.954083
vt 0.654888 0.874029
vt 0.502973 0.911348
vt 0.845591 0.958855
vt 0.674176 0.876523
vt 0.536615 0.922930
vt 0.852907 0.976591
vt 0.694363 0.878876
vt 0.547188 0.890348
vt 0.857789 0.994543
vt 0.713667 0.880662
vt 0.566025 0.886156
vt 0.432893 0.989928
vt 0.672809 0.892594
vt 0.654479 0.891332
vt 0.542139 0.932316
vt 0.513236 0.924656
vt 0.834699 0.980512
vt 0.828250 0.965756
vt 0.691292 0.894837
vt 0.553979 0.906117
vt 0.837394 0.996035
vt 0.709385 0.897597
vt 0.571284 0.901368
vt 0.481357 0.980303
vt 0.454077 0.993304
vt 0.725716 0.922492
vt 0.589249 0.897498
vt 0.473956 0.957297
vt 0.753134 0.910506
vt 0.784593 0.926313
vt 0.769137 0.917755
vt 0.607165 0.894066
vt 0.485788 0.945316
vt 0.799128 0.935651
vt 0.632209 0.913249
vt 0.499072 0.934321
vt 0.799199 0.959447
vt 0.488041 0.963314
vt 0.489378 0.981718
vt 0.747627 0.923822
vt 0.723283 0.929329
vt 0.775006 0.936802
vt 0.761659 0.929663
vt 0.608179 0.908758
vt 0.592176 0.911298
vt 0.497751 0.953320
vt 0.787239 0.944688
vt 0.632710 0.920458
vt 0.509012 0.944425
vt 0.792538 0.963083
vt 0.655505 0.905980
vt 0.521214 0.936485
vt 0.813741 0.971606
vt 0.671869 0.906925
vt 0.545737 0.938662
vt 0.818448 0.983380
vt 0.688348 0.908835
vt 0.561013 0.919184
vt 0.819995 0.995943
vt 0.704339 0.911505
vt 0.576302 0.914887
vt 0.472251 0.995906
vt 0.548725 0.943756
vt 0.528349 0.946179
vt 0.804157 0.984835
vt 0.801137 0.975423
vt 0.685893 0.921096
vt 0.670723 0.919467
vt 0.566711 0.930213
vt 0.804590 0.994628
vt 0.700317 0.923270
vt 0.580590 0.926883
vt 0.496234 0.982168
vt 0.487630 0.996034
vt 0.721282 0.934727
vt 0.595074 0.923217
vt 0.499872 0.968309
vt 0.742688 0.934974
vt 0.766615 0.946089
vt 0.754793 0.939929
vt 0.609274 0.921101
vt 0.508311 0.960462
vt 0.777384 0.952581
vt 0.633161 0.926147
vt 0.518119 0.953163
vt 0.786783 0.965941
vt 0.656047 0.918192
vt 0.732922 0.943461
vt 0.717550 0.937397
vt 0.758520 0.956034
vt 0.746260 0.950256
vt 0.615839 0.931920
vt 0.599524 0.935758
vt 0.518920 0.967936
vt 0.510263 0.974994
vt 0.770192 0.961875
vt 0.633357 0.928639
vt 0.528636 0.960833
vt 0.780893 0.967713
vt 0.651441 0.930207
vt 0.539700 0.953638
vt 0.786540 0.975465
vt 0.668198 0.931968
vt 0.552849 0.945937
vt 0.789271 0.983414
vt 0.684409 0.933676
vt 0.568559 0.942300
vt 0.789607 0.990813
vt 0.700805 0.935320
vt 0.583932 0.938749
vt 0.502939 0.981931
vt 0.501345 0.989016
vt 0.558938 0.956628
vt 0.546890 0.962246
vt 0.777701 0.984390
vt 0.775205 0.979432
vt 0.682898 0.944364
vt 0.666875 0.942804
vt 0.572576 0.952875
vt 0.778184 0.989280
vt 0.698546 0.946177
vt 0.587179 0.949173
vt 0.515588 0.985098
vt 0.513859 0.989680
vt 0.713504 0.948721
vt 0.602368 0.945784
vt 0.520472 0.980232
vt 0.727280 0.953711
vt 0.751814 0.964587
vt 0.740145 0.959281
vt 0.618132 0.942949
vt 0.527776 0.974887
vt 0.762041 0.969474
vt 0.634269 0.941035
vt 0.536613 0.968643
vt 0.770139 0.974375
vt 0.650552 0.941639
vt 0.259131 0.767957
vt 0.257914 0.772500
vt 0.255562 0.776572
vt 0.259131 0.763254
vt 0.252237 0.779898
vt 0.257914 0.758712
vt 0.248164 0.782249
vt 0.255562 0.754639
vt 0.243622 0.783466
vt 0.252237 0.751314
vt 0.238919 0.783466
vt 0.248164 0.748962
vt 0.234376 0.782249
vt 0.243622 0.747745
vt 0.230304 0.779898
vt 0.238919 0.747745
vt 0.226978 0.776572
vt 0.234376 0.748962
vt 0.224627 0.772500
vt 0.230304 0.751314
vt 0.223410 0.767957
vt 0.226978 0.754639
vt 0.223410 0.763254
vt 0.224627 0.758712
vt 0.809973 0.767960
vt 0.841085 0.780825
vt 0.779424 0.758640
vt 0.749689 0.748299
vt 0.717661 0.740808
vt 0.684929 0.736422
vt 0.652421 0.736331
vt 0.621581 0.738874
vt 0.590479 0.739833
vt 0.557878 0.744090
vt 0.525152 0.751707
vt 0.493694 0.764018
vt 0.464992 0.778969
vt 0.435531 0.793177
vt 0.406221 0.811253
vt 0.378533 0.833014
vt 0.354483 0.858440
vt 0.334236 0.884556
vt 0.311461 0.906473
vt 0.969690 0.879660
vt 0.996034 0.897705
vt 0.944841 0.860974
vt 0.920724 0.841850
vt 0.897720 0.819206
vt 0.870592 0.798440
vt 0.886519 0.798308
vt 0.879842 0.786743
vt 0.891843 0.795015
vt 0.895962 0.807750
vt 0.876386 0.773845
vt 0.890261 0.779400
vt 0.876386 0.760492
vt 0.891254 0.762449
vt 0.879841 0.747594
vt 0.894681 0.745819
vt 0.886518 0.736029
vt 0.900250 0.731145
vt 0.895960 0.726586
vt 0.907524 0.719909
vt 0.906281 0.801118
vt 0.907526 0.814427
vt 0.906675 0.783894
vt 0.908565 0.764728
vt 0.911699 0.745725
vt 0.915776 0.728985
vt 0.920423 0.716453
vt 0.922167 0.804641
vt 0.920424 0.817882
vt 0.924486 0.787029
vt 0.927100 0.767167
vt 0.929714 0.747306
vt 0.932033 0.729694
vt 0.933776 0.716453
vt 0.938424 0.805349
vt 0.933777 0.817882
vt 0.942501 0.788610
vt 0.945635 0.769607
vt 0.947525 0.750441
vt 0.947919 0.733217
vt 0.946674 0.719908
vt 0.953950 0.803190
vt 0.946676 0.814425
vt 0.959519 0.788516
vt 0.962946 0.771886
vt 0.963939 0.754935
vt 0.962357 0.739320
vt 0.958239 0.726585
vt 0.967682 0.798306
vt 0.958240 0.807748
vt 0.974359 0.786741
vt 0.977814 0.773843
vt 0.977814 0.760490
vt 0.974358 0.747591
vt 0.967681 0.736027
s 1
usemtl Gaseosa_chica
f 697/1/1 2/2/2 4/3/3 698/4/4
f 698/4/4 4/3/3 6/5/5 699/6/6
f 699/6/6 6/5/5 8/7/7 700/8/8
f 700/8/8 8/7/7 10/9/9 701/10/10
f 701/10/10 10/9/9 12/11/11 702/12/12
f 702/12/12 12/11/11 14/13/13 703/14/14
f 703/15/14 14/16/13 16/17/15 704/18/16
f 704/18/16 16/17/15 18/19/17 705/20/18
f 705/20/18 18/19/17 20/21/19 706/22/20
f 706/22/20 20/21/19 22/23/21 707/24/22
f 707/24/22 22/23/21 24/25/23 708/26/24
f 708/26/24 24/25/23 26/27/25 709/28/26
f 709/28/26 26/27/25 28/29/27 710/30/28
f 710/30/28 28/29/27 30/31/29 711/32/30
f 711/32/30 30/31/29 32/33/31 712/34/32
f 712/34/32 32/33/31 34/35/33 713/36/34
f 713/36/34 34/35/33 36/37/35 714/38/36
f 714/38/36 36/37/35 38/39/37 715/40/38
f 715/40/38 38/39/37 40/41/39 716/42/40
f 716/42/40 40/41/39 42/43/41 717/44/42
f 717/44/42 42/43/41 44/45/43 718/46/44
f 718/46/44 44/45/43 46/47/45 719/48/46
f 8/7/7 6/5/5 51/49/47 52/50/48
f 719/48/46 46/47/45 48/51/49 720/52/50
f 720/52/50 48/51/49 2/2/2 697/1/1
f 17/53/51 19/54/52 442/55/53 441/56/54
f 60/57/55 59/58/56 83/59/57 84/60/58
f 18/19/17 16/17/15 56/61/59 57/62/60
f 4/3/3 2/2/2 50/63/61 49/64/62
f 28/29/27 26/27/25 61/65/63 62/66/64
f 38/39/37 36/37/35 66/67/65 67/68/66
f 48/51/49 46/47/45 71/69/67 72/70/68
f 14/13/13 12/11/11 54/71/69 55/72/70
f 24/25/23 22/23/21 59/58/56 60/57/55
f 34/35/33 32/33/31 64/73/71 65/74/72
f 44/45/43 42/43/41 69/75/73 70/76/74
f 10/9/9 8/7/7 52/50/48 53/77/75
f 20/21/19 18/19/17 57/62/60 58/78/76
f 30/31/29 28/29/27 62/66/64 63/79/77
f 40/41/39 38/39/37 67/68/66 68/80/78
f 2/2/2 48/51/49 72/70/68 50/63/61
f 6/5/5 4/3/3 49/64/62 51/49/47
f 16/17/15 14/16/13 55/81/70 56/61/59
f 26/27/25 24/25/23 60/57/55 61/65/63
f 36/37/35 34/35/33 65/74/72 66/67/65
f 46/47/45 44/45/43 70/76/74 71/69/67
f 12/11/11 10/9/9 53/77/75 54/71/69
f 22/23/21 20/21/19 58/78/76 59/58/56
f 32/33/31 30/31/29 63/79/77 64/73/71
f 42/43/41 40/41/39 68/80/78 69/75/73
f 88/82/79 87/83/80 111/84/81 112/85/82
f 53/77/75 52/50/48 76/86/83 77/87/84
f 68/80/78 67/68/66 91/88/85 92/89/86
f 61/65/63 60/57/55 84/60/58 85/90/87
f 54/71/69 53/77/75 77/87/84 78/91/88
f 69/75/73 68/80/78 92/89/86 93/92/89
f 62/66/64 61/65/63 85/90/87 86/93/90
f 55/72/70 54/71/69 78/91/88 79/94/91
f 70/76/74 69/75/73 93/92/89 94/95/92
f 63/79/77 62/66/64 86/93/90 87/83/80
f 56/61/59 55/81/70 79/96/91 80/97/93
f 71/69/67 70/76/74 94/95/92 95/98/94
f 64/73/71 63/79/77 87/83/80 88/82/79
f 57/62/60 56/61/59 80/97/93 81/99/95
f 72/70/68 71/69/67 95/98/94 96/100/96
f 49/64/62 50/63/61 74/101/97 73/102/98
f 65/74/72 64/73/71 88/82/79 89/103/99
f 58/78/76 57/62/60 81/99/95 82/104/100
f 50/63/61 72/70/68 96/100/96 74/101/97
f 51/49/47 49/64/62 73/102/98 75/105/101
f 66/67/65 65/74/72 89/103/99 90/106/102
f 59/58/56 58/78/76 82/104/100 83/59/57
f 52/50/48 51/49/47 75/105/101 76/86/83
f 67/68/66 66/67/65 90/106/102 91/88/85
f 101/107/103 100/108/104 124/109/105 125/110/106
f 81/99/95 80/97/93 104/111/107 105/112/108
f 96/100/96 95/98/94 119/113/109 120/114/110
f 73/102/98 74/101/97 98/115/111 97/116/112
f 89/103/99 88/82/79 112/85/82 113/117/113
f 82/104/100 81/99/95 105/112/108 106/118/114
f 74/101/97 96/100/96 120/114/110 98/115/111
f 75/105/101 73/102/98 97/116/112 99/119/115
f 90/106/102 89/103/99 113/117/113 114/120/116
f 83/59/57 82/104/100 106/118/114 107/121/117
f 76/86/83 75/105/101 99/119/115 100/108/104
f 91/88/85 90/106/102 114/120/116 115/122/118
f 84/60/58 83/59/57 107/121/117 108/123/119
f 77/87/84 76/86/83 100/108/104 101/107/103
f 92/89/86 91/88/85 115/122/118 116/124/120
f 85/90/87 84/60/58 108/123/119 109/125/121
f 78/91/88 77/87/84 101/107/103 102/126/122
f 93/92/89 92/89/86 116/124/120 117/127/123
f 86/93/90 85/90/87 109/125/121 110/128/124
f 79/94/91 78/91/88 102/126/122 103/129/125
f 94/95/92 93/92/89 117/127/123 118/130/126
f 87/83/80 86/93/90 110/128/124 111/84/81
f 80/97/93 79/96/91 103/131/125 104/111/107
f 95/98/94 94/95/92 118/130/126 119/113/109
f 129/132/127 128/133/128 152/134/129 153/135/130
f 116/124/120 115/122/118 139/136/131 140/137/132
f 109/125/121 108/123/119 132/138/133 133/139/134
f 102/126/122 101/107/103 125/110/106 126/140/135
f 117/127/123 116/124/120 140/137/132 141/141/136
f 110/128/124 109/125/121 133/139/134 134/142/137
f 103/129/125 102/126/122 126/140/135 127/143/138
f 118/130/126 117/127/123 141/141/136 142/144/139
f 111/84/81 110/128/124 134/142/137 135/145/140
f 104/111/107 103/131/125 127/146/138 128/133/128
f 119/113/109 118/130/126 142/144/139 143/147/141
f 112/85/82 111/84/81 135/145/140 136/148/142
f 105/112/108 104/111/107 128/133/128 129/132/127
f 120/114/110 119/113/109 143/147/141 144/149/143
f 97/116/112 98/115/111 122/150/144 121/151/145
f 113/117/113 112/85/82 136/148/142 137/152/146
f 106/118/114 105/112/108 129/132/127 130/153/147
f 98/115/111 120/114/110 144/149/143 122/150/144
f 99/119/115 97/116/112 121/151/145 123/154/148
f 114/120/116 113/117/113 137/152/146 138/155/149
f 107/121/117 106/118/114 130/153/147 131/156/150
f 100/108/104 99/119/115 123/154/148 124/109/105
f 115/122/118 114/120/116 138/155/149 139/136/131
f 108/123/119 107/121/117 131/156/150 132/138/133
f 158/157/151 157/158/152 181/159/153 182/160/154
f 144/149/143 143/147/141 167/161/155 168/162/156
f 121/151/145 122/150/144 146/163/157 145/164/158
f 137/152/146 136/148/142 160/165/159 161/166/160
f 130/153/147 129/132/127 153/135/130 154/167/161
f 122/150/144 144/149/143 168/162/156 146/163/157
f 123/154/148 121/151/145 145/164/158 147/168/162
f 138/155/149 137/152/146 161/166/160 162/169/163
f 131/156/150 130/153/147 154/167/161 155/170/164
f 124/109/105 123/154/148 147/168/162 148/171/165
f 139/136/131 138/155/149 162/169/163 163/172/166
f 132/138/133 131/156/150 155/170/164 156/173/167
f 125/110/106 124/109/105 148/171/165 149/174/168
f 140/137/132 139/136/131 163/172/166 164/175/169
f 133/139/134 132/138/133 156/173/167 157/176/152
f 126/140/135 125/110/106 149/174/168 150/177/170
f 141/141/136 140/137/132 164/175/169 165/178/171
f 134/142/137 133/139/134 157/176/152 158/179/151
f 127/143/138 126/140/135 150/177/170 151/180/172
f 142/144/139 141/141/136 165/178/171 166/181/173
f 135/145/140 134/142/137 158/179/151 159/182/174
f 128/133/128 127/146/138 151/183/172 152/134/129
f 143/147/141 142/144/139 166/181/173 167/161/155
f 136/148/142 135/145/140 159/182/174 160/165/159
f 171/184/175 169/185/176 193/186/177 195/187/178
f 151/188/172 150/189/170 174/190/179 175/191/180
f 166/192/173 165/193/171 189/194/181 190/195/182
f 159/196/174 158/157/151 182/160/154 183/197/183
f 152/198/129 151/199/172 175/200/180 176/201/184
f 167/202/155 166/192/173 190/195/182 191/203/185
f 160/204/159 159/196/174 183/197/183 184/205/186
f 153/206/130 152/198/129 176/201/184 177/207/187
f 168/208/156 167/202/155 191/203/185 192/209/188
f 145/210/158 146/211/157 170/212/189 169/213/176
f 161/214/160 160/204/159 184/205/186 185/215/190
f 154/216/161 153/206/130 177/207/187 178/217/191
f 146/211/157 168/208/156 192/209/188 170/212/189
f 147/218/162 145/210/158 169/213/176 171/219/175
f 162/220/163 161/214/160 185/215/190 186/221/192
f 155/222/164 154/216/161 178/217/191 179/223/193
f 148/224/165 147/218/162 171/219/175 172/225/194
f 163/226/166 162/220/163 186/221/192 187/227/195
f 156/228/167 155/222/164 179/223/193 180/229/196
f 149/230/168 148/224/165 172/225/194 173/231/197
f 164/232/169 163/226/166 187/227/195 188/233/198
f 157/158/152 156/228/167 180/229/196 181/159/153
f 150/189/170 149/230/168 173/231/197 174/190/179
f 165/193/171 164/232/169 188/233/198 189/194/181
f 199/234/199 198/235/200 222/236/201 223/237/202
f 186/238/192 185/239/190 209/240/203 210/241/204
f 179/242/193 178/243/191 202/244/205 203/245/206
f 172/246/194 171/184/175 195/187/178 196/247/207
f 187/248/195 186/238/192 210/241/204 211/249/208
f 180/250/196 179/242/193 203/245/206 204/251/209
f 173/252/197 172/246/194 196/247/207 197/253/210
f 188/254/198 187/248/195 211/249/208 212/255/211
f 181/256/153 180/250/196 204/251/209 205/257/212
f 174/258/179 173/252/197 197/253/210 198/235/200
f 189/259/181 188/254/198 212/255/211 213/260/213
f 182/261/154 181/256/153 205/257/212 206/262/214
f 175/263/180 174/258/179 198/235/200 199/234/199
f 190/264/182 189/259/181 213/260/213 214/265/215
f 183/266/183 182/261/154 206/262/214 207/267/216
f 176/268/184 175/269/180 199/270/199 200/271/217
f 191/272/185 190/264/182 214/265/215 215/273/218
f 184/274/186 183/266/183 207/267/216 208/275/219
f 177/276/187 176/268/184 200/271/217 201/277/220
f 192/278/188 191/272/185 215/273/218 216/279/221
f 169/185/176 170/280/189 194/281/222 193/186/177
f 185/239/190 184/274/186 208/275/219 209/240/203
f 178/243/191 177/276/187 201/277/220 202/244/205
f 170/280/189 192/278/188 216/279/221 194/281/222
f 234/282/223 233/283/224 257/284/225 258/285/226
f 214/265/215 213/260/213 237/286/227 238/287/228
f 207/267/216 206/262/214 230/288/229 231/289/230
f 200/271/217 199/270/199 223/290/202 224/291/231
f 215/273/218 214/265/215 238/287/228 239/292/232
f 208/275/219 207/267/216 231/289/230 232/293/233
f 201/277/220 200/271/217 224/291/231 225/294/234
f 216/279/221 215/273/218 239/292/232 240/295/235
f 193/186/177 194/281/222 218/296/236 217/297/237
f 209/240/203 208/275/219 232/293/233 233/283/224
f 202/244/205 201/277/220 225/294/234 226/298/238
f 194/281/222 216/279/221 240/295/235 218/296/236
f 195/187/178 193/186/177 217/297/237 219/299/239
f 210/241/204 209/240/203 233/283/224 234/282/223
f 203/245/206 202/244/205 226/298/238 227/300/240
f 196/247/207 195/187/178 219/299/239 220/301/241
f 211/249/208 210/241/204 234/282/223 235/302/242
f 204/251/209 203/245/206 227/300/240 228/303/243
f 197/253/210 196/247/207 220/301/241 221/304/244
f 212/255/211 211/249/208 235/302/242 236/305/245
f 205/257/212 204/251/209 228/303/243 229/306/246
f 198/235/200 197/253/210 221/304/244 222/236/201
f 213/260/213 212/255/211 236/305/245 237/286/227
f 206/262/214 205/257/212 229/306/246 230/288/229
f 247/307/247 246/308/248 270/309/249 271/310/250
f 227/300/240 226/298/238 250/311/251 251/312/252
f 220/301/241 219/299/239 243/313/253 244/314/254
f 235/302/242 234/282/223 258/285/226 259/315/255
f 228/303/243 227/300/240 251/312/252 252/316/256
f 221/304/244 220/301/241 244/314/254 245/317/257
f 236/305/245 235/302/242 259/315/255 260/318/258
f 229/306/246 228/303/243 252/316/256 253/319/259
f 222/236/201 221/304/244 245/317/257 246/308/248
f 237/286/227 236/305/245 260/318/258 261/320/260
f 230/288/229 229/306/246 253/319/259 254/321/261
f 223/237/202 222/236/201 246/308/248 247/307/247
f 238/287/228 237/286/227 261/320/260 262/322/262
f 231/289/230 230/288/229 254/321/261 255/323/263
f 224/291/231 223/290/202 247/324/247 248/325/264
f 239/292/232 238/287/228 262/322/262 263/326/265
f 232/293/233 231/289/230 255/323/263 256/327/266
f 225/294/234 224/291/231 248/325/264 249/328/267
f 240/295/235 239/292/232 263/326/265 264/329/268
f 217/297/237 218/296/236 242/330/269 241/331/270
f 233/283/224 232/293/233 256/327/266 257/284/225
f 226/298/238 225/294/234 249/328/267 250/311/251
f 218/296/236 240/295/235 264/329/268 242/330/269
f 219/299/239 217/297/237 241/331/270 243/313/253
f 275/332/271 274/333/272 298/334/273 299/335/274
f 262/322/262 261/320/260 285/336/275 286/337/276
f 255/323/263 254/321/261 278/338/277 279/339/278
f 248/325/264 247/324/247 271/340/250 272/341/279
f 263/326/265 262/322/262 286/337/276 287/342/280
f 256/327/266 255/323/263 279/339/278 280/343/281
f 249/328/267 248/325/264 272/341/279 273/344/282
f 264/329/268 263/326/265 287/342/280 288/345/283
f 241/331/270 242/330/269 266/346/284 265/347/285
f 257/284/225 256/327/266 280/343/281 281/348/286
f 250/311/251 249/328/267 273/344/282 274/333/272
f 242/330/269 264/329/268 288/345/283 266/346/284
f 243/313/253 241/331/270 265/347/285 267/349/287
f 258/285/226 257/284/225 281/348/286 282/350/288
f 251/312/252 250/311/251 274/333/272 275/332/271
f 244/314/254 243/313/253 267/349/287 268/351/289
f 259/315/255 258/285/226 282/350/288 283/352/290
f 252/316/256 251/312/252 275/332/271 276/353/291
f 245/317/257 244/314/254 268/351/289 269/354/292
f 260/318/258 259/315/255 283/352/290 284/355/293
f 253/319/259 252/316/256 276/353/291 277/356/294
f 246/308/248 245/317/257 269/354/292 270/309/249
f 261/320/260 260/318/258 284/355/293 285/336/275
f 254/321/261 253/319/259 277/356/294 278/338/277
f 310/357/295 309/358/296 333/359/297 334/360/298
f 268/351/289 267/349/287 291/361/299 292/362/300
f 283/352/290 282/350/288 306/363/301 307/364/302
f 276/353/291 275/332/271 299/335/274 300/365/303
f 269/354/292 268/351/289 292/362/300 293/366/304
f 284/355/293 283/352/290 307/364/302 308/367/305
f 277/356/294 276/353/291 300/365/303 301/368/306
f 270/309/249 269/354/292 293/366/304 294/369/307
f 285/336/275 284/355/293 308/367/305 309/358/296
f 278/338/277 277/356/294 301/368/306 302/370/308
f 271/310/250 270/309/249 294/369/307 295/371/309
f 286/337/276 285/336/275 309/358/296 310/357/295
f 279/339/278 278/338/277 302/370/308 303/372/310
f 272/341/279 271/340/250 295/373/309 296/374/311
f 287/342/280 286/337/276 310/357/295 311/375/312
f 280/343/281 279/339/278 303/372/310 304/376/313
f 273/344/282 272/341/279 296/374/311 297/377/314
f 288/345/283 287/342/280 311/375/312 312/378/315
f 265/347/285 266/346/284 290/379/316 289/380/317
f 281/348/286 280/343/281 304/376/313 305/381/318
f 274/333/272 273/344/282 297/377/314 298/334/273
f 266/346/284 288/345/283 312/378/315 290/379/316
f 267/349/287 265/347/285 289/380/317 291/361/299
f 282/350/288 281/348/286 305/381/318 306/363/301
f 323/382/319 322/383/320 346/384/321 347/385/322
f 303/372/310 302/370/308 326/386/323 327/387/324
f 296/374/311 295/373/309 319/388/325 320/389/326
f 311/375/312 310/357/295 334/360/298 335/390/327
f 304/376/313 303/372/310 327/387/324 328/391/328
f 297/377/314 296/374/311 320/389/326 321/392/329
f 312/378/315 311/375/312 335/390/327 336/393/330
f 289/380/317 290/379/316 314/394/331 313/395/332
f 305/381/318 304/376/313 328/391/328 329/396/333
f 298/334/273 297/377/314 321/392/329 322/397/320
f 290/379/316 312/378/315 336/393/330 314/394/331
f 291/361/299 289/380/317 313/395/332 315/398/334
f 306/363/301 305/381/318 329/396/333 330/399/335
f 299/335/274 298/334/273 322/397/320 323/400/319
f 292/362/300 291/361/299 315/398/334 316/401/336
f 307/364/302 306/363/301 330/399/335 331/402/337
f 300/365/303 299/335/274 323/400/319 324/403/338
f 293/366/304 292/362/300 316/401/336 317/404/339
f 308/367/305 307/364/302 331/402/337 332/405/340
f 301/368/306 300/365/303 324/403/338 325/406/341
f 294/369/307 293/366/304 317/404/339 318/407/342
f 309/358/296 308/367/305 332/405/340 333/359/297
f 302/370/308 301/368/306 325/406/341 326/386/323
f 295/371/309 294/369/307 318/407/342 319/408/325
f 351/409/343 350/410/344 374/411/345 375/412/346
f 316/413/336 315/414/334 339/415/347 340/416/348
f 331/417/337 330/418/335 354/419/349 355/420/350
f 324/421/338 323/382/319 347/385/322 348/422/351
f 317/423/339 316/413/336 340/416/348 341/424/352
f 332/425/340 331/417/337 355/420/350 356/426/353
f 325/427/341 324/421/338 348/422/351 349/428/354
f 318/429/342 317/423/339 341/424/352 342/430/355
f 333/431/297 332/425/340 356/426/353 357/432/356
f 326/433/323 325/427/341 349/428/354 350/434/344
f 319/435/325 318/429/342 342/430/355 343/436/357
f 334/437/298 333/431/297 357/432/356 358/438/358
f 327/439/324 326/433/323 350/434/344 351/440/343
f 320/441/326 319/442/325 343/443/357 344/444/359
f 335/445/327 334/437/298 358/438/358 359/446/360
f 328/447/328 327/439/324 351/440/343 352/448/361
f 321/449/329 320/441/326 344/444/359 345/450/362
f 336/451/330 335/445/327 359/446/360 360/452/363
f 313/453/332 314/454/331 338/455/364 337/456/365
f 329/457/333 328/447/328 352/448/361 353/458/366
f 322/383/320 321/449/329 345/450/362 346/384/321
f 314/454/331 336/451/330 360/452/363 338/455/364
f 315/414/334 313/453/332 337/456/365 339/415/347
f 330/418/335 329/457/333 353/458/366 354/419/349
f 364/459/367 363/460/368 387/461/369 388/462/370
f 344/463/359 343/464/357 367/465/371 368/466/372
f 359/467/360 358/468/358 382/469/373 383/470/374
f 352/471/361 351/409/343 375/412/346 376/472/375
f 345/473/362 344/463/359 368/466/372 369/474/376
f 360/475/363 359/467/360 383/470/374 384/476/377
f 337/477/365 338/478/364 362/479/378 361/480/379
f 353/481/366 352/471/361 376/472/375 377/482/380
f 346/483/321 345/473/362 369/474/376 370/484/381
f 338/478/364 360/475/363 384/476/377 362/479/378
f 339/485/347 337/477/365 361/480/379 363/486/368
f 354/487/349 353/481/366 377/482/380 378/488/382
f 347/489/322 346/483/321 370/484/381 371/490/383
f 340/491/348 339/485/347 363/486/368 364/492/367
f 355/493/350 354/487/349 378/488/382 379/494/384
f 348/495/351 347/489/322 371/490/383 372/496/385
f 341/497/352 340/491/348 364/492/367 365/498/386
f 356/499/353 355/493/350 379/494/384 380/500/387
f 349/501/354 348/495/351 372/496/385 373/502/388
f 342/503/355 341/497/352 365/498/386 366/504/389
f 357/505/356 356/499/353 380/500/387 381/506/390
f 350/410/344 349/501/354 373/502/388 374/411/345
f 343/507/357 342/503/355 366/504/389 367/508/371
f 358/468/358 357/505/356 381/506/390 382/469/373
f 399/509/391 398/510/392 422/511/393 423/512/394
f 379/513/384 378/514/382 402/515/395 403/516/396
f 372/517/385 371/518/383 395/519/397 396/520/398
f 365/521/386 364/459/367 388/462/370 389/522/399
f 380/523/387 379/513/384 403/516/396 404/524/400
f 373/525/388 372/517/385 396/520/398 397/526/401
f 366/527/389 365/521/386 389/522/399 390/528/402
f 381/529/390 380/523/387 404/524/400 405/530/403
f 374/531/345 373/525/388 397/526/401 398/532/392
f 367/533/371 366/527/389 390/528/402 391/534/404
f 382/535/373 381/529/390 405/530/403 406/536/405
f 375/537/346 374/531/345 398/532/392 399/538/391
f 368/539/372 367/540/371 391/541/404 392/542/406
f 383/543/374 382/535/373 406/536/405 407/544/407
f 376/545/375 375/537/346 399/538/391 400/546/408
f 369/547/376 368/539/372 392/542/406 393/548/409
f 384/549/377 383/543/374 407/544/407 408/550/410
f 361/551/379 362/552/378 386/553/411 385/554/412
f 377/555/380 376/545/375 400/546/408 401/556/413
f 370/557/381 369/547/376 393/548/409 394/558/414
f 362/552/378 384/549/377 408/550/410 386/553/411
f 363/460/368 361/551/379 385/554/412 387/461/369
f 378/514/382 377/555/380 401/556/413 402/515/395
f 371/518/383 370/557/381 394/558/414 395/519/397
f 392/559/406 391/560/404 415/561/415 416/562/416
f 407/563/407 406/564/405 430/565/417 431/566/418
f 400/567/408 399/509/391 423/512/394 424/568/419
f 393/569/409 392/559/406 416/562/416 417/570/420
f 408/571/410 407/563/407 431/566/418 432/572/421
f 385/573/412 386/574/411 410/575/422 409/576/423
f 401/577/413 400/567/408 424/568/419 425/578/424
f 394/579/414 393/569/409 417/570/420 418/580/425
f 386/574/411 408/571/410 432/572/421 410/575/422
f 387/581/369 385/573/412 409/576/423 411/582/426
f 402/583/395 401/577/413 425/578/424 426/584/427
f 395/585/397 394/579/414 418/580/425 419/586/428
f 388/587/370 387/581/369 411/582/426 412/588/429
f 403/589/396 402/583/395 426/584/427 427/590/430
f 396/591/398 395/585/397 419/586/428 420/592/431
f 389/593/399 388/587/370 412/588/429 413/594/432
f 404/595/400 403/589/396 427/590/430 428/596/433
f 397/597/401 396/591/398 420/592/431 421/598/434
f 390/599/402 389/593/399 413/594/432 414/600/435
f 405/601/403 404/595/400 428/596/433 429/602/436
f 398/510/392 397/597/401 421/598/434 422/511/393
f 391/603/404 390/599/402 414/600/435 415/604/415
f 406/564/405 405/601/403 429/602/436 430/565/417
f 447/605/437 448/606/438 472/607/439 471/608/440
f 27/609/441 29/610/442 447/605/437 446/611/443
f 37/612/444 39/613/445 452/614/446 451/615/447
f 47/616/448 1/617/449 433/618/450 456/619/451
f 3/620/452 5/621/453 435/622/454 434/623/455
f 13/624/456 15/625/457 440/626/458 439/627/459
f 23/628/460 25/629/461 445/630/462 444/631/463
f 33/632/464 35/633/465 450/634/466 449/635/467
f 43/636/468 45/637/469 455/638/470 454/639/471
f 9/640/472 11/641/473 438/642/474 437/643/475
f 19/54/52 21/644/476 443/645/477 442/55/53
f 29/610/442 31/646/478 448/606/438 447/605/437
f 39/613/445 41/647/479 453/648/480 452/614/446
f 5/621/453 7/649/481 436/650/482 435/622/454
f 15/625/457 17/53/51 441/56/54 440/626/458
f 1/617/449 3/620/452 434/623/455 433/618/450
f 25/629/461 27/609/441 446/611/443 445/630/462
f 35/633/465 37/612/444 451/615/447 450/634/466
f 45/637/469 47/616/448 456/619/451 455/638/470
f 11/641/473 13/651/456 439/652/459 438/642/474
f 21/644/476 23/628/460 444/631/463 443/645/477
f 31/646/478 33/632/464 449/635/467 448/606/438
f 41/647/479 43/636/468 454/639/471 453/648/480
f 7/649/481 9/640/472 437/643/475 436/650/482
f 460/653/483 461/654/484 485/655/485 484/656/486
f 440/626/458 441/56/54 465/657/487 464/658/488
f 455/638/470 456/619/451 480/659/489 479/660/490
f 433/618/450 434/623/455 458/661/491 457/662/492
f 448/606/438 449/635/467 473/663/493 472/607/439
f 441/56/54 442/55/53 466/664/494 465/657/487
f 456/619/451 433/618/450 457/662/492 480/659/489
f 434/623/455 435/622/454 459/665/495 458/661/491
f 449/635/467 450/634/466 474/666/496 473/663/493
f 442/55/53 443/645/477 467/667/497 466/664/494
f 435/622/454 436/650/482 460/653/483 459/665/495
f 450/634/466 451/615/447 475/668/498 474/666/496
f 443/645/477 444/631/463 468/669/499 467/667/497
f 436/650/482 437/643/475 461/654/484 460/653/483
f 451/615/447 452/614/446 476/670/500 475/668/498
f 444/631/463 445/630/462 469/671/501 468/669/499
f 437/643/475 438/642/474 462/672/502 461/654/484
f 452/614/446 453/648/480 477/673/503 476/670/500
f 445/630/462 446/611/443 470/674/504 469/671/501
f 438/642/474 439/652/459 463/675/505 462/672/502
f 453/648/480 454/639/471 478/676/506 477/673/503
f 446/611/443 447/605/437 471/608/440 470/674/504
f 439/627/459 440/626/458 464/658/488 463/677/505
f 454/639/471 455/638/470 479/660/490 478/676/506
f 475/668/498 476/670/500 500/678/507 499/679/508
f 468/669/499 469/671/501 493/680/509 492/681/510
f 461/654/484 462/672/502 486/682/511 485/655/485
f 476/670/500 477/673/503 501/683/512 500/678/507
f 469/671/501 470/674/504 494/684/513 493/680/509
f 462/672/502 463/675/505 487/685/514 486/682/511
f 477/673/503 478/676/506 502/686/515 501/683/512
f 470/674/504 471/608/440 495/687/516 494/684/513
f 463/677/505 464/658/488 488/688/517 487/689/514
f 478/676/506 479/660/490 503/690/518 502/686/515
f 471/608/440 472/607/439 496/691/519 495/687/516
f 464/658/488 465/657/487 489/692/520 488/688/517
f 479/660/490 480/659/489 504/693/521 503/690/518
f 457/662/492 458/661/491 482/694/522 481/695/523
f 472/607/439 473/663/493 497/696/524 496/691/519
f 465/657/487 466/664/494 490/697/525 489/692/520
f 480/659/489 457/662/492 481/695/523 504/693/521
f 458/661/491 459/665/495 483/698/526 482/694/522
f 473/663/493 474/666/496 498/699/527 497/696/524
f 466/664/494 467/667/497 491/700/528 490/697/525
f 459/665/495 460/653/483 484/656/486 483/698/526
f 474/666/496 475/668/498 499/679/508 498/699/527
f 467/667/497 468/669/499 492/681/510 491/700/528
f 495/687/516 496/691/519 520/701/529 519/702/530
f 488/688/517 489/692/520 513/703/531 512/704/532
f 503/690/518 504/693/521 528/705/533 527/706/534
f 481/695/523 482/694/522 506/707/535 505/708/536
f 496/691/519 497/696/524 521/709/537 520/701/529
f 489/692/520 490/697/525 514/710/538 513/703/531
f 504/693/521 481/695/523 505/708/536 528/705/533
f 482/694/522 483/698/526 507/711/539 506/707/535
f 497/696/524 498/699/527 522/712/540 521/709/537
f 490/697/525 491/700/528 515/713/541 514/710/538
f 483/698/526 484/656/486 508/714/542 507/711/539
f 498/699/527 499/679/508 523/715/543 522/712/540
f 491/700/528 492/681/510 516/716/544 515/713/541
f 484/656/486 485/655/485 509/717/545 508/714/542
f 499/679/508 500/678/507 524/718/546 523/715/543
f 492/681/510 493/680/509 517/719/547 516/716/544
f 485/655/485 486/682/511 510/720/548 509/717/545
f 500/678/507 501/683/512 525/721/549 524/718/546
f 493/680/509 494/684/513 518/722/550 517/719/547
f 486/682/511 487/685/514 511/723/551 510/720/548
f 501/683/512 502/686/515 526/724/552 525/721/549
f 494/684/513 495/687/516 519/702/530 518/722/550
f 487/689/514 488/688/517 512/704/532 511/725/551
f 502/686/515 503/690/518 527/706/534 526/724/552
f 508/714/542 509/717/545 533/726/553 532/727/554
f 523/715/543 524/718/546 548/728/555 547/729/556
f 516/716/544 517/719/547 541/730/557 540/731/558
f 509/717/545 510/720/548 534/732/559 533/726/553
f 524/718/546 525/721/549 549/733/560 548/728/555
f 517/719/547 518/722/550 542/734/561 541/730/557
f 510/720/548 511/723/551 535/735/562 534/732/559
f 525/721/549 526/724/552 550/736/563 549/733/560
f 518/722/550 519/702/530 543/737/564 542/734/561
f 511/725/551 512/704/532 536/738/565 535/739/562
f 526/724/552 527/706/534 551/740/566 550/736/563
f 519/702/530 520/701/529 544/741/567 543/737/564
f 512/704/532 513/703/531 537/742/568 536/738/565
f 527/706/534 528/705/533 552/743/569 551/740/566
f 505/708/536 506/707/535 530/744/570 529/745/571
f 520/701/529 521/709/537 545/746/572 544/741/567
f 513/703/531 514/710/538 538/747/573 537/742/568
f 528/705/533 505/708/536 529/745/571 552/743/569
f 506/707/535 507/711/539 531/748/574 530/744/570
f 521/709/537 522/712/540 546/749/575 545/746/572
f 514/710/538 515/713/541 539/750/576 538/747/573
f 507/711/539 508/714/542 532/727/554 531/748/574
f 522/712/540 523/715/543 547/729/556 546/749/575
f 515/713/541 516/716/544 540/731/558 539/750/576
f 536/738/565 537/742/568 561/751/577 560/752/578
f 551/740/566 552/743/569 576/753/579 575/754/580
f 529/745/571 530/744/570 554/755/581 553/756/582
f 544/741/567 545/746/572 569/757/583 568/758/584
f 537/742/568 538/747/573 562/759/585 561/751/577
f 552/743/569 529/745/571 553/756/582 576/753/579
f 530/744/570 531/748/574 555/760/586 554/755/581
f 545/746/572 546/749/575 570/761/587 569/757/583
f 538/747/573 539/750/576 563/762/588 562/759/585
f 531/748/574 532/727/554 556/763/589 555/760/586
f 546/749/575 547/729/556 571/764/590 570/761/587
f 539/750/576 540/731/558 564/765/591 563/762/588
f 532/727/554 533/726/553 557/766/592 556/763/589
f 547/729/556 548/728/555 572/767/593 571/764/590
f 540/731/558 541/730/557 565/768/594 564/765/591
f 533/726/553 534/732/559 558/769/595 557/766/592
f 548/728/555 549/733/560 573/770/596 572/767/593
f 541/730/557 542/734/561 566/771/597 565/768/594
f 534/732/559 535/735/562 559/772/598 558/769/595
f 549/733/560 550/736/563 574/773/599 573/770/596
f 542/734/561 543/737/564 567/774/600 566/771/597
f 535/739/562 536/738/565 560/752/578 559/775/598
f 550/736/563 551/740/566 575/754/580 574/773/599
f 543/737/564 544/741/567 568/758/584 567/774/600
f 571/764/590 572/767/593 596/776/601 595/777/602
f 564/765/591 565/768/594 589/778/603 588/779/604
f 557/766/592 558/769/595 582/780/605 581/781/606
f 572/767/593 573/770/596 597/782/607 596/776/601
f 565/768/594 566/771/597 590/783/608 589/778/603
f 558/769/595 559/772/598 583/784/609 582/780/605
f 573/770/596 574/773/599 598/785/610 597/782/607
f 566/771/597 567/774/600 591/786/611 590/783/608
f 559/775/598 560/752/578 584/787/612 583/788/609
f 574/773/599 575/754/580 599/789/613 598/785/610
f 567/774/600 568/758/584 592/790/614 591/786/611
f 560/752/578 561/751/577 585/791/615 584/787/612
f 575/754/580 576/753/579 600/792/616 599/789/613
f 553/756/582 554/755/581 578/793/617 577/794/618
f 568/758/584 569/757/583 593/795/619 592/790/614
f 561/751/577 562/759/585 586/796/620 585/791/615
f 576/753/579 553/756/582 577/794/618 600/792/616
f 554/755/581 555/760/586 579/797/621 578/793/617
f 569/757/583 570/761/587 594/798/622 593/795/619
f 562/759/585 563/762/588 587/799/623 586/796/620
f 555/760/586 556/763/589 580/800/624 579/797/621
f 570/761/587 571/764/590 595/777/602 594/798/622
f 563/762/588 564/765/591 588/779/604 587/799/623
f 556/763/589 557/766/592 581/781/606 580/800/624
f 584/787/612 585/791/615 609/801/625 608/802/626
f 599/789/613 600/792/616 624/803/627 623/804/628
f 577/794/618 578/793/617 602/805/629 601/806/630
f 592/790/614 593/795/619 617/807/631 616/808/632
f 585/791/615 586/796/620 610/809/633 609/801/625
f 600/792/616 577/794/618 601/806/630 624/803/627
f 578/793/617 579/797/621 603/810/634 602/805/629
f 593/795/619 594/798/622 618/811/635 617/807/631
f 586/796/620 587/799/623 611/812/636 610/809/633
f 579/797/621 580/800/624 604/813/637 603/810/634
f 594/798/622 595/777/602 619/814/638 618/811/635
f 587/799/623 588/779/604 612/815/639 611/812/636
f 580/800/624 581/781/606 605/816/640 604/813/637
f 595/777/602 596/776/601 620/817/641 619/814/638
f 588/779/604 589/778/603 613/818/642 612/815/639
f 581/781/606 582/780/605 606/819/643 605/816/640
f 596/776/601 597/782/607 621/820/644 620/817/641
f 589/778/603 590/783/608 614/821/645 613/818/642
f 582/780/605 583/784/609 607/822/646 606/819/643
f 597/782/607 598/785/610 622/823/647 621/820/644
f 590/783/608 591/786/611 615/824/648 614/821/645
f 583/788/609 584/787/612 608/802/626 607/825/646
f 598/785/610 599/789/613 623/804/628 622/823/647
f 591/786/611 592/790/614 616/808/632 615/824/648
f 612/815/639 613/818/642 637/826/649 636/827/650
f 605/816/640 606/819/643 630/828/651 629/829/652
f 620/817/641 621/820/644 645/830/653 644/831/654
f 613/818/642 614/821/645 638/832/655 637/826/649
f 606/819/643 607/822/646 631/833/656 630/828/651
f 621/820/644 622/823/647 646/834/657 645/830/653
f 614/821/645 615/824/648 639/835/658 638/832/655
f 607/825/646 608/802/626 632/836/659 631/837/656
f 622/823/647 623/804/628 647/838/660 646/834/657
f 615/824/648 616/808/632 640/839/661 639/835/658
f 608/802/626 609/801/625 633/840/662 632/836/659
f 623/804/628 624/803/627 648/841/663 647/838/660
f 601/806/630 602/805/629 626/842/664 625/843/665
f 616/808/632 617/807/631 641/844/666 640/839/661
f 609/801/625 610/809/633 634/845/667 633/840/662
f 624/803/627 601/806/630 625/843/665 648/841/663
f 602/805/629 603/810/634 627/846/668 626/842/664
f 617/807/631 618/811/635 642/847/669 641/844/666
f 610/809/633 611/812/636 635/848/670 634/845/667
f 603/810/634 604/813/637 628/849/671 627/846/668
f 618/811/635 619/814/638 643/850/672 642/847/669
f 611/812/636 612/815/639 636/827/650 635/848/670
f 604/813/637 605/816/640 629/829/652 628/849/671
f 619/814/638 620/817/641 644/831/654 643/850/672
f 647/838/660 648/841/663 672/851/673 671/852/674
f 625/843/665 626/842/664 650/853/675 649/854/676
f 640/839/661 641/844/666 665/855/677 664/856/678
f 633/840/662 634/845/667 658/857/679 657/858/680
f 648/841/663 625/843/665 649/854/676 672/851/673
f 626/842/664 627/846/668 651/859/681 650/853/675
f 641/844/666 642/847/669 666/860/682 665/855/677
f 634/845/667 635/848/670 659/861/683 658/857/679
f 627/846/668 628/849/671 652/862/684 651/859/681
f 642/847/669 643/850/672 667/863/685 666/860/682
f 635/848/670 636/827/650 660/864/686 659/861/683
f 628/849/671 629/829/652 653/865/687 652/862/684
f 643/850/672 644/831/654 668/866/688 667/863/685
f 636/827/650 637/826/649 661/867/689 660/864/686
f 629/829/652 630/828/651 654/868/690 653/865/687
f 644/831/654 645/830/653 669/869/691 668/866/688
f 637/826/649 638/832/655 662/870/692 661/867/689
f 630/828/651 631/833/656 655/871/693 654/868/690
f 645/830/653 646/834/657 670/872/694 669/869/691
f 638/832/655 639/835/658 663/873/695 662/870/692
f 631/837/656 632/836/659 656/874/696 655/875/693
f 646/834/657 647/838/660 671/852/674 670/872/694
f 639/835/658 640/839/661 664/856/678 663/873/695
f 632/836/659 633/840/662 657/858/680 656/874/696
f 660/864/686 661/867/689 685/876/697 684/877/698
f 653/865/687 654/868/690 678/878/699 677/879/700
f 668/866/688 669/869/691 693/880/701 692/881/702
f 661/867/689 662/870/692 686/882/703 685/876/697
f 654/868/690 655/871/693 679/883/704 678/878/699
f 669/869/691 670/872/694 694/884/705 693/880/701
f 662/870/692 663/873/695 687/885/706 686/882/703
f 655/875/693 656/874/696 680/886/707 679/887/704
f 670/872/694 671/852/674 695/888/708 694/884/705
f 663/873/695 664/856/678 688/889/709 687/885/706
f 656/874/696 657/858/680 681/890/710 680/886/707
f 671/852/674 672/851/673 696/891/711 695/888/708
f 649/854/676 650/853/675 674/892/712 673/893/713
f 664/856/678 665/855/677 689/894/714 688/889/709
f 657/858/680 658/857/679 682/895/715 681/890/710
f 672/851/673 649/854/676 673/893/713 696/891/711
f 650/853/675 651/859/681 675/896/716 674/892/712
f 665/855/677 666/860/682 690/897/717 689/894/714
f 658/857/679 659/861/683 683/898/718 682/895/715
f 651/859/681 652/862/684 676/899/719 675/896/716
f 666/860/682 667/863/685 691/900/720 690/897/717
f 659/861/683 660/864/686 684/877/698 683/898/718
f 652/862/684 653/865/687 677/879/700 676/899/719
f 667/863/685 668/866/688 692/881/702 691/900/720
f 683/901/718 684/902/698 685/903/697 682/904/715
f 682/904/715 685/903/697 686/905/703 681/906/710
f 681/906/710 686/905/703 687/907/706 680/908/707
f 680/908/707 687/907/706 688/909/709 679/910/704
f 679/910/704 688/909/709 689/911/714 678/912/699
f 678/912/699 689/911/714 690/913/717 677/914/700
f 677/914/700 690/913/717 691/915/720 676/916/719
f 676/916/719 691/915/720 692/917/702 675/918/716
f 675/918/716 692/917/702 693/919/701 674/920/712
f 674/920/712 693/919/701 694/921/705 673/922/713
f 673/922/713 694/921/705 695/923/708 696/924/711
f 47/616/448 720/925/50 697/926/1 1/617/449
f 45/637/469 719/927/46 720/925/50 47/616/448
f 43/636/468 718/928/44 719/927/46 45/637/469
f 41/647/479 717/929/42 718/928/44 43/636/468
f 39/613/445 716/930/40 717/929/42 41/647/479
f 37/612/444 715/931/38 716/930/40 39/613/445
f 35/633/465 714/932/36 715/931/38 37/612/444
f 33/632/464 713/933/34 714/932/36 35/633/465
f 31/646/478 712/934/32 713/933/34 33/632/464
f 29/610/442 711/935/30 712/934/32 31/646/478
f 27/609/441 710/936/28 711/935/30 29/610/442
f 25/629/461 709/937/26 710/936/28 27/609/441
f 23/628/460 708/938/24 709/937/26 25/629/461
f 21/644/476 707/939/22 708/938/24 23/628/460
f 19/54/52 706/940/20 707/939/22 21/644/476
f 17/53/51 705/941/18 706/940/20 19/54/52
f 15/625/457 704/942/16 705/941/18 17/53/51
f 13/624/456 703/943/14 704/942/16 15/625/457
f 11/641/473 702/944/12 703/945/14 13/651/456
f 9/640/472 701/946/10 702/944/12 11/641/473
f 7/649/481 700/947/8 701/946/10 9/640/472
f 5/621/453 699/948/6 700/947/8 7/649/481
f 3/620/452 698/949/4 699/948/6 5/621/453
f 1/617/449 697/926/1 698/949/4 3/620/452
f 415/950/415 414/951/435 721/952/721 416/953/416
f 414/951/435 413/954/432 726/955/722 721/952/721
f 413/954/432 412/956/429 731/957/723 726/955/722
f 412/956/429 411/958/426 736/959/724 731/957/723
f 411/958/426 409/960/423 741/961/725 736/959/724
f 409/960/423 410/962/422 432/963/421 741/961/725
f 416/953/416 721/952/721 722/964/726 417/965/420
f 721/952/721 726/955/722 727/966/727 722/964/726
f 726/955/722 731/957/723 732/967/728 727/966/727
f 731/957/723 736/959/724 737/968/729 732/967/728
f 736/959/724 741/961/725 742/969/730 737/968/729
f 741/961/725 432/963/421 431/970/418 742/969/730
f 417/965/420 722/964/726 723/971/731 418/972/425
f 722/964/726 727/966/727 728/973/732 723/971/731
f 727/966/727 732/967/728 733/974/733 728/973/732
f 732/967/728 737/968/729 738/975/734 733/974/733
f 737/968/729 742/969/730 743/976/735 738/975/734
f 742/969/730 431/970/418 430/977/417 743/976/735
f 418/972/425 723/971/731 724/978/736 419/979/428
f 723/971/731 728/973/732 729/980/737 724/978/736
f 728/973/732 733/974/733 734/981/738 729/980/737
f 733/974/733 738/975/734 739/982/739 734/981/738
f 738/975/734 743/976/735 744/983/740 739/982/739
f 743/976/735 430/977/417 429/984/436 744/983/740
f 419/979/428 724/978/736 725/985/741 420/986/431
f 724/978/736 729/980/737 730/987/742 725/985/741
f 729/980/737 734/981/738 735/988/743 730/987/742
f 734/981/738 739/982/739 740/989/744 735/988/743
f 739/982/739 744/983/740 745/990/745 740/989/744
f 744/983/740 429/984/436 428/991/433 745/990/745
f 420/986/431 725/985/741 422/992/393 421/993/434
f 725/985/741 730/987/742 423/994/394 422/992/393
f 730/987/742 735/988/743 424/995/419 423/994/394
f 735/988/743 740/989/744 425/996/424 424/995/419
f 740/989/744 745/990/745 426/997/427 425/996/424
f 745/990/745 428/991/433 427/998/430 426/997/427
