# Blender 5.0.1
# www.blender.org
mtllib Harina y Yerba.mtl
o Haina
v -14.443445 0.013248 0.327741
v -14.444902 2.010903 0.324558
v -14.445035 0.052571 -0.318865
v -14.444908 2.011061 -0.324561
v -13.690818 -0.001426 0.324748
v -13.700902 2.010903 0.324558
v -13.701824 0.010810 -0.323360
v -13.700899 2.011358 -0.324565
v -13.744075 2.026284 -0.296594
v -14.444902 2.011569 -0.299751
v -13.744075 2.011569 -0.296594
v -14.443682 0.036593 0.285011
v -13.678207 0.005585 0.289137
v -13.700902 2.010903 0.295350
v -14.444902 2.037004 0.295199
v -13.700902 2.037004 0.295199
v -13.700902 2.015199 0.295199
v -14.444902 2.013051 0.295415
v -13.700902 2.012026 0.295461
v -13.700902 2.013242 0.295486
v -13.700902 2.014363 0.295405
v -13.700902 2.022346 0.319589
v -13.700902 2.028380 0.312561
v -13.700902 2.034552 0.304192
v -14.444902 2.022346 0.319589
v -14.444902 2.028380 0.312561
v -14.444902 2.034552 0.304192
v -13.744075 2.027374 -0.295631
v -13.729282 2.019560 0.181466
v -13.744075 2.044580 -0.295631
v -13.729282 2.010325 0.181466
v -14.444902 2.014942 0.181466
v -14.444902 2.037395 -0.303111
v -13.744075 2.018802 -0.300495
v -13.744075 2.028095 -0.301595
v -13.744075 2.037376 -0.299954
v -13.744075 2.026525 -0.296736
v -13.744075 2.026833 -0.296582
v -13.744075 2.027139 -0.296194
v -14.444902 2.026833 -0.299505
v -13.704398 0.005070 -0.013956
v -13.701118 2.014619 -0.014609
v -14.450192 1.010186 -0.402260
v -13.703619 1.010679 -0.323969
v -13.701232 1.010590 0.324535
v -13.702375 1.010378 0.295433
v -13.679250 1.010828 -0.014501
v -14.442875 1.271113 0.375332
v -14.443827 1.518610 0.358055
v -14.444303 1.764796 0.341355
v -14.444548 1.755800 -0.325902
v -14.444366 1.513395 -0.354414
v -14.446400 1.266590 -0.377637
v -13.700995 1.761293 -0.324526
v -13.701289 1.511338 -0.324507
v -13.701081 1.261310 -0.324577
v -13.700902 1.760903 0.324558
v -13.700902 1.510903 0.324558
v -13.700924 1.260911 0.324603
v -13.700902 1.760903 0.295350
v -13.700902 1.510903 0.295350
v -13.700880 1.260913 0.295390
v -13.802314 1.760538 -0.014594
v -13.802112 1.510175 -0.014580
v -13.697481 1.259241 -0.014582
v -14.441094 0.757688 -0.433734
v -14.443876 0.506694 -0.398878
v -14.446146 0.282227 -0.352549
v -13.706665 0.761417 -0.323802
v -13.702049 0.511771 -0.325277
v -13.699684 0.261598 -0.325101
v -13.700130 0.760464 0.324784
v -13.698527 0.510011 0.325022
v -13.690284 0.259458 0.329439
v -13.703234 0.759700 0.295704
v -13.700627 0.509733 0.294962
v -13.663011 0.258454 0.297847
v -13.655646 0.757935 -0.014289
v -13.626449 0.503216 -0.016059
v -13.639291 0.249084 -0.016205
v -13.887188 0.010569 -0.322936
v -14.074478 0.021965 -0.322473
v -14.260716 0.039334 -0.322486
v -14.259266 2.011290 -0.324564
v -14.073149 2.011520 -0.324570
v -13.887029 2.011484 -0.324567
v -14.258010 0.015498 0.327368
v -14.071911 0.018767 0.326093
v -13.884910 0.010959 0.324274
v -13.887009 2.010903 0.324558
v -14.073116 2.010903 0.324558
v -14.259224 2.010903 0.324558
v -13.919390 2.026284 -0.297383
v -14.094704 2.026284 -0.298173
v -14.270018 2.026284 -0.298962
v -13.919390 2.011569 -0.297383
v -14.094704 2.011569 -0.298173
v -14.270018 2.011569 -0.298962
v -14.259224 2.010903 0.295350
v -14.073116 2.010903 0.295350
v -13.887009 2.010903 0.295350
v -13.884018 0.014251 0.294902
v -14.070972 0.042383 0.294922
v -14.256824 0.042231 0.289674
v -13.887009 2.015199 0.295199
v -14.073116 2.015199 0.295199
v -14.259224 2.015199 0.295199
v -14.259224 2.037004 0.295199
v -14.073116 2.037004 0.295199
v -13.887009 2.037004 0.295199
v -13.887009 2.011980 0.295478
v -14.073116 2.011934 0.295494
v -14.259224 2.011888 0.295511
v -13.887009 2.013194 0.295503
v -14.073116 2.013146 0.295521
v -14.259224 2.013099 0.295538
v -13.887009 2.014337 0.295415
v -14.073116 2.014311 0.295424
v -14.259224 2.014285 0.295434
v -14.259224 2.022346 0.319589
v -14.073116 2.022346 0.319589
v -13.887009 2.022346 0.319589
v -14.259224 2.028380 0.312561
v -14.073116 2.028380 0.312561
v -13.887009 2.028380 0.312561
v -14.259224 2.034552 0.304192
v -14.073116 2.034552 0.304192
v -13.887009 2.034552 0.304192
v -13.908295 2.010325 0.181466
v -14.087307 2.010325 0.181466
v -14.266319 2.010325 0.181466
v -14.266319 2.019560 0.181466
v -14.087307 2.019560 0.181466
v -13.908295 2.019560 0.181466
v -14.270018 2.044580 -0.297999
v -14.094704 2.044580 -0.297210
v -13.919390 2.044580 -0.296421
v -13.919390 2.027374 -0.296421
v -14.094704 2.027374 -0.297210
v -14.270018 2.027374 -0.297999
v -13.919390 2.018806 -0.301284
v -14.094704 2.018808 -0.302074
v -14.270018 2.018812 -0.302863
v -13.919390 2.028100 -0.302384
v -14.094704 2.028105 -0.303173
v -14.270018 2.028110 -0.303963
v -13.919390 2.037381 -0.300743
v -14.094704 2.037385 -0.301532
v -14.270018 2.037390 -0.302321
v -14.270018 2.026527 -0.299103
v -14.094704 2.026526 -0.298314
v -13.919390 2.026525 -0.297525
v -14.270018 2.026836 -0.298950
v -14.094704 2.026835 -0.298161
v -13.919390 2.026834 -0.297371
v -14.270018 2.027141 -0.298562
v -14.094704 2.027140 -0.297773
v -13.919390 2.027139 -0.296983
v -13.881114 0.116543 -0.013944
v -14.072239 0.092322 -0.013767
v -14.257415 0.056882 -0.014116
v -14.259224 2.010903 -0.014604
v -14.073116 2.010903 -0.014604
v -13.887042 2.008492 -0.014605
v -13.890037 1.013240 0.334854
v -14.066959 1.017885 0.368833
v -14.251206 1.017182 0.413635
v -14.254371 1.018261 -0.389989
v -14.074186 1.013669 -0.362748
v -13.895061 1.013607 -0.326381
v -13.890052 1.261621 0.330327
v -14.070618 1.266325 0.354857
v -14.250772 1.275305 0.381551
v -13.888246 1.511115 0.324772
v -14.072665 1.513250 0.340980
v -14.256572 1.515927 0.352843
v -13.887009 1.760903 0.324558
v -14.073610 1.760814 0.324596
v -14.258958 1.761952 0.335314
v -14.258986 1.264845 -0.369011
v -14.072838 1.264873 -0.354599
v -13.892678 1.262806 -0.328683
v -14.258460 1.517140 -0.353564
v -14.071362 1.516878 -0.350337
v -13.889513 1.511553 -0.325851
v -14.259062 1.756859 -0.326065
v -14.073419 1.759796 -0.325660
v -13.887081 1.761485 -0.324569
v -14.259372 0.285174 -0.341042
v -14.074212 0.268994 -0.340405
v -13.887567 0.263030 -0.325427
v -14.256125 0.516135 -0.378929
v -14.068475 0.513434 -0.366031
v -13.899241 0.513501 -0.321610
v -14.255249 0.763332 -0.391982
v -14.071629 0.764354 -0.367678
v -13.902216 0.761361 -0.323297
v -13.884836 0.263381 0.332217
v -14.067165 0.263510 0.361185
v -14.255637 0.262616 0.375617
v -13.885673 0.513453 0.338711
v -14.065446 0.517247 0.368475
v -14.253324 0.517864 0.393190
v -13.885920 0.763793 0.337583
v -14.065080 0.765208 0.366543
v -14.253001 0.763710 0.389195
v -13.705605 0.006873 -0.169733
v -14.444560 0.092817 -0.169166
v -13.700904 2.011289 -0.169570
v -14.444913 2.010907 -0.169581
v -13.704742 1.010274 -0.169089
v -13.708331 1.259484 -0.169720
v -13.756642 1.511338 -0.169767
v -13.778496 1.761772 -0.169548
v -13.726253 0.260782 -0.168348
v -13.712365 0.509014 -0.167996
v -13.703838 0.759580 -0.168384
v -14.259237 2.010498 -0.169589
v -14.073130 2.011253 -0.169598
v -13.887033 2.011932 -0.169598
v -14.258317 0.107549 -0.169229
v -14.070391 0.109926 -0.169979
v -13.891404 0.026450 -0.168039
v -14.445376 0.025293 0.138209
v -13.700902 2.010903 0.140373
v -13.701607 0.010372 0.140901
v -13.689279 1.010486 0.140579
v -13.694995 1.261247 0.140417
v -13.750103 1.510629 0.140214
v -13.777328 1.760609 0.140331
v -13.683306 0.261521 0.139889
v -13.654242 0.509790 0.140474
v -13.661480 0.761245 0.140607
v -14.257750 0.039267 0.139352
v -14.071608 0.056686 0.140329
v -13.885300 0.071854 0.141199
v -14.259224 2.010903 0.140373
v -14.073116 2.010903 0.140373
v -13.887009 2.010903 0.140373
v -15.185485 0.016482 0.324287
v -15.188797 2.012328 0.324868
v -15.169568 0.044670 -0.295605
v -15.188915 2.012218 -0.325026
v -15.146572 2.025742 -0.295247
v -15.144928 2.011984 -0.297822
v -15.182265 0.020926 0.290002
v -15.189004 2.012376 0.295591
v -15.188847 2.038402 0.295325
v -15.188916 2.016588 0.295296
v -15.188958 2.013634 0.295854
v -15.188947 2.014711 0.295715
v -15.188934 2.015836 0.295588
v -15.188828 2.023664 0.319857
v -15.188848 2.030027 0.312795
v -15.188858 2.035956 0.304428
v -15.146406 2.027717 -0.294008
v -15.160511 2.019559 0.181494
v -15.144868 2.044075 -0.296897
v -15.160512 2.010325 0.181491
v -14.444902 2.044580 -0.298788
v -14.444902 2.023465 -0.304202
v -15.146647 2.018205 -0.301336
v -15.146632 2.028266 -0.302606
v -15.146723 2.038178 -0.300674
v -15.147290 2.026486 -0.296161
v -15.146943 2.025712 -0.296130
v -15.146948 2.025951 -0.295868
v -15.160467 0.057314 -0.014267
v -14.446050 0.031226 -0.014786
v -15.187728 2.033400 -0.014509
v -14.445461 2.010902 -0.014602
v -14.447350 1.019072 0.393158
v -15.181907 1.010005 -0.322962
v -15.184848 1.011332 0.323854
v -15.187132 1.010780 0.294744
v -15.218843 1.010928 -0.015059
v -15.189294 1.762181 -0.326014
v -15.187337 1.510511 -0.326574
v -15.186235 1.260726 -0.324030
v -15.189255 1.761822 0.325673
v -15.187878 1.510981 0.325547
v -15.185391 1.260968 0.324079
v -15.191456 1.762662 0.297231
v -15.189496 1.510846 0.297120
v -15.178799 1.261981 0.294210
v -15.158627 1.767253 -0.014897
v -15.185024 1.514811 -0.015133
v -15.223035 1.260220 -0.015165
v -15.187422 0.761963 -0.320123
v -15.188648 0.508791 -0.318448
v -15.186172 0.259022 -0.310867
v -15.187807 0.760572 0.324112
v -15.188883 0.510758 0.325263
v -15.193400 0.260843 0.326968
v -15.184515 0.760260 0.294706
v -15.185637 0.509807 0.295625
v -15.197171 0.260080 0.293878
v -15.229650 0.757469 -0.015254
v -15.224750 0.506181 -0.015846
v -15.210791 0.259277 -0.015340
v -14.445157 0.256346 0.382954
v -14.445602 0.515850 0.402516
v -14.447757 0.764918 0.396605
v -15.006404 0.043091 -0.300923
v -14.818223 0.057958 -0.307726
v -14.630111 0.063597 -0.312103
v -14.630597 2.010864 -0.324559
v -14.816714 2.010814 -0.324557
v -15.002698 2.011083 -0.324680
v -14.629210 0.012239 0.327606
v -14.816661 0.014704 0.325699
v -15.002988 0.021309 0.323715
v -15.002731 2.011354 0.324636
v -14.816658 2.011023 0.324575
v -14.630579 2.010905 0.324558
v -14.970418 2.026294 -0.297368
v -14.795102 2.026284 -0.298169
v -14.619787 2.026284 -0.298962
v -14.970417 2.011580 -0.297373
v -14.795102 2.011569 -0.298171
v -14.619787 2.011569 -0.298962
v -14.630673 2.010924 0.295324
v -14.816875 2.010853 0.295328
v -15.002905 2.010463 0.295397
v -15.003489 0.021615 0.287546
v -14.817749 0.035202 0.293431
v -14.630973 0.035415 0.290247
v -15.002811 2.014913 0.295246
v -14.816699 2.015154 0.295213
v -14.630586 2.015194 0.295200
v -14.630574 2.037004 0.295200
v -14.816649 2.037050 0.295215
v -15.002764 2.037144 0.295250
v -15.002861 2.011672 0.295421
v -14.816727 2.011869 0.295552
v -14.630610 2.011880 0.295535
v -15.002831 2.012865 0.295532
v -14.816712 2.013071 0.295510
v -14.630594 2.013098 0.295543
v -15.002822 2.014036 0.295474
v -14.816707 2.014241 0.295433
v -14.630589 2.014278 0.295433
v -14.630578 2.022347 0.319589
v -14.816643 2.022466 0.319607
v -15.002748 2.023068 0.319707
v -14.630577 2.028380 0.312561
v -14.816653 2.028419 0.312571
v -15.002761 2.028675 0.312622
v -14.630577 2.034552 0.304191
v -14.816662 2.034564 0.304200
v -15.002766 2.034702 0.304246
v -14.981500 2.010325 0.181475
v -14.802492 2.010325 0.181470
v -14.623478 2.010325 0.181467
v -14.623476 2.019560 0.181468
v -14.802487 2.019560 0.181471
v -14.981499 2.019560 0.181483
v -14.619787 2.044580 -0.297999
v -14.795105 2.044574 -0.297202
v -14.970423 2.044524 -0.296368
v -14.970424 2.027330 -0.296371
v -14.795105 2.027372 -0.297200
v -14.619787 2.027374 -0.297999
v -14.970417 2.018817 -0.301275
v -14.795102 2.018808 -0.302073
v -14.619787 2.018812 -0.302863
v -14.970419 2.028127 -0.302367
v -14.795103 2.028107 -0.303173
v -14.619787 2.028110 -0.303963
v -14.970420 2.037384 -0.300702
v -14.795103 2.037385 -0.301528
v -14.619787 2.037390 -0.302321
v -14.619787 2.026527 -0.299103
v -14.795102 2.026526 -0.298311
v -14.970416 2.026576 -0.297500
v -14.619787 2.026836 -0.298950
v -14.795102 2.026836 -0.298156
v -14.970417 2.026837 -0.297332
v -14.619787 2.027141 -0.298562
v -14.795103 2.027140 -0.297767
v -14.970418 2.027115 -0.296942
v -15.001030 0.055037 -0.014471
v -14.817632 0.064501 -0.015429
v -14.634849 0.042781 -0.015562
v -14.631780 2.010256 -0.014608
v -14.817486 2.006761 -0.014568
v -15.003893 1.986035 -0.014556
v -14.999968 1.013096 0.336872
v -14.817187 1.015996 0.359995
v -14.633406 1.018388 0.379197
v -14.639890 1.014080 -0.401994
v -14.826125 1.013973 -0.381777
v -14.999846 1.011671 -0.346527
v -14.999788 1.263053 0.338580
v -14.815902 1.265979 0.354949
v -14.630843 1.268390 0.366601
v -15.001494 1.512074 0.332108
v -14.817284 1.516629 0.351870
v -14.630238 1.516476 0.353788
v -15.002624 1.760820 0.323125
v -14.816016 1.760976 0.331316
v -14.630754 1.763545 0.340955
v -14.635227 1.264475 -0.376352
v -14.821316 1.266459 -0.365173
v -14.997106 1.259064 -0.333637
v -14.632545 1.515871 -0.355015
v -14.818197 1.514573 -0.349002
v -15.000332 1.509449 -0.322870
v -14.629730 1.757772 -0.325148
v -14.816371 1.760059 -0.324798
v -15.002594 1.760487 -0.324304
v -14.632377 0.260285 -0.366810
v -14.825850 0.243525 -0.372883
v -15.015951 0.252022 -0.350250
v -14.637182 0.506000 -0.395159
v -14.830146 0.506002 -0.390386
v -15.018497 0.506145 -0.369991
v -14.637144 0.756946 -0.408203
v -14.823470 0.759273 -0.383557
v -15.000562 0.761240 -0.352198
v -15.004599 0.262196 0.335491
v -14.820261 0.260248 0.359417
v -14.633789 0.258800 0.374284
v -15.004551 0.512550 0.342355
v -14.822540 0.515140 0.368339
v -14.636699 0.515809 0.390912
v -15.000776 0.762574 0.333546
v -14.821722 0.765911 0.365578
v -14.635912 0.767053 0.385399
v -15.154406 0.060332 -0.164157
v -15.189524 2.017190 -0.169818
v -15.140283 1.009031 -0.170265
v -15.170054 1.256404 -0.170134
v -15.151690 1.513016 -0.169793
v -15.121814 1.761761 -0.169779
v -15.201689 0.260691 -0.168724
v -15.186616 0.507112 -0.169640
v -15.192645 0.757803 -0.170332
v -14.631158 2.010951 -0.169603
v -14.817311 2.010550 -0.169532
v -15.003474 2.006732 -0.169554
v -14.631680 0.109685 -0.169633
v -14.816931 0.068011 -0.168555
v -14.999217 0.032787 -0.164771
v -15.189881 2.022486 0.140579
v -14.445417 2.010903 0.140343
v -15.173508 0.036853 0.140406
v -15.203058 1.010352 0.139798
v -15.200519 1.262129 0.139649
v -15.195899 1.515983 0.139767
v -15.140451 1.759035 0.139831
v -15.210917 0.257411 0.140165
v -15.226115 0.507795 0.140107
v -15.203046 0.757621 0.139883
v -14.633490 0.022935 0.139509
v -14.819520 0.030350 0.140076
v -15.004526 0.051289 0.140059
v -14.631930 2.010586 0.140363
v -14.818119 2.009116 0.140323
v -15.004192 1.987800 0.140349
v -13.722488 2.048136 -0.000216
v -13.722488 2.028630 -0.000216
v -13.903199 2.048136 -0.000611
v -14.083910 2.048136 -0.001005
v -14.264621 2.048136 -0.001400
v -14.264621 2.028630 -0.001400
v -14.083910 2.028630 -0.001005
v -13.903199 2.028630 -0.000611
v -15.166857 2.048582 -0.000786
v -15.167662 2.029496 0.000644
v -14.986593 2.048177 -0.000559
v -14.805878 2.048156 -0.000994
v -14.625180 2.048136 -0.001400
v -14.625187 2.028628 -0.001400
v -14.805902 2.028607 -0.000993
v -14.986617 2.028465 -0.000563
v -14.444902 2.048136 -0.001795
v -14.444902 2.027286 -0.002045
v -13.711695 2.043743 0.147492
v -15.177852 2.044665 0.147269
v -14.444902 2.043743 0.146702
v -13.711695 2.023088 0.147492
v -13.895104 2.043743 0.147294
v -14.078513 2.043743 0.147097
v -14.261923 2.043743 0.146900
v -14.261923 2.023088 0.146900
v -14.078513 2.023088 0.147097
v -13.895104 2.023088 0.147294
v -15.178288 2.024215 0.147970
v -14.994678 2.043834 0.147346
v -14.811263 2.043776 0.147111
v -14.627877 2.043743 0.146900
v -14.627886 2.023084 0.146900
v -14.811300 2.023054 0.147110
v -14.994715 2.022862 0.147342
v -14.444902 2.021342 0.146685
v -13.733282 2.029252 -0.147924
v -13.911294 2.047607 -0.148516
v -14.089307 2.047607 -0.149108
v -14.267319 2.047607 -0.149700
v -14.267319 2.029252 -0.149700
v -14.089307 2.029252 -0.149108
v -13.911294 2.029252 -0.148516
v -15.157034 2.029856 -0.146682
v -14.978508 2.047600 -0.148464
v -14.800491 2.047614 -0.149098
v -14.622484 2.047607 -0.149699
v -14.622487 2.029250 -0.149699
v -14.800504 2.029239 -0.149096
v -14.978520 2.029147 -0.148467
v -14.444902 2.028308 -0.150775
v -13.733282 2.047607 -0.147924
v -15.155862 2.047578 -0.148842
v -14.444902 2.047607 -0.150291
vn 0.0189 0.0141 -0.9997
vn 0.0015 0.0011 -1.0000
vn 0.0001 -0.0001 -1.0000
vn 0.0019 0.0012 -1.0000
vn 0.9870 -0.0238 -0.1589
vn 0.9950 -0.0527 -0.0850
vn 1.0000 -0.0000 -0.0000
vn 0.0346 0.0539 0.9979
vn 0.0228 0.0386 0.9990
vn 0.0077 0.0614 0.9981
vn 0.0083 0.0630 0.9980
vn -0.0882 -0.9642 -0.2500
vn -0.1203 -0.9768 -0.1773
vn -0.0540 -0.9844 -0.1673
vn -0.0731 -0.9527 -0.2949
vn 0.0040 -0.4745 -0.8802
vn 0.0040 -0.4746 -0.8802
vn -0.0058 0.9998 0.0167
vn -0.0000 0.9998 0.0194
vn -0.0000 -1.0000 -0.0026
vn 0.9995 -0.0000 -0.0309
vn -0.0025 1.0000 -0.0009
vn -0.0000 1.0000 -0.0000
vn -0.0082 1.0000 0.0021
vn -0.1392 -0.9703 -0.1980
vn -0.3049 -0.9401 -0.1523
vn 0.9666 -0.0911 -0.2397
vn 0.9576 -0.2384 -0.1616
vn -0.0001 0.1176 -0.9931
vn -0.0001 0.0684 -0.9977
vn -0.0001 0.0634 -0.9980
vn -0.0001 0.1075 -0.9942
vn -0.0001 -0.0281 -0.9996
vn -0.0001 -0.0265 -0.9996
vn -0.0000 -0.1544 -0.9880
vn -0.0000 -0.1522 -0.9883
vn -0.0000 -0.2423 -0.9702
vn -0.0000 -0.2407 -0.9706
vn 1.0000 -0.0001 -0.0000
vn -0.0000 0.3983 0.9173
vn -0.0000 0.5546 0.8321
vn -0.0000 0.7817 0.6236
vn -0.0000 0.7818 0.6235
vn -0.0000 0.8939 0.4483
vn -0.0000 0.9648 0.2630
vn 0.9973 -0.0000 -0.0729
vn -0.0000 -1.0000 0.0042
vn -0.0000 -0.9999 0.0127
vn -0.0000 0.9999 -0.0120
vn 0.0001 0.9998 -0.0204
vn -0.0000 0.9998 -0.0204
vn 0.0045 -0.1175 -0.9931
vn 0.0044 0.1741 -0.9847
vn 0.0039 0.5147 -0.8573
vn 0.0039 0.5146 -0.8574
vn 1.0000 0.0001 -0.0000
vn -0.0025 0.5028 0.8644
vn -0.0025 0.5026 0.8645
vn -0.0011 0.5024 0.8646
vn -0.0034 -0.4453 0.8954
vn -0.0031 -0.5967 0.8024
vn -0.0016 -0.7933 0.6089
vn -0.0018 -0.8583 0.5131
vn -0.0011 -0.9236 0.3832
vn 0.9661 -0.0979 0.2387
vn 0.9571 -0.2409 0.1609
vn 0.9428 -0.3334 -0.0026
vn 0.9903 -0.1388 -0.0076
vn -0.1986 -0.9556 0.2175
vn -0.1944 -0.9681 0.1582
vn -0.3857 -0.9192 0.0793
vn -0.2136 -0.9763 0.0341
vn -0.0024 1.0000 0.0027
vn -0.0050 1.0000 0.0023
vn -0.0156 0.9999 0.0023
vn -0.0063 1.0000 -0.0004
vn 0.9868 0.0191 -0.1606
vn 0.9963 0.0223 -0.0828
vn 0.9957 0.0603 -0.0703
vn 0.9898 0.0655 -0.1264
vn 0.9865 0.0610 0.1523
vn 0.9956 0.0528 0.0780
vn 0.9992 0.0147 0.0361
vn 0.9971 0.0204 0.0738
vn 0.0783 -0.0151 0.9968
vn 0.0630 0.0225 0.9978
vn -0.0577 0.0342 0.9977
vn -0.0296 0.0052 0.9995
vn 0.9990 -0.0016 -0.0457
vn 0.9967 0.0044 -0.0805
vn 0.1161 -0.0023 -0.9932
vn 0.1014 -0.0004 -0.9948
vn 0.0109 -0.0063 -0.9999
vn -0.0029 -0.0036 -1.0000
vn 0.9927 0.1075 0.0548
vn 0.9846 0.1702 -0.0395
vn 0.9649 0.1159 0.2355
vn 0.9852 0.1700 -0.0210
vn 0.9917 0.1164 -0.0550
vn 0.9993 0.0284 -0.0236
vn 0.9634 0.1281 -0.2357
vn 0.9903 0.0405 -0.1332
vn 0.0574 0.0930 0.9940
vn -0.0423 0.0785 0.9960
vn 0.0489 0.0802 0.9956
vn -0.0050 0.0708 0.9975
vn 1.0000 -0.0018 -0.0090
vn 1.0000 -0.0000 0.0004
vn 0.0843 0.0056 -0.9964
vn 0.0157 -0.0001 -0.9999
vn 0.0560 0.0183 -0.9983
vn 0.0090 0.0041 -1.0000
vn 0.0179 -0.0243 -0.9995
vn 0.0448 -0.0203 -0.9988
vn -0.0044 -0.0007 -1.0000
vn -0.0003 -0.0084 -1.0000
vn 0.0967 -0.0098 -0.9953
vn -0.0096 0.0033 -0.9999
vn 0.9781 -0.0543 0.2007
vn 0.9728 0.0005 0.2317
vn 0.8956 0.0242 0.4442
vn 0.8608 -0.0396 0.5073
vn 0.9854 0.0344 0.1667
vn 0.9862 0.0522 0.1571
vn 0.0341 -0.1868 0.9818
vn 0.0553 -0.1207 0.9911
vn -0.0021 -0.1345 0.9909
vn 0.0005 -0.2053 0.9787
vn 0.0787 -0.0220 0.9967
vn -0.0061 -0.0245 0.9997
vn 0.9934 -0.1144 -0.0031
vn 0.9942 -0.0734 0.0787
vn 0.9847 0.0065 0.1740
vn 0.9953 -0.0257 -0.0933
vn 0.9873 -0.0313 -0.1556
vn 0.9882 -0.0970 -0.1187
vn 0.9892 -0.1275 -0.0718
vn 0.9780 -0.0101 -0.2084
vn 0.9871 -0.0062 -0.1603
vn 0.0566 -0.0003 0.9984
vn 0.0664 0.0048 0.9978
vn 0.1161 0.0047 0.9932
vn 0.1085 -0.0055 0.9941
vn 0.1599 -0.0078 0.9871
vn 0.1375 -0.0146 0.9904
vn 0.0235 -0.0142 0.9996
vn 0.0712 -0.0354 0.9968
vn 0.0978 -0.0821 0.9918
vn 0.0049 -0.0246 0.9997
vn 0.0417 -0.0547 0.9976
vn 0.0625 -0.1266 0.9900
vn 0.0527 -0.1311 -0.9900
vn 0.0398 -0.0121 -0.9991
vn 0.1360 -0.0101 -0.9907
vn 0.0965 -0.1084 -0.9894
vn 0.1777 -0.0044 -0.9841
vn 0.1358 -0.0524 -0.9894
vn 0.0423 -0.1620 -0.9859
vn 0.0317 -0.1237 -0.9918
vn 0.0562 -0.0720 -0.9958
vn 0.0217 -0.1536 -0.9879
vn 0.0060 -0.0907 -0.9959
vn 0.0170 -0.0565 -0.9983
vn 0.0062 0.1001 -0.9950
vn -0.0003 0.0603 -0.9982
vn 0.0024 0.0576 -0.9983
vn 0.0205 0.0846 -0.9962
vn 0.0206 0.0411 -0.9989
vn 0.0660 0.0530 -0.9964
vn 0.0182 0.0888 -0.9959
vn 0.0595 0.0664 -0.9960
vn 0.1170 0.0302 -0.9927
vn 0.0289 0.0821 -0.9962
vn 0.1106 0.0579 -0.9922
vn 0.1619 0.0215 -0.9866
vn 0.0082 0.0058 0.9999
vn 0.0003 0.0002 1.0000
vn 0.0111 0.0084 0.9999
vn 0.0426 0.0208 0.9989
vn 0.0335 0.0308 0.9990
vn 0.0812 0.0574 0.9950
vn 0.0292 0.0100 0.9995
vn 0.0824 0.0241 0.9963
vn 0.1436 0.0636 0.9876
vn 0.0522 0.0077 0.9986
vn 0.1097 0.0140 0.9939
vn 0.1774 0.0199 0.9839
vn -0.0001 1.0000 0.0011
vn -0.0008 1.0000 -0.0000
vn -0.0002 1.0000 -0.0004
vn -0.0008 1.0000 0.0013
vn 0.0023 1.0000 0.0011
vn -0.0004 1.0000 0.0037
vn -0.0069 -0.9995 -0.0318
vn 0.0446 -0.9965 0.0703
vn 0.1115 -0.9730 -0.2021
vn 0.0279 -0.9734 -0.2275
vn -0.0860 -0.9739 0.2099
vn 0.0472 -0.9935 -0.1037
vn -0.0023 -0.8578 0.5139
vn -0.0017 -0.9227 0.3856
vn -0.0017 -0.9228 0.3853
vn -0.0023 -0.8576 0.5142
vn -0.0017 -0.9234 0.3839
vn -0.0023 -0.8580 0.5136
vn -0.0035 -0.5979 0.8015
vn -0.0036 -0.5970 0.8023
vn -0.0036 -0.5969 0.8023
vn -0.0040 -0.4460 0.8950
vn -0.0040 -0.4458 0.8951
vn -0.0040 -0.4455 0.8953
vn -0.0039 0.5050 0.8631
vn -0.0039 0.5044 0.8634
vn -0.0039 0.5044 0.8635
vn -0.0039 0.5033 0.8641
vn -0.0000 0.5154 -0.8570
vn 0.0039 0.5152 -0.8571
vn 0.0039 0.5149 -0.8572
vn -0.0000 0.1169 -0.9931
vn 0.0029 0.1450 -0.9894
vn 0.0029 0.1447 -0.9895
vn 0.0044 0.1742 -0.9847
vn -0.0000 0.9999 -0.0116
vn 0.0001 0.9998 -0.0205
vn -0.0000 -1.0000 0.0029
vn -0.0000 -0.9999 0.0112
vn 0.0021 -0.9999 0.0120
vn 0.0026 -1.0000 0.0035
vn -0.0000 0.7818 0.6236
vn 0.0011 -0.0354 -0.9994
vn 0.0009 -0.2477 -0.9688
vn 0.0006 -0.1620 -0.9868
vn -0.0000 -0.2454 -0.9694
vn -0.0000 -0.1588 -0.9873
vn 0.0003 -0.0317 -0.9995
vn -0.0001 -0.0300 -0.9995
vn 0.0005 0.0867 -0.9962
vn -0.0001 0.0786 -0.9969
vn 0.0007 0.1554 -0.9878
vn -0.0001 0.1388 -0.9903
vn 0.0358 -0.9993 -0.0084
vn 0.0865 -0.9945 -0.0594
vn 0.0346 -0.9491 -0.3130
vn 0.0219 -0.9690 -0.2462
vn 0.0642 -0.9830 -0.1721
vn -0.0161 -0.9396 -0.3419
vn -0.0008 1.0000 -0.0040
vn -0.0004 1.0000 -0.0075
vn 0.0029 1.0000 -0.0035
vn 0.0014 1.0000 -0.0017
vn 0.0016 1.0000 -0.0019
vn -0.0000 -1.0000 0.0023
vn -0.0066 -1.0000 -0.0001
vn -0.0065 -1.0000 -0.0002
vn -0.0000 0.9999 0.0141
vn -0.0000 0.9999 0.0140
vn -0.0000 -0.4000 -0.9165
vn 0.0020 -0.4354 -0.9002
vn 0.0020 -0.4359 -0.9000
vn 0.0040 -0.4744 -0.8803
vn 0.0189 -0.8286 -0.5594
vn 0.0111 -0.8569 -0.5153
vn -0.0346 -0.8607 -0.5080
vn -0.0000 -0.0000 1.0000
vn 0.0001 -0.0000 1.0000
vn 0.0145 0.0108 0.9998
vn -0.0012 0.0047 -1.0000
vn 0.0003 0.0053 -1.0000
vn 0.0020 0.0036 -1.0000
vn -0.1362 -0.9118 0.3874
vn -0.1493 -0.9725 0.1788
vn -0.0146 -0.9167 0.3992
vn -0.0281 -0.9499 0.3113
vn -0.0022 1.0000 0.0014
vn 0.0002 1.0000 -0.0009
vn -0.0011 1.0000 0.0032
vn -0.0000 1.0000 0.0016
vn 0.9974 -0.0155 0.0702
vn 0.9999 -0.0061 0.0091
vn 0.9942 0.0063 0.1072
vn 0.9945 0.0365 0.0978
vn 0.9516 0.0665 0.3000
vn 0.9455 -0.0529 0.3213
vn 0.9923 0.0489 0.1137
vn 0.9999 -0.0011 0.0108
vn 0.0021 1.0000 -0.0012
vn -0.0518 -0.9980 0.0373
vn 0.9592 -0.1491 0.2400
vn -0.0132 0.0112 -0.9999
vn 0.0100 -0.0002 -1.0000
vn 0.0055 0.0012 -1.0000
vn 0.0023 0.0005 -1.0000
vn -0.9989 0.0037 -0.0475
vn -0.9985 -0.0004 0.0546
vn -0.9995 0.0052 0.0308
vn -0.9985 -0.0318 -0.0447
vn -0.0180 0.0602 0.9980
vn -0.0137 0.0568 0.9983
vn 0.0154 -0.9889 -0.1475
vn 0.0196 -0.9829 -0.1832
vn 0.0147 -0.9977 -0.0667
vn 0.0277 -0.9939 -0.1072
vn -0.0012 -0.4785 -0.8781
vn 0.0016 -0.4825 -0.8759
vn 0.0058 0.9998 0.0167
vn -0.0006 -1.0000 -0.0028
vn -0.0011 -1.0000 -0.0031
vn -0.9972 -0.0678 -0.0313
vn 0.0371 0.9990 -0.0255
vn 0.1576 0.9875 -0.0052
vn 0.0978 0.9944 -0.0409
vn 0.0196 0.9980 -0.0597
vn 0.0075 -0.9942 -0.1076
vn 0.0394 -0.9926 -0.1147
vn -0.9983 0.0090 -0.0578
vn -0.9911 -0.1192 -0.0588
vn -0.0002 0.1139 -0.9935
vn -0.0005 0.1159 -0.9933
vn -0.0011 0.0514 -0.9987
vn -0.0005 0.0600 -0.9982
vn -0.0017 -0.0458 -0.9989
vn -0.0008 -0.0301 -0.9995
vn -0.0021 -0.1808 -0.9835
vn -0.0012 -0.1622 -0.9868
vn -0.0033 -0.3046 -0.9525
vn -0.0015 -0.2727 -0.9621
vn -1.0000 0.0032 0.0054
vn -1.0000 0.0030 0.0050
vn -1.0000 0.0029 0.0032
vn -1.0000 0.0029 0.0031
vn -1.0000 0.0033 0.0012
vn -1.0000 0.0035 0.0004
vn -1.0000 0.0040 -0.0018
vn 0.0002 0.3983 0.9173
vn 0.0002 0.5551 0.8318
vn 0.0001 0.7825 0.6226
vn 0.0001 0.8938 0.4484
vn 0.0001 0.9645 0.2640
vn -0.9958 0.0550 -0.0735
vn -0.9955 0.0593 -0.0737
vn -0.9949 0.0681 -0.0741
vn -0.0017 -1.0000 0.0044
vn -0.0038 -1.0000 0.0046
vn -0.0029 -0.9999 0.0132
vn -0.0012 -0.9999 0.0128
vn -0.0001 0.9998 -0.0204
vn -0.0018 -0.1190 -0.9929
vn 0.0010 -0.1210 -0.9926
vn -0.0017 0.1801 -0.9836
vn 0.0011 0.1844 -0.9828
vn -0.0012 0.5227 -0.8525
vn 0.0017 0.5281 -0.8492
vn -0.9540 -0.1827 0.2379
vn -0.9856 -0.1128 0.1257
vn -0.9959 -0.0699 0.0574
vn -0.9980 0.0094 -0.0628
vn -0.9975 0.0128 -0.0691
vn -0.9861 0.0829 0.1442
vn -0.9932 0.0631 0.0981
vn -0.9627 0.1241 0.2405
vn 0.0025 0.5030 0.8643
vn 0.0011 0.5022 0.8648
vn 0.0034 -0.4455 0.8953
vn 0.0016 -0.7932 0.6089
vn 0.0031 -0.5971 0.8022
vn 0.0018 -0.8589 0.5121
vn 0.0011 -0.9243 0.3816
vn -0.9980 -0.0354 0.0527
vn -0.9978 -0.0153 -0.0647
vn -0.9860 -0.1643 -0.0271
vn -0.9859 -0.1576 0.0561
vn 0.0190 -0.9991 0.0370
vn 0.0077 -0.9998 -0.0189
vn -0.0274 -0.9996 -0.0089
vn -0.0923 -0.9948 0.0441
vn 0.0278 0.9993 0.0264
vn 0.0929 0.9957 0.0059
vn 0.1858 0.9823 0.0221
vn 0.0490 0.9984 0.0275
vn -0.9908 0.0516 -0.1252
vn -0.9945 0.0396 -0.0968
vn -0.9914 0.0184 -0.1298
vn -0.9929 0.0255 -0.1162
vn -0.9914 0.0251 0.1287
vn -0.9990 0.0120 0.0433
vn -0.9993 0.0081 0.0357
vn -0.9924 0.0086 0.1224
vn -0.0864 0.0209 0.9960
vn -0.0792 0.0353 0.9962
vn -0.9980 0.0023 -0.0639
vn -0.9989 0.0082 -0.0453
vn -0.1752 0.0289 -0.9841
vn -0.1884 0.0234 -0.9818
vn -0.1190 0.0154 -0.9928
vn -0.1530 0.0263 -0.9879
vn -0.9908 0.0303 -0.1318
vn -0.9963 0.0017 -0.0861
vn -0.9871 0.1163 -0.1101
vn -0.9970 0.0780 -0.0022
vn -0.9999 -0.0003 0.0144
vn -0.9955 0.0226 0.0923
vn -0.9997 0.0152 -0.0176
vn -0.9963 0.0855 0.0030
vn -0.0542 0.0474 0.9974
vn -0.0292 0.0550 0.9981
vn -0.9969 -0.0050 -0.0791
vn -0.9998 -0.0161 -0.0089
vn -0.0519 0.0198 -0.9985
vn -0.1129 0.0382 -0.9929
vn -0.0004 0.0073 -1.0000
vn -0.0571 0.0280 -0.9980
vn -0.1047 -0.2160 -0.9708
vn -0.1352 -0.1576 -0.9782
vn -0.1986 -0.1060 -0.9743
vn -0.1476 -0.1376 -0.9794
vn -0.2435 -0.0074 -0.9699
vn -0.1829 -0.0087 -0.9831
vn -0.9967 -0.0802 0.0085
vn -0.9989 -0.0472 0.0056
vn -1.0000 -0.0069 0.0066
vn -0.9981 -0.0338 0.0506
vn -0.9985 0.0180 -0.0514
vn -0.9978 0.0193 0.0642
vn -0.0349 -0.1829 0.9825
vn -0.0569 -0.1190 0.9913
vn -0.0819 -0.0203 0.9964
vn -0.9873 -0.1571 -0.0214
vn -0.9949 -0.0959 0.0316
vn -0.9941 0.0043 0.1087
vn -0.9805 -0.1953 -0.0226
vn -0.9742 -0.2190 -0.0541
vn -0.9901 -0.1236 -0.0668
vn -0.9941 -0.0891 -0.0612
vn -0.9967 -0.0106 -0.0802
vn -0.9937 -0.0012 -0.1125
vn -0.0699 0.0053 0.9975
vn -0.1084 0.0008 0.9941
vn -0.1097 0.0112 0.9939
vn -0.0659 0.0076 0.9978
vn -0.1267 -0.0103 0.9919
vn -0.1322 0.0179 0.9911
vn -0.0447 -0.0199 0.9988
vn -0.0738 -0.0411 0.9964
vn -0.0887 -0.0839 0.9925
vn -0.0209 -0.0302 0.9993
vn -0.0461 -0.0617 0.9970
vn -0.0588 -0.1276 0.9901
vn -0.0279 -0.0868 -0.9958
vn -0.0842 -0.0049 -0.9964
vn -0.0814 -0.0296 -0.9962
vn -0.1299 0.0176 -0.9914
vn 0.0227 -0.1816 -0.9831
vn -0.0404 -0.1755 -0.9837
vn 0.0239 -0.2490 -0.9682
vn -0.0254 -0.2898 -0.9568
vn -0.0159 0.0984 -0.9950
vn -0.0046 0.0579 -0.9983
vn -0.0737 0.0712 -0.9947
vn -0.0226 0.0386 -0.9990
vn -0.0336 0.0872 -0.9956
vn -0.1189 0.0688 -0.9905
vn -0.0683 0.0675 -0.9954
vn -0.1441 0.0434 -0.9886
vn -0.0337 0.0136 0.9993
vn -0.0604 0.0262 0.9978
vn -0.0252 0.0216 0.9994
vn -0.0016 0.0081 1.0000
vn -0.0605 0.0446 0.9972
vn -0.0388 0.0462 0.9982
vn -0.0654 0.0028 0.9979
vn -0.0840 0.0078 0.9964
vn -0.0814 0.0233 0.9964
vn -0.0671 -0.0048 0.9977
vn -0.0980 0.0008 0.9952
vn -0.1113 0.0186 0.9936
vn -0.0034 1.0000 0.0044
vn -0.0070 1.0000 0.0017
vn -0.0217 0.9994 0.0271
vn -0.0504 0.9986 0.0177
vn -0.0304 -0.9750 -0.2202
vn 0.0097 -0.9993 -0.0362
vn 0.0167 -0.9933 -0.1143
vn 0.1095 -0.9940 0.0059
vn 0.0085 -0.7801 0.6256
vn 0.0056 -0.8258 0.5639
vn 0.0052 -0.8566 0.5160
vn 0.0079 -0.7761 0.6306
vn 0.0023 -0.8646 0.5024
vn 0.0018 -0.9279 0.3729
vn 0.0091 -0.7835 0.6213
vn 0.0053 -0.6820 0.7313
vn 0.0034 -0.6152 0.7883
vn -0.0055 -0.3626 -0.9319
vn 0.0040 -0.4915 0.8709
vn 0.0040 -0.4680 0.8837
vn 0.0055 0.7155 0.6986
vn 0.0048 0.5792 0.8152
vn 0.0048 0.5766 0.8170
vn 0.0040 0.4827 0.8758
vn 0.0040 0.4829 0.8757
vn -0.0039 0.5154 -0.8570
vn -0.0040 0.5163 -0.8564
vn -0.0029 0.1449 -0.9894
vn -0.0029 0.1453 -0.9894
vn -0.0045 0.1751 -0.9845
vn -0.0045 -0.1175 -0.9931
vn -0.0045 -0.1172 -0.9931
vn -0.0001 0.9999 -0.0137
vn -0.0001 0.9999 -0.0130
vn -0.0008 0.9998 -0.0215
vn -0.0013 0.9998 -0.0223
vn -0.0001 0.9999 -0.0121
vn -0.0002 0.9998 -0.0206
vn -0.0026 -1.0000 0.0035
vn -0.0021 -0.9999 0.0119
vn 0.0003 -1.0000 0.0041
vn 0.0003 -0.9999 0.0125
vn 0.0066 0.8983 0.4393
vn 0.0037 0.8970 0.4421
vn 0.0037 0.9649 0.2625
vn 0.0067 0.9654 0.2608
vn 0.0005 0.8946 0.4468
vn 0.0004 0.9644 0.2646
vn 0.0054 0.7887 0.6148
vn 0.0035 0.7900 0.6131
vn 0.0009 0.7873 0.6165
vn 0.0039 0.5551 0.8318
vn 0.0026 0.5560 0.8312
vn 0.0010 0.5563 0.8310
vn 0.0026 0.3960 0.9183
vn 0.0020 0.3945 0.9189
vn 0.0009 0.3956 0.9184
vn -0.0010 -0.1005 -0.9949
vn -0.0006 -0.1600 -0.9871
vn -0.0009 -0.2435 -0.9699
vn 0.0001 -0.1494 -0.9888
vn 0.0001 -0.2416 -0.9704
vn -0.0003 -0.0449 -0.9990
vn 0.0001 -0.0306 -0.9995
vn -0.0003 -0.0039 -1.0000
vn 0.0001 0.0839 -0.9965
vn -0.0020 0.2158 -0.9764
vn -0.0010 0.2162 -0.9764
vn -0.0011 0.2160 -0.9764
vn -0.0000 0.1561 -0.9877
vn -0.0048 -0.9664 -0.2571
vn -0.0278 -0.9992 -0.0297
vn -0.0044 -0.9721 -0.2347
vn -0.0367 -0.9961 -0.0797
vn -0.0067 1.0000 -0.0061
vn -0.0054 1.0000 -0.0073
vn -0.0471 0.9985 -0.0268
vn -0.0310 0.9986 -0.0421
vn 0.0065 -1.0000 -0.0002
vn 0.0066 -1.0000 -0.0001
vn -0.0015 0.9999 0.0135
vn -0.0007 0.9999 0.0138
vn -0.0020 -0.4360 -0.8999
vn -0.0020 -0.4354 -0.9002
vn -0.0040 -0.4744 -0.8803
vn -0.0043 -0.8561 -0.5168
vn 0.0075 -0.9056 -0.4241
vn -0.0071 0.0045 1.0000
vn 0.0075 -0.0014 1.0000
vn -0.0240 0.0284 0.9993
vn -0.0015 0.0027 -1.0000
vn -0.0010 0.0007 -1.0000
vn 0.1305 -0.9865 0.0993
vn 0.0250 -0.9996 0.0108
vn 0.0249 -0.9700 0.2419
vn -0.0054 1.0000 0.0077
vn 0.0107 0.9999 0.0065
vn -0.0008 1.0000 0.0004
vn -0.9996 0.0072 -0.0282
vn -0.9969 0.0544 0.0567
vn -0.9982 -0.0560 -0.0215
vn -0.9884 -0.1519 0.0083
vn -0.9697 0.0437 0.2403
vn -0.9640 -0.0371 0.2634
vn -0.9846 -0.0154 0.1742
vn -0.9879 0.0224 0.1535
vn 0.0311 0.9995 -0.0019
vn -0.0906 -0.9955 0.0275
vn -0.9691 -0.1295 0.2100
vn 0.0006 -0.9990 -0.0454
vn -0.0032 -0.9990 -0.0454
vn -0.0025 -0.9998 -0.0208
vn 0.0004 -0.9998 -0.0209
vn -0.0047 -0.9989 -0.0460
vn -0.0037 -0.9998 -0.0215
vn -0.0000 -0.9989 -0.0466
vn -0.0000 -0.9998 -0.0221
vn 0.0003 0.9993 0.0374
vn 0.0001 0.9993 0.0375
vn 0.0001 0.9999 0.0130
vn 0.0001 0.9999 0.0129
vn 0.0024 0.9993 0.0367
vn 0.0012 0.9999 0.0122
vn 0.0046 0.9993 0.0365
vn 0.0023 0.9999 0.0122
vn -0.0000 0.9993 0.0375
vn -0.0000 0.9999 0.0130
vn -0.0075 -0.9989 -0.0456
vn -0.0058 -0.9998 -0.0214
vn -0.9972 0.0187 -0.0723
vn -0.9972 0.0199 -0.0723
vn -0.9966 0.0380 -0.0726
vn -0.9967 0.0355 -0.0725
vn -0.0000 -0.9990 -0.0453
vn -0.0000 -0.9998 -0.0208
vn -0.0000 -0.9990 -0.0454
vn 0.0048 -0.9989 -0.0459
vn 0.0038 -0.9998 -0.0215
vn -0.0000 0.9993 0.0376
vn -0.0000 0.9999 0.0131
vn -0.0000 0.9993 0.0380
vn -0.0000 0.9999 0.0139
vn -0.0000 -0.9998 -0.0216
vn -0.0000 -0.9990 -0.0458
vn -0.0000 -0.9986 -0.0533
vn -0.0000 0.9990 0.0454
vn -0.0000 0.9990 0.0455
vn -0.0000 -0.9985 -0.0545
vn 0.0052 -0.9985 -0.0538
vn -0.0000 -0.9986 -0.0532
vn -0.9973 0.0107 -0.0725
vn -0.0037 -0.9986 -0.0533
vn -0.0083 -0.9985 -0.0532
vn 0.0001 0.9990 0.0454
vn 0.0057 0.9990 0.0441
vn 0.0031 0.9990 0.0447
vn 0.0003 0.9990 0.0453
vn -0.0051 -0.9985 -0.0538
vn 0.0007 -0.9986 -0.0533
vt 0.411655 0.793471
vt 0.469669 0.793471
vt 0.469669 0.837577
vt 0.411655 0.837577
vt 0.366834 0.416982
vt 0.366834 0.479454
vt 0.359502 0.479454
vt 0.359502 0.416982
vt 0.221728 0.415283
vt 0.221728 0.473583
vt 0.177183 0.473583
vt 0.177183 0.415283
vt 0.832752 0.047757
vt 0.832752 0.002443
vt 0.841491 0.002443
vt 0.841491 0.047757
vt 0.518292 0.836988
vt 0.518292 0.838217
vt 0.476609 0.838217
vt 0.476609 0.836988
vt 0.945209 0.570709
vt 0.832354 0.570709
vt 0.832354 0.528869
vt 0.945209 0.528869
vt 0.044730 0.843933
vt 0.044730 0.956951
vt 0.002993 0.956951
vt 0.002993 0.843933
vt 0.945209 0.698633
vt 0.832354 0.698633
vt 0.832354 0.696524
vt 0.945209 0.696524
vt 0.647145 0.782179
vt 0.683729 0.782179
vt 0.683729 0.825179
vt 0.647145 0.825179
vt 0.795993 0.047757
vt 0.795993 0.002443
vt 0.404530 0.416982
vt 0.404530 0.479454
vt 0.684032 0.782179
vt 0.684032 0.825179
vt 0.684371 0.782179
vt 0.684371 0.825179
vt 0.684751 0.782179
vt 0.684751 0.825179
vt 0.685134 0.782179
vt 0.685134 0.825179
vt 0.684032 0.829749
vt 0.683729 0.829749
vt 0.684371 0.829749
vt 0.684751 0.829749
vt 0.685134 0.829749
vt 0.601658 0.998047
vt 0.601658 0.996411
vt 0.643516 0.996411
vt 0.643516 0.998047
vt 0.601658 0.994560
vt 0.643516 0.994560
vt 0.601658 0.992385
vt 0.643516 0.992385
vt 0.601658 0.990115
vt 0.643516 0.990115
vt 0.789972 0.825179
vt 0.824914 0.825179
vt 0.824914 0.829749
vt 0.789972 0.829749
vt 0.789972 0.782179
vt 0.824914 0.782179
vt 0.601658 0.878567
vt 0.601658 0.841385
vt 0.643516 0.841385
vt 0.643516 0.878567
vt 0.518292 0.839118
vt 0.476609 0.839119
vt 0.518292 0.840124
vt 0.476609 0.840124
vt 0.518292 0.841385
vt 0.476609 0.841385
vt 0.825763 0.829749
vt 0.825570 0.829749
vt 0.825570 0.825179
vt 0.825763 0.825179
vt 0.825410 0.829749
vt 0.825410 0.825179
vt 0.825200 0.829749
vt 0.825200 0.825179
vt 0.825763 0.696176
vt 0.825570 0.696176
vt 0.824914 0.653653
vt 0.825410 0.696176
vt 0.825200 0.696176
vt 0.824914 0.696176
vt 0.479869 0.416982
vt 0.479869 0.479454
vt 0.442160 0.479454
vt 0.442160 0.416982
vt 0.720644 0.047757
vt 0.720644 0.002443
vt 0.758331 0.002443
vt 0.758331 0.047757
vt 0.573993 0.782179
vt 0.610578 0.782179
vt 0.610578 0.825179
vt 0.573993 0.825179
vt 0.479869 0.179837
vt 0.479869 0.238597
vt 0.442160 0.238597
vt 0.442160 0.179837
vt 0.404530 0.179837
vt 0.404530 0.238597
vt 0.366834 0.238597
vt 0.366834 0.179837
vt 0.221728 0.181170
vt 0.221728 0.239868
vt 0.177183 0.239868
vt 0.177183 0.181170
vt 0.359502 0.238597
vt 0.359502 0.179837
vt 0.178017 0.793471
vt 0.236615 0.793471
vt 0.236615 0.837577
vt 0.178017 0.837577
vt 0.479869 0.296986
vt 0.442160 0.296986
vt 0.479869 0.358353
vt 0.442160 0.358353
vt 0.404530 0.296986
vt 0.366834 0.296986
vt 0.404530 0.358353
vt 0.366834 0.358353
vt 0.221728 0.298698
vt 0.177183 0.298698
vt 0.221728 0.357017
vt 0.177183 0.357017
vt 0.359502 0.296986
vt 0.359502 0.358353
vt 0.295281 0.793471
vt 0.295281 0.837577
vt 0.353552 0.793471
vt 0.353552 0.837577
vt 0.003118 0.793471
vt 0.060284 0.793471
vt 0.060284 0.837577
vt 0.003118 0.837577
vt 0.119334 0.793471
vt 0.119334 0.837577
vt 0.366834 0.002428
vt 0.366834 0.062116
vt 0.359502 0.062116
vt 0.359502 0.002428
vt 0.366834 0.120937
vt 0.359502 0.120937
vt 0.221728 0.002085
vt 0.221728 0.063442
vt 0.177183 0.063442
vt 0.177183 0.002085
vt 0.221728 0.122983
vt 0.177183 0.122983
vt 0.404530 0.002428
vt 0.404530 0.062116
vt 0.404530 0.120937
vt 0.479869 0.002428
vt 0.479869 0.062116
vt 0.442160 0.062116
vt 0.442160 0.002428
vt 0.479869 0.120937
vt 0.442160 0.120937
vt 0.354209 0.122983
vt 0.354209 0.181170
vt 0.310130 0.181170
vt 0.310130 0.122983
vt 0.266264 0.181170
vt 0.266264 0.122983
vt 0.354209 0.063442
vt 0.310130 0.063442
vt 0.266264 0.063442
vt 0.354209 0.002085
vt 0.310130 0.002085
vt 0.266264 0.002085
vt 0.119334 0.661990
vt 0.178017 0.661990
vt 0.178017 0.706175
vt 0.119334 0.706175
vt 0.178017 0.749618
vt 0.119334 0.749618
vt 0.060284 0.661990
vt 0.060284 0.706175
vt 0.060284 0.749618
vt 0.003118 0.661990
vt 0.003118 0.706175
vt 0.003118 0.749618
vt 0.353552 0.661990
vt 0.411655 0.661990
vt 0.411655 0.706175
vt 0.353552 0.706175
vt 0.411655 0.749618
vt 0.353552 0.749618
vt 0.295281 0.661990
vt 0.295281 0.706175
vt 0.295281 0.749618
vt 0.236615 0.661990
vt 0.236615 0.706175
vt 0.236615 0.749618
vt 0.354209 0.357017
vt 0.354209 0.415283
vt 0.310130 0.415283
vt 0.310130 0.357017
vt 0.266264 0.415283
vt 0.266264 0.357017
vt 0.354209 0.298698
vt 0.310130 0.298698
vt 0.266264 0.298698
vt 0.354209 0.239868
vt 0.310130 0.239868
vt 0.266264 0.239868
vt 0.573993 0.652227
vt 0.610578 0.652227
vt 0.610578 0.696176
vt 0.573993 0.696176
vt 0.610578 0.739178
vt 0.573993 0.739178
vt 0.720644 0.180641
vt 0.720644 0.136435
vt 0.758331 0.136435
vt 0.758331 0.180641
vt 0.720644 0.092317
vt 0.758331 0.092317
vt 0.825200 0.782179
vt 0.824914 0.739178
vt 0.825200 0.739178
vt 0.825410 0.782179
vt 0.825410 0.739178
vt 0.825570 0.782179
vt 0.825570 0.739178
vt 0.825763 0.782179
vt 0.825763 0.739178
vt 0.643516 0.840124
vt 0.601658 0.840124
vt 0.559975 0.841385
vt 0.559975 0.840124
vt 0.643516 0.839118
vt 0.601658 0.839118
vt 0.559975 0.839118
vt 0.645001 0.838201
vt 0.604707 0.838201
vt 0.601658 0.838217
vt 0.559975 0.838217
vt 0.476609 0.878567
vt 0.518292 0.878567
vt 0.559975 0.878567
vt 0.789972 0.653653
vt 0.789972 0.696176
vt 0.789972 0.739178
vt 0.476609 0.992385
vt 0.476609 0.990115
vt 0.518292 0.990115
vt 0.518292 0.992385
vt 0.559975 0.990115
vt 0.559975 0.992385
vt 0.476609 0.994560
vt 0.518292 0.994560
vt 0.559975 0.994560
vt 0.476609 0.996411
vt 0.518292 0.996411
vt 0.559975 0.996411
vt 0.476609 0.998047
vt 0.518292 0.998047
vt 0.559975 0.998047
vt 0.685134 0.653653
vt 0.685134 0.696176
vt 0.684751 0.696176
vt 0.685134 0.739178
vt 0.684751 0.739178
vt 0.684371 0.696176
vt 0.684371 0.739178
vt 0.684032 0.696176
vt 0.684032 0.739178
vt 0.683729 0.696176
vt 0.683729 0.739178
vt 0.795993 0.180641
vt 0.795993 0.136435
vt 0.832752 0.136435
vt 0.832752 0.180641
vt 0.795993 0.092317
vt 0.832752 0.092317
vt 0.647145 0.652227
vt 0.683729 0.652227
vt 0.647145 0.696176
vt 0.647145 0.739178
vt 0.169843 0.843933
vt 0.169843 0.956951
vt 0.128203 0.956951
vt 0.128203 0.843933
vt 0.086466 0.956951
vt 0.086466 0.843933
vt 0.832354 0.654586
vt 0.945209 0.654586
vt 0.832354 0.612648
vt 0.945209 0.612648
vt 0.645001 0.836972
vt 0.604707 0.836972
vt 0.601658 0.836988
vt 0.559975 0.836988
vt 0.841491 0.136435
vt 0.841491 0.180641
vt 0.841491 0.092317
vt 0.354209 0.473583
vt 0.310130 0.473583
vt 0.266264 0.473583
vt 0.469669 0.661990
vt 0.469669 0.706175
vt 0.469669 0.749618
vt 0.684798 0.092317
vt 0.684798 0.047757
vt 0.684798 0.136435
vt 0.684798 0.180641
vt 0.537414 0.739178
vt 0.537414 0.782179
vt 0.537414 0.696176
vt 0.537414 0.652227
vt 0.517615 0.120937
vt 0.517615 0.179837
vt 0.517615 0.062116
vt 0.517615 0.002428
vt 0.517615 0.358353
vt 0.517615 0.416982
vt 0.517615 0.296986
vt 0.517615 0.238597
vt 0.537414 0.825179
vt 0.684798 0.002443
vt 0.517615 0.479454
vt 0.411655 0.529964
vt 0.411655 0.486161
vt 0.469669 0.486161
vt 0.469669 0.529964
vt 0.671849 0.410172
vt 0.679063 0.410172
vt 0.679063 0.471626
vt 0.671849 0.471626
vt 0.133285 0.415283
vt 0.133285 0.473583
vt 0.832752 0.312729
vt 0.841491 0.312729
vt 0.841491 0.352252
vt 0.832752 0.352252
vt 0.768549 0.836972
vt 0.810179 0.836972
vt 0.810179 0.838201
vt 0.768549 0.838201
vt 0.945209 0.487030
vt 0.832354 0.487030
vt 0.294955 0.843933
vt 0.336596 0.843933
vt 0.336596 0.956951
vt 0.294955 0.956951
vt 0.945209 0.358924
vt 0.945209 0.361111
vt 0.832354 0.361111
vt 0.832354 0.358924
vt 0.647145 0.522206
vt 0.647145 0.479080
vt 0.683729 0.479080
vt 0.683729 0.522206
vt 0.795993 0.312729
vt 0.795993 0.352252
vt 0.634640 0.410172
vt 0.634640 0.471626
vt 0.684044 0.479080
vt 0.684044 0.522206
vt 0.684384 0.479080
vt 0.684384 0.522206
vt 0.684763 0.479080
vt 0.684763 0.522206
vt 0.685153 0.479080
vt 0.685153 0.522206
vt 0.683729 0.474028
vt 0.684044 0.474028
vt 0.684384 0.474028
vt 0.684763 0.474028
vt 0.685153 0.474028
vt 0.685294 0.998047
vt 0.685294 0.996411
vt 0.685294 0.994560
vt 0.685294 0.992385
vt 0.685294 0.990115
vt 0.789987 0.479080
vt 0.789987 0.474028
vt 0.824929 0.474028
vt 0.824929 0.479079
vt 0.789987 0.522206
vt 0.824929 0.522206
vt 0.685294 0.878567
vt 0.685294 0.841385
vt 0.810179 0.839118
vt 0.768549 0.839118
vt 0.810179 0.840124
vt 0.768549 0.840124
vt 0.810179 0.841385
vt 0.768549 0.841385
vt 0.825835 0.474028
vt 0.825835 0.479079
vt 0.825624 0.479079
vt 0.825624 0.474028
vt 0.825460 0.479079
vt 0.825460 0.474028
vt 0.825263 0.479079
vt 0.825263 0.474028
vt 0.825835 0.608226
vt 0.825624 0.608226
vt 0.825460 0.608226
vt 0.825263 0.608226
vt 0.824914 0.611038
vt 0.560154 0.410172
vt 0.597444 0.410172
vt 0.597444 0.471626
vt 0.560154 0.471626
vt 0.720644 0.312729
vt 0.758331 0.312729
vt 0.758331 0.352252
vt 0.720644 0.352252
vt 0.573993 0.522206
vt 0.573993 0.479080
vt 0.610578 0.479080
vt 0.610578 0.522206
vt 0.560154 0.173335
vt 0.597444 0.173335
vt 0.597444 0.232712
vt 0.560154 0.232712
vt 0.634640 0.173335
vt 0.671849 0.173335
vt 0.671849 0.232712
vt 0.634640 0.232712
vt 0.133285 0.181170
vt 0.133285 0.239868
vt 0.679063 0.173335
vt 0.679063 0.232712
vt 0.178017 0.529964
vt 0.178017 0.486161
vt 0.236615 0.486161
vt 0.236615 0.529964
vt 0.597444 0.291426
vt 0.560154 0.291426
vt 0.597444 0.350953
vt 0.560154 0.350953
vt 0.671849 0.291426
vt 0.634640 0.291426
vt 0.671849 0.350953
vt 0.634640 0.350953
vt 0.133285 0.298698
vt 0.133285 0.357017
vt 0.679063 0.291426
vt 0.679063 0.350953
vt 0.295281 0.486161
vt 0.295281 0.529964
vt 0.353552 0.486161
vt 0.353552 0.529964
vt 0.003118 0.529964
vt 0.003118 0.486161
vt 0.060284 0.486161
vt 0.060284 0.529964
vt 0.119334 0.486161
vt 0.119334 0.529964
vt 0.671849 0.003542
vt 0.679063 0.003542
vt 0.679063 0.056104
vt 0.671849 0.056104
vt 0.679063 0.114503
vt 0.671849 0.114503
vt 0.133285 0.002085
vt 0.133285 0.063442
vt 0.133285 0.122983
vt 0.634640 0.003542
vt 0.634640 0.056104
vt 0.634640 0.114503
vt 0.560154 0.003542
vt 0.597444 0.003542
vt 0.597444 0.056104
vt 0.560154 0.056104
vt 0.597444 0.114503
vt 0.560154 0.114503
vt 0.001955 0.122983
vt 0.045550 0.122983
vt 0.045550 0.181170
vt 0.001955 0.181170
vt 0.089459 0.122983
vt 0.089459 0.181170
vt 0.001955 0.063442
vt 0.045550 0.063442
vt 0.089459 0.063442
vt 0.001955 0.002085
vt 0.045550 0.002085
vt 0.089459 0.002085
vt 0.119334 0.617837
vt 0.178017 0.617837
vt 0.119334 0.573848
vt 0.178017 0.573848
vt 0.060284 0.617837
vt 0.060284 0.573848
vt 0.003118 0.617837
vt 0.003118 0.573848
vt 0.353552 0.617837
vt 0.411655 0.617837
vt 0.353552 0.573848
vt 0.411655 0.573848
vt 0.295281 0.617837
vt 0.295281 0.573848
vt 0.236615 0.617837
vt 0.236615 0.573848
vt 0.001955 0.357017
vt 0.045550 0.357017
vt 0.045550 0.415283
vt 0.001955 0.415283
vt 0.089459 0.357017
vt 0.089459 0.415283
vt 0.001955 0.298698
vt 0.045550 0.298698
vt 0.089459 0.298698
vt 0.001955 0.239868
vt 0.045550 0.239868
vt 0.089459 0.239868
vt 0.573993 0.608226
vt 0.610578 0.608226
vt 0.573993 0.565227
vt 0.610578 0.565227
vt 0.758331 0.224925
vt 0.720644 0.224925
vt 0.758331 0.268936
vt 0.720644 0.268936
vt 0.825263 0.522206
vt 0.825263 0.565227
vt 0.824929 0.565227
vt 0.824929 0.608226
vt 0.825460 0.522206
vt 0.825460 0.565227
vt 0.825624 0.522206
vt 0.825624 0.565227
vt 0.825835 0.522206
vt 0.825835 0.565227
vt 0.685294 0.840124
vt 0.726920 0.840124
vt 0.726920 0.841385
vt 0.685294 0.839118
vt 0.726920 0.839118
vt 0.685294 0.838201
vt 0.726920 0.838201
vt 0.810179 0.878567
vt 0.768549 0.878567
vt 0.726920 0.878567
vt 0.789972 0.611038
vt 0.789987 0.608226
vt 0.789987 0.565227
vt 0.810179 0.992385
vt 0.768549 0.992385
vt 0.768549 0.990115
vt 0.810179 0.990115
vt 0.726920 0.992385
vt 0.726920 0.990115
vt 0.810179 0.994560
vt 0.768549 0.994560
vt 0.726920 0.994560
vt 0.810179 0.996411
vt 0.768549 0.996411
vt 0.726920 0.996411
vt 0.810179 0.998047
vt 0.768549 0.998047
vt 0.726920 0.998047
vt 0.684763 0.608226
vt 0.685134 0.611038
vt 0.684763 0.565227
vt 0.685153 0.565227
vt 0.685153 0.608226
vt 0.684384 0.608226
vt 0.684384 0.565227
vt 0.684044 0.608226
vt 0.684044 0.565227
vt 0.683729 0.608226
vt 0.683729 0.565227
vt 0.832752 0.224925
vt 0.795993 0.224925
vt 0.832752 0.268936
vt 0.795993 0.268936
vt 0.647145 0.608226
vt 0.647145 0.565227
vt 0.211481 0.843933
vt 0.211481 0.956951
vt 0.253218 0.843933
vt 0.253218 0.956951
vt 0.945209 0.403154
vt 0.832354 0.403154
vt 0.945209 0.445092
vt 0.832354 0.445092
vt 0.685294 0.836972
vt 0.726920 0.836972
vt 0.841491 0.224925
vt 0.841491 0.268936
vt 0.045550 0.473583
vt 0.001955 0.473583
vt 0.089459 0.473583
vt 0.469669 0.617837
vt 0.469669 0.573848
vt 0.684798 0.268936
vt 0.684798 0.312729
vt 0.684798 0.224925
vt 0.537414 0.565227
vt 0.537414 0.522206
vt 0.537414 0.608226
vt 0.524064 0.114503
vt 0.524064 0.173335
vt 0.524064 0.056104
vt 0.524064 0.003542
vt 0.524064 0.350953
vt 0.524064 0.410172
vt 0.524064 0.291426
vt 0.524064 0.232712
vt 0.537414 0.479080
vt 0.684798 0.352252
vt 0.524064 0.471626
vt 0.720101 0.565227
vt 0.720101 0.522206
vt 0.755046 0.522206
vt 0.755046 0.565227
vt 0.720101 0.608226
vt 0.755046 0.608226
vt 0.720083 0.653653
vt 0.720083 0.611038
vt 0.755029 0.611038
vt 0.755029 0.653653
vt 0.726920 0.952930
vt 0.685294 0.952930
vt 0.685294 0.915747
vt 0.726920 0.915747
vt 0.768549 0.952930
vt 0.768549 0.915747
vt 0.810179 0.952930
vt 0.810179 0.915747
vt 0.643516 0.952930
vt 0.643516 0.915747
vt 0.720101 0.479080
vt 0.755046 0.479080
vt 0.720101 0.474028
vt 0.755046 0.474028
vt 0.720083 0.739178
vt 0.755029 0.739178
vt 0.755029 0.782179
vt 0.720083 0.782179
vt 0.720083 0.696176
vt 0.755029 0.696176
vt 0.559975 0.952930
vt 0.559975 0.915747
vt 0.601658 0.915747
vt 0.601658 0.952930
vt 0.518292 0.952930
vt 0.518292 0.915747
vt 0.476609 0.952930
vt 0.476609 0.915747
vt 0.755029 0.825179
vt 0.720083 0.825179
vt 0.755029 0.829749
vt 0.720083 0.829749
s 1
usemtl Harina
f 188/1/1 86/2/2 8/3/3 54/4/4
f 60/5/5 14/6/6 6/7/7 57/8/7
f 179/9/8 92/10/9 2/11/10 50/12/11
f 102/13/12 13/14/13 5/15/14 89/16/15
f 96/17/16 141/18/16 34/19/17 11/20/17
f 132/21/18 95/22/18 40/23/19 32/24/19
f 129/25/20 96/26/20 11/27/20 31/28/20
f 31/29/21 11/30/21 9/31/21 29/32/21
f 239/33/22 101/34/23 14/35/23 225/36/24
f 236/37/25 226/38/26 13/14/13 102/13/12
f 230/39/27 225/40/28 14/6/6 60/5/5
f 101/34/29 111/41/30 19/42/31 14/35/32
f 111/41/30 114/43/33 20/44/34 19/42/31
f 114/43/33 117/45/35 21/46/36 20/44/34
f 117/45/35 105/47/37 17/48/38 21/46/36
f 14/35/6 19/42/7 22/49/39 6/50/7
f 19/42/7 20/44/7 23/51/7 22/49/39
f 20/44/7 21/46/7 24/52/7 23/51/7
f 21/46/7 17/48/7 16/53/7 24/52/7
f 92/54/40 120/55/41 25/56/41 2/57/40
f 120/55/41 123/58/42 26/59/43 25/56/41
f 123/58/42 126/60/44 27/61/44 26/59/43
f 126/60/44 108/62/45 15/63/45 27/61/44
f 497/64/46 28/65/46 30/66/46 512/67/46
f 503/68/47 138/69/48 28/65/48 497/64/47
f 500/70/49 135/71/50 260/72/51 514/73/49
f 141/18/52 144/74/52 35/75/52 34/19/52
f 144/74/53 147/76/53 36/77/53 35/75/53
f 147/76/54 137/78/54 30/79/55 36/77/55
f 11/80/7 34/81/7 37/82/39 9/83/7
f 34/81/7 35/84/7 38/85/7 37/82/39
f 35/84/7 36/86/7 39/87/56 38/85/7
f 36/86/7 30/66/7 28/65/7 39/87/56
f 95/88/57 150/89/58 40/90/59
f 150/89/60 153/91/61 40/90/62
f 153/91/61 156/92/63 40/90/62
f 156/92/63 140/93/64 40/90/62
f 214/94/65 209/95/66 42/96/67 63/97/68
f 223/98/69 207/99/70 41/100/71 159/101/72
f 220/102/73 164/103/74 42/104/75 209/105/76
f 217/106/77 211/107/78 47/108/79 78/109/80
f 233/110/81 227/111/82 46/112/83 75/113/84
f 206/114/85 167/115/86 272/116/87 303/117/88
f 75/113/84 46/112/83 45/118/89 72/119/90
f 197/120/91 170/121/92 44/122/93 69/123/94
f 211/107/78 212/124/95 65/125/96 47/108/79
f 212/124/95 213/126/97 64/127/98 65/125/96
f 213/126/97 214/94/65 63/97/68 64/127/98
f 227/111/82 228/128/99 62/129/100 46/112/83
f 228/128/99 229/130/101 61/131/102 62/129/100
f 229/130/101 230/39/27 60/5/5 61/131/102
f 167/115/86 173/132/103 48/133/104 272/116/87
f 173/132/103 176/134/105 49/135/106 48/133/104
f 176/134/105 179/9/8 50/12/11 49/135/106
f 46/112/83 62/129/100 59/136/107 45/118/89
f 62/129/100 61/131/102 58/137/108 59/136/107
f 61/131/102 60/5/5 57/8/7 58/137/108
f 170/121/92 182/138/109 56/139/110 44/122/93
f 182/138/109 185/140/111 55/141/112 56/139/110
f 185/140/111 188/1/1 54/4/4 55/141/112
f 81/142/113 191/143/114 71/144/115 7/145/116
f 191/143/114 194/146/117 70/147/118 71/144/115
f 194/146/117 197/120/91 69/123/94 70/147/118
f 13/148/119 77/149/120 74/150/121 5/151/122
f 77/149/120 76/152/123 73/153/124 74/150/121
f 76/152/123 75/113/84 72/119/90 73/153/124
f 87/154/125 200/155/126 301/156/127 1/157/128
f 200/155/126 203/158/129 302/159/130 301/156/127
f 203/158/129 206/114/85 303/117/88 302/159/130
f 226/160/131 231/161/132 77/149/120 13/148/119
f 231/161/132 232/162/133 76/152/123 77/149/120
f 232/162/133 233/110/81 75/113/84 76/152/123
f 207/163/134 215/164/135 80/165/136 41/166/137
f 215/164/135 216/167/138 79/168/139 80/165/136
f 216/167/138 217/106/77 78/109/80 79/168/139
f 73/169/140 72/170/141 204/171/142 201/172/143
f 201/172/143 204/171/142 205/173/144 202/174/145
f 202/174/145 205/173/144 206/114/85 203/158/129
f 74/175/146 73/169/140 201/172/143 198/176/147
f 198/176/147 201/172/143 202/174/145 199/177/148
f 199/177/148 202/174/145 203/158/129 200/155/126
f 5/178/149 74/175/146 198/176/147 89/179/150
f 89/179/150 198/176/147 199/177/148 88/180/151
f 88/180/151 199/177/148 200/155/126 87/154/125
f 67/181/152 66/182/153 195/183/154 192/184/155
f 192/184/155 195/183/154 196/185/156 193/186/157
f 193/186/157 196/185/156 197/120/91 194/146/117
f 68/187/158 67/181/152 192/184/155 189/188/159
f 189/188/159 192/184/155 193/186/157 190/189/160
f 190/189/160 193/186/157 194/146/117 191/143/114
f 3/190/161 68/187/158 189/188/159 83/191/162
f 83/191/162 189/188/159 190/189/160 82/192/163
f 82/192/163 190/189/160 191/143/114 81/142/113
f 52/193/164 51/194/165 186/195/166 183/196/167
f 183/196/167 186/195/166 187/197/168 184/198/169
f 184/198/169 187/197/168 188/1/1 185/140/111
f 53/199/170 52/193/164 183/196/167 180/200/171
f 180/200/171 183/196/167 184/198/169 181/201/172
f 181/201/172 184/198/169 185/140/111 182/138/109
f 43/202/173 53/199/170 180/200/171 168/203/174
f 168/203/174 180/200/171 181/201/172 169/204/175
f 169/204/175 181/201/172 182/138/109 170/121/92
f 58/205/176 57/206/177 177/207/178 174/208/179
f 174/208/179 177/207/178 178/209/180 175/210/181
f 175/210/181 178/209/180 179/9/8 176/134/105
f 59/211/182 58/205/176 174/208/179 171/212/183
f 171/212/183 174/208/179 175/210/181 172/213/184
f 172/213/184 175/210/181 176/134/105 173/132/103
f 45/214/185 59/211/182 171/212/183 165/215/186
f 165/215/186 171/212/183 172/213/184 166/216/187
f 166/216/187 172/213/184 173/132/103 167/115/86
f 66/182/153 43/202/173 168/203/174 195/183/154
f 195/183/154 168/203/174 169/204/175 196/185/156
f 196/185/156 169/204/175 170/121/92 197/120/91
f 72/170/141 45/214/185 165/215/186 204/171/142
f 204/171/142 165/215/186 166/216/187 205/173/144
f 205/173/144 166/216/187 167/115/86 206/114/85
f 210/217/188 271/218/189 162/219/190 218/220/191
f 218/220/191 162/219/190 163/221/192 219/222/193
f 219/222/193 163/221/192 164/103/74 220/102/73
f 208/223/194 221/224/195 161/225/196 269/226/197
f 221/224/195 222/227/198 160/228/199 161/225/196
f 222/227/198 223/98/69 159/101/72 160/228/199
f 39/87/200 28/65/201 138/69/202 158/229/203
f 158/229/203 138/69/202 139/230/204 157/231/205
f 157/231/205 139/230/204 140/93/64 156/92/63
f 38/85/206 39/87/200 158/229/203 155/232/207
f 155/232/207 158/229/203 157/231/205 154/233/208
f 154/233/208 157/231/205 156/92/63 153/91/61
f 37/82/209 38/85/206 155/232/207 152/234/210
f 152/234/210 155/232/207 154/233/208 151/235/211
f 151/235/211 154/233/208 153/91/61 150/89/60
f 9/83/212 37/82/212 152/234/213 93/236/214
f 93/236/214 152/234/213 151/235/215 94/237/215
f 94/237/215 151/235/215 150/89/58 95/88/57
f 33/238/216 260/72/216 135/71/217 149/239/217
f 149/239/217 135/71/217 136/240/218 148/241/218
f 148/241/218 136/240/218 137/78/54 147/76/54
f 261/242/219 33/238/219 149/239/220 146/243/221
f 146/243/221 149/239/220 148/241/222 145/244/222
f 145/244/222 148/241/222 147/76/53 144/74/53
f 261/245/52 146/243/52 143/246/52
f 143/247/52 146/243/52 145/244/52 142/248/52
f 142/248/52 145/244/52 144/74/52 141/18/52
f 512/249/223 30/79/224 137/78/224 498/250/49
f 498/250/49 137/78/224 136/240/50 499/251/49
f 499/251/49 136/240/50 135/71/50 500/70/49
f 511/252/225 40/90/226 140/93/227 501/253/228
f 501/253/228 140/93/227 139/230/48 502/254/47
f 502/254/47 139/230/48 138/69/48 503/68/47
f 24/255/44 16/256/45 110/257/45 128/258/44
f 128/258/44 110/257/45 109/259/45 127/260/44
f 127/260/44 109/259/45 108/62/45 126/60/44
f 23/261/229 24/255/44 128/258/44 125/262/43
f 125/262/43 128/258/44 127/260/44 124/263/43
f 124/263/43 127/260/44 126/60/44 123/58/42
f 22/264/41 23/261/229 125/262/43 122/265/41
f 122/265/41 125/262/43 124/263/43 121/266/41
f 121/266/41 124/263/43 123/58/42 120/55/41
f 6/267/40 22/264/41 122/265/41 90/268/40
f 90/268/40 122/265/41 121/266/41 91/269/40
f 91/269/40 121/266/41 120/55/41 92/54/40
f 18/270/230 107/271/231 119/272/232
f 119/272/232 107/271/231 106/273/233 118/274/234
f 118/274/234 106/273/233 105/47/37 117/45/35
f 18/270/230 119/272/232 116/275/235
f 116/275/235 119/272/232 118/274/234 115/276/236
f 115/276/236 118/274/234 117/45/35 114/43/33
f 18/270/230 116/275/235 113/277/237
f 113/277/237 116/275/235 115/276/236 112/278/238
f 112/278/238 115/276/236 114/43/33 111/41/30
f 18/270/230 113/277/237 99/279/239
f 99/279/239 113/277/237 112/278/238 100/280/240
f 100/280/240 112/278/238 111/41/30 101/34/29
f 224/281/241 234/282/242 104/283/243 12/284/244
f 234/282/242 235/285/245 103/286/246 104/283/243
f 235/285/245 236/37/25 102/13/12 103/286/246
f 446/287/247 18/288/248 99/279/249 237/289/250
f 237/289/250 99/279/249 100/280/23 238/290/251
f 238/290/251 100/280/23 101/34/23 239/33/22
f 32/291/252 10/292/252 98/293/253 131/294/254
f 131/294/254 98/293/253 97/295/20 130/296/20
f 130/296/20 97/295/20 96/26/20 129/25/20
f 29/32/255 9/31/255 93/297/256 134/298/256
f 134/298/256 93/297/256 94/299/256 133/300/256
f 133/300/256 94/299/256 95/22/18 132/21/18
f 10/301/257 261/245/257 143/246/258 98/302/259
f 98/303/259 143/247/258 142/248/260 97/304/260
f 97/304/260 142/248/260 141/18/16 96/17/16
f 12/284/244 104/283/243 87/305/261 1/306/262
f 104/283/243 103/286/246 88/307/263 87/305/261
f 103/286/246 102/13/12 89/16/15 88/307/263
f 57/206/177 6/308/264 90/309/265 177/207/178
f 177/207/178 90/309/265 91/310/266 178/209/180
f 178/209/180 91/310/266 92/10/9 179/9/8
f 51/194/165 4/311/267 84/312/268 186/195/166
f 186/195/166 84/312/268 85/313/269 187/197/168
f 187/197/168 85/313/269 86/2/2 188/1/1
f 82/314/270 81/315/271 223/98/69 222/227/198
f 83/316/272 82/314/270 222/227/198 221/224/195
f 3/317/273 83/316/272 221/224/195 208/223/194
f 85/318/274 219/222/193 220/102/73 86/319/275
f 84/320/276 218/220/191 219/222/193 85/318/274
f 4/321/277 210/217/188 218/220/191 84/320/276
f 70/322/278 69/323/279 217/106/77 216/167/138
f 71/324/280 70/322/278 216/167/138 215/164/135
f 7/325/281 71/324/280 215/164/135 207/163/134
f 55/326/282 54/327/283 214/94/65 213/126/97
f 56/328/284 55/326/282 213/126/97 212/124/95
f 44/329/285 56/328/284 212/124/95 211/107/78
f 69/323/279 44/329/285 211/107/78 217/106/77
f 86/319/275 220/102/73 209/105/76 8/330/286
f 81/315/271 7/331/287 207/99/70 223/98/69
f 54/327/283 8/332/288 209/95/66 214/94/65
f 163/221/192 238/290/251 239/33/22 164/103/74
f 162/219/190 237/289/250 238/290/251 163/221/192
f 271/218/189 446/287/247 237/289/250 162/219/190
f 160/228/199 159/101/72 236/37/25 235/285/245
f 161/225/196 160/228/199 235/285/245 234/282/242
f 269/226/197 161/225/196 234/282/242 224/281/241
f 79/168/139 78/109/80 233/110/81 232/162/133
f 80/165/136 79/168/139 232/162/133 231/161/132
f 41/166/137 80/165/136 231/161/132 226/160/131
f 64/127/98 63/97/68 230/39/27 229/130/101
f 65/125/96 64/127/98 229/130/101 228/128/99
f 47/108/79 65/125/96 228/128/99 227/111/82
f 78/109/80 47/108/79 227/111/82 233/110/81
f 63/97/68 42/96/67 225/40/28 230/39/27
f 159/101/72 41/100/71 226/38/26 236/37/25
f 164/103/74 239/33/22 225/36/24 42/104/75
f 411/333/289 277/334/290 243/335/291 309/336/292
f 283/337/293 280/338/294 241/339/295 247/340/296
f 402/341/297 50/12/11 2/11/10 315/342/298
f 325/343/299 312/344/300 240/345/301 246/346/302
f 319/347/303 245/348/304 262/349/304 364/350/303
f 355/351/305 32/24/19 40/23/19 318/352/305
f 352/353/306 259/354/307 245/355/307 319/356/306
f 259/357/308 257/358/308 244/359/308 245/360/308
f 460/361/309 445/362/310 247/363/311 324/364/312
f 457/365/313 325/343/299 246/346/302 447/366/314
f 451/367/315 283/337/293 247/340/296 445/368/316
f 324/364/317 247/363/318 250/369/319 334/370/320
f 334/370/320 250/369/319 251/371/321 337/372/322
f 337/372/322 251/371/321 252/373/323 340/374/324
f 340/374/324 252/373/323 249/375/325 328/376/326
f 247/363/296 241/377/295 253/378/327 250/369/328
f 250/369/328 253/378/327 254/379/329 251/371/330
f 251/371/330 254/379/329 255/380/331 252/373/332
f 252/373/332 255/380/331 248/381/333 249/375/333
f 315/382/334 2/57/40 25/56/41 343/383/335
f 343/383/335 25/56/41 26/59/43 346/384/336
f 346/384/336 26/59/43 27/61/44 349/385/337
f 349/385/337 27/61/44 15/63/45 331/386/338
f 504/387/339 513/388/340 258/389/341 256/390/341
f 510/391/342 504/387/343 256/390/344 361/392/345
f 507/393/49 514/73/49 260/72/51 358/394/346
f 364/350/347 262/349/348 263/395/348 367/396/347
f 367/396/349 263/395/350 264/397/350 370/398/349
f 370/398/351 264/397/352 258/399/352 360/400/351
f 245/401/353 244/402/353 265/403/354 262/404/355
f 262/404/355 265/403/354 266/405/356 263/406/357
f 263/406/357 266/405/356 267/407/358 264/408/359
f 264/408/359 267/407/358 256/390/360 258/389/360
f 318/409/361 40/90/362 373/410/361
f 373/410/363 40/90/364 376/411/365
f 376/411/365 40/90/364 379/412/366
f 379/412/366 40/90/364 363/413/367
f 435/414/368 286/415/369 270/416/370 431/417/371
f 444/418/372 382/419/373 268/420/374 430/421/375
f 441/422/376 431/423/377 270/424/378 387/425/379
f 438/426/380 298/427/381 276/428/382 432/429/383
f 454/430/384 295/431/385 275/432/386 448/433/387
f 429/434/388 303/117/88 272/116/87 390/435/389
f 295/431/385 292/436/390 274/437/391 275/432/386
f 420/438/392 289/439/393 273/440/394 393/441/395
f 432/429/383 276/428/382 288/442/396 433/443/397
f 433/443/397 288/442/396 287/444/398 434/445/399
f 434/445/399 287/444/398 286/415/369 435/414/368
f 448/433/387 275/432/386 285/446/400 449/447/401
f 449/447/401 285/446/400 284/448/402 450/449/403
f 450/449/403 284/448/402 283/337/293 451/367/315
f 390/435/389 272/116/87 48/133/104 396/450/404
f 396/450/404 48/133/104 49/135/106 399/451/405
f 399/451/405 49/135/106 50/12/11 402/341/297
f 275/432/386 274/437/391 282/452/406 285/446/400
f 285/446/400 282/452/406 281/453/407 284/448/402
f 284/448/402 281/453/407 280/338/294 283/337/293
f 393/441/395 273/440/394 279/454/408 405/455/409
f 405/455/409 279/454/408 278/456/410 408/457/411
f 408/457/411 278/456/410 277/334/290 411/333/289
f 304/458/412 242/459/413 291/460/414 414/461/415
f 414/461/415 291/460/414 290/462/416 417/463/417
f 417/463/417 290/462/416 289/439/393 420/438/392
f 246/464/418 240/465/419 294/466/420 297/467/421
f 297/467/421 294/466/420 293/468/422 296/469/423
f 296/469/423 293/468/422 292/436/390 295/431/385
f 310/470/424 1/157/128 301/156/127 423/471/425
f 423/471/425 301/156/127 302/159/130 426/472/426
f 426/472/426 302/159/130 303/117/88 429/434/388
f 447/473/427 246/464/418 297/467/421 452/474/428
f 452/474/428 297/467/421 296/469/423 453/475/429
f 453/475/429 296/469/423 295/431/385 454/430/384
f 430/476/430 268/477/431 300/478/432 436/479/433
f 436/479/433 300/478/432 299/480/434 437/481/435
f 437/481/435 299/480/434 298/427/381 438/426/380
f 293/482/436 424/483/437 427/484/438 292/485/439
f 424/483/437 425/486/440 428/487/441 427/484/438
f 425/486/440 426/472/426 429/434/388 428/487/441
f 294/488/442 421/489/443 424/483/437 293/482/436
f 421/489/443 422/490/444 425/486/440 424/483/437
f 422/490/444 423/471/425 426/472/426 425/486/440
f 240/491/445 312/492/446 421/489/443 294/488/442
f 312/492/446 311/493/447 422/490/444 421/489/443
f 311/493/447 310/470/424 423/471/425 422/490/444
f 67/181/152 415/494/448 418/495/449 66/182/153
f 415/494/448 416/496/450 419/497/451 418/495/449
f 416/496/450 417/463/417 420/438/392 419/497/451
f 68/187/158 412/498/452 415/494/448 67/181/152
f 412/498/452 413/499/453 416/496/450 415/494/448
f 413/499/453 414/461/415 417/463/417 416/496/450
f 3/190/161 306/500/454 412/498/452 68/187/158
f 306/500/454 305/501/455 413/499/453 412/498/452
f 305/501/455 304/458/412 414/461/415 413/499/453
f 52/193/164 406/502/456 409/503/457 51/194/165
f 406/502/456 407/504/458 410/505/459 409/503/457
f 407/504/458 408/457/411 411/333/289 410/505/459
f 53/199/170 403/506/460 406/502/456 52/193/164
f 403/506/460 404/507/461 407/504/458 406/502/456
f 404/507/461 405/455/409 408/457/411 407/504/458
f 43/202/173 391/508/462 403/506/460 53/199/170
f 391/508/462 392/509/463 404/507/461 403/506/460
f 392/509/463 393/441/395 405/455/409 404/507/461
f 281/510/464 397/511/465 400/512/466 280/513/467
f 397/511/465 398/514/468 401/515/469 400/512/466
f 398/514/468 399/451/405 402/341/297 401/515/469
f 282/516/470 394/517/471 397/511/465 281/510/464
f 394/517/471 395/518/472 398/514/468 397/511/465
f 395/518/472 396/450/404 399/451/405 398/514/468
f 274/519/473 388/520/474 394/517/471 282/516/470
f 388/520/474 389/521/475 395/518/472 394/517/471
f 389/521/475 390/435/389 396/450/404 395/518/472
f 66/182/153 418/495/449 391/508/462 43/202/173
f 418/495/449 419/497/451 392/509/463 391/508/462
f 419/497/451 420/438/392 393/441/395 392/509/463
f 292/485/439 427/484/438 388/520/474 274/519/473
f 427/484/438 428/487/441 389/521/475 388/520/474
f 428/487/441 429/434/388 390/435/389 389/521/475
f 210/217/188 439/522/476 385/523/477 271/218/189
f 439/522/476 440/524/478 386/525/479 385/523/477
f 440/524/478 441/422/376 387/425/379 386/525/479
f 208/223/194 269/226/197 384/526/480 442/527/481
f 442/527/481 384/526/480 383/528/482 443/529/483
f 443/529/483 383/528/482 382/419/373 444/418/372
f 267/407/484 381/530/485 361/392/486 256/390/487
f 381/530/485 380/531/488 362/532/489 361/392/486
f 380/531/488 379/412/366 363/533/367 362/532/489
f 266/405/490 378/534/491 381/530/485 267/407/484
f 378/534/491 377/535/492 380/531/488 381/530/485
f 377/535/492 376/411/365 379/412/366 380/531/488
f 265/403/493 375/536/493 378/534/493 266/405/493
f 375/536/494 374/537/495 377/535/492 378/534/491
f 374/537/495 373/410/363 376/411/365 377/535/492
f 244/402/496 316/538/497 375/536/498 265/403/496
f 316/538/497 317/539/499 374/537/500 375/536/498
f 317/539/499 318/409/361 373/410/361 374/537/500
f 33/238/216 372/540/501 358/394/501 260/72/216
f 372/540/501 371/541/502 359/542/502 358/394/501
f 371/541/502 370/398/351 360/400/351 359/542/502
f 261/242/219 369/543/503 372/540/504 33/238/219
f 369/543/503 368/544/505 371/541/505 372/540/504
f 368/544/505 367/396/349 370/398/349 371/541/505
f 261/245/506 366/545/506 369/543/506
f 366/545/506 365/546/507 368/544/507 369/543/506
f 365/546/507 364/350/347 367/396/347 368/544/507
f 513/547/508 505/548/509 360/400/510 258/399/511
f 505/548/509 506/549/512 359/542/513 360/400/510
f 506/549/512 507/393/49 358/394/346 359/542/513
f 511/252/225 508/550/514 363/413/515 40/90/226
f 508/551/514 509/552/516 362/532/517 363/533/515
f 509/552/516 510/391/342 361/392/345 362/532/517
f 255/553/518 351/554/519 333/555/520 248/556/521
f 351/554/519 350/557/522 332/558/523 333/555/520
f 350/557/522 349/385/337 331/386/338 332/558/523
f 254/559/524 348/560/525 351/554/519 255/553/518
f 348/560/525 347/561/526 350/557/522 351/554/519
f 347/561/526 346/384/336 349/385/337 350/557/522
f 253/562/527 345/563/528 348/560/525 254/559/524
f 345/563/528 344/564/529 347/561/526 348/560/525
f 344/564/529 343/383/335 346/384/336 347/561/526
f 241/565/530 313/566/531 345/563/528 253/562/527
f 313/566/531 314/567/532 344/564/529 345/563/528
f 314/567/532 315/382/334 343/383/335 344/564/529
f 18/270/533 342/568/534 330/569/535
f 342/568/534 341/570/536 329/571/537 330/572/535
f 341/570/536 340/374/324 328/376/326 329/571/537
f 18/270/533 339/573/538 342/568/534
f 339/573/538 338/574/539 341/570/536 342/568/534
f 338/574/539 337/372/322 340/374/324 341/570/536
f 18/270/533 336/575/540 339/573/538
f 336/575/540 335/576/541 338/574/539 339/573/538
f 335/576/541 334/370/320 337/372/322 338/574/539
f 18/270/542 322/577/543 336/575/544
f 322/577/543 323/578/545 335/576/541 336/575/544
f 323/578/545 324/364/317 334/370/320 335/576/541
f 224/281/241 12/284/244 327/579/546 455/580/547
f 455/580/547 327/579/546 326/581/548 456/582/549
f 456/582/549 326/581/548 325/343/299 457/365/313
f 446/287/247 458/583/550 322/577/551 18/288/248
f 458/583/550 459/584/552 323/578/553 322/577/551
f 459/584/552 460/361/309 324/364/312 323/578/553
f 32/291/252 354/585/554 321/586/555 10/292/252
f 354/585/554 353/587/20 320/588/20 321/586/555
f 353/587/20 352/353/306 319/356/306 320/588/20
f 257/358/556 357/589/557 316/590/557 244/359/556
f 357/589/557 356/591/256 317/592/256 316/590/557
f 356/591/256 355/351/305 318/352/305 317/592/256
f 10/301/257 321/593/558 366/545/559 261/245/257
f 321/593/558 320/594/560 365/546/560 366/545/559
f 320/594/560 319/347/303 364/350/303 365/546/560
f 12/284/244 1/306/262 310/595/561 327/579/546
f 327/579/546 310/595/561 311/596/562 326/581/548
f 326/581/548 311/596/562 312/344/300 325/343/299
f 280/513/467 400/512/466 313/597/563 241/598/564
f 400/512/466 401/515/469 314/599/565 313/597/563
f 401/515/469 402/341/297 315/342/298 314/599/565
f 51/194/165 409/503/457 307/600/566 4/311/267
f 409/503/457 410/505/459 308/601/567 307/600/566
f 410/505/459 411/333/289 309/336/292 308/601/567
f 305/602/568 443/529/483 444/418/372 304/603/569
f 306/604/570 442/527/481 443/529/483 305/602/568
f 3/317/273 208/223/194 442/527/481 306/604/570
f 308/605/571 309/606/572 441/422/376 440/524/478
f 307/607/573 308/605/571 440/524/478 439/522/476
f 4/321/277 307/607/573 439/522/476 210/217/188
f 290/608/574 437/481/435 438/426/380 289/609/575
f 291/610/576 436/479/433 437/481/435 290/608/574
f 242/611/577 430/476/430 436/479/433 291/610/576
f 278/612/578 434/445/399 435/414/368 277/613/579
f 279/614/580 433/443/397 434/445/399 278/612/578
f 273/615/581 432/429/383 433/443/397 279/614/580
f 289/609/575 438/426/380 432/429/383 273/615/581
f 309/606/572 243/616/582 431/423/377 441/422/376
f 304/603/569 444/418/372 430/421/375 242/617/583
f 277/613/579 435/414/368 431/417/371 243/618/584
f 386/525/479 387/425/379 460/361/309 459/584/552
f 385/523/477 386/525/479 459/584/552 458/583/550
f 271/218/189 385/523/477 458/583/550 446/287/247
f 383/528/482 456/582/549 457/365/313 382/419/373
f 384/526/480 455/580/547 456/582/549 383/528/482
f 269/226/197 224/281/241 455/580/547 384/526/480
f 299/480/434 453/475/429 454/430/384 298/427/381
f 300/478/432 452/474/428 453/475/429 299/480/434
f 268/477/431 447/473/427 452/474/428 300/478/432
f 287/444/398 450/449/403 451/367/315 286/415/369
f 288/442/396 449/447/401 450/449/403 287/444/398
f 276/428/382 448/433/387 449/447/401 288/442/396
f 298/427/381 454/430/384 448/433/387 276/428/382
f 286/415/369 451/367/315 445/368/316 270/416/370
f 382/419/373 457/365/313 447/366/314 268/420/374
f 387/425/379 270/424/378 445/362/310 460/361/309
f 494/619/585 495/620/586 476/621/587 475/622/588
f 493/623/589 494/619/585 475/622/588 474/624/590
f 496/625/591 493/626/589 474/627/590 478/628/592
f 491/629/593 492/630/594 473/631/595 472/632/596
f 490/633/597 491/629/593 472/632/596 471/634/598
f 480/635/599 490/633/597 471/634/598 469/636/600
f 492/630/594 481/637/601 477/638/602 473/631/595
f 495/620/586 489/639/603 470/640/604 476/621/587
f 489/639/605 480/641/606 469/642/607 470/640/608
f 487/643/609 467/644/610 468/645/610 488/646/611
f 486/647/612 466/648/613 467/644/610 487/643/609
f 496/625/591 478/628/592 466/648/613 486/647/612
f 484/649/614 464/650/602 465/651/602 485/652/601
f 483/653/614 463/654/615 464/650/602 484/649/614
f 479/655/616 461/656/617 463/654/615 483/653/614
f 485/652/601 465/651/602 477/638/602 481/637/601
f 488/646/611 468/645/610 462/657/618 482/658/619
f 482/658/46 462/657/46 461/659/46 479/660/46
f 17/48/46 482/658/46 479/660/46 16/53/46
f 105/47/620 488/646/611 482/658/619 17/48/620
f 108/62/621 485/652/601 481/637/601 15/63/621
f 16/256/622 479/655/616 483/653/614 110/257/622
f 110/257/622 483/653/614 484/649/614 109/259/622
f 109/259/622 484/649/614 485/652/601 108/62/621
f 18/270/623 496/625/591 486/647/612 107/271/624
f 107/271/624 486/647/612 487/643/609 106/273/625
f 106/273/625 487/643/609 488/646/611 105/47/620
f 249/375/626 248/381/626 480/641/606 489/639/605
f 328/376/627 249/375/628 489/639/603 495/620/586
f 331/386/629 15/63/621 481/637/601 492/630/594
f 248/556/630 333/555/631 490/633/597 480/635/599
f 333/555/631 332/558/632 491/629/593 490/633/597
f 332/558/632 331/386/629 492/630/594 491/629/593
f 18/270/623 330/569/633 493/626/589 496/625/591
f 330/572/633 329/571/634 494/619/585 493/623/589
f 329/571/634 328/376/627 495/620/586 494/619/585
f 475/622/588 476/621/587 510/391/342 509/552/516
f 474/624/590 475/622/588 509/552/516 508/551/514
f 478/628/592 474/627/590 508/550/514 511/252/225
f 472/632/596 473/631/595 507/393/49 506/549/512
f 471/634/598 472/632/596 506/549/512 505/548/509
f 469/636/600 471/634/598 505/548/509 513/547/508
f 473/631/595 477/638/602 514/73/49 507/393/49
f 476/621/587 470/640/604 504/387/343 510/391/342
f 470/640/608 469/642/607 513/388/340 504/387/339
f 467/644/610 502/254/47 503/68/47 468/645/610
f 466/648/613 501/253/228 502/254/47 467/644/610
f 478/628/592 511/252/225 501/253/228 466/648/613
f 464/650/602 499/251/49 500/70/49 465/651/602
f 463/654/615 498/250/49 499/251/49 464/650/602
f 461/656/617 512/249/223 498/250/49 463/654/615
f 465/651/602 500/70/49 514/73/49 477/638/602
f 468/645/610 503/68/47 497/64/47 462/657/618
f 462/657/46 497/64/46 512/67/46 461/659/46
l 10 40
