# Blender 5.0.1
# www.blender.org
mtllib Kiosco.mtl
o Kiosco
v 17.790655 20.077202 1.000003
v 19.790653 20.077202 1.000003
v 17.790655 20.077202 -29.805317
v 19.790653 20.077202 -29.805319
v 17.790653 -0.024493 0.999997
v 19.790653 -0.024493 0.999997
v 17.790653 -0.024493 -29.805323
v 19.790653 -0.024493 -29.805323
v 19.921186 1.000000 -29.805321
v 19.921186 -1.000000 -29.805321
v 19.921186 1.000000 1.000000
v 19.921186 -1.000000 1.000000
v -19.921186 1.000000 -29.805321
v -19.921186 -1.000000 -29.805321
v -19.921186 1.000000 1.000000
v -19.921186 -1.000000 1.000000
v -19.790651 20.077202 1.000003
v -17.790653 20.077202 1.000003
v -19.790653 20.077202 -29.805317
v -17.790653 20.077202 -29.805319
v -19.790653 -0.024493 0.999997
v -17.790655 -0.024493 0.999997
v -19.790653 -0.024493 -29.805323
v -17.790655 -0.024493 -29.805323
v 18.723812 20.077202 -27.705994
v 18.723812 20.077202 -29.705992
v -18.677065 20.077202 -27.705990
v -18.677069 20.077202 -29.705990
v 18.723808 -0.024492 -27.705990
v 18.723808 -0.024492 -29.705990
v -18.677073 -0.024492 -27.705990
v -18.677073 -0.024492 -29.705990
v 18.723812 19.960344 0.859260
v 18.723812 19.960344 -1.140738
v -18.677065 19.960344 0.859264
v -18.677069 19.960344 -1.140736
v 18.723808 -0.141350 0.859264
v 18.723808 -0.141350 -1.140736
v -18.677073 -0.141350 0.859264
v -18.677073 -0.141350 -1.140736
v -18.677069 6.169633 0.859264
v -18.677073 6.169633 -1.140736
v 18.723808 6.169633 0.859262
v 18.723808 6.169633 -1.140737
v -18.677067 15.106554 0.859264
v 18.723810 15.106554 -1.140738
v -18.677069 15.106554 -1.140736
v 18.723810 15.106554 0.859261
v 14.902418 19.960344 0.859260
v 14.902417 19.960344 -1.140738
v 14.902412 -0.141350 0.859264
v 14.902412 -0.141350 -1.140736
v 14.902413 6.169633 -1.140737
v 14.902414 6.169633 0.859263
v 14.902417 15.106554 0.859261
v 14.902416 15.106554 -1.140738
v 0.912380 19.960344 -1.140737
v 0.912376 -0.141350 0.859264
v 0.912383 19.960344 0.859262
v 0.912376 -0.141350 -1.140736
v 0.912377 6.169633 -1.140737
v 0.912379 6.169633 0.859263
v 0.912382 15.106554 0.859262
v 0.912379 15.106554 -1.140737
v -7.093163 19.960344 -1.140737
v -7.093168 -0.141350 0.859264
v -7.093161 19.960344 0.859263
v -7.093168 -0.141350 -1.140736
v -7.093167 6.169633 -1.140736
v -7.093164 6.169633 0.859263
v -7.093162 15.106554 0.859263
v -7.093164 15.106554 -1.140737
v -13.498214 19.960344 -1.140737
v -13.498219 -0.141350 0.859264
v -13.498210 19.960344 0.859263
v -13.498219 -0.141350 -1.140736
v -13.498216 6.169633 -1.140736
v -13.498214 6.169633 0.859264
v -13.498211 15.106554 0.859263
v -13.498214 15.106554 -1.140737
v 14.902414 6.217824 1.950849
v 14.902414 6.169633 1.762842
v 14.902414 6.199382 1.936538
v 14.902414 6.183748 1.895783
v 14.902414 6.173301 1.834789
v 0.912379 6.169633 1.762843
v 0.912379 6.217824 1.950850
v 0.912379 6.173301 1.834790
v 0.912379 6.183748 1.895784
v 0.912379 6.199382 1.936539
v 0.912379 6.637239 1.950850
v 0.912379 6.685431 1.762843
v 0.912379 6.655682 1.936539
v 0.912379 6.671316 1.895784
v 0.912379 6.681763 1.834790
v 14.902414 6.685431 1.762842
v 14.902414 6.637239 1.950849
v 14.902414 6.681763 1.834789
v 14.902414 6.671316 1.895783
v 14.902414 6.655682 1.936538
v 14.902413 6.169633 -3.091981
v 14.902413 6.222217 -3.297122
v 14.902413 6.176679 -3.194552
v 14.902413 6.195925 -3.269639
v 0.912377 6.222216 -3.297122
v 0.912377 6.169633 -3.091981
v 0.912377 6.195924 -3.269638
v 0.912377 6.176677 -3.194551
v 0.912377 6.685431 -3.091981
v 0.912377 6.632848 -3.297122
v 0.912377 6.678386 -3.194551
v 0.912377 6.659139 -3.269638
v 14.902413 6.632848 -3.297122
v 14.902413 6.685431 -3.091981
v 14.902413 6.659140 -3.269639
v 14.902413 6.678387 -3.194552
v 0.912379 6.427532 1.993828
v 14.902414 6.427532 1.993827
v 14.902413 6.427532 -3.341058
v 0.912377 6.427532 -3.341058
v -13.498214 6.169633 0.451846
v -7.093164 6.169633 0.451845
v -13.498211 15.106554 0.451845
v -7.093162 15.106554 0.451845
v -7.093168 -0.141350 0.451846
v -13.498219 -0.141350 0.451846
v -13.498219 -0.141350 -0.785009
v -7.093168 -0.141350 -0.785009
v -13.498216 6.169633 -0.785009
v -7.093167 6.169633 -0.785009
v -13.498214 15.106554 -0.785009
v -7.093164 15.106554 -0.785009
v 20.291237 21.753870 -29.889915
v 20.291237 19.753870 -29.889915
v 20.291237 21.753870 5.992606
v 20.291237 19.753870 5.992606
v -20.291237 21.753870 -29.889915
v -20.291237 19.753870 -29.889915
v -20.291237 21.753870 5.992606
v -20.291237 19.753870 5.992606
vn -0.0000 1.0000 -0.0000
vn -0.0000 -0.0000 -1.0000
vn -0.0000 -1.0000 -0.0000
vn -0.0000 -0.0000 1.0000
vn -1.0000 -0.0000 -0.0000
vn 1.0000 -0.0000 -0.0000
vn -0.0000 -0.9987 0.0509
vn -0.0000 -0.9856 0.1688
vn -0.0000 -0.9337 0.3582
vn -0.0000 -0.6131 0.7900
vn -0.0000 0.6131 0.7900
vn -0.0000 0.9337 0.3582
vn -0.0000 0.9856 0.1688
vn -0.0000 0.9987 0.0509
vn -0.0000 0.2008 0.9796
vn -0.0000 -0.7226 -0.6913
vn -0.0000 -0.9687 -0.2483
vn -0.0000 -0.9976 -0.0685
vn -0.0000 0.9976 -0.0685
vn -0.0000 0.9687 -0.2483
vn -0.0000 0.7226 -0.6913
vn -0.0000 0.2093 -0.9779
vn -0.0000 -0.2008 0.9796
vn -0.0000 -0.2093 -0.9779
vt 0.928391 0.588059
vt 0.944167 0.588059
vt 0.944167 0.830249
vt 0.928391 0.830249
vt 0.991394 0.661941
vt 0.975619 0.661941
vt 0.975619 0.503905
vt 0.991394 0.503905
vt 0.922450 0.003906
vt 0.938226 0.003906
vt 0.938226 0.246097
vt 0.922450 0.246097
vt 0.985453 0.327791
vt 0.969678 0.327791
vt 0.969678 0.169755
vt 0.985453 0.169755
vt 0.331849 0.827791
vt 0.331849 0.669754
vt 0.574834 0.669754
vt 0.574834 0.827791
vt 0.825657 0.669754
vt 0.825657 0.827791
vt 0.582672 0.827791
vt 0.582672 0.669754
vt 0.839994 0.151686
vt 0.651501 0.151686
vt 0.651501 0.006426
vt 0.839994 0.006426
vt 0.839994 0.301632
vt 0.651501 0.301632
vt 0.651501 0.156372
vt 0.839994 0.156372
vt 0.331849 0.921936
vt 0.331849 0.906212
vt 0.646116 0.906212
vt 0.646116 0.921936
vt 0.952005 0.338056
vt 0.967781 0.338056
vt 0.967781 0.580243
vt 0.952005 0.580243
vt 0.331849 0.898399
vt 0.331849 0.882676
vt 0.646116 0.882676
vt 0.646116 0.898399
vt 0.967781 0.830246
vt 0.952005 0.830246
vt 0.952005 0.588059
vt 0.967781 0.588059
vt 0.961839 0.246096
vt 0.946064 0.246096
vt 0.946064 0.003906
vt 0.961839 0.003906
vt 0.985453 0.161943
vt 0.969678 0.161943
vt 0.969678 0.003906
vt 0.985453 0.003906
vt 0.944167 0.580247
vt 0.928391 0.580247
vt 0.928391 0.338056
vt 0.944167 0.338056
vt 0.991394 0.496092
vt 0.975619 0.496092
vt 0.975619 0.338056
vt 0.991394 0.338056
vt 0.634697 0.661942
vt 0.634697 0.503905
vt 0.877682 0.503905
vt 0.877682 0.661942
vt 0.896939 0.338056
vt 0.896939 0.496093
vt 0.653954 0.496093
vt 0.653954 0.338056
vt 0.851613 0.003906
vt 0.867389 0.003906
vt 0.867389 0.297947
vt 0.851613 0.297947
vt 0.991394 0.993639
vt 0.975619 0.993639
vt 0.975619 0.835603
vt 0.991394 0.835603
vt 0.322529 0.877778
vt 0.306754 0.877778
vt 0.306754 0.583738
vt 0.322529 0.583738
vt 0.991394 0.827790
vt 0.975619 0.827790
vt 0.975619 0.669754
vt 0.991394 0.669754
vt 0.626859 0.503905
vt 0.626859 0.661942
vt 0.331849 0.661942
vt 0.331849 0.503905
vt 0.298916 0.583738
vt 0.298916 0.741774
vt 0.003906 0.741774
vt 0.003906 0.583738
vt 0.875227 0.257196
vt 0.891000 0.257196
vt 0.891000 0.297905
vt 0.875227 0.297905
vt 0.967780 0.887674
vt 0.952005 0.887674
vt 0.952005 0.838058
vt 0.967780 0.838058
vt 0.898839 0.267861
vt 0.914612 0.267861
vt 0.914612 0.297900
vt 0.898839 0.297900
vt 0.292636 0.787747
vt 0.276860 0.787747
vt 0.276860 0.749587
vt 0.292636 0.749587
vt 0.382563 0.419841
vt 0.382563 0.492879
vt 0.338192 0.492879
vt 0.338192 0.419841
vt 0.383024 0.191019
vt 0.383024 0.247775
vt 0.338192 0.247775
vt 0.338192 0.191019
vt 0.383024 0.012721
vt 0.383024 0.086517
vt 0.338192 0.086517
vt 0.338192 0.012721
vt 0.382563 0.316414
vt 0.338192 0.316414
vt 0.292636 0.907627
vt 0.276860 0.907627
vt 0.276860 0.858010
vt 0.292636 0.858010
vt 0.967780 0.957934
vt 0.952005 0.957934
vt 0.967780 0.996094
vt 0.952005 0.996094
vt 0.382563 0.260241
vt 0.338192 0.260241
vt 0.545003 0.260241
vt 0.545003 0.316414
vt 0.944167 0.908322
vt 0.928391 0.908322
vt 0.928391 0.838062
vt 0.944167 0.838062
vt 0.547152 0.012721
vt 0.547152 0.086517
vt 0.547152 0.191019
vt 0.547152 0.247775
vt 0.383024 0.247775
vt 0.383024 0.191019
vt 0.545003 0.419841
vt 0.545003 0.492879
vt 0.898839 0.157891
vt 0.914612 0.157891
vt 0.875227 0.003906
vt 0.891000 0.003906
vt 0.891000 0.033945
vt 0.875227 0.033945
vt 0.898839 0.094963
vt 0.914612 0.094963
vt 0.637957 0.419841
vt 0.637957 0.492879
vt 0.641071 0.191019
vt 0.641071 0.247775
vt 0.641071 0.012721
vt 0.641071 0.086517
vt 0.637957 0.316414
vt 0.637957 0.260241
vt 0.891000 0.143918
vt 0.875227 0.143918
vt 0.243409 0.877280
vt 0.243409 0.927636
vt 0.240603 0.927636
vt 0.240603 0.877280
vt 0.058917 0.749587
vt 0.058917 0.791137
vt 0.003906 0.791137
vt 0.003906 0.749587
vt 0.895057 0.719183
vt 0.895057 0.789178
vt 0.891855 0.789178
vt 0.891855 0.719183
vt 0.891855 0.919776
vt 0.891855 0.868956
vt 0.894729 0.868956
vt 0.894729 0.919776
vt 0.155685 0.791111
vt 0.155685 0.749587
vt 0.210661 0.749587
vt 0.210661 0.791111
vt 0.885520 0.555958
vt 0.885520 0.503905
vt 0.888891 0.503905
vt 0.888891 0.555958
vt 0.898839 0.044615
vt 0.914612 0.044615
vt 0.891000 0.206847
vt 0.875227 0.206847
vt 0.898839 0.003906
vt 0.914612 0.003906
vt 0.103396 0.867641
vt 0.103396 0.921665
vt 0.058917 0.921665
vt 0.058917 0.867641
vt 0.111234 0.791111
vt 0.111234 0.749587
vt 0.111234 0.921556
vt 0.111234 0.867566
vt 0.155685 0.867566
vt 0.155685 0.921556
vt 0.103396 0.791137
vt 0.103396 0.749587
vt 0.938225 0.253910
vt 0.938225 0.324171
vt 0.922450 0.324171
vt 0.922450 0.253910
vt 0.653954 0.314520
vt 0.764304 0.314520
vt 0.764304 0.330244
vt 0.653954 0.330244
vt 0.758548 0.893041
vt 0.659792 0.893041
vt 0.659792 0.892589
vt 0.758548 0.892589
vt 0.659792 0.892137
vt 0.758548 0.892137
vt 0.659792 0.891685
vt 0.758548 0.891685
vt 0.659792 0.891233
vt 0.758548 0.891233
vt 0.758548 0.881137
vt 0.659792 0.881137
vt 0.659792 0.880685
vt 0.758548 0.880685
vt 0.659792 0.880233
vt 0.758548 0.880233
vt 0.659792 0.879781
vt 0.758548 0.879781
vt 0.659792 0.879329
vt 0.758548 0.879329
vt 0.758548 0.886185
vt 0.659792 0.886185
vt 0.758548 0.837566
vt 0.659792 0.837566
vt 0.659792 0.836912
vt 0.758548 0.836912
vt 0.659792 0.836258
vt 0.758548 0.836258
vt 0.659792 0.835603
vt 0.758548 0.835603
vt 0.758548 0.849414
vt 0.659792 0.849414
vt 0.659792 0.848760
vt 0.758548 0.848760
vt 0.659792 0.848106
vt 0.758548 0.848106
vt 0.659792 0.847452
vt 0.758548 0.847452
vt 0.766386 0.835603
vt 0.876736 0.835603
vt 0.876736 0.873771
vt 0.766386 0.873771
vt 0.659792 0.842509
vt 0.758548 0.842509
vt 0.766766 0.923188
vt 0.766621 0.923075
vt 0.766497 0.922755
vt 0.766415 0.922276
vt 0.766386 0.921710
vt 0.766386 0.883542
vt 0.766442 0.882735
vt 0.766593 0.882145
vt 0.766801 0.881929
vt 0.768420 0.881584
vt 0.770040 0.881929
vt 0.770247 0.882145
vt 0.770399 0.882735
vt 0.770455 0.883542
vt 0.770455 0.921710
vt 0.770426 0.922276
vt 0.770343 0.922755
vt 0.770220 0.923075
vt 0.770074 0.923188
vt 0.768420 0.923526
vt 0.254309 0.879096
vt 0.254338 0.878530
vt 0.254421 0.878051
vt 0.254544 0.877730
vt 0.254690 0.877618
vt 0.256344 0.877280
vt 0.257998 0.877618
vt 0.258143 0.877730
vt 0.258267 0.878051
vt 0.258349 0.878530
vt 0.258378 0.879096
vt 0.258378 0.917264
vt 0.258322 0.918070
vt 0.258171 0.918661
vt 0.257963 0.918877
vt 0.256344 0.919222
vt 0.254724 0.918877
vt 0.254517 0.918661
vt 0.254365 0.918070
vt 0.254309 0.917264
vt 0.833495 0.789631
vt 0.833495 0.719370
vt 0.884017 0.719370
vt 0.884017 0.789631
vt 0.833495 0.669754
vt 0.884017 0.669754
vt 0.885520 0.629670
vt 0.888891 0.629670
vt 0.232764 0.877280
vt 0.232764 0.927635
vt 0.229551 0.927635
vt 0.229551 0.877280
vt 0.218499 0.927636
vt 0.218499 0.877280
vt 0.221713 0.877280
vt 0.221713 0.927636
vt 0.895057 0.669754
vt 0.891855 0.669754
vt 0.269022 0.799204
vt 0.269022 0.869467
vt 0.218499 0.869467
vt 0.218499 0.799204
vt 0.269022 0.749587
vt 0.218499 0.749587
vt 0.891855 0.796990
vt 0.894729 0.796990
vt 0.993292 0.123625
vt 0.993292 0.053457
vt 0.996094 0.053457
vt 0.996094 0.123625
vt 0.993292 0.003906
vt 0.996094 0.003906
vt 0.269022 0.877280
vt 0.269022 0.927636
vt 0.266216 0.927636
vt 0.266216 0.877280
vt 0.003906 0.293822
vt 0.324011 0.293822
vt 0.324011 0.575925
vt 0.003906 0.575925
vt 0.003906 0.003906
vt 0.324011 0.003906
vt 0.324011 0.286009
vt 0.003906 0.286009
vt 0.331849 0.851327
vt 0.331849 0.835603
vt 0.651954 0.835603
vt 0.651954 0.851327
vt 0.904777 0.338056
vt 0.920553 0.338056
vt 0.920553 0.620159
vt 0.904777 0.620159
vt 0.331849 0.874863
vt 0.331849 0.859139
vt 0.651954 0.859139
vt 0.651954 0.874863
vt 0.904777 0.627972
vt 0.920553 0.627972
vt 0.920553 0.910075
vt 0.904777 0.910075
s 0
usemtl Kiosco
f 1/1/1 2/2/1 4/3/1 3/4/1
f 3/5/2 4/6/2 8/7/2 7/8/2
f 7/9/3 8/10/3 6/11/3 5/12/3
f 5/13/4 6/14/4 2/15/4 1/16/4
f 3/17/5 7/18/5 5/19/5 1/20/5
f 8/21/6 4/22/6 2/23/6 6/24/6
f 9/25/1 13/26/1 15/27/1 11/28/1
f 14/29/3 10/30/3 12/31/3 16/32/3
f 12/33/4 11/34/4 15/35/4 16/36/4
f 10/37/6 9/38/6 11/39/6 12/40/6
f 14/41/2 13/42/2 9/43/2 10/44/2
f 16/45/5 15/46/5 13/47/5 14/48/5
f 17/49/1 18/50/1 20/51/1 19/52/1
f 19/53/2 20/54/2 24/55/2 23/56/2
f 23/57/3 24/58/3 22/59/3 21/60/3
f 21/61/4 22/62/4 18/63/4 17/64/4
f 19/65/5 23/66/5 21/67/5 17/68/5
f 24/69/6 20/70/6 18/71/6 22/72/6
f 25/73/1 26/74/1 28/75/1 27/76/1
f 27/77/5 28/78/5 32/79/5 31/80/5
f 31/81/3 32/82/3 30/83/3 29/84/3
f 29/85/6 30/86/6 26/87/6 25/88/6
f 27/89/4 31/90/4 29/91/4 25/92/4
f 32/93/2 28/94/2 26/95/2 30/96/2
f 75/97/1 73/98/1 36/99/1 35/100/1
f 41/101/5 42/102/5 40/103/5 39/104/5
f 51/105/3 52/106/3 38/107/3 37/108/3
f 48/109/6 46/110/6 34/111/6 33/112/6
f 54/113/4 51/114/4 37/115/4 43/116/4
f 56/117/2 50/118/2 34/119/2 46/120/2
f 52/121/2 53/122/2 44/123/2 38/124/2
f 55/125/4 54/113/4 43/116/4 48/126/4
f 37/127/6 38/128/6 44/129/6 43/130/6
f 45/131/5 47/132/5 42/102/5 41/101/5
f 35/133/5 36/134/5 47/132/5 45/131/5
f 49/135/4 55/125/4 48/126/4 33/136/4
f 53/122/2 56/117/2 46/120/2 44/123/2
f 43/130/6 44/129/6 46/110/6 48/109/6
f 59/137/4 63/138/4 55/125/4 49/135/4
f 62/139/6 61/140/6 64/141/6 63/142/6
f 60/143/2 61/144/2 53/122/2 52/121/2
f 64/145/2 57/146/2 50/147/2 56/148/2
f 62/149/4 58/150/4 51/114/4 54/113/4
f 58/151/3 60/152/3 52/106/3 51/105/3
f 33/153/1 34/154/1 50/155/1 49/156/1
f 66/157/3 68/158/3 60/152/3 58/151/3
f 70/159/4 66/160/4 58/150/4 62/149/4
f 72/161/2 65/162/2 57/146/2 64/145/2
f 68/163/2 69/164/2 61/144/2 60/143/2
f 71/165/4 70/159/4 62/149/4 63/138/4
f 67/166/4 71/165/4 63/138/4 59/137/4
f 69/164/2 72/161/2 64/145/2 61/144/2
f 49/156/1 50/155/1 57/167/1 59/168/1
f 68/169/1 76/170/1 127/171/1 128/172/1
f 75/173/4 79/174/4 71/175/4 67/176/4
f 70/177/5 71/178/5 124/179/5 122/180/5
f 76/181/6 77/182/6 129/183/6 127/184/6
f 80/185/2 73/186/2 65/187/2 72/188/2
f 78/189/6 74/190/6 126/191/6 121/192/6
f 74/193/3 76/194/3 68/158/3 66/157/3
f 59/168/1 57/167/1 65/195/1 67/196/1
f 39/197/3 40/198/3 76/194/3 74/193/3
f 41/199/4 39/200/4 74/201/4 78/202/4
f 47/203/2 36/204/2 73/186/2 80/185/2
f 40/205/2 42/206/2 77/207/2 76/208/2
f 45/209/4 41/199/4 78/202/4 79/174/4
f 35/210/4 45/209/4 79/174/4 75/173/4
f 42/206/2 47/203/2 80/185/2 77/207/2
f 67/196/1 65/195/1 73/98/1 75/97/1
f 56/211/5 53/212/5 54/213/5 55/214/5
f 55/215/3 63/216/3 64/217/3 56/218/3
f 86/219/7 82/220/7 85/221/7 88/222/7
f 88/222/8 85/221/8 84/223/8 89/224/8
f 89/224/9 84/223/9 83/225/9 90/226/9
f 90/226/10 83/225/10 81/227/10 87/228/10
f 91/229/11 97/230/11 100/231/11 93/232/11
f 93/232/12 100/231/12 99/233/12 94/234/12
f 94/234/13 99/233/13 98/235/13 95/236/13
f 95/236/14 98/235/14 96/237/14 92/238/14
f 117/239/15 118/240/15 97/230/15 91/229/15
f 105/241/16 102/242/16 104/243/16 107/244/16
f 107/244/17 104/243/17 103/245/17 108/246/17
f 108/246/18 103/245/18 101/247/18 106/248/18
f 109/249/19 114/250/19 116/251/19 111/252/19
f 111/252/20 116/251/20 115/253/20 112/254/20
f 112/254/21 115/253/21 113/255/21 110/256/21
f 82/257/3 86/258/3 106/259/3 101/260/3
f 119/261/22 120/262/22 110/256/22 113/255/22
f 81/263/6 83/264/6 84/265/6 85/266/6 82/267/6 101/268/6 103/269/6 104/270/6 102/271/6 119/272/6 113/273/6 115/274/6 116/275/6 114/276/6 96/277/6 98/278/6 99/279/6 100/280/6 97/281/6 118/282/6
f 86/283/5 88/284/5 89/285/5 90/286/5 87/287/5 117/288/5 91/289/5 93/290/5 94/291/5 95/292/5 92/293/5 109/294/5 111/295/5 112/296/5 110/297/5 120/298/5 105/299/5 107/300/5 108/301/5 106/302/5
f 114/250/1 109/249/1 92/238/1 96/237/1
f 87/228/23 81/227/23 118/240/23 117/239/23
f 102/242/24 105/241/24 120/262/24 119/261/24
f 123/303/4 121/304/4 122/305/4 124/306/4
f 121/304/4 126/307/4 125/308/4 122/305/4
f 79/309/6 78/189/6 121/192/6 123/310/6
f 71/311/3 79/312/3 123/313/3 124/314/3
f 74/315/1 66/316/1 125/317/1 126/318/1
f 66/319/5 70/177/5 122/180/5 125/320/5
f 129/321/2 131/322/2 132/323/2 130/324/2
f 127/325/2 129/321/2 130/324/2 128/326/2
f 77/182/6 80/327/6 131/328/6 129/183/6
f 72/329/5 69/330/5 130/331/5 132/332/5
f 69/330/5 68/333/5 128/334/5 130/331/5
f 80/335/3 72/336/3 132/337/3 131/338/3
f 133/339/1 137/340/1 139/341/1 135/342/1
f 138/343/3 134/344/3 136/345/3 140/346/3
f 136/347/4 135/348/4 139/349/4 140/350/4
f 134/351/6 133/352/6 135/353/6 136/354/6
f 138/355/2 137/356/2 133/357/2 134/358/2
f 140/359/5 139/360/5 137/361/5 138/362/5
