# Blender 5.0.1
# www.blender.org
mtllib Puchos.mtl
o Puchos
v -0.669078 0.085643 0.241568
v -0.669078 0.388162 -0.247406
v 0.669080 0.388162 -0.247406
v 0.669080 0.085643 0.241568
v -0.686598 0.079188 0.251606
v -0.686598 0.805482 0.253771
v -0.686598 0.805482 -0.252337
v 0.686600 0.805482 -0.252337
v 0.686600 0.805482 0.253771
v -0.686598 0.389628 -0.250172
v 0.686600 0.389628 -0.250172
v 0.686600 0.079188 0.251606
v -0.690401 -1.496251 -0.253713
v -0.690401 -1.496251 0.255199
v -0.690401 0.375539 -0.251536
v 0.690403 -1.496251 -0.253713
v 0.690403 0.375539 -0.251536
v 0.690403 -1.496251 0.255199
v 0.690403 0.063379 0.253022
v -0.690401 0.063379 0.253022
vn -0.0065 -0.8462 -0.5329
vn -0.0051 -0.8698 -0.4933
vn -0.0089 -0.8591 -0.5117
vn -0.0043 -0.8444 -0.5356
vn 0.0051 -0.8698 -0.4933
vn 0.0065 -0.8462 -0.5329
vn 0.0043 -0.8444 -0.5356
vn 0.0089 -0.8591 -0.5117
vn -0.0000 0.4574 0.8892
vn -0.0000 0.3110 -0.9504
vn 0.5178 0.7275 0.4501
vn -0.5178 0.7275 0.4501
vn -1.0000 -0.0000 -0.0000
vn -0.0000 -0.0052 -1.0000
vn 1.0000 -0.0000 -0.0000
vn -0.0000 -0.0030 1.0000
vn -0.0000 1.0000 -0.0000
vn -0.0000 -1.0000 -0.0000
vn -0.0000 0.0014 1.0000
vn -0.0000 0.0012 -1.0000
vt 0.476303 0.385115
vt 0.476287 0.539279
vt 0.471598 0.540064
vt 0.471598 0.381899
vt 0.463769 0.382684
vt 0.463785 0.536847
vt 0.459080 0.540064
vt 0.459080 0.381899
vt 0.693646 0.743305
vt 0.693646 0.384557
vt 0.696845 0.379860
vt 0.696845 0.748002
vt 0.685825 0.384521
vt 0.685833 0.743203
vt 0.684989 0.747899
vt 0.684989 0.379860
vt 0.664487 0.385576
vt 0.664487 0.744323
vt 0.657775 0.750040
vt 0.657775 0.379860
vt 0.708196 0.385524
vt 0.708241 0.744281
vt 0.704658 0.749997
vt 0.704658 0.379860
vt 0.490996 0.383352
vt 0.490994 0.533100
vt 0.484116 0.536400
vt 0.484116 0.381899
vt 0.498809 0.533107
vt 0.498865 0.383350
vt 0.505715 0.381899
vt 0.505715 0.536407
vt 0.996094 0.003906
vt 0.996094 0.198460
vt 0.860300 0.190279
vt 0.861214 0.078939
vt 0.859549 0.513527
vt 0.971037 0.513527
vt 0.971037 0.881668
vt 0.859549 0.881668
vt 0.995180 0.281305
vt 0.996094 0.392645
vt 0.860300 0.400826
vt 0.860300 0.206272
vt 0.708241 0.372047
vt 0.513528 0.372047
vt 0.513528 0.003906
vt 0.708241 0.003906
vt 0.851736 0.513527
vt 0.851736 0.881669
vt 0.716054 0.881669
vt 0.716054 0.513527
vt 0.374086 0.896326
vt 0.003906 0.896326
vt 0.003906 0.759892
vt 0.374086 0.759892
vt 0.422028 0.752079
vt 0.003906 0.752079
vt 0.003906 0.381899
vt 0.422028 0.381899
vt 0.852488 0.003906
vt 0.851904 0.505715
vt 0.716637 0.422028
vt 0.716054 0.003906
vt 0.505715 0.374086
vt 0.003906 0.374086
vt 0.003906 0.003906
vt 0.505715 0.003906
vt 0.649962 0.379860
vt 0.649379 0.797981
vt 0.514111 0.881668
vt 0.513528 0.379860
s 1
usemtl Puchos
f 4/1/1 3/2/2 11/3/3 12/4/4
f 2/5/5 1/6/6 5/7/7 10/8/8
f 1/9/6 4/10/1 12/11/4 5/12/7
f 3/13/2 2/14/5 10/15/8 11/16/3
f 4/17/9 1/18/9 20/19/9 19/20/9
f 2/21/10 3/22/10 17/23/10 15/24/10
f 3/25/11 4/26/11 19/27/11 17/28/11
f 1/29/12 2/30/12 15/31/12 20/32/12
f 5/33/13 6/34/13 7/35/13 10/36/13
f 10/37/14 7/38/14 8/39/14 11/40/14
f 11/41/15 8/42/15 9/43/15 12/44/15
f 12/45/16 9/46/16 6/47/16 5/48/16
f 8/49/17 7/50/17 6/51/17 9/52/17
f 13/53/18 16/54/18 18/55/18 14/56/18
f 18/57/19 19/58/19 20/59/19 14/60/19
f 16/61/15 17/62/15 19/63/15 18/64/15
f 13/65/20 15/66/20 17/67/20 16/68/20
f 14/69/13 20/70/13 15/71/13 13/72/13
