# Blender 5.0.1
# www.blender.org
mtllib Puré de tomate.mtl
o Puré_de_tomate
v 0.000000 0.975139 -0.292793
v 0.000000 0.975139 0.292793
v 0.549601 0.975139 0.292793
v 0.549601 0.975139 -0.292793
v 0.549601 0.017910 0.292793
v 0.549601 1.003021 0.292793
v 0.549601 0.017910 -0.292793
v 0.549601 1.003021 -0.292793
v 0.000000 0.017840 -0.292793
v 0.000000 1.003021 -0.292793
v 0.000000 0.017840 0.292793
v 0.000000 1.003021 0.292793
v 0.595287 0.975128 0.292793
v 0.595287 0.975128 -0.292793
v 0.551604 0.975128 -0.292793
v 0.551604 0.975128 0.292793
v 0.568958 0.728993 0.056664
v 0.561159 0.728993 -0.056664
v 0.525970 0.728993 -0.056664
v 0.533225 0.728993 0.056664
v 0.550096 0.975776 0.292793
v 0.550714 0.975976 0.292793
v 0.551223 0.975887 0.292793
v 0.551505 0.975707 0.292793
v 0.550096 0.975776 -0.292793
v 0.550714 0.975976 -0.292793
v 0.551223 0.975887 -0.292793
v 0.551505 0.975707 -0.292793
v 0.559899 1.001115 -0.292793
v 0.571500 0.998019 -0.292793
v 0.581213 0.994215 -0.292793
v 0.590455 0.987820 -0.292793
v 0.559899 1.001115 0.292793
v 0.571500 0.998019 0.292793
v 0.581213 0.994215 0.292793
v 0.590455 0.987820 0.292793
v 0.549601 0.017910 0.000000
v 0.549601 1.003021 0.000000
v 0.549601 0.975139 0.000000
v 0.000000 1.003021 0.000000
v 0.000000 0.018229 0.000000
v 0.595287 0.975128 0.000000
v 0.551604 0.975128 0.000000
v 0.561725 0.729008 0.000000
v 0.527005 0.728993 0.000000
v 0.550096 0.975776 0.000000
v 0.550714 0.975976 0.000000
v 0.551223 0.975887 -0.000000
v 0.551505 0.975707 -0.000000
v 0.559899 1.001115 0.000000
v 0.571500 0.998019 0.000000
v 0.581213 0.994215 0.000000
v 0.590455 0.987820 0.000000
v 0.549802 0.014878 -0.046175
v 0.550096 0.975776 -0.035661
v 0.550714 0.975976 -0.035661
v 0.551223 0.975887 -0.035661
v 0.551505 0.975707 -0.035661
v 0.549601 1.004464 -0.241603
v 0.549802 0.990911 -0.046175
v 0.000000 1.004464 -0.241603
v 0.000000 0.018236 -0.035661
v 0.595287 0.976570 -0.241603
v 0.551604 0.975128 -0.035661
v 0.560210 0.728645 -0.043512
v 0.525616 0.728993 -0.035661
v 0.559899 1.002558 -0.241603
v 0.571500 0.999461 -0.241603
v 0.581213 0.995658 -0.241603
v 0.590455 0.989262 -0.241603
v 0.550734 1.010603 -0.035661
v 0.550734 1.010603 0.000000
v 0.000000 1.010655 -0.035661
v 0.000000 1.010655 0.000000
v 0.606295 0.974295 -0.035661
v 0.606295 0.974295 0.000000
v 0.572463 0.729603 -0.035661
v 0.574015 0.728912 0.000000
v 0.562618 1.008447 -0.035661
v 0.562618 1.008447 0.000000
v 0.575326 1.005045 -0.035661
v 0.575326 1.005045 0.000000
v 0.586889 1.000455 -0.035661
v 0.586889 1.000455 0.000000
v 0.599513 0.991280 -0.035661
v 0.599513 0.991280 0.000000
v 0.572456 1.001828 -0.182776
v 0.560579 1.005001 -0.182776
v 0.582632 0.995775 0.000000
v 0.592719 0.988685 0.000000
v 0.000000 1.006983 -0.182776
v 0.000000 1.004930 0.000000
v 0.582632 0.997828 -0.182776
v 0.572456 0.999775 0.000000
v 0.592719 0.990738 -0.182776
v 0.560579 1.002948 0.000000
v 0.598039 0.976973 -0.182776
v 0.563218 0.728739 -0.040605
v 0.549885 1.004917 0.000000
v 0.564768 0.728984 0.000000
v 0.549885 1.006970 -0.182776
v 0.598039 0.974920 0.000000
v 0.561598 1.006724 -0.106359
v 0.596116 0.989982 0.002859
v 0.000000 1.007792 0.002859
v 0.602167 0.975634 -0.106359
v 0.602167 0.974607 0.002859
v 0.573891 1.003437 -0.106359
v 0.584761 0.998115 0.002859
v 0.000000 1.008819 -0.106359
v 0.584761 0.999142 -0.106359
v 0.573891 1.002410 0.002859
v 0.596116 0.991009 -0.106359
v 0.561598 1.005697 0.002859
v 0.567063 0.729171 -0.037743
v 0.550309 1.007760 0.002859
v 0.568116 0.728948 0.002859
v 0.550309 1.008786 -0.106359
v 0.522461 0.975139 -0.292793
v 0.522461 0.975139 0.292793
v 0.522461 1.003021 -0.292793
v 0.522461 0.017910 0.292793
v 0.522461 0.017910 -0.292793
v 0.522461 1.003021 0.292793
v 0.522461 1.003021 0.000000
v 0.522461 0.017910 0.000000
v 0.522461 0.017910 -0.035661
v 0.522461 1.004464 -0.241603
v 0.523537 1.010606 0.000000
v 0.523537 1.010606 -0.035661
v 0.522730 1.006971 -0.182776
v 0.522730 1.004918 0.000000
v 0.523133 1.008788 -0.106359
v 0.523133 1.007762 0.002859
v 0.522461 0.017167 0.292793
v 0.522461 0.017167 -0.292793
v 0.522461 0.017167 0.000000
v 0.522461 0.017167 -0.035661
v 0.522461 0.007784 0.292793
v 0.522461 0.007784 -0.292793
v 0.522461 0.007784 0.000000
v 0.522128 0.004553 -0.046175
v 0.237270 0.024222 0.050743
v 0.237270 0.014940 0.050743
v 0.237270 0.024222 -0.050743
v 0.237270 0.024592 -0.035661
v 0.237270 0.024980 0.000000
v 0.237270 0.014940 -0.050743
v 0.237270 0.015317 -0.035661
v 0.237270 0.015717 0.000000
v 0.522571 0.017748 0.000000
v 0.522608 0.017538 0.000000
v 0.522571 0.017329 0.000000
v 0.522571 0.017748 -0.035661
v 0.522608 0.017538 -0.035661
v 0.522571 0.017329 -0.035661
v 0.522536 0.017716 -0.292793
v 0.522571 0.017505 -0.292793
v 0.522551 0.017311 -0.292793
v 0.545074 0.013460 -0.292793
v 0.538633 0.010515 -0.292793
v 0.530891 0.008736 -0.292793
v 0.545186 0.010341 -0.046175
v 0.538618 0.007338 -0.046175
v 0.530724 0.005524 -0.046175
v 0.545074 0.013460 0.000000
v 0.538633 0.010515 0.000000
v 0.530891 0.008736 0.000000
v 0.545074 0.013460 0.292793
v 0.538633 0.010515 0.292793
v 0.530891 0.008736 0.292793
v 0.522536 0.017716 0.292793
v 0.522571 0.017505 0.292793
v 0.522551 0.017311 0.292793
v 0.554862 0.975139 -0.035661
v 0.554862 0.975139 0.000000
v 0.554506 0.016207 0.000000
v 0.554506 0.016207 -0.035661
v 0.237272 0.010575 -0.035661
v 0.237272 0.010972 0.000000
v 0.522791 0.003079 -0.035661
v 0.522791 0.003079 0.000000
v 0.548264 0.009712 -0.035661
v 0.540493 0.006105 -0.035661
v 0.531875 0.004104 -0.035661
v 0.548264 0.009712 0.000000
v 0.540493 0.006105 0.000000
v 0.531875 0.004104 0.000000
v -0.549601 0.975139 0.292793
v -0.549601 0.975139 -0.292793
v -0.549601 0.017910 0.292793
v -0.549601 1.003021 0.292793
v -0.549601 0.017910 -0.292793
v -0.549601 1.003021 -0.292793
v -0.595287 0.975128 0.292793
v -0.595287 0.975128 -0.292793
v -0.551604 0.975128 -0.292793
v -0.551604 0.975128 0.292793
v -0.575918 0.728993 0.056664
v -0.571196 0.728993 -0.056664
v -0.535545 0.728993 -0.056664
v -0.539879 0.728993 0.056664
v -0.550096 0.975776 0.292793
v -0.550714 0.975976 0.292793
v -0.551223 0.975887 0.292793
v -0.551505 0.975707 0.292793
v -0.550096 0.975776 -0.292793
v -0.550714 0.975976 -0.292793
v -0.551223 0.975887 -0.292793
v -0.551505 0.975707 -0.292793
v -0.559899 1.001115 -0.292793
v -0.571500 0.998019 -0.292793
v -0.581213 0.994215 -0.292793
v -0.590455 0.987820 -0.292793
v -0.559899 1.001115 0.292793
v -0.571500 0.998019 0.292793
v -0.581213 0.994215 0.292793
v -0.590455 0.987820 0.292793
v -0.549601 0.017910 0.000000
v -0.549601 1.003021 0.000000
v -0.549601 0.975139 0.000000
v -0.595287 0.975128 0.000000
v -0.551604 0.975128 0.000000
v -0.571186 0.729008 0.000000
v -0.536051 0.728993 0.000000
v -0.550096 0.975776 0.000000
v -0.550714 0.975976 0.000000
v -0.551223 0.975887 -0.000000
v -0.551505 0.975707 -0.000000
v -0.559899 1.001115 0.000000
v -0.571500 0.998019 0.000000
v -0.581213 0.994215 0.000000
v -0.590455 0.987820 0.000000
v -0.549802 0.014878 -0.046175
v -0.550096 0.975776 -0.035661
v -0.550714 0.975976 -0.035661
v -0.551223 0.975887 -0.035661
v -0.551505 0.975707 -0.035661
v -0.549601 1.004464 -0.241603
v -0.549802 0.990911 -0.046175
v -0.595287 0.976570 -0.241603
v -0.551604 0.975128 -0.035661
v -0.570347 0.728645 -0.043512
v -0.535268 0.728993 -0.035661
v -0.559899 1.002558 -0.241603
v -0.571500 0.999461 -0.241603
v -0.581213 0.995658 -0.241603
v -0.590455 0.989262 -0.241603
v -0.550734 1.010603 -0.035661
v -0.550734 1.010603 0.000000
v -0.606295 0.974295 -0.035661
v -0.606295 0.974295 0.000000
v -0.582495 0.729603 -0.035661
v -0.583396 0.728912 0.000000
v -0.562618 1.008447 -0.035661
v -0.562618 1.008447 0.000000
v -0.575326 1.005045 -0.035661
v -0.575326 1.005045 0.000000
v -0.586889 1.000455 -0.035661
v -0.586889 1.000455 0.000000
v -0.599513 0.991280 -0.035661
v -0.599513 0.991280 0.000000
v -0.572456 1.001828 -0.182776
v -0.560579 1.005001 -0.182776
v -0.582632 0.995775 0.000000
v -0.592719 0.988685 0.000000
v -0.582632 0.997828 -0.182776
v -0.572456 0.999775 0.000000
v -0.592719 0.990738 -0.182776
v -0.560579 1.002948 0.000000
v -0.598039 0.976973 -0.182776
v -0.573348 0.728739 -0.040605
v -0.549885 1.004917 0.000000
v -0.574220 0.728984 0.000000
v -0.549885 1.006970 -0.182776
v -0.598039 0.974920 0.000000
v -0.561598 1.006724 -0.106359
v -0.596116 0.989982 0.002859
v -0.602167 0.975634 -0.106359
v -0.602167 0.974607 0.002859
v -0.573891 1.003437 -0.106359
v -0.584761 0.998115 0.002859
v -0.584761 0.999142 -0.106359
v -0.573891 1.002410 0.002859
v -0.596116 0.991009 -0.106359
v -0.561598 1.005697 0.002859
v -0.577162 0.729171 -0.037743
v -0.550309 1.007760 0.002859
v -0.577460 0.728948 0.002859
v -0.550309 1.008786 -0.106359
v -0.522461 0.975139 -0.292793
v -0.522461 0.975139 0.292793
v -0.522461 1.003021 -0.292793
v -0.522461 0.017910 0.292793
v -0.522461 0.017910 -0.292793
v -0.522461 1.003021 0.292793
v -0.522461 1.003021 0.000000
v -0.522461 0.017910 0.000000
v -0.522461 0.017910 -0.035661
v -0.522461 1.004464 -0.241603
v -0.523537 1.010606 0.000000
v -0.523537 1.010606 -0.035661
v -0.522730 1.006971 -0.182776
v -0.522730 1.004918 0.000000
v -0.523133 1.008788 -0.106359
v -0.523133 1.007762 0.002859
v -0.522461 0.017167 0.292793
v -0.522461 0.017167 -0.292793
v -0.522461 0.017167 0.000000
v -0.522461 0.017167 -0.035661
v -0.522461 0.007784 0.292793
v -0.522461 0.007784 -0.292793
v -0.522461 0.007784 0.000000
v -0.522128 0.004553 -0.046175
v -0.237270 0.024140 0.050743
v -0.237270 0.014960 0.050743
v -0.237270 0.026419 -0.050743
v -0.237270 0.026503 -0.035661
v -0.237270 0.026045 0.000000
v -0.237270 0.017312 -0.050743
v -0.237270 0.017403 -0.035661
v -0.237270 0.016920 0.000000
v -0.522571 0.017748 0.000000
v -0.522608 0.017538 0.000000
v -0.522571 0.017329 0.000000
v -0.522571 0.017748 -0.035661
v -0.522608 0.017538 -0.035661
v -0.522571 0.017329 -0.035661
v -0.522536 0.017716 -0.292793
v -0.522571 0.017505 -0.292793
v -0.522551 0.017311 -0.292793
v -0.545074 0.013460 -0.292793
v -0.538633 0.010515 -0.292793
v -0.530891 0.008736 -0.292793
v -0.545186 0.010341 -0.046175
v -0.538618 0.007338 -0.046175
v -0.530724 0.005524 -0.046175
v -0.545074 0.013460 0.000000
v -0.538633 0.010515 0.000000
v -0.530891 0.008736 0.000000
v -0.545074 0.013460 0.292793
v -0.538633 0.010515 0.292793
v -0.530891 0.008736 0.292793
v -0.522536 0.017716 0.292793
v -0.522571 0.017505 0.292793
v -0.522551 0.017311 0.292793
v -0.554862 0.975139 -0.035661
v -0.554862 0.975139 0.000000
v -0.554506 0.016207 0.000000
v -0.554506 0.016207 -0.035661
v -0.237272 0.012726 -0.035661
v -0.237272 0.012239 0.000000
v -0.522791 0.003079 -0.035661
v -0.522791 0.003079 0.000000
v -0.548264 0.009712 -0.035661
v -0.540493 0.006105 -0.035661
v -0.531875 0.004104 -0.035661
v -0.548264 0.009712 0.000000
v -0.540493 0.006105 0.000000
v -0.531875 0.004104 0.000000
v 0.549583 0.735832 -0.292793
v 0.549601 0.496525 -0.292793
v 0.549601 0.257217 -0.292793
v 0.549601 0.735832 0.292793
v 0.549601 0.496525 0.292793
v 0.549601 0.257217 0.292793
v 0.000000 0.735814 0.292793
v 0.000000 0.496490 0.292793
v 0.000000 0.257165 0.292793
v 0.000000 0.735814 -0.292793
v 0.000000 0.496490 -0.292793
v 0.000000 0.257165 -0.292793
v 0.525342 0.735832 0.000000
v 0.549601 0.496525 0.000000
v 0.549601 0.257217 0.000000
v 0.525300 0.746903 -0.046175
v 0.549802 0.502894 -0.046175
v 0.549802 0.258886 -0.046175
v 0.522461 0.735832 0.292793
v 0.522461 0.496525 0.292793
v 0.522461 0.257217 0.292793
v 0.522461 0.735832 -0.292793
v 0.522461 0.496525 -0.292793
v 0.522461 0.257217 -0.292793
v 0.530074 0.735406 0.000000
v 0.554684 0.495673 0.000000
v 0.554595 0.255940 0.000000
v 0.528678 0.735406 -0.035661
v 0.554684 0.495673 -0.035661
v 0.554595 0.255940 -0.035661
v -0.549601 0.735832 -0.292793
v -0.549601 0.496525 -0.292793
v -0.549601 0.257217 -0.292793
v -0.549601 0.735832 0.292793
v -0.549601 0.496525 0.292793
v -0.549601 0.257217 0.292793
v -0.534261 0.735832 0.000000
v -0.549601 0.496525 0.000000
v -0.549601 0.257217 0.000000
v -0.534398 0.746903 -0.046175
v -0.549802 0.502894 -0.046175
v -0.549802 0.258886 -0.046175
v -0.522461 0.735832 0.292793
v -0.522461 0.496525 0.292793
v -0.522461 0.257217 0.292793
v -0.522461 0.735832 -0.292793
v -0.522461 0.496525 -0.292793
v -0.522461 0.257217 -0.292793
v -0.539123 0.735406 0.000000
v -0.554684 0.495673 0.000000
v -0.554595 0.255940 0.000000
v -0.538335 0.735406 -0.035661
v -0.554684 0.495673 -0.035661
v -0.554595 0.255940 -0.035661
v 0.236951 0.975139 0.292793
v 0.236951 0.017872 -0.292793
v 0.236951 1.003021 0.292793
v 0.236951 0.025736 0.000000
v 0.236951 0.025349 -0.035661
v 0.237073 1.004924 0.000000
v 0.237256 1.007778 0.002859
v 0.236951 0.975139 -0.292793
v 0.236951 1.003021 -0.292793
v 0.236951 0.017872 0.292793
v 0.236951 1.003021 0.000000
v 0.236951 1.004464 -0.241603
v 0.237439 1.010633 0.000000
v 0.237439 1.010633 -0.035661
v 0.237073 1.006977 -0.182776
v 0.237256 1.008805 -0.106359
v 0.236951 0.257189 -0.292793
v 0.236951 0.496505 -0.292793
v 0.236951 0.735822 -0.292793
v 0.236951 0.257189 0.292793
v 0.236951 0.496505 0.292793
v 0.236951 0.735822 0.292793
v -0.243865 0.975139 0.292793
v -0.243865 0.017881 -0.292793
v -0.243865 1.003021 0.292793
v -0.243865 0.026774 0.000000
v -0.243865 0.027229 -0.035661
v -0.243990 1.004924 0.000000
v -0.244179 1.007778 0.002859
v -0.243865 0.975139 -0.292793
v -0.243865 1.003021 -0.292793
v -0.243865 0.017873 0.292793
v -0.243865 1.003021 0.000000
v -0.243865 1.004464 -0.241603
v -0.244367 1.010632 0.000000
v -0.244367 1.010632 -0.035661
v -0.243990 1.006977 -0.182776
v -0.244179 1.008804 -0.106359
v -0.243865 0.257189 -0.292793
v -0.243865 0.496506 -0.292793
v -0.243865 0.735822 -0.292793
v -0.243865 0.257189 0.292793
v -0.243865 0.496506 0.292793
v -0.243865 0.735822 0.292793
vn -0.0000 -0.0000 -1.0000
vn -0.0000 0.6465 -0.7629
vn 0.0611 0.6664 -0.7431
vn 0.0211 -0.0344 -0.9992
vn 0.5526 0.0709 0.8304
vn 0.5977 -0.2052 0.7750
vn 0.5610 -0.7641 0.3185
vn 0.2577 -0.9159 0.3077
vn 0.6284 0.0008 -0.7779
vn -0.2297 -0.6086 0.7595
vn -0.4627 0.1618 0.8717
vn -0.8965 -0.0000 0.4430
vn -0.6810 -0.6514 0.3346
vn 0.6479 -0.0000 0.7617
vn 0.7819 -0.0537 0.6211
vn 0.5058 -0.1913 0.8412
vn 0.6261 -0.0000 0.7798
vn -0.0000 0.6557 0.7551
vn -0.0000 -0.0000 1.0000
vn -0.7080 -0.7062 0.0052
vn -0.6174 -0.7097 -0.3393
vn 0.5510 -0.7701 -0.3215
vn 0.4991 -0.8659 -0.0323
vn -0.5025 -0.3381 -0.7957
vn 0.5978 -0.2065 -0.7746
vn -0.9994 -0.0330 0.0046
vn -0.5027 -0.3391 0.7952
vn -0.5974 -0.7271 0.3381
vn -0.5099 -0.8602 -0.0079
vn -0.2938 0.4562 -0.8400
vn -0.1979 -0.3310 -0.9226
vn 0.0685 -0.9977 -0.0000
vn 0.0398 -0.5795 -0.8140
vn -0.3595 -0.9331 -0.0000
vn -0.2132 -0.5533 -0.8053
vn -0.8241 -0.5665 -0.0000
vn -0.4188 -0.2879 -0.8613
vn 0.1441 0.6385 -0.7560
vn 0.2048 0.6241 -0.7540
vn 0.3126 0.5876 -0.7464
vn 0.5366 0.4251 -0.7289
vn 0.1415 0.6272 0.7659
vn 0.0574 0.6270 0.7769
vn 0.0619 0.6753 0.7349
vn 0.1460 0.6472 0.7482
vn 0.1982 0.6045 0.7716
vn 0.2073 0.6323 0.7465
vn 0.2880 0.5427 0.7890
vn 0.3157 0.5947 0.7393
vn 0.4277 0.3414 0.8369
vn 0.5391 0.4304 0.7240
vn 0.3142 -0.4567 0.8323
vn 0.0397 -0.5795 0.8140
vn -0.2132 -0.5533 0.8052
vn -0.4187 -0.2879 0.8613
vn 0.0026 0.0184 0.9998
vn 0.0062 0.0251 0.9997
vn 0.2887 0.8704 0.3989
vn 0.2014 0.8960 0.3958
vn 0.7829 0.6210 -0.0392
vn 0.4768 0.8785 -0.0292
vn 0.4803 0.8770 -0.0152
vn 0.7851 0.6191 -0.0203
vn 0.0207 0.0480 0.9986
vn 0.4417 0.8012 0.4037
vn 0.3131 0.9494 -0.0269
vn 0.3140 0.9493 -0.0139
vn 0.2191 0.9754 -0.0259
vn 0.2188 0.9757 -0.0134
vn -0.9992 -0.0393 0.0094
vn 0.0684 -0.9977 -0.0000
vn 0.1764 -0.9843 -0.0053
vn -0.7040 -0.7101 0.0149
vn 0.0682 0.0831 0.9942
vn 0.7122 0.5531 0.4323
vn 0.4704 -0.2034 0.8587
vn 0.3352 -0.4904 0.8045
vn 0.3943 -0.5567 0.7311
vn 0.6387 -0.2647 0.7225
vn 0.0267 0.9996 -0.0054
vn -1.0000 -0.0000 -0.0000
vn 0.9934 0.1129 -0.0206
vn -0.2301 -0.6049 -0.7623
vn 0.0368 -0.9838 -0.1756
vn -0.8240 -0.5450 -0.1545
vn -0.6818 -0.6472 -0.3411
vn 0.9800 -0.0233 -0.1975
vn -0.0000 0.9994 -0.0355
vn -0.0000 0.9994 -0.0354
vn 0.0910 0.9952 -0.0355
vn 0.2197 0.9749 -0.0352
vn 0.3114 0.9496 -0.0350
vn 0.4692 0.8825 -0.0342
vn 0.7802 0.6247 -0.0321
vn 0.9919 0.1161 -0.0518
vn 0.8646 0.1062 0.4912
vn 0.0897 0.9959 -0.0131
vn 0.0830 0.9176 0.3888
vn 0.0001 0.9999 -0.0129
vn 0.0001 0.9999 -0.0130
vn 0.0001 0.9186 0.3951
vn 0.0001 0.9188 0.3947
vn 0.6376 -0.6549 0.4057
vn 0.7703 -0.6341 -0.0676
vn 0.5906 -0.8040 -0.0691
vn 0.9914 0.1025 -0.0816
vn 0.0022 0.0418 0.9991
vn 0.0001 0.9191 0.3940
vn -0.0549 -0.5350 0.8431
vn 0.0001 0.9997 -0.0249
vn 0.0470 0.0317 0.9984
vn 0.0901 0.9956 -0.0252
vn -0.1557 -0.7614 0.6293
vn -0.3342 -0.0472 0.9413
vn 0.0906 0.9953 -0.0335
vn 0.2194 0.9750 -0.0339
vn -0.2826 -0.2405 0.9286
vn -0.0000 0.9994 -0.0334
vn -0.0000 0.9994 -0.0333
vn 0.5833 -0.8105 -0.0525
vn -0.0345 -0.3856 0.9220
vn -0.0000 -0.3691 0.9294
vn -0.0814 -0.3643 0.9277
vn 0.7808 0.6233 -0.0420
vn 0.9934 0.0902 -0.0712
vn -0.1765 -0.3328 0.9263
vn 0.3120 0.9495 -0.0345
vn 0.4722 0.8807 -0.0358
vn -0.1157 -0.3545 0.9279
vn -0.0000 -0.3686 0.9296
vn -0.0000 0.9994 -0.0332
vn 0.0001 0.9997 -0.0248
vn 0.0007 -0.6604 -0.7509
vn -0.2297 -0.3955 -0.8893
vn -0.4823 -0.8760 0.0060
vn 0.0016 -0.9999 0.0101
vn -0.4825 -0.8759 -0.0024
vn 0.0016 -1.0000 -0.0042
vn -0.2299 -0.3953 0.8893
vn 0.0007 -0.6601 0.7512
vn -0.4627 0.1617 -0.8716
vn -0.8971 -0.0000 -0.4419
vn 0.0276 -0.6359 0.7712
vn -0.8750 -0.3213 0.3621
vn 0.0248 0.9997 -0.0014
vn 0.0251 0.9997 0.0022
vn -0.4353 -0.8676 -0.2403
vn -0.5148 -0.5541 0.6541
vn -0.9371 -0.3490 0.0001
vn -0.9371 -0.3490 -0.0001
vn -1.0000 -0.0076 0.0001
vn -1.0000 -0.0076 -0.0001
vn -0.9307 0.3659 -0.0000
vn -0.9306 0.3659 -0.0000
vn -0.8330 0.5533 -0.0000
vn -0.5613 -0.1895 -0.8056
vn -0.5822 -0.0088 -0.8130
vn -0.5268 0.1992 -0.8263
vn 0.6362 -0.2733 -0.7215
vn 0.3827 -0.5590 -0.7356
vn 0.2158 -0.6364 -0.7406
vn 0.1119 -0.6553 -0.7471
vn 0.8925 -0.4135 -0.1800
vn 0.5575 -0.8229 -0.1098
vn 0.3176 -0.9440 -0.0894
vn 0.1668 -0.9826 -0.0815
vn 0.1697 -0.9827 -0.0749
vn 0.0413 -0.9853 -0.1657
vn 0.1075 -0.6298 0.7693
vn 0.0287 -0.6718 0.7402
vn 0.1133 -0.6594 0.7432
vn 0.3253 -0.9419 -0.0832
vn 0.1999 -0.5901 0.7822
vn 0.2194 -0.6395 0.7369
vn 0.6371 -0.2754 0.7199
vn 0.3842 -0.5620 0.7325
vn 0.2168 -0.6401 0.7371
vn 0.1125 -0.6593 0.7434
vn -0.5613 -0.1894 0.8056
vn -0.5822 -0.0088 0.8130
vn -0.5267 0.1993 0.8263
vn 0.9824 0.0244 -0.1849
vn 0.9717 0.1684 -0.1655
vn 0.7908 0.2238 0.5697
vn 0.5968 -0.0002 0.8024
vn 0.9161 -0.3589 -0.1787
vn 0.5783 -0.8090 -0.1051
vn 0.6142 -0.0000 0.7892
vn 0.6142 -0.0002 0.7892
vn -0.0214 -0.0278 -0.9994
vn -0.0611 0.6664 -0.7431
vn -0.5554 0.0796 0.8278
vn -0.2617 -0.9106 0.3198
vn -0.5665 -0.7587 0.3215
vn -0.5956 -0.2023 0.7774
vn -0.6231 0.0005 -0.7821
vn 0.2299 -0.6089 0.7592
vn 0.6791 -0.6539 0.3336
vn 0.8978 -0.0000 0.4405
vn 0.4627 0.1618 0.8717
vn -0.6357 -0.0000 0.7719
vn -0.6218 -0.0000 0.7832
vn -0.5047 -0.1856 0.8431
vn -0.7849 -0.0458 0.6179
vn 0.6939 -0.7201 0.0023
vn -0.5129 -0.8578 -0.0336
vn -0.5634 -0.7600 -0.3240
vn 0.6054 -0.7213 -0.3366
vn 0.5040 -0.3411 -0.7935
vn -0.5954 -0.2031 -0.7773
vn 0.9986 -0.0521 0.0025
vn 0.5932 -0.7322 0.3347
vn 0.5041 -0.3417 0.7932
vn 0.5099 -0.8602 -0.0079
vn 0.1979 -0.3310 -0.9226
vn 0.2739 0.5893 -0.7601
vn -0.0685 -0.9977 -0.0000
vn -0.0398 -0.5795 -0.8140
vn 0.3595 -0.9331 -0.0000
vn 0.2132 -0.5533 -0.8053
vn 0.8241 -0.5665 -0.0000
vn 0.4188 -0.2879 -0.8613
vn -0.1441 0.6385 -0.7560
vn -0.2048 0.6241 -0.7540
vn -0.3126 0.5876 -0.7464
vn -0.5366 0.4251 -0.7289
vn -0.1415 0.6272 0.7659
vn -0.1460 0.6472 0.7482
vn -0.0619 0.6753 0.7349
vn -0.0574 0.6270 0.7769
vn -0.1982 0.6045 0.7716
vn -0.2073 0.6323 0.7465
vn -0.2880 0.5427 0.7890
vn -0.3157 0.5947 0.7393
vn -0.4277 0.3414 0.8369
vn -0.5391 0.4304 0.7240
vn -0.3142 -0.4567 0.8323
vn -0.0397 -0.5795 0.8140
vn 0.2132 -0.5533 0.8052
vn 0.4187 -0.2879 0.8613
vn -0.0026 0.0184 0.9998
vn -0.2014 0.8960 0.3958
vn -0.2887 0.8704 0.3989
vn -0.0062 0.0251 0.9997
vn -0.7829 0.6210 -0.0392
vn -0.7851 0.6191 -0.0203
vn -0.4803 0.8770 -0.0152
vn -0.4768 0.8785 -0.0292
vn -0.4417 0.8012 0.4037
vn -0.0207 0.0480 0.9986
vn -0.3140 0.9493 -0.0139
vn -0.3131 0.9494 -0.0269
vn -0.2188 0.9757 -0.0134
vn -0.2191 0.9754 -0.0259
vn 0.9984 -0.0558 0.0055
vn -0.0684 -0.9977 -0.0000
vn -0.1764 -0.9843 -0.0053
vn 0.6912 -0.7226 0.0093
vn -0.7122 0.5531 0.4323
vn -0.0682 0.0831 0.9942
vn -0.4704 -0.2034 0.8587
vn -0.6387 -0.2647 0.7225
vn -0.3943 -0.5567 0.7311
vn -0.3352 -0.4904 0.8045
vn -0.0319 0.9995 0.0064
vn -0.9910 0.1321 -0.0213
vn 0.2308 -0.6053 -0.7618
vn 0.6870 -0.6419 -0.3405
vn 0.8251 -0.5440 -0.1526
vn -0.0329 -0.9841 -0.1747
vn -0.9783 -0.0148 -0.2069
vn -0.2197 0.9749 -0.0352
vn -0.0910 0.9952 -0.0355
vn -0.3114 0.9496 -0.0350
vn -0.4692 0.8825 -0.0342
vn -0.7802 0.6247 -0.0321
vn -0.9895 0.1359 -0.0490
vn -0.8604 0.1221 0.4947
vn -0.0830 0.9176 0.3888
vn -0.0897 0.9959 -0.0131
vn -0.0001 0.9999 -0.0129
vn -0.0001 0.9188 0.3947
vn -0.0001 0.9186 0.3951
vn -0.0001 0.9999 -0.0130
vn -0.7855 -0.6155 -0.0641
vn -0.6454 -0.6444 0.4101
vn -0.6041 -0.7939 -0.0696
vn -0.9892 0.1224 -0.0809
vn -0.0022 0.0418 0.9991
vn -0.0001 0.9191 0.3940
vn 0.0488 -0.5343 0.8439
vn -0.0001 0.9997 -0.0249
vn -0.0397 0.0316 0.9987
vn -0.0901 0.9956 -0.0252
vn 0.3327 -0.0533 0.9415
vn 0.1595 -0.7672 0.6212
vn -0.2194 0.9750 -0.0339
vn -0.0906 0.9953 -0.0335
vn 0.2826 -0.2405 0.9286
vn -0.5971 -0.8004 -0.0533
vn 0.0345 -0.3856 0.9220
vn 0.0814 -0.3643 0.9277
vn -0.9914 0.1097 -0.0711
vn -0.7808 0.6233 -0.0420
vn 0.1765 -0.3328 0.9263
vn -0.3120 0.9495 -0.0345
vn -0.4722 0.8807 -0.0358
vn 0.1157 -0.3545 0.9279
vn -0.0001 0.9997 -0.0248
vn -0.0006 -0.6616 -0.7499
vn -0.0013 -1.0000 0.0061
vn 0.4846 -0.8748 0.0035
vn 0.2309 -0.3957 -0.8889
vn -0.0013 -0.9999 -0.0110
vn 0.4844 -0.8748 -0.0064
vn -0.0006 -0.6606 0.7507
vn 0.2306 -0.3954 0.8891
vn 0.4629 0.1615 -0.8716
vn 0.8964 -0.0000 -0.4433
vn -0.0274 -0.6359 0.7713
vn 0.8767 -0.3203 0.3590
vn -0.0324 0.9995 -0.0003
vn 1.0000 -0.0000 -0.0000
vn -0.0254 0.9997 0.0055
vn 0.5139 -0.5570 0.6524
vn 0.4431 -0.8630 -0.2428
vn 0.9371 -0.3490 -0.0001
vn 0.9371 -0.3490 0.0001
vn 1.0000 -0.0076 -0.0001
vn 1.0000 -0.0076 0.0001
vn 0.9306 0.3659 -0.0000
vn 0.9307 0.3659 -0.0000
vn 0.8330 0.5533 -0.0000
vn 0.5613 -0.1895 -0.8056
vn 0.5822 -0.0088 -0.8130
vn 0.5268 0.1992 -0.8263
vn -0.3827 -0.5590 -0.7356
vn -0.6362 -0.2733 -0.7215
vn -0.2158 -0.6364 -0.7406
vn -0.1119 -0.6553 -0.7471
vn -0.5575 -0.8229 -0.1098
vn -0.8925 -0.4135 -0.1800
vn -0.3176 -0.9440 -0.0894
vn -0.1668 -0.9826 -0.0815
vn -0.0382 -0.9851 -0.1675
vn -0.1697 -0.9827 -0.0749
vn -0.1075 -0.6298 0.7693
vn -0.1133 -0.6594 0.7432
vn -0.0268 -0.6745 0.7378
vn -0.3253 -0.9419 -0.0832
vn -0.1999 -0.5901 0.7822
vn -0.2194 -0.6395 0.7369
vn -0.3842 -0.5620 0.7325
vn -0.6371 -0.2754 0.7199
vn -0.2168 -0.6401 0.7371
vn -0.1125 -0.6593 0.7434
vn 0.5613 -0.1894 0.8056
vn 0.5822 -0.0088 0.8130
vn 0.5267 0.1993 0.8263
vn -0.9800 0.0149 -0.1983
vn -0.6029 -0.0002 0.7978
vn -0.7812 0.2373 0.5773
vn -0.9690 0.1917 -0.1556
vn -0.9161 -0.3589 -0.1787
vn -0.5783 -0.8090 -0.1051
vn -0.6142 -0.0000 0.7892
vn -0.6142 -0.0002 0.7892
vn -0.6226 0.0206 0.7823
vn -0.6110 0.0098 0.7916
vn -0.9765 -0.0003 -0.2157
vn -0.9763 -0.0001 -0.2166
vn -0.9783 0.0271 -0.2053
vn -0.9828 0.0292 -0.1824
vn -0.6180 0.0099 0.7862
vn -0.6139 -0.0000 -0.7893
vn -0.6182 0.0097 -0.7859
vn -0.0006 -0.6605 0.7508
vn 0.6090 0.0154 0.7930
vn 0.6273 0.0329 0.7781
vn 0.9763 -0.0001 -0.2166
vn 0.9765 -0.0003 -0.2157
vn 0.9861 0.0469 -0.1594
vn 0.9793 0.0431 -0.1980
vn 0.6200 0.0157 0.7844
vn 0.6139 -0.0000 -0.7893
vn 0.6206 0.0155 -0.7840
vn -0.0011 -0.6612 -0.7502
vn -0.0017 -1.0000 -0.0078
vn -0.0021 -1.0000 0.0083
vn -0.0000 -0.3683 0.9297
vt 0.328847 0.572253
vt 0.338280 0.572253
vt 0.338280 0.580716
vt 0.328847 0.580716
vt 0.665482 0.876859
vt 0.668561 0.976466
vt 0.581330 0.897065
vt 0.580495 0.877437
vt 0.247656 0.572253
vt 0.247656 0.580716
vt 0.919725 0.500500
vt 0.916588 0.499796
vt 0.943150 0.376077
vt 0.946256 0.376751
vt 0.794442 0.396869
vt 0.794442 0.478702
vt 0.695930 0.478702
vt 0.695930 0.396869
vt 0.784373 0.788727
vt 0.784373 0.707803
vt 0.884463 0.707803
vt 0.884463 0.788727
vt 0.677379 0.241237
vt 0.686961 0.241237
vt 0.686961 0.322667
vt 0.677379 0.322667
vt 0.595137 0.241237
vt 0.595137 0.322667
vt 0.570165 0.665478
vt 0.572181 0.671718
vt 0.562499 0.677256
vt 0.559840 0.670577
vt 0.640346 0.776457
vt 0.628609 0.783872
vt 0.896284 0.581413
vt 0.896228 0.493022
vt 0.981358 0.574154
vt 0.981373 0.581375
vt 0.628220 0.520466
vt 0.640346 0.527341
vt 0.575664 0.633856
vt 0.565567 0.628576
vt 0.806880 0.481068
vt 0.806880 0.478702
vt 0.891755 0.478702
vt 0.891755 0.481068
vt 0.806880 0.481267
vt 0.891755 0.481267
vt 0.806880 0.481425
vt 0.891755 0.481425
vt 0.806880 0.481530
vt 0.891755 0.481530
vt 0.806880 0.481729
vt 0.891755 0.481729
vt 0.353704 0.060440
vt 0.353637 0.060202
vt 0.363108 0.060202
vt 0.362460 0.063709
vt 0.353885 0.060702
vt 0.361454 0.067675
vt 0.353814 0.060938
vt 0.360222 0.071011
vt 0.353659 0.061112
vt 0.358137 0.074232
vt 0.353391 0.061187
vt 0.353884 0.076056
vt 0.316523 0.891493
vt 0.313032 0.891414
vt 0.315692 0.790638
vt 0.319175 0.790702
vt 0.320559 0.891577
vt 0.323183 0.790775
vt 0.324108 0.891640
vt 0.326692 0.790838
vt 0.328025 0.891687
vt 0.330558 0.790907
vt 0.333020 0.891689
vt 0.335512 0.790993
vt 0.362479 0.045592
vt 0.363108 0.049069
vt 0.353654 0.049069
vt 0.354019 0.048777
vt 0.361477 0.041665
vt 0.353919 0.048564
vt 0.360252 0.038359
vt 0.353840 0.048322
vt 0.358224 0.035128
vt 0.353539 0.048026
vt 0.354013 0.033228
vt 0.353255 0.047937
vt 0.316230 0.893403
vt 0.320380 0.893526
vt 0.320255 0.894866
vt 0.316039 0.894726
vt 0.329134 0.931412
vt 0.324314 0.931502
vt 0.324090 0.907203
vt 0.329467 0.907164
vt 0.324164 0.893644
vt 0.324185 0.894992
vt 0.320377 0.931594
vt 0.319910 0.907215
vt 0.316127 0.931704
vt 0.315521 0.907221
vt 0.695930 0.481729
vt 0.695930 0.481530
vt 0.794442 0.481530
vt 0.794442 0.481729
vt 0.695930 0.481425
vt 0.794442 0.481425
vt 0.695930 0.481267
vt 0.794442 0.481267
vt 0.695930 0.481068
vt 0.794442 0.481068
vt 0.896228 0.694322
vt 0.896291 0.593672
vt 0.981340 0.593639
vt 0.981179 0.613189
vt 0.570540 0.653525
vt 0.558885 0.651711
vt 0.328750 0.893791
vt 0.329189 0.895120
vt 0.980337 0.251037
vt 0.982610 0.251054
vt 0.982331 0.252470
vt 0.979170 0.252361
vt 0.242886 0.807141
vt 0.242886 0.819397
vt 0.144835 0.819398
vt 0.144831 0.807141
vt 0.341513 0.049424
vt 0.341556 0.085870
vt 0.340935 0.084911
vt 0.340994 0.073011
vt 0.668561 0.771429
vt 0.668159 0.789086
vt 0.580625 0.853976
vt 0.579538 0.849538
vt 0.104271 0.596533
vt 0.103045 0.681545
vt 0.005045 0.684351
vt 0.005122 0.679151
vt 0.897957 0.396869
vt 0.897957 0.478702
vt 0.813082 0.478702
vt 0.813082 0.396869
vt 0.681094 0.788727
vt 0.681094 0.707803
vt 0.698599 0.707803
vt 0.698599 0.788727
vt 0.319795 0.995947
vt 0.316317 0.996094
vt 0.315088 0.978491
vt 0.318567 0.978341
vt 0.323798 0.995786
vt 0.322574 0.978178
vt 0.327303 0.995654
vt 0.326084 0.978047
vt 0.331166 0.995527
vt 0.329951 0.977924
vt 0.336120 0.995396
vt 0.334909 0.977826
vt 0.336120 0.907110
vt 0.335664 0.894910
vt 0.311500 0.907234
vt 0.312089 0.894554
vt 0.769024 0.788727
vt 0.769024 0.707803
vt 0.781215 0.707803
vt 0.781215 0.788727
vt 0.665749 0.860113
vt 0.665594 0.872400
vt 0.580918 0.871623
vt 0.581242 0.859316
vt 0.580631 0.857783
vt 0.666360 0.835727
vt 0.335165 0.931379
vt 0.312464 0.893212
vt 0.782510 0.886234
vt 0.782510 0.895503
vt 0.781215 0.895503
vt 0.781215 0.886234
vt 0.556769 0.650654
vt 0.557518 0.667963
vt 0.555718 0.667059
vt 0.554871 0.651930
vt 0.744850 0.788727
vt 0.744850 0.707803
vt 0.334715 0.893526
vt 0.312313 0.931811
vt 0.665534 0.873884
vt 0.580695 0.873479
vt 0.580356 0.875898
vt 0.665474 0.875368
vt 0.313647 0.958210
vt 0.317259 0.958071
vt 0.333646 0.892258
vt 0.328287 0.892387
vt 0.718722 0.707803
vt 0.718722 0.788727
vt 0.558820 0.669252
vt 0.557891 0.651801
vt 0.784373 0.886234
vt 0.784373 0.895503
vt 0.783806 0.895503
vt 0.783806 0.886234
vt 0.316447 0.892079
vt 0.312852 0.891943
vt 0.329276 0.957685
vt 0.334657 0.957619
vt 0.667449 0.809375
vt 0.580226 0.856394
vt 0.343481 0.004303
vt 0.343481 0.084923
vt 0.342568 0.084939
vt 0.342458 0.023928
vt 0.324154 0.892264
vt 0.321359 0.957923
vt 0.325035 0.957800
vt 0.320522 0.892177
vt 0.783806 0.788727
vt 0.782510 0.788727
vt 0.718722 0.895503
vt 0.718722 0.886234
vt 0.744850 0.886234
vt 0.744850 0.895503
vt 0.698599 0.895503
vt 0.698599 0.886234
vt 0.769024 0.886234
vt 0.769024 0.895503
vt 0.681094 0.895503
vt 0.681094 0.886234
vt 0.545889 0.776041
vt 0.545889 0.871898
vt 0.459542 0.871898
vt 0.459542 0.776041
vt 0.447568 0.871898
vt 0.447568 0.776041
vt 0.595137 0.133793
vt 0.677379 0.133793
vt 0.677379 0.143120
vt 0.595137 0.143120
vt 0.686961 0.133793
vt 0.686961 0.143120
vt 0.884463 0.886234
vt 0.884463 0.895503
vt 0.349248 0.871898
vt 0.349248 0.776041
vt 0.247656 0.483215
vt 0.328847 0.483215
vt 0.338280 0.483215
vt 0.916588 0.215046
vt 0.919704 0.214259
vt 0.949661 0.337264
vt 0.946577 0.338018
vt 0.103286 0.698893
vt 0.104271 0.799819
vt 0.005439 0.716970
vt 0.005259 0.699478
vt 0.242890 0.907770
vt 0.144839 0.824583
vt 0.947114 0.343491
vt 0.950308 0.343443
vt 0.946249 0.356925
vt 0.949423 0.357295
vt 0.242890 0.706512
vt 0.144840 0.789699
vt 0.951932 0.343529
vt 0.951048 0.357374
vt 0.459542 0.871971
vt 0.447568 0.871971
vt 0.459542 0.872050
vt 0.447568 0.872050
vt 0.459542 0.872127
vt 0.447568 0.872127
vt 0.459542 0.872195
vt 0.447568 0.872195
vt 0.545889 0.871971
vt 0.545889 0.872050
vt 0.545889 0.872127
vt 0.545889 0.872195
vt 0.372922 0.086502
vt 0.372922 0.095684
vt 0.371417 0.094152
vt 0.372737 0.086499
vt 0.370421 0.091973
vt 0.372631 0.086459
vt 0.369745 0.089377
vt 0.372525 0.086408
vt 0.369283 0.086549
vt 0.372452 0.086354
vt 0.980927 0.353294
vt 0.980639 0.268423
vt 0.982951 0.268400
vt 0.983192 0.353276
vt 0.985440 0.268387
vt 0.985629 0.353262
vt 0.988190 0.268381
vt 0.988323 0.353252
vt 0.991112 0.268378
vt 0.991187 0.353244
vt 0.988044 0.264742
vt 0.991124 0.264754
vt 0.987772 0.251067
vt 0.990642 0.251068
vt 0.991070 0.252443
vt 0.988031 0.252477
vt 0.985063 0.264730
vt 0.985063 0.251064
vt 0.985146 0.252487
vt 0.980927 0.150285
vt 0.983192 0.150294
vt 0.985629 0.150303
vt 0.988323 0.150312
vt 0.991187 0.150323
vt 0.377829 0.005416
vt 0.377829 0.014618
vt 0.377689 0.014611
vt 0.376324 0.006951
vt 0.377548 0.014632
vt 0.375307 0.009123
vt 0.377459 0.014666
vt 0.374647 0.011730
vt 0.377387 0.014721
vt 0.374217 0.014570
vt 0.349248 0.871971
vt 0.349248 0.872050
vt 0.349248 0.872127
vt 0.349248 0.872195
vt 0.809981 0.396869
vt 0.809981 0.478702
vt 0.797543 0.478702
vt 0.797543 0.396869
vt 0.103324 0.685194
vt 0.103442 0.697487
vt 0.005302 0.698058
vt 0.005189 0.685766
vt 0.978925 0.264719
vt 0.982136 0.264713
vt 0.794442 0.233482
vt 0.794442 0.151924
vt 0.797543 0.151924
vt 0.797543 0.233482
vt 0.794442 0.493140
vt 0.797543 0.493140
vt 0.328847 0.246385
vt 0.328847 0.237921
vt 0.338280 0.237921
vt 0.338280 0.246385
vt 0.898048 0.886298
vt 0.982674 0.887153
vt 0.982283 0.906554
vt 0.896573 0.986280
vt 0.247656 0.246385
vt 0.247656 0.237921
vt 0.934988 0.199402
vt 0.962293 0.323006
vt 0.959224 0.323687
vt 0.931857 0.200127
vt 0.247656 0.122021
vt 0.247656 0.004687
vt 0.328847 0.004687
vt 0.328847 0.122021
vt 0.784373 0.624522
vt 0.884463 0.624522
vt 0.677379 0.406472
vt 0.686961 0.406472
vt 0.595137 0.406472
vt 0.325696 0.734909
vt 0.336206 0.740017
vt 0.333620 0.746573
vt 0.323645 0.741166
vt 0.255206 0.845419
vt 0.267157 0.852568
vt 0.911305 0.117709
vt 0.996094 0.117723
vt 0.996087 0.124943
vt 0.911282 0.206088
vt 0.267520 0.590501
vt 0.329906 0.698382
vt 0.319576 0.703502
vt 0.255206 0.597128
vt 0.331208 0.136838
vt 0.331208 0.237921
vt 0.328847 0.136838
vt 0.331408 0.136838
vt 0.331408 0.237921
vt 0.331565 0.136838
vt 0.331565 0.237921
vt 0.331670 0.136838
vt 0.331670 0.237921
vt 0.331868 0.136838
vt 0.331868 0.237921
vt 0.362599 0.006430
vt 0.353909 0.009686
vt 0.353266 0.006193
vt 0.362665 0.006193
vt 0.362434 0.006736
vt 0.354953 0.013621
vt 0.362525 0.006897
vt 0.356180 0.016942
vt 0.362825 0.007194
vt 0.358205 0.020185
vt 0.363108 0.007282
vt 0.362398 0.022081
vt 0.667217 0.631430
vt 0.664566 0.530638
vt 0.668048 0.530574
vt 0.670708 0.631350
vt 0.663181 0.631513
vt 0.660558 0.530711
vt 0.659632 0.631576
vt 0.657048 0.530774
vt 0.655715 0.631623
vt 0.653182 0.530843
vt 0.650721 0.631625
vt 0.648228 0.530929
vt 0.349015 0.104465
vt 0.357474 0.107715
vt 0.357840 0.107951
vt 0.348367 0.107951
vt 0.350037 0.100528
vt 0.357600 0.107557
vt 0.351302 0.097227
vt 0.357611 0.107320
vt 0.353371 0.094013
vt 0.357915 0.107027
vt 0.357613 0.092166
vt 0.358201 0.106942
vt 0.667511 0.633339
vt 0.667701 0.634662
vt 0.663485 0.634802
vt 0.663361 0.633462
vt 0.654607 0.671348
vt 0.654273 0.647100
vt 0.659650 0.647139
vt 0.659426 0.671438
vt 0.659556 0.634928
vt 0.659576 0.633580
vt 0.663830 0.647151
vt 0.663364 0.671530
vt 0.668220 0.647157
vt 0.667613 0.671640
vt 0.331868 0.004687
vt 0.331868 0.122021
vt 0.331670 0.122021
vt 0.331670 0.004687
vt 0.331565 0.122021
vt 0.331565 0.004687
vt 0.331408 0.122021
vt 0.331408 0.004687
vt 0.331208 0.122021
vt 0.331208 0.004687
vt 0.911282 0.004815
vt 0.996019 0.085961
vt 0.996083 0.105464
vt 0.911308 0.105452
vt 0.337026 0.721223
vt 0.325185 0.723002
vt 0.654551 0.635056
vt 0.654990 0.633727
vt 0.982859 0.730331
vt 0.983976 0.731628
vt 0.980818 0.731700
vt 0.980588 0.730294
vt 0.004969 0.827994
vt 0.103039 0.827998
vt 0.103044 0.840256
vt 0.004969 0.840250
vt 0.896573 0.780853
vt 0.983827 0.859434
vt 0.982615 0.863883
vt 0.896659 0.798349
vt 0.112998 0.596537
vt 0.212150 0.679169
vt 0.212222 0.684367
vt 0.114190 0.681548
vt 0.247656 0.136838
vt 0.681093 0.624522
vt 0.698598 0.624522
vt 0.698598 0.707803
vt 0.681093 0.707803
vt 0.663945 0.735883
vt 0.665173 0.718277
vt 0.668653 0.718427
vt 0.667423 0.736030
vt 0.659943 0.735722
vt 0.661167 0.718114
vt 0.656437 0.735590
vt 0.657657 0.717983
vt 0.652575 0.735463
vt 0.653789 0.717860
vt 0.647620 0.735332
vt 0.648831 0.717762
vt 0.647620 0.647046
vt 0.648077 0.634846
vt 0.671651 0.634490
vt 0.672241 0.647170
vt 0.769025 0.624522
vt 0.781215 0.624522
vt 0.781215 0.707803
vt 0.769025 0.707803
vt 0.898188 0.868729
vt 0.982333 0.869182
vt 0.982452 0.881374
vt 0.898103 0.880900
vt 0.982634 0.867611
vt 0.897698 0.844571
vt 0.648575 0.671315
vt 0.671277 0.633148
vt 0.782511 0.529380
vt 0.781215 0.529380
vt 0.781215 0.520112
vt 0.782511 0.520112
vt 0.339118 0.720182
vt 0.341027 0.721467
vt 0.340319 0.736541
vt 0.338531 0.737429
vt 0.744850 0.624522
vt 0.744850 0.707803
vt 0.649025 0.633462
vt 0.671427 0.671748
vt 0.898091 0.882371
vt 0.982578 0.883227
vt 0.898389 0.884832
vt 0.982621 0.885642
vt 0.666482 0.698007
vt 0.670093 0.698146
vt 0.655454 0.632323
vt 0.650094 0.632194
vt 0.718722 0.624522
vt 0.718722 0.707803
vt 0.338020 0.721318
vt 0.337232 0.738704
vt 0.784373 0.529380
vt 0.783806 0.529380
vt 0.783806 0.520112
vt 0.784373 0.520112
vt 0.670889 0.631879
vt 0.667293 0.632015
vt 0.649083 0.697555
vt 0.654464 0.697621
vt 0.983023 0.866238
vt 0.897043 0.818455
vt 0.659586 0.632200
vt 0.662382 0.697859
vt 0.658706 0.697736
vt 0.663218 0.632113
vt 0.783806 0.624522
vt 0.782511 0.624522
vt 0.718722 0.520112
vt 0.744850 0.520112
vt 0.744850 0.529380
vt 0.718722 0.529380
vt 0.698598 0.520112
vt 0.698598 0.529380
vt 0.769025 0.520112
vt 0.769025 0.529380
vt 0.681093 0.520112
vt 0.681093 0.529380
vt 0.545889 0.614591
vt 0.459542 0.614591
vt 0.459542 0.521047
vt 0.545889 0.521047
vt 0.447568 0.614591
vt 0.447568 0.521047
vt 0.595137 0.511541
vt 0.595137 0.502214
vt 0.677379 0.502214
vt 0.677379 0.511541
vt 0.686961 0.502214
vt 0.686961 0.511541
vt 0.884463 0.520112
vt 0.884463 0.529380
vt 0.349248 0.614591
vt 0.349248 0.521047
vt 0.247656 0.333268
vt 0.328847 0.333268
vt 0.338280 0.333268
vt 0.931857 0.484992
vt 0.961157 0.361832
vt 0.964183 0.362576
vt 0.934972 0.485780
vt 0.113955 0.698894
vt 0.211994 0.699455
vt 0.211803 0.716955
vt 0.112998 0.799819
vt 0.103042 0.845439
vt 0.004959 0.928624
vt 0.961890 0.356348
vt 0.965050 0.356480
vt 0.964908 0.342591
vt 0.961792 0.342900
vt 0.004959 0.727364
vt 0.103015 0.810549
vt 0.966514 0.342568
vt 0.966653 0.356449
vt 0.447568 0.520974
vt 0.459542 0.520974
vt 0.447568 0.520894
vt 0.459542 0.520894
vt 0.447568 0.520817
vt 0.459542 0.520817
vt 0.447568 0.520750
vt 0.459542 0.520750
vt 0.545889 0.520974
vt 0.545889 0.520894
vt 0.545889 0.520817
vt 0.545889 0.520750
vt 0.977934 0.836621
vt 0.977861 0.836492
vt 0.983998 0.832482
vt 0.986280 0.832534
vt 0.977761 0.836360
vt 0.981571 0.832563
vt 0.977680 0.836282
vt 0.978897 0.832688
vt 0.977588 0.836225
vt 0.976044 0.832800
vt 0.980181 0.747546
vt 0.982492 0.747502
vt 0.977695 0.747602
vt 0.974948 0.747672
vt 0.972031 0.747754
vt 0.971914 0.743995
vt 0.974996 0.743970
vt 0.975432 0.730186
vt 0.975126 0.731611
vt 0.972091 0.731533
vt 0.972566 0.730118
vt 0.977980 0.743933
vt 0.978137 0.730246
vt 0.978007 0.731670
vt 0.984018 0.629382
vt 0.986280 0.629432
vt 0.981584 0.629329
vt 0.978893 0.629270
vt 0.976033 0.629206
vt 0.374195 0.027569
vt 0.375714 0.029093
vt 0.374336 0.036693
vt 0.374195 0.036701
vt 0.376742 0.031247
vt 0.374540 0.036655
vt 0.377398 0.033838
vt 0.374553 0.036748
vt 0.377829 0.036657
vt 0.374627 0.036802
vt 0.349248 0.520974
vt 0.349248 0.520894
vt 0.349248 0.520817
vt 0.349248 0.520750
vt 0.247656 0.140279
vt 0.247656 0.125462
vt 0.328847 0.125462
vt 0.328847 0.140279
vt 0.113907 0.685196
vt 0.212066 0.685762
vt 0.211942 0.698054
vt 0.113791 0.697489
vt 0.984122 0.743900
vt 0.980910 0.743896
vt 0.424444 0.122021
vt 0.424444 0.125462
vt 0.343253 0.125462
vt 0.343253 0.122021
vt 0.085329 0.122021
vt 0.085329 0.125462
vt 0.004191 0.125462
vt 0.004191 0.122021
vt 0.166466 0.125462
vt 0.166466 0.122021
vt 0.004191 0.143719
vt 0.004191 0.140279
vt 0.085329 0.140279
vt 0.085329 0.143719
vt 0.166466 0.140279
vt 0.166466 0.143719
vt 0.247656 0.143719
vt 0.004191 0.340149
vt 0.004191 0.253266
vt 0.085329 0.253266
vt 0.085329 0.340149
vt 0.166466 0.253266
vt 0.166466 0.340149
vt 0.247656 0.253266
vt 0.247656 0.340149
vt 0.348410 0.511541
vt 0.348410 0.502214
vt 0.430652 0.502214
vt 0.430652 0.511541
vt 0.512895 0.502214
vt 0.512895 0.511541
vt 0.004191 0.244802
vt 0.085329 0.244802
vt 0.166466 0.244802
vt 0.247656 0.244802
vt 0.348410 0.406472
vt 0.348410 0.322667
vt 0.430652 0.322667
vt 0.430652 0.406472
vt 0.512895 0.322667
vt 0.512895 0.406472
vt 0.004191 0.004687
vt 0.085329 0.004687
vt 0.166466 0.004687
vt 0.794442 0.315039
vt 0.797543 0.315039
vt 0.813082 0.151924
vt 0.813082 0.233482
vt 0.809981 0.233482
vt 0.809981 0.151924
vt 0.813082 0.315039
vt 0.809981 0.315039
vt 0.004191 0.490096
vt 0.085329 0.490096
vt 0.085329 0.579134
vt 0.004191 0.579134
vt 0.166466 0.490096
vt 0.166466 0.579134
vt 0.247656 0.490096
vt 0.247656 0.579134
vt 0.348410 0.133793
vt 0.430652 0.133793
vt 0.430652 0.143120
vt 0.348410 0.143120
vt 0.512895 0.133793
vt 0.512895 0.143120
vt 0.897957 0.151924
vt 0.897957 0.233482
vt 0.897957 0.315039
vt 0.348410 0.241237
vt 0.430652 0.241237
vt 0.512895 0.241237
vt 0.695930 0.233482
vt 0.695930 0.151924
vt 0.695930 0.315039
vt 0.085329 0.587597
vt 0.004191 0.587597
vt 0.166466 0.587597
vt 0.247656 0.587597
vt 0.166466 0.416200
vt 0.247656 0.416200
vt 0.085329 0.416200
vt 0.004191 0.416200
vt 0.328847 0.409319
vt 0.338280 0.409319
vt 0.247656 0.409319
vt 0.447568 0.696480
vt 0.349248 0.696480
vt 0.459542 0.696480
vt 0.545889 0.696480
vt 0.782510 0.707803
vt 0.783806 0.707803
vt 0.782511 0.707803
vt 0.783806 0.707803
s 1
usemtl pure_de_tomate
f 119/1/1 121/2/2 8/3/3 4/4/4
f 42/5/5 13/6/6 17/7/7 44/8/8
f 382/9/1 119/1/1 4/4/4 361/10/9
f 139/11/10 135/12/11 143/13/12 144/14/13
f 373/15/14 39/16/15 3/17/16 364/18/17
f 425/19/18 40/20/18 12/21/18 417/22/18
f 415/23/19 417/24/18 12/25/18 2/26/19
f 436/27/19 415/23/19 2/26/19 367/28/19
f 66/29/20 19/30/21 18/31/22 65/32/23
f 15/33/24 14/34/25 18/31/22 19/30/21
f 64/35/26 15/36/24 19/37/21 66/38/20
f 13/39/6 16/40/27 20/41/28 17/42/7
f 55/43/29 60/44/30 4/45/4 25/46/31
f 56/47/32 55/43/29 25/46/31 26/48/33
f 57/49/34 56/47/32 26/48/33 27/50/35
f 58/51/36 57/49/34 27/50/35 28/52/37
f 64/53/26 58/51/36 28/52/37 15/54/24
f 25/55/31 4/56/4 8/57/3 29/58/38
f 26/59/33 25/55/31 29/58/38 30/60/39
f 27/61/35 26/59/33 30/60/39 31/62/40
f 28/63/37 27/61/35 31/62/40 32/64/41
f 15/65/24 28/63/37 32/64/41 14/66/25
f 50/67/42 38/68/43 6/69/44 33/70/45
f 51/71/46 50/67/42 33/70/45 34/72/47
f 52/73/48 51/71/46 34/72/47 35/74/49
f 53/75/50 52/73/48 35/74/49 36/76/51
f 42/77/5 53/75/50 36/76/51 13/78/6
f 33/79/45 6/80/44 3/81/16 21/82/52
f 34/83/47 33/79/45 21/82/52 22/84/53
f 35/85/49 34/83/47 22/84/53 23/86/54
f 36/87/51 35/85/49 23/86/54 24/88/55
f 13/89/6 36/87/51 24/88/55 16/90/27
f 114/91/56 112/92/57 82/93/58 80/94/59
f 113/95/60 111/96/61 83/97/62 85/98/63
f 112/92/57 109/99/64 84/100/65 82/93/58
f 111/96/61 108/101/66 81/102/67 83/97/62
f 108/101/66 103/103/68 79/104/69 81/102/67
f 16/105/27 24/106/55 49/107/36 43/108/70
f 24/106/55 23/109/54 48/110/34 49/107/36
f 23/109/54 22/111/53 47/112/71 48/110/34
f 22/111/53 21/113/52 46/114/72 47/112/71
f 21/113/52 3/17/16 39/16/15 46/114/72
f 16/115/27 43/116/70 45/117/73 20/118/28
f 20/41/28 45/119/73 44/120/8 17/42/7
f 109/99/64 104/121/74 86/122/75 84/100/65
f 37/123/76 166/124/77 186/125/78 177/126/79
s 0
f 137/127/80 138/128/80 146/129/80 147/130/80
s 1
f 110/131/81 105/132/81 74/133/81 73/134/81
f 14/135/25 63/136/82 65/137/23 18/138/22
f 140/139/83 142/140/84 149/141/85 148/142/86
f 361/143/9 4/144/4 60/145/30 376/146/87
f 423/147/2 10/148/2 61/149/88 426/150/89
f 29/151/38 8/152/3 59/153/90 67/154/91
f 30/155/39 29/151/38 67/154/91 68/156/92
f 31/157/40 30/155/39 68/156/92 69/158/93
f 32/159/41 31/157/40 69/158/93 70/160/94
f 14/161/25 32/159/41 70/160/94 63/162/82
f 43/108/70 49/107/36 58/51/36 64/53/26
f 49/107/36 48/110/34 57/49/34 58/51/36
f 48/110/34 47/112/71 56/47/32 57/49/34
f 47/112/71 46/114/72 55/43/29 56/47/32
f 46/114/72 39/16/15 60/44/30 55/43/29
f 43/116/70 64/35/26 66/38/20 45/117/73
f 45/119/73 66/29/20 65/32/23 44/120/8
f 75/163/95 85/98/63 86/122/75 76/164/96
f 85/98/63 83/97/62 84/100/65 86/122/75
f 83/97/62 81/102/67 82/93/58 84/100/65
f 81/102/67 79/104/69 80/94/59 82/93/58
f 79/104/69 71/165/97 72/166/98 80/94/59
f 428/167/99 73/168/100 74/169/101 427/170/102
f 75/171/95 76/172/96 78/173/103 77/174/104
f 115/175/105 106/176/106 75/171/95 77/174/104
f 106/177/106 113/95/60 85/98/63 75/163/95
f 116/178/107 114/91/56 80/94/59 72/166/98
f 134/179/19 116/180/107 72/181/98 129/182/108
f 117/183/109 115/184/105 77/185/104 78/186/103
f 430/187/110 110/188/110 73/168/100 428/167/99
f 104/121/74 107/189/111 76/164/96 86/122/75
f 103/103/68 118/190/112 71/165/97 79/104/69
f 107/191/111 117/192/109 78/173/103 76/172/96
f 42/5/5 44/8/8 100/193/113 102/194/114
f 67/154/91 59/153/90 101/195/115 88/196/116
f 53/75/50 42/77/5 102/197/114 90/198/117
f 426/150/89 61/149/88 91/199/118 429/200/119
f 44/120/8 65/32/23 98/201/120 100/202/113
f 125/203/18 38/204/43 99/205/121 132/206/122
f 38/68/43 50/67/42 96/207/123 99/208/121
f 63/162/82 70/160/94 95/209/124 97/210/125
f 65/137/23 63/136/82 97/211/125 98/212/120
f 61/213/81 40/214/81 92/215/81 91/216/81
f 52/73/48 53/75/50 90/198/117 89/217/126
f 68/156/92 67/154/91 88/196/116 87/218/127
f 69/158/93 68/156/92 87/218/127 93/219/128
f 51/71/46 52/73/48 89/217/126 94/220/129
f 70/160/94 69/158/93 93/219/128 95/209/124
f 50/67/42 51/71/46 94/220/129 96/207/123
f 102/194/114 100/193/113 117/192/109 107/191/111
f 88/196/116 101/195/115 118/190/112 103/103/68
f 90/198/117 102/197/114 107/189/111 104/121/74
f 429/200/119 91/199/118 110/188/110 430/187/110
f 100/202/113 98/201/120 115/184/105 117/183/109
f 132/206/122 99/205/121 116/180/107 134/179/19
f 99/208/121 96/207/123 114/91/56 116/178/107
f 97/210/125 95/209/124 113/95/60 106/177/106
f 98/212/120 97/211/125 106/176/106 115/175/105
f 91/216/81 92/215/81 105/132/81 110/131/81
f 89/217/126 90/198/117 104/121/74 109/99/64
f 87/218/127 88/196/116 103/103/68 108/101/66
f 93/219/128 87/218/127 108/101/66 111/96/61
f 94/220/129 89/217/126 109/99/64 112/92/57
f 95/209/124 93/219/128 111/96/61 113/95/60
f 96/207/123 94/220/129 112/92/57 114/91/56
f 420/221/130 132/206/122 134/179/19 421/222/19
f 101/223/115 131/224/131 133/225/132 118/226/112
f 425/19/18 125/203/18 132/206/122 420/221/130
f 59/227/90 128/228/89 131/224/131 101/223/115
f 118/226/112 133/225/132 130/229/99 71/230/97
f 421/222/19 134/179/19 129/182/108 427/170/102
f 71/230/97 130/229/99 129/182/108 72/181/98
f 8/231/3 121/232/2 128/228/89 59/227/90
f 416/233/133 123/234/134 127/235/135 419/236/136
f 419/236/136 127/235/135 126/237/137 418/238/138
f 364/239/17 3/240/16 120/241/19 379/242/19
f 3/240/16 6/243/44 124/244/18 120/241/19
f 38/204/43 125/203/18 124/245/18 6/246/44
f 418/238/138 126/237/137 122/247/139 424/248/140
f 433/249/1 422/250/1 119/1/1 382/9/1
f 422/250/1 423/251/2 121/2/2 119/1/1
f 136/252/141 140/253/83 148/254/86 145/255/142
f 141/256/143 139/257/10 144/258/13 150/259/144
s 0
f 138/128/145 136/260/145 145/261/145 146/129/145
s 1
f 146/262/81 145/255/142 148/254/86 149/263/85
f 143/13/12 147/264/81 150/265/144 144/14/13
f 147/264/81 146/262/81 149/263/85 150/265/144
s 0
f 135/266/146 137/127/146 147/130/146 143/267/146
s 1
f 150/265/144 149/263/85 179/268/147 180/269/148
f 126/237/137 127/235/135 154/270/149 151/271/150
f 151/271/150 154/270/149 155/272/151 152/273/152
f 152/273/152 155/272/151 156/274/153 153/275/154
f 153/275/154 156/274/153 138/276/155 137/277/155
f 127/235/135 123/234/134 157/278/156 154/270/149
f 154/270/149 157/278/156 158/279/157 155/272/151
f 155/272/151 158/279/157 159/280/158 156/274/153
f 156/274/153 159/280/158 136/281/141 138/276/155
f 123/282/134 7/283/159 160/284/160 157/285/156
f 157/285/156 160/284/160 161/286/161 158/287/157
f 158/287/157 161/286/161 162/288/162 159/289/158
f 159/289/158 162/288/162 140/290/83 136/291/141
f 7/292/159 54/293/163 163/294/164 160/295/160
f 160/295/160 163/294/164 164/296/165 161/297/161
f 161/297/161 164/296/165 165/298/166 162/299/162
f 162/299/162 165/298/166 142/300/84 140/301/83
f 142/300/84 165/298/166 185/302/167 181/303/168
f 168/304/169 141/305/143 182/306/170 188/307/171
f 165/298/166 164/296/165 184/308/172 185/302/167
f 167/309/173 168/304/169 188/307/171 187/310/174
f 37/123/76 5/311/175 169/312/176 166/124/77
f 166/124/77 169/312/176 170/313/177 167/309/173
f 167/309/173 170/313/177 171/314/178 168/304/169
f 168/304/169 171/314/178 139/315/10 141/305/143
f 5/316/175 122/317/139 172/318/179 169/319/176
f 169/319/176 172/318/179 173/320/180 170/321/177
f 170/321/177 173/320/180 174/322/181 171/323/178
f 171/323/178 174/322/181 135/324/11 139/325/10
f 122/247/139 126/237/137 151/271/150 172/326/179
f 172/326/179 151/271/150 152/273/152 173/327/180
f 173/327/180 152/273/152 153/275/154 174/328/181
f 174/328/181 153/275/154 137/277/155 135/329/11
f 388/330/182 175/331/183 176/332/184 385/333/185
f 181/334/168 182/335/170 180/336/148 179/337/147
f 178/338/186 177/126/79 186/125/78 183/339/187
f 183/339/187 186/125/78 187/310/174 184/308/172
f 184/308/172 187/310/174 188/307/171 185/302/167
f 185/302/167 188/307/171 182/306/170 181/303/168
f 163/294/164 54/293/163 178/338/186 183/339/187
f 149/141/85 142/140/84 181/334/168 179/337/147
f 376/146/87 60/145/30 175/331/183 388/330/182
f 166/124/77 167/309/173 187/310/174 186/125/78
f 375/340/188 37/341/76 177/342/79 387/343/189
f 141/256/143 150/259/144 180/336/148 182/335/170
f 164/296/165 163/294/164 183/339/187 184/308/172
f 60/344/30 39/16/15 176/332/184 175/345/183
f 291/346/1 190/347/190 194/348/191 293/349/2
f 222/350/192 224/351/193 199/352/194 195/353/195
f 406/354/1 391/355/196 190/347/190 291/346/1
f 311/356/197 316/357/198 315/358/199 307/359/200
f 397/360/201 394/361/202 189/362/203 221/363/204
f 447/364/18 439/365/18 12/21/18 40/20/18
f 437/366/19 2/26/19 12/25/18 439/367/18
f 458/368/19 367/28/19 2/26/19 437/366/19
f 244/369/205 243/370/206 200/371/207 201/372/208
f 197/373/209 201/372/208 200/371/207 196/374/210
f 242/375/211 244/376/205 201/377/208 197/378/209
f 195/379/195 199/380/194 202/381/212 198/382/213
f 235/383/214 207/384/215 190/347/190 240/385/216
f 236/386/217 208/387/218 207/384/215 235/383/214
f 237/388/219 209/389/220 208/387/218 236/386/217
f 238/390/221 210/391/222 209/389/220 237/388/219
f 242/392/211 197/393/209 210/391/222 238/390/221
f 207/394/215 211/395/223 194/396/191 190/397/190
f 208/398/218 212/399/224 211/395/223 207/394/215
f 209/400/220 213/401/225 212/399/224 208/398/218
f 210/402/222 214/403/226 213/401/225 209/400/220
f 197/404/209 196/405/210 214/403/226 210/402/222
f 230/406/227 215/407/228 192/408/229 220/409/230
f 231/410/231 216/411/232 215/407/228 230/406/227
f 232/412/233 217/413/234 216/411/232 231/410/231
f 233/414/235 218/415/236 217/413/234 232/412/233
f 222/416/192 195/417/195 218/415/236 233/414/235
f 215/418/228 203/419/237 189/420/203 192/421/229
f 216/422/232 204/423/238 203/419/237 215/418/228
f 217/424/234 205/425/239 204/423/238 216/422/232
f 218/426/236 206/427/240 205/425/239 217/424/234
f 195/428/195 198/429/213 206/427/240 218/426/236
f 286/430/241 256/431/242 258/432/243 284/433/244
f 285/434/245 261/435/246 259/436/247 283/437/248
f 284/433/244 258/432/243 260/438/249 282/439/250
f 283/437/248 259/436/247 257/440/251 281/441/252
f 281/441/252 257/440/251 255/442/253 277/443/254
f 198/444/213 223/445/255 229/446/221 206/447/240
f 206/447/240 229/446/221 228/448/219 205/449/239
f 205/449/239 228/448/219 227/450/256 204/451/238
f 204/451/238 227/450/256 226/452/257 203/453/237
f 203/453/237 226/452/257 221/363/204 189/362/203
f 198/454/213 202/455/212 225/456/258 223/457/255
f 202/381/212 199/380/194 224/458/193 225/459/258
f 282/439/250 260/438/249 262/460/259 278/461/260
f 219/462/261 349/463/262 358/464/263 338/465/264
s 0
f 309/466/265 319/467/265 318/468/265 310/469/265
s 1
f 196/470/210 200/471/207 243/472/206 241/473/266
f 312/474/267 320/475/268 321/476/269 314/477/270
f 391/355/196 400/478/271 240/385/216 190/347/190
f 445/479/2 448/480/89 61/481/88 10/482/2
f 211/483/223 245/484/272 239/485/273 194/486/191
f 212/487/224 246/488/274 245/484/272 211/483/223
f 213/489/225 247/490/275 246/488/274 212/487/224
f 214/491/226 248/492/276 247/490/275 213/489/225
f 196/493/210 241/494/266 248/492/276 214/491/226
f 223/445/255 242/392/211 238/390/221 229/446/221
f 229/446/221 238/390/221 237/388/219 228/448/219
f 228/448/219 237/388/219 236/386/217 227/450/256
f 227/450/256 236/386/217 235/383/214 226/452/257
f 226/452/257 235/383/214 240/385/216 221/363/204
f 223/457/255 225/456/258 244/376/205 242/375/211
f 225/459/258 224/458/193 243/370/206 244/369/205
f 251/495/277 252/496/278 262/460/259 261/435/246
f 261/435/246 262/460/259 260/438/249 259/436/247
f 259/436/247 260/438/249 258/432/243 257/440/251
f 257/440/251 258/432/243 256/431/242 255/442/253
f 255/442/253 256/431/242 250/497/279 249/498/280
f 450/499/281 449/500/282 74/501/283 73/502/284
f 251/503/277 253/504/285 254/505/286 252/506/278
f 287/507/287 253/504/285 251/503/277 279/508/288
f 279/509/288 251/495/277 261/435/246 285/434/245
f 288/510/289 250/497/279 256/431/242 286/430/241
f 306/511/19 301/512/290 250/513/279 288/514/289
f 289/515/291 254/516/286 253/517/285 287/518/287
f 452/519/292 450/499/281 73/502/284 110/520/292
f 278/461/260 262/460/259 252/496/278 280/521/293
f 277/443/254 255/442/253 249/498/280 290/522/294
f 280/523/293 252/506/278 254/505/286 289/524/291
f 222/350/192 276/525/295 274/526/296 224/351/193
f 245/484/272 264/527/297 275/528/298 239/485/273
f 233/414/235 266/529/299 276/530/295 222/416/192
f 448/480/89 451/531/119 91/532/118 61/481/88
f 224/458/193 274/533/296 272/534/300 243/370/206
f 297/535/18 304/536/122 273/537/301 220/538/230
f 220/409/230 273/539/301 270/540/302 230/406/227
f 241/494/266 271/541/303 269/542/304 248/492/276
f 243/472/206 272/543/300 271/544/303 241/473/266
f 232/412/233 265/545/305 266/529/299 233/414/235
f 246/488/274 263/546/306 264/527/297 245/484/272
f 247/490/275 267/547/307 263/546/306 246/488/274
f 231/410/231 268/548/308 265/545/305 232/412/233
f 248/492/276 269/542/304 267/547/307 247/490/275
f 230/406/227 270/540/302 268/548/308 231/410/231
f 276/525/295 280/523/293 289/524/291 274/526/296
f 264/527/297 277/443/254 290/522/294 275/528/298
f 266/529/299 278/461/260 280/521/293 276/530/295
f 451/531/119 452/519/292 110/520/292 91/532/118
f 274/533/296 289/515/291 287/518/287 272/534/300
f 304/536/122 306/511/19 288/514/289 273/537/301
f 273/539/301 288/510/289 286/430/241 270/540/302
f 271/541/303 279/509/288 285/434/245 269/542/304
f 272/543/300 287/507/287 279/508/288 271/544/303
f 265/545/305 282/439/250 278/461/260 266/529/299
f 263/546/306 281/441/252 277/443/254 264/527/297
f 267/547/307 283/437/248 281/441/252 263/546/306
f 268/548/308 284/433/244 282/439/250 265/545/305
f 269/542/304 285/434/245 283/437/248 267/547/307
f 270/540/302 286/430/241 284/433/244 268/548/308
f 442/549/130 443/550/19 306/511/19 304/536/122
f 275/551/298 290/552/294 305/553/309 303/554/131
f 447/364/18 442/549/130 304/536/122 297/535/18
f 239/555/273 275/551/298 303/554/131 300/556/89
f 290/552/294 249/557/280 302/558/281 305/553/309
f 443/550/19 449/500/282 301/512/290 306/511/19
f 249/557/280 250/513/279 301/512/290 302/558/281
f 194/559/191 239/555/273 300/556/89 293/560/2
f 438/561/310 441/562/311 299/563/312 295/564/313
f 441/562/311 440/565/314 298/566/315 299/563/312
f 394/567/202 403/568/19 292/569/19 189/570/203
f 189/570/203 292/569/19 296/571/18 192/572/229
f 220/538/230 192/573/229 296/574/18 297/535/18
f 440/565/314 446/575/316 294/576/317 298/566/315
f 455/577/1 406/354/1 291/346/1 444/578/1
f 444/578/1 291/346/1 293/349/2 445/579/2
f 308/580/318 317/581/319 320/582/268 312/583/267
f 313/584/320 322/585/321 316/586/198 311/587/197
s 0
f 310/469/322 318/468/322 317/588/322 308/589/322
s 1
f 318/590/323 321/591/269 320/582/268 317/581/319
f 315/358/199 316/357/198 322/592/321 319/593/323
f 319/593/323 322/592/321 321/591/269 318/590/323
s 0
f 307/594/324 315/595/324 319/467/324 309/466/324
s 1
f 322/592/321 352/596/325 351/597/326 321/591/269
f 298/566/315 323/598/327 326/599/328 299/563/312
f 323/598/327 324/600/329 327/601/330 326/599/328
f 324/600/329 325/602/331 328/603/332 327/601/330
f 325/602/331 309/604/333 310/605/333 328/603/332
f 299/563/312 326/599/328 329/606/334 295/564/313
f 326/599/328 327/601/330 330/607/335 329/606/334
f 327/601/330 328/603/332 331/608/336 330/607/335
f 328/603/332 310/605/333 308/609/318 331/608/336
f 295/610/313 329/611/334 332/612/337 193/613/338
f 329/611/334 330/614/335 333/615/339 332/612/337
f 330/614/335 331/616/336 334/617/340 333/615/339
f 331/616/336 308/618/318 312/619/267 334/617/340
f 193/613/338 332/612/337 335/620/341 234/621/342
f 332/612/337 333/615/339 336/622/343 335/620/341
f 333/615/339 334/617/340 337/623/344 336/622/343
f 334/617/340 312/619/267 314/624/270 337/623/344
f 314/624/270 353/625/345 357/626/346 337/623/344
f 340/627/347 360/628/348 354/629/349 313/630/320
f 337/623/344 357/626/346 356/631/350 336/622/343
f 339/632/351 359/633/352 360/628/348 340/627/347
f 219/462/261 338/465/264 341/634/353 191/635/354
f 338/465/264 339/632/351 342/636/355 341/634/353
f 339/632/351 340/627/347 343/637/356 342/636/355
f 340/627/347 313/630/320 311/638/197 343/637/356
f 191/639/354 341/640/353 344/641/357 294/642/317
f 341/640/353 342/643/355 345/644/358 344/641/357
f 342/643/355 343/645/356 346/646/359 345/644/358
f 343/645/356 311/647/197 307/648/200 346/646/359
f 294/576/317 344/649/357 323/598/327 298/566/315
f 344/649/357 345/650/358 324/600/329 323/598/327
f 345/650/358 346/651/359 325/602/331 324/600/329
f 346/651/359 307/652/200 309/604/333 325/602/331
f 412/653/360 409/654/361 348/655/362 347/656/363
f 353/657/345 351/658/326 352/659/325 354/660/349
f 350/661/364 355/662/365 358/464/263 349/463/262
f 355/662/365 356/631/350 359/633/352 358/464/263
f 356/631/350 357/626/346 360/628/348 359/633/352
f 357/626/346 353/625/345 354/629/349 360/628/348
f 335/620/341 355/662/365 350/661/364 234/621/342
f 321/476/269 351/658/326 353/657/345 314/477/270
f 400/663/271 412/664/360 347/665/363 240/666/216
f 338/465/264 358/464/263 359/633/352 339/632/351
f 399/667/366 411/668/367 349/669/262 219/670/261
f 313/584/320 354/660/349 352/659/325 322/585/321
f 336/622/343 356/631/350 355/662/365 335/620/341
f 240/666/216 347/665/363 348/655/362 221/363/204
f 221/363/204 348/655/362 409/654/361 397/360/201
f 397/360/201 409/654/361 410/671/368 398/672/369
f 398/672/369 410/671/368 411/668/367 399/667/366
f 234/673/342 350/674/364 414/675/370 402/676/371
f 402/676/371 414/675/370 413/677/372 401/678/373
f 401/678/373 413/677/372 412/653/360 400/679/271
f 350/674/364 349/669/262 411/668/367 414/675/370
f 414/675/370 411/668/367 410/671/368 413/677/372
f 413/677/372 410/671/368 409/654/361 412/653/360
f 438/680/310 295/681/313 408/682/1 453/683/1
f 453/683/1 408/682/1 407/684/1 454/685/1
f 454/685/1 407/684/1 406/686/1 455/687/1
f 191/688/354 294/689/317 405/690/19 396/691/366
f 396/691/366 405/690/19 404/692/19 395/693/374
f 395/693/374 404/692/19 403/568/19 394/567/202
f 193/694/338 234/673/342 402/676/371 393/695/375
f 393/695/375 402/676/371 401/678/373 392/696/376
f 392/696/376 401/678/373 400/679/271 391/697/196
f 446/698/316 11/699/377 369/700/19 456/701/19
f 456/701/19 369/700/19 368/702/19 457/703/19
f 457/703/19 368/702/19 367/28/19 458/368/19
f 219/670/261 191/704/354 396/705/366 399/667/366
f 399/667/366 396/705/366 395/706/374 398/672/369
f 398/672/369 395/706/374 394/361/202 397/360/201
f 295/681/313 193/694/338 393/695/375 408/682/1
f 408/682/1 393/695/375 392/696/376 407/684/1
f 407/684/1 392/696/376 391/697/196 406/686/1
f 39/16/15 373/15/14 385/333/185 176/332/184
f 373/15/14 374/707/378 386/708/379 385/333/185
f 374/707/378 375/340/188 387/343/189 386/708/379
f 54/709/163 378/710/380 390/711/381 178/712/186
f 378/710/380 377/713/382 389/714/383 390/711/381
f 377/713/382 376/146/87 388/330/182 389/714/383
f 178/712/186 390/711/381 387/343/189 177/342/79
f 390/711/381 389/714/383 386/708/379 387/343/189
f 389/714/383 388/330/182 385/333/185 386/708/379
f 416/715/133 431/716/1 384/717/1 123/718/134
f 431/716/1 432/719/1 383/720/1 384/717/1
f 432/719/1 433/721/1 382/722/1 383/720/1
f 5/723/175 366/724/188 381/725/19 122/726/139
f 366/724/188 365/727/384 380/728/19 381/725/19
f 365/727/384 364/239/17 379/242/19 380/728/19
f 7/729/159 363/730/385 378/710/380 54/709/163
f 363/730/385 362/731/386 377/713/382 378/710/380
f 362/731/386 361/143/9 376/146/87 377/713/382
f 424/732/140 434/733/19 369/700/19 11/699/377
f 434/733/19 435/734/19 368/702/19 369/700/19
f 435/734/19 436/27/19 367/28/19 368/702/19
f 37/341/76 375/340/188 366/735/188 5/736/175
f 375/340/188 374/707/378 365/737/384 366/735/188
f 374/707/378 373/15/14 364/18/17 365/737/384
f 123/718/134 384/717/1 363/738/385 7/739/159
f 384/717/1 383/720/1 362/740/386 363/738/385
f 383/720/1 382/722/1 361/741/9 362/740/386
f 380/728/19 379/242/19 436/27/19 435/734/19
f 381/725/19 380/728/19 435/734/19 434/733/19
f 122/726/139 381/725/19 434/733/19 424/732/140
f 371/742/1 370/743/1 433/721/1 432/719/1
f 372/744/1 371/742/1 432/719/1 431/716/1
f 9/745/387 372/744/1 431/716/1 416/715/133
f 1/746/1 10/747/2 423/251/2 422/250/1
f 370/748/1 1/746/1 422/250/1 433/249/1
f 41/749/388 418/238/138 424/248/140 11/750/377
f 62/751/389 419/236/136 418/238/138 41/749/388
f 9/752/387 416/233/133 419/236/136 62/751/389
f 105/753/19 421/222/19 427/170/102 74/169/101
f 40/20/18 425/19/18 420/221/130 92/754/390
f 92/754/390 420/221/130 421/222/19 105/753/19
f 131/224/131 429/200/119 430/187/110 133/225/132
f 128/228/89 426/150/89 429/200/119 131/224/131
f 133/225/132 430/187/110 428/167/99 130/229/99
f 130/229/99 428/167/99 427/170/102 129/182/108
f 121/232/2 423/147/2 426/150/89 128/228/89
f 379/242/19 120/241/19 415/23/19 436/27/19
f 120/241/19 124/244/18 417/24/18 415/23/19
f 125/203/18 425/19/18 417/22/18 124/245/18
f 404/692/19 457/703/19 458/368/19 403/568/19
f 405/690/19 456/701/19 457/703/19 404/692/19
f 294/689/317 446/698/316 456/701/19 405/690/19
f 371/742/1 454/685/1 455/687/1 370/743/1
f 372/744/1 453/683/1 454/685/1 371/742/1
f 9/745/387 438/680/310 453/683/1 372/744/1
f 1/746/1 444/578/1 445/579/2 10/747/2
f 370/748/1 455/577/1 444/578/1 1/746/1
f 41/749/388 11/750/377 446/575/316 440/565/314
f 62/751/389 41/749/388 440/565/314 441/562/311
f 9/752/387 62/751/389 441/562/311 438/561/310
f 105/755/19 74/501/283 449/500/282 443/550/19
f 40/20/18 92/756/390 442/549/130 447/364/18
f 92/756/390 105/755/19 443/550/19 442/549/130
f 303/554/131 305/553/309 452/519/292 451/531/119
f 300/556/89 303/554/131 451/531/119 448/480/89
f 305/553/309 302/558/281 450/499/281 452/519/292
f 302/558/281 301/512/290 449/500/282 450/499/281
f 293/560/2 300/556/89 448/480/89 445/479/2
f 403/568/19 458/368/19 437/366/19 292/569/19
f 292/569/19 437/366/19 439/367/18 296/571/18
f 297/535/18 296/574/18 439/365/18 447/364/18
