# Blender 5.0.1
# www.blender.org
mtllib Snacks bolsa.mtl
o Snacks_Bolsa
v -1.651546 -0.000000 -0.839679
v -1.659262 -0.000000 0.922483
v -1.891851 2.754249 -0.112071
v -1.891850 2.754249 0.096682
v 1.668033 -0.000000 -0.839679
v 1.670049 -0.000000 0.960241
v 1.885377 2.754254 -0.112071
v 1.886471 2.754254 0.098264
v -2.010623 3.063107 -0.052368
v 2.003474 3.063396 -0.052372
v -1.594481 1.863188 -0.640175
v -1.592318 1.863188 0.594004
v 1.593255 1.863188 -0.640175
v 1.595295 1.863112 0.620539
v 1.905584 2.754400 -0.008429
v 2.027845 -0.000000 0.015123
v 1.845251 1.863188 -0.008848
v -2.021769 -0.000000 0.015123
v -1.911861 2.754249 -0.008740
v -1.824744 1.863188 -0.008848
v 2.003474 3.063396 -0.006756
v -2.010623 3.063107 -0.006752
v 2.000999 3.072434 -0.030354
v -2.017120 3.066276 -0.030455
v -1.658417 0.932443 -0.765397
v 1.666529 0.932442 0.811336
v -1.660905 0.932442 0.779408
v 1.665638 0.932443 -0.765397
v 1.979497 0.932443 0.002852
v -1.965580 0.932443 0.002852
v -0.003302 2.754249 0.102241
v 0.008411 -0.000000 0.996965
v -0.003354 3.066276 -0.007537
v -0.001141 1.863188 0.644193
v 0.003502 0.932442 0.842387
v 0.948256 2.754249 0.102241
v 0.797208 1.863188 0.644193
v 0.833971 0.932442 0.842387
v 0.836874 -0.000000 0.996965
v 1.008808 3.066276 -0.007545
v -0.820051 -0.000000 0.996965
v -1.015515 3.066276 -0.007529
v -0.954861 2.754249 0.102241
v -0.799492 1.863188 0.644193
v -0.826969 0.932442 0.842387
v -0.479083 2.754249 0.102241
v -0.400316 1.863188 0.644193
v -0.411733 0.932442 0.842387
v -0.405819 -0.000000 0.996965
v -0.509434 3.066276 -0.007533
v -1.234282 -0.000000 0.996965
v -1.521596 3.066276 -0.007525
v -1.430642 2.754249 0.102241
v -1.198665 1.863188 0.644193
v -1.242204 0.932442 0.842387
v 1.424036 2.754249 0.102241
v 1.196383 1.863188 0.644193
v 1.249207 0.932442 0.842387
v 1.251104 -0.000000 0.996965
v 1.514837 3.066309 -0.007544
v 0.422642 -0.000000 0.996965
v 0.502726 3.066276 -0.007541
v 0.472477 2.754249 0.102241
v 0.398033 1.863188 0.644193
v 0.418737 0.932442 0.842387
v -0.003302 2.754249 -0.117560
v 0.008411 -0.000000 -0.857285
v -0.001141 1.863188 -0.660540
v -0.003354 3.066276 -0.052083
v 0.003502 0.932443 -0.781449
v -0.954861 2.754249 -0.117560
v -0.799492 1.863188 -0.660540
v -1.015515 3.066276 -0.052074
v -0.826969 0.932443 -0.781449
v -0.820051 -0.000000 -0.857285
v -0.405819 -0.000000 -0.857285
v -0.479083 2.754249 -0.117560
v -0.400316 1.863188 -0.660540
v -0.509434 3.066276 -0.052079
v -0.411733 0.932443 -0.781449
v -1.430640 2.754249 -0.117560
v -1.198667 1.863188 -0.660540
v -1.521596 3.066276 -0.052070
v -1.242204 0.932443 -0.781449
v -1.234282 -0.000000 -0.857285
v 0.836874 -0.000000 -0.857285
v 0.948256 2.754249 -0.117560
v 0.797208 1.863188 -0.660540
v 1.008808 3.066276 -0.052091
v 0.833971 0.932443 -0.781449
v 0.472477 2.754249 -0.117560
v 0.398033 1.863188 -0.660540
v 0.502726 3.066276 -0.052087
v 0.418736 0.932443 -0.781449
v 0.422642 -0.000000 -0.857285
v 1.251104 -0.000000 -0.857285
v 1.424036 2.754249 -0.117560
v 1.196383 1.863188 -0.660540
v 1.514837 3.066309 -0.052090
v 1.249207 0.932443 -0.781449
v -0.003354 3.072613 -0.031261
v 1.515109 3.073684 -0.031492
v -0.510054 3.072613 -0.031130
v 1.010046 3.072613 -0.031522
v -1.016753 3.072613 -0.030999
v 0.503347 3.072613 -0.031391
v -1.523454 3.072613 -0.030868
v -1.662317 0.466754 -0.805709
v -1.905127 -0.000000 0.495784
v -1.713007 2.316123 0.319177
v -1.909902 2.754249 -0.062811
v -1.668271 2.754249 -0.117186
v 1.661925 2.754249 0.102242
v 1.903539 2.754353 -0.062766
v 1.710926 2.316123 -0.335565
v 1.675588 0.466754 0.888953
v 1.914561 -0.000000 -0.431340
v 1.458220 -0.000000 -0.857285
v -1.441398 -0.000000 0.996965
v -1.774636 2.981982 -0.007523
v -1.960452 2.920519 0.039835
v -2.017120 3.066276 -0.041497
v 1.953590 2.920619 0.039834
v -1.713007 2.316123 -0.335565
v -1.629956 1.398131 0.694700
v 1.632812 1.398131 -0.714516
v 1.725509 2.316123 0.341729
v 1.395970 1.863188 0.644193
v -1.397993 1.863188 -0.660167
v 1.766979 1.863188 -0.334447
v -1.753577 1.863188 -0.334447
v 1.903781 2.754353 0.046762
v 1.914561 -0.000000 0.495784
v 1.767221 1.863188 0.317546
v 1.872212 2.316123 -0.008508
v 2.012225 0.466754 0.008963
v -1.905127 -0.000000 -0.431340
v -1.909902 2.754249 0.046341
v -1.753577 1.863188 0.317172
v -1.900581 1.398131 -0.003179
v -1.864895 2.316123 -0.008542
v -1.774636 2.981982 -0.052068
v 1.953590 2.920619 -0.077200
v -1.960452 2.920519 -0.077198
v 2.003941 3.070509 -0.041530
v 2.003941 3.070509 -0.018818
v 1.959079 2.923732 -0.019336
v -2.017120 3.066276 -0.018784
v -1.970698 2.920519 -0.019569
v -1.630068 1.398132 -0.714516
v 1.633137 1.398131 0.723171
v -1.667416 0.466754 0.853985
v 1.674134 0.466754 -0.805709
v 1.918248 1.398131 -0.003179
v -2.002190 0.466754 0.008963
v -1.869285 0.932443 -0.394477
v 1.881041 0.932443 -0.394477
v -1.869285 0.932443 0.417441
v 1.456825 0.932442 0.842388
v -1.449821 0.932443 -0.781449
v 1.881041 0.932443 0.417441
v -0.241193 2.754249 0.102242
v 0.215527 -0.000000 0.996965
v 0.249686 2.981982 -0.007539
v -0.200729 1.863188 0.644193
v -0.204116 0.932442 0.842388
v 0.001131 1.398131 0.750861
v -0.002278 2.316123 0.372062
v 0.005937 0.466754 0.922962
v -0.003354 2.920519 0.041100
v 0.710366 2.754249 0.102242
v 0.597621 1.863188 0.644193
v 0.626354 0.932442 0.842388
v 1.043988 -0.000000 0.996965
v 1.261842 2.981987 -0.007547
v 0.839062 0.466754 0.922962
v 0.871423 2.316123 0.372062
v 0.816753 1.398131 0.750861
v 0.980318 2.920519 0.041100
v -0.612935 -0.000000 0.996965
v -0.762475 2.981982 -0.007531
v -1.192751 2.754249 0.102242
v -0.999078 1.863188 0.644193
v -1.034586 0.932442 0.842388
v -0.987026 2.920519 0.041100
v -0.814491 1.398131 0.750861
v -0.875977 2.316123 0.372062
v -0.827187 0.466754 0.922962
v -0.716972 2.754249 0.102242
v -0.599903 1.863188 0.644193
v -0.619352 0.932442 0.842388
v -0.198705 -0.000000 0.996965
v -0.256394 2.981982 -0.007535
v -0.410626 0.466754 0.922962
v -0.439127 2.316123 0.372062
v -0.406680 1.398131 0.750861
v -0.495190 2.920519 0.041100
v -1.027166 -0.000000 0.996965
v -1.268556 2.981982 -0.007527
v -1.668271 2.754249 0.101867
v -1.397993 1.863188 0.643818
v -1.449821 0.932442 0.842388
v -1.478862 2.920519 0.041100
v -1.222301 1.398131 0.750861
v -1.312827 2.316123 0.372062
v -1.243749 0.466754 0.922962
v 1.186146 2.754249 0.102242
v 0.996795 1.863188 0.644193
v 1.041590 0.932442 0.842388
v 1.458220 -0.000000 0.996965
v 1.767769 2.982087 -0.007535
v 1.224564 1.398131 0.750861
v 1.308273 2.316123 0.372062
v 1.255623 0.466754 0.922962
v 1.472154 2.920519 0.041100
v 0.629758 -0.000000 0.996965
v 0.755768 2.981982 -0.007543
v 0.234587 2.754249 0.102242
v 0.198446 1.863188 0.644193
v 0.211119 0.932442 0.842388
v 0.488482 2.920519 0.041100
v 0.422500 0.466754 0.922962
v 0.434574 2.316123 0.372062
v 0.408941 1.398131 0.750861
v 0.234587 2.754249 -0.117560
v -0.198705 -0.000000 -0.857285
v 0.198446 1.863188 -0.660540
v 0.249686 2.981982 -0.052085
v 0.211119 0.932443 -0.781449
v 0.001131 1.398131 -0.729504
v -0.002278 2.316123 -0.388284
v -0.003354 2.920519 -0.078424
v 0.005937 0.466754 -0.822604
v -0.716972 2.754249 -0.117560
v -0.599903 1.863188 -0.660540
v -0.762475 2.981982 -0.052077
v -0.619352 0.932443 -0.781449
v -1.027166 -0.000000 -0.857285
v -0.827187 0.466754 -0.822604
v -0.875977 2.316123 -0.388284
v -0.814491 1.398131 -0.729504
v -0.987026 2.920519 -0.078424
v -0.612935 -0.000000 -0.857285
v -0.241193 2.754249 -0.117560
v -0.200729 1.863188 -0.660540
v -0.256394 2.981982 -0.052081
v -0.204116 0.932443 -0.781449
v -0.495190 2.920519 -0.078424
v -0.410626 0.466754 -0.822604
v -0.439127 2.316123 -0.388284
v -0.406680 1.398131 -0.729504
v -1.192751 2.754249 -0.117560
v -0.999078 1.863188 -0.660540
v -1.268556 2.981982 -0.052072
v -1.034586 0.932443 -0.781449
v -1.441398 -0.000000 -0.857285
v -1.222301 1.398131 -0.729504
v -1.312827 2.316123 -0.388284
v -1.243749 0.466754 -0.822604
v -1.478862 2.920519 -0.078424
v 0.629758 -0.000000 -0.857285
v 1.186146 2.754249 -0.117560
v 0.996795 1.863188 -0.660540
v 1.261842 2.981987 -0.052092
v 1.041590 0.932443 -0.781449
v 0.980318 2.920519 -0.078424
v 0.816752 1.398131 -0.729504
v 0.871423 2.316123 -0.388284
v 0.839061 0.466754 -0.822604
v 0.710366 2.754249 -0.117560
v 0.597621 1.863188 -0.660540
v 0.755768 2.981982 -0.052089
v 0.626354 0.932443 -0.781449
v 0.215527 -0.000000 -0.857285
v 0.422500 0.466754 -0.822604
v 0.434574 2.316123 -0.388284
v 0.408941 1.398131 -0.729504
v 0.488482 2.920519 -0.078424
v 1.043988 -0.000000 -0.857285
v 1.661683 2.754249 -0.117186
v 1.395728 1.863188 -0.660167
v 1.767769 2.982087 -0.052081
v 1.456825 0.932443 -0.781449
v 1.472154 2.920519 -0.078424
v 1.224563 1.398131 -0.729504
v 1.308273 2.316123 -0.388284
v 1.255623 0.466754 -0.822604
v 1.515621 3.073349 -0.041658
v 1.010046 3.072613 -0.041679
v 0.503347 3.072613 -0.041589
v -0.003354 3.072613 -0.041499
v -0.510054 3.072613 -0.041409
v -1.016753 3.072613 -0.041319
v -1.523454 3.072613 -0.041229
v -0.003354 3.072613 -0.020398
v 1.515621 3.073349 -0.020557
v -0.510054 3.072613 -0.020308
v 1.010046 3.072613 -0.020578
v -1.016753 3.072613 -0.020218
v 0.503347 3.072613 -0.020488
v -1.523454 3.072613 -0.020128
v -0.256704 2.988320 -0.031195
v 1.764980 2.991666 -0.031214
v -0.763403 2.988320 -0.031064
v -1.776804 2.988320 -0.030822
v 1.263192 2.988453 -0.031568
v -1.270104 2.988320 -0.030933
v 0.756696 2.988320 -0.031457
v 0.249997 2.988320 -0.031326
v -1.825222 2.316123 0.176405
v 1.718072 2.920519 0.041100
v 1.905964 0.466754 0.458234
v 1.463905 0.466754 -0.822604
v -1.452031 0.466754 0.922962
v -1.724780 2.920519 -0.078424
v -1.527586 2.316123 0.366773
v 1.523278 2.316123 -0.383012
v 1.832497 2.316123 0.181702
v -1.816059 1.398131 0.371243
v 1.829077 2.316123 -0.193199
v 1.905964 0.466754 -0.414548
v -1.816059 1.398131 -0.368939
v -1.825222 2.316123 -0.193207
v -1.776804 2.988320 -0.020088
v 1.960614 2.922727 -0.049006
v -1.970698 2.920519 0.010743
v 1.960614 2.922728 0.010756
v -1.970698 2.920519 -0.049019
v -1.895353 0.466754 -0.414548
v 1.828912 1.398131 -0.368939
v -1.895353 0.466754 0.458234
v -1.426208 1.398131 0.750861
v 1.428469 1.398131 -0.729504
v 1.828912 1.398131 0.371243
v 0.205037 1.398131 0.750861
v 0.216148 2.316123 0.372062
v 0.214218 0.466754 0.922962
v -0.249272 2.920519 0.041100
v 1.047342 0.466754 0.922962
v 1.089847 2.316123 0.372062
v 1.020658 1.398131 0.750861
v 0.734400 2.920519 0.041100
v -1.232944 2.920519 0.041100
v -0.610585 1.398131 0.750861
v -0.657553 2.316123 0.372062
v -0.618907 0.466754 0.922962
v -0.202344 0.466754 0.922962
v -0.220702 2.316123 0.372062
v -0.202774 1.398131 0.750861
v -0.741108 2.920519 0.041100
v -1.724780 2.920519 0.041100
v -1.018395 1.398131 0.750861
v -1.094403 2.316123 0.372062
v -1.035468 0.466754 0.922962
v 1.428469 1.398131 0.750861
v 1.526699 2.316123 0.372062
v 1.463905 0.466754 0.922962
v 1.226236 2.920519 0.041100
v 0.242564 2.920519 0.041100
v 0.630781 0.466754 0.922962
v 0.652998 2.316123 0.372062
v 0.612847 1.398131 0.750861
v -0.202774 1.398131 -0.729504
v -0.220702 2.316123 -0.388284
v 0.242564 2.920519 -0.078424
v -0.202344 0.466754 -0.822604
v -1.035468 0.466754 -0.822604
v -1.094403 2.316123 -0.388284
v -1.018395 1.398131 -0.729504
v -0.741108 2.920519 -0.078424
v -0.249272 2.920519 -0.078424
v -0.618907 0.466754 -0.822604
v -0.657553 2.316123 -0.388284
v -0.610585 1.398131 -0.729504
v -1.426208 1.398131 -0.729504
v -1.527586 2.316123 -0.383012
v -1.452031 0.466754 -0.822604
v -1.232944 2.920519 -0.078424
v 1.226236 2.920519 -0.078424
v 0.612847 1.398131 -0.729504
v 0.652998 2.316123 -0.388284
v 0.630781 0.466754 -0.822604
v 0.214218 0.466754 -0.822604
v 0.216148 2.316123 -0.388284
v 0.205037 1.398131 -0.729504
v 0.734400 2.920519 -0.078424
v 1.718072 2.920519 -0.078424
v 1.020658 1.398131 -0.729504
v 1.089847 2.316123 -0.388284
v 1.047342 0.466754 -0.822604
v 1.766580 2.990620 -0.041467
v 1.263256 2.988412 -0.041710
v 0.756696 2.988320 -0.041634
v 0.249997 2.988320 -0.041544
v -0.256704 2.988320 -0.041454
v -0.763403 2.988320 -0.041364
v -1.270104 2.988320 -0.041274
v -0.256704 2.988320 -0.020353
v 1.766580 2.990620 -0.020365
v -0.763403 2.988320 -0.020263
v -1.776804 2.988320 -0.041189
v 1.263256 2.988411 -0.020609
v -1.270104 2.988320 -0.020173
v 0.756696 2.988320 -0.020533
v 0.249997 2.988320 -0.020443
v -1.891851 -2.754250 -0.112072
v -1.891850 -2.754250 0.096682
v 1.885377 -2.754254 -0.112072
v 1.886471 -2.754255 0.098263
v -2.010623 -3.063107 -0.052368
v 2.003474 -3.063396 -0.052372
v -1.594481 -1.863189 -0.640175
v -1.592318 -1.863189 0.594004
v 1.593255 -1.863189 -0.640175
v 1.595295 -1.863113 0.620539
v 1.905584 -2.754401 -0.008430
v 1.845251 -1.863189 -0.008848
v -1.911861 -2.754250 -0.008740
v -1.824744 -1.863189 -0.008848
v 2.003474 -3.063396 -0.006756
v -2.010623 -3.063107 -0.006752
v 2.000999 -3.072434 -0.030354
v -2.017120 -3.066277 -0.030456
v -1.658417 -0.932443 -0.765397
v 1.666529 -0.932443 0.811336
v -1.660905 -0.932443 0.779408
v 1.665638 -0.932443 -0.765397
v 1.979497 -0.932443 0.002852
v -1.965580 -0.932443 0.002852
v -0.003302 -2.754249 0.102241
v -0.003354 -3.066277 -0.007537
v -0.001141 -1.863189 0.644193
v 0.003502 -0.932443 0.842387
v 0.948256 -2.754249 0.102241
v 0.797208 -1.863189 0.644193
v 0.833971 -0.932443 0.842387
v 1.008808 -3.066277 -0.007545
v -1.015515 -3.066277 -0.007529
v -0.954861 -2.754250 0.102241
v -0.799492 -1.863189 0.644193
v -0.826969 -0.932443 0.842387
v -0.479083 -2.754250 0.102241
v -0.400316 -1.863189 0.644193
v -0.411733 -0.932443 0.842387
v -0.509434 -3.066277 -0.007533
v -1.521596 -3.066277 -0.007525
v -1.430642 -2.754249 0.102241
v -1.198665 -1.863189 0.644193
v -1.242204 -0.932443 0.842387
v 1.424036 -2.754250 0.102241
v 1.196383 -1.863189 0.644193
v 1.249207 -0.932443 0.842387
v 1.514837 -3.066309 -0.007544
v 0.502726 -3.066277 -0.007541
v 0.472477 -2.754249 0.102241
v 0.398033 -1.863189 0.644193
v 0.418737 -0.932443 0.842387
v -0.003302 -2.754249 -0.117560
v -0.001141 -1.863189 -0.660540
v -0.003354 -3.066277 -0.052083
v 0.003502 -0.932443 -0.781449
v -0.954861 -2.754249 -0.117560
v -0.799492 -1.863189 -0.660540
v -1.015515 -3.066277 -0.052075
v -0.826969 -0.932443 -0.781449
v -0.479083 -2.754249 -0.117560
v -0.400316 -1.863189 -0.660540
v -0.509434 -3.066277 -0.052079
v -0.411733 -0.932443 -0.781449
v -1.430640 -2.754250 -0.117560
v -1.198667 -1.863189 -0.660540
v -1.521596 -3.066277 -0.052071
v -1.242204 -0.932443 -0.781449
v 0.948256 -2.754250 -0.117560
v 0.797208 -1.863189 -0.660540
v 1.008808 -3.066277 -0.052091
v 0.833971 -0.932443 -0.781449
v 0.472477 -2.754250 -0.117560
v 0.398033 -1.863189 -0.660540
v 0.502726 -3.066277 -0.052087
v 0.418736 -0.932443 -0.781449
v 1.424036 -2.754249 -0.117560
v 1.196383 -1.863189 -0.660540
v 1.514837 -3.066309 -0.052090
v 1.249207 -0.932443 -0.781449
v -0.003354 -3.072613 -0.031261
v 1.515109 -3.073684 -0.031492
v -0.510054 -3.072613 -0.031130
v 1.010046 -3.072613 -0.031523
v -1.016753 -3.072613 -0.030999
v 0.503347 -3.072613 -0.031392
v -1.523454 -3.072614 -0.030868
v -1.662317 -0.466754 -0.805709
v -1.713007 -2.316123 0.319177
v -1.909902 -2.754250 -0.062811
v -1.668271 -2.754250 -0.117186
v 1.661925 -2.754250 0.102241
v 1.903539 -2.754354 -0.062766
v 1.710926 -2.316123 -0.335565
v 1.675588 -0.466754 0.888953
v -1.774636 -2.981983 -0.007523
v -1.960452 -2.920520 0.039835
v -2.017120 -3.066277 -0.041497
v 1.953590 -2.920620 0.039834
v -1.713007 -2.316123 -0.335565
v -1.629956 -1.398132 0.694699
v 1.632812 -1.398132 -0.714516
v 1.725509 -2.316123 0.341729
v 1.395970 -1.863189 0.644193
v -1.397993 -1.863189 -0.660167
v 1.766979 -1.863189 -0.334447
v -1.753577 -1.863189 -0.334447
v 1.903781 -2.754354 0.046761
v 1.767221 -1.863189 0.317546
v 1.872212 -2.316123 -0.008509
v 2.012225 -0.466754 0.008963
v -1.909902 -2.754250 0.046341
v -1.753577 -1.863189 0.317172
v -1.900581 -1.398132 -0.003179
v -1.864895 -2.316123 -0.008542
v -1.774636 -2.981983 -0.052069
v 1.953590 -2.920620 -0.077200
v -1.960452 -2.920519 -0.077199
v 2.003941 -3.070510 -0.041531
v 2.003941 -3.070510 -0.018818
v 1.959079 -2.923732 -0.019336
v -2.017120 -3.066277 -0.018784
v -1.970698 -2.920519 -0.019570
v -1.630068 -1.398132 -0.714516
v 1.633137 -1.398132 0.723171
v -1.667416 -0.466754 0.853985
v 1.674134 -0.466754 -0.805709
v 1.918248 -1.398132 -0.003179
v -2.002190 -0.466754 0.008963
v -1.869285 -0.932443 -0.394477
v 1.881041 -0.932443 -0.394477
v -1.869285 -0.932443 0.417441
v 1.456825 -0.932443 0.842387
v -1.449821 -0.932443 -0.781449
v 1.881041 -0.932443 0.417441
v -0.241193 -2.754250 0.102241
v 0.249686 -2.981983 -0.007539
v -0.200729 -1.863189 0.644193
v -0.204116 -0.932443 0.842387
v 0.001131 -1.398132 0.750861
v -0.002278 -2.316123 0.372062
v 0.005937 -0.466754 0.922962
v -0.003354 -2.920519 0.041100
v 0.710366 -2.754250 0.102241
v 0.597621 -1.863189 0.644193
v 0.626354 -0.932443 0.842387
v 1.261842 -2.981987 -0.007547
v 0.839062 -0.466754 0.922962
v 0.871423 -2.316123 0.372062
v 0.816753 -1.398132 0.750861
v 0.980318 -2.920519 0.041100
v -0.762475 -2.981983 -0.007531
v -1.192751 -2.754250 0.102241
v -0.999078 -1.863189 0.644193
v -1.034586 -0.932443 0.842387
v -0.987026 -2.920519 0.041100
v -0.814491 -1.398132 0.750861
v -0.875977 -2.316123 0.372062
v -0.827187 -0.466754 0.922962
v -0.716972 -2.754249 0.102241
v -0.599903 -1.863189 0.644193
v -0.619352 -0.932443 0.842387
v -0.256394 -2.981983 -0.007535
v -0.410626 -0.466754 0.922962
v -0.439127 -2.316123 0.372062
v -0.406680 -1.398132 0.750861
v -0.495190 -2.920519 0.041100
v -1.268556 -2.981983 -0.007527
v -1.668271 -2.754249 0.101867
v -1.397993 -1.863189 0.643818
v -1.449821 -0.932443 0.842387
v -1.478862 -2.920519 0.041100
v -1.222301 -1.398132 0.750861
v -1.312827 -2.316123 0.372062
v -1.243749 -0.466754 0.922962
v 1.186146 -2.754249 0.102241
v 0.996795 -1.863189 0.644193
v 1.041590 -0.932443 0.842387
v 1.767769 -2.982087 -0.007536
v 1.224564 -1.398132 0.750861
v 1.308273 -2.316123 0.372062
v 1.255623 -0.466754 0.922962
v 1.472154 -2.920519 0.041100
v 0.755768 -2.981983 -0.007543
v 0.234587 -2.754249 0.102241
v 0.198446 -1.863189 0.644193
v 0.211119 -0.932443 0.842387
v 0.488482 -2.920519 0.041100
v 0.422500 -0.466754 0.922962
v 0.434574 -2.316123 0.372062
v 0.408941 -1.398132 0.750861
v 0.234587 -2.754250 -0.117560
v 0.198446 -1.863189 -0.660540
v 0.249686 -2.981983 -0.052085
v 0.211119 -0.932443 -0.781449
v 0.001131 -1.398132 -0.729504
v -0.002278 -2.316123 -0.388284
v -0.003354 -2.920519 -0.078424
v 0.005937 -0.466754 -0.822604
v -0.716972 -2.754250 -0.117560
v -0.599903 -1.863189 -0.660540
v -0.762475 -2.981983 -0.052077
v -0.619352 -0.932443 -0.781449
v -0.827187 -0.466754 -0.822604
v -0.875977 -2.316123 -0.388284
v -0.814491 -1.398132 -0.729504
v -0.987026 -2.920519 -0.078424
v -0.241193 -2.754249 -0.117560
v -0.200729 -1.863189 -0.660540
v -0.256394 -2.981983 -0.052081
v -0.204116 -0.932443 -0.781449
v -0.495190 -2.920519 -0.078424
v -0.410626 -0.466754 -0.822604
v -0.439127 -2.316123 -0.388284
v -0.406680 -1.398132 -0.729504
v -1.192751 -2.754249 -0.117560
v -0.999078 -1.863189 -0.660540
v -1.268556 -2.981983 -0.052073
v -1.034586 -0.932443 -0.781449
v -1.222301 -1.398132 -0.729504
v -1.312827 -2.316123 -0.388284
v -1.243749 -0.466754 -0.822604
v -1.478862 -2.920519 -0.078424
v 1.186146 -2.754250 -0.117560
v 0.996795 -1.863189 -0.660540
v 1.261842 -2.981987 -0.052093
v 1.041590 -0.932443 -0.781449
v 0.980318 -2.920519 -0.078424
v 0.816752 -1.398132 -0.729504
v 0.871423 -2.316123 -0.388284
v 0.839061 -0.466754 -0.822604
v 0.710366 -2.754249 -0.117560
v 0.597621 -1.863189 -0.660540
v 0.755768 -2.981983 -0.052089
v 0.626354 -0.932443 -0.781449
v 0.422500 -0.466754 -0.822604
v 0.434574 -2.316123 -0.388284
v 0.408941 -1.398132 -0.729504
v 0.488482 -2.920519 -0.078424
v 1.661683 -2.754249 -0.117186
v 1.395728 -1.863189 -0.660167
v 1.767769 -2.982087 -0.052081
v 1.456825 -0.932443 -0.781449
v 1.472154 -2.920519 -0.078424
v 1.224563 -1.398132 -0.729504
v 1.308273 -2.316123 -0.388284
v 1.255623 -0.466754 -0.822604
v 1.515621 -3.073350 -0.041658
v 1.010046 -3.072614 -0.041680
v 0.503347 -3.072614 -0.041590
v -0.003354 -3.072614 -0.041500
v -0.510054 -3.072614 -0.041410
v -1.016753 -3.072614 -0.041320
v -1.523454 -3.072614 -0.041230
v -0.003354 -3.072614 -0.020398
v 1.515621 -3.073349 -0.020557
v -0.510054 -3.072614 -0.020308
v 1.010046 -3.072614 -0.020578
v -1.016753 -3.072614 -0.020218
v 0.503347 -3.072614 -0.020488
v -1.523454 -3.072614 -0.020128
v -0.256704 -2.988320 -0.031195
v 1.764980 -2.991666 -0.031214
v -0.763403 -2.988320 -0.031064
v -1.776804 -2.988320 -0.030822
v 1.263192 -2.988454 -0.031568
v -1.270104 -2.988320 -0.030934
v 0.756696 -2.988320 -0.031457
v 0.249997 -2.988320 -0.031326
v -1.825222 -2.316123 0.176405
v 1.718072 -2.920519 0.041100
v 1.905964 -0.466754 0.458234
v 1.463905 -0.466754 -0.822604
v -1.452031 -0.466754 0.922962
v -1.724780 -2.920519 -0.078424
v -1.527586 -2.316123 0.366773
v 1.523278 -2.316123 -0.383012
v 1.832497 -2.316123 0.181702
v -1.816059 -1.398132 0.371243
v 1.829077 -2.316123 -0.193199
v 1.905964 -0.466754 -0.414548
v -1.816059 -1.398132 -0.368939
v -1.825222 -2.316123 -0.193207
v -1.776804 -2.988320 -0.020088
v 1.960614 -2.922728 -0.049006
v -1.970698 -2.920520 0.010743
v 1.960614 -2.922728 0.010756
v -1.970698 -2.920519 -0.049019
v -1.895353 -0.466754 -0.414548
v 1.828912 -1.398132 -0.368939
v -1.895353 -0.466754 0.458234
v -1.426208 -1.398132 0.750861
v 1.428469 -1.398132 -0.729504
v 1.828912 -1.398132 0.371243
v 0.205037 -1.398132 0.750861
v 0.216148 -2.316123 0.372062
v 0.214218 -0.466754 0.922962
v -0.249272 -2.920519 0.041100
v 1.047342 -0.466754 0.922962
v 1.089847 -2.316123 0.372062
v 1.020658 -1.398132 0.750861
v 0.734400 -2.920519 0.041100
v -1.232944 -2.920519 0.041100
v -0.610585 -1.398132 0.750861
v -0.657553 -2.316123 0.372062
v -0.618907 -0.466754 0.922962
v -0.202344 -0.466754 0.922962
v -0.220702 -2.316123 0.372062
v -0.202774 -1.398132 0.750861
v -0.741108 -2.920519 0.041100
v -1.724780 -2.920519 0.041100
v -1.018395 -1.398132 0.750861
v -1.094403 -2.316123 0.372062
v -1.035468 -0.466754 0.922962
v 1.428469 -1.398132 0.750861
v 1.526699 -2.316123 0.372062
v 1.463905 -0.466754 0.922962
v 1.226236 -2.920519 0.041100
v 0.242564 -2.920519 0.041100
v 0.630781 -0.466754 0.922962
v 0.652998 -2.316123 0.372062
v 0.612847 -1.398132 0.750861
v -0.202774 -1.398132 -0.729504
v -0.220702 -2.316123 -0.388284
v 0.242564 -2.920519 -0.078424
v -0.202344 -0.466754 -0.822604
v -1.035468 -0.466754 -0.822604
v -1.094403 -2.316123 -0.388284
v -1.018395 -1.398132 -0.729504
v -0.741108 -2.920519 -0.078424
v -0.249272 -2.920519 -0.078424
v -0.618907 -0.466754 -0.822604
v -0.657553 -2.316123 -0.388284
v -0.610585 -1.398132 -0.729504
v -1.426208 -1.398132 -0.729504
v -1.527586 -2.316123 -0.383012
v -1.452031 -0.466754 -0.822604
v -1.232944 -2.920519 -0.078424
v 1.226236 -2.920519 -0.078424
v 0.612847 -1.398132 -0.729504
v 0.652998 -2.316123 -0.388284
v 0.630781 -0.466754 -0.822604
v 0.214218 -0.466754 -0.822604
v 0.216148 -2.316123 -0.388284
v 0.205037 -1.398132 -0.729504
v 0.734400 -2.920519 -0.078424
v 1.718072 -2.920519 -0.078424
v 1.020658 -1.398132 -0.729504
v 1.089847 -2.316123 -0.388284
v 1.047342 -0.466754 -0.822604
v 1.766580 -2.990621 -0.041467
v 1.263256 -2.988412 -0.041711
v 0.756696 -2.988320 -0.041635
v 0.249997 -2.988320 -0.041545
v -0.256704 -2.988320 -0.041455
v -0.763403 -2.988320 -0.041365
v -1.270104 -2.988320 -0.041275
v -0.256704 -2.988320 -0.020353
v 1.766580 -2.990621 -0.020366
v -0.763403 -2.988320 -0.020263
v -1.776804 -2.988320 -0.041190
v 1.263256 -2.988412 -0.020609
v -1.270104 -2.988320 -0.020173
v 0.756696 -2.988320 -0.020533
v 0.249997 -2.988320 -0.020443
vn -0.9994 0.0339 -0.0059
vn -0.9039 0.1053 0.4146
vn -0.9148 -0.0488 0.4009
vn -0.9943 -0.1064 0.0001
vn -0.4885 0.3191 0.8122
vn -0.5008 0.3075 0.8091
vn -0.4294 0.2240 0.8749
vn -0.9474 -0.1931 0.2551
vn -0.9734 -0.2291 0.0017
vn -0.0000 0.4211 0.9070
vn 0.0197 0.4120 0.9110
vn 0.0082 0.3764 0.9264
vn -0.0044 0.3823 0.9240
vn 0.4415 0.2459 0.8629
vn 0.4451 0.1881 0.8755
vn 0.5750 0.3364 0.7458
vn -0.0117 0.4292 0.9032
vn 0.0086 0.4199 0.9075
vn 0.9950 0.0995 -0.0055
vn 0.9251 0.1122 0.3628
vn 0.9307 0.0655 0.3598
vn 0.9987 0.0512 -0.0073
vn 0.3979 0.1764 0.9003
vn 0.4019 0.1458 0.9040
vn 0.2905 -0.0000 0.9569
vn 0.9212 -0.0000 0.3891
vn 1.0000 -0.0000 0.0035
vn -0.0000 0.0991 -0.9951
vn 0.0381 0.0995 -0.9943
vn 0.0397 0.0802 -0.9960
vn -0.0000 0.0810 -0.9967
vn 0.2993 0.1057 -0.9483
vn 0.2962 0.0775 -0.9520
vn 0.2411 -0.0000 -0.9705
vn 0.0381 -0.0000 -0.9993
vn -0.0000 -0.0000 -1.0000
vn -0.0000 0.1813 0.9834
vn -0.1297 0.1783 0.9754
vn -0.1359 0.1569 0.9782
vn -0.0000 0.1634 0.9866
vn -0.5049 0.1674 0.8468
vn -0.5167 0.1321 0.8459
vn -0.4255 -0.0000 0.9050
vn -0.1024 -0.0000 0.9947
vn -0.0000 -0.0000 1.0000
vn -0.0022 0.3339 -0.9426
vn -0.0299 0.3194 -0.9471
vn -0.0095 0.2293 -0.9733
vn 0.0039 0.2381 -0.9712
vn -0.3833 0.1689 -0.9080
vn -0.3192 0.0948 -0.9429
vn -0.4202 0.2808 -0.8629
vn 0.0106 0.2501 -0.9682
vn -0.0073 0.2423 -0.9702
vn -0.0026 0.4198 0.9076
vn -0.0346 0.4014 0.9152
vn -0.1067 0.4903 0.8650
vn -0.0056 0.5186 0.8550
vn -0.1191 0.3052 0.9448
vn -0.0022 0.3276 0.9448
vn 0.0022 0.3339 -0.9426
vn 0.0296 0.3196 -0.9471
vn 0.0764 0.5067 -0.8587
vn 0.0056 0.5193 -0.8546
vn 0.3809 0.1768 -0.9075
vn 0.4925 0.3270 -0.8065
vn 0.3702 0.2777 -0.8865
vn 0.0499 0.2519 -0.9665
vn 0.0020 0.2606 -0.9654
vn 0.9795 -0.2013 -0.0056
vn 0.9586 -0.1771 0.2229
vn 0.9266 -0.0330 0.3747
vn 0.9968 -0.0791 -0.0072
vn 0.4991 0.3241 0.8037
vn 0.4114 0.3188 0.8539
vn 0.9106 0.0959 0.4019
vn 0.9989 0.0450 -0.0090
vn -0.9945 0.1045 -0.0056
vn -0.9209 0.1142 0.3727
vn -0.9159 0.1559 0.3698
vn -0.9893 0.1459 -0.0035
vn -0.4905 0.2087 0.8461
vn 0.9548 -0.1895 -0.2291
vn 0.9073 -0.0205 -0.4199
vn 0.8977 0.1135 -0.4257
vn 0.9195 0.0929 -0.3820
vn 0.9202 0.0468 -0.3886
vn 0.9132 -0.0000 -0.4075
vn -0.3000 0.1043 -0.9482
vn -0.9224 0.0934 -0.3748
vn -0.9231 0.1362 -0.3596
vn -0.3089 0.1456 -0.9399
vn -0.9103 0.0995 -0.4019
vn -0.3764 0.2773 -0.8840
vn -0.9153 -0.0474 -0.3999
vn -0.5040 0.3179 -0.8031
vn -0.9484 -0.2099 -0.2378
vn -0.5340 0.3621 0.7641
vn -0.0057 0.9233 0.3839
vn 0.0032 0.9797 0.2002
vn -0.8538 0.4788 0.2044
vn 0.0070 0.8923 0.4513
vn -0.0036 0.9697 0.2443
vn -0.0000 1.0000 -0.0000
vn -0.0040 1.0000 -0.0000
vn -0.8715 0.4904 -0.0000
vn 0.3309 0.0980 -0.9386
vn 0.9525 -0.2980 -0.0620
vn 0.4431 0.2622 -0.8573
vn 0.8100 0.4752 -0.3435
vn 0.8450 0.5336 0.0339
vn 0.9544 -0.2981 -0.0149
vn -0.9414 -0.2779 0.1912
vn -0.4272 0.1826 0.8855
vn -0.9473 -0.3204 -0.0023
vn 0.9547 -0.2917 0.0598
vn 0.8335 0.4848 0.2652
vn -0.9349 -0.3042 -0.1828
vn -0.8360 0.4636 -0.2934
vn -0.2391 -0.0000 -0.9710
vn -0.9105 -0.0000 -0.4134
vn -0.9195 0.0476 -0.3901
vn -0.2957 0.0760 -0.9523
vn -1.0000 -0.0000 0.0035
vn -0.9984 0.0566 -0.0076
vn 0.9163 0.1365 -0.3766
vn 0.3065 0.1467 -0.9405
vn 0.9899 0.1420 -0.0036
vn -0.9110 -0.0000 0.4123
vn -0.9239 0.0683 0.3764
vn -0.1212 0.2080 0.9706
vn -0.0002 0.2077 0.9782
vn 0.0388 0.1306 -0.9907
vn 0.0002 0.1281 -0.9918
vn 0.9177 0.1536 0.3663
vn 0.3906 0.2142 0.8953
vn -0.0000 0.3276 0.9448
vn -0.0000 0.2076 0.9782
vn -0.0000 0.5197 0.8544
vn -0.0007 0.3827 0.9239
vn 0.0015 0.3812 0.9245
vn -0.0000 0.3810 0.9246
vn -0.0000 0.4229 0.9062
vn 0.0017 0.4270 0.9042
vn -0.0029 0.4226 0.9063
vn 0.0021 0.3824 0.9240
vn -0.0015 0.3812 0.9245
vn -0.0029 0.3816 0.9243
vn 0.0058 0.4217 0.9067
vn -0.0050 0.4279 0.9038
vn 0.0029 0.4226 0.9063
vn -0.0035 0.3818 0.9242
vn 0.0041 0.3820 0.9242
vn 0.0029 0.3816 0.9243
vn -0.0058 0.4215 0.9068
vn 0.0083 0.4292 0.9032
vn -0.0086 0.4199 0.9075
vn -0.0021 0.3824 0.9240
vn 0.0050 0.4278 0.9039
vn -0.0093 0.3742 0.9273
vn 0.0115 0.4295 0.9030
vn 0.0590 0.3126 0.9481
vn 0.0641 0.2080 0.9760
vn 0.0713 0.1805 0.9810
vn 0.0527 0.5054 0.8613
vn 0.0768 0.1606 0.9840
vn 0.0670 -0.0000 0.9978
vn 0.0035 0.3818 0.9242
vn -0.0083 0.4293 0.9031
vn 0.0007 0.3827 0.9239
vn -0.0017 0.4271 0.9042
vn -0.0000 0.2606 -0.9654
vn -0.0000 0.1279 -0.9918
vn -0.0000 0.3349 -0.9423
vn -0.0000 0.5204 -0.8539
vn 0.0007 0.2381 -0.9712
vn -0.0014 0.2371 -0.9715
vn -0.0000 0.2369 -0.9715
vn -0.0000 0.2451 -0.9695
vn -0.0017 0.2478 -0.9688
vn 0.0025 0.2447 -0.9696
vn -0.0056 0.5193 -0.8546
vn -0.0020 0.2606 -0.9654
vn -0.0002 0.1280 -0.9918
vn -0.0022 0.2378 -0.9713
vn 0.0014 0.2371 -0.9715
vn 0.0028 0.2376 -0.9713
vn -0.0050 0.2438 -0.9698
vn 0.0051 0.2488 -0.9685
vn -0.0025 0.2448 -0.9696
vn -0.0007 0.2381 -0.9712
vn 0.0017 0.2479 -0.9688
vn -0.0504 0.2515 -0.9666
vn -0.0390 0.1302 -0.9907
vn -0.0382 0.0991 -0.9943
vn -0.0771 0.5064 -0.8589
vn -0.0397 0.0798 -0.9960
vn -0.0378 -0.0000 -0.9993
vn -0.0036 0.2371 -0.9715
vn 0.0084 0.2506 -0.9681
vn 0.0036 0.2370 -0.9715
vn -0.0039 0.2380 -0.9713
vn -0.0028 0.2376 -0.9714
vn 0.0050 0.2437 -0.9698
vn -0.0084 0.2504 -0.9681
vn 0.0073 0.2421 -0.9702
vn 0.0022 0.2377 -0.9713
vn -0.0051 0.2487 -0.9686
vn 0.0094 0.2291 -0.9734
vn -0.0107 0.2497 -0.9683
vn -0.0048 0.8300 -0.5577
vn 0.0003 0.9443 -0.3290
vn -0.0053 0.9178 -0.3969
vn -0.0088 0.8049 -0.5934
vn -0.0066 1.0000 -0.0010
vn 0.0029 1.0000 -0.0035
vn -0.0055 0.8523 -0.5231
vn 0.0028 0.9566 -0.2915
vn -0.0052 0.9508 -0.3096
vn 0.0051 0.8444 -0.5357
vn -0.0001 1.0000 -0.0000
vn -0.0020 1.0000 -0.0005
vn -0.0027 0.8543 -0.5198
vn 0.0014 0.9575 -0.2885
vn -0.0023 0.9573 -0.2890
vn 0.0038 0.8569 -0.5155
vn -0.0000 0.8561 -0.5168
vn -0.0000 0.9582 -0.2863
vn -0.0008 0.9579 -0.2870
vn 0.0012 0.8589 -0.5122
vn 0.0026 0.8580 -0.5136
vn -0.0014 0.9588 -0.2842
vn 0.0007 0.9586 -0.2849
vn -0.0013 0.8607 -0.5092
vn 0.0052 0.8600 -0.5102
vn -0.0028 0.9593 -0.2824
vn 0.0022 0.9592 -0.2826
vn -0.0038 0.8623 -0.5064
vn 0.0078 0.8621 -0.5067
vn -0.0042 0.9598 -0.2807
vn 0.0037 0.9599 -0.2802
vn -0.0063 0.8638 -0.5038
vn 0.0006 0.9710 0.2391
vn -0.0000 0.9710 0.2392
vn -0.0012 0.9706 0.2408
vn 0.0023 0.8944 0.4472
vn -0.0011 0.8978 0.4403
vn -0.0000 0.8956 0.4449
vn -0.0067 0.9384 0.3456
vn -0.0003 0.9621 0.2727
vn -0.0046 0.8791 0.4767
vn -0.0104 0.8505 0.5259
vn 0.0019 0.9706 0.2405
vn -0.0024 0.9702 0.2425
vn 0.0047 0.8933 0.4494
vn -0.0033 0.8966 0.4429
vn 0.0038 0.9734 -0.2291
vn -0.0078 0.9017 -0.4322
vn -0.0045 0.9677 0.2520
vn 0.0023 0.9715 0.2371
vn -0.0045 0.8977 0.4405
vn 0.0041 0.8923 0.4514
vn 0.0032 0.9703 0.2418
vn -0.0056 0.8952 0.4456
vn -0.0018 0.9717 0.2360
vn 0.0012 0.9713 0.2378
vn -0.0022 0.8968 0.4424
vn 0.0033 0.9000 0.4358
vn -0.0006 0.9714 0.2376
vn 0.0011 0.8990 0.4380
vn -0.9994 -0.0339 -0.0059
vn -0.9943 0.1064 0.0001
vn -0.9148 0.0488 0.4009
vn -0.9039 -0.1053 0.4146
vn -0.5008 -0.3075 0.8091
vn -0.4885 -0.3191 0.8122
vn -0.9474 0.1931 0.2551
vn -0.4294 -0.2240 0.8749
vn -0.9734 0.2291 0.0017
vn -0.0000 -0.4211 0.9070
vn -0.0044 -0.3823 0.9240
vn 0.0082 -0.3764 0.9264
vn 0.0197 -0.4120 0.9110
vn 0.4451 -0.1881 0.8755
vn 0.4415 -0.2459 0.8629
vn -0.0117 -0.4292 0.9032
vn 0.5750 -0.3364 0.7458
vn 0.0086 -0.4199 0.9075
vn 0.9950 -0.0995 -0.0055
vn 0.9987 -0.0512 -0.0073
vn 0.9307 -0.0655 0.3598
vn 0.9251 -0.1122 0.3628
vn 0.4019 -0.1458 0.9040
vn 0.3979 -0.1764 0.9003
vn -0.0000 -0.0991 -0.9951
vn -0.0000 -0.0810 -0.9967
vn 0.0397 -0.0802 -0.9960
vn 0.0381 -0.0995 -0.9943
vn 0.2962 -0.0775 -0.9520
vn 0.2993 -0.1057 -0.9483
vn -0.0000 -0.1813 0.9834
vn -0.0000 -0.1634 0.9866
vn -0.1359 -0.1569 0.9782
vn -0.1297 -0.1783 0.9754
vn -0.5167 -0.1321 0.8459
vn -0.5049 -0.1674 0.8468
vn -0.0022 -0.3339 -0.9426
vn 0.0039 -0.2381 -0.9712
vn -0.0095 -0.2293 -0.9733
vn -0.0299 -0.3194 -0.9471
vn -0.3192 -0.0948 -0.9429
vn -0.3833 -0.1689 -0.9080
vn 0.0106 -0.2501 -0.9682
vn -0.4202 -0.2808 -0.8629
vn -0.0073 -0.2423 -0.9702
vn -0.0026 -0.4198 0.9076
vn -0.0056 -0.5186 0.8550
vn -0.1067 -0.4903 0.8650
vn -0.0346 -0.4014 0.9152
vn -0.1191 -0.3052 0.9448
vn -0.0022 -0.3276 0.9448
vn 0.0022 -0.3339 -0.9426
vn 0.0056 -0.5193 -0.8546
vn 0.0764 -0.5067 -0.8587
vn 0.0296 -0.3196 -0.9471
vn 0.4925 -0.3270 -0.8065
vn 0.3809 -0.1768 -0.9075
vn 0.0499 -0.2519 -0.9665
vn 0.3702 -0.2777 -0.8865
vn 0.0020 -0.2606 -0.9654
vn 0.9795 0.2013 -0.0056
vn 0.9968 0.0791 -0.0072
vn 0.9266 0.0330 0.3747
vn 0.9586 0.1771 0.2229
vn 0.4991 -0.3241 0.8037
vn 0.9106 -0.0959 0.4019
vn 0.4114 -0.3188 0.8539
vn 0.9989 -0.0450 -0.0090
vn -0.9945 -0.1045 -0.0056
vn -0.9893 -0.1459 -0.0035
vn -0.9159 -0.1559 0.3698
vn -0.9209 -0.1142 0.3727
vn -0.4905 -0.2087 0.8461
vn 0.9073 0.0205 -0.4199
vn 0.9548 0.1895 -0.2291
vn 0.8977 -0.1135 -0.4257
vn 0.9202 -0.0468 -0.3886
vn 0.9195 -0.0929 -0.3820
vn -0.3000 -0.1043 -0.9482
vn -0.3089 -0.1456 -0.9399
vn -0.9231 -0.1362 -0.3596
vn -0.9224 -0.0934 -0.3748
vn -0.9103 -0.0995 -0.4019
vn -0.3764 -0.2773 -0.8840
vn -0.5040 -0.3179 -0.8031
vn -0.9153 0.0474 -0.3999
vn -0.9484 0.2099 -0.2378
vn -0.5340 -0.3621 0.7641
vn -0.8538 -0.4788 0.2044
vn 0.0032 -0.9797 0.2002
vn -0.0057 -0.9233 0.3839
vn -0.0036 -0.9697 0.2443
vn 0.0070 -0.8923 0.4513
vn -0.0040 -1.0000 -0.0000
vn -0.0000 -1.0000 -0.0000
vn -0.8715 -0.4904 -0.0000
vn 0.9525 0.2980 -0.0620
vn 0.3309 -0.0980 -0.9386
vn 0.8100 -0.4752 -0.3436
vn 0.4431 -0.2622 -0.8573
vn 0.9544 0.2981 -0.0149
vn 0.8450 -0.5336 0.0339
vn -0.4272 -0.1826 0.8855
vn -0.9414 0.2779 0.1912
vn -0.9473 0.3204 -0.0023
vn 0.9547 0.2917 0.0598
vn 0.8335 -0.4848 0.2652
vn -0.9349 0.3042 -0.1828
vn -0.8360 -0.4636 -0.2934
vn -0.2957 -0.0760 -0.9523
vn -0.9195 -0.0476 -0.3901
vn -0.9984 -0.0566 -0.0076
vn 0.3065 -0.1467 -0.9405
vn 0.9163 -0.1365 -0.3766
vn 0.9899 -0.1420 -0.0036
vn -0.9239 -0.0683 0.3764
vn -0.0002 -0.2077 0.9782
vn -0.1212 -0.2080 0.9706
vn 0.0002 -0.1280 -0.9918
vn 0.0388 -0.1306 -0.9907
vn 0.9177 -0.1536 0.3663
vn 0.3906 -0.2142 0.8953
vn -0.0000 -0.3276 0.9448
vn -0.0000 -0.2076 0.9782
vn -0.0000 -0.5197 0.8544
vn 0.0015 -0.3812 0.9245
vn -0.0007 -0.3827 0.9239
vn -0.0000 -0.3810 0.9246
vn 0.0017 -0.4270 0.9042
vn -0.0000 -0.4229 0.9062
vn -0.0029 -0.4226 0.9063
vn -0.0015 -0.3812 0.9245
vn 0.0021 -0.3824 0.9240
vn -0.0029 -0.3816 0.9243
vn -0.0050 -0.4279 0.9038
vn 0.0058 -0.4217 0.9067
vn 0.0029 -0.4226 0.9063
vn 0.0041 -0.3820 0.9242
vn -0.0035 -0.3818 0.9242
vn 0.0029 -0.3816 0.9243
vn 0.0083 -0.4292 0.9032
vn -0.0058 -0.4215 0.9068
vn -0.0086 -0.4199 0.9075
vn -0.0021 -0.3824 0.9240
vn 0.0050 -0.4278 0.9039
vn -0.0093 -0.3742 0.9273
vn 0.0115 -0.4294 0.9030
vn 0.0641 -0.2080 0.9760
vn 0.0590 -0.3126 0.9481
vn 0.0713 -0.1805 0.9810
vn 0.0527 -0.5054 0.8613
vn 0.0768 -0.1606 0.9840
vn 0.0035 -0.3818 0.9242
vn -0.0083 -0.4293 0.9031
vn 0.0007 -0.3827 0.9239
vn -0.0017 -0.4271 0.9042
vn -0.0000 -0.2606 -0.9654
vn -0.0000 -0.1279 -0.9918
vn -0.0000 -0.3349 -0.9423
vn -0.0000 -0.5204 -0.8539
vn -0.0014 -0.2371 -0.9715
vn 0.0007 -0.2381 -0.9712
vn -0.0000 -0.2369 -0.9715
vn -0.0017 -0.2478 -0.9688
vn -0.0000 -0.2451 -0.9695
vn 0.0025 -0.2447 -0.9696
vn -0.0056 -0.5193 -0.8546
vn -0.0020 -0.2606 -0.9654
vn -0.0002 -0.1280 -0.9918
vn 0.0014 -0.2371 -0.9715
vn -0.0022 -0.2378 -0.9713
vn 0.0028 -0.2376 -0.9713
vn 0.0051 -0.2488 -0.9685
vn -0.0050 -0.2438 -0.9698
vn -0.0025 -0.2448 -0.9696
vn -0.0007 -0.2381 -0.9712
vn 0.0017 -0.2479 -0.9688
vn -0.0390 -0.1302 -0.9907
vn -0.0504 -0.2515 -0.9666
vn -0.0382 -0.0991 -0.9943
vn -0.0771 -0.5064 -0.8589
vn -0.0397 -0.0798 -0.9960
vn -0.0036 -0.2371 -0.9715
vn 0.0084 -0.2506 -0.9681
vn -0.0039 -0.2380 -0.9713
vn 0.0036 -0.2370 -0.9715
vn -0.0028 -0.2376 -0.9714
vn -0.0084 -0.2504 -0.9681
vn 0.0050 -0.2437 -0.9698
vn 0.0073 -0.2421 -0.9702
vn 0.0022 -0.2377 -0.9713
vn -0.0051 -0.2487 -0.9686
vn 0.0094 -0.2291 -0.9734
vn -0.0107 -0.2497 -0.9683
vn -0.0048 -0.8300 -0.5577
vn -0.0088 -0.8049 -0.5934
vn -0.0053 -0.9178 -0.3969
vn 0.0003 -0.9443 -0.3290
vn 0.0029 -1.0000 -0.0035
vn -0.0066 -1.0000 -0.0010
vn -0.0055 -0.8523 -0.5231
vn 0.0051 -0.8444 -0.5357
vn -0.0052 -0.9508 -0.3096
vn 0.0028 -0.9566 -0.2915
vn -0.0020 -1.0000 -0.0005
vn -0.0001 -1.0000 -0.0000
vn -0.0027 -0.8543 -0.5198
vn 0.0038 -0.8569 -0.5155
vn -0.0023 -0.9573 -0.2890
vn 0.0014 -0.9575 -0.2884
vn -0.0000 -0.8561 -0.5168
vn 0.0012 -0.8589 -0.5122
vn -0.0008 -0.9579 -0.2870
vn -0.0000 -0.9582 -0.2862
vn 0.0026 -0.8580 -0.5136
vn -0.0013 -0.8607 -0.5092
vn 0.0007 -0.9586 -0.2849
vn -0.0014 -0.9588 -0.2842
vn 0.0052 -0.8600 -0.5102
vn -0.0038 -0.8623 -0.5064
vn 0.0022 -0.9592 -0.2826
vn -0.0028 -0.9593 -0.2823
vn 0.0078 -0.8621 -0.5067
vn -0.0063 -0.8638 -0.5038
vn 0.0037 -0.9599 -0.2802
vn -0.0042 -0.9598 -0.2807
vn -0.0000 -0.9710 0.2392
vn 0.0006 -0.9710 0.2391
vn -0.0012 -0.9706 0.2408
vn -0.0011 -0.8978 0.4403
vn 0.0023 -0.8944 0.4472
vn -0.0000 -0.8956 0.4449
vn -0.0067 -0.9384 0.3456
vn -0.0003 -0.9621 0.2727
vn -0.0104 -0.8505 0.5259
vn -0.0046 -0.8791 0.4767
vn 0.0019 -0.9706 0.2405
vn -0.0024 -0.9702 0.2425
vn -0.0033 -0.8966 0.4429
vn 0.0047 -0.8933 0.4494
vn 0.0038 -0.9734 -0.2291
vn -0.0078 -0.9017 -0.4322
vn -0.0045 -0.9677 0.2520
vn 0.0023 -0.9715 0.2371
vn 0.0041 -0.8923 0.4514
vn -0.0045 -0.8977 0.4405
vn 0.0032 -0.9703 0.2418
vn -0.0056 -0.8952 0.4456
vn -0.0018 -0.9717 0.2360
vn 0.0012 -0.9713 0.2378
vn 0.0033 -0.9000 0.4358
vn -0.0022 -0.8968 0.4424
vn -0.0006 -0.9714 0.2376
vn 0.0011 -0.8990 0.4380
vt 0.911220 0.475388
vt 0.949639 0.475388
vt 0.949639 0.551921
vt 0.911220 0.551921
vt 0.983106 0.475388
vt 0.983106 0.551921
vt 0.983106 0.618767
vt 0.949639 0.618767
vt 0.911220 0.618767
vt 0.696020 0.707790
vt 0.720519 0.707790
vt 0.720519 0.727497
vt 0.696020 0.727497
vt 0.743697 0.707790
vt 0.743697 0.727497
vt 0.743697 0.742801
vt 0.720519 0.742801
vt 0.696020 0.742801
vt 0.760940 0.393928
vt 0.722517 0.393928
vt 0.722517 0.355604
vt 0.760940 0.355604
vt 0.686206 0.393928
vt 0.686206 0.355604
vt 0.686206 0.317874
vt 0.722517 0.317874
vt 0.760940 0.317874
vt 0.394606 0.418094
vt 0.374480 0.418094
vt 0.374480 0.384559
vt 0.394606 0.384559
vt 0.352821 0.418094
vt 0.352821 0.384559
vt 0.352821 0.351950
vt 0.374480 0.351950
vt 0.394606 0.351950
vt 0.053939 0.411894
vt 0.033382 0.411894
vt 0.033382 0.375074
vt 0.053939 0.375074
vt 0.003906 0.411894
vt 0.003906 0.375074
vt 0.003906 0.339648
vt 0.033382 0.339648
vt 0.053939 0.339648
vt 0.400720 0.779690
vt 0.376111 0.779690
vt 0.376111 0.765381
vt 0.400720 0.765381
vt 0.352821 0.779690
vt 0.352821 0.765381
vt 0.352821 0.755731
vt 0.376111 0.755731
vt 0.400720 0.755731
vt 0.053939 0.675375
vt 0.033382 0.675375
vt 0.033382 0.585774
vt 0.053939 0.585774
vt 0.003906 0.675375
vt 0.003906 0.585774
vt 0.003906 0.494370
vt 0.033382 0.494370
vt 0.053939 0.494370
vt 0.394606 0.699977
vt 0.374480 0.699977
vt 0.374480 0.597855
vt 0.394606 0.597855
vt 0.352821 0.699977
vt 0.352821 0.597855
vt 0.352821 0.492890
vt 0.374480 0.492890
vt 0.394606 0.492890
vt 0.760940 0.619635
vt 0.722517 0.619635
vt 0.722517 0.551768
vt 0.760940 0.551768
vt 0.686206 0.619635
vt 0.686206 0.551768
vt 0.686206 0.475617
vt 0.722517 0.475617
vt 0.760940 0.475617
vt 0.911220 0.393582
vt 0.949639 0.393582
vt 0.949639 0.433323
vt 0.911220 0.433323
vt 0.983106 0.393582
vt 0.983106 0.433323
vt 0.832150 0.619635
vt 0.797944 0.619635
vt 0.797944 0.551768
vt 0.832150 0.551768
vt 0.797944 0.475617
vt 0.832150 0.475617
vt 0.832150 0.393928
vt 0.797944 0.393928
vt 0.797944 0.355604
vt 0.832150 0.355604
vt 0.797944 0.317874
vt 0.832150 0.317874
vt 0.839963 0.393582
vt 0.874183 0.393582
vt 0.874183 0.433323
vt 0.839963 0.433323
vt 0.874183 0.475388
vt 0.839963 0.475388
vt 0.874183 0.551921
vt 0.839963 0.551921
vt 0.874183 0.618767
vt 0.839963 0.618767
vt 0.352821 0.742801
vt 0.376111 0.742801
vt 0.376111 0.746509
vt 0.352821 0.746509
vt 0.400720 0.742801
vt 0.400720 0.746509
vt 0.400720 0.749658
vt 0.376111 0.749658
vt 0.352821 0.749658
vt 0.041891 0.706283
vt 0.021525 0.702535
vt 0.020487 0.699404
vt 0.039787 0.700847
vt 0.004828 0.699817
vt 0.004038 0.698612
vt 0.003939 0.697363
vt 0.020330 0.696125
vt 0.039280 0.694921
vt 0.141826 0.694868
vt 0.141172 0.693506
vt 0.157587 0.696818
vt 0.158431 0.700091
vt 0.141217 0.692190
vt 0.157530 0.693426
vt 0.176466 0.694635
vt 0.177000 0.700720
vt 0.179032 0.706351
vt 0.020394 0.692789
vt 0.039863 0.688890
vt 0.003906 0.696073
vt 0.004608 0.694730
vt 0.021257 0.689558
vt 0.041891 0.683188
vt 0.157677 0.690140
vt 0.176942 0.688674
vt 0.141303 0.690947
vt 0.142074 0.689718
vt 0.158722 0.686973
vt 0.179032 0.683188
vt 0.839963 0.317453
vt 0.874183 0.317453
vt 0.874183 0.355225
vt 0.839963 0.355225
vt 0.911220 0.317453
vt 0.911220 0.355225
vt 0.797944 0.433651
vt 0.832150 0.433651
vt 0.760940 0.433651
vt 0.949639 0.317453
vt 0.949639 0.355225
vt 0.983106 0.317453
vt 0.983106 0.355225
vt 0.033382 0.451268
vt 0.053939 0.451268
vt 0.003906 0.451268
vt 0.374480 0.453606
vt 0.394606 0.453606
vt 0.352821 0.453606
vt 0.722517 0.433651
vt 0.686206 0.433651
vt 0.218808 0.494370
vt 0.198199 0.494370
vt 0.198199 0.451268
vt 0.218808 0.451268
vt 0.177590 0.494370
vt 0.177590 0.451268
vt 0.177590 0.411894
vt 0.198199 0.411894
vt 0.218808 0.411894
vt 0.218808 0.675375
vt 0.198199 0.675375
vt 0.198199 0.585774
vt 0.218808 0.585774
vt 0.177590 0.675375
vt 0.177590 0.585774
vt 0.198199 0.375074
vt 0.218808 0.375074
vt 0.177590 0.375074
vt 0.177590 0.339648
vt 0.198199 0.339648
vt 0.218808 0.339648
vt 0.499168 0.707790
vt 0.523780 0.707790
vt 0.523780 0.727497
vt 0.499168 0.727497
vt 0.548391 0.707790
vt 0.548391 0.727497
vt 0.548391 0.742801
vt 0.523780 0.742801
vt 0.499168 0.742801
vt 0.301242 0.411894
vt 0.280633 0.411894
vt 0.280633 0.375074
vt 0.301242 0.375074
vt 0.260025 0.411894
vt 0.260025 0.375074
vt 0.260025 0.339648
vt 0.280633 0.339648
vt 0.301242 0.339648
vt 0.301242 0.675375
vt 0.280633 0.675375
vt 0.280633 0.585774
vt 0.301242 0.585774
vt 0.260025 0.675375
vt 0.260025 0.585774
vt 0.260025 0.494370
vt 0.280633 0.494370
vt 0.301242 0.494370
vt 0.280633 0.451268
vt 0.301242 0.451268
vt 0.260025 0.451268
vt 0.597615 0.707790
vt 0.622227 0.707790
vt 0.622227 0.727497
vt 0.597615 0.727497
vt 0.646839 0.707790
vt 0.646839 0.727497
vt 0.646839 0.742801
vt 0.622227 0.742801
vt 0.597615 0.742801
vt 0.400720 0.707790
vt 0.425332 0.707790
vt 0.425332 0.727497
vt 0.400720 0.727497
vt 0.449944 0.707790
vt 0.449944 0.727497
vt 0.449944 0.742801
vt 0.425332 0.742801
vt 0.136373 0.494370
vt 0.115765 0.494370
vt 0.115765 0.451268
vt 0.136373 0.451268
vt 0.095156 0.494370
vt 0.095156 0.451268
vt 0.095156 0.411894
vt 0.115765 0.411894
vt 0.136373 0.411894
vt 0.136373 0.675375
vt 0.115765 0.675375
vt 0.115765 0.585774
vt 0.136373 0.585774
vt 0.095156 0.675375
vt 0.095156 0.585774
vt 0.115765 0.375074
vt 0.136373 0.375074
vt 0.095156 0.375074
vt 0.095156 0.339648
vt 0.115765 0.339648
vt 0.136373 0.339648
vt 0.156982 0.411894
vt 0.156982 0.375074
vt 0.156982 0.339648
vt 0.156982 0.675375
vt 0.156982 0.585774
vt 0.156982 0.494370
vt 0.156982 0.451268
vt 0.474556 0.707790
vt 0.474556 0.727497
vt 0.474556 0.742801
vt 0.352821 0.707790
vt 0.376111 0.707790
vt 0.376111 0.727497
vt 0.352821 0.727497
vt 0.074547 0.494370
vt 0.074547 0.451268
vt 0.074547 0.411894
vt 0.074547 0.675375
vt 0.074547 0.585774
vt 0.074547 0.375074
vt 0.074547 0.339648
vt 0.345009 0.494370
vt 0.321851 0.494370
vt 0.321851 0.451268
vt 0.345009 0.451268
vt 0.321851 0.411894
vt 0.345009 0.411894
vt 0.345009 0.675375
vt 0.321851 0.675375
vt 0.321851 0.585774
vt 0.345009 0.585774
vt 0.321851 0.375074
vt 0.345009 0.375074
vt 0.321851 0.339648
vt 0.345009 0.339648
vt 0.671445 0.707790
vt 0.671445 0.727497
vt 0.671445 0.742801
vt 0.573003 0.707790
vt 0.573003 0.727497
vt 0.573003 0.742801
vt 0.239416 0.411894
vt 0.239416 0.375074
vt 0.239416 0.339648
vt 0.239416 0.675375
vt 0.239416 0.585774
vt 0.239416 0.494370
vt 0.239416 0.451268
vt 0.555978 0.492890
vt 0.535806 0.492890
vt 0.535806 0.453606
vt 0.555978 0.453606
vt 0.515635 0.492890
vt 0.515635 0.453606
vt 0.515635 0.418094
vt 0.535806 0.418094
vt 0.555978 0.418094
vt 0.555978 0.699977
vt 0.535806 0.699977
vt 0.535806 0.597855
vt 0.555978 0.597855
vt 0.515635 0.699977
vt 0.515635 0.597855
vt 0.597615 0.779690
vt 0.573003 0.779690
vt 0.573003 0.765381
vt 0.597615 0.765381
vt 0.548391 0.779690
vt 0.548391 0.765381
vt 0.548391 0.755731
vt 0.573003 0.755731
vt 0.597615 0.755731
vt 0.535806 0.384559
vt 0.555978 0.384559
vt 0.515635 0.384559
vt 0.515635 0.351950
vt 0.535806 0.351950
vt 0.555978 0.351950
vt 0.636664 0.418094
vt 0.616492 0.418094
vt 0.616492 0.384559
vt 0.636664 0.384559
vt 0.596320 0.418094
vt 0.596320 0.384559
vt 0.596320 0.351950
vt 0.616492 0.351950
vt 0.636664 0.351950
vt 0.636664 0.699977
vt 0.616492 0.699977
vt 0.616492 0.597855
vt 0.636664 0.597855
vt 0.596320 0.699977
vt 0.596320 0.597855
vt 0.596320 0.492890
vt 0.616492 0.492890
vt 0.636664 0.492890
vt 0.616492 0.453606
vt 0.636664 0.453606
vt 0.596320 0.453606
vt 0.499168 0.779690
vt 0.474556 0.779690
vt 0.474556 0.765381
vt 0.499168 0.765381
vt 0.449944 0.779690
vt 0.449944 0.765381
vt 0.449944 0.755731
vt 0.474556 0.755731
vt 0.499168 0.755731
vt 0.523780 0.779690
vt 0.523780 0.765381
vt 0.523780 0.755731
vt 0.576149 0.418094
vt 0.576149 0.384559
vt 0.576149 0.351950
vt 0.576149 0.699977
vt 0.576149 0.597855
vt 0.576149 0.492890
vt 0.576149 0.453606
vt 0.678394 0.492890
vt 0.656784 0.492890
vt 0.656784 0.453606
vt 0.678394 0.453606
vt 0.656784 0.418094
vt 0.678394 0.418094
vt 0.678394 0.699977
vt 0.656784 0.699977
vt 0.656784 0.597855
vt 0.678394 0.597855
vt 0.656784 0.384559
vt 0.678394 0.384559
vt 0.656784 0.351950
vt 0.678394 0.351950
vt 0.425332 0.779690
vt 0.425332 0.765381
vt 0.425332 0.755731
vt 0.696020 0.779690
vt 0.671445 0.779690
vt 0.671445 0.765381
vt 0.696020 0.765381
vt 0.646839 0.779690
vt 0.646839 0.765381
vt 0.646839 0.755731
vt 0.671445 0.755731
vt 0.696020 0.755731
vt 0.475292 0.492890
vt 0.455120 0.492890
vt 0.455120 0.453606
vt 0.475292 0.453606
vt 0.434949 0.492890
vt 0.434949 0.453606
vt 0.434949 0.418094
vt 0.455120 0.418094
vt 0.475292 0.418094
vt 0.475292 0.699977
vt 0.455120 0.699977
vt 0.455120 0.597855
vt 0.475292 0.597855
vt 0.434949 0.699977
vt 0.434949 0.597855
vt 0.455120 0.384559
vt 0.475292 0.384559
vt 0.434949 0.384559
vt 0.434949 0.351950
vt 0.455120 0.351950
vt 0.475292 0.351950
vt 0.495463 0.418094
vt 0.495463 0.384559
vt 0.495463 0.351950
vt 0.495463 0.699977
vt 0.495463 0.597855
vt 0.495463 0.492890
vt 0.495463 0.453606
vt 0.622227 0.779690
vt 0.622227 0.765381
vt 0.622227 0.755731
vt 0.743697 0.779690
vt 0.720519 0.779690
vt 0.720519 0.765381
vt 0.743697 0.765381
vt 0.720519 0.755731
vt 0.743697 0.755731
vt 0.414777 0.492890
vt 0.414777 0.453606
vt 0.414777 0.418094
vt 0.414777 0.699977
vt 0.414777 0.597855
vt 0.414777 0.384559
vt 0.414777 0.351950
vt 0.696020 0.752638
vt 0.720519 0.752638
vt 0.696020 0.749658
vt 0.720519 0.749658
vt 0.743697 0.749658
vt 0.743697 0.752638
vt 0.646839 0.752638
vt 0.671445 0.752638
vt 0.646839 0.749658
vt 0.671445 0.749658
vt 0.597615 0.752638
vt 0.622227 0.752638
vt 0.597615 0.749658
vt 0.622227 0.749658
vt 0.548391 0.752638
vt 0.573003 0.752638
vt 0.548391 0.749658
vt 0.573003 0.749658
vt 0.499168 0.752638
vt 0.523780 0.752638
vt 0.499168 0.749658
vt 0.523780 0.749658
vt 0.449944 0.752638
vt 0.474556 0.752638
vt 0.449944 0.749658
vt 0.474556 0.749658
vt 0.400720 0.752638
vt 0.425332 0.752638
vt 0.425332 0.749658
vt 0.523780 0.746509
vt 0.548391 0.746509
vt 0.499168 0.746509
vt 0.720519 0.746509
vt 0.743697 0.746509
vt 0.696020 0.746509
vt 0.474556 0.746509
vt 0.449944 0.746509
vt 0.376111 0.752638
vt 0.352821 0.752638
vt 0.671445 0.746509
vt 0.646839 0.746509
vt 0.425332 0.746509
vt 0.622227 0.746509
vt 0.597615 0.746509
vt 0.573003 0.746509
vt 0.911220 0.156878
vt 0.911220 0.075313
vt 0.949639 0.075313
vt 0.949639 0.156878
vt 0.983106 0.075313
vt 0.983106 0.156878
vt 0.949639 0.003906
vt 0.983106 0.003906
vt 0.911220 0.003906
vt 0.402740 0.787502
vt 0.402740 0.805790
vt 0.377084 0.805790
vt 0.377084 0.787502
vt 0.352821 0.805790
vt 0.352821 0.787502
vt 0.377084 0.819948
vt 0.352821 0.819948
vt 0.402740 0.819948
vt 0.760940 0.240784
vt 0.760940 0.279665
vt 0.722517 0.279665
vt 0.722517 0.240784
vt 0.686206 0.279665
vt 0.686206 0.240784
vt 0.394606 0.285806
vt 0.394606 0.319342
vt 0.374480 0.319342
vt 0.374480 0.285806
vt 0.352821 0.319342
vt 0.352821 0.285806
vt 0.053939 0.267403
vt 0.053939 0.304222
vt 0.033382 0.304222
vt 0.033382 0.267403
vt 0.003906 0.304222
vt 0.003906 0.267403
vt 0.707863 0.858740
vt 0.707863 0.840238
vt 0.733316 0.840238
vt 0.733316 0.858740
vt 0.757383 0.840238
vt 0.757383 0.858740
vt 0.733316 0.827761
vt 0.757383 0.827761
vt 0.707863 0.827761
vt 0.053939 0.003906
vt 0.053939 0.093466
vt 0.033382 0.093466
vt 0.033382 0.003906
vt 0.003906 0.093466
vt 0.003906 0.003906
vt 0.033382 0.184923
vt 0.003906 0.184923
vt 0.053939 0.184923
vt 0.394606 0.003906
vt 0.394606 0.105981
vt 0.374480 0.105981
vt 0.374480 0.003906
vt 0.352821 0.105981
vt 0.352821 0.003906
vt 0.374480 0.211006
vt 0.352821 0.211006
vt 0.394606 0.211006
vt 0.760940 0.003906
vt 0.760940 0.076571
vt 0.722517 0.076571
vt 0.722517 0.003906
vt 0.686206 0.076571
vt 0.686206 0.003906
vt 0.722517 0.157489
vt 0.686206 0.157489
vt 0.760940 0.157489
vt 0.911220 0.240292
vt 0.911220 0.199865
vt 0.949639 0.199865
vt 0.949639 0.240292
vt 0.983106 0.199865
vt 0.983106 0.240292
vt 0.832150 0.003906
vt 0.832150 0.076571
vt 0.797944 0.076571
vt 0.797944 0.003906
vt 0.797944 0.157489
vt 0.832150 0.157489
vt 0.832150 0.240784
vt 0.832150 0.279665
vt 0.797944 0.279665
vt 0.797944 0.240784
vt 0.839963 0.240292
vt 0.839963 0.199865
vt 0.874183 0.199865
vt 0.874183 0.240292
vt 0.874183 0.156878
vt 0.839963 0.156878
vt 0.839963 0.075313
vt 0.874183 0.075313
vt 0.874183 0.003906
vt 0.839963 0.003906
vt 0.996094 0.456301
vt 0.994609 0.456301
vt 0.994609 0.429398
vt 0.996094 0.429398
vt 0.994609 0.400887
vt 0.996094 0.400887
vt 0.993348 0.429398
vt 0.993348 0.400887
vt 0.993348 0.456301
vt 0.087688 0.683188
vt 0.085584 0.688624
vt 0.066284 0.690067
vt 0.067322 0.686936
vt 0.049835 0.690859
vt 0.050625 0.689653
vt 0.066127 0.693345
vt 0.049736 0.692107
vt 0.085077 0.694550
vt 0.132706 0.694868
vt 0.116101 0.700091
vt 0.116945 0.696818
vt 0.133360 0.693506
vt 0.117003 0.693426
vt 0.133315 0.692190
vt 0.097533 0.700720
vt 0.098066 0.694635
vt 0.095500 0.706351
vt 0.085660 0.700581
vt 0.066191 0.696681
vt 0.049703 0.693398
vt 0.067054 0.699913
vt 0.050405 0.694741
vt 0.087688 0.706283
vt 0.097590 0.688674
vt 0.116855 0.690140
vt 0.133229 0.690947
vt 0.115810 0.686973
vt 0.132458 0.689718
vt 0.095500 0.683188
vt 0.839963 0.279203
vt 0.874183 0.279203
vt 0.911220 0.279203
vt 0.832150 0.200369
vt 0.797944 0.200369
vt 0.760940 0.200369
vt 0.949639 0.279203
vt 0.983106 0.279203
vt 0.053939 0.228028
vt 0.033382 0.228028
vt 0.003906 0.228028
vt 0.394606 0.250294
vt 0.374480 0.250294
vt 0.352821 0.250294
vt 0.722517 0.200369
vt 0.686206 0.200369
vt 0.218808 0.184923
vt 0.218808 0.228028
vt 0.198199 0.228028
vt 0.198199 0.184923
vt 0.177590 0.228028
vt 0.177590 0.184923
vt 0.198199 0.267403
vt 0.177590 0.267403
vt 0.218808 0.267403
vt 0.218808 0.003906
vt 0.218808 0.093466
vt 0.198199 0.093466
vt 0.198199 0.003906
vt 0.177590 0.093466
vt 0.177590 0.003906
vt 0.218808 0.304222
vt 0.198199 0.304222
vt 0.177590 0.304222
vt 0.608016 0.787502
vt 0.608016 0.805790
vt 0.582356 0.805790
vt 0.582356 0.787502
vt 0.556696 0.805790
vt 0.556696 0.787502
vt 0.582356 0.819948
vt 0.556696 0.819948
vt 0.608016 0.819948
vt 0.301242 0.267403
vt 0.301242 0.304222
vt 0.280633 0.304222
vt 0.280633 0.267403
vt 0.260025 0.304222
vt 0.260025 0.267403
vt 0.301242 0.003906
vt 0.301242 0.093466
vt 0.280633 0.093466
vt 0.280633 0.003906
vt 0.260025 0.093466
vt 0.260025 0.003906
vt 0.280633 0.184923
vt 0.260025 0.184923
vt 0.301242 0.184923
vt 0.301242 0.228028
vt 0.280633 0.228028
vt 0.260025 0.228028
vt 0.505377 0.787502
vt 0.505377 0.805790
vt 0.479717 0.805790
vt 0.479717 0.787502
vt 0.454058 0.805790
vt 0.454058 0.787502
vt 0.479717 0.819948
vt 0.454058 0.819948
vt 0.505377 0.819948
vt 0.710655 0.787502
vt 0.710655 0.805790
vt 0.684995 0.805790
vt 0.684995 0.787502
vt 0.659336 0.805790
vt 0.659336 0.787502
vt 0.684995 0.819948
vt 0.659336 0.819948
vt 0.710655 0.819948
vt 0.136373 0.184923
vt 0.136373 0.228028
vt 0.115765 0.228028
vt 0.115765 0.184923
vt 0.095156 0.228028
vt 0.095156 0.184923
vt 0.115765 0.267403
vt 0.095156 0.267403
vt 0.136373 0.267403
vt 0.136373 0.003906
vt 0.136373 0.093466
vt 0.115765 0.093466
vt 0.115765 0.003906
vt 0.095156 0.093466
vt 0.095156 0.003906
vt 0.136373 0.304222
vt 0.115765 0.304222
vt 0.095156 0.304222
vt 0.156982 0.304222
vt 0.156982 0.267403
vt 0.156982 0.093466
vt 0.156982 0.003906
vt 0.156982 0.184923
vt 0.156982 0.228028
vt 0.633676 0.805790
vt 0.633676 0.787502
vt 0.633676 0.819948
vt 0.760563 0.787502
vt 0.760563 0.805790
vt 0.736306 0.805790
vt 0.736306 0.787502
vt 0.736306 0.819948
vt 0.760563 0.819948
vt 0.074547 0.228028
vt 0.074547 0.184923
vt 0.074547 0.267403
vt 0.074547 0.093466
vt 0.074547 0.003906
vt 0.074547 0.304222
vt 0.345009 0.184923
vt 0.345009 0.228028
vt 0.321851 0.228028
vt 0.321851 0.184923
vt 0.321851 0.267403
vt 0.345009 0.267403
vt 0.345009 0.003906
vt 0.345009 0.093466
vt 0.321851 0.093466
vt 0.321851 0.003906
vt 0.345009 0.304222
vt 0.321851 0.304222
vt 0.428398 0.805790
vt 0.428398 0.787502
vt 0.428398 0.819948
vt 0.531037 0.805790
vt 0.531037 0.787502
vt 0.531037 0.819948
vt 0.239416 0.304222
vt 0.239416 0.267403
vt 0.239416 0.093466
vt 0.239416 0.003906
vt 0.239416 0.184923
vt 0.239416 0.228028
vt 0.555978 0.211006
vt 0.555978 0.250294
vt 0.535806 0.250294
vt 0.535806 0.211006
vt 0.515635 0.250294
vt 0.515635 0.211006
vt 0.535806 0.285806
vt 0.515635 0.285806
vt 0.555978 0.285806
vt 0.555978 0.003906
vt 0.555978 0.105981
vt 0.535806 0.105981
vt 0.535806 0.003906
vt 0.515635 0.105981
vt 0.515635 0.003906
vt 0.504172 0.858740
vt 0.504172 0.840238
vt 0.529633 0.840238
vt 0.529633 0.858740
vt 0.555095 0.840238
vt 0.555095 0.858740
vt 0.529633 0.827761
vt 0.555095 0.827761
vt 0.504172 0.827761
vt 0.555978 0.319342
vt 0.535806 0.319342
vt 0.515635 0.319342
vt 0.636664 0.285806
vt 0.636664 0.319342
vt 0.616492 0.319342
vt 0.616492 0.285806
vt 0.596320 0.319342
vt 0.596320 0.285806
vt 0.636664 0.003906
vt 0.636664 0.105981
vt 0.616492 0.105981
vt 0.616492 0.003906
vt 0.596320 0.105981
vt 0.596320 0.003906
vt 0.616492 0.211006
vt 0.596320 0.211006
vt 0.636664 0.211006
vt 0.636664 0.250294
vt 0.616492 0.250294
vt 0.596320 0.250294
vt 0.606017 0.858740
vt 0.606017 0.840238
vt 0.631479 0.840238
vt 0.631479 0.858740
vt 0.656940 0.840238
vt 0.656940 0.858740
vt 0.631479 0.827761
vt 0.656940 0.827761
vt 0.606017 0.827761
vt 0.580556 0.840238
vt 0.580556 0.858740
vt 0.580556 0.827761
vt 0.576149 0.319342
vt 0.576149 0.285806
vt 0.576149 0.105981
vt 0.576149 0.003906
vt 0.576149 0.211006
vt 0.576149 0.250294
vt 0.678394 0.211006
vt 0.678394 0.250294
vt 0.656784 0.250294
vt 0.656784 0.211006
vt 0.656784 0.285806
vt 0.678394 0.285806
vt 0.678394 0.003906
vt 0.678394 0.105981
vt 0.656784 0.105981
vt 0.656784 0.003906
vt 0.678394 0.319342
vt 0.656784 0.319342
vt 0.682402 0.840238
vt 0.682402 0.858740
vt 0.682402 0.827761
vt 0.402328 0.858740
vt 0.402328 0.840238
vt 0.427788 0.840238
vt 0.427788 0.858740
vt 0.453249 0.840238
vt 0.453249 0.858740
vt 0.427788 0.827761
vt 0.453249 0.827761
vt 0.402328 0.827761
vt 0.475292 0.211006
vt 0.475292 0.250294
vt 0.455120 0.250294
vt 0.455120 0.211006
vt 0.434949 0.250294
vt 0.434949 0.211006
vt 0.455120 0.285806
vt 0.434949 0.285806
vt 0.475292 0.285806
vt 0.475292 0.003906
vt 0.475292 0.105981
vt 0.455120 0.105981
vt 0.455120 0.003906
vt 0.434949 0.105981
vt 0.434949 0.003906
vt 0.475292 0.319342
vt 0.455120 0.319342
vt 0.434949 0.319342
vt 0.495463 0.319342
vt 0.495463 0.285806
vt 0.495463 0.105981
vt 0.495463 0.003906
vt 0.495463 0.211006
vt 0.495463 0.250294
vt 0.478711 0.840238
vt 0.478711 0.858740
vt 0.478711 0.827761
vt 0.352821 0.858740
vt 0.352821 0.840238
vt 0.376879 0.840238
vt 0.376879 0.858740
vt 0.376879 0.827761
vt 0.352821 0.827761
vt 0.414777 0.250294
vt 0.414777 0.211006
vt 0.414777 0.285806
vt 0.414777 0.105981
vt 0.414777 0.003906
vt 0.414777 0.319342
vt 0.990918 0.058840
vt 0.990918 0.030575
vt 0.992156 0.030575
vt 0.992156 0.058840
vt 0.993348 0.030575
vt 0.993348 0.058840
vt 0.992156 0.003906
vt 0.993348 0.003906
vt 0.990918 0.003906
vt 0.990918 0.115767
vt 0.990918 0.087270
vt 0.992156 0.087270
vt 0.992156 0.115767
vt 0.993348 0.087270
vt 0.993348 0.115767
vt 0.990918 0.172791
vt 0.990918 0.144279
vt 0.992156 0.144279
vt 0.992156 0.172791
vt 0.993348 0.144279
vt 0.993348 0.172791
vt 0.990918 0.229815
vt 0.990918 0.201303
vt 0.992156 0.201303
vt 0.992156 0.229815
vt 0.993348 0.201303
vt 0.993348 0.229815
vt 0.990918 0.286839
vt 0.990918 0.258327
vt 0.992156 0.258327
vt 0.992156 0.286839
vt 0.993348 0.258327
vt 0.993348 0.286839
vt 0.990918 0.343863
vt 0.990918 0.315351
vt 0.992156 0.315351
vt 0.992156 0.343863
vt 0.993348 0.315351
vt 0.993348 0.343863
vt 0.990918 0.400887
vt 0.990918 0.372375
vt 0.992156 0.372375
vt 0.992156 0.400887
vt 0.993348 0.372375
vt 0.994609 0.229815
vt 0.994609 0.258327
vt 0.994609 0.286839
vt 0.996094 0.258327
vt 0.996094 0.286839
vt 0.996094 0.229815
vt 0.994609 0.003906
vt 0.994609 0.030575
vt 0.994609 0.058840
vt 0.996094 0.030575
vt 0.996094 0.058840
vt 0.996094 0.003906
vt 0.994609 0.315351
vt 0.994609 0.343863
vt 0.996094 0.315351
vt 0.996094 0.343863
vt 0.992156 0.456301
vt 0.992156 0.429398
vt 0.990918 0.429398
vt 0.990918 0.456301
vt 0.994609 0.087270
vt 0.994609 0.115767
vt 0.996094 0.087270
vt 0.996094 0.115767
vt 0.994609 0.372375
vt 0.996094 0.372375
vt 0.994609 0.144279
vt 0.994609 0.172791
vt 0.996094 0.144279
vt 0.996094 0.172791
vt 0.994609 0.201303
vt 0.996094 0.201303
s 1
usemtl Botella
f 20/1/1 139/2/2 310/3/3 141/4/4
f 139/2/2 12/5/5 110/6/6 310/3/3
f 310/3/3 110/6/6 4/7/7 138/8/8
f 141/4/4 310/3/3 138/8/8 19/9/9
f 56/10/10 113/11/11 311/12/12 215/13/13
f 113/11/11 8/14/14 123/15/15 311/12/12
f 311/12/12 123/15/15 21/16/16 211/17/17
f 215/13/13 311/12/12 211/17/17 60/18/18
f 29/19/19 161/20/20 312/21/21 136/22/22
f 161/20/20 26/23/23 116/24/24 312/21/21
f 312/21/21 116/24/24 6/25/25 133/26/26
f 136/22/22 312/21/21 133/26/26 16/27/27
f 100/28/28 283/29/29 313/30/30 287/31/31
f 283/29/29 28/32/32 153/33/33 313/30/30
f 313/30/30 153/33/33 5/34/34 118/35/35
f 287/31/31 313/30/30 118/35/35 96/36/36
f 55/37/37 202/38/38 314/39/39 206/40/40
f 202/38/38 27/41/41 152/42/42 314/39/39
f 314/39/39 152/42/42 2/43/43 119/44/44
f 206/40/40 314/39/39 119/44/44 51/45/45
f 81/46/46 112/47/47 315/48/48 260/49/49
f 112/47/47 3/50/50 144/51/51 315/48/48
f 315/48/48 144/51/51 9/52/52 142/53/53
f 260/49/49 315/48/48 142/53/53 83/54/54
f 53/55/55 200/56/56 316/57/57 205/58/58
f 200/56/56 4/59/7 110/60/6 316/57/57
f 316/57/57 110/60/6 12/61/5 201/62/59
f 205/58/58 316/57/57 201/62/59 54/63/60
f 97/64/61 280/65/62 317/66/63 286/67/64
f 280/65/62 7/68/65 115/69/66 317/66/63
f 317/66/63 115/69/66 13/70/67 281/71/68
f 286/67/64 317/66/63 281/71/68 98/72/69
f 15/73/70 132/74/71 318/75/72 135/76/73
f 132/74/71 8/77/14 127/78/74 318/75/72
f 318/75/72 127/78/74 14/79/75 134/80/76
f 135/76/73 318/75/72 134/80/76 17/81/77
f 30/82/78 158/83/79 319/84/80 140/85/81
f 158/83/79 27/86/41 125/87/82 319/84/80
f 319/84/80 125/87/82 12/5/5 139/2/2
f 140/85/81 319/84/80 139/2/2 20/1/1
f 7/88/65 114/89/83 320/90/84 115/91/66
f 114/89/83 15/73/70 135/76/73 320/90/84
f 320/90/84 135/76/73 17/81/77 130/92/85
f 115/91/66 320/90/84 130/92/85 13/93/67
f 28/94/32 157/95/86 321/96/87 153/97/33
f 157/95/86 29/19/19 136/22/22 321/96/87
f 321/96/87 136/22/22 16/27/27 117/98/88
f 153/97/33 321/96/87 117/98/88 5/99/34
f 25/100/89 156/101/90 322/102/91 150/103/92
f 156/101/90 30/82/78 140/85/81 322/102/91
f 322/102/91 140/85/81 20/1/1 131/104/93
f 150/103/92 322/102/91 131/104/93 11/105/94
f 11/105/94 131/104/93 323/106/95 124/107/96
f 131/104/93 20/1/1 141/4/4 323/106/95
f 323/106/95 141/4/4 19/9/9 111/108/97
f 124/107/96 323/106/95 111/108/97 3/109/50
f 22/110/98 120/111/99 324/112/100 148/113/101
f 120/111/99 52/114/102 301/115/103 324/112/100
f 324/112/100 301/115/103 107/116/104 305/117/105
f 148/113/101 324/112/100 305/117/105 24/118/106
f 7/119/65 143/120/107 325/121/108 114/122/83
f 143/120/107 10/123/109 145/124/110 325/121/108
f 325/121/108 145/124/110 23/125/111 147/126/112
f 114/122/83 325/121/108 147/126/112 15/127/70
f 22/128/98 148/129/101 326/130/113 121/131/114
f 148/129/101 24/132/106 149/133/115 326/130/113
f 326/130/113 149/133/115 19/134/9 138/135/8
f 121/131/114 326/130/113 138/135/8 4/136/7
f 15/127/70 147/126/112 327/137/116 132/138/71
f 147/126/112 23/125/111 146/139/117 327/137/116
f 327/137/116 146/139/117 21/140/16 123/141/15
f 132/138/71 327/137/116 123/141/15 8/142/14
f 19/134/9 149/133/115 328/143/118 111/144/97
f 149/133/115 24/132/106 122/145/119 328/143/118
f 328/143/118 122/145/119 9/146/52 144/147/51
f 111/144/97 328/143/118 144/147/51 3/148/50
f 1/149/120 137/150/121 329/151/122 108/152/123
f 137/150/121 18/153/124 155/154/125 329/151/122
f 329/151/122 155/154/125 30/82/78 156/101/90
f 108/152/123 329/151/122 156/101/90 25/100/89
f 13/93/67 130/92/85 330/155/126 126/156/127
f 130/92/85 17/81/77 154/157/128 330/155/126
f 330/155/126 154/157/128 29/19/19 157/95/86
f 126/156/127 330/155/126 157/95/86 28/94/32
f 18/153/124 109/158/129 331/159/130 155/154/125
f 109/158/129 2/160/43 152/161/42 331/159/130
f 331/159/130 152/161/42 27/86/41 158/83/79
f 155/154/125 331/159/130 158/83/79 30/82/78
f 54/63/60 201/62/59 332/162/131 204/163/132
f 201/62/59 12/61/5 125/164/82 332/162/131
f 332/162/131 125/164/82 27/41/41 202/38/38
f 204/163/132 332/162/131 202/38/38 55/37/37
f 98/72/69 281/71/68 333/165/133 285/166/134
f 281/71/68 13/70/67 126/167/127 333/165/133
f 333/165/133 126/167/127 28/32/32 283/29/29
f 285/166/134 333/165/133 283/29/29 100/28/28
f 17/81/77 134/80/76 334/168/135 154/157/128
f 134/80/76 14/79/75 151/169/136 334/168/135
f 334/168/135 151/169/136 26/23/23 161/20/20
f 154/157/128 334/168/135 161/20/20 29/19/19
f 64/170/137 219/171/137 335/172/138 224/173/138
f 219/171/137 34/174/137 167/175/138 335/172/138
f 335/172/138 167/175/138 35/176/37 220/177/37
f 224/173/138 335/172/138 220/177/37 65/178/37
f 63/179/10 218/180/10 336/181/139 223/182/139
f 218/180/10 31/183/10 168/184/139 336/181/139
f 336/181/139 168/184/139 34/174/137 219/171/137
f 223/182/139 336/181/139 219/171/137 64/170/137
f 65/178/37 220/177/37 337/185/40 222/186/40
f 220/177/37 35/176/37 169/187/40 337/185/40
f 337/185/40 169/187/40 32/188/45 163/189/45
f 222/186/40 337/185/40 163/189/45 61/190/45
f 46/191/10 162/192/10 338/193/140 197/194/141
f 162/192/10 31/195/10 170/196/142 338/193/140
f 338/193/140 170/196/142 33/197/143 193/198/144
f 197/194/141 338/193/140 193/198/144 50/199/145
f 58/200/37 209/201/37 339/202/40 214/203/40
f 209/201/37 38/204/37 176/205/40 339/202/40
f 339/202/40 176/205/40 39/206/45 174/207/45
f 214/203/40 339/202/40 174/207/45 59/208/45
f 56/209/10 207/210/10 340/211/139 213/212/139
f 207/210/10 36/213/10 177/214/139 340/211/139
f 340/211/139 177/214/139 37/215/137 208/216/137
f 213/212/139 340/211/139 208/216/137 57/217/137
f 57/217/137 208/216/137 341/218/138 212/219/138
f 208/216/137 37/215/137 178/220/138 341/218/138
f 341/218/138 178/220/138 38/204/37 209/201/37
f 212/219/138 341/218/138 209/201/37 58/200/37
f 63/221/10 171/222/10 342/223/146 221/224/147
f 171/222/10 36/225/10 179/226/148 342/223/146
f 342/223/146 179/226/148 40/227/149 217/228/150
f 221/224/147 342/223/146 217/228/150 62/229/151
f 53/230/55 182/231/10 343/232/152 203/233/153
f 182/231/10 43/234/10 185/235/154 343/232/152
f 343/232/152 185/235/154 42/236/155 199/237/156
f 203/233/153 343/232/152 199/237/156 52/114/157
f 47/238/137 190/239/137 344/240/138 196/241/138
f 190/239/137 44/242/137 186/243/138 344/240/138
f 344/240/138 186/243/138 45/244/37 191/245/37
f 196/241/138 344/240/138 191/245/37 48/246/37
f 46/247/10 189/248/10 345/249/139 195/250/139
f 189/248/10 43/251/10 187/252/139 345/249/139
f 345/249/139 187/252/139 44/242/137 190/239/137
f 195/250/139 345/249/139 190/239/137 47/238/137
f 48/246/37 191/245/37 346/253/40 194/254/40
f 191/245/37 45/244/37 188/255/40 346/253/40
f 346/253/40 188/255/40 41/256/45 180/257/45
f 194/254/40 346/253/40 180/257/45 49/258/45
f 35/176/37 166/259/37 347/260/40 169/187/40
f 166/259/37 48/246/37 194/254/40 347/260/40
f 347/260/40 194/254/40 49/258/45 192/261/45
f 169/187/40 347/260/40 192/261/45 32/188/45
f 31/183/10 162/262/10 348/263/139 168/184/139
f 162/262/10 46/247/10 195/250/139 348/263/139
f 348/263/139 195/250/139 47/238/137 165/264/137
f 168/184/139 348/263/139 165/264/137 34/174/137
f 34/174/137 165/264/137 349/265/138 167/175/138
f 165/264/137 47/238/137 196/241/138 349/265/138
f 349/265/138 196/241/138 48/246/37 166/259/37
f 167/175/138 349/265/138 166/259/37 35/176/37
f 43/234/10 189/266/10 350/267/158 185/235/154
f 189/266/10 46/191/10 197/194/141 350/267/158
f 350/267/158 197/194/141 50/199/145 181/268/159
f 185/235/154 350/267/158 181/268/159 42/236/155
f 4/269/7 200/270/56 351/271/160 121/272/114
f 200/270/56 53/230/55 203/233/153 351/271/160
f 351/271/160 203/233/153 52/114/157 120/111/161
f 121/272/114 351/271/160 120/111/161 22/110/98
f 44/242/137 183/273/137 352/274/138 186/243/138
f 183/273/137 54/63/60 204/163/132 352/274/138
f 352/274/138 204/163/132 55/37/37 184/275/37
f 186/243/138 352/274/138 184/275/37 45/244/37
f 43/251/10 182/276/10 353/277/139 187/252/139
f 182/276/10 53/55/55 205/58/58 353/277/139
f 353/277/139 205/58/58 54/63/60 183/273/137
f 187/252/139 353/277/139 183/273/137 44/242/137
f 45/244/37 184/275/37 354/278/40 188/255/40
f 184/275/37 55/37/37 206/40/40 354/278/40
f 354/278/40 206/40/40 51/45/45 198/279/45
f 188/255/40 354/278/40 198/279/45 41/256/45
f 14/280/75 128/281/162 355/282/163 151/283/136
f 128/281/162 57/217/137 212/219/138 355/282/163
f 355/282/163 212/219/138 58/200/37 159/284/164
f 151/283/136 355/282/163 159/284/164 26/285/23
f 8/286/14 113/287/11 356/288/165 127/289/74
f 113/287/11 56/209/10 213/212/139 356/288/165
f 356/288/165 213/212/139 57/217/137 128/281/162
f 127/289/74 356/288/165 128/281/162 14/280/75
f 26/285/23 159/284/164 357/290/166 116/291/24
f 159/284/164 58/200/37 214/203/40 357/290/166
f 357/290/166 214/203/40 59/208/45 210/292/167
f 116/291/24 357/290/166 210/292/167 6/293/25
f 36/225/10 207/294/10 358/295/168 179/226/148
f 207/294/10 56/10/10 215/13/13 358/295/168
f 358/295/168 215/13/13 60/18/18 175/296/169
f 179/226/148 358/295/168 175/296/169 40/227/149
f 31/195/10 218/297/10 359/298/170 170/196/142
f 218/297/10 63/221/10 221/224/147 359/298/170
f 359/298/170 221/224/147 62/229/151 164/299/171
f 170/196/142 359/298/170 164/299/171 33/197/143
f 38/204/37 173/300/37 360/301/40 176/205/40
f 173/300/37 65/178/37 222/186/40 360/301/40
f 360/301/40 222/186/40 61/190/45 216/302/45
f 176/205/40 360/301/40 216/302/45 39/206/45
f 36/213/10 171/303/10 361/304/139 177/214/139
f 171/303/10 63/179/10 223/182/139 361/304/139
f 361/304/139 223/182/139 64/170/137 172/305/137
f 177/214/139 361/304/139 172/305/137 37/215/137
f 37/215/137 172/305/137 362/306/138 178/220/138
f 172/305/137 64/170/137 224/173/138 362/306/138
f 362/306/138 224/173/138 65/178/37 173/300/37
f 178/220/138 362/306/138 173/300/37 38/204/37
f 78/307/172 245/308/172 363/309/173 251/310/173
f 245/308/172 68/311/172 230/312/173 363/309/173
f 363/309/173 230/312/173 70/313/28 247/314/28
f 251/310/173 363/309/173 247/314/28 80/315/28
f 77/316/174 244/317/174 364/318/175 250/319/175
f 244/317/174 66/320/174 231/321/175 364/318/175
f 364/318/175 231/321/175 68/311/172 245/308/172
f 250/319/175 364/318/175 245/308/172 78/307/172
f 91/322/174 225/323/174 365/324/176 278/325/177
f 225/323/174 66/326/174 232/327/178 365/324/176
f 365/324/176 232/327/178 69/328/179 228/329/180
f 278/325/177 365/324/176 228/329/180 93/330/181
f 80/315/28 247/314/28 366/331/31 249/332/31
f 247/314/28 70/313/28 233/333/31 366/331/31
f 366/331/31 233/333/31 67/334/36 226/335/36
f 249/332/31 366/331/31 226/335/36 76/336/36
f 84/337/28 255/338/28 367/339/31 259/340/31
f 255/338/28 74/341/28 239/342/31 367/339/31
f 367/339/31 239/342/31 75/343/36 238/344/36
f 259/340/31 367/339/31 238/344/36 85/345/36
f 81/346/46 252/347/174 368/348/175 258/349/182
f 252/347/174 71/350/174 240/351/175 368/348/175
f 368/348/175 240/351/175 72/352/172 253/353/172
f 258/349/182 368/348/175 253/353/172 82/354/183
f 82/354/183 253/353/172 369/355/173 257/356/184
f 253/353/172 72/352/172 241/357/173 369/355/173
f 369/355/173 241/357/173 74/341/28 255/338/28
f 257/356/184 369/355/173 255/338/28 84/337/28
f 77/358/174 234/359/174 370/360/185 248/361/186
f 234/359/174 71/362/174 242/363/187 370/360/185
f 370/360/185 242/363/187 73/364/188 236/365/189
f 248/361/186 370/360/185 236/365/189 79/366/190
f 66/326/174 244/367/174 371/368/191 232/327/178
f 244/367/174 77/358/174 248/361/186 371/368/191
f 371/368/191 248/361/186 79/366/190 246/369/192
f 232/327/178 371/368/191 246/369/192 69/328/179
f 74/341/28 237/370/28 372/371/31 239/342/31
f 237/370/28 80/315/28 249/332/31 372/371/31
f 372/371/31 249/332/31 76/336/36 243/372/36
f 239/342/31 372/371/31 243/372/36 75/343/36
f 71/350/174 234/373/174 373/374/175 240/351/175
f 234/373/174 77/316/174 250/319/175 373/374/175
f 373/374/175 250/319/175 78/307/172 235/375/172
f 240/351/175 373/374/175 235/375/172 72/352/172
f 72/352/172 235/375/172 374/376/173 241/357/173
f 235/375/172 78/307/172 251/310/173 374/376/173
f 374/376/173 251/310/173 80/315/28 237/370/28
f 241/357/173 374/376/173 237/370/28 74/341/28
f 11/377/94 129/378/193 375/379/194 150/380/92
f 129/378/193 82/354/183 257/356/184 375/379/194
f 375/379/194 257/356/184 84/337/28 160/381/195
f 150/380/92 375/379/194 160/381/195 25/382/89
f 3/383/50 112/384/47 376/385/196 124/386/96
f 112/384/47 81/346/46 258/349/182 376/385/196
f 376/385/196 258/349/182 82/354/183 129/378/193
f 124/386/96 376/385/196 129/378/193 11/377/94
f 25/382/89 160/381/195 377/387/197 108/388/123
f 160/381/195 84/337/28 259/340/31 377/387/197
f 377/387/197 259/340/31 85/345/36 256/389/198
f 108/388/123 377/387/197 256/389/198 1/390/120
f 71/362/174 252/391/174 378/392/199 242/363/187
f 252/391/174 81/46/46 260/49/49 378/392/199
f 378/392/199 260/49/49 83/54/54 254/393/200
f 242/363/187 378/392/199 254/393/200 73/364/188
f 97/394/61 262/395/174 379/396/201 284/397/202
f 262/395/174 87/398/174 266/399/203 379/396/201
f 379/396/201 266/399/203 89/400/204 264/401/205
f 284/397/202 379/396/201 264/401/205 99/402/206
f 92/403/172 271/404/172 380/405/173 277/406/173
f 271/404/172 88/407/172 267/408/173 380/405/173
f 380/405/173 267/408/173 90/409/28 273/410/28
f 277/406/173 380/405/173 273/410/28 94/411/28
f 91/412/174 270/413/174 381/414/175 276/415/175
f 270/413/174 87/416/174 268/417/175 381/414/175
f 381/414/175 268/417/175 88/407/172 271/404/172
f 276/415/175 381/414/175 271/404/172 92/403/172
f 94/411/28 273/410/28 382/418/31 275/419/31
f 273/410/28 90/409/28 269/420/31 382/418/31
f 382/418/31 269/420/31 86/421/36 261/422/36
f 275/419/31 382/418/31 261/422/36 95/423/36
f 70/313/28 229/424/28 383/425/31 233/333/31
f 229/424/28 94/411/28 275/419/31 383/425/31
f 383/425/31 275/419/31 95/423/36 274/426/36
f 233/333/31 383/425/31 274/426/36 67/334/36
f 66/320/174 225/427/174 384/428/175 231/321/175
f 225/427/174 91/412/174 276/415/175 384/428/175
f 384/428/175 276/415/175 92/403/172 227/429/172
f 231/321/175 384/428/175 227/429/172 68/311/172
f 68/311/172 227/429/172 385/430/173 230/312/173
f 227/429/172 92/403/172 277/406/173 385/430/173
f 385/430/173 277/406/173 94/411/28 229/424/28
f 230/312/173 385/430/173 229/424/28 70/313/28
f 87/398/174 270/431/174 386/432/207 266/399/203
f 270/431/174 91/322/174 278/325/177 386/432/207
f 386/432/207 278/325/177 93/330/181 272/433/208
f 266/399/203 386/432/207 272/433/208 89/400/204
f 7/434/65 280/435/62 387/436/209 143/437/107
f 280/435/62 97/394/61 284/397/202 387/436/209
f 387/436/209 284/397/202 99/402/206 282/438/210
f 143/437/107 387/436/209 282/438/210 10/439/109
f 88/407/172 263/440/172 388/441/173 267/408/173
f 263/440/172 98/72/69 285/166/134 388/441/173
f 388/441/173 285/166/134 100/28/28 265/442/28
f 267/408/173 388/441/173 265/442/28 90/409/28
f 87/416/174 262/443/174 389/444/175 268/417/175
f 262/443/174 97/64/61 286/67/64 389/444/175
f 389/444/175 286/67/64 98/72/69 263/440/172
f 268/417/175 389/444/175 263/440/172 88/407/172
f 90/409/28 265/442/28 390/445/31 269/420/31
f 265/442/28 100/28/28 287/31/31 390/445/31
f 390/445/31 287/31/31 96/36/36 279/446/36
f 269/420/31 390/445/31 279/446/36 86/421/36
f 99/402/211 288/447/212 391/448/213 282/438/214
f 288/447/212 102/449/215 303/450/216 391/448/213
f 391/448/213 303/450/216 23/451/111 145/452/110
f 282/438/214 391/448/213 145/452/110 10/439/109
f 89/400/217 289/453/218 392/454/219 264/401/220
f 289/453/218 104/455/221 306/456/222 392/454/219
f 392/454/219 306/456/222 102/449/215 288/447/212
f 264/401/220 392/454/219 288/447/212 99/402/211
f 93/330/223 290/457/224 393/458/225 272/433/226
f 290/457/224 106/459/104 308/460/104 393/458/225
f 393/458/225 308/460/104 104/455/221 289/453/218
f 272/433/226 393/458/225 289/453/218 89/400/217
f 69/328/227 291/461/228 394/462/229 228/329/230
f 291/461/228 101/463/104 309/464/104 394/462/229
f 394/462/229 309/464/104 106/459/104 290/457/224
f 228/329/230 394/462/229 290/457/224 93/330/223
f 79/366/231 292/465/232 395/466/233 246/369/234
f 292/465/232 103/467/104 302/468/104 395/466/233
f 395/466/233 302/468/104 101/463/104 291/461/228
f 246/369/234 395/466/233 291/461/228 69/328/227
f 73/364/235 293/469/236 396/470/237 236/365/238
f 293/469/236 105/471/104 304/472/104 396/470/237
f 396/470/237 304/472/104 103/467/104 292/465/232
f 236/365/238 396/470/237 292/465/232 79/366/231
f 83/54/239 294/473/240 397/474/241 254/393/242
f 294/473/240 107/116/104 307/475/104 397/474/241
f 397/474/241 307/475/104 105/471/104 293/469/236
f 254/393/242 397/474/241 293/469/236 73/364/235
f 101/463/104 302/468/104 398/476/243 295/477/244
f 302/468/104 103/467/104 297/478/245 398/476/243
f 398/476/243 297/478/245 50/199/246 193/198/247
f 295/477/244 398/476/243 193/198/247 33/197/248
f 23/451/111 303/450/216 399/479/249 146/480/117
f 303/450/216 102/449/215 296/481/250 399/479/249
f 399/479/249 296/481/250 60/18/251 211/17/252
f 146/480/117 399/479/249 211/17/252 21/16/16
f 103/467/104 304/472/104 400/482/253 297/478/245
f 304/472/104 105/471/104 299/483/254 400/482/253
f 400/482/253 299/483/254 42/236/255 181/268/256
f 297/478/245 400/482/253 181/268/256 50/199/246
f 24/118/106 305/117/105 401/484/257 122/485/119
f 305/117/105 107/116/104 294/473/240 401/484/257
f 401/484/257 294/473/240 83/54/239 142/53/258
f 122/485/119 401/484/257 142/53/258 9/52/52
f 102/449/215 306/456/222 402/486/259 296/481/250
f 306/456/222 104/455/221 298/487/260 402/486/259
f 402/486/259 298/487/260 40/227/261 175/296/262
f 296/481/250 402/486/259 175/296/262 60/18/251
f 105/471/104 307/475/104 403/488/263 299/483/254
f 307/475/104 107/116/104 301/115/103 403/488/263
f 403/488/263 301/115/103 52/114/102 199/237/264
f 299/483/254 403/488/263 199/237/264 42/236/255
f 104/455/221 308/460/104 404/489/265 298/487/260
f 308/460/104 106/459/104 300/490/266 404/489/265
f 404/489/265 300/490/266 62/229/267 217/228/268
f 298/487/260 404/489/265 217/228/268 40/227/261
f 106/459/104 309/464/104 405/491/269 300/490/266
f 309/464/104 101/463/104 295/477/244 405/491/269
f 405/491/269 295/477/244 33/197/248 164/299/270
f 300/490/266 405/491/269 164/299/270 62/229/267
f 419/492/271 520/493/272 675/494/273 518/495/274
f 518/495/274 675/494/273 494/496/275 413/497/276
f 675/494/273 517/498/277 407/499/278 494/496/275
f 520/493/272 418/500/279 517/498/277 675/494/273
f 450/501/280 588/502/281 676/503/282 497/504/283
f 497/504/283 676/503/282 504/505/284 409/506/285
f 676/503/282 584/507/286 420/508/287 504/505/284
f 588/502/281 453/509/288 584/507/286 676/503/282
f 428/510/289 516/511/290 677/512/291 540/513/292
f 540/513/292 677/512/291 500/514/293 425/515/294
f 677/512/291 133/26/26 6/25/25 500/514/293
f 516/511/290 16/27/27 133/26/26 677/512/291
f 485/516/295 652/517/296 678/518/297 648/519/298
f 648/519/298 678/518/297 532/520/299 427/521/300
f 678/518/297 118/35/35 5/34/34 532/520/299
f 652/517/296 96/36/36 118/35/35 678/518/297
f 449/522/301 580/523/302 679/524/303 576/525/304
f 576/525/304 679/524/303 531/526/305 426/527/306
f 679/524/303 119/44/44 2/43/43 531/526/305
f 580/523/302 51/45/45 119/44/44 679/524/303
f 470/528/307 628/529/308 680/530/309 496/531/310
f 496/531/310 680/530/309 523/532/311 406/533/312
f 680/530/309 521/534/313 410/535/314 523/532/311
f 628/529/308 472/536/315 521/534/313 680/530/309
f 447/537/316 579/538/317 681/539/318 574/540/319
f 574/540/319 681/539/318 494/541/275 407/542/278
f 681/539/318 575/543/320 413/544/276 494/541/275
f 579/538/317 448/545/321 575/543/320 681/539/318
f 482/546/322 651/547/323 682/548/324 645/549/325
f 645/549/325 682/548/324 499/550/326 408/551/327
f 682/548/324 646/552/328 414/553/329 499/550/326
f 651/547/323 483/554/330 646/552/328 682/548/324
f 416/555/331 515/556/332 683/557/333 513/558/334
f 513/558/334 683/557/333 508/559/335 409/560/285
f 683/557/333 514/561/336 415/562/337 508/559/335
f 515/556/332 417/563/338 514/561/336 683/557/333
f 429/564/339 519/565/340 684/566/341 537/567/342
f 537/567/342 684/566/341 506/568/343 426/569/306
f 684/566/341 518/495/274 413/497/276 506/568/343
f 519/565/340 419/492/271 518/495/274 684/566/341
f 408/570/327 499/571/326 685/572/344 498/573/345
f 498/573/345 685/572/344 515/556/332 416/555/331
f 685/572/344 511/574/346 417/563/338 515/556/332
f 499/571/326 414/575/329 511/574/346 685/572/344
f 427/576/300 532/577/299 686/578/347 536/579/348
f 536/579/348 686/578/347 516/511/290 428/510/289
f 686/578/347 117/98/88 16/27/27 516/511/290
f 532/577/299 5/99/34 117/98/88 686/578/347
f 424/580/349 529/581/350 687/582/351 535/583/352
f 535/583/352 687/582/351 519/565/340 429/564/339
f 687/582/351 512/584/353 419/492/271 519/565/340
f 529/581/350 412/585/354 512/584/353 687/582/351
f 412/585/354 505/586/355 688/587/356 512/584/353
f 512/584/353 688/587/356 520/493/272 419/492/271
f 688/587/356 495/588/357 418/500/279 520/493/272
f 505/586/355 406/589/312 495/588/357 688/587/356
f 421/590/358 527/591/359 689/592/360 501/593/361
f 501/593/361 689/592/360 666/594/362 446/595/363
f 689/592/360 670/596/364 492/597/365 666/594/362
f 527/591/359 423/598/366 670/596/364 689/592/360
f 408/599/327 498/600/345 690/601/367 522/602/368
f 522/602/368 690/601/367 524/603/369 411/604/370
f 690/601/367 526/605/371 422/606/372 524/603/369
f 498/600/345 416/607/331 526/605/371 690/601/367
f 421/608/358 502/609/373 691/610/374 527/611/359
f 527/611/359 691/610/374 528/612/375 423/613/366
f 691/610/374 517/614/277 418/615/279 528/612/375
f 502/609/373 407/616/278 517/614/277 691/610/374
f 416/607/331 513/617/334 692/618/376 526/605/371
f 526/605/371 692/618/376 525/619/377 422/606/372
f 692/618/376 504/620/284 420/621/287 525/619/377
f 513/617/334 409/622/285 504/620/284 692/618/376
f 418/615/279 495/623/357 693/624/378 528/612/375
f 528/612/375 693/624/378 503/625/379 423/613/366
f 693/624/378 523/626/311 410/627/314 503/625/379
f 495/623/357 406/628/312 523/626/311 693/624/378
f 1/149/120 493/629/380 694/630/381 137/150/121
f 137/150/121 694/630/381 534/631/382 18/153/124
f 694/630/381 535/583/352 429/564/339 534/631/382
f 493/629/380 424/580/349 535/583/352 694/630/381
f 414/575/329 507/632/383 695/633/384 511/574/346
f 511/574/346 695/633/384 533/634/385 417/563/338
f 695/633/384 536/579/348 428/510/289 533/634/385
f 507/632/383 427/576/300 536/579/348 695/633/384
f 18/153/124 534/631/382 696/635/386 109/158/129
f 109/158/129 696/635/386 531/636/305 2/160/43
f 696/635/386 537/567/342 426/569/306 531/636/305
f 534/631/382 429/564/339 537/567/342 696/635/386
f 448/545/321 578/637/387 697/638/388 575/543/320
f 575/543/320 697/638/388 506/639/343 413/544/276
f 697/638/388 576/525/304 426/527/306 506/639/343
f 578/637/387 449/522/301 576/525/304 697/638/388
f 483/554/330 650/640/389 698/641/390 646/552/328
f 646/552/328 698/641/390 507/642/383 414/553/329
f 698/641/390 648/519/298 427/521/300 507/642/383
f 650/640/389 485/516/295 648/519/298 698/641/390
f 417/563/338 533/634/385 699/643/391 514/561/336
f 514/561/336 699/643/391 530/644/392 415/562/337
f 699/643/391 540/513/292 425/515/294 530/644/392
f 533/634/385 428/510/289 540/513/292 699/643/391
f 456/645/393 596/646/394 700/647/394 591/648/393
f 591/648/393 700/647/394 545/649/394 432/650/393
f 700/647/394 592/651/301 433/652/301 545/649/394
f 596/646/394 457/653/301 592/651/301 700/647/394
f 455/654/280 595/655/395 701/656/395 590/657/280
f 590/657/280 701/656/395 546/658/395 430/659/280
f 701/656/395 591/648/393 432/650/393 546/658/395
f 595/655/395 456/645/393 591/648/393 701/656/395
f 457/653/301 594/660/302 702/661/302 592/651/301
f 592/651/301 702/661/302 547/662/302 433/652/301
f 702/661/302 163/189/45 32/188/45 547/662/302
f 594/660/302 61/190/45 163/189/45 702/661/302
f 442/663/280 572/664/396 703/665/397 541/666/280
f 541/666/280 703/665/397 548/667/398 430/668/280
f 703/665/397 568/669/399 431/670/400 548/667/398
f 572/664/396 445/671/401 568/669/399 703/665/397
f 452/672/301 587/673/302 704/674/302 583/675/301
f 583/675/301 704/674/302 553/676/302 436/677/301
f 704/674/302 174/207/45 39/206/45 553/676/302
f 587/673/302 59/208/45 174/207/45 704/674/302
f 450/678/280 586/679/395 705/680/395 581/681/280
f 581/681/280 705/680/395 554/682/395 434/683/280
f 705/680/395 582/684/393 435/685/393 554/682/395
f 586/679/395 451/686/393 582/684/393 705/680/395
f 451/686/393 585/687/394 706/688/394 582/684/393
f 582/684/393 706/688/394 555/689/394 435/685/393
f 706/688/394 583/675/301 436/677/301 555/689/394
f 585/687/394 452/672/301 583/675/301 706/688/394
f 455/690/280 593/691/402 707/692/403 549/693/280
f 549/693/280 707/692/403 556/694/404 434/695/280
f 707/692/403 589/696/405 437/697/406 556/694/404
f 593/691/402 454/698/407 589/696/405 707/692/403
f 447/699/316 577/700/408 708/701/409 558/702/280
f 558/702/280 708/701/409 561/703/410 439/704/280
f 708/701/409 573/705/411 438/706/412 561/703/410
f 577/700/408 446/707/413 573/705/411 708/701/409
f 443/708/393 571/709/394 709/710/394 566/711/393
f 566/711/393 709/710/394 562/712/394 440/713/393
f 709/710/394 567/714/301 441/715/301 562/712/394
f 571/709/394 444/716/301 567/714/301 709/710/394
f 442/717/280 570/718/395 710/719/395 565/720/280
f 565/720/280 710/719/395 563/721/395 439/722/280
f 710/719/395 566/711/393 440/713/393 563/721/395
f 570/718/395 443/708/393 566/711/393 710/719/395
f 444/716/301 569/723/302 711/724/302 567/714/301
f 567/714/301 711/724/302 564/725/302 441/715/301
f 711/724/302 180/257/45 41/256/45 564/725/302
f 569/723/302 49/258/45 180/257/45 711/724/302
f 433/652/301 547/662/302 712/726/302 544/727/301
f 544/727/301 712/726/302 569/723/302 444/716/301
f 712/726/302 192/261/45 49/258/45 569/723/302
f 547/662/302 32/188/45 192/261/45 712/726/302
f 430/659/280 546/658/395 713/728/395 541/729/280
f 541/729/280 713/728/395 570/718/395 442/717/280
f 713/728/395 543/730/393 443/708/393 570/718/395
f 546/658/395 432/650/393 543/730/393 713/728/395
f 432/650/393 545/649/394 714/731/394 543/730/393
f 543/730/393 714/731/394 571/709/394 443/708/393
f 714/731/394 544/727/301 444/716/301 571/709/394
f 545/649/394 433/652/301 544/727/301 714/731/394
f 439/704/280 561/703/410 715/732/414 565/733/280
f 565/733/280 715/732/414 572/664/396 442/663/280
f 715/732/414 557/734/415 445/671/401 572/664/396
f 561/703/410 438/706/412 557/734/415 715/732/414
f 407/735/278 502/736/373 716/737/416 574/738/319
f 574/738/319 716/737/416 577/700/408 447/699/316
f 716/737/416 501/739/417 446/707/413 577/700/408
f 502/736/373 421/740/358 501/739/417 716/737/416
f 440/713/393 562/712/394 717/741/394 559/742/393
f 559/742/393 717/741/394 578/637/387 448/545/321
f 717/741/394 560/743/301 449/522/301 578/637/387
f 562/712/394 441/715/301 560/743/301 717/741/394
f 439/722/280 563/721/395 718/744/395 558/745/280
f 558/745/280 718/744/395 579/538/317 447/537/316
f 718/744/395 559/742/393 448/545/321 579/538/317
f 563/721/395 440/713/393 559/742/393 718/744/395
f 441/715/301 564/725/302 719/746/302 560/743/301
f 560/743/301 719/746/302 580/523/302 449/522/301
f 719/746/302 198/279/45 51/45/45 580/523/302
f 564/725/302 41/256/45 198/279/45 719/746/302
f 415/747/337 530/748/392 720/749/418 509/750/419
f 509/750/419 720/749/418 585/687/394 451/686/393
f 720/749/418 538/751/420 452/672/301 585/687/394
f 530/748/392 425/752/294 538/751/420 720/749/418
f 409/753/285 508/754/335 721/755/421 497/756/283
f 497/756/283 721/755/421 586/679/395 450/678/280
f 721/755/421 509/750/419 451/686/393 586/679/395
f 508/754/335 415/747/337 509/750/419 721/755/421
f 425/752/294 500/757/293 722/758/422 538/751/420
f 538/751/420 722/758/422 587/673/302 452/672/301
f 722/758/422 210/292/167 59/208/45 587/673/302
f 500/757/293 6/293/25 210/292/167 722/758/422
f 434/695/280 556/694/404 723/759/423 581/760/280
f 581/760/280 723/759/423 588/502/281 450/501/280
f 723/759/423 552/761/424 453/509/288 588/502/281
f 556/694/404 437/697/406 552/761/424 723/759/423
f 430/668/280 548/667/398 724/762/425 590/763/280
f 590/763/280 724/762/425 593/691/402 455/690/280
f 724/762/425 542/764/426 454/698/407 593/691/402
f 548/667/398 431/670/400 542/764/426 724/762/425
f 436/677/301 553/676/302 725/765/302 551/766/301
f 551/766/301 725/765/302 594/660/302 457/653/301
f 725/765/302 216/302/45 61/190/45 594/660/302
f 553/676/302 39/206/45 216/302/45 725/765/302
f 434/683/280 554/682/395 726/767/395 549/768/280
f 549/768/280 726/767/395 595/655/395 455/654/280
f 726/767/395 550/769/393 456/645/393 595/655/395
f 554/682/395 435/685/393 550/769/393 726/767/395
f 435/685/393 555/689/394 727/770/394 550/769/393
f 550/769/393 727/770/394 596/646/394 456/645/393
f 727/770/394 551/766/301 457/653/301 596/646/394
f 555/689/394 436/677/301 551/766/301 727/770/394
f 467/771/427 620/772/428 728/773/428 614/774/427
f 614/774/427 728/773/428 601/775/428 459/776/427
f 728/773/428 616/777/295 461/778/295 601/775/428
f 620/772/428 469/779/295 616/777/295 728/773/428
f 466/780/429 619/781/430 729/782/430 613/783/429
f 613/783/429 729/782/430 602/784/430 458/785/429
f 729/782/430 614/774/427 459/776/427 602/784/430
f 619/781/430 467/771/427 614/774/427 729/782/430
f 478/786/429 644/787/431 730/788/432 597/789/429
f 597/789/429 730/788/432 603/790/433 458/791/429
f 730/788/432 599/792/434 460/793/435 603/790/433
f 644/787/431 480/794/436 599/792/434 730/788/432
f 469/779/295 618/795/296 731/796/296 616/777/295
f 616/777/295 731/796/296 604/797/296 461/778/295
f 731/796/296 226/335/36 67/334/36 604/797/296
f 618/795/296 76/336/36 226/335/36 731/796/296
f 473/798/295 627/799/296 732/800/296 624/801/295
f 624/801/295 732/800/296 609/802/296 465/803/295
f 732/800/296 238/344/36 75/343/36 609/802/296
f 627/799/296 85/345/36 238/344/36 732/800/296
f 470/804/307 626/805/437 733/806/430 621/807/429
f 621/807/429 733/806/430 610/808/430 462/809/429
f 733/806/430 622/810/427 463/811/427 610/808/430
f 626/805/437 471/812/438 622/810/427 733/806/430
f 471/812/438 625/813/439 734/814/428 622/810/427
f 622/810/427 734/814/428 611/815/428 463/811/427
f 734/814/428 624/801/295 465/803/295 611/815/428
f 625/813/439 473/798/295 624/801/295 734/814/428
f 466/816/429 617/817/440 735/818/441 605/819/429
f 605/819/429 735/818/441 612/820/442 462/821/429
f 735/818/441 607/822/443 464/823/444 612/820/442
f 617/817/440 468/824/445 607/822/443 735/818/441
f 458/791/429 603/790/433 736/825/446 613/826/429
f 613/826/429 736/825/446 617/817/440 466/816/429
f 736/825/446 615/827/447 468/824/445 617/817/440
f 603/790/433 460/793/435 615/827/447 736/825/446
f 465/803/295 609/802/296 737/828/296 608/829/295
f 608/829/295 737/828/296 618/795/296 469/779/295
f 737/828/296 243/372/36 76/336/36 618/795/296
f 609/802/296 75/343/36 243/372/36 737/828/296
f 462/809/429 610/808/430 738/830/430 605/831/429
f 605/831/429 738/830/430 619/781/430 466/780/429
f 738/830/430 606/832/427 467/771/427 619/781/430
f 610/808/430 463/811/427 606/832/427 738/830/430
f 463/811/427 611/815/428 739/833/428 606/832/427
f 606/832/427 739/833/428 620/772/428 467/771/427
f 739/833/428 608/829/295 469/779/295 620/772/428
f 611/815/428 465/803/295 608/829/295 739/833/428
f 412/834/354 529/835/350 740/836/448 510/837/449
f 510/837/449 740/836/448 625/813/439 471/812/438
f 740/836/448 539/838/450 473/798/295 625/813/439
f 529/835/350 424/839/349 539/838/450 740/836/448
f 406/840/312 505/841/355 741/842/451 496/843/310
f 496/843/310 741/842/451 626/805/437 470/804/307
f 741/842/451 510/837/449 471/812/438 626/805/437
f 505/841/355 412/834/354 510/837/449 741/842/451
f 424/839/349 493/844/380 742/845/452 539/838/450
f 539/838/450 742/845/452 627/799/296 473/798/295
f 742/845/452 256/389/198 85/345/36 627/799/296
f 493/844/380 1/390/120 256/389/198 742/845/452
f 462/821/429 612/820/442 743/846/453 621/847/429
f 621/847/429 743/846/453 628/529/308 470/528/307
f 743/846/453 623/848/454 472/536/315 628/529/308
f 612/820/442 464/823/444 623/848/454 743/846/453
f 482/849/322 649/850/455 744/851/456 629/852/429
f 629/852/429 744/851/456 633/853/457 474/854/429
f 744/851/456 631/855/458 476/856/459 633/853/457
f 649/850/455 484/857/460 631/855/458 744/851/456
f 479/858/427 643/859/428 745/860/428 638/861/427
f 638/861/427 745/860/428 634/862/428 475/863/427
f 745/860/428 640/864/295 477/865/295 634/862/428
f 643/859/428 481/866/295 640/864/295 745/860/428
f 478/867/429 642/868/430 746/869/430 637/870/429
f 637/870/429 746/869/430 635/871/430 474/872/429
f 746/869/430 638/861/427 475/863/427 635/871/430
f 642/868/430 479/858/427 638/861/427 746/869/430
f 481/866/295 641/873/296 747/874/296 640/864/295
f 640/864/295 747/874/296 636/875/296 477/865/295
f 747/874/296 261/422/36 86/421/36 636/875/296
f 641/873/296 95/423/36 261/422/36 747/874/296
f 461/778/295 604/797/296 748/876/296 600/877/295
f 600/877/295 748/876/296 641/873/296 481/866/295
f 748/876/296 274/426/36 95/423/36 641/873/296
f 604/797/296 67/334/36 274/426/36 748/876/296
f 458/785/429 602/784/430 749/878/430 597/879/429
f 597/879/429 749/878/430 642/868/430 478/867/429
f 749/878/430 598/880/427 479/858/427 642/868/430
f 602/784/430 459/776/427 598/880/427 749/878/430
f 459/776/427 601/775/428 750/881/428 598/880/427
f 598/880/427 750/881/428 643/859/428 479/858/427
f 750/881/428 600/877/295 481/866/295 643/859/428
f 601/775/428 461/778/295 600/877/295 750/881/428
f 474/854/429 633/853/457 751/882/461 637/883/429
f 637/883/429 751/882/461 644/787/431 478/786/429
f 751/882/461 639/884/462 480/794/436 644/787/431
f 633/853/457 476/856/459 639/884/462 751/882/461
f 408/885/327 522/886/368 752/887/463 645/888/325
f 645/888/325 752/887/463 649/850/455 482/849/322
f 752/887/463 647/889/464 484/857/460 649/850/455
f 522/886/368 411/890/370 647/889/464 752/887/463
f 475/863/427 634/862/428 753/891/428 630/892/427
f 630/892/427 753/891/428 650/640/389 483/554/330
f 753/891/428 632/893/295 485/516/295 650/640/389
f 634/862/428 477/865/295 632/893/295 753/891/428
f 474/872/429 635/871/430 754/894/430 629/895/429
f 629/895/429 754/894/430 651/547/323 482/546/322
f 754/894/430 630/892/427 483/554/330 651/547/323
f 635/871/430 475/863/427 630/892/427 754/894/430
f 477/865/295 636/875/296 755/896/296 632/893/295
f 632/893/295 755/896/296 652/517/296 485/516/295
f 755/896/296 279/446/36 96/36/36 652/517/296
f 636/875/296 86/421/36 279/446/36 755/896/296
f 484/897/465 647/898/466 756/899/467 653/900/468
f 653/900/468 756/899/467 668/901/469 487/902/470
f 756/899/467 524/903/369 422/904/372 668/901/469
f 647/898/466 411/905/370 524/903/369 756/899/467
f 476/906/471 631/907/472 757/908/473 654/909/474
f 654/909/474 757/908/473 671/910/475 489/911/476
f 757/908/473 653/900/468 487/902/470 671/910/475
f 631/907/472 484/897/465 653/900/468 757/908/473
f 480/912/477 639/913/478 758/914/479 655/915/480
f 655/915/480 758/914/479 673/916/365 491/917/365
f 758/914/479 654/909/474 489/911/476 673/916/365
f 639/913/478 476/906/471 654/909/474 758/914/479
f 460/918/481 599/919/482 759/920/483 656/921/484
f 656/921/484 759/920/483 674/922/365 486/923/365
f 759/920/483 655/915/480 491/917/365 674/922/365
f 599/919/482 480/912/477 655/915/480 759/920/483
f 468/924/485 615/925/486 760/926/487 657/927/488
f 657/927/488 760/926/487 667/928/365 488/929/365
f 760/926/487 656/921/484 486/923/365 667/928/365
f 615/925/486 460/918/481 656/921/484 760/926/487
f 464/930/489 607/931/490 761/932/491 658/933/492
f 658/933/492 761/932/491 669/934/365 490/935/365
f 761/932/491 657/927/488 488/929/365 669/934/365
f 607/931/490 468/924/485 657/927/488 761/932/491
f 472/936/493 623/937/494 762/938/495 659/939/496
f 659/939/496 762/938/495 672/940/365 492/597/365
f 762/938/495 658/933/492 490/935/365 672/940/365
f 623/937/494 464/930/489 658/933/492 762/938/495
f 486/923/365 660/941/497 763/942/498 667/928/365
f 667/928/365 763/942/498 662/943/499 488/929/365
f 763/942/498 568/944/500 445/945/501 662/943/499
f 660/941/497 431/946/502 568/944/500 763/942/498
f 422/904/372 525/947/377 764/948/503 668/901/469
f 668/901/469 764/948/503 661/949/504 487/902/470
f 764/948/503 584/950/505 453/951/506 661/949/504
f 525/947/377 420/952/287 584/950/505 764/948/503
f 488/929/365 662/943/499 765/953/507 669/934/365
f 669/934/365 765/953/507 664/954/508 490/935/365
f 765/953/507 557/955/509 438/956/510 664/954/508
f 662/943/499 445/945/501 557/955/509 765/953/507
f 423/598/366 503/957/379 766/958/511 670/596/364
f 670/596/364 766/958/511 659/939/496 492/597/365
f 766/958/511 521/959/512 472/936/493 659/939/496
f 503/957/379 410/960/314 521/959/512 766/958/511
f 487/902/470 661/949/504 767/961/513 671/910/475
f 671/910/475 767/961/513 663/962/514 489/911/476
f 767/961/513 552/963/515 437/964/516 663/962/514
f 661/949/504 453/951/506 552/963/515 767/961/513
f 490/935/365 664/954/508 768/965/517 672/940/365
f 672/940/365 768/965/517 666/594/362 492/597/365
f 768/965/517 573/966/518 446/595/363 666/594/362
f 664/954/508 438/956/510 573/966/518 768/965/517
f 489/911/476 663/962/514 769/967/519 673/916/365
f 673/916/365 769/967/519 665/968/520 491/917/365
f 769/967/519 589/969/521 454/970/522 665/968/520
f 663/962/514 437/964/516 589/969/521 769/967/519
f 491/917/365 665/968/520 770/971/523 674/922/365
f 674/922/365 770/971/523 660/941/497 486/923/365
f 770/971/523 542/972/524 431/946/502 660/941/497
f 665/968/520 454/970/522 542/972/524 770/971/523
