# Blender 5.0.1
# www.blender.org
mtllib Vino.mtl
o Vino
v -0.025668 2.784774 -0.615823
v 0.133719 2.784774 -0.594839
v 0.282243 2.784774 -0.533318
v 0.409784 2.784774 -0.435452
v 0.507650 2.784774 -0.307911
v 0.569171 2.784774 -0.159387
v 0.590154 2.784774 0.000000
v 0.569171 2.784774 0.159387
v 0.507650 2.784774 0.307911
v 0.409784 2.784774 0.435452
v 0.282243 2.784774 0.533318
v 0.133719 2.784774 0.594839
v -0.025668 2.784774 0.615823
v -0.185055 2.784774 0.594839
v -0.333579 2.784774 0.533318
v -0.461120 2.784774 0.435452
v -0.558986 2.784774 0.307911
v -0.620507 2.784774 0.159387
v -0.641491 2.784774 0.000000
v -0.620507 2.784774 -0.159387
v -0.558986 2.784774 -0.307911
v -0.461120 2.784774 -0.435452
v -0.333579 2.784774 -0.533318
v -0.185055 2.784774 -0.594839
v -0.018538 3.308830 -0.240779
v 0.043780 3.308830 -0.232575
v 0.101851 3.308830 -0.208521
v 0.151718 3.308830 -0.170256
v 0.189983 3.308830 -0.120389
v 0.214037 3.308830 -0.062318
v 0.222241 3.308830 -0.000000
v 0.214037 3.308830 0.062318
v 0.189983 3.308830 0.120389
v 0.151718 3.308830 0.170256
v 0.101851 3.308830 0.208521
v 0.043780 3.308830 0.232575
v -0.018538 3.308830 0.240779
v -0.080856 3.308830 0.232575
v -0.138927 3.308830 0.208521
v -0.188794 3.308830 0.170256
v -0.227059 3.308830 0.120389
v -0.251113 3.308830 0.062318
v -0.259317 3.308830 -0.000000
v -0.251113 3.308830 -0.062318
v -0.227059 3.308830 -0.120389
v -0.188794 3.308830 -0.170256
v -0.138927 3.308830 -0.208521
v -0.080856 3.308830 -0.232575
v -0.416484 3.046802 0.394381
v -0.505119 3.046802 0.278869
v -0.505119 3.046802 -0.278869
v -0.416484 3.046802 -0.394381
v 0.372278 3.046802 -0.394381
v 0.460913 3.046802 -0.278869
v 0.460913 3.046802 0.278869
v 0.372278 3.046802 0.394381
v -0.166456 3.046802 0.538734
v -0.300972 3.046802 0.483016
v -0.579842 3.046802 -0.000000
v -0.560837 3.046802 -0.144353
v -0.166456 3.046802 -0.538734
v -0.022103 3.046802 -0.557739
v 0.122250 3.046802 -0.538734
v 0.256766 3.046802 -0.483016
v 0.535636 3.046802 -0.000000
v 0.516631 3.046802 0.144353
v 0.122250 3.046802 0.538734
v -0.022103 3.046802 0.557739
v -0.560837 3.046802 0.144353
v -0.300972 3.046802 -0.483016
v 0.516631 3.046802 -0.144353
v 0.256766 3.046802 0.483016
v -0.547049 2.915788 0.302048
v -0.451047 2.915788 -0.427161
v 0.499278 2.915788 -0.302048
v 0.403276 2.915788 0.427161
v -0.325934 2.915788 0.523163
v -0.607398 2.915788 -0.156352
v -0.023886 2.915788 -0.604097
v 0.278163 2.915788 -0.523163
v 0.559627 2.915788 0.156352
v -0.023886 2.915788 0.604097
v -0.607398 2.915788 0.156352
v -0.325934 2.915788 -0.523163
v 0.559627 2.915788 -0.156352
v 0.278163 2.915788 0.523163
v -0.451047 2.915788 0.427161
v -0.547049 2.915788 -0.302048
v 0.403276 2.915788 -0.427161
v 0.499278 2.915788 0.302048
v -0.180237 2.915788 0.583513
v -0.627983 2.915788 -0.000000
v -0.180237 2.915788 -0.583513
v 0.132466 2.915788 -0.583513
v 0.580211 2.915788 -0.000000
v 0.132466 2.915788 0.583513
v -0.317038 3.177816 0.296717
v -0.383723 3.177816 -0.209811
v 0.276397 3.177816 -0.296717
v 0.343082 3.177816 0.209811
v -0.128927 3.177816 0.405323
v -0.439942 3.177816 -0.000000
v -0.128927 3.177816 -0.405323
v 0.088286 3.177816 -0.405323
v 0.399301 3.177816 -0.000000
v 0.088286 3.177816 0.405323
v -0.383723 3.177816 0.209811
v -0.317038 3.177816 -0.296717
v 0.343082 3.177816 -0.209811
v 0.276397 3.177816 0.296717
v -0.230131 3.177816 0.363403
v -0.425644 3.177816 -0.108606
v -0.020321 3.177816 -0.419622
v 0.189490 3.177816 -0.363403
v 0.385003 3.177816 0.108606
v -0.020321 3.177816 0.419622
v -0.425644 3.177816 0.108606
v -0.230131 3.177816 -0.363403
v 0.385003 3.177816 -0.108606
v 0.189490 3.177816 0.363403
v -0.233374 3.243323 0.213945
v -0.281457 3.243323 -0.151282
v 0.194516 3.243323 -0.213945
v 0.242599 3.243323 0.151282
v -0.097738 3.243323 0.292254
v -0.321993 3.243323 -0.000000
v -0.097738 3.243323 -0.292254
v 0.058880 3.243323 -0.292254
v 0.283134 3.243323 -0.000000
v 0.058880 3.243323 0.292254
v -0.281457 3.243323 0.151282
v -0.233374 3.243323 -0.213945
v 0.242598 3.243323 -0.151282
v 0.194516 3.243323 0.213945
v -0.170711 3.243323 0.262028
v -0.311683 3.243323 -0.078309
v -0.019429 3.243323 -0.302564
v 0.131853 3.243323 -0.262028
v 0.272825 3.243323 0.078309
v -0.019429 3.243323 0.302564
v -0.311683 3.243323 0.078309
v -0.170711 3.243323 -0.262028
v 0.272825 3.243323 -0.078309
v 0.131853 3.243323 0.262028
v -0.018538 3.361840 -0.217263
v 0.037694 3.361840 -0.209860
v 0.090094 3.361840 -0.188155
v 0.135090 3.361840 -0.153628
v 0.169618 3.361840 -0.108632
v 0.191322 3.361840 -0.056232
v 0.198725 3.361840 -0.000000
v 0.191322 3.361840 0.056232
v 0.169618 3.361840 0.108632
v 0.135090 3.361840 0.153628
v 0.090094 3.361840 0.188155
v 0.037694 3.361840 0.209860
v -0.018538 3.361840 0.217263
v -0.074770 3.361840 0.209860
v -0.127169 3.361840 0.188155
v -0.172166 3.361840 0.153628
v -0.206693 3.361840 0.108632
v -0.228398 3.361840 0.056232
v -0.235801 3.361840 -0.000000
v -0.228398 3.361840 -0.056232
v -0.206693 3.361840 -0.108632
v -0.172166 3.361840 -0.153628
v -0.127169 3.361840 -0.188155
v -0.074770 3.361840 -0.209860
v -0.018538 3.590498 -0.217263
v 0.037694 3.590498 -0.209860
v 0.090094 3.590498 -0.188155
v 0.135090 3.590498 -0.153628
v 0.169618 3.590498 -0.108632
v 0.191322 3.590498 -0.056232
v 0.198725 3.590498 -0.000000
v 0.191322 3.590498 0.056232
v 0.169618 3.590498 0.108632
v 0.135090 3.590498 0.153628
v 0.090094 3.590498 0.188155
v 0.037694 3.590498 0.209860
v -0.018538 3.590498 0.217263
v -0.074770 3.590498 0.209860
v -0.127169 3.590498 0.188155
v -0.172166 3.590498 0.153628
v -0.206693 3.590498 0.108632
v -0.228398 3.590498 0.056232
v -0.235801 3.590498 -0.000000
v -0.228398 3.590498 -0.056232
v -0.206693 3.590498 -0.108632
v -0.172166 3.590498 -0.153628
v -0.127169 3.590498 -0.188155
v -0.074770 3.590498 -0.209860
v -0.018538 3.592130 -0.224921
v 0.039676 3.592130 -0.217257
v 0.093922 3.592130 -0.194787
v 0.140505 3.592130 -0.159043
v 0.176249 3.592130 -0.112460
v 0.198719 3.592130 -0.058214
v 0.206383 3.592130 -0.000000
v 0.198719 3.592130 0.058214
v 0.176249 3.592130 0.112460
v 0.140505 3.592130 0.159043
v 0.093922 3.592130 0.194787
v 0.039676 3.592130 0.217257
v -0.018538 3.592130 0.224921
v -0.076752 3.592130 0.217257
v -0.130998 3.592130 0.194787
v -0.177581 3.592130 0.159043
v -0.213325 3.592130 0.112460
v -0.235794 3.592130 0.058214
v -0.243458 3.592130 -0.000000
v -0.235794 3.592130 -0.058214
v -0.213325 3.592130 -0.112460
v -0.177581 3.592130 -0.159043
v -0.130998 3.592130 -0.194787
v -0.076752 3.592130 -0.217257
v -0.018538 4.231686 -0.224921
v 0.039676 4.231686 -0.217257
v 0.093922 4.231686 -0.194787
v 0.140505 4.231686 -0.159043
v 0.176249 4.231686 -0.112460
v 0.198719 4.231686 -0.058214
v 0.206383 4.231686 -0.000000
v 0.198719 4.231686 0.058214
v 0.176249 4.231686 0.112460
v 0.140505 4.231686 0.159043
v 0.093922 4.231686 0.194787
v 0.039676 4.231686 0.217257
v -0.018538 4.231686 0.224921
v -0.076752 4.231686 0.217257
v -0.130998 4.231686 0.194787
v -0.177581 4.231686 0.159043
v -0.213325 4.231686 0.112460
v -0.235794 4.231686 0.058214
v -0.243458 4.231686 -0.000000
v -0.235794 4.231686 -0.058214
v -0.213325 4.231686 -0.112460
v -0.177581 4.231686 -0.159043
v -0.130998 4.231686 -0.194787
v -0.076752 4.231686 -0.217257
v -0.018538 4.231686 -0.248785
v 0.045852 4.231686 -0.240307
v 0.105854 4.231686 -0.215454
v 0.157379 4.231686 -0.175917
v 0.196916 4.231686 -0.124392
v 0.221770 4.231686 -0.064390
v 0.230247 4.231686 -0.000000
v 0.221770 4.231686 0.064390
v 0.196916 4.231686 0.124392
v 0.157379 4.231686 0.175917
v 0.105854 4.231686 0.215454
v 0.045852 4.231686 0.240307
v -0.018538 4.231686 0.248785
v -0.082928 4.231686 0.240307
v -0.142930 4.231686 0.215454
v -0.194455 4.231686 0.175917
v -0.233992 4.231686 0.124392
v -0.258845 4.231686 0.064390
v -0.267322 4.231686 -0.000000
v -0.258845 4.231686 -0.064390
v -0.233992 4.231686 -0.124392
v -0.194455 4.231686 -0.175917
v -0.142930 4.231686 -0.215454
v -0.082928 4.231686 -0.240307
v -0.018538 4.401890 -0.248785
v 0.045852 4.401890 -0.240307
v 0.105854 4.401890 -0.215454
v 0.157379 4.401890 -0.175917
v 0.196916 4.401890 -0.124392
v 0.221770 4.401890 -0.064390
v 0.230247 4.401890 -0.000000
v 0.221770 4.401890 0.064390
v 0.196916 4.401890 0.124392
v 0.157379 4.401890 0.175917
v 0.105854 4.401890 0.215454
v 0.045852 4.401890 0.240307
v -0.018538 4.401890 0.248785
v -0.082928 4.401890 0.240307
v -0.142930 4.401890 0.215454
v -0.194455 4.401890 0.175917
v -0.233992 4.401890 0.124392
v -0.258845 4.401890 0.064390
v -0.267322 4.401890 -0.000000
v -0.258845 4.401890 -0.064390
v -0.233992 4.401890 -0.124392
v -0.194455 4.401890 -0.175917
v -0.142930 4.401890 -0.215454
v -0.082928 4.401890 -0.240307
v -0.018538 4.401890 -0.224934
v 0.039679 4.401890 -0.217270
v 0.093929 4.401890 -0.194799
v 0.140515 4.401890 -0.159052
v 0.176261 4.401890 -0.112467
v 0.198732 4.401890 -0.058217
v 0.206396 4.401890 -0.000000
v 0.198732 4.401890 0.058217
v 0.176261 4.401890 0.112467
v 0.140515 4.401890 0.159052
v 0.093929 4.401890 0.194799
v 0.039679 4.401890 0.217270
v -0.018538 4.401890 0.224934
v -0.076755 4.401890 0.217270
v -0.131005 4.401890 0.194799
v -0.177590 4.401890 0.159052
v -0.213336 4.401890 0.112467
v -0.235807 4.401890 0.058217
v -0.243472 4.401890 -0.000000
v -0.235807 4.401890 -0.058217
v -0.213336 4.401890 -0.112467
v -0.177590 4.401890 -0.159052
v -0.131005 4.401890 -0.194799
v -0.076755 4.401890 -0.217270
v -0.018538 4.474098 -0.224934
v 0.039679 4.474098 -0.217270
v 0.093929 4.474098 -0.194799
v 0.140515 4.474098 -0.159052
v 0.176261 4.474098 -0.112467
v 0.198732 4.474098 -0.058217
v 0.206396 4.474098 -0.000000
v 0.198732 4.474098 0.058217
v 0.176261 4.474098 0.112467
v 0.140515 4.474098 0.159052
v 0.093929 4.474098 0.194799
v 0.039679 4.474098 0.217270
v -0.018538 4.474098 0.224934
v -0.076755 4.474098 0.217270
v -0.131005 4.474098 0.194799
v -0.177590 4.474098 0.159052
v -0.213336 4.474098 0.112467
v -0.235807 4.474098 0.058217
v -0.243472 4.474098 -0.000000
v -0.235807 4.474098 -0.058217
v -0.213336 4.474098 -0.112467
v -0.177590 4.474098 -0.159052
v -0.131005 4.474098 -0.194799
v -0.076755 4.474098 -0.217270
v -0.025668 -0.016535 -0.547008
v -0.025668 0.051691 -0.615823
v -0.025668 -0.011341 -0.573342
v -0.025668 0.003448 -0.595667
v -0.025668 0.025582 -0.610584
v 0.115908 -0.016535 -0.528369
v 0.133719 0.051691 -0.594839
v 0.122724 -0.011341 -0.553806
v 0.128502 0.003448 -0.575370
v 0.132363 0.025582 -0.589779
v 0.247836 -0.016535 -0.473723
v 0.282243 0.051691 -0.533318
v 0.261003 -0.011341 -0.496529
v 0.272165 0.003448 -0.515863
v 0.279624 0.025582 -0.528782
v 0.361125 -0.016535 -0.386793
v 0.409784 0.051691 -0.435452
v 0.379746 -0.011341 -0.405414
v 0.395532 0.003448 -0.421200
v 0.406080 0.025582 -0.431748
v 0.448054 -0.016535 -0.273504
v 0.507650 0.051691 -0.307911
v 0.470861 -0.011341 -0.286671
v 0.490195 0.003448 -0.297834
v 0.503114 0.025582 -0.305292
v 0.502701 -0.016535 -0.141576
v 0.569171 0.051691 -0.159387
v 0.528138 -0.011341 -0.148392
v 0.549702 0.003448 -0.154170
v 0.564111 0.025582 -0.158031
v 0.521339 -0.016535 0.000000
v 0.590154 0.051691 0.000000
v 0.547674 -0.011341 0.000000
v 0.569999 0.003448 0.000000
v 0.584916 0.025582 0.000000
v 0.502701 -0.016535 0.141576
v 0.569171 0.051691 0.159387
v 0.528138 -0.011341 0.148392
v 0.549702 0.003448 0.154170
v 0.564111 0.025582 0.158031
v 0.448054 -0.016535 0.273504
v 0.507650 0.051691 0.307911
v 0.470861 -0.011341 0.286671
v 0.490195 0.003448 0.297834
v 0.503114 0.025582 0.305292
v 0.361125 -0.016535 0.386793
v 0.409784 0.051691 0.435452
v 0.379746 -0.011341 0.405414
v 0.395532 0.003448 0.421200
v 0.406080 0.025582 0.431748
v 0.247836 -0.016535 0.473723
v 0.282243 0.051691 0.533318
v 0.261003 -0.011341 0.496529
v 0.272165 0.003448 0.515863
v 0.279624 0.025582 0.528782
v 0.115908 -0.016535 0.528369
v 0.133719 0.051691 0.594839
v 0.122724 -0.011341 0.553806
v 0.128502 0.003448 0.575370
v 0.132363 0.025582 0.589779
v -0.025668 -0.016535 0.547008
v -0.025668 0.051691 0.615823
v -0.025668 -0.011341 0.573342
v -0.025668 0.003448 0.595667
v -0.025668 0.025582 0.610584
v -0.167244 -0.016535 0.528369
v -0.185055 0.051691 0.594839
v -0.174060 -0.011341 0.553806
v -0.179838 0.003448 0.575370
v -0.183699 0.025582 0.589779
v -0.299172 -0.016535 0.473723
v -0.333579 0.051691 0.533318
v -0.312339 -0.011341 0.496529
v -0.323502 0.003448 0.515863
v -0.330960 0.025582 0.528782
v -0.412461 -0.016535 0.386793
v -0.461120 0.051691 0.435452
v -0.431082 -0.011341 0.405414
v -0.446868 0.003448 0.421200
v -0.457416 0.025582 0.431748
v -0.499391 -0.016535 0.273504
v -0.558986 0.051691 0.307911
v -0.522197 -0.011341 0.286671
v -0.541531 0.003448 0.297834
v -0.554450 0.025582 0.305292
v -0.554037 -0.016535 0.141576
v -0.620507 0.051691 0.159387
v -0.579474 -0.011341 0.148392
v -0.601038 0.003448 0.154170
v -0.615447 0.025582 0.158031
v -0.572676 -0.016535 -0.000000
v -0.641491 0.051691 0.000000
v -0.599010 -0.011341 -0.000000
v -0.621335 0.003448 -0.000000
v -0.636252 0.025582 -0.000000
v -0.554037 -0.016535 -0.141576
v -0.620507 0.051691 -0.159387
v -0.579474 -0.011341 -0.148392
v -0.601038 0.003448 -0.154170
v -0.615447 0.025582 -0.158031
v -0.499391 -0.016535 -0.273504
v -0.558986 0.051691 -0.307911
v -0.522197 -0.011341 -0.286671
v -0.541531 0.003448 -0.297834
v -0.554450 0.025582 -0.305292
v -0.412461 -0.016535 -0.386793
v -0.461120 0.051691 -0.435452
v -0.431082 -0.011341 -0.405414
v -0.446868 0.003448 -0.421200
v -0.457416 0.025582 -0.431748
v -0.299172 -0.016535 -0.473723
v -0.333579 0.051691 -0.533318
v -0.312339 -0.011341 -0.496529
v -0.323502 0.003448 -0.515863
v -0.330960 0.025582 -0.528782
v -0.167244 -0.016535 -0.528369
v -0.185055 0.051691 -0.594839
v -0.174060 -0.011341 -0.553806
v -0.179838 0.003448 -0.575370
v -0.183699 0.025582 -0.589779
v -0.270885 -0.016535 0.424728
v -0.225887 -0.016535 0.346789
v -0.167244 -0.016535 0.245217
v -0.098953 -0.016535 0.126933
v -0.025668 -0.016535 -0.000000
v 0.047617 -0.016535 -0.126933
v 0.115908 -0.016535 -0.245217
v 0.174550 -0.016535 -0.346789
v 0.219549 -0.016535 -0.424728
vn -0.5227 0.7973 0.3017
vn -0.4273 0.7968 0.4272
vn -0.5845 0.5625 0.5848
vn -0.7156 0.5630 0.4134
vn -0.7156 0.5630 -0.4134
vn -0.7981 0.5633 -0.2139
vn -0.9442 0.2108 -0.2530
vn -0.8466 0.2108 -0.4888
vn -0.4273 0.7968 -0.4272
vn -0.5227 0.7973 -0.3017
vn -0.5845 0.5625 -0.5848
vn 0.5288 0.7919 -0.3053
vn 0.4312 0.7924 -0.4313
vn 0.5869 0.5580 -0.5866
vn 0.7190 0.5575 -0.4149
vn 0.4312 0.7924 0.4313
vn 0.5288 0.7919 0.3053
vn 0.7190 0.5575 0.4149
vn 0.5869 0.5580 0.5866
vn -0.3026 0.7962 0.5239
vn -0.1569 0.7955 0.5853
vn -0.2139 0.5611 0.7996
vn -0.4134 0.5619 0.7166
vn -0.5826 0.7976 -0.1561
vn -0.6030 0.7977 -0.0000
vn -0.8262 0.5634 -0.0000
vn -0.0001 0.7947 -0.6071
vn -0.1569 0.7955 -0.5853
vn -0.2139 0.5611 -0.7996
vn 0.0003 0.5603 -0.8283
vn 0.3045 0.7931 -0.5275
vn 0.1573 0.7939 -0.5874
vn 0.2148 0.5595 -0.8005
vn 0.4149 0.5587 -0.7181
vn 0.5902 0.7916 0.1582
vn 0.6112 0.7915 -0.0000
vn 0.8304 0.5571 -0.0000
vn 0.8021 0.5572 0.2148
vn -0.0001 0.7947 0.6071
vn 0.1573 0.7939 0.5874
vn 0.2148 0.5595 0.8005
vn 0.0003 0.5603 0.8283
vn -0.5826 0.7976 0.1561
vn -0.7981 0.5633 0.2139
vn -0.3026 0.7962 -0.5239
vn -0.4134 0.5619 -0.7166
vn 0.5902 0.7916 -0.1582
vn 0.8021 0.5572 -0.2148
vn 0.3045 0.7931 0.5275
vn 0.4149 0.5587 0.7181
vn 0.2533 0.2077 0.9448
vn 0.4895 0.2047 0.8476
vn 0.4236 0.5320 0.7332
vn 0.2191 0.5339 0.8167
vn 0.9801 0.1985 -0.0000
vn 0.9466 0.1989 -0.2536
vn 0.8201 0.5283 -0.2197
vn 0.8492 0.5281 -0.0000
vn -0.2527 0.2141 -0.9436
vn -0.4880 0.2171 -0.8454
vn -0.4207 0.5398 -0.7291
vn -0.2179 0.5379 -0.8143
vn -0.9748 0.2232 -0.0000
vn -0.9416 0.2228 0.2523
vn -0.8108 0.5434 0.2174
vn -0.8393 0.5437 -0.0000
vn -0.2527 0.2141 0.9436
vn 0.0001 0.2109 0.9775
vn 0.0003 0.5359 0.8443
vn -0.2179 0.5379 0.8143
vn 0.2533 0.2077 -0.9448
vn 0.0001 0.2109 -0.9775
vn 0.0003 0.5359 -0.8443
vn 0.2191 0.5339 -0.8167
vn 0.8485 0.2001 0.4898
vn 0.9466 0.1989 0.2536
vn 0.8201 0.5283 0.2197
vn 0.7349 0.5291 0.4241
vn 0.6926 0.2021 -0.6925
vn 0.4895 0.2047 -0.8476
vn 0.4236 0.5320 -0.7332
vn 0.5996 0.5304 -0.5993
vn -0.8445 0.2216 -0.4876
vn -0.9416 0.2228 -0.2523
vn -0.8108 0.5434 -0.2174
vn -0.7274 0.5426 -0.4201
vn -0.6898 0.2196 0.6899
vn -0.4880 0.2171 0.8454
vn -0.4207 0.5398 0.7291
vn -0.5943 0.5414 0.5947
vn 0.6926 0.2021 0.6925
vn 0.5996 0.5304 0.5993
vn 0.8485 0.2001 -0.4898
vn 0.7349 0.5291 -0.4241
vn -0.6898 0.2196 -0.6899
vn -0.5943 0.5414 -0.5947
vn -0.8445 0.2216 0.4876
vn -0.7274 0.5426 0.4201
vn -0.8651 0.0502 0.4991
vn -0.7065 0.0492 0.7060
vn -0.7065 0.0492 -0.7060
vn -0.8651 0.0502 -0.4991
vn 0.8652 0.0386 -0.4999
vn 0.7063 0.0397 -0.7068
vn 0.7063 0.0397 0.7068
vn 0.8652 0.0386 0.4999
vn -0.4998 0.0478 0.8648
vn -0.2591 0.0462 0.9648
vn -0.9647 0.0509 -0.2583
vn -0.9987 0.0511 -0.0000
vn -0.0006 0.0445 -0.9990
vn -0.2591 0.0462 -0.9648
vn 0.4992 0.0411 -0.8655
vn 0.2581 0.0427 -0.9652
vn 0.9652 0.0380 0.2588
vn 0.9993 0.0377 -0.0000
vn -0.0006 0.0445 0.9990
vn 0.2581 0.0427 0.9652
vn -0.9647 0.0509 0.2583
vn -0.4998 0.0478 -0.8648
vn 0.9652 0.0380 -0.2588
vn 0.4992 0.0411 0.8655
vn 0.3009 0.7989 0.5208
vn 0.1556 0.7996 0.5800
vn 0.5828 0.7975 -0.1561
vn 0.6034 0.7974 -0.0000
vn -0.2986 0.8019 -0.5175
vn -0.1547 0.8012 -0.5781
vn -0.5754 0.8032 0.1542
vn -0.5956 0.8033 -0.0000
vn 0.0002 0.8004 0.5995
vn -0.1547 0.8012 0.5781
vn 0.0002 0.8004 -0.5995
vn 0.1556 0.7996 -0.5800
vn 0.5828 0.7975 0.1561
vn 0.5222 0.7978 0.3014
vn 0.3009 0.7989 -0.5208
vn 0.4260 0.7983 -0.4258
vn -0.5754 0.8032 -0.1542
vn -0.5162 0.8029 -0.2981
vn -0.2986 0.8019 0.5175
vn -0.4218 0.8025 0.4220
vn 0.4260 0.7983 0.4258
vn 0.5222 0.7978 -0.3014
vn -0.4218 0.8025 -0.4220
vn -0.5162 0.8029 0.2981
vn 0.4888 0.2108 -0.8466
vn 0.2530 0.2108 -0.9442
vn 0.2588 -0.0000 -0.9659
vn 0.5000 -0.0000 -0.8660
vn -0.0000 0.2108 0.9775
vn -0.2530 0.2108 0.9442
vn 0.9442 0.2108 -0.2530
vn 0.9775 0.2108 -0.0000
vn -0.6912 0.2108 -0.6912
vn -0.4888 0.2108 0.8466
vn 0.9442 0.2108 0.2530
vn -0.4888 0.2108 -0.8466
vn -0.6912 0.2108 0.6912
vn 0.8466 0.2108 0.4888
vn -0.2530 0.2108 -0.9442
vn -0.0000 0.2108 -0.9775
vn -0.8466 0.2108 0.4888
vn 0.6912 0.2108 0.6912
vn -0.9442 0.2108 0.2530
vn 0.4888 0.2108 0.8466
vn 0.6912 0.2108 -0.6912
vn -0.9775 0.2108 -0.0000
vn 0.2530 0.2108 0.9442
vn 0.8466 0.2108 -0.4888
vn 0.2084 -0.9780 -0.0000
vn 0.2013 -0.9780 -0.0539
vn -0.8660 -0.0000 0.5000
vn -0.9659 -0.0000 0.2588
vn 0.7071 -0.0000 0.7071
vn 0.5000 -0.0000 0.8660
vn 0.7071 -0.0000 -0.7071
vn -1.0000 -0.0000 -0.0000
vn 0.2588 -0.0000 0.9659
vn 0.8660 -0.0000 -0.5000
vn -0.9659 -0.0000 -0.2588
vn -0.0000 -0.0000 1.0000
vn 0.9659 -0.0000 -0.2588
vn -0.8660 -0.0000 -0.5000
vn -0.2588 -0.0000 0.9659
vn 1.0000 -0.0000 -0.0000
vn -0.7071 -0.0000 -0.7071
vn -0.5000 -0.0000 0.8660
vn 0.9659 -0.0000 0.2588
vn -0.5000 -0.0000 -0.8660
vn -0.7071 -0.0000 0.7071
vn 0.8660 -0.0000 0.5000
vn -0.2588 -0.0000 -0.9659
vn -0.0000 -0.0000 -1.0000
vn -0.1474 -0.9780 -0.1474
vn -0.1805 -0.9780 -0.1042
vn -0.1042 -0.9780 0.1805
vn -0.0539 -0.9780 0.2013
vn 0.2013 -0.9780 0.0539
vn -0.1042 -0.9780 -0.1805
vn -0.1474 -0.9780 0.1474
vn 0.1805 -0.9780 0.1042
vn -0.0539 -0.9780 -0.2013
vn 0.0539 -0.9780 -0.2013
vn -0.0000 -0.9780 -0.2084
vn -0.1805 -0.9780 0.1042
vn 0.1474 -0.9780 0.1474
vn 0.1042 -0.9780 -0.1805
vn -0.2013 -0.9780 0.0539
vn 0.1042 -0.9780 0.1805
vn 0.1474 -0.9780 -0.1474
vn -0.2084 -0.9780 -0.0000
vn 0.0539 -0.9780 0.2013
vn 0.1805 -0.9780 -0.1042
vn -0.2013 -0.9780 -0.0539
vn -0.0000 -0.9780 0.2084
vn -0.0000 -1.0000 -0.0000
vn -0.0000 1.0000 -0.0000
vn -0.0000 -0.0980 -0.9952
vn 0.2576 -0.0980 -0.9613
vn 0.2394 -0.3796 -0.8936
vn -0.0000 -0.3796 -0.9251
vn 0.1844 -0.7019 -0.6880
vn -0.0000 -0.7019 -0.7123
vn 0.1019 -0.9192 -0.3803
vn -0.0000 -0.9192 -0.3937
vn 0.0272 -0.9945 -0.1016
vn -0.0000 -0.9944 -0.1052
vn 0.4976 -0.0980 -0.8619
vn 0.4626 -0.3796 -0.8012
vn 0.3561 -0.7019 -0.6169
vn 0.1969 -0.9192 -0.3410
vn 0.0526 -0.9945 -0.0911
vn 0.7037 -0.0980 -0.7037
vn 0.6542 -0.3796 -0.6542
vn 0.5037 -0.7019 -0.5037
vn 0.2784 -0.9192 -0.2784
vn 0.0744 -0.9945 -0.0744
vn 0.8619 -0.0980 -0.4976
vn 0.8012 -0.3796 -0.4626
vn 0.6169 -0.7019 -0.3561
vn 0.3410 -0.9192 -0.1969
vn 0.0911 -0.9944 -0.0526
vn 0.9613 -0.0980 -0.2576
vn 0.8936 -0.3796 -0.2394
vn 0.6880 -0.7019 -0.1844
vn 0.3803 -0.9192 -0.1019
vn 0.1016 -0.9944 -0.0272
vn 0.9952 -0.0980 -0.0000
vn 0.9251 -0.3796 -0.0000
vn 0.7123 -0.7019 -0.0000
vn 0.3937 -0.9192 -0.0000
vn 0.1052 -0.9945 -0.0000
vn 0.9613 -0.0980 0.2576
vn 0.8936 -0.3796 0.2394
vn 0.6880 -0.7019 0.1844
vn 0.3803 -0.9192 0.1019
vn 0.1016 -0.9944 0.0272
vn 0.8619 -0.0980 0.4976
vn 0.8012 -0.3796 0.4626
vn 0.6169 -0.7019 0.3561
vn 0.3410 -0.9192 0.1969
vn 0.0911 -0.9945 0.0526
vn 0.7037 -0.0980 0.7037
vn 0.6542 -0.3796 0.6542
vn 0.5037 -0.7019 0.5037
vn 0.2784 -0.9192 0.2784
vn 0.0744 -0.9944 0.0744
vn 0.4976 -0.0980 0.8619
vn 0.4626 -0.3796 0.8012
vn 0.3561 -0.7019 0.6169
vn 0.1969 -0.9192 0.3410
vn 0.0526 -0.9945 0.0911
vn 0.2576 -0.0980 0.9613
vn 0.2394 -0.3796 0.8936
vn 0.1844 -0.7019 0.6880
vn 0.1019 -0.9192 0.3803
vn 0.0272 -0.9944 0.1016
vn -0.0000 -0.0980 0.9952
vn -0.0000 -0.3796 0.9251
vn -0.0000 -0.7019 0.7123
vn -0.0000 -0.9192 0.3937
vn -0.0000 -0.9944 0.1052
vn -0.2576 -0.0980 0.9613
vn -0.2394 -0.3796 0.8936
vn -0.1844 -0.7019 0.6880
vn -0.1019 -0.9192 0.3803
vn -0.0272 -0.9945 0.1016
vn -0.4976 -0.0980 0.8619
vn -0.4626 -0.3796 0.8012
vn -0.3561 -0.7019 0.6169
vn -0.1969 -0.9192 0.3410
vn -0.0526 -0.9945 0.0911
vn -0.7037 -0.0980 0.7037
vn -0.6542 -0.3796 0.6542
vn -0.5037 -0.7019 0.5037
vn -0.2784 -0.9192 0.2784
vn -0.0744 -0.9945 0.0744
vn -0.8619 -0.0980 0.4976
vn -0.8012 -0.3796 0.4626
vn -0.6169 -0.7019 0.3561
vn -0.3410 -0.9192 0.1969
vn -0.0911 -0.9944 0.0526
vn -0.9613 -0.0980 0.2576
vn -0.8936 -0.3796 0.2394
vn -0.6880 -0.7019 0.1844
vn -0.3803 -0.9192 0.1019
vn -0.1016 -0.9944 0.0272
vn -0.9952 -0.0980 -0.0000
vn -0.9251 -0.3796 -0.0000
vn -0.7123 -0.7019 -0.0000
vn -0.3937 -0.9192 -0.0000
vn -0.1052 -0.9945 -0.0000
vn -0.9613 -0.0980 -0.2576
vn -0.8936 -0.3796 -0.2394
vn -0.6880 -0.7019 -0.1844
vn -0.3803 -0.9192 -0.1019
vn -0.1016 -0.9944 -0.0272
vn -0.8619 -0.0980 -0.4976
vn -0.8012 -0.3796 -0.4626
vn -0.6169 -0.7019 -0.3561
vn -0.3410 -0.9192 -0.1969
vn -0.0911 -0.9945 -0.0526
vn -0.7037 -0.0980 -0.7037
vn -0.6542 -0.3796 -0.6542
vn -0.5037 -0.7019 -0.5037
vn -0.2784 -0.9192 -0.2784
vn -0.0744 -0.9944 -0.0744
vn -0.4976 -0.0980 -0.8619
vn -0.4626 -0.3796 -0.8012
vn -0.3561 -0.7019 -0.6169
vn -0.1969 -0.9192 -0.3410
vn -0.0526 -0.9945 -0.0911
vn -0.2576 -0.0980 -0.9613
vn -0.2394 -0.3796 -0.8936
vn -0.1844 -0.7019 -0.6880
vn -0.1019 -0.9192 -0.3803
vn -0.0272 -0.9944 -0.1016
vt 0.362951 0.760898
vt 0.388597 0.760898
vt 0.388597 0.779969
vt 0.362951 0.779969
vt 0.260367 0.779969
vt 0.286013 0.779969
vt 0.286013 0.792252
vt 0.260367 0.792252
vt 0.234721 0.760898
vt 0.260367 0.760898
vt 0.234721 0.779969
vt 0.055198 0.760898
vt 0.080845 0.760898
vt 0.080845 0.779969
vt 0.055198 0.779969
vt 0.542474 0.760898
vt 0.568120 0.760898
vt 0.568120 0.779969
vt 0.542474 0.779969
vt 0.414243 0.760898
vt 0.439889 0.760898
vt 0.439889 0.779969
vt 0.414243 0.779969
vt 0.286013 0.760898
vt 0.311659 0.760898
vt 0.311659 0.779969
vt 0.157783 0.760898
vt 0.183429 0.760898
vt 0.183429 0.779969
vt 0.157783 0.779969
vt 0.106491 0.760898
vt 0.132137 0.760898
vt 0.132137 0.779969
vt 0.106491 0.779969
vt 0.593766 0.760898
vt 0.619412 0.760898
vt 0.619412 0.779969
vt 0.593766 0.779969
vt 0.465535 0.760898
vt 0.491182 0.760898
vt 0.491182 0.779969
vt 0.465535 0.779969
vt 0.337305 0.760898
vt 0.337305 0.779969
vt 0.209075 0.760898
vt 0.209075 0.779969
vt 0.029552 0.760898
vt 0.029552 0.779969
vt 0.516828 0.760898
vt 0.516828 0.779969
vt 0.003906 0.760898
vt 0.003906 0.779969
vt 0.491182 0.662735
vt 0.516828 0.662735
vt 0.516828 0.692171
vt 0.491182 0.692171
vt 0.003906 0.662735
vt 0.029552 0.662735
vt 0.029552 0.692171
vt 0.003906 0.692171
vt 0.183429 0.662735
vt 0.209075 0.662735
vt 0.209075 0.692171
vt 0.183429 0.692171
vt 0.311659 0.662735
vt 0.337305 0.662735
vt 0.337305 0.692171
vt 0.311659 0.692171
vt 0.439889 0.662735
vt 0.465535 0.662735
vt 0.465535 0.692171
vt 0.439889 0.692171
vt 0.132137 0.662735
vt 0.157783 0.662735
vt 0.157783 0.692171
vt 0.132137 0.692171
vt 0.568120 0.662735
vt 0.593766 0.662735
vt 0.593766 0.692171
vt 0.568120 0.692171
vt 0.080845 0.662735
vt 0.106491 0.662735
vt 0.106491 0.692171
vt 0.080845 0.692171
vt 0.260367 0.662735
vt 0.286013 0.662735
vt 0.286013 0.692171
vt 0.260367 0.692171
vt 0.388597 0.662735
vt 0.414243 0.662735
vt 0.414243 0.692171
vt 0.388597 0.692171
vt 0.542474 0.662735
vt 0.542474 0.692171
vt 0.055198 0.662735
vt 0.055198 0.692171
vt 0.234721 0.662735
vt 0.234721 0.692171
vt 0.362951 0.662735
vt 0.362951 0.692171
vt 0.619412 0.662735
vt 0.619412 0.692171
vt 0.362951 0.634873
vt 0.388597 0.634873
vt 0.234721 0.634873
vt 0.260367 0.634873
vt 0.055198 0.634873
vt 0.080845 0.634873
vt 0.542474 0.634873
vt 0.568120 0.634873
vt 0.414243 0.634873
vt 0.439889 0.634873
vt 0.286013 0.634873
vt 0.311659 0.634873
vt 0.157783 0.634873
vt 0.183429 0.634873
vt 0.106491 0.634873
vt 0.132137 0.634873
vt 0.593766 0.634873
vt 0.619412 0.634873
vt 0.465535 0.634873
vt 0.491182 0.634873
vt 0.337305 0.634873
vt 0.209075 0.634873
vt 0.029552 0.634873
vt 0.516828 0.634873
vt 0.003906 0.634873
vt 0.516828 0.732489
vt 0.491182 0.732489
vt 0.029552 0.732489
vt 0.003906 0.732489
vt 0.209075 0.732489
vt 0.183429 0.732489
vt 0.337305 0.732489
vt 0.311659 0.732489
vt 0.465535 0.732489
vt 0.439889 0.732489
vt 0.157783 0.732489
vt 0.132137 0.732489
vt 0.593766 0.732489
vt 0.568120 0.732489
vt 0.106491 0.732489
vt 0.080845 0.732489
vt 0.286013 0.732489
vt 0.260367 0.732489
vt 0.414243 0.732489
vt 0.388597 0.732489
vt 0.542474 0.732489
vt 0.055198 0.732489
vt 0.234721 0.732489
vt 0.362951 0.732489
vt 0.619412 0.732489
vt 0.106491 0.792252
vt 0.132137 0.792252
vt 0.132137 0.840683
vt 0.106491 0.840683
vt 0.465535 0.792252
vt 0.439889 0.792252
vt 0.029552 0.792252
vt 0.003906 0.792252
vt 0.234721 0.792252
vt 0.414243 0.792252
vt 0.619412 0.792252
vt 0.593766 0.792252
vt 0.209075 0.792252
vt 0.388597 0.792252
vt 0.568120 0.792252
vt 0.183429 0.792252
vt 0.157783 0.792252
vt 0.362951 0.792252
vt 0.542474 0.792252
vt 0.337305 0.792252
vt 0.516828 0.792252
vt 0.080845 0.792252
vt 0.311659 0.792252
vt 0.491182 0.792252
vt 0.055198 0.792252
vt 0.003906 0.848495
vt 0.017290 0.848495
vt 0.017290 0.850280
vt 0.003906 0.850280
vt 0.362951 0.840683
vt 0.337305 0.840683
vt 0.542474 0.840683
vt 0.516828 0.840683
vt 0.080845 0.840683
vt 0.311659 0.840683
vt 0.491182 0.840683
vt 0.055198 0.840683
vt 0.286013 0.840683
vt 0.465535 0.840683
vt 0.029552 0.840683
vt 0.260367 0.840683
vt 0.439889 0.840683
vt 0.003906 0.840683
vt 0.234721 0.840683
vt 0.414243 0.840683
vt 0.619412 0.840683
vt 0.593766 0.840683
vt 0.209075 0.840683
vt 0.388597 0.840683
vt 0.568120 0.840683
vt 0.183429 0.840683
vt 0.157783 0.840683
vt 0.177900 0.850280
vt 0.191284 0.850280
vt 0.191284 0.996094
vt 0.177900 0.996094
vt 0.124364 0.848495
vt 0.137748 0.848495
vt 0.137748 0.850280
vt 0.124364 0.850280
vt 0.218052 0.848495
vt 0.231437 0.848495
vt 0.231437 0.850280
vt 0.218052 0.850280
vt 0.311741 0.848495
vt 0.325126 0.848495
vt 0.325126 0.850280
vt 0.311741 0.850280
vt 0.110979 0.848495
vt 0.110979 0.850280
vt 0.204668 0.848495
vt 0.204668 0.850280
vt 0.298357 0.848495
vt 0.298357 0.850280
vt 0.097595 0.848495
vt 0.097595 0.850280
vt 0.070827 0.848495
vt 0.084211 0.848495
vt 0.084211 0.850280
vt 0.070827 0.850280
vt 0.191284 0.848495
vt 0.284973 0.848495
vt 0.284973 0.850280
vt 0.057443 0.848495
vt 0.057443 0.850280
vt 0.177900 0.848495
vt 0.271589 0.848495
vt 0.271589 0.850280
vt 0.044059 0.848495
vt 0.044059 0.850280
vt 0.164516 0.848495
vt 0.164516 0.850280
vt 0.258205 0.848495
vt 0.258205 0.850280
vt 0.030674 0.848495
vt 0.030674 0.850280
vt 0.151132 0.848495
vt 0.151132 0.850280
vt 0.244821 0.848495
vt 0.244821 0.850280
vt 0.953237 0.369753
vt 0.953237 0.383808
vt 0.947826 0.383808
vt 0.947826 0.369753
vt 0.284973 0.996094
vt 0.271589 0.996094
vt 0.057443 0.996094
vt 0.044059 0.996094
vt 0.164516 0.996094
vt 0.258205 0.996094
vt 0.030674 0.996094
vt 0.151132 0.996094
vt 0.244821 0.996094
vt 0.017290 0.996094
vt 0.137748 0.996094
vt 0.231437 0.996094
vt 0.003906 0.996094
vt 0.124363 0.996094
vt 0.218052 0.996094
vt 0.325126 0.996094
vt 0.311741 0.996094
vt 0.110979 0.996094
vt 0.204668 0.996094
vt 0.298357 0.996094
vt 0.097595 0.996094
vt 0.084211 0.996094
vt 0.070827 0.996094
vt 0.803255 0.920360
vt 0.817965 0.920360
vt 0.817965 0.958911
vt 0.803255 0.958911
vt 0.953237 0.496248
vt 0.953237 0.510303
vt 0.947826 0.510303
vt 0.947826 0.496248
vt 0.953237 0.594634
vt 0.953237 0.608689
vt 0.947826 0.608689
vt 0.947826 0.594634
vt 0.953237 0.693019
vt 0.953237 0.707074
vt 0.947826 0.707074
vt 0.947826 0.693019
vt 0.953237 0.482193
vt 0.947826 0.482193
vt 0.953237 0.580579
vt 0.947826 0.580579
vt 0.953237 0.678964
vt 0.947826 0.678964
vt 0.953237 0.468138
vt 0.947826 0.468138
vt 0.953237 0.440028
vt 0.953237 0.454083
vt 0.947826 0.454083
vt 0.947826 0.440028
vt 0.953237 0.566524
vt 0.947826 0.566524
vt 0.953237 0.664909
vt 0.947826 0.664909
vt 0.953237 0.425973
vt 0.947826 0.425973
vt 0.953237 0.552469
vt 0.947826 0.552469
vt 0.953237 0.650854
vt 0.947826 0.650854
vt 0.953237 0.411918
vt 0.947826 0.411918
vt 0.953237 0.538413
vt 0.947826 0.538413
vt 0.953237 0.636799
vt 0.947826 0.636799
vt 0.953237 0.397863
vt 0.947826 0.397863
vt 0.953237 0.524358
vt 0.947826 0.524358
vt 0.953237 0.622744
vt 0.947826 0.622744
vt 0.966457 0.496252
vt 0.966457 0.510308
vt 0.961050 0.510308
vt 0.961050 0.496252
vt 0.553185 0.920360
vt 0.567895 0.920360
vt 0.567895 0.958911
vt 0.553185 0.958911
vt 0.685575 0.920360
vt 0.700285 0.920360
vt 0.700285 0.958911
vt 0.685575 0.958911
vt 0.788545 0.920360
vt 0.788545 0.958911
vt 0.538475 0.920360
vt 0.538475 0.958911
vt 0.670865 0.920360
vt 0.670865 0.958911
vt 0.773835 0.920360
vt 0.773835 0.958911
vt 0.523765 0.920360
vt 0.523765 0.958911
vt 0.656155 0.920360
vt 0.656155 0.958911
vt 0.759125 0.920360
vt 0.759125 0.958911
vt 0.509055 0.920360
vt 0.509055 0.958911
vt 0.641445 0.920360
vt 0.641445 0.958911
vt 0.744415 0.920360
vt 0.744415 0.958911
vt 0.847385 0.920360
vt 0.862095 0.920360
vt 0.862095 0.958911
vt 0.847385 0.958911
vt 0.626735 0.920360
vt 0.626735 0.958911
vt 0.729705 0.920360
vt 0.729705 0.958911
vt 0.832675 0.920360
vt 0.832675 0.958911
vt 0.612025 0.920360
vt 0.612025 0.958911
vt 0.582605 0.920360
vt 0.597315 0.920360
vt 0.597315 0.958911
vt 0.582605 0.958911
vt 0.714995 0.920360
vt 0.714995 0.958911
vt 0.940014 0.637518
vt 0.940014 0.650907
vt 0.923550 0.650907
vt 0.923550 0.637518
vt 0.966457 0.594641
vt 0.966457 0.608696
vt 0.961050 0.608696
vt 0.961050 0.594641
vt 0.966457 0.693029
vt 0.966457 0.707085
vt 0.961050 0.707085
vt 0.961050 0.693029
vt 0.966457 0.482197
vt 0.961050 0.482197
vt 0.966457 0.580585
vt 0.961050 0.580585
vt 0.966457 0.678974
vt 0.961050 0.678974
vt 0.966457 0.468141
vt 0.961050 0.468141
vt 0.966457 0.440030
vt 0.966457 0.454086
vt 0.961050 0.454086
vt 0.961050 0.440030
vt 0.966457 0.566530
vt 0.961050 0.566530
vt 0.966457 0.664918
vt 0.961050 0.664918
vt 0.966457 0.425975
vt 0.961050 0.425975
vt 0.966457 0.552474
vt 0.961050 0.552474
vt 0.966457 0.650863
vt 0.961050 0.650863
vt 0.966457 0.411919
vt 0.961050 0.411919
vt 0.966457 0.538419
vt 0.961050 0.538419
vt 0.966457 0.636807
vt 0.961050 0.636807
vt 0.966457 0.397864
vt 0.961050 0.397864
vt 0.966457 0.524363
vt 0.961050 0.524363
vt 0.966457 0.622752
vt 0.961050 0.622752
vt 0.966457 0.383808
vt 0.961050 0.383808
vt 0.966457 0.369753
vt 0.961050 0.369753
vt 0.940014 0.409918
vt 0.940014 0.423306
vt 0.923550 0.423306
vt 0.923550 0.409918
vt 0.940014 0.530412
vt 0.940014 0.543800
vt 0.923550 0.543800
vt 0.923550 0.530412
vt 0.940014 0.624130
vt 0.923550 0.624130
vt 0.940014 0.396529
vt 0.923550 0.396529
vt 0.940014 0.517024
vt 0.923550 0.517024
vt 0.940014 0.610742
vt 0.923550 0.610742
vt 0.940014 0.383141
vt 0.923550 0.383141
vt 0.940014 0.503635
vt 0.923550 0.503635
vt 0.940014 0.597353
vt 0.923550 0.597353
vt 0.940014 0.369753
vt 0.923550 0.369753
vt 0.940014 0.490247
vt 0.923550 0.490247
vt 0.940014 0.583965
vt 0.923550 0.583965
vt 0.940014 0.677683
vt 0.940014 0.691071
vt 0.923550 0.691071
vt 0.923550 0.677683
vt 0.940014 0.476859
vt 0.923550 0.476859
vt 0.940014 0.570577
vt 0.923550 0.570577
vt 0.940014 0.664295
vt 0.923550 0.664295
vt 0.940014 0.463471
vt 0.923550 0.463471
vt 0.940014 0.436694
vt 0.940014 0.450082
vt 0.923550 0.450082
vt 0.923550 0.436694
vt 0.940014 0.557189
vt 0.923550 0.557189
vt 0.891424 0.214397
vt 0.891424 0.179315
vt 0.897478 0.179315
vt 0.897478 0.214397
vt 0.903547 0.179315
vt 0.903547 0.214397
vt 0.909635 0.179315
vt 0.909635 0.214397
vt 0.915738 0.179315
vt 0.915738 0.214397
vt 0.891424 0.144234
vt 0.897478 0.144234
vt 0.903547 0.144234
vt 0.909635 0.144234
vt 0.915738 0.144234
vt 0.891424 0.109152
vt 0.897478 0.109152
vt 0.903547 0.109152
vt 0.909635 0.109152
vt 0.915738 0.109152
vt 0.891424 0.074070
vt 0.897478 0.074070
vt 0.903547 0.074070
vt 0.909635 0.074070
vt 0.915738 0.074070
vt 0.891424 0.038988
vt 0.897478 0.038988
vt 0.903547 0.038988
vt 0.909635 0.038988
vt 0.915738 0.038988
vt 0.891424 0.003906
vt 0.897478 0.003906
vt 0.903547 0.003906
vt 0.909635 0.003906
vt 0.915738 0.003906
vt 0.891424 0.845870
vt 0.891424 0.810788
vt 0.897478 0.810788
vt 0.897478 0.845870
vt 0.903547 0.810788
vt 0.903547 0.845870
vt 0.909635 0.810788
vt 0.909635 0.845870
vt 0.915738 0.810788
vt 0.915738 0.845870
vt 0.891424 0.775706
vt 0.897478 0.775706
vt 0.903547 0.775706
vt 0.909635 0.775706
vt 0.915738 0.775706
vt 0.891424 0.740624
vt 0.897478 0.740624
vt 0.903547 0.740624
vt 0.909635 0.740624
vt 0.915738 0.740624
vt 0.891424 0.705542
vt 0.897478 0.705542
vt 0.903547 0.705542
vt 0.909635 0.705542
vt 0.915738 0.705542
vt 0.891424 0.670461
vt 0.897478 0.670461
vt 0.903547 0.670461
vt 0.909635 0.670461
vt 0.915738 0.670461
vt 0.891424 0.635379
vt 0.897478 0.635379
vt 0.903547 0.635379
vt 0.909635 0.635379
vt 0.915738 0.635379
vt 0.891424 0.600297
vt 0.897478 0.600297
vt 0.903547 0.600297
vt 0.909635 0.600297
vt 0.915738 0.600297
vt 0.891424 0.565215
vt 0.897478 0.565215
vt 0.903547 0.565215
vt 0.909635 0.565215
vt 0.915738 0.565215
vt 0.891424 0.530134
vt 0.897478 0.530134
vt 0.903547 0.530134
vt 0.909635 0.530134
vt 0.915738 0.530134
vt 0.891424 0.495052
vt 0.897478 0.495052
vt 0.903547 0.495052
vt 0.909635 0.495052
vt 0.915738 0.495052
vt 0.891424 0.459970
vt 0.897478 0.459970
vt 0.903547 0.459970
vt 0.909635 0.459970
vt 0.915738 0.459970
vt 0.891424 0.424888
vt 0.897478 0.424888
vt 0.903547 0.424888
vt 0.909635 0.424888
vt 0.915738 0.424888
vt 0.891424 0.389806
vt 0.897478 0.389806
vt 0.903547 0.389806
vt 0.909635 0.389806
vt 0.915738 0.389806
vt 0.891424 0.354724
vt 0.897478 0.354724
vt 0.903547 0.354724
vt 0.909635 0.354724
vt 0.915738 0.354724
vt 0.891424 0.319643
vt 0.897478 0.319643
vt 0.903547 0.319643
vt 0.909635 0.319643
vt 0.915738 0.319643
vt 0.891424 0.284561
vt 0.897478 0.284561
vt 0.903547 0.284561
vt 0.909635 0.284561
vt 0.915738 0.284561
vt 0.891424 0.249479
vt 0.897478 0.249479
vt 0.903547 0.249479
vt 0.909635 0.249479
vt 0.915738 0.249479
vt 0.223833 0.003907
vt 0.223833 0.627060
vt 0.187178 0.627060
vt 0.187179 0.003907
vt 0.260487 0.003907
vt 0.260487 0.627060
vt 0.150524 0.627060
vt 0.150524 0.003907
vt 0.113869 0.627060
vt 0.113870 0.003907
vt 0.077215 0.627060
vt 0.077216 0.003907
vt 0.040561 0.627060
vt 0.040562 0.003907
vt 0.003906 0.627060
vt 0.003907 0.003906
vt 0.883612 0.003907
vt 0.883611 0.627060
vt 0.846956 0.627060
vt 0.846957 0.003907
vt 0.810302 0.627060
vt 0.810303 0.003907
vt 0.773648 0.627060
vt 0.773648 0.003906
vt 0.736993 0.627060
vt 0.736994 0.003906
vt 0.700339 0.627060
vt 0.700340 0.003906
vt 0.663685 0.627060
vt 0.663685 0.003906
vt 0.627030 0.627060
vt 0.627031 0.003906
vt 0.590376 0.627060
vt 0.590376 0.003906
vt 0.553722 0.627060
vt 0.553722 0.003906
vt 0.517067 0.627060
vt 0.517068 0.003906
vt 0.480413 0.627060
vt 0.480413 0.003907
vt 0.443759 0.627060
vt 0.443759 0.003907
vt 0.407104 0.627060
vt 0.407105 0.003907
vt 0.370450 0.627060
vt 0.370450 0.003907
vt 0.333796 0.627060
vt 0.333796 0.003907
vt 0.297141 0.627060
vt 0.297142 0.003907
vt 0.849824 0.682601
vt 0.793669 0.655217
vt 0.798605 0.643300
vt 0.826802 0.659579
vt 0.734598 0.634873
vt 0.767156 0.634873
vt 0.866103 0.710798
vt 0.785817 0.674174
vt 0.703149 0.643300
vt 0.874530 0.742247
vt 0.775583 0.698880
vt 0.674953 0.659579
vt 0.874530 0.774805
vt 0.763666 0.727651
vt 0.651930 0.682601
vt 0.866103 0.806254
vt 0.750877 0.758526
vt 0.635651 0.710798
vt 0.849824 0.834451
vt 0.738088 0.789401
vt 0.627224 0.742247
vt 0.826802 0.857473
vt 0.726171 0.818171
vt 0.627224 0.774805
vt 0.798605 0.873752
vt 0.715938 0.842877
vt 0.635651 0.806254
vt 0.767156 0.882179
vt 0.708085 0.861835
vt 0.651930 0.834450
vt 0.734598 0.882179
vt 0.703149 0.873752
vt 0.674952 0.857473
vt 0.424473 0.930563
vt 0.415006 0.940030
vt 0.403411 0.946724
vt 0.431167 0.918968
vt 0.390479 0.950189
vt 0.434632 0.906036
vt 0.377091 0.950189
vt 0.434632 0.892648
vt 0.364159 0.946724
vt 0.431167 0.879716
vt 0.352564 0.940030
vt 0.424473 0.868121
vt 0.343097 0.930563
vt 0.415006 0.858654
vt 0.336403 0.918968
vt 0.403411 0.851960
vt 0.332938 0.906036
vt 0.390479 0.848495
vt 0.332938 0.892648
vt 0.377091 0.848495
vt 0.336403 0.879716
vt 0.364159 0.851960
vt 0.343097 0.868121
vt 0.352564 0.858654
s 1
usemtl Vino
f 131/1/1 121/2/2 40/3/3 41/4/4
f 45/5/5 44/6/6 164/7/7 165/8/8
f 132/9/9 122/10/10 45/5/5 46/11/11
f 133/12/12 123/13/13 28/14/14 29/15/15
f 134/16/16 124/17/17 33/18/18 34/19/19
f 135/20/20 125/21/21 38/22/22 39/23/23
f 136/24/24 126/25/25 43/26/26 44/6/6
f 137/27/27 127/28/28 48/29/29 25/30/30
f 138/31/31 128/32/32 26/33/33 27/34/34
f 139/35/35 129/36/36 31/37/37 32/38/38
f 140/39/39 130/40/40 36/41/41 37/42/42
f 141/43/43 131/1/1 41/4/4 42/44/44
f 142/45/45 132/9/9 46/11/11 47/46/46
f 143/47/47 133/12/12 29/15/15 30/48/48
f 144/49/49 134/16/16 34/19/19 35/50/50
f 121/2/2 135/20/20 39/23/23 40/3/3
f 122/10/10 136/24/24 44/6/6 45/5/5
f 123/13/13 138/31/31 27/34/34 28/14/14
f 124/17/17 139/35/35 32/38/38 33/18/18
f 128/32/32 137/27/27 25/30/30 26/33/33
f 125/21/21 140/39/39 37/42/42 38/22/22
f 126/25/25 141/43/43 42/44/44 43/26/26
f 127/28/28 142/45/45 47/46/46 48/29/29
f 129/51/36 143/47/47 30/48/48 31/52/37
f 130/40/40 144/49/49 35/50/50 36/41/41
f 96/53/51 86/54/52 72/55/53 67/56/54
f 95/57/55 85/58/56 71/59/57 65/60/58
f 93/61/59 84/62/60 70/63/61 61/64/62
f 92/65/63 83/66/64 69/67/65 59/68/66
f 91/69/67 82/70/68 68/71/69 57/72/70
f 94/73/71 79/74/72 62/75/73 63/76/74
f 90/77/75 81/78/76 66/79/77 55/80/78
f 89/81/79 80/82/80 64/83/81 53/84/82
f 88/85/83 78/86/84 60/87/85 51/88/86
f 87/89/87 77/90/88 58/91/89 49/92/90
f 86/54/52 76/93/91 56/94/92 72/55/53
f 85/58/56 75/95/93 54/96/94 71/59/57
f 84/62/60 74/97/95 52/98/96 70/63/61
f 83/66/64 73/99/97 50/100/98 69/67/65
f 82/70/68 96/53/51 67/56/54 68/71/69
f 81/78/76 95/101/55 65/102/58 66/79/77
f 80/82/80 94/73/71 63/76/74 64/83/81
f 79/74/72 93/61/59 61/64/62 62/75/73
f 78/86/84 92/65/63 59/68/66 60/87/85
f 77/90/88 91/69/67 57/72/70 58/91/89
f 76/93/91 90/77/75 55/80/78 56/94/92
f 75/95/93 89/81/79 53/84/82 54/96/94
f 74/97/95 88/85/83 51/88/86 52/98/96
f 73/99/97 87/89/87 49/92/90 50/100/98
f 17/103/99 16/104/100 87/89/87 73/99/97
f 22/105/101 21/106/102 88/85/83 74/97/95
f 5/107/103 4/108/104 89/81/79 75/95/93
f 10/109/105 9/110/106 90/77/75 76/93/91
f 15/111/107 14/112/108 91/69/67 77/90/88
f 20/113/109 19/114/110 92/65/63 78/86/84
f 1/115/111 24/116/112 93/61/59 79/74/72
f 3/117/113 2/118/114 94/73/71 80/82/80
f 8/119/115 7/120/116 95/101/55 81/78/76
f 13/121/117 12/122/118 96/53/51 82/70/68
f 18/123/119 17/103/99 73/99/97 83/66/64
f 23/124/120 22/105/101 74/97/95 84/62/60
f 6/125/121 5/107/103 75/95/93 85/58/56
f 11/126/122 10/109/105 76/93/91 86/54/52
f 16/104/100 15/111/107 77/90/88 87/89/87
f 21/106/102 20/113/109 78/86/84 88/85/83
f 4/108/104 3/117/113 80/82/80 89/81/79
f 9/110/106 8/119/115 81/78/76 90/77/75
f 2/118/114 1/115/111 79/74/72 94/73/71
f 14/112/108 13/121/117 82/70/68 91/69/67
f 19/114/110 18/123/119 83/66/64 92/65/63
f 24/116/112 23/124/120 84/62/60 93/61/59
f 7/127/116 6/125/121 85/58/56 95/57/55
f 12/122/118 11/126/122 86/54/52 96/53/51
f 67/56/54 72/55/53 120/128/123 106/129/124
f 65/60/58 71/59/57 119/130/125 105/131/126
f 61/64/62 70/63/61 118/132/127 103/133/128
f 59/68/66 69/67/65 117/134/129 102/135/130
f 57/72/70 68/71/69 116/136/131 101/137/132
f 63/76/74 62/75/73 113/138/133 104/139/134
f 55/80/78 66/79/77 115/140/135 100/141/136
f 53/84/82 64/83/81 114/142/137 99/143/138
f 51/88/86 60/87/85 112/144/139 98/145/140
f 49/92/90 58/91/89 111/146/141 97/147/142
f 72/55/53 56/94/92 110/148/143 120/128/123
f 71/59/57 54/96/94 109/149/144 119/130/125
f 70/63/61 52/98/96 108/150/145 118/132/127
f 69/67/65 50/100/98 107/151/146 117/134/129
f 68/71/69 67/56/54 106/129/124 116/136/131
f 66/79/77 65/102/58 105/152/126 115/140/135
f 64/83/81 63/76/74 104/139/134 114/142/137
f 62/75/73 61/64/62 103/133/128 113/138/133
f 60/87/85 59/68/66 102/135/130 112/144/139
f 58/91/89 57/72/70 101/137/132 111/146/141
f 56/94/92 55/80/78 100/141/136 110/148/143
f 54/96/94 53/84/82 99/143/138 109/149/144
f 52/98/96 51/88/86 98/145/140 108/150/145
f 50/100/98 49/92/90 97/147/142 107/151/146
f 106/129/124 120/128/123 144/49/49 130/40/40
f 105/131/126 119/130/125 143/47/47 129/51/36
f 103/133/128 118/132/127 142/45/45 127/28/28
f 102/135/130 117/134/129 141/43/43 126/25/25
f 101/137/132 116/136/131 140/39/39 125/21/21
f 104/139/134 113/138/133 137/27/27 128/32/32
f 100/141/136 115/140/135 139/35/35 124/17/17
f 99/143/138 114/142/137 138/31/31 123/13/13
f 98/145/140 112/144/139 136/24/24 122/10/10
f 97/147/142 111/146/141 135/20/20 121/2/2
f 120/128/123 110/148/143 134/16/16 144/49/49
f 119/130/125 109/149/144 133/12/12 143/47/47
f 118/132/127 108/150/145 132/9/9 142/45/45
f 117/134/129 107/151/146 131/1/1 141/43/43
f 116/136/131 106/129/124 130/40/40 140/39/39
f 115/140/135 105/152/126 129/36/36 139/35/35
f 114/142/137 104/139/134 128/32/32 138/31/31
f 113/138/133 103/133/128 127/28/28 137/27/27
f 112/144/139 102/135/130 126/25/25 136/24/24
f 111/146/141 101/137/132 125/21/21 135/20/20
f 110/148/143 100/141/136 124/17/17 134/16/16
f 109/149/144 99/143/138 123/13/13 133/12/12
f 108/150/145 98/145/140 122/10/10 132/9/9
f 107/151/146 97/147/142 121/2/2 131/1/1
f 147/153/147 146/154/148 170/155/149 171/156/150
f 38/22/22 37/42/42 157/157/151 158/158/152
f 31/52/37 30/48/48 150/159/153 151/160/154
f 46/11/11 45/5/5 165/8/8 166/161/155
f 39/23/23 38/22/22 158/158/152 159/162/156
f 32/38/38 31/37/37 151/163/154 152/164/157
f 47/46/46 46/11/11 166/161/155 167/165/158
f 40/3/3 39/23/23 159/162/156 160/166/159
f 33/18/18 32/38/38 152/164/157 153/167/160
f 48/29/29 47/46/46 167/165/158 168/168/161
f 26/33/33 25/30/30 145/169/162 146/154/148
f 41/4/4 40/3/3 160/166/159 161/170/163
f 34/19/19 33/18/18 153/167/160 154/171/164
f 25/30/30 48/29/29 168/168/161 145/169/162
f 27/34/34 26/33/33 146/154/148 147/153/147
f 42/44/44 41/4/4 161/170/163 162/172/165
f 35/50/50 34/19/19 154/171/164 155/173/166
f 28/14/14 27/34/34 147/153/147 148/174/167
f 43/26/26 42/44/44 162/172/165 163/175/168
f 36/41/41 35/50/50 155/173/166 156/176/169
f 29/15/15 28/14/14 148/174/167 149/177/170
f 44/6/6 43/26/26 163/175/168 164/7/7
f 37/42/42 36/41/41 156/176/169 157/157/151
f 30/48/48 29/15/15 149/177/170 150/159/153
f 175/178/171 174/179/172 198/180/172 199/181/171
f 162/172/165 161/170/163 185/182/173 186/183/174
f 155/173/166 154/171/164 178/184/175 179/185/176
f 148/174/167 147/153/147 171/156/150 172/186/177
f 163/175/168 162/172/165 186/183/174 187/187/178
f 156/176/169 155/173/166 179/185/176 180/188/179
f 149/177/170 148/174/167 172/186/177 173/189/180
f 164/7/7 163/175/168 187/187/178 188/190/181
f 157/157/151 156/176/169 180/188/179 181/191/182
f 150/159/153 149/177/170 173/189/180 174/192/183
f 165/8/8 164/7/7 188/190/181 189/193/184
f 158/158/152 157/157/151 181/191/182 182/194/185
f 151/160/154 150/159/153 174/192/183 175/195/186
f 166/161/155 165/8/8 189/193/184 190/196/187
f 159/162/156 158/158/152 182/194/185 183/197/188
f 152/164/157 151/163/154 175/198/186 176/199/189
f 167/165/158 166/161/155 190/196/187 191/200/190
f 160/166/159 159/162/156 183/197/188 184/201/191
f 153/167/160 152/164/157 176/199/189 177/202/192
f 168/168/161 167/165/158 191/200/190 192/203/193
f 146/154/148 145/169/162 169/204/194 170/155/149
f 161/170/163 160/166/159 184/201/191 185/182/173
f 154/171/164 153/167/160 177/202/192 178/184/175
f 145/169/162 168/168/161 192/203/193 169/204/194
f 210/205/174 209/206/173 233/207/173 234/208/174
f 190/209/195 189/210/196 213/211/196 214/212/195
f 183/213/197 182/214/198 206/215/198 207/216/197
f 176/217/199 175/218/171 199/219/171 200/220/199
f 191/221/200 190/209/195 214/212/195 215/222/200
f 184/223/201 183/213/197 207/216/197 208/224/201
f 177/225/202 176/217/199 200/220/199 201/226/202
f 192/227/203 191/221/200 215/222/200 216/228/203
f 170/229/204 169/230/205 193/231/205 194/232/204
f 185/233/206 184/223/201 208/224/201 209/206/206
f 178/234/207 177/225/202 201/226/202 202/235/207
f 169/230/205 192/227/203 216/228/203 193/231/205
f 171/236/208 170/229/204 194/232/204 195/237/208
f 186/238/209 185/233/206 209/206/206 210/205/209
f 179/239/210 178/234/207 202/235/207 203/240/210
f 172/241/211 171/236/208 195/237/208 196/242/211
f 187/243/212 186/238/209 210/205/209 211/244/212
f 180/245/213 179/239/210 203/240/210 204/246/213
f 173/247/214 172/241/211 196/242/211 197/248/214
f 188/249/215 187/243/212 211/244/212 212/250/215
f 181/251/216 180/245/213 204/246/213 205/252/216
f 174/179/172 173/247/214 197/248/214 198/180/172
f 189/210/196 188/249/215 212/250/215 213/211/196
f 182/214/198 181/251/216 205/252/216 206/215/198
f 223/253/217 222/254/217 246/255/217 247/256/217
f 203/240/176 202/235/175 226/257/175 227/258/176
f 196/242/177 195/237/150 219/259/150 220/260/177
f 211/244/178 210/205/174 234/208/174 235/261/178
f 204/246/179 203/240/176 227/258/176 228/262/179
f 197/248/180 196/242/177 220/260/177 221/263/180
f 212/250/181 211/244/178 235/261/178 236/264/181
f 205/252/182 204/246/179 228/262/179 229/265/182
f 198/180/183 197/248/180 221/263/180 222/266/183
f 213/211/184 212/250/181 236/264/181 237/267/184
f 206/215/185 205/252/182 229/265/182 230/268/185
f 199/181/186 198/180/183 222/266/183 223/269/186
f 214/212/187 213/211/184 237/267/184 238/270/187
f 207/216/188 206/215/185 230/268/185 231/271/188
f 200/220/189 199/219/186 223/272/186 224/273/189
f 215/222/190 214/212/187 238/270/187 239/274/190
f 208/224/191 207/216/188 231/271/188 232/275/191
f 201/226/192 200/220/189 224/273/189 225/276/192
f 216/228/193 215/222/190 239/274/190 240/277/193
f 194/232/149 193/231/194 217/278/194 218/279/149
f 209/206/173 208/224/191 232/275/191 233/207/173
f 202/235/175 201/226/192 225/276/192 226/257/175
f 193/231/194 216/228/193 240/277/193 217/278/194
f 195/237/150 194/232/149 218/279/149 219/259/150
f 251/280/176 250/281/175 274/282/175 275/283/176
f 238/284/217 237/285/217 261/286/217 262/287/217
f 231/288/217 230/289/217 254/290/217 255/291/217
f 224/292/217 223/293/217 247/294/217 248/295/217
f 239/296/217 238/284/217 262/287/217 263/297/217
f 232/298/217 231/288/217 255/291/217 256/299/217
f 225/300/217 224/292/217 248/295/217 249/301/217
f 240/302/217 239/296/217 263/297/217 264/303/217
f 218/304/217 217/305/217 241/306/217 242/307/217
f 233/308/217 232/298/217 256/299/217 257/309/217
f 226/310/217 225/300/217 249/301/217 250/311/217
f 217/305/217 240/302/217 264/303/217 241/306/217
f 219/312/217 218/304/217 242/307/217 243/313/217
f 234/314/217 233/308/217 257/309/217 258/315/217
f 227/316/217 226/310/217 250/311/217 251/317/217
f 220/318/217 219/312/217 243/313/217 244/319/217
f 235/320/217 234/314/217 258/315/217 259/321/217
f 228/322/217 227/316/217 251/317/217 252/323/217
f 221/324/217 220/318/217 244/319/217 245/325/217
f 236/326/217 235/320/217 259/321/217 260/327/217
f 229/328/217 228/322/217 252/323/217 253/329/217
f 222/254/217 221/324/217 245/325/217 246/255/217
f 237/285/217 236/326/217 260/327/217 261/286/217
f 230/289/217 229/328/217 253/329/217 254/290/217
f 286/330/218 285/331/218 309/332/218 310/333/218
f 244/334/177 243/335/150 267/336/150 268/337/177
f 259/338/178 258/339/174 282/340/174 283/341/178
f 252/342/179 251/280/176 275/283/176 276/343/179
f 245/344/180 244/334/177 268/337/177 269/345/180
f 260/346/181 259/338/178 283/341/178 284/347/181
f 253/348/182 252/342/179 276/343/179 277/349/182
f 246/350/183 245/344/180 269/345/180 270/351/183
f 261/352/184 260/346/181 284/347/181 285/353/184
f 254/354/185 253/348/182 277/349/182 278/355/185
f 247/356/186 246/350/183 270/351/183 271/357/186
f 262/358/187 261/352/184 285/353/184 286/359/187
f 255/360/188 254/354/185 278/355/185 279/361/188
f 248/362/189 247/363/186 271/364/186 272/365/189
f 263/366/190 262/358/187 286/359/187 287/367/190
f 256/368/191 255/360/188 279/361/188 280/369/191
f 249/370/192 248/362/189 272/365/189 273/371/192
f 264/372/193 263/366/190 287/367/190 288/373/193
f 242/374/149 241/375/194 265/376/194 266/377/149
f 257/378/173 256/368/191 280/369/191 281/379/173
f 250/281/175 249/370/192 273/371/192 274/282/175
f 241/375/194 264/372/193 288/373/193 265/376/194
f 243/335/150 242/374/149 266/377/149 267/336/150
f 258/339/174 257/378/173 281/379/173 282/340/174
f 299/380/176 298/381/175 322/382/175 323/383/176
f 279/384/218 278/385/218 302/386/218 303/387/218
f 272/388/218 271/389/218 295/390/218 296/391/218
f 287/392/218 286/330/218 310/333/218 311/393/218
f 280/394/218 279/384/218 303/387/218 304/395/218
f 273/396/218 272/388/218 296/391/218 297/397/218
f 288/398/218 287/392/218 311/393/218 312/399/218
f 266/400/218 265/401/218 289/402/218 290/403/218
f 281/404/218 280/394/218 304/395/218 305/405/218
f 274/406/218 273/396/218 297/397/218 298/407/218
f 265/401/218 288/398/218 312/399/218 289/402/218
f 267/408/218 266/400/218 290/403/218 291/409/218
f 282/410/218 281/404/218 305/405/218 306/411/218
f 275/412/218 274/406/218 298/407/218 299/413/218
f 268/414/218 267/408/218 291/409/218 292/415/218
f 283/416/218 282/410/218 306/411/218 307/417/218
f 276/418/218 275/412/218 299/413/218 300/419/218
f 269/420/218 268/414/218 292/415/218 293/421/218
f 284/422/218 283/416/218 307/417/218 308/423/218
f 277/424/218 276/418/218 300/419/218 301/425/218
f 270/426/218 269/420/218 293/421/218 294/427/218
f 285/331/218 284/422/218 308/423/218 309/332/218
f 278/385/218 277/424/218 301/425/218 302/386/218
f 271/428/218 270/426/218 294/427/218 295/429/218
f 292/430/177 291/431/150 315/432/150 316/433/177
f 307/434/178 306/435/174 330/436/174 331/437/178
f 300/438/179 299/380/176 323/383/176 324/439/179
f 293/440/180 292/430/177 316/433/177 317/441/180
f 308/442/181 307/434/178 331/437/178 332/443/181
f 301/444/182 300/438/179 324/439/179 325/445/182
f 294/446/183 293/440/180 317/441/180 318/447/183
f 309/448/184 308/442/181 332/443/181 333/449/184
f 302/450/185 301/444/182 325/445/182 326/451/185
f 295/452/186 294/446/183 318/447/183 319/453/186
f 310/454/187 309/448/184 333/449/184 334/455/187
f 303/456/188 302/450/185 326/451/185 327/457/188
f 296/458/189 295/459/186 319/460/186 320/461/189
f 311/462/190 310/454/187 334/455/187 335/463/190
f 304/464/191 303/456/188 327/457/188 328/465/191
f 297/466/192 296/458/189 320/461/189 321/467/192
f 312/468/193 311/462/190 335/463/190 336/469/193
f 290/470/149 289/471/194 313/472/194 314/473/149
f 305/474/173 304/464/191 328/465/191 329/475/173
f 298/381/175 297/466/192 321/467/192 322/382/175
f 289/471/194 312/468/193 336/469/193 313/472/194
f 291/431/150 290/470/149 314/473/149 315/432/150
f 306/435/174 305/474/173 329/475/173 330/436/174
f 338/476/219 343/477/220 346/478/221 341/479/222
f 341/479/222 346/478/221 345/480/223 340/481/224
f 340/481/224 345/480/223 344/482/225 339/483/226
f 339/483/226 344/482/225 342/484/227 337/485/228
f 343/477/220 348/486/229 351/487/230 346/478/221
f 346/478/221 351/487/230 350/488/231 345/480/223
f 345/480/223 350/488/231 349/489/232 344/482/225
f 344/482/225 349/489/232 347/490/233 342/484/227
f 348/486/229 353/491/234 356/492/235 351/487/230
f 351/487/230 356/492/235 355/493/236 350/488/231
f 350/488/231 355/493/236 354/494/237 349/489/232
f 349/489/232 354/494/237 352/495/238 347/490/233
f 353/491/234 358/496/239 361/497/240 356/492/235
f 356/492/235 361/497/240 360/498/241 355/493/236
f 355/493/236 360/498/241 359/499/242 354/494/237
f 354/494/237 359/499/242 357/500/243 352/495/238
f 358/496/239 363/501/244 366/502/245 361/497/240
f 361/497/240 366/502/245 365/503/246 360/498/241
f 360/498/241 365/503/246 364/504/247 359/499/242
f 359/499/242 364/504/247 362/505/248 357/500/243
f 363/501/244 368/506/249 371/507/250 366/502/245
f 366/502/245 371/507/250 370/508/251 365/503/246
f 365/503/246 370/508/251 369/509/252 364/504/247
f 364/504/247 369/509/252 367/510/253 362/505/248
f 368/511/249 373/512/254 376/513/255 371/514/250
f 371/514/250 376/513/255 375/515/256 370/516/251
f 370/516/251 375/515/256 374/517/257 369/518/252
f 369/518/252 374/517/257 372/519/258 367/520/253
f 373/512/254 378/521/259 381/522/260 376/513/255
f 376/513/255 381/522/260 380/523/261 375/515/256
f 375/515/256 380/523/261 379/524/262 374/517/257
f 374/517/257 379/524/262 377/525/263 372/519/258
f 378/521/259 383/526/264 386/527/265 381/522/260
f 381/522/260 386/527/265 385/528/266 380/523/261
f 380/523/261 385/528/266 384/529/267 379/524/262
f 379/524/262 384/529/267 382/530/268 377/525/263
f 383/526/264 388/531/269 391/532/270 386/527/265
f 386/527/265 391/532/270 390/533/271 385/528/266
f 385/528/266 390/533/271 389/534/272 384/529/267
f 384/529/267 389/534/272 387/535/273 382/530/268
f 388/531/269 393/536/274 396/537/275 391/532/270
f 391/532/270 396/537/275 395/538/276 390/533/271
f 390/533/271 395/538/276 394/539/277 389/534/272
f 389/534/272 394/539/277 392/540/278 387/535/273
f 393/536/274 398/541/279 401/542/280 396/537/275
f 396/537/275 401/542/280 400/543/281 395/538/276
f 395/538/276 400/543/281 399/544/282 394/539/277
f 394/539/277 399/544/282 397/545/283 392/540/278
f 398/541/279 403/546/284 406/547/285 401/542/280
f 401/542/280 406/547/285 405/548/286 400/543/281
f 400/543/281 405/548/286 404/549/287 399/544/282
f 399/544/282 404/549/287 402/550/288 397/545/283
f 403/546/284 408/551/289 411/552/290 406/547/285
f 406/547/285 411/552/290 410/553/291 405/548/286
f 405/548/286 410/553/291 409/554/292 404/549/287
f 404/549/287 409/554/292 407/555/293 402/550/288
f 408/551/289 413/556/294 416/557/295 411/552/290
f 411/552/290 416/557/295 415/558/296 410/553/291
f 410/553/291 415/558/296 414/559/297 409/554/292
f 409/554/292 414/559/297 412/560/298 407/555/293
f 413/556/294 418/561/299 421/562/300 416/557/295
f 416/557/295 421/562/300 420/563/301 415/558/296
f 415/558/296 420/563/301 419/564/302 414/559/297
f 414/559/297 419/564/302 417/565/303 412/560/298
f 418/561/299 423/566/304 426/567/305 421/562/300
f 421/562/300 426/567/305 425/568/306 420/563/301
f 420/563/301 425/568/306 424/569/307 419/564/302
f 419/564/302 424/569/307 422/570/308 417/565/303
f 423/566/304 428/571/309 431/572/310 426/567/305
f 426/567/305 431/572/310 430/573/311 425/568/306
f 425/568/306 430/573/311 429/574/312 424/569/307
f 424/569/307 429/574/312 427/575/313 422/570/308
f 428/571/309 433/576/314 436/577/315 431/572/310
f 431/572/310 436/577/315 435/578/316 430/573/311
f 430/573/311 435/578/316 434/579/317 429/574/312
f 429/574/312 434/579/317 432/580/318 427/575/313
f 433/576/314 438/581/319 441/582/320 436/577/315
f 436/577/315 441/582/320 440/583/321 435/578/316
f 435/578/316 440/583/321 439/584/322 434/579/317
f 434/579/317 439/584/322 437/585/323 432/580/318
f 438/581/319 443/586/324 446/587/325 441/582/320
f 441/582/320 446/587/325 445/588/326 440/583/321
f 440/583/321 445/588/326 444/589/327 439/584/322
f 439/584/322 444/589/327 442/590/328 437/585/323
f 443/586/324 448/591/329 451/592/330 446/587/325
f 446/587/325 451/592/330 450/593/331 445/588/326
f 445/588/326 450/593/331 449/594/332 444/589/327
f 444/589/327 449/594/332 447/595/333 442/590/328
f 448/591/329 453/596/334 456/597/335 451/592/330
f 451/592/330 456/597/335 455/598/336 450/593/331
f 450/593/331 455/598/336 454/599/337 449/594/332
f 449/594/332 454/599/337 452/600/338 447/595/333
f 453/596/334 338/476/219 341/479/222 456/597/335
f 456/597/335 341/479/222 340/481/224 455/598/336
f 455/598/336 340/481/224 339/483/226 454/599/337
f 454/599/337 339/483/226 337/485/228 452/600/338
f 338/601/219 1/602/111 2/603/114 343/604/220
f 453/605/334 24/606/112 1/602/111 338/601/219
f 343/604/220 2/603/114 3/607/113 348/608/229
f 348/608/229 3/607/113 4/609/104 353/610/234
f 353/610/234 4/609/104 5/611/103 358/612/239
f 358/612/239 5/611/103 6/613/121 363/614/244
f 363/614/244 6/613/121 7/615/116 368/616/249
f 368/617/249 7/618/116 8/619/115 373/620/254
f 373/620/254 8/619/115 9/621/106 378/622/259
f 378/622/259 9/621/106 10/623/105 383/624/264
f 383/624/264 10/623/105 11/625/122 388/626/269
f 388/626/269 11/625/122 12/627/118 393/628/274
f 393/628/274 12/627/118 13/629/117 398/630/279
f 398/630/279 13/629/117 14/631/108 403/632/284
f 403/632/284 14/631/108 15/633/107 408/634/289
f 408/634/289 15/633/107 16/635/100 413/636/294
f 413/636/294 16/635/100 17/637/99 418/638/299
f 418/638/299 17/637/99 18/639/119 423/640/304
f 423/640/304 18/639/119 19/641/110 428/642/309
f 428/642/309 19/641/110 20/643/109 433/644/314
f 433/644/314 20/643/109 21/645/102 438/646/319
f 438/646/319 21/645/102 22/647/101 443/648/324
f 443/648/324 22/647/101 23/649/120 448/650/329
f 448/650/329 23/649/120 24/606/112 453/605/334
f 417/651/303 457/652/217 407/653/293 412/654/298
f 457/652/217 397/655/283 402/656/288 407/653/293
f 422/657/308 458/658/217 457/652/217 417/651/303
f 458/658/217 392/659/278 397/655/283 457/652/217
f 427/660/313 459/661/217 458/658/217 422/657/308
f 459/661/217 387/662/273 392/659/278 458/658/217
f 432/663/318 460/664/217 459/661/217 427/660/313
f 460/664/217 382/665/268 387/662/273 459/661/217
f 437/666/323 461/667/217 460/664/217 432/663/318
f 461/667/217 377/668/263 382/665/268 460/664/217
f 442/669/328 462/670/217 461/667/217 437/666/323
f 462/670/217 372/671/258 377/668/263 461/667/217
f 447/672/333 463/673/217 462/670/217 442/669/328
f 463/673/217 367/674/253 372/671/258 462/670/217
f 452/675/338 464/676/217 463/673/217 447/672/333
f 464/676/217 362/677/248 367/674/253 463/673/217
f 337/678/228 465/679/217 464/676/217 452/675/338
f 465/679/217 357/680/243 362/677/248 464/676/217
f 342/681/227 347/682/233 465/679/217 337/678/228
f 347/682/233 352/683/238 357/680/243 465/679/217
f 331/684/218 330/685/218 329/686/218 332/687/218
f 332/687/218 329/686/218 328/688/218 333/689/218
f 333/689/218 328/688/218 327/690/218 334/691/218
f 334/691/218 327/690/218 326/692/218 335/693/218
f 335/693/218 326/692/218 325/694/218 336/695/218
f 336/695/218 325/694/218 324/696/218 313/697/218
f 313/697/218 324/696/218 323/698/218 314/699/218
f 314/699/218 323/698/218 322/700/218 315/701/218
f 315/701/218 322/700/218 321/702/218 316/703/218
f 316/703/218 321/702/218 320/704/218 317/705/218
f 317/705/218 320/704/218 319/706/218 318/707/218
